%
M48
M72
T01C0.0236
T02C0.0276
T03C0.0315
T04C0.0320
T05C0.0354
T06C0.0394
T07C0.0400
T08C0.0472
T09C0.1180
T10C0.1300
%
T01
X17333Y2342
X20083Y5342
X21833Y5342
X22583Y6592
X37333Y5342
T02
X16333Y12592
X15333Y12592
X13083Y13592
X13083Y14592
X12083Y4092
X10083Y3592
X9083Y3592
X12083Y3092
T03
X20083Y1842
X21083Y1842
X22083Y1842
X23083Y1842
X24833Y1342
X24833Y2342
X38333Y5092
X38333Y6092
X38333Y7092
X38333Y8092
X38333Y9092
X38333Y10092
X38333Y11092
X38333Y12092
X7583Y12592
X7583Y14592
T04
X10083Y14592
X10083Y13592
X29083Y13592
X29083Y14592
X32083Y14592
X32083Y13592
X32083Y12592
X32083Y11592
X32083Y10592
X32083Y9592
X32083Y8592
X32083Y7592
X32083Y6592
X32083Y5592
X32083Y4592
X32083Y3592
X32083Y2592
X32083Y1592
X29083Y1592
X29083Y2592
X29083Y3592
X29083Y4592
X27833Y4592
X26833Y4592
X29083Y5592
X29083Y6592
X29083Y7592
X29083Y8592
X29083Y9592
X29083Y10592
X29083Y11592
X29083Y12592
X14583Y1842
X13583Y1842
T05
X15583Y1842
X18583Y1842
X25833Y5813
X25833Y8372
X26583Y10092
X26583Y11092
X23583Y11092
X22083Y11092
X22083Y10092
X23583Y10092
X19083Y10092
X19083Y11092
X17983Y13842
X18083Y14842
X15183Y13842
X15083Y14842
X11583Y11092
X10583Y9592
X9583Y9592
X8583Y9592
X8583Y11092
X8583Y6592
X9583Y6592
X10583Y6592
X33583Y11592
X36583Y11592
T06
X12083Y9592
X12083Y8592
X12083Y7592
T07
X14553Y9702
X17113Y9702
X17113Y11482
X14553Y11482
X19833Y13342
X20833Y13342
X21833Y13342
X22833Y13342
X23833Y13342
X24833Y13342
X25833Y13342
X26833Y13342
X26833Y14342
X25833Y14342
X24833Y14342
X23833Y14342
X22833Y14342
X21833Y14342
X20833Y14342
X19833Y14342
X6083Y13842
X5083Y13842
X5083Y10842
X4083Y10842
X3083Y10842
X7583Y4092
X7583Y3092
X5083Y3842
X4083Y3842
X3083Y3842
X33803Y5202
X36363Y5202
X36363Y6982
X33803Y6982
X33803Y8452
X36363Y8452
X36363Y10232
X33803Y10232
X33803Y12702
X36363Y12702
X36363Y14482
X33803Y14482
X34333Y2842
X35333Y2842
X36333Y2842
X36333Y1842
X35333Y1842
X34333Y1842
T08
X6083Y12592
X2083Y12592
T09
X4115Y7592
X6477Y7592
X5296Y5742
T10
X2083Y1592
X2083Y14842
X38083Y14842
X38083Y1592
M30
