G75*
G70*
%OFA0B0*%
%FSLAX24Y24*%
%IPPOS*%
%LPD*%
%AMOC8*
5,1,8,0,0,1.08239X$1,22.5*
%
%ADD10R,0.0640X0.0640*%
%ADD11C,0.0640*%
%ADD12C,0.0560*%
%ADD13C,0.0780*%
%ADD14C,0.0516*%
%ADD15R,0.0516X0.0516*%
%ADD16OC8,0.0560*%
%ADD17R,0.0634X0.0634*%
%ADD18C,0.0634*%
%ADD19C,0.0555*%
%ADD20C,0.1620*%
%ADD21C,0.0749*%
%ADD22R,0.0360X0.0640*%
%ADD23R,0.0360X0.0540*%
%ADD24R,0.0440X0.0360*%
%ADD25R,0.0540X0.0360*%
%ADD26OC8,0.0780*%
%ADD27C,0.0700*%
%ADD28R,0.0555X0.0555*%
%ADD29C,0.0594*%
%ADD30C,0.1340*%
%ADD31C,0.0740*%
D10*
X034333Y001842D03*
X036333Y002842D03*
D11*
X035333Y002842D03*
X034333Y002842D03*
X035333Y001842D03*
X036333Y001842D03*
X007583Y003092D03*
X007583Y004092D03*
X005083Y003842D03*
X004083Y003842D03*
X003083Y003842D03*
X003083Y010842D03*
X004083Y010842D03*
X005083Y010842D03*
X005083Y013842D03*
X006083Y013842D03*
D12*
X028823Y013592D02*
X029343Y013592D01*
X029343Y014592D02*
X028823Y014592D01*
X031823Y014592D02*
X032343Y014592D01*
X032343Y013592D02*
X031823Y013592D01*
X031823Y012592D02*
X032343Y012592D01*
X032343Y011592D02*
X031823Y011592D01*
X031823Y010592D02*
X032343Y010592D01*
X032343Y009592D02*
X031823Y009592D01*
X031823Y008592D02*
X032343Y008592D01*
X032343Y007592D02*
X031823Y007592D01*
X031823Y006592D02*
X032343Y006592D01*
X032343Y005592D02*
X031823Y005592D01*
X031823Y004592D02*
X032343Y004592D01*
X032343Y003592D02*
X031823Y003592D01*
X031823Y002592D02*
X032343Y002592D01*
X032343Y001592D02*
X031823Y001592D01*
X029343Y001592D02*
X028823Y001592D01*
X028823Y002592D02*
X029343Y002592D01*
X029343Y003592D02*
X028823Y003592D01*
X028823Y004592D02*
X029343Y004592D01*
X029343Y005592D02*
X028823Y005592D01*
X028823Y006592D02*
X029343Y006592D01*
X029343Y007592D02*
X028823Y007592D01*
X028823Y008592D02*
X029343Y008592D01*
X029343Y009592D02*
X028823Y009592D01*
X028823Y010592D02*
X029343Y010592D01*
X029343Y011592D02*
X028823Y011592D01*
X028823Y012592D02*
X029343Y012592D01*
D13*
X026583Y011092D03*
X026583Y010092D03*
X023583Y010092D03*
X022083Y010092D03*
X022083Y011092D03*
X023583Y011092D03*
X019083Y011092D03*
X019083Y010092D03*
X017113Y009702D03*
X014553Y009702D03*
X011583Y011092D03*
X014553Y011482D03*
X017113Y011482D03*
X010583Y009592D03*
X009583Y009592D03*
X008583Y009592D03*
X008583Y011092D03*
X015083Y014842D03*
X018083Y014842D03*
X033583Y011592D03*
X033803Y012702D03*
X036363Y012702D03*
X036583Y011592D03*
X036363Y010232D03*
X033803Y010232D03*
X033803Y008452D03*
X036363Y008452D03*
X036363Y006982D03*
X033803Y006982D03*
X033803Y005202D03*
X036363Y005202D03*
X018583Y001842D03*
X015583Y001842D03*
X014583Y001842D03*
X013583Y001842D03*
X010583Y006592D03*
X009583Y006592D03*
X008583Y006592D03*
X033803Y014482D03*
X036363Y014482D03*
D14*
X016333Y012592D03*
X015333Y012592D03*
X013083Y014592D03*
X012083Y004092D03*
X012083Y003092D03*
X009083Y003592D03*
D15*
X010083Y003592D03*
X013083Y013592D03*
D16*
X010083Y013592D03*
X010083Y014592D03*
D17*
X012083Y009592D03*
D18*
X012083Y008592D03*
X012083Y007592D03*
D19*
X007583Y012592D03*
X007583Y014592D03*
X021083Y001842D03*
X022083Y001842D03*
X023083Y001842D03*
X024833Y001342D03*
X038333Y005092D03*
X038333Y006092D03*
X038333Y007092D03*
X038333Y008092D03*
X038333Y009092D03*
X038333Y010092D03*
X038333Y011092D03*
D20*
X006477Y007592D03*
X004115Y007592D03*
X005296Y005742D03*
D21*
X006083Y012592D03*
X002083Y012592D03*
D22*
X015533Y008592D03*
X016133Y008592D03*
X016733Y008592D03*
X017333Y008592D03*
X017933Y008592D03*
X018533Y008592D03*
X019133Y008592D03*
X019733Y008592D03*
X020333Y008592D03*
X020933Y008592D03*
X021533Y008592D03*
X022133Y008592D03*
X022133Y003592D03*
X021533Y003592D03*
X020933Y003592D03*
X020333Y003592D03*
X019733Y003592D03*
X019133Y003592D03*
X018533Y003592D03*
X017933Y003592D03*
X017333Y003592D03*
X016733Y003592D03*
X016133Y003592D03*
X015533Y003592D03*
D23*
X014933Y003542D03*
X014933Y008642D03*
D24*
X014283Y008192D03*
X014283Y003992D03*
D25*
X014333Y004592D03*
X014333Y005192D03*
X014333Y005792D03*
X014333Y006392D03*
X014333Y006992D03*
X014333Y007592D03*
D26*
X019833Y013342D03*
X020833Y013342D03*
X021833Y013342D03*
X022833Y013342D03*
X023833Y013342D03*
X024833Y013342D03*
X025833Y013342D03*
X026833Y013342D03*
X026833Y014342D03*
X025833Y014342D03*
X024833Y014342D03*
X023833Y014342D03*
X022833Y014342D03*
X021833Y014342D03*
X020833Y014342D03*
X019833Y014342D03*
D27*
X026833Y004592D03*
X027833Y004592D03*
D28*
X024833Y002342D03*
X020083Y001842D03*
X038333Y012092D03*
D29*
X017983Y013842D03*
X015183Y013842D03*
D30*
X002083Y001592D03*
X002083Y014842D03*
X038083Y014842D03*
X038083Y001592D03*
D31*
X025833Y005813D03*
X025833Y008372D03*
M02*
