G75*
G70*
%OFA0B0*%
%FSLAX24Y24*%
%IPPOS*%
%LPD*%
%AMOC8*
5,1,8,0,0,1.08239X$1,22.5*
%
%ADD10C,0.0080*%
%ADD11C,0.0060*%
D10*
X018489Y015072D02*
X018809Y015072D01*
X018649Y015072D02*
X018649Y015553D01*
X018809Y015392D01*
X019004Y015392D02*
X019084Y015312D01*
X019004Y015232D01*
X019004Y015152D01*
X019084Y015072D01*
X019245Y015072D01*
X019325Y015152D01*
X019502Y015152D02*
X019502Y015072D01*
X019582Y015072D01*
X019582Y015152D01*
X019502Y015152D01*
X019164Y015312D02*
X019084Y015312D01*
X019004Y015392D02*
X019004Y015472D01*
X019084Y015553D01*
X019245Y015553D01*
X019325Y015472D01*
X019778Y015472D02*
X019778Y015553D01*
X020098Y015553D01*
X020293Y015472D02*
X020614Y015152D01*
X020534Y015072D01*
X020374Y015072D01*
X020293Y015152D01*
X020293Y015472D01*
X020374Y015553D01*
X020534Y015553D01*
X020614Y015472D01*
X020614Y015152D01*
X020791Y015152D02*
X020791Y015072D01*
X020872Y015072D01*
X020872Y015152D01*
X020791Y015152D01*
X021067Y015072D02*
X021387Y015072D01*
X021067Y015392D01*
X021067Y015472D01*
X021147Y015553D01*
X021307Y015553D01*
X021387Y015472D01*
X021743Y015553D02*
X021743Y015072D01*
X021903Y015072D02*
X021583Y015072D01*
X022098Y015152D02*
X022178Y015072D01*
X022338Y015072D01*
X022418Y015152D01*
X022098Y015472D01*
X022098Y015152D01*
X022418Y015152D02*
X022418Y015472D01*
X022338Y015553D01*
X022178Y015553D01*
X022098Y015472D01*
X021903Y015392D02*
X021743Y015553D01*
X022614Y015472D02*
X022694Y015553D01*
X022854Y015553D01*
X022934Y015472D01*
X022614Y015472D02*
X022614Y015392D01*
X022934Y015072D01*
X022614Y015072D01*
X020098Y015072D02*
X020098Y015152D01*
X019778Y015472D01*
D11*
X013879Y015179D02*
X013823Y015122D01*
X013879Y015179D02*
X013879Y015406D01*
X013823Y015349D02*
X013936Y015349D01*
X014077Y015292D02*
X014077Y015122D01*
X014077Y015292D02*
X014134Y015349D01*
X014304Y015349D01*
X014304Y015122D01*
X014446Y015122D02*
X014616Y015122D01*
X014673Y015179D01*
X014616Y015236D01*
X014446Y015236D01*
X014446Y015292D02*
X014446Y015122D01*
X014446Y015292D02*
X014503Y015349D01*
X014616Y015349D01*
X014814Y015292D02*
X014814Y015122D01*
X014814Y015292D02*
X014871Y015349D01*
X015041Y015349D01*
X015041Y015122D01*
X015182Y015122D02*
X015182Y015292D01*
X015239Y015349D01*
X015296Y015292D01*
X015296Y015122D01*
X015409Y015122D02*
X015409Y015349D01*
X015353Y015349D01*
X015296Y015292D01*
X015551Y015292D02*
X015551Y015236D01*
X015778Y015236D01*
X015778Y015292D02*
X015721Y015349D01*
X015607Y015349D01*
X015551Y015292D01*
X015607Y015122D02*
X015721Y015122D01*
X015778Y015179D01*
X015778Y015292D01*
X015914Y015349D02*
X015971Y015349D01*
X016085Y015236D01*
X016085Y015349D02*
X016085Y015122D01*
X016226Y015179D02*
X016283Y015122D01*
X016453Y015122D01*
X016453Y015462D01*
X016453Y015349D02*
X016283Y015349D01*
X016226Y015292D01*
X016226Y015179D01*
X016585Y015065D02*
X016585Y015349D01*
X016585Y015462D02*
X016585Y015519D01*
X016585Y015065D02*
X016642Y015009D01*
X016698Y015009D01*
X017208Y015065D02*
X017208Y015349D01*
X017208Y015122D02*
X017378Y015122D01*
X017435Y015179D01*
X017435Y015349D01*
X017576Y015292D02*
X017633Y015349D01*
X017803Y015349D01*
X017803Y015462D02*
X017803Y015122D01*
X017633Y015122D01*
X017576Y015179D01*
X017576Y015292D01*
X017322Y015009D02*
X017265Y015009D01*
X017208Y015065D01*
M02*
