G75*
G70*
%OFA0B0*%
%FSLAX24Y24*%
%IPPOS*%
%LPD*%
%AMOC8*
5,1,8,0,0,1.08239X$1,22.5*
%
%ADD10C,0.0000*%
%ADD11R,0.0600X0.0600*%
%ADD12C,0.0600*%
%ADD13C,0.0520*%
%ADD14C,0.0740*%
%ADD15C,0.0476*%
%ADD16R,0.0476X0.0476*%
%ADD17OC8,0.0520*%
%ADD18R,0.0594X0.0594*%
%ADD19C,0.0594*%
%ADD20C,0.0515*%
%ADD21C,0.1580*%
%ADD22C,0.0709*%
%ADD23R,0.0320X0.0600*%
%ADD24R,0.0320X0.0500*%
%ADD25R,0.0400X0.0320*%
%ADD26R,0.0500X0.0320*%
%ADD27OC8,0.0740*%
%ADD28C,0.0660*%
%ADD29R,0.0515X0.0515*%
%ADD30C,0.0554*%
%ADD31C,0.0700*%
%ADD32C,0.0100*%
%ADD33C,0.0240*%
%ADD34R,0.0356X0.0356*%
%ADD35C,0.0160*%
D10*
X000583Y000100D02*
X039453Y000100D01*
X039453Y016342D01*
X000583Y016342D01*
X000583Y000100D01*
X001433Y001592D02*
X001435Y001642D01*
X001441Y001692D01*
X001451Y001742D01*
X001464Y001790D01*
X001481Y001838D01*
X001502Y001884D01*
X001526Y001928D01*
X001554Y001970D01*
X001585Y002010D01*
X001619Y002047D01*
X001656Y002082D01*
X001695Y002113D01*
X001736Y002142D01*
X001780Y002167D01*
X001826Y002189D01*
X001873Y002207D01*
X001921Y002221D01*
X001970Y002232D01*
X002020Y002239D01*
X002070Y002242D01*
X002121Y002241D01*
X002171Y002236D01*
X002221Y002227D01*
X002269Y002215D01*
X002317Y002198D01*
X002363Y002178D01*
X002408Y002155D01*
X002451Y002128D01*
X002491Y002098D01*
X002529Y002065D01*
X002564Y002029D01*
X002597Y001990D01*
X002626Y001949D01*
X002652Y001906D01*
X002675Y001861D01*
X002694Y001814D01*
X002709Y001766D01*
X002721Y001717D01*
X002729Y001667D01*
X002733Y001617D01*
X002733Y001567D01*
X002729Y001517D01*
X002721Y001467D01*
X002709Y001418D01*
X002694Y001370D01*
X002675Y001323D01*
X002652Y001278D01*
X002626Y001235D01*
X002597Y001194D01*
X002564Y001155D01*
X002529Y001119D01*
X002491Y001086D01*
X002451Y001056D01*
X002408Y001029D01*
X002363Y001006D01*
X002317Y000986D01*
X002269Y000969D01*
X002221Y000957D01*
X002171Y000948D01*
X002121Y000943D01*
X002070Y000942D01*
X002020Y000945D01*
X001970Y000952D01*
X001921Y000963D01*
X001873Y000977D01*
X001826Y000995D01*
X001780Y001017D01*
X001736Y001042D01*
X001695Y001071D01*
X001656Y001102D01*
X001619Y001137D01*
X001585Y001174D01*
X001554Y001214D01*
X001526Y001256D01*
X001502Y001300D01*
X001481Y001346D01*
X001464Y001394D01*
X001451Y001442D01*
X001441Y001492D01*
X001435Y001542D01*
X001433Y001592D01*
X001433Y014842D02*
X001435Y014892D01*
X001441Y014942D01*
X001451Y014992D01*
X001464Y015040D01*
X001481Y015088D01*
X001502Y015134D01*
X001526Y015178D01*
X001554Y015220D01*
X001585Y015260D01*
X001619Y015297D01*
X001656Y015332D01*
X001695Y015363D01*
X001736Y015392D01*
X001780Y015417D01*
X001826Y015439D01*
X001873Y015457D01*
X001921Y015471D01*
X001970Y015482D01*
X002020Y015489D01*
X002070Y015492D01*
X002121Y015491D01*
X002171Y015486D01*
X002221Y015477D01*
X002269Y015465D01*
X002317Y015448D01*
X002363Y015428D01*
X002408Y015405D01*
X002451Y015378D01*
X002491Y015348D01*
X002529Y015315D01*
X002564Y015279D01*
X002597Y015240D01*
X002626Y015199D01*
X002652Y015156D01*
X002675Y015111D01*
X002694Y015064D01*
X002709Y015016D01*
X002721Y014967D01*
X002729Y014917D01*
X002733Y014867D01*
X002733Y014817D01*
X002729Y014767D01*
X002721Y014717D01*
X002709Y014668D01*
X002694Y014620D01*
X002675Y014573D01*
X002652Y014528D01*
X002626Y014485D01*
X002597Y014444D01*
X002564Y014405D01*
X002529Y014369D01*
X002491Y014336D01*
X002451Y014306D01*
X002408Y014279D01*
X002363Y014256D01*
X002317Y014236D01*
X002269Y014219D01*
X002221Y014207D01*
X002171Y014198D01*
X002121Y014193D01*
X002070Y014192D01*
X002020Y014195D01*
X001970Y014202D01*
X001921Y014213D01*
X001873Y014227D01*
X001826Y014245D01*
X001780Y014267D01*
X001736Y014292D01*
X001695Y014321D01*
X001656Y014352D01*
X001619Y014387D01*
X001585Y014424D01*
X001554Y014464D01*
X001526Y014506D01*
X001502Y014550D01*
X001481Y014596D01*
X001464Y014644D01*
X001451Y014692D01*
X001441Y014742D01*
X001435Y014792D01*
X001433Y014842D01*
X037433Y014842D02*
X037435Y014892D01*
X037441Y014942D01*
X037451Y014992D01*
X037464Y015040D01*
X037481Y015088D01*
X037502Y015134D01*
X037526Y015178D01*
X037554Y015220D01*
X037585Y015260D01*
X037619Y015297D01*
X037656Y015332D01*
X037695Y015363D01*
X037736Y015392D01*
X037780Y015417D01*
X037826Y015439D01*
X037873Y015457D01*
X037921Y015471D01*
X037970Y015482D01*
X038020Y015489D01*
X038070Y015492D01*
X038121Y015491D01*
X038171Y015486D01*
X038221Y015477D01*
X038269Y015465D01*
X038317Y015448D01*
X038363Y015428D01*
X038408Y015405D01*
X038451Y015378D01*
X038491Y015348D01*
X038529Y015315D01*
X038564Y015279D01*
X038597Y015240D01*
X038626Y015199D01*
X038652Y015156D01*
X038675Y015111D01*
X038694Y015064D01*
X038709Y015016D01*
X038721Y014967D01*
X038729Y014917D01*
X038733Y014867D01*
X038733Y014817D01*
X038729Y014767D01*
X038721Y014717D01*
X038709Y014668D01*
X038694Y014620D01*
X038675Y014573D01*
X038652Y014528D01*
X038626Y014485D01*
X038597Y014444D01*
X038564Y014405D01*
X038529Y014369D01*
X038491Y014336D01*
X038451Y014306D01*
X038408Y014279D01*
X038363Y014256D01*
X038317Y014236D01*
X038269Y014219D01*
X038221Y014207D01*
X038171Y014198D01*
X038121Y014193D01*
X038070Y014192D01*
X038020Y014195D01*
X037970Y014202D01*
X037921Y014213D01*
X037873Y014227D01*
X037826Y014245D01*
X037780Y014267D01*
X037736Y014292D01*
X037695Y014321D01*
X037656Y014352D01*
X037619Y014387D01*
X037585Y014424D01*
X037554Y014464D01*
X037526Y014506D01*
X037502Y014550D01*
X037481Y014596D01*
X037464Y014644D01*
X037451Y014692D01*
X037441Y014742D01*
X037435Y014792D01*
X037433Y014842D01*
X037433Y001592D02*
X037435Y001642D01*
X037441Y001692D01*
X037451Y001742D01*
X037464Y001790D01*
X037481Y001838D01*
X037502Y001884D01*
X037526Y001928D01*
X037554Y001970D01*
X037585Y002010D01*
X037619Y002047D01*
X037656Y002082D01*
X037695Y002113D01*
X037736Y002142D01*
X037780Y002167D01*
X037826Y002189D01*
X037873Y002207D01*
X037921Y002221D01*
X037970Y002232D01*
X038020Y002239D01*
X038070Y002242D01*
X038121Y002241D01*
X038171Y002236D01*
X038221Y002227D01*
X038269Y002215D01*
X038317Y002198D01*
X038363Y002178D01*
X038408Y002155D01*
X038451Y002128D01*
X038491Y002098D01*
X038529Y002065D01*
X038564Y002029D01*
X038597Y001990D01*
X038626Y001949D01*
X038652Y001906D01*
X038675Y001861D01*
X038694Y001814D01*
X038709Y001766D01*
X038721Y001717D01*
X038729Y001667D01*
X038733Y001617D01*
X038733Y001567D01*
X038729Y001517D01*
X038721Y001467D01*
X038709Y001418D01*
X038694Y001370D01*
X038675Y001323D01*
X038652Y001278D01*
X038626Y001235D01*
X038597Y001194D01*
X038564Y001155D01*
X038529Y001119D01*
X038491Y001086D01*
X038451Y001056D01*
X038408Y001029D01*
X038363Y001006D01*
X038317Y000986D01*
X038269Y000969D01*
X038221Y000957D01*
X038171Y000948D01*
X038121Y000943D01*
X038070Y000942D01*
X038020Y000945D01*
X037970Y000952D01*
X037921Y000963D01*
X037873Y000977D01*
X037826Y000995D01*
X037780Y001017D01*
X037736Y001042D01*
X037695Y001071D01*
X037656Y001102D01*
X037619Y001137D01*
X037585Y001174D01*
X037554Y001214D01*
X037526Y001256D01*
X037502Y001300D01*
X037481Y001346D01*
X037464Y001394D01*
X037451Y001442D01*
X037441Y001492D01*
X037435Y001542D01*
X037433Y001592D01*
D11*
X036333Y002842D03*
X034333Y001842D03*
D12*
X035333Y001842D03*
X036333Y001842D03*
X035333Y002842D03*
X034333Y002842D03*
X007583Y003092D03*
X007583Y004092D03*
X005083Y003842D03*
X004083Y003842D03*
X003083Y003842D03*
X003083Y010842D03*
X004083Y010842D03*
X005083Y010842D03*
X005083Y013842D03*
X006083Y013842D03*
D13*
X028823Y013592D02*
X029343Y013592D01*
X029343Y014592D02*
X028823Y014592D01*
X031823Y014592D02*
X032343Y014592D01*
X032343Y013592D02*
X031823Y013592D01*
X031823Y012592D02*
X032343Y012592D01*
X032343Y011592D02*
X031823Y011592D01*
X031823Y010592D02*
X032343Y010592D01*
X032343Y009592D02*
X031823Y009592D01*
X031823Y008592D02*
X032343Y008592D01*
X032343Y007592D02*
X031823Y007592D01*
X031823Y006592D02*
X032343Y006592D01*
X032343Y005592D02*
X031823Y005592D01*
X031823Y004592D02*
X032343Y004592D01*
X032343Y003592D02*
X031823Y003592D01*
X031823Y002592D02*
X032343Y002592D01*
X032343Y001592D02*
X031823Y001592D01*
X029343Y001592D02*
X028823Y001592D01*
X028823Y002592D02*
X029343Y002592D01*
X029343Y003592D02*
X028823Y003592D01*
X028823Y004592D02*
X029343Y004592D01*
X029343Y005592D02*
X028823Y005592D01*
X028823Y006592D02*
X029343Y006592D01*
X029343Y007592D02*
X028823Y007592D01*
X028823Y008592D02*
X029343Y008592D01*
X029343Y009592D02*
X028823Y009592D01*
X028823Y010592D02*
X029343Y010592D01*
X029343Y011592D02*
X028823Y011592D01*
X028823Y012592D02*
X029343Y012592D01*
D14*
X026583Y011092D03*
X026583Y010092D03*
X023583Y010092D03*
X022083Y010092D03*
X022083Y011092D03*
X023583Y011092D03*
X019083Y011092D03*
X019083Y010092D03*
X017113Y009702D03*
X014553Y009702D03*
X011583Y011092D03*
X014553Y011482D03*
X017113Y011482D03*
X010583Y009592D03*
X009583Y009592D03*
X008583Y009592D03*
X008583Y011092D03*
X015083Y014842D03*
X018083Y014842D03*
X033583Y011592D03*
X033803Y012702D03*
X036363Y012702D03*
X036583Y011592D03*
X036363Y010232D03*
X033803Y010232D03*
X033803Y008452D03*
X036363Y008452D03*
X036363Y006982D03*
X033803Y006982D03*
X033803Y005202D03*
X036363Y005202D03*
X018583Y001842D03*
X015583Y001842D03*
X014583Y001842D03*
X013583Y001842D03*
X010583Y006592D03*
X009583Y006592D03*
X008583Y006592D03*
X033803Y014482D03*
X036363Y014482D03*
D15*
X016333Y012592D03*
X015333Y012592D03*
X013083Y014592D03*
X012083Y004092D03*
X012083Y003092D03*
X009083Y003592D03*
D16*
X010083Y003592D03*
X013083Y013592D03*
D17*
X010083Y013592D03*
X010083Y014592D03*
D18*
X012083Y009592D03*
D19*
X012083Y008592D03*
X012083Y007592D03*
D20*
X007583Y012592D03*
X007583Y014592D03*
X021083Y001842D03*
X022083Y001842D03*
X023083Y001842D03*
X024833Y001342D03*
X038333Y005092D03*
X038333Y006092D03*
X038333Y007092D03*
X038333Y008092D03*
X038333Y009092D03*
X038333Y010092D03*
X038333Y011092D03*
D21*
X006477Y007592D03*
X004115Y007592D03*
X005296Y005742D03*
D22*
X006083Y012592D03*
X002083Y012592D03*
D23*
X015533Y008592D03*
X016133Y008592D03*
X016733Y008592D03*
X017333Y008592D03*
X017933Y008592D03*
X018533Y008592D03*
X019133Y008592D03*
X019733Y008592D03*
X020333Y008592D03*
X020933Y008592D03*
X021533Y008592D03*
X022133Y008592D03*
X022133Y003592D03*
X021533Y003592D03*
X020933Y003592D03*
X020333Y003592D03*
X019733Y003592D03*
X019133Y003592D03*
X018533Y003592D03*
X017933Y003592D03*
X017333Y003592D03*
X016733Y003592D03*
X016133Y003592D03*
X015533Y003592D03*
D24*
X014933Y003542D03*
X014933Y008642D03*
D25*
X014283Y008192D03*
X014283Y003992D03*
D26*
X014333Y004592D03*
X014333Y005192D03*
X014333Y005792D03*
X014333Y006392D03*
X014333Y006992D03*
X014333Y007592D03*
D27*
X019833Y013342D03*
X020833Y013342D03*
X021833Y013342D03*
X022833Y013342D03*
X023833Y013342D03*
X024833Y013342D03*
X025833Y013342D03*
X026833Y013342D03*
X026833Y014342D03*
X025833Y014342D03*
X024833Y014342D03*
X023833Y014342D03*
X022833Y014342D03*
X021833Y014342D03*
X020833Y014342D03*
X019833Y014342D03*
D28*
X026833Y004592D03*
X027833Y004592D03*
D29*
X024833Y002342D03*
X020083Y001842D03*
X038333Y012092D03*
D30*
X017983Y013842D03*
X015183Y013842D03*
D31*
X025833Y008372D03*
X025833Y005813D03*
D32*
X025795Y005805D02*
X021693Y005805D01*
X021693Y005708D02*
X021693Y008182D01*
X021739Y008182D01*
X021803Y008247D01*
X021803Y008938D01*
X021743Y008998D01*
X021743Y009658D01*
X021650Y009752D01*
X021150Y010252D01*
X019537Y010252D01*
X019490Y010364D01*
X019355Y010499D01*
X019243Y010545D01*
X019243Y010639D01*
X019355Y010685D01*
X019490Y010820D01*
X019563Y010997D01*
X019563Y011188D01*
X019490Y011364D01*
X019355Y011499D01*
X019179Y011572D01*
X018988Y011572D01*
X018811Y011499D01*
X018676Y011364D01*
X018603Y011188D01*
X018603Y010997D01*
X018676Y010820D01*
X018811Y010685D01*
X018923Y010639D01*
X018923Y010545D01*
X018811Y010499D01*
X018676Y010364D01*
X018603Y010188D01*
X018603Y009997D01*
X018676Y009820D01*
X018811Y009685D01*
X018988Y009612D01*
X019179Y009612D01*
X019355Y009685D01*
X019490Y009820D01*
X019537Y009932D01*
X021017Y009932D01*
X021423Y009526D01*
X021423Y009002D01*
X021328Y009002D01*
X021263Y008938D01*
X021263Y008247D01*
X021328Y008182D01*
X021373Y008182D01*
X021373Y005576D01*
X021545Y005404D01*
X021545Y005118D01*
X021610Y005054D01*
X022057Y005054D01*
X022121Y005118D01*
X022121Y005566D01*
X022057Y005630D01*
X021771Y005630D01*
X021693Y005708D01*
X021695Y005707D02*
X025344Y005707D01*
X025346Y005696D02*
X025370Y005621D01*
X025406Y005551D01*
X025452Y005487D01*
X025508Y005431D01*
X025571Y005385D01*
X025641Y005349D01*
X025716Y005325D01*
X025794Y005313D01*
X025795Y005313D01*
X025872Y005313D01*
X025873Y005313D01*
X026673Y005313D01*
X026673Y005408D02*
X026673Y005002D01*
X026584Y004965D01*
X026460Y004841D01*
X026393Y004680D01*
X026393Y004505D01*
X026460Y004343D01*
X026584Y004219D01*
X026746Y004152D01*
X026921Y004152D01*
X027083Y004219D01*
X027206Y004343D01*
X027273Y004505D01*
X027273Y004680D01*
X027206Y004841D01*
X027083Y004965D01*
X026993Y005002D01*
X026993Y005276D01*
X028150Y006432D01*
X028489Y006432D01*
X028510Y006383D01*
X028614Y006278D01*
X028750Y006222D01*
X029417Y006222D01*
X029553Y006278D01*
X029657Y006383D01*
X029713Y006519D01*
X029713Y006666D01*
X029657Y006802D01*
X029553Y006906D01*
X029417Y006962D01*
X028750Y006962D01*
X028614Y006906D01*
X028510Y006802D01*
X028489Y006752D01*
X028017Y006752D01*
X026767Y005502D01*
X026673Y005408D01*
X026676Y005411D02*
X026131Y005411D01*
X026159Y005431D02*
X026215Y005487D01*
X026261Y005551D01*
X026297Y005621D01*
X026321Y005696D01*
X026333Y005773D01*
X026333Y005774D01*
X025872Y005774D01*
X025872Y005851D01*
X026333Y005851D01*
X026333Y005852D01*
X026321Y005930D01*
X026297Y006005D01*
X026261Y006075D01*
X026215Y006138D01*
X026159Y006194D01*
X026095Y006240D01*
X026025Y006276D01*
X025950Y006300D01*
X025873Y006313D01*
X025872Y006313D01*
X025872Y005851D01*
X025795Y005851D01*
X025795Y006313D01*
X025794Y006313D01*
X025716Y006300D01*
X025641Y006276D01*
X025571Y006240D01*
X025508Y006194D01*
X025452Y006138D01*
X025406Y006075D01*
X025370Y006005D01*
X025346Y005930D01*
X025333Y005852D01*
X025333Y005851D01*
X025795Y005851D01*
X025795Y005774D01*
X025872Y005774D01*
X025872Y005313D01*
X025873Y005313D02*
X025950Y005325D01*
X026025Y005349D01*
X026095Y005385D01*
X026159Y005431D01*
X026231Y005510D02*
X026775Y005510D01*
X026873Y005608D02*
X026290Y005608D01*
X026323Y005707D02*
X026972Y005707D01*
X027070Y005805D02*
X025872Y005805D01*
X025795Y005774D02*
X025795Y005313D01*
X025794Y005313D02*
X022121Y005313D01*
X022121Y005411D02*
X025535Y005411D01*
X025435Y005510D02*
X022121Y005510D01*
X022079Y005608D02*
X025376Y005608D01*
X025346Y005696D02*
X025333Y005773D01*
X025333Y005774D01*
X025795Y005774D01*
X025795Y005707D02*
X025872Y005707D01*
X025872Y005608D02*
X025795Y005608D01*
X025795Y005510D02*
X025872Y005510D01*
X025872Y005411D02*
X025795Y005411D01*
X025795Y005904D02*
X025872Y005904D01*
X025872Y006002D02*
X025795Y006002D01*
X025795Y006101D02*
X025872Y006101D01*
X025872Y006199D02*
X025795Y006199D01*
X025795Y006298D02*
X025872Y006298D01*
X025959Y006298D02*
X027563Y006298D01*
X027661Y006396D02*
X022871Y006396D01*
X022871Y006368D02*
X022871Y006816D01*
X022807Y006880D01*
X022521Y006880D01*
X022293Y007108D01*
X022293Y008182D01*
X022339Y008182D01*
X022403Y008247D01*
X022403Y008938D01*
X022339Y009002D01*
X022243Y009002D01*
X022243Y009182D01*
X023150Y009182D01*
X023243Y009276D01*
X023580Y009612D01*
X023679Y009612D01*
X023855Y009685D01*
X023990Y009820D01*
X024063Y009997D01*
X024063Y010188D01*
X023990Y010364D01*
X023855Y010499D01*
X023743Y010545D01*
X023743Y010639D01*
X023855Y010685D01*
X023990Y010820D01*
X024063Y010997D01*
X024063Y011188D01*
X023990Y011364D01*
X023855Y011499D01*
X023679Y011572D01*
X023488Y011572D01*
X023311Y011499D01*
X023176Y011364D01*
X023103Y011188D01*
X023103Y010997D01*
X023176Y010820D01*
X023311Y010685D01*
X023423Y010639D01*
X023423Y010545D01*
X023311Y010499D01*
X023176Y010364D01*
X023103Y010188D01*
X023103Y009997D01*
X023176Y009820D01*
X023256Y009741D01*
X023017Y009502D01*
X022017Y009502D01*
X021923Y009408D01*
X021923Y008998D01*
X021863Y008938D01*
X021863Y008247D01*
X021928Y008182D01*
X021973Y008182D01*
X021973Y006976D01*
X022295Y006654D01*
X022295Y006368D01*
X022360Y006304D01*
X022807Y006304D01*
X022871Y006368D01*
X022871Y006495D02*
X027760Y006495D01*
X027858Y006593D02*
X022871Y006593D01*
X022871Y006692D02*
X027957Y006692D01*
X028083Y006592D02*
X026833Y005342D01*
X026833Y004592D01*
X026426Y004426D02*
X014693Y004426D01*
X014693Y004387D02*
X014629Y004322D01*
X014038Y004322D01*
X013973Y004387D01*
X013973Y004798D01*
X014038Y004862D01*
X014629Y004862D01*
X014693Y004798D01*
X014693Y004387D01*
X014634Y004328D02*
X026476Y004328D01*
X026574Y004229D02*
X014612Y004229D01*
X014603Y004244D02*
X014623Y004210D01*
X014633Y004172D01*
X014633Y004022D01*
X014313Y004022D01*
X014253Y004022D01*
X014253Y003962D01*
X013933Y003962D01*
X013933Y003812D01*
X013944Y003774D01*
X013963Y003740D01*
X013991Y003712D01*
X014025Y003692D01*
X014064Y003682D01*
X014253Y003682D01*
X014253Y003962D01*
X014313Y003962D01*
X014313Y003682D01*
X014503Y003682D01*
X014541Y003692D01*
X014575Y003712D01*
X014603Y003740D01*
X014623Y003774D01*
X014623Y003775D01*
X014623Y003572D01*
X014903Y003572D01*
X014903Y003512D01*
X014623Y003512D01*
X014623Y003272D01*
X014634Y003234D01*
X014653Y003200D01*
X014681Y003172D01*
X014715Y003152D01*
X014754Y003142D01*
X014903Y003142D01*
X014903Y003512D01*
X014963Y003512D01*
X014963Y003142D01*
X015113Y003142D01*
X015151Y003152D01*
X015185Y003172D01*
X015213Y003200D01*
X015233Y003234D01*
X015243Y003272D01*
X015243Y003512D01*
X014963Y003512D01*
X014963Y003572D01*
X014903Y003572D01*
X014903Y003942D01*
X014754Y003942D01*
X014715Y003932D01*
X014681Y003912D01*
X014653Y003884D01*
X014634Y003850D01*
X014633Y003849D01*
X014633Y003962D01*
X014313Y003962D01*
X014313Y004022D01*
X014313Y004302D01*
X014503Y004302D01*
X014541Y004292D01*
X014575Y004272D01*
X014603Y004244D01*
X014633Y004131D02*
X030396Y004131D01*
X030494Y004229D02*
X029434Y004229D01*
X029417Y004222D02*
X029553Y004278D01*
X029657Y004383D01*
X029678Y004432D01*
X029900Y004432D01*
X031400Y005932D01*
X031677Y005932D01*
X031614Y005906D01*
X031510Y005802D01*
X031453Y005666D01*
X031453Y005519D01*
X031510Y005383D01*
X031614Y005278D01*
X031677Y005252D01*
X031517Y005252D01*
X031423Y005158D01*
X030017Y003752D01*
X029678Y003752D01*
X029657Y003802D01*
X029553Y003906D01*
X029417Y003962D01*
X028750Y003962D01*
X028614Y003906D01*
X028510Y003802D01*
X028453Y003666D01*
X028453Y003519D01*
X028510Y003383D01*
X028614Y003278D01*
X028750Y003222D01*
X029417Y003222D01*
X029553Y003278D01*
X029657Y003383D01*
X029678Y003432D01*
X030150Y003432D01*
X031503Y004785D01*
X031453Y004666D01*
X031453Y004519D01*
X031510Y004383D01*
X031614Y004278D01*
X031677Y004252D01*
X031517Y004252D01*
X031423Y004158D01*
X030017Y002752D01*
X029678Y002752D01*
X029657Y002802D01*
X029553Y002906D01*
X029417Y002962D01*
X028750Y002962D01*
X028614Y002906D01*
X028510Y002802D01*
X028453Y002666D01*
X028453Y002519D01*
X028510Y002383D01*
X028614Y002278D01*
X028750Y002222D01*
X029417Y002222D01*
X029553Y002278D01*
X029657Y002383D01*
X029678Y002432D01*
X030150Y002432D01*
X031503Y003785D01*
X031453Y003666D01*
X031453Y003519D01*
X031510Y003383D01*
X031614Y003278D01*
X031750Y003222D01*
X032417Y003222D01*
X032553Y003278D01*
X032657Y003383D01*
X032713Y003519D01*
X032713Y003666D01*
X032657Y003802D01*
X032553Y003906D01*
X032489Y003932D01*
X033900Y003932D01*
X035650Y005682D01*
X036160Y005682D01*
X036091Y005647D01*
X036025Y005599D01*
X035967Y005541D01*
X035919Y005475D01*
X035881Y005402D01*
X035856Y005324D01*
X035845Y005252D01*
X036313Y005252D01*
X036313Y005152D01*
X035845Y005152D01*
X035856Y005080D01*
X035881Y005003D01*
X035919Y004930D01*
X035967Y004863D01*
X036025Y004805D01*
X036091Y004757D01*
X036164Y004720D01*
X036242Y004695D01*
X036313Y004684D01*
X036313Y005152D01*
X036413Y005152D01*
X036413Y004684D01*
X036485Y004695D01*
X036563Y004720D01*
X036636Y004757D01*
X036702Y004805D01*
X036760Y004863D01*
X036808Y004930D01*
X036845Y005003D01*
X036871Y005080D01*
X036882Y005152D01*
X036413Y005152D01*
X036413Y005252D01*
X036882Y005252D01*
X036871Y005324D01*
X036845Y005402D01*
X036808Y005475D01*
X036760Y005541D01*
X036702Y005599D01*
X036636Y005647D01*
X036567Y005682D01*
X038150Y005682D01*
X038212Y005745D01*
X038260Y005725D01*
X038406Y005725D01*
X038541Y005781D01*
X038645Y005884D01*
X038701Y006019D01*
X038701Y006165D01*
X038645Y006300D01*
X038541Y006404D01*
X038406Y006460D01*
X038260Y006460D01*
X038125Y006404D01*
X038022Y006300D01*
X037966Y006165D01*
X037966Y006019D01*
X037973Y006002D01*
X035517Y006002D01*
X035423Y005908D01*
X033767Y004252D01*
X032489Y004252D01*
X032553Y004278D01*
X032657Y004383D01*
X032713Y004519D01*
X032713Y004666D01*
X032657Y004802D01*
X032553Y004906D01*
X032489Y004932D01*
X032650Y004932D01*
X033400Y005682D01*
X034650Y005682D01*
X035150Y006182D01*
X037650Y006182D01*
X038212Y006745D01*
X038260Y006725D01*
X038406Y006725D01*
X038541Y006781D01*
X038645Y006884D01*
X038701Y007019D01*
X038701Y007165D01*
X038645Y007300D01*
X038541Y007404D01*
X038406Y007460D01*
X038260Y007460D01*
X038125Y007404D01*
X038022Y007300D01*
X037966Y007165D01*
X037966Y007019D01*
X037986Y006971D01*
X037517Y006502D01*
X035017Y006502D01*
X034923Y006408D01*
X034517Y006002D01*
X034220Y006002D01*
X034517Y006002D01*
X034616Y006101D02*
X034318Y006101D01*
X034417Y006199D02*
X034714Y006199D01*
X034813Y006298D02*
X034515Y006298D01*
X034614Y006396D02*
X034911Y006396D01*
X035010Y006495D02*
X034712Y006495D01*
X034811Y006593D02*
X036073Y006593D01*
X036091Y006575D02*
X036268Y006502D01*
X036459Y006502D01*
X036635Y006575D01*
X036770Y006710D01*
X036843Y006887D01*
X036843Y007078D01*
X036770Y007254D01*
X036635Y007389D01*
X036531Y007432D01*
X037900Y007432D01*
X038212Y007745D01*
X038260Y007725D01*
X038406Y007725D01*
X038541Y007781D01*
X038645Y007884D01*
X038701Y008019D01*
X038701Y008165D01*
X038645Y008300D01*
X038541Y008404D01*
X038406Y008460D01*
X038260Y008460D01*
X038125Y008404D01*
X038022Y008300D01*
X037966Y008165D01*
X037966Y008019D01*
X037986Y007971D01*
X037767Y007752D01*
X035517Y007752D01*
X035423Y007658D01*
X034017Y006252D01*
X032489Y006252D01*
X032553Y006278D01*
X032657Y006383D01*
X032713Y006519D01*
X032713Y006666D01*
X032657Y006802D01*
X032553Y006906D01*
X032417Y006962D01*
X031750Y006962D01*
X031614Y006906D01*
X031510Y006802D01*
X031453Y006666D01*
X031453Y006519D01*
X031510Y006383D01*
X031614Y006278D01*
X031677Y006252D01*
X031267Y006252D01*
X031173Y006158D01*
X029767Y004752D01*
X029678Y004752D01*
X029657Y004802D01*
X029553Y004906D01*
X029417Y004962D01*
X028750Y004962D01*
X028614Y004906D01*
X028510Y004802D01*
X028453Y004666D01*
X028453Y004519D01*
X028510Y004383D01*
X028614Y004278D01*
X028750Y004222D01*
X029417Y004222D01*
X029602Y004328D02*
X030593Y004328D01*
X030691Y004426D02*
X029675Y004426D01*
X029833Y004592D02*
X029083Y004592D01*
X028645Y004919D02*
X028129Y004919D01*
X028083Y004965D02*
X027993Y005002D01*
X027993Y005276D01*
X028150Y005432D01*
X028489Y005432D01*
X028510Y005383D01*
X028614Y005278D01*
X028750Y005222D01*
X029417Y005222D01*
X029553Y005278D01*
X029657Y005383D01*
X029713Y005519D01*
X029713Y005666D01*
X029657Y005802D01*
X029553Y005906D01*
X029417Y005962D01*
X028750Y005962D01*
X028614Y005906D01*
X028510Y005802D01*
X028489Y005752D01*
X028017Y005752D01*
X027767Y005502D01*
X027673Y005408D01*
X027673Y005002D01*
X027584Y004965D01*
X027460Y004841D01*
X027393Y004680D01*
X027393Y004505D01*
X027460Y004343D01*
X027584Y004219D01*
X027746Y004152D01*
X027921Y004152D01*
X028083Y004219D01*
X028206Y004343D01*
X028273Y004505D01*
X028273Y004680D01*
X028206Y004841D01*
X028083Y004965D01*
X027993Y005017D02*
X030032Y005017D01*
X029934Y004919D02*
X029522Y004919D01*
X029639Y004820D02*
X029835Y004820D01*
X029833Y004592D02*
X031333Y006092D01*
X034083Y006092D01*
X035583Y007592D01*
X037833Y007592D01*
X038333Y008092D01*
X037966Y008071D02*
X036661Y008071D01*
X036635Y008045D02*
X036770Y008180D01*
X036843Y008357D01*
X036843Y008548D01*
X036770Y008724D01*
X036635Y008859D01*
X036459Y008932D01*
X036268Y008932D01*
X036091Y008859D01*
X034076Y008859D01*
X034075Y008859D02*
X033993Y008893D01*
X033993Y009408D01*
X033900Y009502D01*
X033675Y009727D01*
X033682Y009725D01*
X033753Y009714D01*
X033753Y010182D01*
X033285Y010182D01*
X033296Y010110D01*
X033298Y010103D01*
X033243Y010158D01*
X033243Y010408D01*
X033150Y010502D01*
X032900Y010752D01*
X032678Y010752D01*
X032657Y010802D01*
X032553Y010906D01*
X032417Y010962D01*
X031750Y010962D01*
X031614Y010906D01*
X031510Y010802D01*
X031453Y010666D01*
X031453Y010519D01*
X031510Y010383D01*
X031614Y010278D01*
X031750Y010222D01*
X032417Y010222D01*
X032553Y010278D01*
X032657Y010383D01*
X032678Y010432D01*
X032767Y010432D01*
X032923Y010276D01*
X032923Y010026D01*
X033673Y009276D01*
X033673Y008918D01*
X033531Y008859D01*
X033243Y008859D01*
X033243Y008908D02*
X033150Y009002D01*
X032690Y009462D01*
X032713Y009519D01*
X032713Y009666D01*
X032657Y009802D01*
X032553Y009906D01*
X032417Y009962D01*
X031750Y009962D01*
X031614Y009906D01*
X031510Y009802D01*
X031453Y009666D01*
X031453Y009519D01*
X031510Y009383D01*
X031614Y009278D01*
X031750Y009222D01*
X032417Y009222D01*
X032459Y009240D01*
X032923Y008776D01*
X032923Y007636D01*
X033370Y007190D01*
X033323Y007078D01*
X033323Y006887D01*
X033396Y006710D01*
X033531Y006575D01*
X033708Y006502D01*
X033899Y006502D01*
X034075Y006575D01*
X034210Y006710D01*
X034283Y006887D01*
X034283Y007078D01*
X034210Y007254D01*
X034075Y007389D01*
X033899Y007462D01*
X033708Y007462D01*
X033596Y007416D01*
X033243Y007768D01*
X033243Y008908D01*
X033195Y008957D02*
X033673Y008957D01*
X033673Y009056D02*
X033096Y009056D01*
X032998Y009154D02*
X033673Y009154D01*
X033673Y009253D02*
X032899Y009253D01*
X032801Y009351D02*
X033598Y009351D01*
X033500Y009450D02*
X032702Y009450D01*
X032713Y009548D02*
X033401Y009548D01*
X033303Y009647D02*
X032713Y009647D01*
X032680Y009745D02*
X033204Y009745D01*
X033106Y009844D02*
X032615Y009844D01*
X032465Y009942D02*
X033007Y009942D01*
X032923Y010041D02*
X027102Y010041D01*
X027103Y010051D02*
X027103Y010054D01*
X026622Y010054D01*
X026622Y010131D01*
X026545Y010131D01*
X026545Y010612D01*
X026542Y010612D01*
X026462Y010599D01*
X026384Y010574D01*
X026311Y010537D01*
X026245Y010489D01*
X026187Y010431D01*
X026139Y010365D01*
X026101Y010292D01*
X026076Y010214D01*
X026063Y010133D01*
X026063Y010131D01*
X026545Y010131D01*
X026545Y010054D01*
X026063Y010054D01*
X026063Y010051D01*
X026076Y009970D01*
X026101Y009893D01*
X026139Y009820D01*
X026187Y009753D01*
X026245Y009695D01*
X026311Y009647D01*
X026384Y009610D01*
X026462Y009585D01*
X026542Y009572D01*
X026545Y009572D01*
X026545Y010054D01*
X026622Y010054D01*
X026622Y009572D01*
X026624Y009572D01*
X026705Y009585D01*
X026783Y009610D01*
X026856Y009647D01*
X026922Y009695D01*
X026980Y009753D01*
X027028Y009820D01*
X027065Y009893D01*
X027091Y009970D01*
X027103Y010051D01*
X027103Y010131D02*
X026622Y010131D01*
X026622Y010612D01*
X026624Y010612D01*
X026705Y010599D01*
X026783Y010574D01*
X026856Y010537D01*
X026922Y010489D01*
X026980Y010431D01*
X027028Y010365D01*
X027065Y010292D01*
X027091Y010214D01*
X027103Y010133D01*
X027103Y010131D01*
X027102Y010139D02*
X032923Y010139D01*
X032923Y010238D02*
X032454Y010238D01*
X032611Y010336D02*
X032863Y010336D01*
X033083Y010342D02*
X033083Y010092D01*
X033833Y009342D01*
X033833Y008482D01*
X033803Y008452D01*
X034246Y008268D02*
X035920Y008268D01*
X035956Y008180D02*
X036091Y008045D01*
X036268Y007972D01*
X036459Y007972D01*
X037985Y007972D01*
X037889Y007874D02*
X033243Y007874D01*
X033243Y007972D02*
X033708Y007972D01*
X033899Y007972D01*
X036268Y007972D01*
X036459Y007972D02*
X036635Y008045D01*
X036759Y008169D02*
X037967Y008169D01*
X038008Y008268D02*
X036806Y008268D01*
X036843Y008366D02*
X038088Y008366D01*
X038260Y008725D02*
X038125Y008781D01*
X038022Y008884D01*
X037966Y009019D01*
X037966Y009165D01*
X037973Y009182D01*
X036017Y009182D01*
X034517Y010682D01*
X034066Y010682D01*
X034076Y010677D01*
X034142Y010629D01*
X034200Y010571D01*
X034248Y010505D01*
X034285Y010432D01*
X034311Y010354D01*
X034322Y010282D01*
X033853Y010282D01*
X033853Y010182D01*
X033853Y009714D01*
X033925Y009725D01*
X034003Y009750D01*
X034076Y009787D01*
X034142Y009835D01*
X034200Y009893D01*
X034248Y009960D01*
X034285Y010033D01*
X034311Y010110D01*
X034322Y010182D01*
X033853Y010182D01*
X033753Y010182D01*
X033753Y010282D01*
X033285Y010282D01*
X033296Y010354D01*
X033321Y010432D01*
X033359Y010505D01*
X033407Y010571D01*
X033465Y010629D01*
X033531Y010677D01*
X033541Y010682D01*
X033267Y010682D01*
X033173Y010776D01*
X032612Y011337D01*
X032553Y011278D01*
X032417Y011222D01*
X031750Y011222D01*
X031614Y011278D01*
X031510Y011383D01*
X031453Y011519D01*
X031453Y011666D01*
X031510Y011802D01*
X031614Y011906D01*
X031750Y011962D01*
X032417Y011962D01*
X032553Y011906D01*
X032657Y011802D01*
X032697Y011704D01*
X033400Y011002D01*
X034650Y011002D01*
X036150Y009502D01*
X038150Y009502D01*
X038212Y009440D01*
X038260Y009460D01*
X038406Y009460D01*
X038541Y009404D01*
X038645Y009300D01*
X038701Y009165D01*
X038701Y009019D01*
X038645Y008884D01*
X038541Y008781D01*
X038406Y008725D01*
X038260Y008725D01*
X038175Y008760D02*
X036734Y008760D01*
X036796Y008662D02*
X039303Y008662D01*
X039303Y008760D02*
X038492Y008760D01*
X038620Y008859D02*
X039303Y008859D01*
X039303Y008957D02*
X038675Y008957D01*
X038701Y009056D02*
X039303Y009056D01*
X039303Y009154D02*
X038701Y009154D01*
X038665Y009253D02*
X039303Y009253D01*
X039303Y009351D02*
X038594Y009351D01*
X038430Y009450D02*
X039303Y009450D01*
X039303Y009548D02*
X036104Y009548D01*
X036005Y009647D02*
X039303Y009647D01*
X039303Y009745D02*
X038456Y009745D01*
X038406Y009725D02*
X038541Y009781D01*
X038645Y009884D01*
X038701Y010019D01*
X038701Y010165D01*
X038645Y010300D01*
X038541Y010404D01*
X038406Y010460D01*
X038260Y010460D01*
X038212Y010440D01*
X037650Y011002D01*
X036400Y011002D01*
X035150Y012252D01*
X034066Y012252D01*
X034076Y012257D01*
X034142Y012305D01*
X034200Y012363D01*
X034248Y012430D01*
X034285Y012503D01*
X035926Y012503D01*
X035956Y012430D02*
X036091Y012295D01*
X036268Y012222D01*
X036459Y012222D01*
X036635Y012295D01*
X036770Y012430D01*
X036843Y012607D01*
X036843Y012798D01*
X036770Y012974D01*
X036635Y013109D01*
X036459Y013182D01*
X036268Y013182D01*
X036091Y013109D01*
X035956Y012974D01*
X035883Y012798D01*
X035883Y012607D01*
X035956Y012430D01*
X035982Y012405D02*
X034230Y012405D01*
X034285Y012503D02*
X034311Y012580D01*
X034322Y012652D01*
X033853Y012652D01*
X033853Y012752D01*
X034322Y012752D01*
X034311Y012824D01*
X034285Y012902D01*
X034248Y012975D01*
X034200Y013041D01*
X034142Y013099D01*
X034076Y013147D01*
X034007Y013182D01*
X037017Y013182D01*
X037173Y013026D01*
X037173Y012026D01*
X037986Y011213D01*
X037966Y011165D01*
X037966Y011019D01*
X038022Y010884D01*
X038125Y010781D01*
X038260Y010725D01*
X038406Y010725D01*
X038541Y010781D01*
X038645Y010884D01*
X038701Y011019D01*
X038701Y011165D01*
X038645Y011300D01*
X038541Y011404D01*
X038406Y011460D01*
X038260Y011460D01*
X038212Y011440D01*
X037493Y012158D01*
X037493Y013158D01*
X037400Y013252D01*
X037150Y013502D01*
X033150Y013502D01*
X032900Y013752D01*
X032678Y013752D01*
X032657Y013802D01*
X032553Y013906D01*
X032417Y013962D01*
X031750Y013962D01*
X031614Y013906D01*
X031510Y013802D01*
X031453Y013666D01*
X031453Y013519D01*
X031510Y013383D01*
X031614Y013278D01*
X031750Y013222D01*
X032417Y013222D01*
X032553Y013278D01*
X032657Y013383D01*
X032678Y013432D01*
X032767Y013432D01*
X032923Y013276D01*
X033017Y013182D01*
X033600Y013182D01*
X033531Y013147D01*
X033465Y013099D01*
X033407Y013041D01*
X033359Y012975D01*
X033321Y012902D01*
X033296Y012824D01*
X033285Y012752D01*
X033753Y012752D01*
X033753Y012652D01*
X033285Y012652D01*
X033296Y012580D01*
X033321Y012503D01*
X032899Y012503D01*
X032997Y012405D02*
X033377Y012405D01*
X033359Y012430D02*
X033407Y012363D01*
X033465Y012305D01*
X033531Y012257D01*
X033541Y012252D01*
X033150Y012252D01*
X032697Y012704D01*
X032657Y012802D01*
X032553Y012906D01*
X032417Y012962D01*
X031750Y012962D01*
X031614Y012906D01*
X031510Y012802D01*
X031453Y012666D01*
X031453Y012519D01*
X031510Y012383D01*
X031614Y012278D01*
X031750Y012222D01*
X032417Y012222D01*
X032553Y012278D01*
X032612Y012337D01*
X032923Y012026D01*
X033017Y011932D01*
X033245Y011932D01*
X033176Y011864D01*
X033103Y011688D01*
X033103Y011497D01*
X033176Y011320D01*
X033311Y011185D01*
X033488Y011112D01*
X033679Y011112D01*
X033855Y011185D01*
X033990Y011320D01*
X034063Y011497D01*
X034063Y011688D01*
X033990Y011864D01*
X033922Y011932D01*
X035017Y011932D01*
X036173Y010776D01*
X036246Y010703D01*
X036091Y010639D01*
X035956Y010504D01*
X035883Y010328D01*
X035883Y010137D01*
X035956Y009960D01*
X036091Y009825D01*
X036268Y009752D01*
X036459Y009752D01*
X036635Y009825D01*
X036770Y009960D01*
X036843Y010137D01*
X036843Y010328D01*
X036770Y010504D01*
X036635Y010639D01*
X036531Y010682D01*
X037517Y010682D01*
X037986Y010213D01*
X037966Y010165D01*
X037966Y010019D01*
X038022Y009884D01*
X038125Y009781D01*
X038260Y009725D01*
X038406Y009725D01*
X038211Y009745D02*
X035907Y009745D01*
X035808Y009844D02*
X036073Y009844D01*
X035974Y009942D02*
X035710Y009942D01*
X035611Y010041D02*
X035923Y010041D01*
X035883Y010139D02*
X035513Y010139D01*
X035414Y010238D02*
X035883Y010238D01*
X035887Y010336D02*
X035316Y010336D01*
X035217Y010435D02*
X035928Y010435D01*
X035986Y010533D02*
X035119Y010533D01*
X035020Y010632D02*
X036084Y010632D01*
X036219Y010730D02*
X034922Y010730D01*
X034823Y010829D02*
X036121Y010829D01*
X036022Y010927D02*
X034725Y010927D01*
X034583Y010842D02*
X036083Y009342D01*
X038083Y009342D01*
X038333Y009092D01*
X037991Y008957D02*
X033993Y008957D01*
X033993Y009056D02*
X037966Y009056D01*
X037966Y009154D02*
X033993Y009154D01*
X033993Y009253D02*
X035947Y009253D01*
X035848Y009351D02*
X033993Y009351D01*
X033952Y009450D02*
X035750Y009450D01*
X035651Y009548D02*
X033854Y009548D01*
X033755Y009647D02*
X035553Y009647D01*
X035454Y009745D02*
X033987Y009745D01*
X033853Y009745D02*
X033753Y009745D01*
X033753Y009844D02*
X033853Y009844D01*
X033853Y009942D02*
X033753Y009942D01*
X033753Y010041D02*
X033853Y010041D01*
X033853Y010139D02*
X033753Y010139D01*
X033753Y010238D02*
X033243Y010238D01*
X033243Y010336D02*
X033293Y010336D01*
X033323Y010435D02*
X033217Y010435D01*
X033119Y010533D02*
X033379Y010533D01*
X033469Y010632D02*
X033020Y010632D01*
X032922Y010730D02*
X033219Y010730D01*
X033121Y010829D02*
X032630Y010829D01*
X032501Y010927D02*
X033022Y010927D01*
X032924Y011026D02*
X028243Y011026D01*
X028243Y011776D01*
X028400Y011932D01*
X028677Y011932D01*
X028614Y011906D01*
X028510Y011802D01*
X028453Y011666D01*
X028453Y011519D01*
X028510Y011383D01*
X028614Y011278D01*
X028750Y011222D01*
X029417Y011222D01*
X029553Y011278D01*
X029657Y011383D01*
X029713Y011519D01*
X029713Y011666D01*
X029657Y011802D01*
X029553Y011906D01*
X029489Y011932D01*
X030150Y011932D01*
X030243Y012026D01*
X030243Y013158D01*
X029697Y013704D01*
X029657Y013802D01*
X029553Y013906D01*
X029417Y013962D01*
X028750Y013962D01*
X028614Y013906D01*
X028510Y013802D01*
X028453Y013666D01*
X028453Y013519D01*
X028510Y013383D01*
X028614Y013278D01*
X028750Y013222D01*
X029417Y013222D01*
X029553Y013278D01*
X029612Y013337D01*
X029923Y013026D01*
X029923Y012252D01*
X029489Y012252D01*
X029553Y012278D01*
X029657Y012383D01*
X029713Y012519D01*
X029713Y012666D01*
X029657Y012802D01*
X029553Y012906D01*
X029417Y012962D01*
X028750Y012962D01*
X028614Y012906D01*
X028510Y012802D01*
X028489Y012752D01*
X028017Y012752D01*
X027767Y012502D01*
X023267Y012502D01*
X022291Y011526D01*
X022179Y011572D01*
X021988Y011572D01*
X021811Y011499D01*
X021676Y011364D01*
X021603Y011188D01*
X021603Y010997D01*
X021676Y010820D01*
X021811Y010685D01*
X021988Y010612D01*
X022179Y010612D01*
X022355Y010685D01*
X022490Y010820D01*
X022563Y010997D01*
X022563Y011188D01*
X022517Y011300D01*
X023400Y012182D01*
X027900Y012182D01*
X027993Y012276D01*
X028150Y012432D01*
X028489Y012432D01*
X028510Y012383D01*
X028614Y012278D01*
X028677Y012252D01*
X028267Y012252D01*
X028017Y012002D01*
X027923Y011908D01*
X027923Y011252D01*
X027037Y011252D01*
X026990Y011364D01*
X026855Y011499D01*
X026679Y011572D01*
X026488Y011572D01*
X026311Y011499D01*
X026176Y011364D01*
X026103Y011188D01*
X026103Y010997D01*
X026176Y010820D01*
X026311Y010685D01*
X026488Y010612D01*
X026679Y010612D01*
X026855Y010685D01*
X026990Y010820D01*
X027037Y010932D01*
X028150Y010932D01*
X028243Y011026D01*
X028243Y011124D02*
X032825Y011124D01*
X032727Y011223D02*
X032418Y011223D01*
X032596Y011321D02*
X032628Y011321D01*
X032583Y011592D02*
X033333Y010842D01*
X034583Y010842D01*
X034568Y010632D02*
X034138Y010632D01*
X034227Y010533D02*
X034666Y010533D01*
X034765Y010435D02*
X034284Y010435D01*
X034313Y010336D02*
X034863Y010336D01*
X034962Y010238D02*
X033853Y010238D01*
X034315Y010139D02*
X035060Y010139D01*
X035159Y010041D02*
X034288Y010041D01*
X034235Y009942D02*
X035257Y009942D01*
X035356Y009844D02*
X034150Y009844D01*
X033292Y010139D02*
X033263Y010139D01*
X033083Y010342D02*
X032833Y010592D01*
X032083Y010592D01*
X031665Y010927D02*
X029501Y010927D01*
X029553Y010906D02*
X029417Y010962D01*
X028750Y010962D01*
X028614Y010906D01*
X028510Y010802D01*
X028453Y010666D01*
X028453Y010519D01*
X028510Y010383D01*
X028614Y010278D01*
X028750Y010222D01*
X029417Y010222D01*
X029553Y010278D01*
X029657Y010383D01*
X029713Y010519D01*
X029713Y010666D01*
X029657Y010802D01*
X029553Y010906D01*
X029630Y010829D02*
X031537Y010829D01*
X031480Y010730D02*
X029687Y010730D01*
X029713Y010632D02*
X031453Y010632D01*
X031453Y010533D02*
X029713Y010533D01*
X029679Y010435D02*
X031488Y010435D01*
X031556Y010336D02*
X029611Y010336D01*
X029454Y010238D02*
X031712Y010238D01*
X031702Y009942D02*
X029465Y009942D01*
X029417Y009962D02*
X029553Y009906D01*
X029657Y009802D01*
X029713Y009666D01*
X029713Y009519D01*
X029657Y009383D01*
X029553Y009278D01*
X029417Y009222D01*
X028750Y009222D01*
X028614Y009278D01*
X028510Y009383D01*
X028453Y009519D01*
X028453Y009666D01*
X028510Y009802D01*
X028614Y009906D01*
X028750Y009962D01*
X029417Y009962D01*
X029615Y009844D02*
X031552Y009844D01*
X031486Y009745D02*
X029680Y009745D01*
X029713Y009647D02*
X031453Y009647D01*
X031453Y009548D02*
X029713Y009548D01*
X029685Y009450D02*
X031482Y009450D01*
X031541Y009351D02*
X029626Y009351D01*
X029491Y009253D02*
X031676Y009253D01*
X031727Y008992D02*
X031791Y009002D01*
X032053Y009002D01*
X032053Y008622D01*
X032053Y008562D01*
X031413Y008562D01*
X031413Y008560D01*
X031423Y008496D01*
X031443Y008435D01*
X031473Y008377D01*
X031511Y008325D01*
X031556Y008279D01*
X031608Y008241D01*
X031666Y008212D01*
X031727Y008192D01*
X031791Y008182D01*
X032053Y008182D01*
X032053Y008562D01*
X032113Y008562D01*
X032113Y008182D01*
X032376Y008182D01*
X032439Y008192D01*
X032501Y008212D01*
X032558Y008241D01*
X032610Y008279D01*
X032656Y008325D01*
X032694Y008377D01*
X032723Y008435D01*
X032743Y008496D01*
X032753Y008560D01*
X032753Y008562D01*
X032113Y008562D01*
X032113Y008622D01*
X032053Y008622D01*
X031413Y008622D01*
X031413Y008624D01*
X031423Y008688D01*
X031443Y008750D01*
X031473Y008807D01*
X031511Y008859D01*
X031556Y008905D01*
X031608Y008943D01*
X031666Y008972D01*
X031727Y008992D01*
X031637Y008957D02*
X029429Y008957D01*
X029417Y008962D02*
X029553Y008906D01*
X029657Y008802D01*
X029713Y008666D01*
X029713Y008519D01*
X029657Y008383D01*
X029553Y008278D01*
X029417Y008222D01*
X028750Y008222D01*
X028614Y008278D01*
X028510Y008383D01*
X028453Y008519D01*
X028453Y008666D01*
X028510Y008802D01*
X028614Y008906D01*
X028750Y008962D01*
X029417Y008962D01*
X029600Y008859D02*
X031510Y008859D01*
X031449Y008760D02*
X029674Y008760D01*
X029713Y008662D02*
X031419Y008662D01*
X032053Y008662D02*
X032113Y008662D01*
X032113Y008622D02*
X032113Y009002D01*
X032376Y009002D01*
X032439Y008992D01*
X032501Y008972D01*
X032558Y008943D01*
X032610Y008905D01*
X032656Y008859D01*
X032694Y008807D01*
X032723Y008750D01*
X032743Y008688D01*
X032753Y008624D01*
X032753Y008622D01*
X032113Y008622D01*
X032113Y008563D02*
X032923Y008563D01*
X032923Y008465D02*
X032733Y008465D01*
X032686Y008366D02*
X032923Y008366D01*
X032923Y008268D02*
X032594Y008268D01*
X032923Y008169D02*
X026247Y008169D01*
X026223Y008111D02*
X026293Y008280D01*
X026293Y008463D01*
X026223Y008632D01*
X026094Y008762D01*
X025925Y008832D01*
X025742Y008832D01*
X025573Y008762D01*
X025443Y008632D01*
X025373Y008463D01*
X025373Y008280D01*
X025443Y008111D01*
X025573Y007982D01*
X025742Y007912D01*
X025925Y007912D01*
X026094Y007982D01*
X026223Y008111D01*
X026183Y008071D02*
X032923Y008071D01*
X032923Y007972D02*
X029501Y007972D01*
X029439Y007992D01*
X029376Y008002D01*
X029113Y008002D01*
X029113Y007622D01*
X029053Y007622D01*
X029053Y007562D01*
X028413Y007562D01*
X028413Y007560D01*
X028423Y007496D01*
X028443Y007435D01*
X028473Y007377D01*
X028511Y007325D01*
X028556Y007279D01*
X028608Y007241D01*
X028666Y007212D01*
X028727Y007192D01*
X028791Y007182D01*
X029053Y007182D01*
X029053Y007562D01*
X029113Y007562D01*
X029113Y007182D01*
X029376Y007182D01*
X029439Y007192D01*
X029501Y007212D01*
X029558Y007241D01*
X029610Y007279D01*
X029656Y007325D01*
X029694Y007377D01*
X029723Y007435D01*
X029743Y007496D01*
X029753Y007560D01*
X029753Y007562D01*
X029113Y007562D01*
X029113Y007622D01*
X029753Y007622D01*
X029753Y007624D01*
X029743Y007688D01*
X029723Y007750D01*
X029694Y007807D01*
X029656Y007859D01*
X029610Y007905D01*
X029558Y007943D01*
X029501Y007972D01*
X029642Y007874D02*
X031582Y007874D01*
X031614Y007906D02*
X031510Y007802D01*
X031453Y007666D01*
X031453Y007519D01*
X031510Y007383D01*
X031614Y007278D01*
X031750Y007222D01*
X032417Y007222D01*
X032553Y007278D01*
X032657Y007383D01*
X032713Y007519D01*
X032713Y007666D01*
X032657Y007802D01*
X032553Y007906D01*
X032417Y007962D01*
X031750Y007962D01*
X031614Y007906D01*
X031499Y007775D02*
X029710Y007775D01*
X029745Y007677D02*
X031458Y007677D01*
X031453Y007578D02*
X029113Y007578D01*
X029053Y007578D02*
X022293Y007578D01*
X022293Y007480D02*
X028429Y007480D01*
X028471Y007381D02*
X022293Y007381D01*
X022293Y007283D02*
X028553Y007283D01*
X028778Y007184D02*
X022293Y007184D01*
X022316Y007086D02*
X033327Y007086D01*
X033323Y006987D02*
X022415Y006987D01*
X022513Y006889D02*
X028597Y006889D01*
X028505Y006790D02*
X022871Y006790D01*
X022583Y006592D02*
X022133Y007042D01*
X022133Y008592D01*
X022083Y008642D01*
X022083Y009342D01*
X023083Y009342D01*
X023583Y009842D01*
X023583Y010092D01*
X023583Y011092D01*
X023132Y010927D02*
X022535Y010927D01*
X022563Y011026D02*
X023103Y011026D01*
X023103Y011124D02*
X022563Y011124D01*
X022549Y011223D02*
X023118Y011223D01*
X023159Y011321D02*
X022539Y011321D01*
X022637Y011420D02*
X023232Y011420D01*
X023358Y011518D02*
X022736Y011518D01*
X022834Y011617D02*
X027923Y011617D01*
X027923Y011715D02*
X022933Y011715D01*
X023031Y011814D02*
X027923Y011814D01*
X027927Y011912D02*
X023130Y011912D01*
X023228Y012011D02*
X028026Y012011D01*
X028124Y012109D02*
X023327Y012109D01*
X023333Y012342D02*
X022083Y011092D01*
X021632Y010927D02*
X019535Y010927D01*
X019563Y011026D02*
X021603Y011026D01*
X021603Y011124D02*
X019563Y011124D01*
X019549Y011223D02*
X021618Y011223D01*
X021659Y011321D02*
X019508Y011321D01*
X019435Y011420D02*
X021732Y011420D01*
X021858Y011518D02*
X019309Y011518D01*
X018858Y011518D02*
X017163Y011518D01*
X017163Y011532D02*
X017632Y011532D01*
X017621Y011604D01*
X017595Y011682D01*
X017558Y011755D01*
X017510Y011821D01*
X017452Y011879D01*
X017386Y011927D01*
X017313Y011964D01*
X017235Y011989D01*
X017163Y012001D01*
X017163Y011532D01*
X017063Y011532D01*
X017063Y011432D01*
X016595Y011432D01*
X016606Y011360D01*
X016631Y011283D01*
X016669Y011210D01*
X016717Y011143D01*
X016775Y011085D01*
X016841Y011037D01*
X016914Y011000D01*
X016992Y010975D01*
X017063Y010964D01*
X017063Y011432D01*
X017163Y011432D01*
X017163Y010964D01*
X017235Y010975D01*
X017313Y011000D01*
X017386Y011037D01*
X017452Y011085D01*
X017510Y011143D01*
X017558Y011210D01*
X017595Y011283D01*
X017621Y011360D01*
X017632Y011432D01*
X017163Y011432D01*
X017163Y011532D01*
X017163Y011617D02*
X017063Y011617D01*
X017063Y011532D02*
X017063Y012001D01*
X016992Y011989D01*
X016914Y011964D01*
X016841Y011927D01*
X016775Y011879D01*
X016717Y011821D01*
X016669Y011755D01*
X016631Y011682D01*
X016606Y011604D01*
X016595Y011532D01*
X017063Y011532D01*
X017063Y011518D02*
X015523Y011518D01*
X015523Y011420D02*
X016597Y011420D01*
X016619Y011321D02*
X015523Y011321D01*
X015523Y011223D02*
X016662Y011223D01*
X016736Y011124D02*
X015523Y011124D01*
X015523Y011026D02*
X016864Y011026D01*
X017063Y011026D02*
X017163Y011026D01*
X017163Y011124D02*
X017063Y011124D01*
X017063Y011223D02*
X017163Y011223D01*
X017163Y011321D02*
X017063Y011321D01*
X017063Y011420D02*
X017163Y011420D01*
X017491Y011124D02*
X018603Y011124D01*
X018603Y011026D02*
X017363Y011026D01*
X017565Y011223D02*
X018618Y011223D01*
X018659Y011321D02*
X017608Y011321D01*
X017630Y011420D02*
X018732Y011420D01*
X019083Y011092D02*
X019083Y010092D01*
X021083Y010092D01*
X021583Y009592D01*
X021583Y008642D01*
X021533Y008592D01*
X021533Y005642D01*
X021833Y005342D01*
X021545Y005313D02*
X020371Y005313D01*
X020371Y005411D02*
X021538Y005411D01*
X021440Y005510D02*
X020371Y005510D01*
X020371Y005566D02*
X020307Y005630D01*
X019860Y005630D01*
X019795Y005566D01*
X019795Y005532D01*
X017662Y005532D01*
X015912Y007282D01*
X015773Y007421D01*
X015773Y008217D01*
X015803Y008247D01*
X015803Y008938D01*
X015773Y008968D01*
X015773Y010421D01*
X015662Y010532D01*
X015523Y010671D01*
X015523Y012294D01*
X015530Y012297D01*
X015628Y012395D01*
X015681Y012523D01*
X015681Y012661D01*
X015628Y012789D01*
X015530Y012887D01*
X015413Y012935D01*
X015413Y013525D01*
X015501Y013612D01*
X016429Y013612D01*
X016563Y013747D01*
X017429Y014612D01*
X017659Y014612D01*
X017676Y014570D01*
X017811Y014435D01*
X017988Y014362D01*
X018179Y014362D01*
X018355Y014435D01*
X018490Y014570D01*
X018563Y014747D01*
X018563Y014938D01*
X018490Y015114D01*
X018355Y015249D01*
X018179Y015322D01*
X017988Y015322D01*
X017811Y015249D01*
X017676Y015114D01*
X017659Y015072D01*
X017238Y015072D01*
X016238Y014072D01*
X015501Y014072D01*
X015403Y014170D01*
X015260Y014229D01*
X015106Y014229D01*
X014964Y014170D01*
X014855Y014061D01*
X014796Y013919D01*
X014796Y013765D01*
X014855Y013623D01*
X014953Y013525D01*
X014953Y012647D01*
X014986Y012615D01*
X014986Y012523D01*
X015038Y012395D01*
X015136Y012297D01*
X015143Y012294D01*
X015143Y010513D01*
X015393Y010263D01*
X015393Y009002D01*
X015328Y009002D01*
X015263Y008938D01*
X015263Y008247D01*
X015328Y008182D01*
X015373Y008182D01*
X015373Y007326D01*
X015393Y007306D01*
X015393Y007263D01*
X015505Y007152D01*
X015643Y007013D01*
X017393Y005263D01*
X017505Y005152D01*
X019795Y005152D01*
X019795Y005118D01*
X019860Y005054D01*
X020307Y005054D01*
X020371Y005118D01*
X020371Y005566D01*
X020329Y005608D02*
X021373Y005608D01*
X021373Y005707D02*
X017488Y005707D01*
X017586Y005608D02*
X019838Y005608D01*
X020371Y005214D02*
X021545Y005214D01*
X021548Y005116D02*
X020369Y005116D01*
X019798Y005116D02*
X014693Y005116D01*
X014693Y005214D02*
X017443Y005214D01*
X017393Y005263D02*
X017393Y005263D01*
X017344Y005313D02*
X014693Y005313D01*
X014693Y005398D02*
X014629Y005462D01*
X014038Y005462D01*
X013973Y005398D01*
X013973Y004987D01*
X014038Y004922D01*
X014629Y004922D01*
X014693Y004987D01*
X014693Y005398D01*
X014680Y005411D02*
X017246Y005411D01*
X017147Y005510D02*
X011991Y005510D01*
X011893Y005608D02*
X013973Y005608D01*
X013973Y005587D02*
X014038Y005522D01*
X014629Y005522D01*
X014693Y005587D01*
X014693Y005998D01*
X014629Y006062D01*
X014038Y006062D01*
X013973Y005998D01*
X013973Y005587D01*
X013973Y005707D02*
X011794Y005707D01*
X011696Y005805D02*
X013973Y005805D01*
X013973Y005904D02*
X011597Y005904D01*
X011499Y006002D02*
X013978Y006002D01*
X014038Y006122D02*
X014629Y006122D01*
X014693Y006187D01*
X014693Y006598D01*
X014629Y006662D01*
X014038Y006662D01*
X013973Y006598D01*
X013973Y006187D01*
X014038Y006122D01*
X013973Y006199D02*
X011302Y006199D01*
X011400Y006101D02*
X016556Y006101D01*
X016458Y006199D02*
X014693Y006199D01*
X014693Y006298D02*
X016359Y006298D01*
X016261Y006396D02*
X014693Y006396D01*
X014693Y006495D02*
X016162Y006495D01*
X016064Y006593D02*
X014693Y006593D01*
X014629Y006722D02*
X014038Y006722D01*
X013973Y006787D01*
X013973Y007198D01*
X014038Y007262D01*
X014629Y007262D01*
X014693Y007198D01*
X014693Y006787D01*
X014629Y006722D01*
X014693Y006790D02*
X015867Y006790D01*
X015965Y006692D02*
X011062Y006692D01*
X011063Y006688D02*
X010990Y006864D01*
X010855Y006999D01*
X010827Y007011D01*
X012002Y008185D01*
X012002Y008185D01*
X012164Y008185D01*
X012314Y008247D01*
X012428Y008362D01*
X012490Y008511D01*
X012490Y008673D01*
X012428Y008823D01*
X012314Y008937D01*
X012164Y008999D01*
X012002Y008999D01*
X011853Y008937D01*
X011738Y008823D01*
X011676Y008673D01*
X011676Y008511D01*
X011677Y008511D01*
X010488Y007322D01*
X010353Y007187D01*
X010353Y007016D01*
X010311Y006999D01*
X010176Y006864D01*
X010159Y006822D01*
X010008Y006822D01*
X009990Y006864D01*
X009855Y006999D01*
X009679Y007072D01*
X009488Y007072D01*
X009311Y006999D01*
X009176Y006864D01*
X009103Y006688D01*
X009103Y006497D01*
X009176Y006320D01*
X009311Y006185D01*
X009488Y006112D01*
X009679Y006112D01*
X009855Y006185D01*
X009990Y006320D01*
X010008Y006362D01*
X010159Y006362D01*
X010176Y006320D01*
X010311Y006185D01*
X010488Y006112D01*
X010679Y006112D01*
X010721Y006129D01*
X011853Y004997D01*
X011853Y004354D01*
X011821Y004322D01*
X009988Y004322D01*
X009853Y004187D01*
X009853Y003940D01*
X009800Y003940D01*
X009736Y003875D01*
X009736Y003309D01*
X009800Y003244D01*
X009853Y003244D01*
X009257Y003244D01*
X009267Y003248D02*
X009331Y003291D01*
X009385Y003345D01*
X009427Y003408D01*
X009456Y003479D01*
X009471Y003554D01*
X009471Y003573D01*
X009102Y003573D01*
X009102Y003204D01*
X009122Y003204D01*
X009196Y003219D01*
X009267Y003248D01*
X009382Y003343D02*
X009736Y003343D01*
X009736Y003441D02*
X009441Y003441D01*
X009468Y003540D02*
X009736Y003540D01*
X009736Y003638D02*
X009470Y003638D01*
X009471Y003630D02*
X009456Y003705D01*
X009427Y003776D01*
X009385Y003839D01*
X009331Y003893D01*
X009267Y003936D01*
X009196Y003965D01*
X009122Y003980D01*
X009102Y003980D01*
X009102Y003611D01*
X009064Y003611D01*
X009064Y003573D01*
X008696Y003573D01*
X008696Y003554D01*
X008710Y003479D01*
X008740Y003408D01*
X008782Y003345D01*
X008836Y003291D01*
X008900Y003248D01*
X008970Y003219D01*
X009045Y003204D01*
X009064Y003204D01*
X009064Y003573D01*
X009102Y003573D01*
X009102Y003611D01*
X009471Y003611D01*
X009471Y003630D01*
X009443Y003737D02*
X009736Y003737D01*
X009736Y003835D02*
X009387Y003835D01*
X009270Y003934D02*
X009794Y003934D01*
X009853Y004032D02*
X008029Y004032D01*
X008031Y004042D02*
X007633Y004042D01*
X007633Y003644D01*
X007689Y003653D01*
X007756Y003675D01*
X007819Y003707D01*
X007876Y003749D01*
X007927Y003799D01*
X007968Y003856D01*
X008000Y003919D01*
X008022Y003987D01*
X008031Y004042D01*
X008031Y004142D02*
X007633Y004142D01*
X007533Y004142D01*
X007533Y004042D01*
X007136Y004042D01*
X007144Y003987D01*
X007166Y003919D01*
X007198Y003856D01*
X007240Y003799D01*
X007290Y003749D01*
X007347Y003707D01*
X007411Y003675D01*
X007478Y003653D01*
X007533Y003644D01*
X007533Y004042D01*
X007633Y004042D01*
X007633Y004142D01*
X007633Y004540D01*
X007689Y004531D01*
X007756Y004509D01*
X007819Y004477D01*
X007876Y004435D01*
X007927Y004385D01*
X007968Y004328D01*
X008000Y004265D01*
X008022Y004198D01*
X008031Y004142D01*
X008012Y004229D02*
X009895Y004229D01*
X009853Y004131D02*
X007633Y004131D01*
X007633Y004229D02*
X007533Y004229D01*
X007533Y004142D02*
X007533Y004540D01*
X007478Y004531D01*
X007411Y004509D01*
X007347Y004477D01*
X007290Y004435D01*
X007240Y004385D01*
X007198Y004328D01*
X007166Y004265D01*
X007144Y004198D01*
X007136Y004142D01*
X007533Y004142D01*
X007533Y004131D02*
X005430Y004131D01*
X005427Y004135D02*
X005380Y004182D01*
X005900Y004182D01*
X005993Y004276D01*
X006993Y005276D01*
X006993Y006026D01*
X008743Y007776D01*
X008743Y009139D01*
X008855Y009185D01*
X008990Y009320D01*
X009063Y009497D01*
X009063Y009688D01*
X008990Y009864D01*
X008855Y009999D01*
X008743Y010045D01*
X008743Y010639D01*
X008855Y010685D01*
X008990Y010820D01*
X009063Y010997D01*
X009063Y011188D01*
X008990Y011364D01*
X008855Y011499D01*
X008679Y011572D01*
X008488Y011572D01*
X008311Y011499D01*
X008176Y011364D01*
X008103Y011188D01*
X008103Y010997D01*
X008176Y010820D01*
X008311Y010685D01*
X008423Y010639D01*
X008423Y010045D01*
X008311Y009999D01*
X008176Y009864D01*
X008103Y009688D01*
X008103Y009497D01*
X008176Y009320D01*
X008311Y009185D01*
X008423Y009139D01*
X008423Y007908D01*
X006767Y006252D01*
X006673Y006158D01*
X006673Y005408D01*
X005767Y004502D01*
X004849Y004502D01*
X004800Y004512D01*
X004785Y004502D01*
X004767Y004502D01*
X004731Y004466D01*
X004316Y004189D01*
X004316Y004190D01*
X004165Y004252D01*
X004002Y004252D01*
X003851Y004190D01*
X003736Y004074D01*
X003673Y003924D01*
X003673Y003761D01*
X003736Y003610D01*
X003851Y003495D01*
X004002Y003432D01*
X004165Y003432D01*
X004316Y003495D01*
X004431Y003610D01*
X004493Y003761D01*
X004493Y003923D01*
X004685Y004051D01*
X004666Y004015D01*
X004644Y003948D01*
X004636Y003892D01*
X005033Y003892D01*
X005033Y003792D01*
X004636Y003792D01*
X004644Y003737D01*
X004666Y003669D01*
X004698Y003606D01*
X004740Y003549D01*
X004790Y003499D01*
X004847Y003457D01*
X004911Y003425D01*
X004978Y003403D01*
X005033Y003394D01*
X005033Y003792D01*
X005133Y003792D01*
X005133Y003394D01*
X005189Y003403D01*
X005256Y003425D01*
X005319Y003457D01*
X005376Y003499D01*
X005427Y003549D01*
X005468Y003606D01*
X005500Y003669D01*
X005522Y003737D01*
X005531Y003792D01*
X005133Y003792D01*
X005133Y003892D01*
X005531Y003892D01*
X005522Y003948D01*
X005500Y004015D01*
X005468Y004078D01*
X005427Y004135D01*
X005492Y004032D02*
X007137Y004032D01*
X007162Y003934D02*
X005524Y003934D01*
X005522Y003737D02*
X007307Y003737D01*
X007214Y003835D02*
X005133Y003835D01*
X005133Y003737D02*
X005033Y003737D01*
X005033Y003835D02*
X004493Y003835D01*
X004483Y003737D02*
X004644Y003737D01*
X004682Y003638D02*
X004443Y003638D01*
X004361Y003540D02*
X004749Y003540D01*
X004879Y003441D02*
X004187Y003441D01*
X003980Y003441D02*
X003187Y003441D01*
X003165Y003432D02*
X003316Y003495D01*
X003431Y003610D01*
X003493Y003761D01*
X003493Y003924D01*
X003431Y004074D01*
X003316Y004190D01*
X003165Y004252D01*
X003002Y004252D01*
X002851Y004190D01*
X002736Y004074D01*
X002673Y003924D01*
X002673Y003761D01*
X002736Y003610D01*
X002851Y003495D01*
X003002Y003432D01*
X003165Y003432D01*
X002980Y003441D02*
X000833Y003441D01*
X000833Y003343D02*
X007254Y003343D01*
X007236Y003324D02*
X007173Y003174D01*
X007173Y003011D01*
X007236Y002860D01*
X007351Y002745D01*
X007502Y002682D01*
X007665Y002682D01*
X007667Y002683D01*
X007853Y002497D01*
X007853Y002247D01*
X007988Y002112D01*
X010179Y002112D01*
X010313Y002247D01*
X010313Y003244D01*
X011727Y003244D01*
X011740Y003276D02*
X011710Y003205D01*
X011696Y003130D01*
X011696Y003111D01*
X012064Y003111D01*
X012064Y003073D01*
X011696Y003073D01*
X011696Y003054D01*
X011710Y002979D01*
X011740Y002908D01*
X011782Y002845D01*
X011836Y002791D01*
X011900Y002748D01*
X011970Y002719D01*
X012045Y002704D01*
X012064Y002704D01*
X012064Y003073D01*
X012102Y003073D01*
X012102Y002704D01*
X012122Y002704D01*
X012196Y002719D01*
X012267Y002748D01*
X012331Y002791D01*
X012385Y002845D01*
X012427Y002908D01*
X012456Y002979D01*
X012471Y003054D01*
X012471Y003073D01*
X012102Y003073D01*
X012102Y003111D01*
X012064Y003111D01*
X012064Y003480D01*
X012045Y003480D01*
X011970Y003465D01*
X011900Y003436D01*
X011836Y003393D01*
X011782Y003339D01*
X011740Y003276D01*
X011785Y003343D02*
X010431Y003343D01*
X010431Y003309D02*
X010431Y003862D01*
X011821Y003862D01*
X011886Y003797D01*
X012014Y003744D01*
X012153Y003744D01*
X012280Y003797D01*
X012378Y003895D01*
X012431Y004023D01*
X012431Y004161D01*
X012378Y004289D01*
X012313Y004354D01*
X012313Y005187D01*
X012179Y005322D01*
X011046Y006455D01*
X011063Y006497D01*
X011063Y006688D01*
X011063Y006593D02*
X013973Y006593D01*
X013973Y006495D02*
X011063Y006495D01*
X011105Y006396D02*
X013973Y006396D01*
X013973Y006298D02*
X011203Y006298D01*
X010848Y006002D02*
X006993Y006002D01*
X006993Y005904D02*
X010947Y005904D01*
X011045Y005805D02*
X006993Y005805D01*
X006993Y005707D02*
X011144Y005707D01*
X011242Y005608D02*
X006993Y005608D01*
X006993Y005510D02*
X011341Y005510D01*
X011439Y005411D02*
X006993Y005411D01*
X006993Y005313D02*
X011538Y005313D01*
X011636Y005214D02*
X006932Y005214D01*
X006833Y005116D02*
X011735Y005116D01*
X011833Y005017D02*
X006735Y005017D01*
X006636Y004919D02*
X011853Y004919D01*
X011853Y004820D02*
X006538Y004820D01*
X006439Y004722D02*
X011853Y004722D01*
X011853Y004623D02*
X006341Y004623D01*
X006242Y004525D02*
X007458Y004525D01*
X007533Y004525D02*
X007633Y004525D01*
X007708Y004525D02*
X011853Y004525D01*
X011853Y004426D02*
X007886Y004426D01*
X007968Y004328D02*
X011827Y004328D01*
X012313Y004426D02*
X013973Y004426D01*
X013973Y004525D02*
X012313Y004525D01*
X012313Y004623D02*
X013973Y004623D01*
X013973Y004722D02*
X012313Y004722D01*
X012313Y004820D02*
X013996Y004820D01*
X013973Y005017D02*
X012313Y005017D01*
X012313Y004919D02*
X026538Y004919D01*
X026452Y004820D02*
X014671Y004820D01*
X014693Y004722D02*
X026411Y004722D01*
X026393Y004623D02*
X014693Y004623D01*
X014693Y004525D02*
X026393Y004525D01*
X027093Y004229D02*
X027574Y004229D01*
X027476Y004328D02*
X027191Y004328D01*
X027241Y004426D02*
X027426Y004426D01*
X027393Y004525D02*
X027273Y004525D01*
X027273Y004623D02*
X027393Y004623D01*
X027411Y004722D02*
X027256Y004722D01*
X027215Y004820D02*
X027452Y004820D01*
X027538Y004919D02*
X027129Y004919D01*
X026993Y005017D02*
X027673Y005017D01*
X027673Y005116D02*
X026993Y005116D01*
X026993Y005214D02*
X027673Y005214D01*
X027673Y005313D02*
X027030Y005313D01*
X027129Y005411D02*
X027676Y005411D01*
X027775Y005510D02*
X027227Y005510D01*
X027326Y005608D02*
X027873Y005608D01*
X027972Y005707D02*
X027424Y005707D01*
X027523Y005805D02*
X028513Y005805D01*
X028612Y005904D02*
X027621Y005904D01*
X027720Y006002D02*
X031017Y006002D01*
X030919Y005904D02*
X029555Y005904D01*
X029654Y005805D02*
X030820Y005805D01*
X030722Y005707D02*
X029696Y005707D01*
X029713Y005608D02*
X030623Y005608D01*
X030525Y005510D02*
X029710Y005510D01*
X029669Y005411D02*
X030426Y005411D01*
X030328Y005313D02*
X029587Y005313D01*
X029083Y005592D02*
X028083Y005592D01*
X027833Y005342D01*
X027833Y004592D01*
X028241Y004426D02*
X028492Y004426D01*
X028453Y004525D02*
X028273Y004525D01*
X028273Y004623D02*
X028453Y004623D01*
X028476Y004722D02*
X028256Y004722D01*
X028215Y004820D02*
X028528Y004820D01*
X027993Y005116D02*
X030131Y005116D01*
X030229Y005214D02*
X027993Y005214D01*
X028030Y005313D02*
X028580Y005313D01*
X028498Y005411D02*
X028129Y005411D01*
X027169Y005904D02*
X026325Y005904D01*
X026297Y006002D02*
X027267Y006002D01*
X027366Y006101D02*
X026242Y006101D01*
X026152Y006199D02*
X027464Y006199D01*
X027818Y006101D02*
X031116Y006101D01*
X031214Y006199D02*
X027917Y006199D01*
X028015Y006298D02*
X028595Y006298D01*
X028504Y006396D02*
X028114Y006396D01*
X028083Y006592D02*
X029083Y006592D01*
X029662Y006790D02*
X031505Y006790D01*
X031464Y006692D02*
X029703Y006692D01*
X029713Y006593D02*
X031453Y006593D01*
X031463Y006495D02*
X029703Y006495D01*
X029663Y006396D02*
X031504Y006396D01*
X031595Y006298D02*
X029572Y006298D01*
X029570Y006889D02*
X031597Y006889D01*
X031610Y007283D02*
X029614Y007283D01*
X029696Y007381D02*
X031511Y007381D01*
X031469Y007480D02*
X029738Y007480D01*
X029113Y007480D02*
X029053Y007480D01*
X029053Y007381D02*
X029113Y007381D01*
X029113Y007283D02*
X029053Y007283D01*
X029053Y007184D02*
X029113Y007184D01*
X029388Y007184D02*
X033367Y007184D01*
X033277Y007283D02*
X032557Y007283D01*
X032656Y007381D02*
X033178Y007381D01*
X033080Y007480D02*
X032697Y007480D01*
X032713Y007578D02*
X032981Y007578D01*
X032923Y007677D02*
X032709Y007677D01*
X032668Y007775D02*
X032923Y007775D01*
X032923Y007874D02*
X032585Y007874D01*
X033083Y007702D02*
X033803Y006982D01*
X034243Y006790D02*
X034555Y006790D01*
X034457Y006692D02*
X034192Y006692D01*
X034093Y006593D02*
X034358Y006593D01*
X034260Y006495D02*
X032703Y006495D01*
X032713Y006593D02*
X033513Y006593D01*
X033415Y006692D02*
X032703Y006692D01*
X032662Y006790D02*
X033363Y006790D01*
X033323Y006889D02*
X032570Y006889D01*
X032663Y006396D02*
X034161Y006396D01*
X034063Y006298D02*
X032572Y006298D01*
X033333Y005842D02*
X034583Y005842D01*
X035083Y006342D01*
X037583Y006342D01*
X038333Y007092D01*
X037966Y007086D02*
X036840Y007086D01*
X036843Y006987D02*
X037979Y006987D01*
X037904Y006889D02*
X036843Y006889D01*
X036803Y006790D02*
X037805Y006790D01*
X037707Y006692D02*
X036752Y006692D01*
X036653Y006593D02*
X037608Y006593D01*
X037864Y006396D02*
X038118Y006396D01*
X038021Y006298D02*
X037765Y006298D01*
X037667Y006199D02*
X037980Y006199D01*
X037966Y006101D02*
X035068Y006101D01*
X034970Y006002D02*
X037973Y006002D01*
X038083Y005842D02*
X038333Y006092D01*
X038083Y005842D02*
X035583Y005842D01*
X033833Y004092D01*
X031583Y004092D01*
X030083Y002592D01*
X029083Y002592D01*
X029632Y002358D02*
X031535Y002358D01*
X031510Y002383D02*
X031614Y002278D01*
X031677Y002252D01*
X031017Y002252D01*
X030923Y002158D01*
X030517Y001752D01*
X029678Y001752D01*
X029657Y001802D01*
X029553Y001906D01*
X029417Y001962D01*
X028750Y001962D01*
X028614Y001906D01*
X028510Y001802D01*
X028453Y001666D01*
X028453Y001519D01*
X028510Y001383D01*
X028614Y001278D01*
X028750Y001222D01*
X029417Y001222D01*
X029553Y001278D01*
X029657Y001383D01*
X029678Y001432D01*
X030650Y001432D01*
X031150Y001932D01*
X031677Y001932D01*
X031614Y001906D01*
X031510Y001802D01*
X031453Y001666D01*
X031453Y001519D01*
X031510Y001383D01*
X031614Y001278D01*
X031750Y001222D01*
X032417Y001222D01*
X032553Y001278D01*
X032657Y001383D01*
X032713Y001519D01*
X032713Y001666D01*
X032657Y001802D01*
X032553Y001906D01*
X032489Y001932D01*
X033400Y001932D01*
X033650Y002182D01*
X033889Y002182D01*
X033883Y002162D01*
X033883Y001892D01*
X034283Y001892D01*
X034283Y001792D01*
X033883Y001792D01*
X033883Y001522D01*
X033894Y001484D01*
X033913Y001450D01*
X033941Y001422D01*
X033975Y001402D01*
X034014Y001392D01*
X034283Y001392D01*
X034283Y001792D01*
X034383Y001792D01*
X034383Y001392D01*
X034653Y001392D01*
X034691Y001402D01*
X034725Y001422D01*
X034753Y001450D01*
X034773Y001484D01*
X034783Y001522D01*
X034783Y001792D01*
X034383Y001792D01*
X034383Y001892D01*
X034783Y001892D01*
X034783Y002162D01*
X034778Y002182D01*
X035094Y002182D01*
X034986Y002074D01*
X034923Y001924D01*
X034923Y001761D01*
X034986Y001610D01*
X035101Y001495D01*
X035252Y001432D01*
X035415Y001432D01*
X035566Y001495D01*
X035681Y001610D01*
X035743Y001761D01*
X035743Y001924D01*
X035681Y002074D01*
X035573Y002182D01*
X035900Y002182D01*
X035993Y002276D01*
X035993Y002432D01*
X036679Y002432D01*
X036743Y002497D01*
X036743Y003182D01*
X037150Y003182D01*
X038493Y004526D01*
X038493Y004761D01*
X038541Y004781D01*
X038645Y004884D01*
X038701Y005019D01*
X038701Y005165D01*
X038645Y005300D01*
X038541Y005404D01*
X038406Y005460D01*
X038260Y005460D01*
X038125Y005404D01*
X038022Y005300D01*
X037966Y005165D01*
X037966Y005019D01*
X038022Y004884D01*
X038125Y004781D01*
X038173Y004761D01*
X038173Y004658D01*
X037017Y003502D01*
X035767Y003502D01*
X035673Y003408D01*
X035673Y003082D01*
X035566Y003190D01*
X035415Y003252D01*
X035252Y003252D01*
X035101Y003190D01*
X034986Y003074D01*
X034923Y002924D01*
X034923Y002761D01*
X034986Y002610D01*
X035094Y002502D01*
X034573Y002502D01*
X034681Y002610D01*
X034743Y002761D01*
X034743Y002924D01*
X034713Y002996D01*
X035400Y003682D01*
X036400Y003682D01*
X036493Y003776D01*
X037493Y004776D01*
X037493Y005054D01*
X037557Y005054D01*
X037621Y005118D01*
X037621Y005566D01*
X037557Y005630D01*
X037110Y005630D01*
X037045Y005566D01*
X037045Y005118D01*
X037110Y005054D01*
X037173Y005054D01*
X037173Y004908D01*
X036267Y004002D01*
X035267Y004002D01*
X034487Y003222D01*
X034415Y003252D01*
X034252Y003252D01*
X034101Y003190D01*
X033986Y003074D01*
X033923Y002924D01*
X033923Y002761D01*
X033986Y002610D01*
X034094Y002502D01*
X033517Y002502D01*
X033423Y002408D01*
X033267Y002252D01*
X032489Y002252D01*
X032553Y002278D01*
X032657Y002383D01*
X032713Y002519D01*
X032713Y002666D01*
X032657Y002802D01*
X032553Y002906D01*
X032417Y002962D01*
X031750Y002962D01*
X031614Y002906D01*
X031510Y002802D01*
X031453Y002666D01*
X031453Y002519D01*
X031510Y002383D01*
X031479Y002456D02*
X030174Y002456D01*
X030272Y002555D02*
X031453Y002555D01*
X031453Y002653D02*
X030371Y002653D01*
X030469Y002752D02*
X031489Y002752D01*
X031558Y002850D02*
X030568Y002850D01*
X030666Y002949D02*
X031717Y002949D01*
X031697Y003244D02*
X030962Y003244D01*
X031060Y003343D02*
X031550Y003343D01*
X031485Y003441D02*
X031159Y003441D01*
X031257Y003540D02*
X031453Y003540D01*
X031453Y003638D02*
X031356Y003638D01*
X031454Y003737D02*
X031483Y003737D01*
X031199Y003934D02*
X030651Y003934D01*
X030750Y004032D02*
X031297Y004032D01*
X031396Y004131D02*
X030848Y004131D01*
X030947Y004229D02*
X031494Y004229D01*
X031565Y004328D02*
X031045Y004328D01*
X031144Y004426D02*
X031492Y004426D01*
X031453Y004525D02*
X031242Y004525D01*
X031341Y004623D02*
X031453Y004623D01*
X031439Y004722D02*
X031476Y004722D01*
X031184Y004919D02*
X030386Y004919D01*
X030485Y005017D02*
X031282Y005017D01*
X031381Y005116D02*
X030583Y005116D01*
X030682Y005214D02*
X031479Y005214D01*
X031580Y005313D02*
X030780Y005313D01*
X030879Y005411D02*
X031498Y005411D01*
X031457Y005510D02*
X030977Y005510D01*
X031076Y005608D02*
X031453Y005608D01*
X031470Y005707D02*
X031174Y005707D01*
X031273Y005805D02*
X031513Y005805D01*
X031612Y005904D02*
X031371Y005904D01*
X032932Y005214D02*
X033323Y005214D01*
X033323Y005298D02*
X033323Y005107D01*
X033396Y004930D01*
X033531Y004795D01*
X033708Y004722D01*
X033899Y004722D01*
X034075Y004795D01*
X034210Y004930D01*
X034283Y005107D01*
X034283Y005298D01*
X034210Y005474D01*
X034075Y005609D01*
X033899Y005682D01*
X033708Y005682D01*
X033531Y005609D01*
X033396Y005474D01*
X033323Y005298D01*
X033330Y005313D02*
X033030Y005313D01*
X033129Y005411D02*
X033370Y005411D01*
X033432Y005510D02*
X033227Y005510D01*
X033326Y005608D02*
X033531Y005608D01*
X034076Y005608D02*
X035123Y005608D01*
X035025Y005510D02*
X034175Y005510D01*
X034236Y005411D02*
X034926Y005411D01*
X034828Y005313D02*
X034277Y005313D01*
X034283Y005214D02*
X034729Y005214D01*
X034631Y005116D02*
X034283Y005116D01*
X034246Y005017D02*
X034532Y005017D01*
X034434Y004919D02*
X034199Y004919D01*
X034100Y004820D02*
X034335Y004820D01*
X034237Y004722D02*
X032690Y004722D01*
X032713Y004623D02*
X034138Y004623D01*
X034040Y004525D02*
X032713Y004525D01*
X032675Y004426D02*
X033941Y004426D01*
X033843Y004328D02*
X032602Y004328D01*
X032624Y003835D02*
X035100Y003835D01*
X035002Y003737D02*
X032684Y003737D01*
X032713Y003638D02*
X034903Y003638D01*
X034805Y003540D02*
X032713Y003540D01*
X032681Y003441D02*
X034706Y003441D01*
X034608Y003343D02*
X032617Y003343D01*
X032470Y003244D02*
X034232Y003244D01*
X034057Y003146D02*
X030863Y003146D01*
X030765Y003047D02*
X033974Y003047D01*
X033934Y002949D02*
X032450Y002949D01*
X032609Y002850D02*
X033923Y002850D01*
X033927Y002752D02*
X032678Y002752D01*
X032713Y002653D02*
X033968Y002653D01*
X034041Y002555D02*
X032713Y002555D01*
X032687Y002456D02*
X033471Y002456D01*
X033373Y002358D02*
X032632Y002358D01*
X032506Y002259D02*
X033274Y002259D01*
X033333Y002092D02*
X033583Y002342D01*
X035833Y002342D01*
X035833Y003342D01*
X037083Y003342D01*
X038333Y004592D01*
X038333Y005092D01*
X038086Y004820D02*
X037493Y004820D01*
X037493Y004919D02*
X038007Y004919D01*
X037967Y005017D02*
X037493Y005017D01*
X037619Y005116D02*
X037966Y005116D01*
X037986Y005214D02*
X037621Y005214D01*
X037621Y005313D02*
X038034Y005313D01*
X038143Y005411D02*
X037621Y005411D01*
X037621Y005510D02*
X039303Y005510D01*
X039303Y005608D02*
X037579Y005608D01*
X037333Y005342D02*
X037333Y004842D01*
X036333Y003842D01*
X035333Y003842D01*
X034333Y002842D01*
X034743Y002850D02*
X034923Y002850D01*
X034927Y002752D02*
X034740Y002752D01*
X034699Y002653D02*
X034968Y002653D01*
X035041Y002555D02*
X034626Y002555D01*
X034733Y002949D02*
X034934Y002949D01*
X034974Y003047D02*
X034765Y003047D01*
X034863Y003146D02*
X035057Y003146D01*
X034962Y003244D02*
X035232Y003244D01*
X035060Y003343D02*
X035673Y003343D01*
X035673Y003244D02*
X035434Y003244D01*
X035610Y003146D02*
X035673Y003146D01*
X035706Y003441D02*
X035159Y003441D01*
X035257Y003540D02*
X037055Y003540D01*
X037153Y003638D02*
X035356Y003638D01*
X035199Y003934D02*
X033901Y003934D01*
X034000Y004032D02*
X036297Y004032D01*
X036396Y004131D02*
X034098Y004131D01*
X034197Y004229D02*
X036494Y004229D01*
X036593Y004328D02*
X034295Y004328D01*
X034394Y004426D02*
X036691Y004426D01*
X036790Y004525D02*
X034492Y004525D01*
X034591Y004623D02*
X036888Y004623D01*
X036987Y004722D02*
X036566Y004722D01*
X036413Y004722D02*
X036313Y004722D01*
X036313Y004820D02*
X036413Y004820D01*
X036413Y004919D02*
X036313Y004919D01*
X036313Y005017D02*
X036413Y005017D01*
X036413Y005116D02*
X036313Y005116D01*
X036313Y005214D02*
X035182Y005214D01*
X035280Y005313D02*
X035854Y005313D01*
X035886Y005411D02*
X035379Y005411D01*
X035477Y005510D02*
X035944Y005510D01*
X036037Y005608D02*
X035576Y005608D01*
X035320Y005805D02*
X034773Y005805D01*
X034871Y005904D02*
X035419Y005904D01*
X035222Y005707D02*
X034674Y005707D01*
X034220Y006002D02*
X035650Y007432D01*
X036195Y007432D01*
X036091Y007389D01*
X035956Y007254D01*
X035883Y007078D01*
X035883Y006887D01*
X035956Y006710D01*
X036091Y006575D01*
X035975Y006692D02*
X034909Y006692D01*
X035008Y006790D02*
X035923Y006790D01*
X035883Y006889D02*
X035106Y006889D01*
X035205Y006987D02*
X035883Y006987D01*
X035887Y007086D02*
X035303Y007086D01*
X035402Y007184D02*
X035927Y007184D01*
X035985Y007283D02*
X035500Y007283D01*
X035599Y007381D02*
X036084Y007381D01*
X036643Y007381D02*
X038103Y007381D01*
X038014Y007283D02*
X036742Y007283D01*
X036799Y007184D02*
X037974Y007184D01*
X037947Y007480D02*
X039303Y007480D01*
X039303Y007578D02*
X038046Y007578D01*
X038144Y007677D02*
X039303Y007677D01*
X039303Y007775D02*
X038528Y007775D01*
X038635Y007874D02*
X039303Y007874D01*
X039303Y007972D02*
X038681Y007972D01*
X038701Y008071D02*
X039303Y008071D01*
X039303Y008169D02*
X038699Y008169D01*
X038658Y008268D02*
X039303Y008268D01*
X039303Y008366D02*
X038579Y008366D01*
X039303Y008465D02*
X036843Y008465D01*
X036837Y008563D02*
X039303Y008563D01*
X038047Y008859D02*
X036636Y008859D01*
X036091Y008859D02*
X035956Y008724D01*
X035883Y008548D01*
X035883Y008357D01*
X035956Y008180D01*
X035967Y008169D02*
X034199Y008169D01*
X034210Y008180D02*
X034283Y008357D01*
X034283Y008548D01*
X034210Y008724D01*
X034075Y008859D01*
X034174Y008760D02*
X035993Y008760D01*
X035931Y008662D02*
X034236Y008662D01*
X034277Y008563D02*
X035890Y008563D01*
X035883Y008465D02*
X034283Y008465D01*
X034283Y008366D02*
X035883Y008366D01*
X036066Y008071D02*
X034101Y008071D01*
X034075Y008045D02*
X034210Y008180D01*
X034075Y008045D02*
X033899Y007972D01*
X033708Y007972D02*
X033531Y008045D01*
X033396Y008180D01*
X033323Y008357D01*
X033323Y008548D01*
X033396Y008724D01*
X033531Y008859D01*
X033433Y008760D02*
X033243Y008760D01*
X033243Y008662D02*
X033371Y008662D01*
X033330Y008563D02*
X033243Y008563D01*
X033243Y008465D02*
X033323Y008465D01*
X033323Y008366D02*
X033243Y008366D01*
X033243Y008268D02*
X033360Y008268D01*
X033407Y008169D02*
X033243Y008169D01*
X033243Y008071D02*
X033506Y008071D01*
X033243Y007775D02*
X037790Y007775D01*
X038564Y007381D02*
X039303Y007381D01*
X039303Y007283D02*
X038652Y007283D01*
X038693Y007184D02*
X039303Y007184D01*
X039303Y007086D02*
X038701Y007086D01*
X038688Y006987D02*
X039303Y006987D01*
X039303Y006889D02*
X038647Y006889D01*
X038551Y006790D02*
X039303Y006790D01*
X039303Y006692D02*
X038159Y006692D01*
X038061Y006593D02*
X039303Y006593D01*
X039303Y006495D02*
X037962Y006495D01*
X038549Y006396D02*
X039303Y006396D01*
X039303Y006298D02*
X038646Y006298D01*
X038687Y006199D02*
X039303Y006199D01*
X039303Y006101D02*
X038701Y006101D01*
X038694Y006002D02*
X039303Y006002D01*
X039303Y005904D02*
X038653Y005904D01*
X038566Y005805D02*
X039303Y005805D01*
X039303Y005707D02*
X038174Y005707D01*
X038523Y005411D02*
X039303Y005411D01*
X039303Y005313D02*
X038633Y005313D01*
X038681Y005214D02*
X039303Y005214D01*
X039303Y005116D02*
X038701Y005116D01*
X038700Y005017D02*
X039303Y005017D01*
X039303Y004919D02*
X038659Y004919D01*
X038581Y004820D02*
X039303Y004820D01*
X039303Y004722D02*
X038493Y004722D01*
X038493Y004623D02*
X039303Y004623D01*
X039303Y004525D02*
X038492Y004525D01*
X038394Y004426D02*
X039303Y004426D01*
X039303Y004328D02*
X038295Y004328D01*
X038197Y004229D02*
X039303Y004229D01*
X039303Y004131D02*
X038098Y004131D01*
X038000Y004032D02*
X039303Y004032D01*
X039303Y003934D02*
X037901Y003934D01*
X037803Y003835D02*
X039303Y003835D01*
X039303Y003737D02*
X037704Y003737D01*
X037606Y003638D02*
X039303Y003638D01*
X039303Y003540D02*
X037507Y003540D01*
X037409Y003441D02*
X039303Y003441D01*
X039303Y003343D02*
X037310Y003343D01*
X037212Y003244D02*
X039303Y003244D01*
X039303Y003146D02*
X036743Y003146D01*
X036743Y003047D02*
X039303Y003047D01*
X039303Y002949D02*
X036743Y002949D01*
X036743Y002850D02*
X039303Y002850D01*
X039303Y002752D02*
X036743Y002752D01*
X036743Y002653D02*
X039303Y002653D01*
X039303Y002555D02*
X036743Y002555D01*
X036703Y002456D02*
X039303Y002456D01*
X039303Y002358D02*
X038378Y002358D01*
X038246Y002412D02*
X037920Y002412D01*
X037619Y002287D01*
X037388Y002057D01*
X037388Y002057D01*
X037263Y001755D01*
X037263Y001429D01*
X037388Y001128D01*
X037388Y001128D01*
X037619Y000897D01*
X037920Y000772D01*
X038046Y000772D01*
X038246Y000772D01*
X038548Y000897D01*
X038778Y001128D01*
X038903Y001429D01*
X038903Y001755D01*
X038778Y002057D01*
X038548Y002287D01*
X038548Y002287D01*
X038246Y002412D01*
X038576Y002259D02*
X039303Y002259D01*
X039303Y002161D02*
X038674Y002161D01*
X038773Y002062D02*
X039303Y002062D01*
X039303Y001964D02*
X038817Y001964D01*
X038778Y002057D02*
X038778Y002057D01*
X038858Y001865D02*
X039303Y001865D01*
X039303Y001767D02*
X038899Y001767D01*
X038903Y001668D02*
X039303Y001668D01*
X039303Y001570D02*
X038903Y001570D01*
X038903Y001471D02*
X039303Y001471D01*
X039303Y001373D02*
X038880Y001373D01*
X038839Y001274D02*
X039303Y001274D01*
X039303Y001176D02*
X038798Y001176D01*
X038778Y001128D02*
X038778Y001128D01*
X038728Y001077D02*
X039303Y001077D01*
X039303Y000979D02*
X038629Y000979D01*
X038548Y000897D02*
X038548Y000897D01*
X038507Y000880D02*
X039303Y000880D01*
X039303Y000782D02*
X038269Y000782D01*
X037897Y000782D02*
X002269Y000782D01*
X002246Y000772D02*
X002548Y000897D01*
X002778Y001128D01*
X002903Y001429D01*
X002903Y001755D01*
X002778Y002057D01*
X002548Y002287D01*
X002548Y002287D01*
X002246Y002412D01*
X001920Y002412D01*
X001619Y002287D01*
X001388Y002057D01*
X001263Y001755D01*
X001263Y001429D01*
X001388Y001128D01*
X001388Y001128D01*
X001619Y000897D01*
X001920Y000772D01*
X002046Y000772D01*
X002246Y000772D01*
X002507Y000880D02*
X037659Y000880D01*
X037619Y000897D02*
X037619Y000897D01*
X037537Y000979D02*
X024916Y000979D01*
X024906Y000975D02*
X025041Y001031D01*
X025145Y001134D01*
X025201Y001269D01*
X025201Y001415D01*
X025145Y001550D01*
X025041Y001654D01*
X024906Y001710D01*
X024760Y001710D01*
X024625Y001654D01*
X024522Y001550D01*
X024466Y001415D01*
X024466Y001282D01*
X020662Y001282D01*
X020428Y001516D01*
X020451Y001539D01*
X020451Y002145D01*
X020386Y002210D01*
X019780Y002210D01*
X019716Y002145D01*
X019716Y001539D01*
X019780Y001475D01*
X019932Y001475D01*
X020393Y001013D01*
X020505Y000902D01*
X024662Y000902D01*
X024742Y000982D01*
X024760Y000975D01*
X024906Y000975D01*
X024751Y000979D02*
X024739Y000979D01*
X025088Y001077D02*
X037439Y001077D01*
X037368Y001176D02*
X025162Y001176D01*
X025201Y001274D02*
X028624Y001274D01*
X028520Y001373D02*
X025201Y001373D01*
X025178Y001471D02*
X028473Y001471D01*
X028453Y001570D02*
X025126Y001570D01*
X025007Y001668D02*
X028454Y001668D01*
X028495Y001767D02*
X023450Y001767D01*
X023451Y001769D02*
X023395Y001634D01*
X023291Y001531D01*
X023156Y001475D01*
X023010Y001475D01*
X022875Y001531D01*
X022772Y001634D01*
X022716Y001769D01*
X022716Y001915D01*
X022772Y002050D01*
X022875Y002154D01*
X023010Y002210D01*
X023156Y002210D01*
X023291Y002154D01*
X023395Y002050D01*
X023451Y001915D01*
X023451Y001769D01*
X023451Y001865D02*
X028573Y001865D01*
X028660Y002259D02*
X025201Y002259D01*
X025201Y002161D02*
X030926Y002161D01*
X030827Y002062D02*
X025201Y002062D01*
X025201Y002039D02*
X025201Y002645D01*
X025136Y002710D01*
X024692Y002710D01*
X024400Y003002D01*
X022650Y003002D01*
X022403Y003248D01*
X022403Y003938D01*
X022339Y004002D01*
X021928Y004002D01*
X021863Y003938D01*
X021863Y003247D01*
X021928Y003182D01*
X022017Y003182D01*
X022423Y002776D01*
X022517Y002682D01*
X024267Y002682D01*
X024466Y002483D01*
X024466Y002039D01*
X024530Y001975D01*
X025136Y001975D01*
X025201Y002039D01*
X025201Y002358D02*
X028535Y002358D01*
X028479Y002456D02*
X025201Y002456D01*
X025201Y002555D02*
X028453Y002555D01*
X028453Y002653D02*
X025193Y002653D01*
X024650Y002752D02*
X028489Y002752D01*
X028558Y002850D02*
X024552Y002850D01*
X024453Y002949D02*
X028717Y002949D01*
X028697Y003244D02*
X022408Y003244D01*
X022403Y003343D02*
X028550Y003343D01*
X028485Y003441D02*
X022403Y003441D01*
X022403Y003540D02*
X028453Y003540D01*
X028453Y003638D02*
X022403Y003638D01*
X022403Y003737D02*
X028483Y003737D01*
X028543Y003835D02*
X022403Y003835D01*
X022403Y003934D02*
X028681Y003934D01*
X028733Y004229D02*
X028093Y004229D01*
X028191Y004328D02*
X028565Y004328D01*
X029486Y003934D02*
X030199Y003934D01*
X030297Y004032D02*
X014633Y004032D01*
X014633Y003934D02*
X014722Y003934D01*
X014903Y003934D02*
X014963Y003934D01*
X014963Y003942D02*
X014963Y003572D01*
X015243Y003572D01*
X015243Y003812D01*
X015233Y003850D01*
X015213Y003884D01*
X015185Y003912D01*
X015151Y003932D01*
X015113Y003942D01*
X014963Y003942D01*
X014963Y003835D02*
X014903Y003835D01*
X014903Y003737D02*
X014963Y003737D01*
X014963Y003638D02*
X014903Y003638D01*
X014903Y003540D02*
X010431Y003540D01*
X010431Y003638D02*
X014623Y003638D01*
X014623Y003737D02*
X014600Y003737D01*
X014313Y003737D02*
X014253Y003737D01*
X014253Y003835D02*
X014313Y003835D01*
X014313Y003934D02*
X014253Y003934D01*
X014253Y004022D02*
X013933Y004022D01*
X013933Y004172D01*
X013944Y004210D01*
X013963Y004244D01*
X013991Y004272D01*
X014025Y004292D01*
X014064Y004302D01*
X014253Y004302D01*
X014253Y004022D01*
X014253Y004032D02*
X014313Y004032D01*
X014313Y004131D02*
X014253Y004131D01*
X014253Y004229D02*
X014313Y004229D01*
X014032Y004328D02*
X012340Y004328D01*
X012403Y004229D02*
X013955Y004229D01*
X013933Y004131D02*
X012431Y004131D01*
X012431Y004032D02*
X013933Y004032D01*
X013933Y003934D02*
X012394Y003934D01*
X012318Y003835D02*
X013933Y003835D01*
X013967Y003737D02*
X010431Y003737D01*
X010431Y003835D02*
X011848Y003835D01*
X011913Y003441D02*
X010431Y003441D01*
X010431Y003309D02*
X010367Y003244D01*
X010313Y003244D01*
X010313Y003146D02*
X011699Y003146D01*
X011697Y003047D02*
X010313Y003047D01*
X010313Y002949D02*
X011723Y002949D01*
X011779Y002850D02*
X010313Y002850D01*
X010313Y002752D02*
X011895Y002752D01*
X012064Y002752D02*
X012102Y002752D01*
X012102Y002850D02*
X012064Y002850D01*
X012064Y002949D02*
X012102Y002949D01*
X012102Y003047D02*
X012064Y003047D01*
X012102Y003111D02*
X012471Y003111D01*
X012471Y003130D01*
X012456Y003205D01*
X012427Y003276D01*
X012385Y003339D01*
X012331Y003393D01*
X012267Y003436D01*
X012196Y003465D01*
X012122Y003480D01*
X012102Y003480D01*
X012102Y003111D01*
X012102Y003146D02*
X012064Y003146D01*
X012064Y003244D02*
X012102Y003244D01*
X012102Y003343D02*
X012064Y003343D01*
X012064Y003441D02*
X012102Y003441D01*
X012254Y003441D02*
X014623Y003441D01*
X014623Y003343D02*
X012381Y003343D01*
X012440Y003244D02*
X014631Y003244D01*
X014740Y003146D02*
X012468Y003146D01*
X012470Y003047D02*
X015973Y003047D01*
X015973Y002949D02*
X012444Y002949D01*
X012388Y002850D02*
X015973Y002850D01*
X015973Y002752D02*
X012272Y002752D01*
X013139Y002115D02*
X013187Y002181D01*
X013245Y002239D01*
X013311Y002287D01*
X013384Y002324D01*
X013462Y002349D01*
X013542Y002362D01*
X013553Y002362D01*
X013553Y001872D01*
X013553Y001812D01*
X013063Y001812D01*
X013063Y001801D01*
X013076Y001720D01*
X013101Y001643D01*
X013139Y001570D01*
X002903Y001570D01*
X002903Y001668D02*
X013093Y001668D01*
X013069Y001767D02*
X002899Y001767D01*
X002858Y001865D02*
X013553Y001865D01*
X013553Y001872D02*
X013063Y001872D01*
X013063Y001883D01*
X013076Y001964D01*
X013101Y002042D01*
X013139Y002115D01*
X013172Y002161D02*
X010227Y002161D01*
X010313Y002259D02*
X013273Y002259D01*
X013112Y002062D02*
X002773Y002062D01*
X002778Y002057D02*
X002778Y002057D01*
X002817Y001964D02*
X013076Y001964D01*
X013553Y001964D02*
X013613Y001964D01*
X013613Y001872D02*
X013553Y001872D01*
X013553Y001812D02*
X013613Y001812D01*
X013613Y001322D01*
X013624Y001322D01*
X013705Y001335D01*
X013783Y001360D01*
X013856Y001397D01*
X013922Y001445D01*
X013980Y001503D01*
X014028Y001570D01*
X014177Y001570D01*
X014176Y001570D02*
X014311Y001435D01*
X014488Y001362D01*
X014679Y001362D01*
X014855Y001435D01*
X014990Y001570D01*
X015037Y001682D01*
X015130Y001682D01*
X015176Y001570D01*
X015311Y001435D01*
X015488Y001362D01*
X015679Y001362D01*
X015855Y001435D01*
X015990Y001570D01*
X016063Y001747D01*
X016063Y001938D01*
X015990Y002114D01*
X015855Y002249D01*
X015679Y002322D01*
X015488Y002322D01*
X015311Y002249D01*
X015176Y002114D01*
X015130Y002002D01*
X015037Y002002D01*
X014990Y002114D01*
X014855Y002249D01*
X014679Y002322D01*
X014488Y002322D01*
X014311Y002249D01*
X014176Y002114D01*
X014103Y001938D01*
X014103Y001747D01*
X014176Y001570D01*
X014136Y001668D02*
X014074Y001668D01*
X014065Y001643D02*
X014091Y001720D01*
X014103Y001801D01*
X014103Y001812D01*
X013613Y001812D01*
X013613Y001872D01*
X013613Y002362D01*
X013624Y002362D01*
X013705Y002349D01*
X013783Y002324D01*
X013856Y002287D01*
X013922Y002239D01*
X013980Y002181D01*
X014028Y002115D01*
X014065Y002042D01*
X014091Y001964D01*
X014103Y001883D01*
X014103Y001872D01*
X013613Y001872D01*
X013613Y001865D02*
X014103Y001865D01*
X014098Y001767D02*
X014103Y001767D01*
X014065Y001643D02*
X014028Y001570D01*
X013948Y001471D02*
X014276Y001471D01*
X014462Y001373D02*
X013807Y001373D01*
X013613Y001373D02*
X013553Y001373D01*
X013553Y001322D02*
X013553Y001812D01*
X013553Y001767D02*
X013613Y001767D01*
X013613Y001668D02*
X013553Y001668D01*
X013553Y001570D02*
X013613Y001570D01*
X013613Y001471D02*
X013553Y001471D01*
X013542Y001322D02*
X013553Y001322D01*
X013542Y001322D02*
X013462Y001335D01*
X013384Y001360D01*
X013311Y001397D01*
X013245Y001445D01*
X013187Y001503D01*
X013139Y001570D01*
X013219Y001471D02*
X002903Y001471D01*
X002880Y001373D02*
X013359Y001373D01*
X014583Y001842D02*
X015583Y001842D01*
X015136Y001668D02*
X015031Y001668D01*
X014990Y001570D02*
X015177Y001570D01*
X015276Y001471D02*
X014891Y001471D01*
X014704Y001373D02*
X015462Y001373D01*
X015704Y001373D02*
X017077Y001373D01*
X017175Y001274D02*
X002839Y001274D01*
X002798Y001176D02*
X017274Y001176D01*
X017372Y001077D02*
X002728Y001077D01*
X002778Y001128D02*
X002778Y001128D01*
X002629Y000979D02*
X017471Y000979D01*
X017517Y000932D02*
X017423Y001026D01*
X015973Y002476D01*
X015973Y003182D01*
X015928Y003182D01*
X015863Y003247D01*
X015863Y003938D01*
X015928Y004002D01*
X016339Y004002D01*
X016403Y003938D01*
X016403Y003247D01*
X016339Y003182D01*
X016293Y003182D01*
X016293Y002608D01*
X017650Y001252D01*
X017767Y001252D01*
X018150Y001635D01*
X018103Y001747D01*
X018103Y001938D01*
X018176Y002114D01*
X018311Y002249D01*
X018488Y002322D01*
X018679Y002322D01*
X018791Y002276D01*
X019267Y002752D01*
X020017Y002752D01*
X020173Y002908D01*
X020173Y003182D01*
X020128Y003182D01*
X020063Y003247D01*
X020063Y003938D01*
X020128Y004002D01*
X020539Y004002D01*
X020603Y003938D01*
X020603Y003247D01*
X020539Y003182D01*
X020493Y003182D01*
X020493Y002776D01*
X020243Y002526D01*
X020150Y002432D01*
X019400Y002432D01*
X019017Y002050D01*
X019063Y001938D01*
X019063Y001747D01*
X018990Y001570D01*
X018855Y001435D01*
X018679Y001362D01*
X018488Y001362D01*
X018376Y001408D01*
X017900Y000932D01*
X017517Y000932D01*
X017583Y001092D02*
X017833Y001092D01*
X018583Y001842D01*
X019333Y002592D01*
X020083Y002592D01*
X020333Y002842D01*
X020333Y003592D01*
X020063Y003638D02*
X020003Y003638D01*
X020003Y003540D02*
X020063Y003540D01*
X020063Y003441D02*
X020003Y003441D01*
X020003Y003343D02*
X020063Y003343D01*
X020066Y003244D02*
X020001Y003244D01*
X020003Y003247D02*
X020003Y003938D01*
X019939Y004002D01*
X019528Y004002D01*
X019463Y003938D01*
X019463Y003247D01*
X019528Y003182D01*
X019939Y003182D01*
X020003Y003247D01*
X020173Y003146D02*
X017493Y003146D01*
X017493Y003182D02*
X017539Y003182D01*
X017603Y003247D01*
X017603Y003938D01*
X017539Y004002D01*
X017128Y004002D01*
X017063Y003938D01*
X017063Y003247D01*
X017128Y003182D01*
X017173Y003182D01*
X017173Y002630D01*
X017110Y002630D01*
X017045Y002566D01*
X017045Y002118D01*
X017110Y002054D01*
X017557Y002054D01*
X017621Y002118D01*
X017621Y002566D01*
X017557Y002630D01*
X017493Y002630D01*
X017493Y003182D01*
X017601Y003244D02*
X017666Y003244D01*
X017663Y003247D02*
X017728Y003182D01*
X018139Y003182D01*
X018203Y003247D01*
X018203Y003938D01*
X018139Y004002D01*
X017728Y004002D01*
X017663Y003938D01*
X017663Y003247D01*
X017663Y003343D02*
X017603Y003343D01*
X017603Y003441D02*
X017663Y003441D01*
X017663Y003540D02*
X017603Y003540D01*
X017603Y003638D02*
X017663Y003638D01*
X017663Y003737D02*
X017603Y003737D01*
X017603Y003835D02*
X017663Y003835D01*
X017663Y003934D02*
X017603Y003934D01*
X018203Y003934D02*
X018263Y003934D01*
X018263Y003938D02*
X018263Y003247D01*
X018328Y003182D01*
X018739Y003182D01*
X018803Y003247D01*
X018803Y003938D01*
X018739Y004002D01*
X018328Y004002D01*
X018263Y003938D01*
X018263Y003835D02*
X018203Y003835D01*
X018203Y003737D02*
X018263Y003737D01*
X018263Y003638D02*
X018203Y003638D01*
X018203Y003540D02*
X018263Y003540D01*
X018263Y003441D02*
X018203Y003441D01*
X018203Y003343D02*
X018263Y003343D01*
X018266Y003244D02*
X018201Y003244D01*
X017493Y003047D02*
X020173Y003047D01*
X020173Y002949D02*
X017493Y002949D01*
X017493Y002850D02*
X020115Y002850D01*
X020371Y002653D02*
X024296Y002653D01*
X024395Y002555D02*
X020272Y002555D01*
X020174Y002456D02*
X024466Y002456D01*
X024466Y002358D02*
X019325Y002358D01*
X019227Y002259D02*
X024466Y002259D01*
X024466Y002161D02*
X023275Y002161D01*
X023383Y002062D02*
X024466Y002062D01*
X024660Y001668D02*
X023409Y001668D01*
X023331Y001570D02*
X024541Y001570D01*
X024489Y001471D02*
X021253Y001471D01*
X021240Y001464D02*
X021297Y001494D01*
X021349Y001531D01*
X021394Y001577D01*
X021432Y001629D01*
X021461Y001686D01*
X021481Y001747D01*
X021491Y001810D01*
X021491Y001813D01*
X021112Y001813D01*
X021112Y001435D01*
X021115Y001435D01*
X021179Y001445D01*
X021240Y001464D01*
X021112Y001471D02*
X021055Y001471D01*
X021055Y001435D02*
X021055Y001813D01*
X021112Y001813D01*
X021112Y001871D01*
X021055Y001871D01*
X021055Y002250D01*
X021051Y002250D01*
X020988Y002240D01*
X020927Y002220D01*
X020870Y002191D01*
X020818Y002153D01*
X020773Y002108D01*
X020735Y002056D01*
X020706Y001999D01*
X020686Y001938D01*
X020676Y001874D01*
X020676Y001871D01*
X021055Y001871D01*
X021055Y001813D01*
X020676Y001813D01*
X020676Y001810D01*
X020686Y001747D01*
X020706Y001686D01*
X020735Y001629D01*
X020773Y001577D01*
X020818Y001531D01*
X020870Y001494D01*
X020927Y001464D01*
X020988Y001445D01*
X021051Y001435D01*
X021055Y001435D01*
X021055Y001570D02*
X021112Y001570D01*
X021112Y001668D02*
X021055Y001668D01*
X021055Y001767D02*
X021112Y001767D01*
X021112Y001865D02*
X021716Y001865D01*
X021716Y001915D02*
X021716Y001769D01*
X021772Y001634D01*
X021875Y001531D01*
X022010Y001475D01*
X022156Y001475D01*
X022291Y001531D01*
X022395Y001634D01*
X022451Y001769D01*
X022451Y001915D01*
X022395Y002050D01*
X022291Y002154D01*
X022156Y002210D01*
X022010Y002210D01*
X021875Y002154D01*
X021772Y002050D01*
X021716Y001915D01*
X021736Y001964D02*
X021472Y001964D01*
X021481Y001938D02*
X021461Y001999D01*
X021432Y002056D01*
X021394Y002108D01*
X021349Y002153D01*
X021297Y002191D01*
X021240Y002220D01*
X021179Y002240D01*
X021115Y002250D01*
X021112Y002250D01*
X021112Y001871D01*
X021491Y001871D01*
X021491Y001874D01*
X021481Y001938D01*
X021427Y002062D02*
X021784Y002062D01*
X021892Y002161D02*
X021338Y002161D01*
X021112Y002161D02*
X021055Y002161D01*
X021055Y002062D02*
X021112Y002062D01*
X021112Y001964D02*
X021055Y001964D01*
X021055Y001865D02*
X020451Y001865D01*
X020451Y001767D02*
X020683Y001767D01*
X020715Y001668D02*
X020451Y001668D01*
X020451Y001570D02*
X020780Y001570D01*
X020914Y001471D02*
X020473Y001471D01*
X020572Y001373D02*
X024466Y001373D01*
X023431Y001964D02*
X030729Y001964D01*
X030630Y001865D02*
X029594Y001865D01*
X029672Y001767D02*
X030532Y001767D01*
X030583Y001592D02*
X031083Y002092D01*
X033333Y002092D01*
X033431Y001964D02*
X033883Y001964D01*
X033883Y002062D02*
X033530Y002062D01*
X033628Y002161D02*
X033883Y002161D01*
X033883Y001767D02*
X032672Y001767D01*
X032712Y001668D02*
X033883Y001668D01*
X033883Y001570D02*
X032713Y001570D01*
X032694Y001471D02*
X033901Y001471D01*
X034283Y001471D02*
X034383Y001471D01*
X034383Y001570D02*
X034283Y001570D01*
X034283Y001668D02*
X034383Y001668D01*
X034383Y001767D02*
X034283Y001767D01*
X034283Y001865D02*
X032594Y001865D01*
X032647Y001373D02*
X037287Y001373D01*
X037263Y001471D02*
X036509Y001471D01*
X036566Y001495D02*
X036415Y001432D01*
X036252Y001432D01*
X036101Y001495D01*
X035986Y001610D01*
X035923Y001761D01*
X035923Y001924D01*
X035986Y002074D01*
X036101Y002190D01*
X036252Y002252D01*
X036415Y002252D01*
X036566Y002190D01*
X036681Y002074D01*
X036743Y001924D01*
X036743Y001761D01*
X036681Y001610D01*
X036566Y001495D01*
X036641Y001570D02*
X037263Y001570D01*
X037263Y001668D02*
X036705Y001668D01*
X036743Y001767D02*
X037268Y001767D01*
X037309Y001865D02*
X036743Y001865D01*
X036727Y001964D02*
X037350Y001964D01*
X037394Y002062D02*
X036686Y002062D01*
X036595Y002161D02*
X037492Y002161D01*
X037591Y002259D02*
X035977Y002259D01*
X035993Y002358D02*
X037789Y002358D01*
X037619Y002287D02*
X037619Y002287D01*
X036072Y002161D02*
X035595Y002161D01*
X035686Y002062D02*
X035981Y002062D01*
X035940Y001964D02*
X035727Y001964D01*
X035743Y001865D02*
X035923Y001865D01*
X035923Y001767D02*
X035743Y001767D01*
X035705Y001668D02*
X035962Y001668D01*
X036026Y001570D02*
X035641Y001570D01*
X035509Y001471D02*
X036158Y001471D01*
X037327Y001274D02*
X032542Y001274D01*
X031624Y001274D02*
X029542Y001274D01*
X029647Y001373D02*
X031520Y001373D01*
X031473Y001471D02*
X030689Y001471D01*
X030787Y001570D02*
X031453Y001570D01*
X031454Y001668D02*
X030886Y001668D01*
X030984Y001767D02*
X031495Y001767D01*
X031573Y001865D02*
X031083Y001865D01*
X030583Y001592D02*
X029083Y001592D01*
X029506Y002259D02*
X031660Y002259D01*
X030214Y002949D02*
X029450Y002949D01*
X029609Y002850D02*
X030115Y002850D01*
X030312Y003047D02*
X022605Y003047D01*
X022506Y003146D02*
X030411Y003146D01*
X030509Y003244D02*
X029470Y003244D01*
X029617Y003343D02*
X030608Y003343D01*
X030706Y003441D02*
X030159Y003441D01*
X030257Y003540D02*
X030805Y003540D01*
X030903Y003638D02*
X030356Y003638D01*
X030454Y003737D02*
X031002Y003737D01*
X031100Y003835D02*
X030553Y003835D01*
X030100Y003835D02*
X029624Y003835D01*
X030083Y003592D02*
X029083Y003592D01*
X030083Y003592D02*
X031583Y005092D01*
X032583Y005092D01*
X033333Y005842D01*
X033323Y005116D02*
X032833Y005116D01*
X032735Y005017D02*
X033360Y005017D01*
X033408Y004919D02*
X032522Y004919D01*
X032639Y004820D02*
X033506Y004820D01*
X034689Y004722D02*
X036161Y004722D01*
X036010Y004820D02*
X034788Y004820D01*
X034886Y004919D02*
X035927Y004919D01*
X035877Y005017D02*
X034985Y005017D01*
X035083Y005116D02*
X035851Y005116D01*
X036413Y005214D02*
X037045Y005214D01*
X037048Y005116D02*
X036876Y005116D01*
X036850Y005017D02*
X037173Y005017D01*
X037173Y004919D02*
X036800Y004919D01*
X036717Y004820D02*
X037085Y004820D01*
X037341Y004623D02*
X038138Y004623D01*
X038173Y004722D02*
X037439Y004722D01*
X037242Y004525D02*
X038040Y004525D01*
X037941Y004426D02*
X037144Y004426D01*
X037045Y004328D02*
X037843Y004328D01*
X037744Y004229D02*
X036947Y004229D01*
X036848Y004131D02*
X037646Y004131D01*
X037547Y004032D02*
X036750Y004032D01*
X036651Y003934D02*
X037449Y003934D01*
X037350Y003835D02*
X036553Y003835D01*
X036454Y003737D02*
X037252Y003737D01*
X034509Y003244D02*
X034434Y003244D01*
X034783Y002161D02*
X035072Y002161D01*
X034981Y002062D02*
X034783Y002062D01*
X034783Y001964D02*
X034940Y001964D01*
X034923Y001865D02*
X034383Y001865D01*
X034783Y001767D02*
X034923Y001767D01*
X034962Y001668D02*
X034783Y001668D01*
X034783Y001570D02*
X035026Y001570D01*
X035158Y001471D02*
X034766Y001471D01*
X039303Y000683D02*
X000833Y000683D01*
X000833Y000585D02*
X039303Y000585D01*
X039303Y000486D02*
X000833Y000486D01*
X000833Y000388D02*
X039303Y000388D01*
X039303Y000342D02*
X000833Y000342D01*
X000833Y016092D01*
X039303Y016092D01*
X039303Y000342D01*
X030790Y004525D02*
X029992Y004525D01*
X030091Y004623D02*
X030888Y004623D01*
X030987Y004722D02*
X030189Y004722D01*
X030288Y004820D02*
X031085Y004820D01*
X026673Y005017D02*
X014693Y005017D01*
X013973Y005116D02*
X012313Y005116D01*
X012287Y005214D02*
X013973Y005214D01*
X013973Y005313D02*
X012188Y005313D01*
X012090Y005411D02*
X013987Y005411D01*
X014693Y005608D02*
X017049Y005608D01*
X016950Y005707D02*
X014693Y005707D01*
X014693Y005805D02*
X016852Y005805D01*
X016753Y005904D02*
X014693Y005904D01*
X014689Y006002D02*
X016655Y006002D01*
X016897Y006298D02*
X021373Y006298D01*
X021373Y006396D02*
X016798Y006396D01*
X016700Y006495D02*
X021373Y006495D01*
X021373Y006593D02*
X016601Y006593D01*
X016503Y006692D02*
X021373Y006692D01*
X021373Y006790D02*
X016404Y006790D01*
X016306Y006889D02*
X021373Y006889D01*
X021373Y006987D02*
X016207Y006987D01*
X016109Y007086D02*
X021373Y007086D01*
X021373Y007184D02*
X016010Y007184D01*
X015912Y007282D02*
X015912Y007282D01*
X015912Y007283D02*
X021373Y007283D01*
X021373Y007381D02*
X015813Y007381D01*
X015773Y007480D02*
X021373Y007480D01*
X021373Y007578D02*
X015773Y007578D01*
X015773Y007677D02*
X021373Y007677D01*
X021373Y007775D02*
X015773Y007775D01*
X015773Y007874D02*
X021373Y007874D01*
X021373Y007972D02*
X015773Y007972D01*
X015773Y008071D02*
X021373Y008071D01*
X021373Y008169D02*
X015773Y008169D01*
X015803Y008268D02*
X015863Y008268D01*
X015863Y008247D02*
X015928Y008182D01*
X016339Y008182D01*
X016403Y008247D01*
X016403Y008938D01*
X016339Y009002D01*
X016243Y009002D01*
X016243Y009542D01*
X016660Y009542D01*
X016706Y009430D01*
X016841Y009295D01*
X017018Y009222D01*
X017209Y009222D01*
X017385Y009295D01*
X017520Y009430D01*
X017593Y009607D01*
X017593Y009798D01*
X017520Y009974D01*
X017385Y010109D01*
X017209Y010182D01*
X017018Y010182D01*
X016841Y010109D01*
X016706Y009974D01*
X016660Y009862D01*
X016017Y009862D01*
X015923Y009768D01*
X015923Y008998D01*
X015863Y008938D01*
X015863Y008247D01*
X015863Y008366D02*
X015803Y008366D01*
X015803Y008465D02*
X015863Y008465D01*
X015863Y008563D02*
X015803Y008563D01*
X015803Y008662D02*
X015863Y008662D01*
X015863Y008760D02*
X015803Y008760D01*
X015803Y008859D02*
X015863Y008859D01*
X015883Y008957D02*
X015784Y008957D01*
X015773Y009056D02*
X015923Y009056D01*
X015923Y009154D02*
X015773Y009154D01*
X015773Y009253D02*
X015923Y009253D01*
X015923Y009351D02*
X015773Y009351D01*
X015773Y009450D02*
X015923Y009450D01*
X015923Y009548D02*
X015773Y009548D01*
X015773Y009647D02*
X015923Y009647D01*
X015923Y009745D02*
X015773Y009745D01*
X015773Y009844D02*
X015999Y009844D01*
X016083Y009702D02*
X016083Y008592D01*
X016403Y008563D02*
X016463Y008563D01*
X016463Y008465D02*
X016403Y008465D01*
X016403Y008366D02*
X016463Y008366D01*
X016463Y008268D02*
X016403Y008268D01*
X016463Y008247D02*
X016528Y008182D01*
X016939Y008182D01*
X017003Y008247D01*
X017003Y008938D01*
X016939Y009002D01*
X016528Y009002D01*
X016463Y008938D01*
X016463Y008247D01*
X017003Y008268D02*
X017063Y008268D01*
X017063Y008247D02*
X017128Y008182D01*
X017539Y008182D01*
X017603Y008247D01*
X017603Y008938D01*
X017539Y009002D01*
X017128Y009002D01*
X017063Y008938D01*
X017063Y008247D01*
X017063Y008366D02*
X017003Y008366D01*
X017003Y008465D02*
X017063Y008465D01*
X017063Y008563D02*
X017003Y008563D01*
X017003Y008662D02*
X017063Y008662D01*
X017063Y008760D02*
X017003Y008760D01*
X017003Y008859D02*
X017063Y008859D01*
X017083Y008957D02*
X016984Y008957D01*
X016483Y008957D02*
X016384Y008957D01*
X016403Y008859D02*
X016463Y008859D01*
X016463Y008760D02*
X016403Y008760D01*
X016403Y008662D02*
X016463Y008662D01*
X016243Y009056D02*
X021423Y009056D01*
X021423Y009154D02*
X016243Y009154D01*
X016243Y009253D02*
X016944Y009253D01*
X016785Y009351D02*
X016243Y009351D01*
X016243Y009450D02*
X016698Y009450D01*
X017113Y009702D02*
X016083Y009702D01*
X015773Y009942D02*
X016693Y009942D01*
X016773Y010041D02*
X015773Y010041D01*
X015773Y010139D02*
X016914Y010139D01*
X017313Y010139D02*
X018603Y010139D01*
X018603Y010041D02*
X017454Y010041D01*
X017533Y009942D02*
X018626Y009942D01*
X018667Y009844D02*
X017574Y009844D01*
X017593Y009745D02*
X018751Y009745D01*
X018905Y009647D02*
X017593Y009647D01*
X017569Y009548D02*
X021401Y009548D01*
X021423Y009450D02*
X017528Y009450D01*
X017441Y009351D02*
X021423Y009351D01*
X021423Y009253D02*
X017282Y009253D01*
X017663Y008938D02*
X017728Y009002D01*
X018139Y009002D01*
X018203Y008938D01*
X018203Y008247D01*
X018139Y008182D01*
X017728Y008182D01*
X017663Y008247D01*
X017663Y008938D01*
X017683Y008957D02*
X017584Y008957D01*
X017603Y008859D02*
X017663Y008859D01*
X017663Y008760D02*
X017603Y008760D01*
X017603Y008662D02*
X017663Y008662D01*
X017663Y008563D02*
X017603Y008563D01*
X017603Y008465D02*
X017663Y008465D01*
X017663Y008366D02*
X017603Y008366D01*
X017603Y008268D02*
X017663Y008268D01*
X018203Y008268D02*
X018263Y008268D01*
X018263Y008247D02*
X018328Y008182D01*
X018739Y008182D01*
X018803Y008247D01*
X018803Y008938D01*
X018739Y009002D01*
X018328Y009002D01*
X018263Y008938D01*
X018263Y008247D01*
X018263Y008366D02*
X018203Y008366D01*
X018203Y008465D02*
X018263Y008465D01*
X018263Y008563D02*
X018203Y008563D01*
X018203Y008662D02*
X018263Y008662D01*
X018263Y008760D02*
X018203Y008760D01*
X018203Y008859D02*
X018263Y008859D01*
X018283Y008957D02*
X018184Y008957D01*
X018784Y008957D02*
X018883Y008957D01*
X018863Y008938D02*
X018863Y008247D01*
X018928Y008182D01*
X019339Y008182D01*
X019403Y008247D01*
X019403Y008938D01*
X019339Y009002D01*
X018928Y009002D01*
X018863Y008938D01*
X018863Y008859D02*
X018803Y008859D01*
X018803Y008760D02*
X018863Y008760D01*
X018863Y008662D02*
X018803Y008662D01*
X018803Y008563D02*
X018863Y008563D01*
X018863Y008465D02*
X018803Y008465D01*
X018803Y008366D02*
X018863Y008366D01*
X018863Y008268D02*
X018803Y008268D01*
X019403Y008268D02*
X019463Y008268D01*
X019463Y008247D02*
X019528Y008182D01*
X019939Y008182D01*
X020003Y008247D01*
X020003Y008938D01*
X019939Y009002D01*
X019528Y009002D01*
X019463Y008938D01*
X019463Y008247D01*
X019463Y008366D02*
X019403Y008366D01*
X019403Y008465D02*
X019463Y008465D01*
X019463Y008563D02*
X019403Y008563D01*
X019403Y008662D02*
X019463Y008662D01*
X019463Y008760D02*
X019403Y008760D01*
X019403Y008859D02*
X019463Y008859D01*
X019483Y008957D02*
X019384Y008957D01*
X019984Y008957D02*
X020083Y008957D01*
X020063Y008938D02*
X020063Y008247D01*
X020128Y008182D01*
X020539Y008182D01*
X020603Y008247D01*
X020603Y008938D01*
X020539Y009002D01*
X020128Y009002D01*
X020063Y008938D01*
X020063Y008859D02*
X020003Y008859D01*
X020003Y008760D02*
X020063Y008760D01*
X020063Y008662D02*
X020003Y008662D01*
X020003Y008563D02*
X020063Y008563D01*
X020063Y008465D02*
X020003Y008465D01*
X020003Y008366D02*
X020063Y008366D01*
X020063Y008268D02*
X020003Y008268D01*
X020603Y008268D02*
X020663Y008268D01*
X020663Y008247D02*
X020728Y008182D01*
X021139Y008182D01*
X021203Y008247D01*
X021203Y008938D01*
X021139Y009002D01*
X020728Y009002D01*
X020663Y008938D01*
X020663Y008247D01*
X020663Y008366D02*
X020603Y008366D01*
X020603Y008465D02*
X020663Y008465D01*
X020663Y008563D02*
X020603Y008563D01*
X020603Y008662D02*
X020663Y008662D01*
X020663Y008760D02*
X020603Y008760D01*
X020603Y008859D02*
X020663Y008859D01*
X020683Y008957D02*
X020584Y008957D01*
X021184Y008957D02*
X021283Y008957D01*
X021263Y008859D02*
X021203Y008859D01*
X021203Y008760D02*
X021263Y008760D01*
X021263Y008662D02*
X021203Y008662D01*
X021203Y008563D02*
X021263Y008563D01*
X021263Y008465D02*
X021203Y008465D01*
X021203Y008366D02*
X021263Y008366D01*
X021263Y008268D02*
X021203Y008268D01*
X021693Y008169D02*
X021973Y008169D01*
X021973Y008071D02*
X021693Y008071D01*
X021693Y007972D02*
X021973Y007972D01*
X021973Y007874D02*
X021693Y007874D01*
X021693Y007775D02*
X021973Y007775D01*
X021973Y007677D02*
X021693Y007677D01*
X021693Y007578D02*
X021973Y007578D01*
X021973Y007480D02*
X021693Y007480D01*
X021693Y007381D02*
X021973Y007381D01*
X021973Y007283D02*
X021693Y007283D01*
X021693Y007184D02*
X021973Y007184D01*
X021973Y007086D02*
X021693Y007086D01*
X021693Y006987D02*
X021973Y006987D01*
X022061Y006889D02*
X021693Y006889D01*
X021693Y006790D02*
X022159Y006790D01*
X022258Y006692D02*
X021693Y006692D01*
X021693Y006593D02*
X022295Y006593D01*
X022295Y006495D02*
X021693Y006495D01*
X021693Y006396D02*
X022295Y006396D01*
X021693Y006298D02*
X025708Y006298D01*
X025515Y006199D02*
X021693Y006199D01*
X021693Y006101D02*
X025425Y006101D01*
X025369Y006002D02*
X021693Y006002D01*
X021693Y005904D02*
X025342Y005904D01*
X026673Y005214D02*
X022121Y005214D01*
X022119Y005116D02*
X026673Y005116D01*
X024333Y002842D02*
X022583Y002842D01*
X022133Y003292D01*
X022133Y003592D01*
X021863Y003638D02*
X021803Y003638D01*
X021803Y003540D02*
X021863Y003540D01*
X021863Y003441D02*
X021803Y003441D01*
X021803Y003343D02*
X021863Y003343D01*
X021866Y003244D02*
X021801Y003244D01*
X021803Y003247D02*
X021803Y003938D01*
X021739Y004002D01*
X021328Y004002D01*
X021263Y003938D01*
X021263Y003247D01*
X021328Y003182D01*
X021739Y003182D01*
X021803Y003247D01*
X022054Y003146D02*
X020493Y003146D01*
X020493Y003047D02*
X022152Y003047D01*
X022251Y002949D02*
X020493Y002949D01*
X020493Y002850D02*
X022349Y002850D01*
X022448Y002752D02*
X020469Y002752D01*
X020728Y003182D02*
X021139Y003182D01*
X021203Y003247D01*
X021203Y003938D01*
X021139Y004002D01*
X020728Y004002D01*
X020663Y003938D01*
X020663Y003247D01*
X020728Y003182D01*
X020666Y003244D02*
X020601Y003244D01*
X020603Y003343D02*
X020663Y003343D01*
X020663Y003441D02*
X020603Y003441D01*
X020603Y003540D02*
X020663Y003540D01*
X020663Y003638D02*
X020603Y003638D01*
X020603Y003737D02*
X020663Y003737D01*
X020663Y003835D02*
X020603Y003835D01*
X020603Y003934D02*
X020663Y003934D01*
X021203Y003934D02*
X021263Y003934D01*
X021263Y003835D02*
X021203Y003835D01*
X021203Y003737D02*
X021263Y003737D01*
X021263Y003638D02*
X021203Y003638D01*
X021203Y003540D02*
X021263Y003540D01*
X021263Y003441D02*
X021203Y003441D01*
X021203Y003343D02*
X021263Y003343D01*
X021266Y003244D02*
X021201Y003244D01*
X021803Y003737D02*
X021863Y003737D01*
X021863Y003835D02*
X021803Y003835D01*
X021803Y003934D02*
X021863Y003934D01*
X020063Y003934D02*
X020003Y003934D01*
X020003Y003835D02*
X020063Y003835D01*
X020063Y003737D02*
X020003Y003737D01*
X019463Y003737D02*
X019403Y003737D01*
X019403Y003835D02*
X019463Y003835D01*
X019463Y003934D02*
X019403Y003934D01*
X019403Y003938D02*
X019339Y004002D01*
X018928Y004002D01*
X018863Y003938D01*
X018863Y003247D01*
X018928Y003182D01*
X019339Y003182D01*
X019403Y003247D01*
X019403Y003938D01*
X018863Y003934D02*
X018803Y003934D01*
X018803Y003835D02*
X018863Y003835D01*
X018863Y003737D02*
X018803Y003737D01*
X018803Y003638D02*
X018863Y003638D01*
X018863Y003540D02*
X018803Y003540D01*
X018803Y003441D02*
X018863Y003441D01*
X018863Y003343D02*
X018803Y003343D01*
X018801Y003244D02*
X018866Y003244D01*
X019401Y003244D02*
X019466Y003244D01*
X019463Y003343D02*
X019403Y003343D01*
X019403Y003441D02*
X019463Y003441D01*
X019463Y003540D02*
X019403Y003540D01*
X019403Y003638D02*
X019463Y003638D01*
X019267Y002752D02*
X017493Y002752D01*
X017493Y002653D02*
X019168Y002653D01*
X019070Y002555D02*
X017621Y002555D01*
X017621Y002456D02*
X018971Y002456D01*
X018873Y002358D02*
X017621Y002358D01*
X017621Y002259D02*
X018336Y002259D01*
X018223Y002161D02*
X017621Y002161D01*
X017565Y002062D02*
X018155Y002062D01*
X018114Y001964D02*
X016938Y001964D01*
X016840Y002062D02*
X017102Y002062D01*
X017045Y002161D02*
X016741Y002161D01*
X016643Y002259D02*
X017045Y002259D01*
X017045Y002358D02*
X016544Y002358D01*
X016446Y002456D02*
X017045Y002456D01*
X017045Y002555D02*
X016347Y002555D01*
X016293Y002653D02*
X017173Y002653D01*
X017173Y002752D02*
X016293Y002752D01*
X016293Y002850D02*
X017173Y002850D01*
X017173Y002949D02*
X016293Y002949D01*
X016293Y003047D02*
X017173Y003047D01*
X017173Y003146D02*
X016293Y003146D01*
X016401Y003244D02*
X016466Y003244D01*
X016463Y003247D02*
X016528Y003182D01*
X016939Y003182D01*
X017003Y003247D01*
X017003Y003938D01*
X016939Y004002D01*
X016528Y004002D01*
X016463Y003938D01*
X016463Y003247D01*
X016463Y003343D02*
X016403Y003343D01*
X016403Y003441D02*
X016463Y003441D01*
X016463Y003540D02*
X016403Y003540D01*
X016403Y003638D02*
X016463Y003638D01*
X016463Y003737D02*
X016403Y003737D01*
X016403Y003835D02*
X016463Y003835D01*
X016463Y003934D02*
X016403Y003934D01*
X017003Y003934D02*
X017063Y003934D01*
X017063Y003835D02*
X017003Y003835D01*
X017003Y003737D02*
X017063Y003737D01*
X017063Y003638D02*
X017003Y003638D01*
X017003Y003540D02*
X017063Y003540D01*
X017063Y003441D02*
X017003Y003441D01*
X017003Y003343D02*
X017063Y003343D01*
X017066Y003244D02*
X017001Y003244D01*
X017333Y003592D02*
X017333Y002342D01*
X016486Y001964D02*
X016053Y001964D01*
X016063Y001865D02*
X016584Y001865D01*
X016683Y001767D02*
X016063Y001767D01*
X016031Y001668D02*
X016781Y001668D01*
X016880Y001570D02*
X015990Y001570D01*
X015891Y001471D02*
X016978Y001471D01*
X017234Y001668D02*
X018136Y001668D01*
X018103Y001767D02*
X017135Y001767D01*
X017037Y001865D02*
X018103Y001865D01*
X018085Y001570D02*
X017332Y001570D01*
X017431Y001471D02*
X017986Y001471D01*
X017888Y001373D02*
X017529Y001373D01*
X017628Y001274D02*
X017789Y001274D01*
X017583Y001092D02*
X016133Y002542D01*
X016133Y003592D01*
X015863Y003638D02*
X015803Y003638D01*
X015803Y003540D02*
X015863Y003540D01*
X015863Y003441D02*
X015803Y003441D01*
X015803Y003343D02*
X015863Y003343D01*
X015866Y003244D02*
X015801Y003244D01*
X015803Y003247D02*
X015803Y003938D01*
X015739Y004002D01*
X015328Y004002D01*
X015263Y003938D01*
X015263Y003247D01*
X015328Y003182D01*
X015739Y003182D01*
X015803Y003247D01*
X015973Y003146D02*
X015126Y003146D01*
X015236Y003244D02*
X015266Y003244D01*
X015263Y003343D02*
X015243Y003343D01*
X015243Y003441D02*
X015263Y003441D01*
X015263Y003540D02*
X014963Y003540D01*
X014963Y003441D02*
X014903Y003441D01*
X014903Y003343D02*
X014963Y003343D01*
X014963Y003244D02*
X014903Y003244D01*
X014903Y003146D02*
X014963Y003146D01*
X015243Y003638D02*
X015263Y003638D01*
X015263Y003737D02*
X015243Y003737D01*
X015237Y003835D02*
X015263Y003835D01*
X015263Y003934D02*
X015145Y003934D01*
X015803Y003934D02*
X015863Y003934D01*
X015863Y003835D02*
X015803Y003835D01*
X015803Y003737D02*
X015863Y003737D01*
X015973Y002653D02*
X010313Y002653D01*
X010313Y002555D02*
X015973Y002555D01*
X015993Y002456D02*
X010313Y002456D01*
X010313Y002358D02*
X013514Y002358D01*
X013553Y002358D02*
X013613Y002358D01*
X013653Y002358D02*
X016092Y002358D01*
X016190Y002259D02*
X015831Y002259D01*
X015944Y002161D02*
X016289Y002161D01*
X016387Y002062D02*
X016012Y002062D01*
X015336Y002259D02*
X014831Y002259D01*
X014944Y002161D02*
X015223Y002161D01*
X015155Y002062D02*
X015012Y002062D01*
X014336Y002259D02*
X013894Y002259D01*
X013995Y002161D02*
X014223Y002161D01*
X014155Y002062D02*
X014055Y002062D01*
X014091Y001964D02*
X014114Y001964D01*
X013613Y002062D02*
X013553Y002062D01*
X013553Y002161D02*
X013613Y002161D01*
X013613Y002259D02*
X013553Y002259D01*
X009853Y002572D02*
X008313Y002572D01*
X008313Y002687D01*
X007992Y003008D01*
X007993Y003011D01*
X007993Y003174D01*
X007931Y003324D01*
X007816Y003440D01*
X007665Y003502D01*
X007502Y003502D01*
X007351Y003440D01*
X007236Y003324D01*
X007203Y003244D02*
X000833Y003244D01*
X000833Y003146D02*
X007173Y003146D01*
X007173Y003047D02*
X000833Y003047D01*
X000833Y002949D02*
X007199Y002949D01*
X007245Y002850D02*
X000833Y002850D01*
X000833Y002752D02*
X007344Y002752D01*
X007697Y002653D02*
X000833Y002653D01*
X000833Y002555D02*
X007796Y002555D01*
X007853Y002456D02*
X000833Y002456D01*
X000833Y002358D02*
X001789Y002358D01*
X001619Y002287D02*
X001619Y002287D01*
X001591Y002259D02*
X000833Y002259D01*
X000833Y002161D02*
X001492Y002161D01*
X001394Y002062D02*
X000833Y002062D01*
X000833Y001964D02*
X001350Y001964D01*
X001309Y001865D02*
X000833Y001865D01*
X000833Y001767D02*
X001268Y001767D01*
X001263Y001668D02*
X000833Y001668D01*
X000833Y001570D02*
X001263Y001570D01*
X001263Y001471D02*
X000833Y001471D01*
X000833Y001373D02*
X001287Y001373D01*
X001327Y001274D02*
X000833Y001274D01*
X000833Y001176D02*
X001368Y001176D01*
X001439Y001077D02*
X000833Y001077D01*
X000833Y000979D02*
X001537Y000979D01*
X001619Y000897D02*
X001619Y000897D01*
X001619Y000897D01*
X001659Y000880D02*
X000833Y000880D01*
X000833Y000782D02*
X001897Y000782D01*
X002548Y000897D02*
X002548Y000897D01*
X002674Y002161D02*
X007940Y002161D01*
X007853Y002259D02*
X002576Y002259D01*
X002378Y002358D02*
X007853Y002358D01*
X008313Y002653D02*
X009853Y002653D01*
X009853Y002572D02*
X009853Y003244D01*
X009853Y003146D02*
X007993Y003146D01*
X007993Y003047D02*
X009853Y003047D01*
X009853Y002949D02*
X008052Y002949D01*
X008151Y002850D02*
X009853Y002850D01*
X009853Y002752D02*
X008249Y002752D01*
X007964Y003244D02*
X008910Y003244D01*
X009064Y003244D02*
X009102Y003244D01*
X009102Y003343D02*
X009064Y003343D01*
X009064Y003441D02*
X009102Y003441D01*
X009102Y003540D02*
X009064Y003540D01*
X009064Y003611D02*
X008696Y003611D01*
X008696Y003630D01*
X008710Y003705D01*
X008740Y003776D01*
X008782Y003839D01*
X008836Y003893D01*
X008900Y003936D01*
X008970Y003965D01*
X009045Y003980D01*
X009064Y003980D01*
X009064Y003611D01*
X009064Y003638D02*
X009102Y003638D01*
X009102Y003737D02*
X009064Y003737D01*
X009064Y003835D02*
X009102Y003835D01*
X009102Y003934D02*
X009064Y003934D01*
X008896Y003934D02*
X008005Y003934D01*
X007953Y003835D02*
X008779Y003835D01*
X008723Y003737D02*
X007860Y003737D01*
X007633Y003737D02*
X007533Y003737D01*
X007533Y003835D02*
X007633Y003835D01*
X007633Y003934D02*
X007533Y003934D01*
X007533Y004032D02*
X007633Y004032D01*
X007155Y004229D02*
X005947Y004229D01*
X006045Y004328D02*
X007198Y004328D01*
X007281Y004426D02*
X006144Y004426D01*
X005833Y004342D02*
X004833Y004342D01*
X004083Y003842D01*
X003673Y003835D02*
X003493Y003835D01*
X003489Y003934D02*
X003677Y003934D01*
X003718Y004032D02*
X003448Y004032D01*
X003375Y004131D02*
X003792Y004131D01*
X003946Y004229D02*
X003220Y004229D01*
X002946Y004229D02*
X000833Y004229D01*
X000833Y004131D02*
X002792Y004131D01*
X002718Y004032D02*
X000833Y004032D01*
X000833Y003934D02*
X002677Y003934D01*
X002673Y003835D02*
X000833Y003835D01*
X000833Y003737D02*
X002683Y003737D01*
X002724Y003638D02*
X000833Y003638D01*
X000833Y003540D02*
X002806Y003540D01*
X003361Y003540D02*
X003806Y003540D01*
X003724Y003638D02*
X003443Y003638D01*
X003483Y003737D02*
X003683Y003737D01*
X004220Y004229D02*
X004375Y004229D01*
X004523Y004328D02*
X000833Y004328D01*
X000833Y004426D02*
X004671Y004426D01*
X004936Y004872D02*
X005035Y004837D01*
X005138Y004814D01*
X005243Y004802D01*
X005246Y004802D01*
X005246Y005692D01*
X004356Y005692D01*
X004356Y005689D01*
X004368Y005584D01*
X004391Y005481D01*
X004426Y005381D01*
X004472Y005286D01*
X004528Y005197D01*
X004594Y005114D01*
X004669Y005040D01*
X004751Y004974D01*
X004841Y004918D01*
X004936Y004872D01*
X004839Y004919D02*
X000833Y004919D01*
X000833Y005017D02*
X004697Y005017D01*
X004593Y005116D02*
X000833Y005116D01*
X000833Y005214D02*
X004517Y005214D01*
X004459Y005313D02*
X000833Y005313D01*
X000833Y005411D02*
X004416Y005411D01*
X004385Y005510D02*
X000833Y005510D01*
X000833Y005608D02*
X004365Y005608D01*
X004356Y005792D02*
X005246Y005792D01*
X005246Y006682D01*
X005243Y006682D01*
X005138Y006670D01*
X005035Y006646D01*
X004936Y006612D01*
X004841Y006566D01*
X004751Y006510D01*
X004669Y006444D01*
X004594Y006369D01*
X004528Y006287D01*
X004472Y006197D01*
X004426Y006102D01*
X004391Y006002D01*
X000833Y006002D01*
X000833Y005904D02*
X004369Y005904D01*
X004368Y005899D02*
X004356Y005795D01*
X004356Y005792D01*
X004357Y005805D02*
X000833Y005805D01*
X000833Y005707D02*
X005246Y005707D01*
X005246Y005692D02*
X005246Y005792D01*
X005346Y005792D01*
X005346Y006682D01*
X005349Y006682D01*
X005454Y006670D01*
X005557Y006646D01*
X005656Y006612D01*
X005751Y006566D01*
X005841Y006510D01*
X005923Y006444D01*
X005998Y006369D01*
X006064Y006287D01*
X006120Y006197D01*
X006166Y006102D01*
X006201Y006002D01*
X006673Y006002D01*
X006673Y005904D02*
X006223Y005904D01*
X006224Y005899D02*
X006201Y006002D01*
X006166Y006101D02*
X006673Y006101D01*
X006714Y006199D02*
X006119Y006199D01*
X006055Y006298D02*
X006813Y006298D01*
X006911Y006396D02*
X005971Y006396D01*
X005859Y006495D02*
X007010Y006495D01*
X007108Y006593D02*
X005694Y006593D01*
X005346Y006593D02*
X005246Y006593D01*
X005246Y006495D02*
X005346Y006495D01*
X005346Y006396D02*
X005246Y006396D01*
X005246Y006298D02*
X005346Y006298D01*
X005346Y006199D02*
X005246Y006199D01*
X005246Y006101D02*
X005346Y006101D01*
X005346Y006002D02*
X005246Y006002D01*
X005246Y005904D02*
X005346Y005904D01*
X005346Y005805D02*
X005246Y005805D01*
X005346Y005792D02*
X006236Y005792D01*
X006236Y005795D01*
X006224Y005899D01*
X006235Y005805D02*
X006673Y005805D01*
X006673Y005707D02*
X005346Y005707D01*
X005346Y005692D02*
X005346Y005792D01*
X005346Y005692D02*
X006236Y005692D01*
X006236Y005689D01*
X006224Y005584D01*
X006201Y005481D01*
X006166Y005381D01*
X006120Y005286D01*
X006064Y005197D01*
X005998Y005114D01*
X005923Y005040D01*
X005841Y004974D01*
X005751Y004918D01*
X005656Y004872D01*
X005557Y004837D01*
X005454Y004814D01*
X005349Y004802D01*
X005346Y004802D01*
X005346Y005692D01*
X005246Y005692D01*
X005246Y005608D02*
X005346Y005608D01*
X005346Y005510D02*
X005246Y005510D01*
X005246Y005411D02*
X005346Y005411D01*
X005346Y005313D02*
X005246Y005313D01*
X005246Y005214D02*
X005346Y005214D01*
X005346Y005116D02*
X005246Y005116D01*
X005246Y005017D02*
X005346Y005017D01*
X005346Y004919D02*
X005246Y004919D01*
X005246Y004820D02*
X005346Y004820D01*
X005482Y004820D02*
X006085Y004820D01*
X005987Y004722D02*
X000833Y004722D01*
X000833Y004820D02*
X005109Y004820D01*
X005753Y004919D02*
X006184Y004919D01*
X006282Y005017D02*
X005895Y005017D01*
X005999Y005116D02*
X006381Y005116D01*
X006479Y005214D02*
X006075Y005214D01*
X006133Y005313D02*
X006578Y005313D01*
X006673Y005411D02*
X006176Y005411D01*
X006207Y005510D02*
X006673Y005510D01*
X006673Y005608D02*
X006227Y005608D01*
X006833Y005342D02*
X005833Y004342D01*
X005790Y004525D02*
X000833Y004525D01*
X000833Y004623D02*
X005888Y004623D01*
X006833Y005342D02*
X006833Y006092D01*
X008583Y007842D01*
X008583Y009592D01*
X008583Y011092D01*
X008132Y010927D02*
X005492Y010927D01*
X005493Y010924D02*
X005431Y011074D01*
X005316Y011190D01*
X005165Y011252D01*
X005002Y011252D01*
X004851Y011190D01*
X004736Y011074D01*
X004673Y010924D01*
X004673Y010761D01*
X004736Y010610D01*
X004851Y010495D01*
X005002Y010432D01*
X005165Y010432D01*
X005316Y010495D01*
X005431Y010610D01*
X005493Y010761D01*
X005493Y010924D01*
X005493Y010829D02*
X008173Y010829D01*
X008266Y010730D02*
X005481Y010730D01*
X005440Y010632D02*
X008423Y010632D01*
X008423Y010533D02*
X005354Y010533D01*
X005171Y010435D02*
X008423Y010435D01*
X008423Y010336D02*
X004313Y010336D01*
X004313Y010238D02*
X008423Y010238D01*
X008423Y010139D02*
X004313Y010139D01*
X004313Y010081D02*
X004313Y010494D01*
X004316Y010495D01*
X004431Y010610D01*
X004493Y010761D01*
X004493Y010924D01*
X004431Y011074D01*
X004316Y011190D01*
X004313Y011191D01*
X004313Y012497D01*
X005308Y013491D01*
X005316Y013495D01*
X005431Y013610D01*
X005493Y013761D01*
X005493Y013924D01*
X005431Y014074D01*
X005316Y014190D01*
X005165Y014252D01*
X005002Y014252D01*
X004851Y014190D01*
X004736Y014074D01*
X004673Y013924D01*
X004673Y013761D01*
X004736Y013610D01*
X004756Y013590D01*
X003988Y012822D01*
X003853Y012687D01*
X003853Y011191D01*
X003851Y011190D01*
X003736Y011074D01*
X003673Y010924D01*
X003673Y010761D01*
X003736Y010610D01*
X003851Y010495D01*
X003853Y010494D01*
X003853Y009891D01*
X005693Y008051D01*
X005577Y007771D01*
X005577Y007413D01*
X005714Y007082D01*
X005967Y006829D01*
X006298Y006692D01*
X006656Y006692D01*
X006987Y006829D01*
X007240Y007082D01*
X007377Y007413D01*
X007377Y007771D01*
X007240Y008102D01*
X006987Y008355D01*
X006656Y008492D01*
X006298Y008492D01*
X006018Y008376D01*
X004313Y010081D01*
X004354Y010041D02*
X008412Y010041D01*
X008255Y009942D02*
X004452Y009942D01*
X004551Y009844D02*
X008168Y009844D01*
X008127Y009745D02*
X004649Y009745D01*
X004748Y009647D02*
X008103Y009647D01*
X008103Y009548D02*
X004846Y009548D01*
X004945Y009450D02*
X008123Y009450D01*
X008164Y009351D02*
X005043Y009351D01*
X005142Y009253D02*
X008244Y009253D01*
X008386Y009154D02*
X005240Y009154D01*
X005339Y009056D02*
X008423Y009056D01*
X008423Y008957D02*
X005437Y008957D01*
X005536Y008859D02*
X008423Y008859D01*
X008423Y008760D02*
X005634Y008760D01*
X005733Y008662D02*
X008423Y008662D01*
X008423Y008563D02*
X005831Y008563D01*
X005930Y008465D02*
X006232Y008465D01*
X006722Y008465D02*
X008423Y008465D01*
X008423Y008366D02*
X006960Y008366D01*
X007074Y008268D02*
X008423Y008268D01*
X008423Y008169D02*
X007173Y008169D01*
X007253Y008071D02*
X008423Y008071D01*
X008423Y007972D02*
X007294Y007972D01*
X007335Y007874D02*
X008389Y007874D01*
X008290Y007775D02*
X007375Y007775D01*
X007377Y007677D02*
X008192Y007677D01*
X008093Y007578D02*
X007377Y007578D01*
X007377Y007480D02*
X007995Y007480D01*
X007896Y007381D02*
X007364Y007381D01*
X007323Y007283D02*
X007798Y007283D01*
X007699Y007184D02*
X007282Y007184D01*
X007241Y007086D02*
X007601Y007086D01*
X007502Y006987D02*
X007145Y006987D01*
X007046Y006889D02*
X007404Y006889D01*
X007305Y006790D02*
X006893Y006790D01*
X007207Y006692D02*
X004387Y006692D01*
X004375Y006687D02*
X004475Y006722D01*
X004570Y006768D01*
X004660Y006824D01*
X004742Y006890D01*
X004817Y006965D01*
X004883Y007047D01*
X004939Y007137D01*
X004985Y007232D01*
X005020Y007331D01*
X005043Y007434D01*
X005055Y007539D01*
X005055Y007542D01*
X004165Y007542D01*
X004165Y007642D01*
X005055Y007642D01*
X005055Y007645D01*
X005043Y007750D01*
X005020Y007853D01*
X004985Y007952D01*
X004939Y008048D01*
X004883Y008137D01*
X004817Y008219D01*
X004742Y008294D01*
X004660Y008360D01*
X004570Y008416D01*
X004475Y008462D01*
X004375Y008497D01*
X004273Y008520D01*
X004168Y008532D01*
X004165Y008532D01*
X004165Y007642D01*
X004065Y007642D01*
X004065Y008532D01*
X004062Y008532D01*
X003957Y008520D01*
X003854Y008497D01*
X003755Y008462D01*
X003659Y008416D01*
X003570Y008360D01*
X003487Y008294D01*
X003413Y008219D01*
X003347Y008137D01*
X003291Y008048D01*
X003245Y007952D01*
X003210Y007853D01*
X003187Y007750D01*
X003175Y007645D01*
X003175Y007642D01*
X004065Y007642D01*
X004065Y007542D01*
X004165Y007542D01*
X004165Y006652D01*
X004168Y006652D01*
X004273Y006664D01*
X004375Y006687D01*
X004165Y006692D02*
X004065Y006692D01*
X004065Y006652D02*
X004065Y007542D01*
X003175Y007542D01*
X003175Y007539D01*
X003187Y007434D01*
X003210Y007331D01*
X003245Y007232D01*
X003291Y007137D01*
X003347Y007047D01*
X003413Y006965D01*
X003487Y006890D01*
X003570Y006824D01*
X003659Y006768D01*
X003755Y006722D01*
X003854Y006687D01*
X003957Y006664D01*
X004062Y006652D01*
X004065Y006652D01*
X004065Y006790D02*
X004165Y006790D01*
X004165Y006889D02*
X004065Y006889D01*
X004065Y006987D02*
X004165Y006987D01*
X004165Y007086D02*
X004065Y007086D01*
X004065Y007184D02*
X004165Y007184D01*
X004165Y007283D02*
X004065Y007283D01*
X004065Y007381D02*
X004165Y007381D01*
X004165Y007480D02*
X004065Y007480D01*
X004065Y007578D02*
X000833Y007578D01*
X000833Y007480D02*
X003182Y007480D01*
X003199Y007381D02*
X000833Y007381D01*
X000833Y007283D02*
X003227Y007283D01*
X003268Y007184D02*
X000833Y007184D01*
X000833Y007086D02*
X003323Y007086D01*
X003395Y006987D02*
X000833Y006987D01*
X000833Y006889D02*
X003489Y006889D01*
X003624Y006790D02*
X000833Y006790D01*
X000833Y006692D02*
X003842Y006692D01*
X004605Y006790D02*
X006061Y006790D01*
X005908Y006889D02*
X004740Y006889D01*
X004835Y006987D02*
X005809Y006987D01*
X005713Y007086D02*
X004907Y007086D01*
X004962Y007184D02*
X005672Y007184D01*
X005631Y007283D02*
X005002Y007283D01*
X005031Y007381D02*
X005590Y007381D01*
X005577Y007480D02*
X005048Y007480D01*
X005051Y007677D02*
X005577Y007677D01*
X005579Y007775D02*
X005037Y007775D01*
X005012Y007874D02*
X005619Y007874D01*
X005660Y007972D02*
X004975Y007972D01*
X004924Y008071D02*
X005673Y008071D01*
X005575Y008169D02*
X004857Y008169D01*
X004769Y008268D02*
X005476Y008268D01*
X005378Y008366D02*
X004650Y008366D01*
X004467Y008465D02*
X005279Y008465D01*
X005181Y008563D02*
X000833Y008563D01*
X000833Y008465D02*
X003762Y008465D01*
X003580Y008366D02*
X000833Y008366D01*
X000833Y008268D02*
X003461Y008268D01*
X003373Y008169D02*
X000833Y008169D01*
X000833Y008071D02*
X003305Y008071D01*
X003255Y007972D02*
X000833Y007972D01*
X000833Y007874D02*
X003217Y007874D01*
X003192Y007775D02*
X000833Y007775D01*
X000833Y007677D02*
X003178Y007677D01*
X004065Y007677D02*
X004165Y007677D01*
X004165Y007775D02*
X004065Y007775D01*
X004065Y007874D02*
X004165Y007874D01*
X004165Y007972D02*
X004065Y007972D01*
X004065Y008071D02*
X004165Y008071D01*
X004165Y008169D02*
X004065Y008169D01*
X004065Y008268D02*
X004165Y008268D01*
X004165Y008366D02*
X004065Y008366D01*
X004065Y008465D02*
X004165Y008465D01*
X004984Y008760D02*
X000833Y008760D01*
X000833Y008662D02*
X005082Y008662D01*
X004885Y008859D02*
X000833Y008859D01*
X000833Y008957D02*
X004787Y008957D01*
X004688Y009056D02*
X000833Y009056D01*
X000833Y009154D02*
X004590Y009154D01*
X004491Y009253D02*
X000833Y009253D01*
X000833Y009351D02*
X004393Y009351D01*
X004294Y009450D02*
X000833Y009450D01*
X000833Y009548D02*
X004196Y009548D01*
X004097Y009647D02*
X000833Y009647D01*
X000833Y009745D02*
X003999Y009745D01*
X003900Y009844D02*
X000833Y009844D01*
X000833Y009942D02*
X003853Y009942D01*
X003853Y010041D02*
X000833Y010041D01*
X000833Y010139D02*
X003853Y010139D01*
X003853Y010238D02*
X000833Y010238D01*
X000833Y010336D02*
X003853Y010336D01*
X003853Y010435D02*
X003171Y010435D01*
X003165Y010432D02*
X003316Y010495D01*
X003431Y010610D01*
X003493Y010761D01*
X003493Y010924D01*
X003431Y011074D01*
X003316Y011190D01*
X003165Y011252D01*
X003050Y011252D01*
X002313Y012173D01*
X002313Y012185D01*
X002346Y012198D01*
X002477Y012329D01*
X002548Y012500D01*
X002548Y012684D01*
X002477Y012855D01*
X002346Y012986D01*
X002176Y013056D01*
X001991Y013056D01*
X001820Y012986D01*
X001690Y012855D01*
X001619Y012684D01*
X001619Y012500D01*
X001690Y012329D01*
X001820Y012198D01*
X001853Y012185D01*
X001853Y012105D01*
X001844Y012023D01*
X001853Y012011D01*
X000833Y012011D01*
X000833Y012109D02*
X001853Y012109D01*
X001853Y012011D02*
X001853Y011997D01*
X001912Y011939D01*
X002690Y010965D01*
X002673Y010924D01*
X002673Y010761D01*
X002736Y010610D01*
X002851Y010495D01*
X003002Y010432D01*
X003165Y010432D01*
X002996Y010435D02*
X000833Y010435D01*
X000833Y010533D02*
X002812Y010533D01*
X002727Y010632D02*
X000833Y010632D01*
X000833Y010730D02*
X002686Y010730D01*
X002673Y010829D02*
X000833Y010829D01*
X000833Y010927D02*
X002675Y010927D01*
X002642Y011026D02*
X000833Y011026D01*
X000833Y011124D02*
X002563Y011124D01*
X002484Y011223D02*
X000833Y011223D01*
X000833Y011321D02*
X002406Y011321D01*
X002327Y011420D02*
X000833Y011420D01*
X000833Y011518D02*
X002248Y011518D01*
X002169Y011617D02*
X000833Y011617D01*
X000833Y011715D02*
X002090Y011715D01*
X002012Y011814D02*
X000833Y011814D01*
X000833Y011912D02*
X001933Y011912D01*
X002364Y012109D02*
X003853Y012109D01*
X003853Y012011D02*
X002443Y012011D01*
X002522Y011912D02*
X003853Y011912D01*
X003853Y011814D02*
X002601Y011814D01*
X002679Y011715D02*
X003853Y011715D01*
X003853Y011617D02*
X002758Y011617D01*
X002837Y011518D02*
X003853Y011518D01*
X003853Y011420D02*
X002916Y011420D01*
X002995Y011321D02*
X003853Y011321D01*
X003853Y011223D02*
X003236Y011223D01*
X003381Y011124D02*
X003786Y011124D01*
X003716Y011026D02*
X003451Y011026D01*
X003492Y010927D02*
X003675Y010927D01*
X003673Y010829D02*
X003493Y010829D01*
X003481Y010730D02*
X003686Y010730D01*
X003727Y010632D02*
X003440Y010632D01*
X003354Y010533D02*
X003812Y010533D01*
X004313Y010435D02*
X004996Y010435D01*
X004812Y010533D02*
X004354Y010533D01*
X004440Y010632D02*
X004727Y010632D01*
X004686Y010730D02*
X004481Y010730D01*
X004493Y010829D02*
X004673Y010829D01*
X004675Y010927D02*
X004492Y010927D01*
X004451Y011026D02*
X004716Y011026D01*
X004786Y011124D02*
X004381Y011124D01*
X004313Y011223D02*
X004931Y011223D01*
X005236Y011223D02*
X008118Y011223D01*
X008103Y011124D02*
X005381Y011124D01*
X005451Y011026D02*
X008103Y011026D01*
X008159Y011321D02*
X004313Y011321D01*
X004313Y011420D02*
X008232Y011420D01*
X008358Y011518D02*
X004313Y011518D01*
X004313Y011617D02*
X012853Y011617D01*
X012853Y011715D02*
X004313Y011715D01*
X004313Y011814D02*
X012853Y011814D01*
X012853Y011912D02*
X004313Y011912D01*
X004313Y012011D02*
X012853Y012011D01*
X012853Y012109D02*
X004313Y012109D01*
X004313Y012208D02*
X005811Y012208D01*
X005820Y012198D02*
X005991Y012128D01*
X006176Y012128D01*
X006346Y012198D01*
X006477Y012329D01*
X006548Y012500D01*
X006548Y012684D01*
X006505Y012788D01*
X007743Y014026D01*
X007743Y014261D01*
X007791Y014281D01*
X007895Y014384D01*
X007951Y014519D01*
X007951Y014665D01*
X007895Y014800D01*
X007791Y014904D01*
X007656Y014960D01*
X007510Y014960D01*
X007375Y014904D01*
X007272Y014800D01*
X007216Y014665D01*
X007216Y014519D01*
X007272Y014384D01*
X007375Y014281D01*
X007423Y014261D01*
X007423Y014158D01*
X006279Y013014D01*
X006176Y013056D01*
X005991Y013056D01*
X005820Y012986D01*
X005690Y012855D01*
X005619Y012684D01*
X005619Y012500D01*
X005690Y012329D01*
X005820Y012198D01*
X005713Y012306D02*
X004313Y012306D01*
X004313Y012405D02*
X005658Y012405D01*
X005619Y012503D02*
X004320Y012503D01*
X004418Y012602D02*
X005619Y012602D01*
X005625Y012700D02*
X004517Y012700D01*
X004615Y012799D02*
X005666Y012799D01*
X005732Y012897D02*
X004714Y012897D01*
X004812Y012996D02*
X005844Y012996D01*
X005978Y013403D02*
X005911Y013425D01*
X005847Y013457D01*
X005790Y013499D01*
X005740Y013549D01*
X005698Y013606D01*
X005666Y013669D01*
X005644Y013737D01*
X005636Y013792D01*
X006033Y013792D01*
X006033Y013892D01*
X005636Y013892D01*
X005644Y013948D01*
X005666Y014015D01*
X005698Y014078D01*
X005740Y014135D01*
X005790Y014185D01*
X005847Y014227D01*
X005911Y014259D01*
X005978Y014281D01*
X006033Y014290D01*
X006033Y013892D01*
X006133Y013892D01*
X006133Y014290D01*
X006189Y014281D01*
X006256Y014259D01*
X006319Y014227D01*
X006376Y014185D01*
X006427Y014135D01*
X006468Y014078D01*
X006500Y014015D01*
X006522Y013948D01*
X006531Y013892D01*
X006133Y013892D01*
X006133Y013792D01*
X006133Y013394D01*
X006189Y013403D01*
X006256Y013425D01*
X006319Y013457D01*
X006376Y013499D01*
X006427Y013549D01*
X006468Y013606D01*
X006500Y013669D01*
X006522Y013737D01*
X006531Y013792D01*
X006133Y013792D01*
X006033Y013792D01*
X006033Y013394D01*
X005978Y013403D01*
X006033Y013488D02*
X006133Y013488D01*
X006133Y013587D02*
X006033Y013587D01*
X006033Y013685D02*
X006133Y013685D01*
X006133Y013784D02*
X006033Y013784D01*
X006033Y013882D02*
X005493Y013882D01*
X005493Y013784D02*
X005637Y013784D01*
X005661Y013685D02*
X005462Y013685D01*
X005408Y013587D02*
X005713Y013587D01*
X005805Y013488D02*
X005305Y013488D01*
X005206Y013390D02*
X006655Y013390D01*
X006753Y013488D02*
X006362Y013488D01*
X006454Y013587D02*
X006852Y013587D01*
X006950Y013685D02*
X006505Y013685D01*
X006530Y013784D02*
X007049Y013784D01*
X007147Y013882D02*
X006133Y013882D01*
X006133Y013981D02*
X006033Y013981D01*
X006033Y014079D02*
X006133Y014079D01*
X006133Y014178D02*
X006033Y014178D01*
X006033Y014276D02*
X006133Y014276D01*
X006204Y014276D02*
X007386Y014276D01*
X007423Y014178D02*
X006384Y014178D01*
X006467Y014079D02*
X007344Y014079D01*
X007246Y013981D02*
X006511Y013981D01*
X005963Y014276D02*
X002677Y014276D01*
X002579Y014178D02*
X004839Y014178D01*
X004741Y014079D02*
X002384Y014079D01*
X002246Y014022D02*
X002548Y014147D01*
X002778Y014378D01*
X002903Y014679D01*
X002903Y015005D01*
X002778Y015307D01*
X002548Y015537D01*
X002548Y015537D01*
X002246Y015662D01*
X001920Y015662D01*
X001619Y015537D01*
X001388Y015307D01*
X001388Y015307D01*
X001263Y015005D01*
X001263Y014679D01*
X001388Y014378D01*
X001388Y014378D01*
X001619Y014147D01*
X001920Y014022D01*
X002121Y014022D01*
X002246Y014022D01*
X002246Y014022D01*
X002548Y014147D02*
X002548Y014147D01*
X002776Y014375D02*
X007281Y014375D01*
X007235Y014473D02*
X002818Y014473D01*
X002778Y014378D02*
X002778Y014378D01*
X002859Y014572D02*
X007216Y014572D01*
X007218Y014670D02*
X002900Y014670D01*
X002903Y014769D02*
X007259Y014769D01*
X007339Y014867D02*
X002903Y014867D01*
X002903Y014966D02*
X009877Y014966D01*
X009914Y015002D02*
X009673Y014762D01*
X009673Y014622D01*
X010053Y014622D01*
X010053Y014562D01*
X009673Y014562D01*
X009673Y014422D01*
X009914Y014182D01*
X010053Y014182D01*
X010053Y014562D01*
X010113Y014562D01*
X010113Y014182D01*
X010253Y014182D01*
X010493Y014422D01*
X010493Y014562D01*
X010113Y014562D01*
X010113Y014622D01*
X010053Y014622D01*
X010053Y015002D01*
X009914Y015002D01*
X010053Y014966D02*
X010113Y014966D01*
X010113Y015002D02*
X010113Y014622D01*
X010493Y014622D01*
X010493Y014762D01*
X010253Y015002D01*
X010113Y015002D01*
X010113Y014867D02*
X010053Y014867D01*
X010053Y014769D02*
X010113Y014769D01*
X010113Y014670D02*
X010053Y014670D01*
X010053Y014572D02*
X007951Y014572D01*
X007949Y014670D02*
X009673Y014670D01*
X009680Y014769D02*
X007908Y014769D01*
X007828Y014867D02*
X009779Y014867D01*
X010290Y014966D02*
X012973Y014966D01*
X012970Y014965D02*
X012900Y014936D01*
X012836Y014893D01*
X012782Y014839D01*
X012740Y014776D01*
X012710Y014705D01*
X012696Y014630D01*
X012696Y014611D01*
X013064Y014611D01*
X013064Y014573D01*
X012696Y014573D01*
X012696Y014554D01*
X012710Y014479D01*
X012740Y014408D01*
X012782Y014345D01*
X012836Y014291D01*
X012900Y014248D01*
X012970Y014219D01*
X013045Y014204D01*
X013064Y014204D01*
X013064Y014573D01*
X013102Y014573D01*
X013102Y014204D01*
X013122Y014204D01*
X013196Y014219D01*
X013267Y014248D01*
X013331Y014291D01*
X013385Y014345D01*
X013427Y014408D01*
X013456Y014479D01*
X013471Y014554D01*
X013471Y014573D01*
X013102Y014573D01*
X013102Y014611D01*
X013064Y014611D01*
X013064Y014980D01*
X013045Y014980D01*
X012970Y014965D01*
X013064Y014966D02*
X013102Y014966D01*
X013102Y014980D02*
X013102Y014611D01*
X013471Y014611D01*
X013471Y014630D01*
X013456Y014705D01*
X013427Y014776D01*
X013385Y014839D01*
X013331Y014893D01*
X013267Y014936D01*
X013196Y014965D01*
X013122Y014980D01*
X013102Y014980D01*
X013193Y014966D02*
X014615Y014966D01*
X014603Y014938D02*
X014603Y014747D01*
X014676Y014570D01*
X014811Y014435D01*
X014988Y014362D01*
X015179Y014362D01*
X015355Y014435D01*
X015490Y014570D01*
X015563Y014747D01*
X015563Y014938D01*
X015490Y015114D01*
X015355Y015249D01*
X015179Y015322D01*
X014988Y015322D01*
X014811Y015249D01*
X014676Y015114D01*
X014603Y014938D01*
X014603Y014867D02*
X013357Y014867D01*
X013430Y014769D02*
X014603Y014769D01*
X014635Y014670D02*
X013463Y014670D01*
X013471Y014572D02*
X014676Y014572D01*
X014773Y014473D02*
X013454Y014473D01*
X013404Y014375D02*
X014958Y014375D01*
X014982Y014178D02*
X007743Y014178D01*
X007743Y014079D02*
X014873Y014079D01*
X014822Y013981D02*
X007698Y013981D01*
X007600Y013882D02*
X009850Y013882D01*
X009930Y013962D02*
X009713Y013745D01*
X009713Y013439D01*
X009930Y013222D01*
X010237Y013222D01*
X010453Y013439D01*
X010453Y013745D01*
X010237Y013962D01*
X009930Y013962D01*
X009752Y013784D02*
X007501Y013784D01*
X007403Y013685D02*
X009713Y013685D01*
X009713Y013587D02*
X007304Y013587D01*
X007206Y013488D02*
X009713Y013488D01*
X009763Y013390D02*
X007107Y013390D01*
X007009Y013291D02*
X009861Y013291D01*
X010306Y013291D02*
X012457Y013291D01*
X012359Y013193D02*
X006910Y013193D01*
X006812Y013094D02*
X012260Y013094D01*
X012162Y012996D02*
X006713Y012996D01*
X006615Y012897D02*
X007369Y012897D01*
X007375Y012904D02*
X007272Y012800D01*
X007216Y012665D01*
X007216Y012519D01*
X007272Y012384D01*
X007375Y012281D01*
X007510Y012225D01*
X007656Y012225D01*
X007791Y012281D01*
X007873Y012362D01*
X012179Y012362D01*
X012853Y013037D01*
X012853Y008687D01*
X012165Y007999D01*
X012164Y007999D01*
X012002Y007999D01*
X011853Y007937D01*
X011738Y007823D01*
X011676Y007673D01*
X011676Y007511D01*
X011738Y007362D01*
X011853Y007247D01*
X012002Y007185D01*
X012164Y007185D01*
X012314Y007247D01*
X012428Y007362D01*
X012490Y007511D01*
X012490Y007673D01*
X012490Y007674D01*
X013313Y008497D01*
X013313Y013244D01*
X013367Y013244D01*
X013431Y013309D01*
X013431Y013875D01*
X013367Y013940D01*
X012800Y013940D01*
X012736Y013875D01*
X012736Y013570D01*
X011988Y012822D01*
X007873Y012822D01*
X007791Y012904D01*
X007656Y012960D01*
X007510Y012960D01*
X007375Y012904D01*
X007271Y012799D02*
X006516Y012799D01*
X006541Y012700D02*
X007230Y012700D01*
X007216Y012602D02*
X006548Y012602D01*
X006548Y012503D02*
X007222Y012503D01*
X007263Y012405D02*
X006508Y012405D01*
X006454Y012306D02*
X007350Y012306D01*
X007817Y012306D02*
X012853Y012306D01*
X012853Y012208D02*
X006356Y012208D01*
X006083Y012592D02*
X007583Y014092D01*
X007583Y014592D01*
X007932Y014473D02*
X009673Y014473D01*
X009721Y014375D02*
X007886Y014375D01*
X007781Y014276D02*
X009819Y014276D01*
X010053Y014276D02*
X010113Y014276D01*
X010113Y014375D02*
X010053Y014375D01*
X010053Y014473D02*
X010113Y014473D01*
X010113Y014572D02*
X012696Y014572D01*
X012703Y014670D02*
X010493Y014670D01*
X010487Y014769D02*
X012737Y014769D01*
X012810Y014867D02*
X010388Y014867D01*
X010493Y014473D02*
X012713Y014473D01*
X012762Y014375D02*
X010446Y014375D01*
X010347Y014276D02*
X012858Y014276D01*
X013064Y014276D02*
X013102Y014276D01*
X013102Y014375D02*
X013064Y014375D01*
X013064Y014473D02*
X013102Y014473D01*
X013102Y014572D02*
X013064Y014572D01*
X013064Y014670D02*
X013102Y014670D01*
X013102Y014769D02*
X013064Y014769D01*
X013064Y014867D02*
X013102Y014867D01*
X013308Y014276D02*
X016442Y014276D01*
X016344Y014178D02*
X015385Y014178D01*
X015494Y014079D02*
X016245Y014079D01*
X016600Y013784D02*
X017560Y013784D01*
X017557Y013804D02*
X017567Y013742D01*
X017587Y013678D01*
X017618Y013618D01*
X017658Y013564D01*
X017705Y013516D01*
X017759Y013477D01*
X017819Y013446D01*
X017883Y013425D01*
X017945Y013416D01*
X017945Y013804D01*
X017557Y013804D01*
X017557Y013881D02*
X017945Y013881D01*
X017945Y014269D01*
X017883Y014259D01*
X017819Y014238D01*
X017759Y014207D01*
X017705Y014168D01*
X017658Y014120D01*
X017618Y014066D01*
X017587Y014006D01*
X017567Y013942D01*
X017557Y013881D01*
X017557Y013882D02*
X016699Y013882D01*
X016797Y013981D02*
X017579Y013981D01*
X017628Y014079D02*
X016896Y014079D01*
X016994Y014178D02*
X017718Y014178D01*
X017945Y014178D02*
X018022Y014178D01*
X018022Y014269D02*
X018083Y014259D01*
X018147Y014238D01*
X018207Y014207D01*
X018262Y014168D01*
X018309Y014120D01*
X018349Y014066D01*
X018379Y014006D01*
X018400Y013942D01*
X018410Y013881D01*
X018022Y013881D01*
X017945Y013881D01*
X017945Y013804D01*
X018022Y013804D01*
X018022Y013881D01*
X018022Y014269D01*
X017958Y014375D02*
X017191Y014375D01*
X017290Y014473D02*
X017773Y014473D01*
X017676Y014572D02*
X017388Y014572D01*
X016935Y014769D02*
X015563Y014769D01*
X015563Y014867D02*
X017033Y014867D01*
X017132Y014966D02*
X015552Y014966D01*
X015511Y015064D02*
X017230Y015064D01*
X017725Y015163D02*
X015442Y015163D01*
X015326Y015261D02*
X017841Y015261D01*
X018326Y015261D02*
X037369Y015261D01*
X037388Y015307D02*
X037263Y015005D01*
X037263Y014679D01*
X037388Y014378D01*
X037388Y014378D01*
X037619Y014147D01*
X037920Y014022D01*
X038046Y014022D01*
X038246Y014022D01*
X038548Y014147D01*
X038778Y014378D01*
X038903Y014679D01*
X038903Y015005D01*
X038778Y015307D01*
X038548Y015537D01*
X038548Y015537D01*
X038548Y015537D01*
X038246Y015662D01*
X037920Y015662D01*
X037619Y015537D01*
X037388Y015307D01*
X037388Y015307D01*
X037441Y015360D02*
X002725Y015360D01*
X002778Y015307D02*
X002778Y015307D01*
X002797Y015261D02*
X014841Y015261D01*
X014725Y015163D02*
X002838Y015163D01*
X002879Y015064D02*
X014656Y015064D01*
X015393Y014473D02*
X016639Y014473D01*
X016541Y014375D02*
X015209Y014375D01*
X015491Y014572D02*
X016738Y014572D01*
X016836Y014670D02*
X015532Y014670D01*
X017093Y014276D02*
X019353Y014276D01*
X019353Y014178D02*
X018248Y014178D01*
X018339Y014079D02*
X019417Y014079D01*
X019353Y014143D02*
X019635Y013862D01*
X020032Y013862D01*
X020313Y014143D01*
X020313Y014541D01*
X020032Y014822D01*
X019635Y014822D01*
X019353Y014541D01*
X019353Y014143D01*
X019516Y013981D02*
X018387Y013981D01*
X018409Y013882D02*
X019614Y013882D01*
X019635Y013822D02*
X019353Y013541D01*
X019353Y013143D01*
X019635Y012862D01*
X020032Y012862D01*
X020313Y013143D01*
X020313Y013541D01*
X020032Y013822D01*
X019635Y013822D01*
X019596Y013784D02*
X018407Y013784D01*
X018410Y013804D02*
X018022Y013804D01*
X018022Y013416D01*
X018083Y013425D01*
X018147Y013446D01*
X018207Y013477D01*
X018262Y013516D01*
X018309Y013564D01*
X018349Y013618D01*
X018379Y013678D01*
X018400Y013742D01*
X018410Y013804D01*
X018381Y013685D02*
X019498Y013685D01*
X019399Y013587D02*
X018326Y013587D01*
X018223Y013488D02*
X019353Y013488D01*
X019353Y013390D02*
X015413Y013390D01*
X015413Y013488D02*
X017744Y013488D01*
X017641Y013587D02*
X015475Y013587D01*
X015413Y013291D02*
X019353Y013291D01*
X019353Y013193D02*
X015413Y013193D01*
X015413Y013094D02*
X019402Y013094D01*
X019501Y012996D02*
X015413Y012996D01*
X015506Y012897D02*
X016092Y012897D01*
X016086Y012893D02*
X016032Y012839D01*
X015990Y012776D01*
X015960Y012705D01*
X015946Y012630D01*
X015946Y012611D01*
X016314Y012611D01*
X016314Y012573D01*
X015946Y012573D01*
X015946Y012554D01*
X015960Y012479D01*
X015990Y012408D01*
X016032Y012345D01*
X016086Y012291D01*
X016150Y012248D01*
X016220Y012219D01*
X016295Y012204D01*
X016314Y012204D01*
X016314Y012573D01*
X016352Y012573D01*
X016352Y012204D01*
X016372Y012204D01*
X016446Y012219D01*
X016517Y012248D01*
X016581Y012291D01*
X016635Y012345D01*
X016677Y012408D01*
X016706Y012479D01*
X016721Y012554D01*
X016721Y012573D01*
X016352Y012573D01*
X016352Y012611D01*
X016314Y012611D01*
X016314Y012980D01*
X016295Y012980D01*
X016220Y012965D01*
X016150Y012936D01*
X016086Y012893D01*
X016005Y012799D02*
X015619Y012799D01*
X015665Y012700D02*
X015959Y012700D01*
X015956Y012503D02*
X015673Y012503D01*
X015681Y012602D02*
X016314Y012602D01*
X016352Y012602D02*
X027867Y012602D01*
X027965Y012700D02*
X016707Y012700D01*
X016706Y012705D02*
X016677Y012776D01*
X016635Y012839D01*
X016581Y012893D01*
X016517Y012936D01*
X016446Y012965D01*
X016372Y012980D01*
X016352Y012980D01*
X016352Y012611D01*
X016721Y012611D01*
X016721Y012630D01*
X016706Y012705D01*
X016662Y012799D02*
X028508Y012799D01*
X028605Y012897D02*
X027067Y012897D01*
X027032Y012862D02*
X026635Y012862D01*
X026353Y013143D01*
X026353Y013541D01*
X026635Y013822D01*
X027032Y013822D01*
X027313Y013541D01*
X027313Y013143D01*
X027032Y012862D01*
X027166Y012996D02*
X029923Y012996D01*
X029923Y012897D02*
X029562Y012897D01*
X029658Y012799D02*
X029923Y012799D01*
X029923Y012700D02*
X029699Y012700D01*
X029713Y012602D02*
X029923Y012602D01*
X029923Y012503D02*
X029707Y012503D01*
X029666Y012405D02*
X029923Y012405D01*
X029923Y012306D02*
X029581Y012306D01*
X030083Y012092D02*
X030083Y013092D01*
X029583Y013592D01*
X029083Y013592D01*
X029577Y013882D02*
X031590Y013882D01*
X031502Y013784D02*
X029664Y013784D01*
X029717Y013685D02*
X031461Y013685D01*
X031453Y013587D02*
X029815Y013587D01*
X029914Y013488D02*
X031466Y013488D01*
X031507Y013390D02*
X030012Y013390D01*
X030111Y013291D02*
X031601Y013291D01*
X031605Y012897D02*
X030243Y012897D01*
X030243Y012799D02*
X031508Y012799D01*
X031468Y012700D02*
X030243Y012700D01*
X030243Y012602D02*
X031453Y012602D01*
X031460Y012503D02*
X030243Y012503D01*
X030243Y012405D02*
X031500Y012405D01*
X031586Y012306D02*
X030243Y012306D01*
X030243Y012208D02*
X032742Y012208D01*
X032840Y012109D02*
X030243Y012109D01*
X030228Y012011D02*
X032939Y012011D01*
X033083Y012092D02*
X035083Y012092D01*
X036333Y010842D01*
X037583Y010842D01*
X038333Y010092D01*
X037998Y009942D02*
X036752Y009942D01*
X036804Y010041D02*
X037966Y010041D01*
X037966Y010139D02*
X036843Y010139D01*
X036843Y010238D02*
X037962Y010238D01*
X037863Y010336D02*
X036840Y010336D01*
X036799Y010435D02*
X037765Y010435D01*
X037666Y010533D02*
X036741Y010533D01*
X036643Y010632D02*
X037568Y010632D01*
X037823Y010829D02*
X038077Y010829D01*
X038004Y010927D02*
X037725Y010927D01*
X037966Y011026D02*
X036376Y011026D01*
X036459Y011124D02*
X036278Y011124D01*
X036311Y011185D02*
X036488Y011112D01*
X036679Y011112D01*
X036855Y011185D01*
X036990Y011320D01*
X037063Y011497D01*
X037063Y011688D01*
X036990Y011864D01*
X036855Y011999D01*
X036679Y012072D01*
X036488Y012072D01*
X036311Y011999D01*
X036176Y011864D01*
X036103Y011688D01*
X036103Y011497D01*
X036176Y011320D01*
X036311Y011185D01*
X036274Y011223D02*
X036179Y011223D01*
X036176Y011321D02*
X036081Y011321D01*
X036135Y011420D02*
X035982Y011420D01*
X035884Y011518D02*
X036103Y011518D01*
X036103Y011617D02*
X035785Y011617D01*
X035687Y011715D02*
X036115Y011715D01*
X036156Y011814D02*
X035588Y011814D01*
X035490Y011912D02*
X036225Y011912D01*
X036339Y012011D02*
X035391Y012011D01*
X035293Y012109D02*
X037173Y012109D01*
X037173Y012208D02*
X035194Y012208D01*
X035037Y011912D02*
X033942Y011912D01*
X034011Y011814D02*
X035136Y011814D01*
X035234Y011715D02*
X034052Y011715D01*
X034063Y011617D02*
X035333Y011617D01*
X035431Y011518D02*
X034063Y011518D01*
X034031Y011420D02*
X035530Y011420D01*
X035628Y011321D02*
X033991Y011321D01*
X033893Y011223D02*
X035727Y011223D01*
X035825Y011124D02*
X033708Y011124D01*
X033459Y011124D02*
X033278Y011124D01*
X033274Y011223D02*
X033179Y011223D01*
X033176Y011321D02*
X033081Y011321D01*
X033135Y011420D02*
X032982Y011420D01*
X032884Y011518D02*
X033103Y011518D01*
X033103Y011617D02*
X032785Y011617D01*
X032693Y011715D02*
X033115Y011715D01*
X033156Y011814D02*
X032645Y011814D01*
X032538Y011912D02*
X033225Y011912D01*
X033083Y012092D02*
X032583Y012592D01*
X032083Y012592D01*
X032562Y012897D02*
X033320Y012897D01*
X033292Y012799D02*
X032658Y012799D01*
X032702Y012700D02*
X033753Y012700D01*
X033853Y012700D02*
X035883Y012700D01*
X035885Y012602D02*
X034314Y012602D01*
X034315Y012799D02*
X035884Y012799D01*
X035925Y012897D02*
X034287Y012897D01*
X034233Y012996D02*
X035978Y012996D01*
X036077Y013094D02*
X034147Y013094D01*
X033460Y013094D02*
X030243Y013094D01*
X030243Y012996D02*
X033374Y012996D01*
X033007Y013193D02*
X030209Y013193D01*
X029855Y013094D02*
X027264Y013094D01*
X027313Y013193D02*
X029757Y013193D01*
X029658Y013291D02*
X029566Y013291D01*
X028601Y013291D02*
X027313Y013291D01*
X027313Y013390D02*
X028507Y013390D01*
X028466Y013488D02*
X027313Y013488D01*
X027268Y013587D02*
X028453Y013587D01*
X028461Y013685D02*
X027169Y013685D01*
X027071Y013784D02*
X028502Y013784D01*
X028590Y013882D02*
X027052Y013882D01*
X027032Y013862D02*
X027313Y014143D01*
X027313Y014541D01*
X027032Y014822D01*
X026635Y014822D01*
X026353Y014541D01*
X026353Y014143D01*
X026635Y013862D01*
X027032Y013862D01*
X027151Y013981D02*
X032969Y013981D01*
X033067Y013882D02*
X032577Y013882D01*
X032664Y013784D02*
X033166Y013784D01*
X033173Y013776D02*
X033267Y013682D01*
X037267Y013682D01*
X038173Y012776D01*
X038173Y012460D01*
X038030Y012460D01*
X037966Y012395D01*
X037966Y011789D01*
X038030Y011725D01*
X038636Y011725D01*
X038701Y011789D01*
X038701Y012395D01*
X038636Y012460D01*
X038493Y012460D01*
X038493Y012908D01*
X038400Y013002D01*
X037400Y014002D01*
X033400Y014002D01*
X032697Y014704D01*
X032657Y014802D01*
X032553Y014906D01*
X032489Y014932D01*
X033127Y014932D01*
X033370Y014690D01*
X033323Y014578D01*
X033323Y014387D01*
X033396Y014210D01*
X033531Y014075D01*
X033708Y014002D01*
X033899Y014002D01*
X034075Y014075D01*
X034210Y014210D01*
X034283Y014387D01*
X034283Y014578D01*
X034210Y014754D01*
X034075Y014889D01*
X033899Y014962D01*
X033708Y014962D01*
X033596Y014916D01*
X033260Y015252D01*
X031017Y015252D01*
X030923Y015158D01*
X030517Y014752D01*
X029678Y014752D01*
X029657Y014802D01*
X029553Y014906D01*
X029417Y014962D01*
X028750Y014962D01*
X028614Y014906D01*
X028510Y014802D01*
X028453Y014666D01*
X028453Y014519D01*
X028510Y014383D01*
X028614Y014278D01*
X028750Y014222D01*
X029417Y014222D01*
X029553Y014278D01*
X029657Y014383D01*
X029678Y014432D01*
X030650Y014432D01*
X031150Y014932D01*
X031677Y014932D01*
X031614Y014906D01*
X031510Y014802D01*
X031453Y014666D01*
X031453Y014519D01*
X031510Y014383D01*
X031614Y014278D01*
X031750Y014222D01*
X032417Y014222D01*
X032553Y014278D01*
X032612Y014337D01*
X033173Y013776D01*
X033264Y013685D02*
X032967Y013685D01*
X033065Y013587D02*
X037363Y013587D01*
X037461Y013488D02*
X037164Y013488D01*
X037262Y013390D02*
X037560Y013390D01*
X037658Y013291D02*
X037361Y013291D01*
X037459Y013193D02*
X037757Y013193D01*
X037855Y013094D02*
X037493Y013094D01*
X037493Y012996D02*
X037954Y012996D01*
X038052Y012897D02*
X037493Y012897D01*
X037493Y012799D02*
X038151Y012799D01*
X038173Y012700D02*
X037493Y012700D01*
X037493Y012602D02*
X038173Y012602D01*
X038173Y012503D02*
X037493Y012503D01*
X037493Y012405D02*
X037975Y012405D01*
X037966Y012306D02*
X037493Y012306D01*
X037493Y012208D02*
X037966Y012208D01*
X037966Y012109D02*
X037543Y012109D01*
X037641Y012011D02*
X037966Y012011D01*
X037966Y011912D02*
X037740Y011912D01*
X037838Y011814D02*
X037966Y011814D01*
X037937Y011715D02*
X039303Y011715D01*
X039303Y011617D02*
X038035Y011617D01*
X038134Y011518D02*
X039303Y011518D01*
X039303Y011420D02*
X038503Y011420D01*
X038624Y011321D02*
X039303Y011321D01*
X039303Y011223D02*
X038677Y011223D01*
X038701Y011124D02*
X039303Y011124D01*
X039303Y011026D02*
X038701Y011026D01*
X038663Y010927D02*
X039303Y010927D01*
X039303Y010829D02*
X038590Y010829D01*
X038420Y010730D02*
X039303Y010730D01*
X039303Y010632D02*
X038020Y010632D01*
X037922Y010730D02*
X038247Y010730D01*
X038119Y010533D02*
X039303Y010533D01*
X039303Y010435D02*
X038467Y010435D01*
X038609Y010336D02*
X039303Y010336D01*
X039303Y010238D02*
X038671Y010238D01*
X038701Y010139D02*
X039303Y010139D01*
X039303Y010041D02*
X038701Y010041D01*
X038669Y009942D02*
X039303Y009942D01*
X039303Y009844D02*
X038605Y009844D01*
X038236Y009450D02*
X038202Y009450D01*
X038062Y009844D02*
X036654Y009844D01*
X035924Y011026D02*
X033376Y011026D01*
X032583Y011592D02*
X032083Y011592D01*
X031571Y011321D02*
X029596Y011321D01*
X029672Y011420D02*
X031494Y011420D01*
X031453Y011518D02*
X029713Y011518D01*
X029713Y011617D02*
X031453Y011617D01*
X031474Y011715D02*
X029693Y011715D01*
X029645Y011814D02*
X031522Y011814D01*
X031629Y011912D02*
X029538Y011912D01*
X030083Y012092D02*
X028333Y012092D01*
X028083Y011842D01*
X028083Y011092D01*
X026583Y011092D01*
X026132Y010927D02*
X024035Y010927D01*
X024063Y011026D02*
X026103Y011026D01*
X026103Y011124D02*
X024063Y011124D01*
X024049Y011223D02*
X026118Y011223D01*
X026159Y011321D02*
X024008Y011321D01*
X023935Y011420D02*
X026232Y011420D01*
X026358Y011518D02*
X023809Y011518D01*
X022677Y011912D02*
X017406Y011912D01*
X017515Y011814D02*
X022579Y011814D01*
X022480Y011715D02*
X017578Y011715D01*
X017616Y011617D02*
X022382Y011617D01*
X022776Y012011D02*
X015523Y012011D01*
X015523Y012109D02*
X022874Y012109D01*
X022973Y012208D02*
X016388Y012208D01*
X016352Y012208D02*
X016314Y012208D01*
X016278Y012208D02*
X015523Y012208D01*
X015539Y012306D02*
X016071Y012306D01*
X015992Y012405D02*
X015632Y012405D01*
X015127Y012306D02*
X013313Y012306D01*
X013313Y012208D02*
X015143Y012208D01*
X015143Y012109D02*
X013313Y012109D01*
X013313Y012011D02*
X015143Y012011D01*
X015143Y011912D02*
X014769Y011912D01*
X014825Y011889D02*
X014649Y011962D01*
X014458Y011962D01*
X014281Y011889D01*
X014146Y011754D01*
X014073Y011578D01*
X014073Y011387D01*
X014146Y011210D01*
X014281Y011075D01*
X014458Y011002D01*
X014649Y011002D01*
X014825Y011075D01*
X014960Y011210D01*
X015033Y011387D01*
X015033Y011578D01*
X014960Y011754D01*
X014825Y011889D01*
X014901Y011814D02*
X015143Y011814D01*
X015143Y011715D02*
X014976Y011715D01*
X015017Y011617D02*
X015143Y011617D01*
X015143Y011518D02*
X015033Y011518D01*
X015033Y011420D02*
X015143Y011420D01*
X015143Y011321D02*
X015006Y011321D01*
X014965Y011223D02*
X015143Y011223D01*
X015143Y011124D02*
X014874Y011124D01*
X014706Y011026D02*
X015143Y011026D01*
X015143Y010927D02*
X013313Y010927D01*
X013313Y010829D02*
X015143Y010829D01*
X015143Y010730D02*
X013313Y010730D01*
X013313Y010632D02*
X015143Y010632D01*
X015143Y010533D02*
X013313Y010533D01*
X013313Y010435D02*
X015222Y010435D01*
X015321Y010336D02*
X013313Y010336D01*
X013313Y010238D02*
X015393Y010238D01*
X015393Y010139D02*
X014753Y010139D01*
X014825Y010109D02*
X014649Y010182D01*
X014458Y010182D01*
X014281Y010109D01*
X014146Y009974D01*
X014073Y009798D01*
X014073Y009607D01*
X014146Y009430D01*
X014281Y009295D01*
X014458Y009222D01*
X014649Y009222D01*
X014825Y009295D01*
X014960Y009430D01*
X015033Y009607D01*
X015033Y009798D01*
X014960Y009974D01*
X014825Y010109D01*
X014894Y010041D02*
X015393Y010041D01*
X015393Y009942D02*
X014973Y009942D01*
X015014Y009844D02*
X015393Y009844D01*
X015393Y009745D02*
X015033Y009745D01*
X015033Y009647D02*
X015393Y009647D01*
X015393Y009548D02*
X015009Y009548D01*
X014968Y009450D02*
X015393Y009450D01*
X015393Y009351D02*
X014881Y009351D01*
X014722Y009253D02*
X015393Y009253D01*
X015393Y009154D02*
X013313Y009154D01*
X013313Y009056D02*
X015393Y009056D01*
X015283Y008957D02*
X015229Y008957D01*
X015233Y008950D02*
X015213Y008984D01*
X015185Y009012D01*
X015151Y009032D01*
X015113Y009042D01*
X014963Y009042D01*
X014963Y008672D01*
X014903Y008672D01*
X014903Y008612D01*
X014623Y008612D01*
X014623Y008372D01*
X014634Y008334D01*
X014653Y008300D01*
X014681Y008272D01*
X014715Y008252D01*
X014754Y008242D01*
X014903Y008242D01*
X014903Y008612D01*
X014963Y008612D01*
X014963Y008242D01*
X015113Y008242D01*
X015151Y008252D01*
X015185Y008272D01*
X015213Y008300D01*
X015233Y008334D01*
X015243Y008372D01*
X015243Y008612D01*
X014963Y008612D01*
X014963Y008672D01*
X015243Y008672D01*
X015243Y008912D01*
X015233Y008950D01*
X015243Y008859D02*
X015263Y008859D01*
X015263Y008760D02*
X015243Y008760D01*
X015263Y008662D02*
X014963Y008662D01*
X014903Y008662D02*
X013313Y008662D01*
X013313Y008760D02*
X014623Y008760D01*
X014623Y008672D02*
X014903Y008672D01*
X014903Y009042D01*
X014754Y009042D01*
X014715Y009032D01*
X014681Y009012D01*
X014653Y008984D01*
X014634Y008950D01*
X014623Y008912D01*
X014623Y008672D01*
X014623Y008563D02*
X013313Y008563D01*
X013281Y008465D02*
X014623Y008465D01*
X014593Y008398D02*
X014529Y008462D01*
X014038Y008462D01*
X013973Y008398D01*
X013973Y007987D01*
X014038Y007922D01*
X014529Y007922D01*
X014593Y007987D01*
X014593Y008398D01*
X014593Y008366D02*
X014625Y008366D01*
X014593Y008268D02*
X014689Y008268D01*
X014593Y008169D02*
X015373Y008169D01*
X015373Y008071D02*
X014593Y008071D01*
X014579Y007972D02*
X015373Y007972D01*
X015373Y007874D02*
X012690Y007874D01*
X012789Y007972D02*
X013988Y007972D01*
X013973Y008071D02*
X012887Y008071D01*
X012986Y008169D02*
X013973Y008169D01*
X013973Y008268D02*
X013084Y008268D01*
X013183Y008366D02*
X013973Y008366D01*
X014903Y008366D02*
X014963Y008366D01*
X014963Y008268D02*
X014903Y008268D01*
X014903Y008465D02*
X014963Y008465D01*
X014963Y008563D02*
X014903Y008563D01*
X014903Y008760D02*
X014963Y008760D01*
X014963Y008859D02*
X014903Y008859D01*
X014903Y008957D02*
X014963Y008957D01*
X014638Y008957D02*
X013313Y008957D01*
X013313Y008859D02*
X014623Y008859D01*
X014384Y009253D02*
X013313Y009253D01*
X013313Y009351D02*
X014225Y009351D01*
X014138Y009450D02*
X013313Y009450D01*
X013313Y009548D02*
X014098Y009548D01*
X014073Y009647D02*
X013313Y009647D01*
X013313Y009745D02*
X014073Y009745D01*
X014092Y009844D02*
X013313Y009844D01*
X013313Y009942D02*
X014133Y009942D01*
X014213Y010041D02*
X013313Y010041D01*
X013313Y010139D02*
X014354Y010139D01*
X015563Y010632D02*
X018923Y010632D01*
X018894Y010533D02*
X015661Y010533D01*
X015760Y010435D02*
X018747Y010435D01*
X018665Y010336D02*
X015773Y010336D01*
X015773Y010238D02*
X018624Y010238D01*
X018766Y010730D02*
X015523Y010730D01*
X015523Y010829D02*
X018673Y010829D01*
X018632Y010927D02*
X015523Y010927D01*
X014401Y011026D02*
X013313Y011026D01*
X013313Y011124D02*
X014232Y011124D01*
X014141Y011223D02*
X013313Y011223D01*
X013313Y011321D02*
X014100Y011321D01*
X014073Y011420D02*
X013313Y011420D01*
X013313Y011518D02*
X014073Y011518D01*
X014090Y011617D02*
X013313Y011617D01*
X013313Y011715D02*
X014130Y011715D01*
X014206Y011814D02*
X013313Y011814D01*
X013313Y011912D02*
X014337Y011912D01*
X015035Y012405D02*
X013313Y012405D01*
X013313Y012503D02*
X014994Y012503D01*
X014986Y012602D02*
X013313Y012602D01*
X013313Y012700D02*
X014953Y012700D01*
X014953Y012799D02*
X013313Y012799D01*
X013313Y012897D02*
X014953Y012897D01*
X014953Y012996D02*
X013313Y012996D01*
X013313Y013094D02*
X014953Y013094D01*
X014953Y013193D02*
X013313Y013193D01*
X013414Y013291D02*
X014953Y013291D01*
X014953Y013390D02*
X013431Y013390D01*
X013431Y013488D02*
X014953Y013488D01*
X014891Y013587D02*
X013431Y013587D01*
X013431Y013685D02*
X014829Y013685D01*
X014796Y013784D02*
X013431Y013784D01*
X013424Y013882D02*
X014796Y013882D01*
X016502Y013685D02*
X017585Y013685D01*
X017945Y013685D02*
X018022Y013685D01*
X018022Y013587D02*
X017945Y013587D01*
X017945Y013488D02*
X018022Y013488D01*
X018022Y013784D02*
X017945Y013784D01*
X017945Y013882D02*
X018022Y013882D01*
X018022Y013981D02*
X017945Y013981D01*
X017945Y014079D02*
X018022Y014079D01*
X018209Y014375D02*
X019353Y014375D01*
X019353Y014473D02*
X018393Y014473D01*
X018491Y014572D02*
X019384Y014572D01*
X019483Y014670D02*
X018532Y014670D01*
X018563Y014769D02*
X019581Y014769D01*
X020086Y014769D02*
X020581Y014769D01*
X020635Y014822D02*
X020353Y014541D01*
X020353Y014143D01*
X020635Y013862D01*
X021032Y013862D01*
X021313Y014143D01*
X021313Y014541D01*
X021032Y014822D01*
X020635Y014822D01*
X020483Y014670D02*
X020184Y014670D01*
X020283Y014572D02*
X020384Y014572D01*
X020353Y014473D02*
X020313Y014473D01*
X020313Y014375D02*
X020353Y014375D01*
X020353Y014276D02*
X020313Y014276D01*
X020313Y014178D02*
X020353Y014178D01*
X020417Y014079D02*
X020249Y014079D01*
X020151Y013981D02*
X020516Y013981D01*
X020614Y013882D02*
X020052Y013882D01*
X020071Y013784D02*
X020596Y013784D01*
X020635Y013822D02*
X020353Y013541D01*
X020353Y013143D01*
X020635Y012862D01*
X021032Y012862D01*
X021313Y013143D01*
X021313Y013541D01*
X021032Y013822D01*
X020635Y013822D01*
X020498Y013685D02*
X020169Y013685D01*
X020268Y013587D02*
X020399Y013587D01*
X020353Y013488D02*
X020313Y013488D01*
X020313Y013390D02*
X020353Y013390D01*
X020353Y013291D02*
X020313Y013291D01*
X020313Y013193D02*
X020353Y013193D01*
X020402Y013094D02*
X020264Y013094D01*
X020166Y012996D02*
X020501Y012996D01*
X020599Y012897D02*
X020067Y012897D01*
X019599Y012897D02*
X016575Y012897D01*
X016352Y012897D02*
X016314Y012897D01*
X016314Y012799D02*
X016352Y012799D01*
X016352Y012700D02*
X016314Y012700D01*
X016314Y012503D02*
X016352Y012503D01*
X016352Y012405D02*
X016314Y012405D01*
X016314Y012306D02*
X016352Y012306D01*
X016596Y012306D02*
X023071Y012306D01*
X023170Y012405D02*
X016674Y012405D01*
X016711Y012503D02*
X027768Y012503D01*
X027833Y012342D02*
X023333Y012342D01*
X023618Y012822D02*
X023783Y012822D01*
X023783Y013292D01*
X023313Y013292D01*
X023313Y013127D01*
X023618Y012822D01*
X023543Y012897D02*
X023067Y012897D01*
X023032Y012862D02*
X023313Y013143D01*
X023313Y013541D01*
X023032Y013822D01*
X022635Y013822D01*
X022353Y013541D01*
X022353Y013143D01*
X022635Y012862D01*
X023032Y012862D01*
X023166Y012996D02*
X023444Y012996D01*
X023346Y013094D02*
X023264Y013094D01*
X023313Y013193D02*
X023313Y013193D01*
X023313Y013291D02*
X023313Y013291D01*
X023313Y013390D02*
X023783Y013390D01*
X023783Y013392D02*
X023783Y013292D01*
X023883Y013292D01*
X023883Y012822D01*
X024049Y012822D01*
X024353Y013127D01*
X024353Y013292D01*
X023883Y013292D01*
X023883Y013392D01*
X023783Y013392D01*
X023313Y013392D01*
X023313Y013558D01*
X023618Y013862D01*
X023783Y013862D01*
X023783Y013392D01*
X023783Y013488D02*
X023883Y013488D01*
X023883Y013392D02*
X023883Y013862D01*
X024049Y013862D01*
X024353Y013558D01*
X024353Y013392D01*
X023883Y013392D01*
X023883Y013390D02*
X024353Y013390D01*
X024353Y013488D02*
X024353Y013488D01*
X024353Y013541D02*
X024353Y013143D01*
X024635Y012862D01*
X025032Y012862D01*
X025313Y013143D01*
X025313Y013541D01*
X025032Y013822D01*
X024635Y013822D01*
X024353Y013541D01*
X024324Y013587D02*
X024399Y013587D01*
X024498Y013685D02*
X024226Y013685D01*
X024127Y013784D02*
X024596Y013784D01*
X024635Y013862D02*
X025032Y013862D01*
X025313Y014143D01*
X025313Y014541D01*
X025032Y014822D01*
X024635Y014822D01*
X024353Y014541D01*
X024353Y014143D01*
X024635Y013862D01*
X024614Y013882D02*
X024052Y013882D01*
X024032Y013862D02*
X024313Y014143D01*
X024313Y014541D01*
X024032Y014822D01*
X023635Y014822D01*
X023353Y014541D01*
X023353Y014143D01*
X023635Y013862D01*
X024032Y013862D01*
X024151Y013981D02*
X024516Y013981D01*
X024417Y014079D02*
X024249Y014079D01*
X024313Y014178D02*
X024353Y014178D01*
X024353Y014276D02*
X024313Y014276D01*
X024313Y014375D02*
X024353Y014375D01*
X024353Y014473D02*
X024313Y014473D01*
X024283Y014572D02*
X024384Y014572D01*
X024483Y014670D02*
X024184Y014670D01*
X024086Y014769D02*
X024581Y014769D01*
X025086Y014769D02*
X025581Y014769D01*
X025635Y014822D02*
X025353Y014541D01*
X025353Y014143D01*
X025635Y013862D01*
X026032Y013862D01*
X026313Y014143D01*
X026313Y014541D01*
X026032Y014822D01*
X025635Y014822D01*
X025483Y014670D02*
X025184Y014670D01*
X025283Y014572D02*
X025384Y014572D01*
X025353Y014473D02*
X025313Y014473D01*
X025313Y014375D02*
X025353Y014375D01*
X025353Y014276D02*
X025313Y014276D01*
X025313Y014178D02*
X025353Y014178D01*
X025417Y014079D02*
X025249Y014079D01*
X025151Y013981D02*
X025516Y013981D01*
X025614Y013882D02*
X025052Y013882D01*
X025071Y013784D02*
X025596Y013784D01*
X025635Y013822D02*
X025353Y013541D01*
X025353Y013143D01*
X025635Y012862D01*
X026032Y012862D01*
X026313Y013143D01*
X026313Y013541D01*
X026032Y013822D01*
X025635Y013822D01*
X025498Y013685D02*
X025169Y013685D01*
X025268Y013587D02*
X025399Y013587D01*
X025353Y013488D02*
X025313Y013488D01*
X025313Y013390D02*
X025353Y013390D01*
X025353Y013291D02*
X025313Y013291D01*
X025313Y013193D02*
X025353Y013193D01*
X025402Y013094D02*
X025264Y013094D01*
X025166Y012996D02*
X025501Y012996D01*
X025599Y012897D02*
X025067Y012897D01*
X024599Y012897D02*
X024124Y012897D01*
X024222Y012996D02*
X024501Y012996D01*
X024402Y013094D02*
X024321Y013094D01*
X024353Y013193D02*
X024353Y013193D01*
X024353Y013291D02*
X024353Y013291D01*
X023883Y013291D02*
X023783Y013291D01*
X023783Y013193D02*
X023883Y013193D01*
X023883Y013094D02*
X023783Y013094D01*
X023783Y012996D02*
X023883Y012996D01*
X023883Y012897D02*
X023783Y012897D01*
X023783Y013587D02*
X023883Y013587D01*
X023883Y013685D02*
X023783Y013685D01*
X023783Y013784D02*
X023883Y013784D01*
X023614Y013882D02*
X023052Y013882D01*
X023032Y013862D02*
X023313Y014143D01*
X023313Y014541D01*
X023032Y014822D01*
X022635Y014822D01*
X022353Y014541D01*
X022353Y014143D01*
X022635Y013862D01*
X023032Y013862D01*
X023071Y013784D02*
X023539Y013784D01*
X023441Y013685D02*
X023169Y013685D01*
X023268Y013587D02*
X023342Y013587D01*
X023313Y013488D02*
X023313Y013488D01*
X022596Y013784D02*
X022071Y013784D01*
X022032Y013822D02*
X021635Y013822D01*
X021353Y013541D01*
X021353Y013143D01*
X021635Y012862D01*
X022032Y012862D01*
X022313Y013143D01*
X022313Y013541D01*
X022032Y013822D01*
X022032Y013862D02*
X022313Y014143D01*
X022313Y014541D01*
X022032Y014822D01*
X021635Y014822D01*
X021353Y014541D01*
X021353Y014143D01*
X021635Y013862D01*
X022032Y013862D01*
X022052Y013882D02*
X022614Y013882D01*
X022516Y013981D02*
X022151Y013981D01*
X022249Y014079D02*
X022417Y014079D01*
X022353Y014178D02*
X022313Y014178D01*
X022313Y014276D02*
X022353Y014276D01*
X022353Y014375D02*
X022313Y014375D01*
X022313Y014473D02*
X022353Y014473D01*
X022384Y014572D02*
X022283Y014572D01*
X022184Y014670D02*
X022483Y014670D01*
X022581Y014769D02*
X022086Y014769D01*
X021581Y014769D02*
X021086Y014769D01*
X021184Y014670D02*
X021483Y014670D01*
X021384Y014572D02*
X021283Y014572D01*
X021313Y014473D02*
X021353Y014473D01*
X021353Y014375D02*
X021313Y014375D01*
X021313Y014276D02*
X021353Y014276D01*
X021353Y014178D02*
X021313Y014178D01*
X021249Y014079D02*
X021417Y014079D01*
X021516Y013981D02*
X021151Y013981D01*
X021052Y013882D02*
X021614Y013882D01*
X021596Y013784D02*
X021071Y013784D01*
X021169Y013685D02*
X021498Y013685D01*
X021399Y013587D02*
X021268Y013587D01*
X021313Y013488D02*
X021353Y013488D01*
X021353Y013390D02*
X021313Y013390D01*
X021313Y013291D02*
X021353Y013291D01*
X021353Y013193D02*
X021313Y013193D01*
X021264Y013094D02*
X021402Y013094D01*
X021501Y012996D02*
X021166Y012996D01*
X021067Y012897D02*
X021599Y012897D01*
X022067Y012897D02*
X022599Y012897D01*
X022501Y012996D02*
X022166Y012996D01*
X022264Y013094D02*
X022402Y013094D01*
X022353Y013193D02*
X022313Y013193D01*
X022313Y013291D02*
X022353Y013291D01*
X022353Y013390D02*
X022313Y013390D01*
X022313Y013488D02*
X022353Y013488D01*
X022399Y013587D02*
X022268Y013587D01*
X022169Y013685D02*
X022498Y013685D01*
X023151Y013981D02*
X023516Y013981D01*
X023417Y014079D02*
X023249Y014079D01*
X023313Y014178D02*
X023353Y014178D01*
X023353Y014276D02*
X023313Y014276D01*
X023313Y014375D02*
X023353Y014375D01*
X023353Y014473D02*
X023313Y014473D01*
X023283Y014572D02*
X023384Y014572D01*
X023483Y014670D02*
X023184Y014670D01*
X023086Y014769D02*
X023581Y014769D01*
X026086Y014769D02*
X026581Y014769D01*
X026483Y014670D02*
X026184Y014670D01*
X026283Y014572D02*
X026384Y014572D01*
X026353Y014473D02*
X026313Y014473D01*
X026313Y014375D02*
X026353Y014375D01*
X026353Y014276D02*
X026313Y014276D01*
X026313Y014178D02*
X026353Y014178D01*
X026417Y014079D02*
X026249Y014079D01*
X026151Y013981D02*
X026516Y013981D01*
X026614Y013882D02*
X026052Y013882D01*
X026071Y013784D02*
X026596Y013784D01*
X026498Y013685D02*
X026169Y013685D01*
X026268Y013587D02*
X026399Y013587D01*
X026353Y013488D02*
X026313Y013488D01*
X026313Y013390D02*
X026353Y013390D01*
X026353Y013291D02*
X026313Y013291D01*
X026313Y013193D02*
X026353Y013193D01*
X026402Y013094D02*
X026264Y013094D01*
X026166Y012996D02*
X026501Y012996D01*
X026599Y012897D02*
X026067Y012897D01*
X027833Y012342D02*
X028083Y012592D01*
X029083Y012592D01*
X028586Y012306D02*
X028024Y012306D01*
X028122Y012405D02*
X028500Y012405D01*
X028223Y012208D02*
X027925Y012208D01*
X028380Y011912D02*
X028629Y011912D01*
X028522Y011814D02*
X028281Y011814D01*
X028243Y011715D02*
X028474Y011715D01*
X028453Y011617D02*
X028243Y011617D01*
X028243Y011518D02*
X028453Y011518D01*
X028494Y011420D02*
X028243Y011420D01*
X028243Y011321D02*
X028571Y011321D01*
X028748Y011223D02*
X028243Y011223D01*
X027923Y011321D02*
X027008Y011321D01*
X026935Y011420D02*
X027923Y011420D01*
X027923Y011518D02*
X026809Y011518D01*
X027035Y010927D02*
X028665Y010927D01*
X028537Y010829D02*
X026994Y010829D01*
X026900Y010730D02*
X028480Y010730D01*
X028453Y010632D02*
X026726Y010632D01*
X026622Y010533D02*
X026545Y010533D01*
X026545Y010435D02*
X026622Y010435D01*
X026622Y010336D02*
X026545Y010336D01*
X026545Y010238D02*
X026622Y010238D01*
X026622Y010139D02*
X026545Y010139D01*
X026545Y010041D02*
X026622Y010041D01*
X026622Y009942D02*
X026545Y009942D01*
X026545Y009844D02*
X026622Y009844D01*
X026622Y009745D02*
X026545Y009745D01*
X026545Y009647D02*
X026622Y009647D01*
X026854Y009647D02*
X028453Y009647D01*
X028453Y009548D02*
X023516Y009548D01*
X023417Y009450D02*
X028482Y009450D01*
X028541Y009351D02*
X023319Y009351D01*
X023220Y009253D02*
X028676Y009253D01*
X028738Y008957D02*
X022384Y008957D01*
X022403Y008859D02*
X028567Y008859D01*
X028492Y008760D02*
X026095Y008760D01*
X026194Y008662D02*
X028453Y008662D01*
X028453Y008563D02*
X026252Y008563D01*
X026293Y008465D02*
X028476Y008465D01*
X028526Y008366D02*
X026293Y008366D01*
X026288Y008268D02*
X028640Y008268D01*
X028727Y007992D02*
X028666Y007972D01*
X028608Y007943D01*
X028556Y007905D01*
X028511Y007859D01*
X028473Y007807D01*
X028443Y007750D01*
X028423Y007688D01*
X028413Y007624D01*
X028413Y007622D01*
X029053Y007622D01*
X029053Y008002D01*
X028791Y008002D01*
X028727Y007992D01*
X028666Y007972D02*
X026071Y007972D01*
X025596Y007972D02*
X022293Y007972D01*
X022293Y007874D02*
X028525Y007874D01*
X028456Y007775D02*
X022293Y007775D01*
X022293Y007677D02*
X028422Y007677D01*
X029053Y007677D02*
X029113Y007677D01*
X029113Y007775D02*
X029053Y007775D01*
X029053Y007874D02*
X029113Y007874D01*
X029113Y007972D02*
X029053Y007972D01*
X029527Y008268D02*
X031572Y008268D01*
X031481Y008366D02*
X029641Y008366D01*
X029691Y008465D02*
X031434Y008465D01*
X032053Y008465D02*
X032113Y008465D01*
X032113Y008366D02*
X032053Y008366D01*
X032053Y008268D02*
X032113Y008268D01*
X032053Y008563D02*
X029713Y008563D01*
X032053Y008760D02*
X032113Y008760D01*
X032113Y008859D02*
X032053Y008859D01*
X032053Y008957D02*
X032113Y008957D01*
X032530Y008957D02*
X032742Y008957D01*
X032656Y008859D02*
X032841Y008859D01*
X032923Y008760D02*
X032718Y008760D01*
X032747Y008662D02*
X032923Y008662D01*
X033083Y008842D02*
X033083Y007702D01*
X033335Y007677D02*
X035442Y007677D01*
X035343Y007578D02*
X033434Y007578D01*
X033532Y007480D02*
X035245Y007480D01*
X035146Y007381D02*
X034083Y007381D01*
X034182Y007283D02*
X035048Y007283D01*
X034949Y007184D02*
X034239Y007184D01*
X034280Y007086D02*
X034851Y007086D01*
X034752Y006987D02*
X034283Y006987D01*
X034283Y006889D02*
X034654Y006889D01*
X036689Y005608D02*
X037088Y005608D01*
X037045Y005510D02*
X036783Y005510D01*
X036840Y005411D02*
X037045Y005411D01*
X037045Y005313D02*
X036872Y005313D01*
X033083Y008842D02*
X032333Y009592D01*
X032083Y009592D01*
X032545Y009154D02*
X022243Y009154D01*
X022243Y009056D02*
X032644Y009056D01*
X028702Y009942D02*
X027081Y009942D01*
X027040Y009844D02*
X028552Y009844D01*
X028486Y009745D02*
X026972Y009745D01*
X026312Y009647D02*
X023762Y009647D01*
X023915Y009745D02*
X026195Y009745D01*
X026126Y009844D02*
X024000Y009844D01*
X024041Y009942D02*
X026085Y009942D01*
X026065Y010041D02*
X024063Y010041D01*
X024063Y010139D02*
X026064Y010139D01*
X026084Y010238D02*
X024043Y010238D01*
X024002Y010336D02*
X026124Y010336D01*
X026190Y010435D02*
X023920Y010435D01*
X023773Y010533D02*
X026306Y010533D01*
X026441Y010632D02*
X023743Y010632D01*
X023900Y010730D02*
X026266Y010730D01*
X026173Y010829D02*
X023994Y010829D01*
X023423Y010632D02*
X022226Y010632D01*
X022205Y010599D02*
X022124Y010612D01*
X022122Y010612D01*
X022122Y010131D01*
X022045Y010131D01*
X022045Y010612D01*
X022042Y010612D01*
X021962Y010599D01*
X021884Y010574D01*
X021811Y010537D01*
X021745Y010489D01*
X021687Y010431D01*
X021639Y010365D01*
X021601Y010292D01*
X021576Y010214D01*
X021563Y010133D01*
X021563Y010131D01*
X022045Y010131D01*
X022045Y010054D01*
X021563Y010054D01*
X021563Y010051D01*
X021576Y009970D01*
X021601Y009893D01*
X021639Y009820D01*
X021687Y009753D01*
X021745Y009695D01*
X021811Y009647D01*
X021884Y009610D01*
X021962Y009585D01*
X022042Y009572D01*
X022045Y009572D01*
X022045Y010054D01*
X022122Y010054D01*
X022122Y010131D01*
X022603Y010131D01*
X022603Y010133D01*
X022591Y010214D01*
X022565Y010292D01*
X022528Y010365D01*
X022480Y010431D01*
X022422Y010489D01*
X022356Y010537D01*
X022283Y010574D01*
X022205Y010599D01*
X022122Y010533D02*
X022045Y010533D01*
X022045Y010435D02*
X022122Y010435D01*
X022122Y010336D02*
X022045Y010336D01*
X022045Y010238D02*
X022122Y010238D01*
X022122Y010139D02*
X022045Y010139D01*
X022045Y010041D02*
X022122Y010041D01*
X022122Y010054D02*
X022122Y009572D01*
X022124Y009572D01*
X022205Y009585D01*
X022283Y009610D01*
X022356Y009647D01*
X022422Y009695D01*
X022480Y009753D01*
X022528Y009820D01*
X022565Y009893D01*
X022591Y009970D01*
X022603Y010051D01*
X022603Y010054D01*
X022122Y010054D01*
X022122Y009942D02*
X022045Y009942D01*
X022045Y009844D02*
X022122Y009844D01*
X022122Y009745D02*
X022045Y009745D01*
X022045Y009647D02*
X022122Y009647D01*
X022354Y009647D02*
X023162Y009647D01*
X023251Y009745D02*
X022472Y009745D01*
X022540Y009844D02*
X023167Y009844D01*
X023126Y009942D02*
X022581Y009942D01*
X022602Y010041D02*
X023103Y010041D01*
X023103Y010139D02*
X022602Y010139D01*
X022583Y010238D02*
X023124Y010238D01*
X023165Y010336D02*
X022543Y010336D01*
X022476Y010435D02*
X023247Y010435D01*
X023394Y010533D02*
X022361Y010533D01*
X022400Y010730D02*
X023266Y010730D01*
X023173Y010829D02*
X022494Y010829D01*
X021941Y010632D02*
X019243Y010632D01*
X019273Y010533D02*
X021806Y010533D01*
X021690Y010435D02*
X019420Y010435D01*
X019502Y010336D02*
X021624Y010336D01*
X021584Y010238D02*
X021164Y010238D01*
X021263Y010139D02*
X021564Y010139D01*
X021565Y010041D02*
X021361Y010041D01*
X021460Y009942D02*
X021585Y009942D01*
X021558Y009844D02*
X021626Y009844D01*
X021657Y009745D02*
X021695Y009745D01*
X021743Y009647D02*
X021812Y009647D01*
X021743Y009548D02*
X023063Y009548D01*
X021965Y009450D02*
X021743Y009450D01*
X021743Y009351D02*
X021923Y009351D01*
X021923Y009253D02*
X021743Y009253D01*
X021743Y009154D02*
X021923Y009154D01*
X021923Y009056D02*
X021743Y009056D01*
X021784Y008957D02*
X021883Y008957D01*
X021863Y008859D02*
X021803Y008859D01*
X021803Y008760D02*
X021863Y008760D01*
X021863Y008662D02*
X021803Y008662D01*
X021803Y008563D02*
X021863Y008563D01*
X021863Y008465D02*
X021803Y008465D01*
X021803Y008366D02*
X021863Y008366D01*
X021863Y008268D02*
X021803Y008268D01*
X022293Y008169D02*
X025419Y008169D01*
X025379Y008268D02*
X022403Y008268D01*
X022403Y008366D02*
X025373Y008366D01*
X025374Y008465D02*
X022403Y008465D01*
X022403Y008563D02*
X025415Y008563D01*
X025473Y008662D02*
X022403Y008662D01*
X022403Y008760D02*
X025571Y008760D01*
X025484Y008071D02*
X022293Y008071D01*
X021303Y009647D02*
X019262Y009647D01*
X019415Y009745D02*
X021204Y009745D01*
X021106Y009844D02*
X019500Y009844D01*
X019400Y010730D02*
X021766Y010730D01*
X021673Y010829D02*
X019494Y010829D01*
X017163Y011715D02*
X017063Y011715D01*
X017063Y011814D02*
X017163Y011814D01*
X017163Y011912D02*
X017063Y011912D01*
X016821Y011912D02*
X015523Y011912D01*
X015523Y011814D02*
X016711Y011814D01*
X016648Y011715D02*
X015523Y011715D01*
X015523Y011617D02*
X016610Y011617D01*
X012853Y011518D02*
X011809Y011518D01*
X011855Y011499D02*
X011679Y011572D01*
X011488Y011572D01*
X011311Y011499D01*
X011176Y011364D01*
X011103Y011188D01*
X011103Y010997D01*
X011176Y010820D01*
X011311Y010685D01*
X011488Y010612D01*
X011679Y010612D01*
X011791Y010658D01*
X011923Y010526D01*
X011923Y009999D01*
X011741Y009999D01*
X011676Y009935D01*
X011676Y009752D01*
X011037Y009752D01*
X010990Y009864D01*
X010855Y009999D01*
X010679Y010072D01*
X010488Y010072D01*
X010311Y009999D01*
X010176Y009864D01*
X010103Y009688D01*
X010103Y009497D01*
X010176Y009320D01*
X010311Y009185D01*
X010488Y009112D01*
X010679Y009112D01*
X010855Y009185D01*
X010990Y009320D01*
X011037Y009432D01*
X011676Y009432D01*
X011676Y009250D01*
X011741Y009185D01*
X012426Y009185D01*
X012490Y009250D01*
X012490Y009935D01*
X012426Y009999D01*
X012243Y009999D01*
X012243Y010658D01*
X012017Y010885D01*
X012063Y010997D01*
X012063Y011188D01*
X011990Y011364D01*
X011855Y011499D01*
X011935Y011420D02*
X012853Y011420D01*
X012853Y011321D02*
X012008Y011321D01*
X012049Y011223D02*
X012853Y011223D01*
X012853Y011124D02*
X012063Y011124D01*
X012063Y011026D02*
X012853Y011026D01*
X012853Y010927D02*
X012035Y010927D01*
X012073Y010829D02*
X012853Y010829D01*
X012853Y010730D02*
X012172Y010730D01*
X012243Y010632D02*
X012853Y010632D01*
X012853Y010533D02*
X012243Y010533D01*
X012243Y010435D02*
X012853Y010435D01*
X012853Y010336D02*
X012243Y010336D01*
X012243Y010238D02*
X012853Y010238D01*
X012853Y010139D02*
X012243Y010139D01*
X012243Y010041D02*
X012853Y010041D01*
X012853Y009942D02*
X012483Y009942D01*
X012490Y009844D02*
X012853Y009844D01*
X012853Y009745D02*
X012490Y009745D01*
X012490Y009647D02*
X012853Y009647D01*
X012853Y009548D02*
X012490Y009548D01*
X012490Y009450D02*
X012853Y009450D01*
X012853Y009351D02*
X012490Y009351D01*
X012490Y009253D02*
X012853Y009253D01*
X012853Y009154D02*
X010780Y009154D01*
X010923Y009253D02*
X011676Y009253D01*
X011676Y009351D02*
X011003Y009351D01*
X010386Y009154D02*
X009780Y009154D01*
X009855Y009185D02*
X009679Y009112D01*
X009488Y009112D01*
X009311Y009185D01*
X009176Y009320D01*
X009103Y009497D01*
X009103Y009688D01*
X009176Y009864D01*
X009311Y009999D01*
X009488Y010072D01*
X009679Y010072D01*
X009855Y009999D01*
X009990Y009864D01*
X010063Y009688D01*
X010063Y009497D01*
X009990Y009320D01*
X009855Y009185D01*
X009923Y009253D02*
X010244Y009253D01*
X010164Y009351D02*
X010003Y009351D01*
X010044Y009450D02*
X010123Y009450D01*
X010103Y009548D02*
X010063Y009548D01*
X010063Y009647D02*
X010103Y009647D01*
X010127Y009745D02*
X010039Y009745D01*
X009999Y009844D02*
X010168Y009844D01*
X010255Y009942D02*
X009912Y009942D01*
X009755Y010041D02*
X010412Y010041D01*
X010755Y010041D02*
X011923Y010041D01*
X011923Y010139D02*
X008743Y010139D01*
X008743Y010238D02*
X011923Y010238D01*
X011923Y010336D02*
X008743Y010336D01*
X008743Y010435D02*
X011923Y010435D01*
X011916Y010533D02*
X008743Y010533D01*
X008743Y010632D02*
X011441Y010632D01*
X011266Y010730D02*
X008900Y010730D01*
X008994Y010829D02*
X011173Y010829D01*
X011132Y010927D02*
X009035Y010927D01*
X009063Y011026D02*
X011103Y011026D01*
X011103Y011124D02*
X009063Y011124D01*
X009049Y011223D02*
X011118Y011223D01*
X011159Y011321D02*
X009008Y011321D01*
X008935Y011420D02*
X011232Y011420D01*
X011358Y011518D02*
X008809Y011518D01*
X011583Y011092D02*
X012083Y010592D01*
X012083Y009592D01*
X010583Y009592D01*
X010999Y009844D02*
X011676Y009844D01*
X011684Y009942D02*
X010912Y009942D01*
X011726Y010632D02*
X011818Y010632D01*
X009412Y010041D02*
X008755Y010041D01*
X008912Y009942D02*
X009255Y009942D01*
X009168Y009844D02*
X008999Y009844D01*
X009039Y009745D02*
X009127Y009745D01*
X009103Y009647D02*
X009063Y009647D01*
X009063Y009548D02*
X009103Y009548D01*
X009123Y009450D02*
X009044Y009450D01*
X009003Y009351D02*
X009164Y009351D01*
X009244Y009253D02*
X008923Y009253D01*
X008780Y009154D02*
X009386Y009154D01*
X008743Y009056D02*
X012853Y009056D01*
X012853Y008957D02*
X012265Y008957D01*
X012392Y008859D02*
X012853Y008859D01*
X012853Y008760D02*
X012454Y008760D01*
X012490Y008662D02*
X012828Y008662D01*
X012729Y008563D02*
X012490Y008563D01*
X012471Y008465D02*
X012631Y008465D01*
X012532Y008366D02*
X012430Y008366D01*
X012434Y008268D02*
X012334Y008268D01*
X012335Y008169D02*
X011986Y008169D01*
X011887Y008071D02*
X012237Y008071D01*
X011938Y007972D02*
X011789Y007972D01*
X011789Y007874D02*
X011690Y007874D01*
X011719Y007775D02*
X011592Y007775D01*
X011678Y007677D02*
X011493Y007677D01*
X011395Y007578D02*
X011676Y007578D01*
X011690Y007480D02*
X011296Y007480D01*
X011198Y007381D02*
X011730Y007381D01*
X011817Y007283D02*
X011099Y007283D01*
X011001Y007184D02*
X013973Y007184D01*
X013973Y007086D02*
X010902Y007086D01*
X010867Y006987D02*
X013973Y006987D01*
X013973Y006889D02*
X010966Y006889D01*
X011021Y006790D02*
X013973Y006790D01*
X014693Y006889D02*
X015768Y006889D01*
X015670Y006987D02*
X014693Y006987D01*
X014693Y007086D02*
X015571Y007086D01*
X015505Y007152D02*
X015505Y007152D01*
X015473Y007184D02*
X014693Y007184D01*
X014629Y007322D02*
X014038Y007322D01*
X013973Y007387D01*
X013973Y007798D01*
X014038Y007862D01*
X014629Y007862D01*
X014693Y007798D01*
X014693Y007387D01*
X014629Y007322D01*
X014688Y007381D02*
X015373Y007381D01*
X015373Y007480D02*
X014693Y007480D01*
X014693Y007578D02*
X015373Y007578D01*
X015373Y007677D02*
X014693Y007677D01*
X014693Y007775D02*
X015373Y007775D01*
X015263Y008268D02*
X015178Y008268D01*
X015242Y008366D02*
X015263Y008366D01*
X015263Y008465D02*
X015243Y008465D01*
X015243Y008563D02*
X015263Y008563D01*
X015533Y008592D02*
X015533Y007392D01*
X015833Y007092D01*
X015643Y007013D02*
X015643Y007013D01*
X015393Y007283D02*
X012349Y007283D01*
X012436Y007381D02*
X013979Y007381D01*
X013973Y007480D02*
X012477Y007480D01*
X012490Y007578D02*
X013973Y007578D01*
X013973Y007677D02*
X012493Y007677D01*
X012592Y007775D02*
X013973Y007775D01*
X011901Y008957D02*
X008743Y008957D01*
X008743Y008859D02*
X011774Y008859D01*
X011713Y008760D02*
X008743Y008760D01*
X008743Y008662D02*
X011676Y008662D01*
X011676Y008563D02*
X008743Y008563D01*
X008743Y008465D02*
X011631Y008465D01*
X011532Y008366D02*
X008743Y008366D01*
X008743Y008268D02*
X011434Y008268D01*
X011335Y008169D02*
X008743Y008169D01*
X008743Y008071D02*
X011237Y008071D01*
X011138Y007972D02*
X008743Y007972D01*
X008743Y007874D02*
X011040Y007874D01*
X010941Y007775D02*
X008743Y007775D01*
X008644Y007677D02*
X010843Y007677D01*
X010744Y007578D02*
X008546Y007578D01*
X008447Y007480D02*
X010646Y007480D01*
X010547Y007381D02*
X008349Y007381D01*
X008250Y007283D02*
X010449Y007283D01*
X010353Y007184D02*
X008152Y007184D01*
X008053Y007086D02*
X008419Y007086D01*
X008384Y007074D02*
X008311Y007037D01*
X008245Y006989D01*
X008187Y006931D01*
X008139Y006865D01*
X008101Y006792D01*
X008076Y006714D01*
X008063Y006633D01*
X008063Y006631D01*
X008545Y006631D01*
X008545Y007112D01*
X008542Y007112D01*
X008462Y007099D01*
X008384Y007074D01*
X008545Y007086D02*
X008622Y007086D01*
X008622Y007112D02*
X008622Y006631D01*
X008545Y006631D01*
X008545Y006554D01*
X008063Y006554D01*
X008063Y006551D01*
X008076Y006470D01*
X008101Y006393D01*
X008139Y006320D01*
X008187Y006253D01*
X008245Y006195D01*
X008311Y006147D01*
X008384Y006110D01*
X008462Y006085D01*
X008542Y006072D01*
X008545Y006072D01*
X008545Y006554D01*
X008622Y006554D01*
X008622Y006631D01*
X009103Y006631D01*
X009103Y006633D01*
X009091Y006714D01*
X009065Y006792D01*
X009028Y006865D01*
X008980Y006931D01*
X008922Y006989D01*
X008856Y007037D01*
X008783Y007074D01*
X008705Y007099D01*
X008624Y007112D01*
X008622Y007112D01*
X008622Y006987D02*
X008545Y006987D01*
X008545Y006889D02*
X008622Y006889D01*
X008622Y006790D02*
X008545Y006790D01*
X008545Y006692D02*
X008622Y006692D01*
X008622Y006593D02*
X009103Y006593D01*
X009103Y006554D02*
X008622Y006554D01*
X008622Y006072D01*
X008624Y006072D01*
X008705Y006085D01*
X008783Y006110D01*
X008856Y006147D01*
X008922Y006195D01*
X008980Y006253D01*
X009028Y006320D01*
X009065Y006393D01*
X009091Y006470D01*
X009103Y006551D01*
X009103Y006554D01*
X009094Y006495D02*
X009104Y006495D01*
X009066Y006396D02*
X009145Y006396D01*
X009199Y006298D02*
X009012Y006298D01*
X008926Y006199D02*
X009297Y006199D01*
X008753Y006101D02*
X010750Y006101D01*
X010297Y006199D02*
X009869Y006199D01*
X009968Y006298D02*
X010199Y006298D01*
X009146Y006790D02*
X009066Y006790D01*
X009094Y006692D02*
X009105Y006692D01*
X008622Y006495D02*
X008545Y006495D01*
X008545Y006593D02*
X007561Y006593D01*
X007659Y006692D02*
X008073Y006692D01*
X008101Y006790D02*
X007758Y006790D01*
X007856Y006889D02*
X008156Y006889D01*
X008243Y006987D02*
X007955Y006987D01*
X008747Y007086D02*
X010353Y007086D01*
X010300Y006987D02*
X009867Y006987D01*
X009966Y006889D02*
X010201Y006889D01*
X009300Y006987D02*
X008924Y006987D01*
X009011Y006889D02*
X009201Y006889D01*
X008622Y006396D02*
X008545Y006396D01*
X008545Y006298D02*
X008622Y006298D01*
X008622Y006199D02*
X008545Y006199D01*
X008545Y006101D02*
X008622Y006101D01*
X008413Y006101D02*
X007068Y006101D01*
X007167Y006199D02*
X008241Y006199D01*
X008155Y006298D02*
X007265Y006298D01*
X007364Y006396D02*
X008100Y006396D01*
X008072Y006495D02*
X007462Y006495D01*
X005577Y007578D02*
X004165Y007578D01*
X004897Y006593D02*
X000833Y006593D01*
X000833Y006495D02*
X004732Y006495D01*
X004621Y006396D02*
X000833Y006396D01*
X000833Y006298D02*
X004537Y006298D01*
X004473Y006199D02*
X000833Y006199D01*
X000833Y006101D02*
X004426Y006101D01*
X004391Y006002D02*
X004368Y005899D01*
X007533Y004426D02*
X007633Y004426D01*
X007633Y004328D02*
X007533Y004328D01*
X008697Y003638D02*
X005484Y003638D01*
X005417Y003540D02*
X008698Y003540D01*
X008726Y003441D02*
X007812Y003441D01*
X007913Y003343D02*
X008784Y003343D01*
X007355Y003441D02*
X005288Y003441D01*
X005133Y003441D02*
X005033Y003441D01*
X005033Y003540D02*
X005133Y003540D01*
X005133Y003638D02*
X005033Y003638D01*
X004642Y003934D02*
X004509Y003934D01*
X004657Y004032D02*
X004675Y004032D01*
X016995Y006199D02*
X021373Y006199D01*
X021373Y006101D02*
X017094Y006101D01*
X017192Y006002D02*
X021373Y006002D01*
X021373Y005904D02*
X017291Y005904D01*
X017389Y005805D02*
X021373Y005805D01*
X024333Y002842D02*
X024833Y002342D01*
X022892Y002161D02*
X022275Y002161D01*
X022383Y002062D02*
X022784Y002062D01*
X022736Y001964D02*
X022431Y001964D01*
X022451Y001865D02*
X022716Y001865D01*
X022717Y001767D02*
X022450Y001767D01*
X022409Y001668D02*
X022758Y001668D01*
X022836Y001570D02*
X022331Y001570D01*
X021836Y001570D02*
X021387Y001570D01*
X021452Y001668D02*
X021758Y001668D01*
X021717Y001767D02*
X021484Y001767D01*
X020828Y002161D02*
X020435Y002161D01*
X020451Y002062D02*
X020740Y002062D01*
X020694Y001964D02*
X020451Y001964D01*
X019716Y001964D02*
X019053Y001964D01*
X019063Y001865D02*
X019716Y001865D01*
X019716Y001767D02*
X019063Y001767D01*
X019031Y001668D02*
X019716Y001668D01*
X019716Y001570D02*
X018990Y001570D01*
X018891Y001471D02*
X019936Y001471D01*
X020034Y001373D02*
X018704Y001373D01*
X018462Y001373D02*
X018340Y001373D01*
X018242Y001274D02*
X020133Y001274D01*
X020231Y001176D02*
X018143Y001176D01*
X018045Y001077D02*
X020330Y001077D01*
X020428Y000979D02*
X017946Y000979D01*
X019030Y002062D02*
X019716Y002062D01*
X019731Y002161D02*
X019128Y002161D01*
X027083Y010238D02*
X028712Y010238D01*
X028556Y010336D02*
X027043Y010336D01*
X026976Y010435D02*
X028488Y010435D01*
X028453Y010533D02*
X026861Y010533D01*
X029418Y011223D02*
X031748Y011223D01*
X032581Y012306D02*
X032643Y012306D01*
X033096Y012306D02*
X033464Y012306D01*
X033359Y012430D02*
X033321Y012503D01*
X033293Y012602D02*
X032800Y012602D01*
X034143Y012306D02*
X036080Y012306D01*
X036646Y012306D02*
X037173Y012306D01*
X037173Y012405D02*
X036745Y012405D01*
X036800Y012503D02*
X037173Y012503D01*
X037173Y012602D02*
X036841Y012602D01*
X036843Y012700D02*
X037173Y012700D01*
X037173Y012799D02*
X036843Y012799D01*
X036802Y012897D02*
X037173Y012897D01*
X037173Y012996D02*
X036749Y012996D01*
X036650Y013094D02*
X037105Y013094D01*
X037333Y013092D02*
X037333Y012092D01*
X038333Y011092D01*
X037966Y011124D02*
X036708Y011124D01*
X036893Y011223D02*
X037977Y011223D01*
X037878Y011321D02*
X036991Y011321D01*
X037031Y011420D02*
X037780Y011420D01*
X037681Y011518D02*
X037063Y011518D01*
X037063Y011617D02*
X037583Y011617D01*
X037484Y011715D02*
X037052Y011715D01*
X037011Y011814D02*
X037386Y011814D01*
X037287Y011912D02*
X036942Y011912D01*
X036827Y012011D02*
X037189Y012011D01*
X038333Y012092D02*
X038333Y012842D01*
X037333Y013842D01*
X033333Y013842D01*
X032583Y014592D01*
X032083Y014592D01*
X031518Y014375D02*
X029649Y014375D01*
X029547Y014276D02*
X031619Y014276D01*
X031472Y014473D02*
X030691Y014473D01*
X030789Y014572D02*
X031453Y014572D01*
X031455Y014670D02*
X030888Y014670D01*
X030986Y014769D02*
X031496Y014769D01*
X031575Y014867D02*
X031085Y014867D01*
X031083Y015092D02*
X033193Y015092D01*
X033803Y014482D01*
X034245Y014670D02*
X035922Y014670D01*
X035956Y014754D02*
X035883Y014578D01*
X035883Y014387D01*
X035956Y014210D01*
X036091Y014075D01*
X036268Y014002D01*
X036459Y014002D01*
X036635Y014075D01*
X036770Y014210D01*
X036843Y014387D01*
X036843Y014578D01*
X036770Y014754D01*
X036635Y014889D01*
X036459Y014962D01*
X036268Y014962D01*
X036091Y014889D01*
X035956Y014754D01*
X035971Y014769D02*
X034196Y014769D01*
X034097Y014867D02*
X036070Y014867D01*
X035883Y014572D02*
X034283Y014572D01*
X034283Y014473D02*
X035883Y014473D01*
X035888Y014375D02*
X034278Y014375D01*
X034238Y014276D02*
X035929Y014276D01*
X035989Y014178D02*
X034178Y014178D01*
X034079Y014079D02*
X036087Y014079D01*
X036639Y014079D02*
X037783Y014079D01*
X037619Y014147D02*
X037619Y014147D01*
X037588Y014178D02*
X036738Y014178D01*
X036798Y014276D02*
X037490Y014276D01*
X037391Y014375D02*
X036838Y014375D01*
X036843Y014473D02*
X037349Y014473D01*
X037308Y014572D02*
X036843Y014572D01*
X036805Y014670D02*
X037267Y014670D01*
X037263Y014769D02*
X036756Y014769D01*
X036657Y014867D02*
X037263Y014867D01*
X037263Y014966D02*
X033546Y014966D01*
X033448Y015064D02*
X037288Y015064D01*
X037329Y015163D02*
X033349Y015163D01*
X033192Y014867D02*
X032592Y014867D01*
X032671Y014769D02*
X033291Y014769D01*
X033362Y014670D02*
X032732Y014670D01*
X032830Y014572D02*
X033323Y014572D01*
X033323Y014473D02*
X032929Y014473D01*
X033027Y014375D02*
X033328Y014375D01*
X033369Y014276D02*
X033126Y014276D01*
X033224Y014178D02*
X033429Y014178D01*
X033527Y014079D02*
X033323Y014079D01*
X032870Y014079D02*
X027249Y014079D01*
X027313Y014178D02*
X032772Y014178D01*
X032673Y014276D02*
X032547Y014276D01*
X032833Y013592D02*
X032083Y013592D01*
X032566Y013291D02*
X032908Y013291D01*
X032810Y013390D02*
X032660Y013390D01*
X032833Y013592D02*
X033083Y013342D01*
X037083Y013342D01*
X037333Y013092D01*
X037815Y013587D02*
X039303Y013587D01*
X039303Y013685D02*
X037717Y013685D01*
X037618Y013784D02*
X039303Y013784D01*
X039303Y013882D02*
X037520Y013882D01*
X037421Y013981D02*
X039303Y013981D01*
X039303Y014079D02*
X038384Y014079D01*
X038548Y014147D02*
X038548Y014147D01*
X038579Y014178D02*
X039303Y014178D01*
X039303Y014276D02*
X038677Y014276D01*
X038776Y014375D02*
X039303Y014375D01*
X039303Y014473D02*
X038818Y014473D01*
X038778Y014378D02*
X038778Y014378D01*
X038859Y014572D02*
X039303Y014572D01*
X039303Y014670D02*
X038900Y014670D01*
X038903Y014769D02*
X039303Y014769D01*
X039303Y014867D02*
X038903Y014867D01*
X038903Y014966D02*
X039303Y014966D01*
X039303Y015064D02*
X038879Y015064D01*
X038838Y015163D02*
X039303Y015163D01*
X039303Y015261D02*
X038797Y015261D01*
X038725Y015360D02*
X039303Y015360D01*
X039303Y015458D02*
X038627Y015458D01*
X038501Y015557D02*
X039303Y015557D01*
X039303Y015655D02*
X038263Y015655D01*
X037903Y015655D02*
X002263Y015655D01*
X002501Y015557D02*
X037666Y015557D01*
X037619Y015537D02*
X037619Y015537D01*
X037540Y015458D02*
X002627Y015458D01*
X001903Y015655D02*
X000833Y015655D01*
X000833Y015557D02*
X001666Y015557D01*
X001619Y015537D02*
X001619Y015537D01*
X001540Y015458D02*
X000833Y015458D01*
X000833Y015360D02*
X001441Y015360D01*
X001369Y015261D02*
X000833Y015261D01*
X000833Y015163D02*
X001329Y015163D01*
X001288Y015064D02*
X000833Y015064D01*
X000833Y014966D02*
X001263Y014966D01*
X001263Y014867D02*
X000833Y014867D01*
X000833Y014769D02*
X001263Y014769D01*
X001267Y014670D02*
X000833Y014670D01*
X000833Y014572D02*
X001308Y014572D01*
X001349Y014473D02*
X000833Y014473D01*
X000833Y014375D02*
X001391Y014375D01*
X001490Y014276D02*
X000833Y014276D01*
X000833Y014178D02*
X001588Y014178D01*
X001619Y014147D02*
X001619Y014147D01*
X001783Y014079D02*
X000833Y014079D01*
X000833Y013981D02*
X004697Y013981D01*
X004673Y013882D02*
X000833Y013882D01*
X000833Y013784D02*
X004673Y013784D01*
X004705Y013685D02*
X000833Y013685D01*
X000833Y013587D02*
X004753Y013587D01*
X004654Y013488D02*
X000833Y013488D01*
X000833Y013390D02*
X004556Y013390D01*
X004457Y013291D02*
X000833Y013291D01*
X000833Y013193D02*
X004359Y013193D01*
X004260Y013094D02*
X000833Y013094D01*
X000833Y012996D02*
X001844Y012996D01*
X001732Y012897D02*
X000833Y012897D01*
X000833Y012799D02*
X001666Y012799D01*
X001625Y012700D02*
X000833Y012700D01*
X000833Y012602D02*
X001619Y012602D01*
X001619Y012503D02*
X000833Y012503D01*
X000833Y012405D02*
X001658Y012405D01*
X001713Y012306D02*
X000833Y012306D01*
X000833Y012208D02*
X001811Y012208D01*
X002356Y012208D02*
X003853Y012208D01*
X003853Y012306D02*
X002454Y012306D01*
X002508Y012405D02*
X003853Y012405D01*
X003853Y012503D02*
X002548Y012503D01*
X002548Y012602D02*
X003853Y012602D01*
X003866Y012700D02*
X002541Y012700D01*
X002500Y012799D02*
X003965Y012799D01*
X004063Y012897D02*
X002435Y012897D01*
X002322Y012996D02*
X004162Y012996D01*
X004911Y013094D02*
X006359Y013094D01*
X006458Y013193D02*
X005009Y013193D01*
X005108Y013291D02*
X006556Y013291D01*
X007798Y012897D02*
X012063Y012897D01*
X012615Y012799D02*
X012853Y012799D01*
X012853Y012897D02*
X012714Y012897D01*
X012812Y012996D02*
X012853Y012996D01*
X012853Y012700D02*
X012517Y012700D01*
X012418Y012602D02*
X012853Y012602D01*
X012853Y012503D02*
X012320Y012503D01*
X012221Y012405D02*
X012853Y012405D01*
X012556Y013390D02*
X010404Y013390D01*
X010453Y013488D02*
X012654Y013488D01*
X012736Y013587D02*
X010453Y013587D01*
X010453Y013685D02*
X012736Y013685D01*
X012736Y013784D02*
X010415Y013784D01*
X010317Y013882D02*
X012742Y013882D01*
X018442Y015163D02*
X030928Y015163D01*
X030829Y015064D02*
X018511Y015064D01*
X018552Y014966D02*
X030731Y014966D01*
X030632Y014867D02*
X029592Y014867D01*
X029671Y014769D02*
X030534Y014769D01*
X030583Y014592D02*
X031083Y015092D01*
X030583Y014592D02*
X029083Y014592D01*
X028619Y014276D02*
X027313Y014276D01*
X027313Y014375D02*
X028518Y014375D01*
X028472Y014473D02*
X027313Y014473D01*
X027283Y014572D02*
X028453Y014572D01*
X028455Y014670D02*
X027184Y014670D01*
X027086Y014769D02*
X028496Y014769D01*
X028575Y014867D02*
X018563Y014867D01*
X005782Y014178D02*
X005328Y014178D01*
X005426Y014079D02*
X005699Y014079D01*
X005655Y013981D02*
X005470Y013981D01*
X000833Y015754D02*
X039303Y015754D01*
X039303Y015852D02*
X000833Y015852D01*
X000833Y015951D02*
X039303Y015951D01*
X039303Y016049D02*
X000833Y016049D01*
X037914Y013488D02*
X039303Y013488D01*
X039303Y013390D02*
X038012Y013390D01*
X038111Y013291D02*
X039303Y013291D01*
X039303Y013193D02*
X038209Y013193D01*
X038308Y013094D02*
X039303Y013094D01*
X039303Y012996D02*
X038406Y012996D01*
X038493Y012897D02*
X039303Y012897D01*
X039303Y012799D02*
X038493Y012799D01*
X038493Y012700D02*
X039303Y012700D01*
X039303Y012602D02*
X038493Y012602D01*
X038493Y012503D02*
X039303Y012503D01*
X039303Y012405D02*
X038691Y012405D01*
X038701Y012306D02*
X039303Y012306D01*
X039303Y012208D02*
X038701Y012208D01*
X038701Y012109D02*
X039303Y012109D01*
X039303Y012011D02*
X038701Y012011D01*
X038701Y011912D02*
X039303Y011912D01*
X039303Y011814D02*
X038701Y011814D01*
D33*
X018083Y014842D02*
X017333Y014842D01*
X016333Y013842D01*
X015183Y013842D01*
X015183Y012742D01*
X015333Y012592D01*
X013083Y013592D02*
X013083Y008592D01*
X012083Y007592D01*
X012083Y008592D02*
X010583Y007092D01*
X010583Y006592D01*
X009583Y006592D01*
X010583Y006592D02*
X012083Y005092D01*
X012083Y004092D01*
X010083Y004092D01*
X010083Y003592D01*
X010083Y002342D01*
X008083Y002342D01*
X008083Y002592D01*
X007583Y003092D01*
X006477Y007592D02*
X004083Y009986D01*
X004083Y010842D01*
X004083Y012592D01*
X005083Y013592D01*
X005083Y013842D01*
X007583Y012592D02*
X012083Y012592D01*
X013083Y013592D01*
X003083Y010842D02*
X002083Y012092D01*
X002083Y012592D01*
D34*
X020083Y005342D03*
X021833Y005342D03*
X022583Y006592D03*
X017333Y002342D03*
X037333Y005342D03*
D35*
X024833Y001342D02*
X024583Y001092D01*
X020583Y001092D01*
X020083Y001592D01*
X020083Y001842D01*
X020083Y005342D02*
X017583Y005342D01*
X015833Y007092D01*
X015583Y007342D01*
X015583Y010342D01*
X015333Y010592D01*
X015333Y012592D01*
M02*
