G75*
G70*
%OFA0B0*%
%FSLAX24Y24*%
%IPPOS*%
%LPD*%
%AMOC8*
5,1,8,0,0,1.08239X$1,22.5*
%
%ADD10C,0.0060*%
%ADD11C,0.0110*%
%ADD12C,0.0080*%
%ADD13C,0.0040*%
%ADD14C,0.0025*%
%ADD15C,0.0050*%
%ADD16C,0.0030*%
%ADD17C,0.0010*%
%ADD18C,0.0020*%
%ADD19C,0.0100*%
%ADD20C,0.0160*%
%ADD21R,0.0160X0.0230*%
D10*
X008613Y002622D02*
X008840Y002622D01*
X008727Y002622D02*
X008727Y002962D01*
X008613Y002849D01*
X008982Y002906D02*
X008982Y002679D01*
X009209Y002906D01*
X009209Y002679D01*
X009152Y002622D01*
X009038Y002622D01*
X008982Y002679D01*
X008982Y002906D02*
X009038Y002962D01*
X009152Y002962D01*
X009209Y002906D01*
X009350Y002849D02*
X009350Y002679D01*
X009407Y002622D01*
X009577Y002622D01*
X009577Y002849D01*
X009718Y002792D02*
X009832Y002792D01*
X009718Y002622D02*
X009718Y002962D01*
X009945Y002962D01*
X012713Y003179D02*
X012770Y003122D01*
X012997Y003122D01*
X012770Y003349D01*
X012997Y003349D01*
X013053Y003292D01*
X013053Y003179D01*
X012997Y003122D01*
X012713Y003179D02*
X012713Y003292D01*
X012770Y003349D01*
X012997Y003490D02*
X012997Y003547D01*
X013053Y003547D01*
X013053Y003490D01*
X012997Y003490D01*
X013053Y003675D02*
X013053Y003901D01*
X013053Y003788D02*
X012713Y003788D01*
X012826Y003675D01*
X012826Y004043D02*
X012997Y004043D01*
X013053Y004100D01*
X013053Y004270D01*
X012826Y004270D01*
X012883Y004411D02*
X012883Y004525D01*
X012713Y004411D02*
X012713Y004638D01*
X012713Y004411D02*
X013053Y004411D01*
X012745Y006222D02*
X012745Y006279D01*
X012972Y006506D01*
X012972Y006562D01*
X012745Y006562D01*
X012490Y006562D02*
X012377Y006449D01*
X012235Y006449D02*
X012179Y006392D01*
X012235Y006336D01*
X012235Y006279D01*
X012179Y006222D01*
X012065Y006222D01*
X012008Y006279D01*
X011867Y006222D02*
X011867Y006562D01*
X011754Y006449D01*
X011640Y006562D01*
X011640Y006222D01*
X011499Y006222D02*
X011272Y006222D01*
X011272Y006562D01*
X012008Y006506D02*
X012065Y006562D01*
X012179Y006562D01*
X012235Y006506D01*
X012235Y006449D01*
X012179Y006392D02*
X012122Y006392D01*
X012377Y006222D02*
X012604Y006222D01*
X012490Y006222D02*
X012490Y006562D01*
X010803Y007817D02*
X010576Y008044D01*
X010520Y008044D01*
X010463Y007987D01*
X010463Y007874D01*
X010520Y007817D01*
X010803Y007817D02*
X010803Y008044D01*
X010633Y008185D02*
X010633Y008412D01*
X010463Y008356D02*
X010633Y008185D01*
X010803Y008356D02*
X010463Y008356D01*
X010520Y008554D02*
X010463Y008611D01*
X010463Y008724D01*
X010520Y008781D01*
X010747Y008554D01*
X010803Y008611D01*
X010803Y008724D01*
X010747Y008781D01*
X010520Y008781D01*
X010520Y008554D02*
X010747Y008554D01*
X009803Y008611D02*
X009747Y008554D01*
X009520Y008781D01*
X009747Y008781D01*
X009803Y008724D01*
X009803Y008611D01*
X009747Y008554D02*
X009520Y008554D01*
X009463Y008611D01*
X009463Y008724D01*
X009520Y008781D01*
X009520Y008412D02*
X009576Y008412D01*
X009633Y008356D01*
X009690Y008412D01*
X009747Y008412D01*
X009803Y008356D01*
X009803Y008242D01*
X009747Y008185D01*
X009747Y008044D02*
X009803Y007987D01*
X009803Y007874D01*
X009747Y007817D01*
X009633Y007931D02*
X009633Y007987D01*
X009690Y008044D01*
X009747Y008044D01*
X009633Y007987D02*
X009576Y008044D01*
X009520Y008044D01*
X009463Y007987D01*
X009463Y007874D01*
X009520Y007817D01*
X009520Y008185D02*
X009463Y008242D01*
X009463Y008356D01*
X009520Y008412D01*
X009633Y008356D02*
X009633Y008299D01*
X008703Y008229D02*
X008703Y008115D01*
X008647Y008059D01*
X008420Y008286D01*
X008647Y008286D01*
X008703Y008229D01*
X008647Y008059D02*
X008420Y008059D01*
X008363Y008115D01*
X008363Y008229D01*
X008420Y008286D01*
X008420Y007917D02*
X008476Y007917D01*
X008533Y007861D01*
X008590Y007917D01*
X008647Y007917D01*
X008703Y007861D01*
X008703Y007747D01*
X008647Y007690D01*
X008647Y007549D02*
X008703Y007492D01*
X008703Y007379D01*
X008647Y007322D01*
X008533Y007436D02*
X008533Y007492D01*
X008590Y007549D01*
X008647Y007549D01*
X008533Y007492D02*
X008476Y007549D01*
X008420Y007549D01*
X008363Y007492D01*
X008363Y007379D01*
X008420Y007322D01*
X008420Y007690D02*
X008363Y007747D01*
X008363Y007861D01*
X008420Y007917D01*
X008533Y007861D02*
X008533Y007804D01*
X005073Y009622D02*
X005073Y009962D01*
X005300Y009962D01*
X005187Y009792D02*
X005073Y009792D01*
X004932Y009962D02*
X004705Y009962D01*
X004705Y009622D01*
X004563Y009679D02*
X004563Y009906D01*
X004507Y009962D01*
X004393Y009962D01*
X004337Y009906D01*
X004337Y009679D01*
X004393Y009622D01*
X004507Y009622D01*
X004563Y009679D01*
X004705Y009792D02*
X004818Y009792D01*
X003459Y009622D02*
X003459Y009962D01*
X003232Y009962D02*
X003459Y009622D01*
X003232Y009622D02*
X003232Y009962D01*
X003090Y009906D02*
X003033Y009962D01*
X002920Y009962D01*
X002863Y009906D01*
X002863Y009679D01*
X002920Y009622D01*
X003033Y009622D01*
X003090Y009679D01*
X003090Y009906D01*
X003170Y012372D02*
X003113Y012429D01*
X003113Y012542D01*
X003170Y012599D01*
X003340Y012599D01*
X003340Y012712D02*
X003340Y012372D01*
X003170Y012372D01*
X003482Y012372D02*
X003595Y012372D01*
X003538Y012372D02*
X003538Y012599D01*
X003482Y012599D01*
X003538Y012712D02*
X003538Y012769D01*
X003727Y012542D02*
X003727Y012429D01*
X003784Y012372D01*
X003897Y012372D01*
X003954Y012429D01*
X003954Y012542D01*
X003897Y012599D01*
X003784Y012599D01*
X003727Y012542D01*
X004096Y012542D02*
X004096Y012429D01*
X004152Y012372D01*
X004322Y012372D01*
X004322Y012712D01*
X004322Y012599D02*
X004152Y012599D01*
X004096Y012542D01*
X004464Y012542D02*
X004464Y012429D01*
X004521Y012372D01*
X004634Y012372D01*
X004691Y012486D02*
X004464Y012486D01*
X004464Y012542D02*
X004521Y012599D01*
X004634Y012599D01*
X004691Y012542D01*
X004691Y012486D01*
X007476Y013140D02*
X007476Y013310D01*
X007533Y013367D01*
X007647Y013367D01*
X007703Y013310D01*
X007703Y013140D01*
X007817Y013140D02*
X007476Y013140D01*
X007476Y013508D02*
X007476Y013622D01*
X007420Y013565D02*
X007647Y013565D01*
X007703Y013622D01*
X007647Y013754D02*
X007703Y013811D01*
X007703Y013981D01*
X007476Y013981D02*
X007476Y013811D01*
X007533Y013754D01*
X007647Y013754D01*
X008576Y013661D02*
X008576Y013547D01*
X008633Y013490D01*
X008747Y013490D01*
X008803Y013547D01*
X008803Y013661D01*
X008747Y013717D01*
X008633Y013717D01*
X008576Y013661D01*
X008576Y013859D02*
X008747Y013859D01*
X008803Y013915D01*
X008747Y013972D01*
X008803Y014029D01*
X008747Y014086D01*
X008576Y014086D01*
X008633Y014227D02*
X008576Y014284D01*
X008576Y014397D01*
X008633Y014454D01*
X008690Y014454D01*
X008690Y014227D01*
X008747Y014227D02*
X008633Y014227D01*
X008747Y014227D02*
X008803Y014284D01*
X008803Y014397D01*
X008803Y014595D02*
X008576Y014595D01*
X008690Y014595D02*
X008576Y014709D01*
X008576Y014766D01*
X009083Y014092D02*
X009085Y014155D01*
X009091Y014217D01*
X009101Y014279D01*
X009114Y014341D01*
X009132Y014401D01*
X009153Y014460D01*
X009178Y014518D01*
X009207Y014574D01*
X009239Y014628D01*
X009274Y014680D01*
X009312Y014729D01*
X009354Y014777D01*
X009398Y014821D01*
X009446Y014863D01*
X009495Y014901D01*
X009547Y014936D01*
X009601Y014968D01*
X009657Y014997D01*
X009715Y015022D01*
X009774Y015043D01*
X009834Y015061D01*
X009896Y015074D01*
X009958Y015084D01*
X010020Y015090D01*
X010083Y015092D01*
X010146Y015090D01*
X010208Y015084D01*
X010270Y015074D01*
X010332Y015061D01*
X010392Y015043D01*
X010451Y015022D01*
X010509Y014997D01*
X010565Y014968D01*
X010619Y014936D01*
X010671Y014901D01*
X010720Y014863D01*
X010768Y014821D01*
X010812Y014777D01*
X010854Y014729D01*
X010892Y014680D01*
X010927Y014628D01*
X010959Y014574D01*
X010988Y014518D01*
X011013Y014460D01*
X011034Y014401D01*
X011052Y014341D01*
X011065Y014279D01*
X011075Y014217D01*
X011081Y014155D01*
X011083Y014092D01*
X011081Y014029D01*
X011075Y013967D01*
X011065Y013905D01*
X011052Y013843D01*
X011034Y013783D01*
X011013Y013724D01*
X010988Y013666D01*
X010959Y013610D01*
X010927Y013556D01*
X010892Y013504D01*
X010854Y013455D01*
X010812Y013407D01*
X010768Y013363D01*
X010720Y013321D01*
X010671Y013283D01*
X010619Y013248D01*
X010565Y013216D01*
X010509Y013187D01*
X010451Y013162D01*
X010392Y013141D01*
X010332Y013123D01*
X010270Y013110D01*
X010208Y013100D01*
X010146Y013094D01*
X010083Y013092D01*
X010020Y013094D01*
X009958Y013100D01*
X009896Y013110D01*
X009834Y013123D01*
X009774Y013141D01*
X009715Y013162D01*
X009657Y013187D01*
X009601Y013216D01*
X009547Y013248D01*
X009495Y013283D01*
X009446Y013321D01*
X009398Y013363D01*
X009354Y013407D01*
X009312Y013455D01*
X009274Y013504D01*
X009239Y013556D01*
X009207Y013610D01*
X009178Y013666D01*
X009153Y013724D01*
X009132Y013783D01*
X009114Y013843D01*
X009101Y013905D01*
X009091Y013967D01*
X009085Y014029D01*
X009083Y014092D01*
X008747Y013349D02*
X008633Y013349D01*
X008576Y013292D01*
X008576Y013122D01*
X008917Y013122D01*
X008803Y013122D02*
X008803Y013292D01*
X008747Y013349D01*
X012113Y013394D02*
X012453Y013394D01*
X012453Y013281D02*
X012453Y013507D01*
X012397Y013649D02*
X012170Y013649D01*
X012113Y013706D01*
X012113Y013819D01*
X012170Y013876D01*
X012397Y013649D01*
X012453Y013706D01*
X012453Y013819D01*
X012397Y013876D01*
X012170Y013876D01*
X012170Y014017D02*
X012113Y014074D01*
X012113Y014187D01*
X012170Y014244D01*
X012397Y014017D01*
X012453Y014074D01*
X012453Y014187D01*
X012397Y014244D01*
X012170Y014244D01*
X012226Y014385D02*
X012397Y014385D01*
X012453Y014442D01*
X012453Y014612D01*
X012226Y014612D01*
X012283Y014754D02*
X012283Y014867D01*
X012113Y014754D02*
X012113Y014981D01*
X012113Y014754D02*
X012453Y014754D01*
X012397Y014017D02*
X012170Y014017D01*
X012113Y013394D02*
X012226Y013281D01*
X015613Y013349D02*
X015840Y013349D01*
X015613Y013122D01*
X015840Y013122D01*
X015982Y013179D02*
X015982Y013292D01*
X016038Y013349D01*
X016209Y013349D01*
X016209Y013462D02*
X016209Y013122D01*
X016038Y013122D01*
X015982Y013179D01*
X016350Y013122D02*
X016463Y013122D01*
X016407Y013122D02*
X016407Y013349D01*
X016350Y013349D01*
X016407Y013462D02*
X016407Y013519D01*
X016596Y013292D02*
X016596Y013179D01*
X016652Y013122D01*
X016766Y013122D01*
X016822Y013179D01*
X016822Y013292D01*
X016766Y013349D01*
X016652Y013349D01*
X016596Y013292D01*
X016964Y013292D02*
X016964Y013179D01*
X017021Y013122D01*
X017191Y013122D01*
X017191Y013462D01*
X017191Y013349D02*
X017021Y013349D01*
X016964Y013292D01*
X017332Y013292D02*
X017332Y013179D01*
X017389Y013122D01*
X017502Y013122D01*
X017559Y013236D02*
X017332Y013236D01*
X017332Y013292D02*
X017389Y013349D01*
X017502Y013349D01*
X017559Y013292D01*
X017559Y013236D01*
X017529Y012712D02*
X017529Y012372D01*
X017416Y012372D02*
X017643Y012372D01*
X017784Y012429D02*
X017841Y012372D01*
X018011Y012372D01*
X018011Y012599D01*
X018152Y012542D02*
X018266Y012542D01*
X018152Y012372D02*
X018152Y012712D01*
X018379Y012712D01*
X017784Y012599D02*
X017784Y012429D01*
X017529Y012712D02*
X017416Y012599D01*
X017288Y012429D02*
X017288Y012372D01*
X017232Y012372D01*
X017232Y012429D01*
X017288Y012429D01*
X017090Y012429D02*
X017033Y012372D01*
X016920Y012372D01*
X016863Y012429D01*
X017090Y012656D01*
X017090Y012429D01*
X016863Y012429D02*
X016863Y012656D01*
X016920Y012712D01*
X017033Y012712D01*
X017090Y012656D01*
X019333Y013092D02*
X019333Y014592D01*
X019583Y014842D01*
X020083Y014842D01*
X020333Y014592D01*
X020333Y013092D01*
X020083Y012842D01*
X019583Y012842D01*
X019333Y013092D01*
X020333Y013092D02*
X020583Y012842D01*
X021083Y012842D01*
X021333Y013092D01*
X021333Y014592D01*
X021083Y014842D01*
X020583Y014842D01*
X020333Y014592D01*
X021333Y014592D02*
X021583Y014842D01*
X022083Y014842D01*
X022333Y014592D01*
X022333Y013092D01*
X022083Y012842D01*
X021583Y012842D01*
X021333Y013092D01*
X022333Y013092D02*
X022583Y012842D01*
X023083Y012842D01*
X023333Y013092D01*
X023333Y014592D01*
X023083Y014842D01*
X022583Y014842D01*
X022333Y014592D01*
X023333Y014592D02*
X023583Y014842D01*
X024083Y014842D01*
X024333Y014592D01*
X024333Y013092D01*
X024083Y012842D01*
X023583Y012842D01*
X023333Y013092D01*
X024333Y013092D02*
X024583Y012842D01*
X025083Y012842D01*
X025333Y013092D01*
X025333Y014592D01*
X025083Y014842D01*
X024583Y014842D01*
X024333Y014592D01*
X025333Y014592D02*
X025583Y014842D01*
X026083Y014842D01*
X026333Y014592D01*
X026333Y013092D01*
X026083Y012842D01*
X025583Y012842D01*
X025333Y013092D01*
X026333Y013092D02*
X026583Y012842D01*
X027083Y012842D01*
X027333Y013092D01*
X027333Y014592D01*
X027083Y014842D01*
X026583Y014842D01*
X026333Y014592D01*
X026420Y015122D02*
X026533Y015122D01*
X026590Y015179D01*
X026732Y015179D02*
X026788Y015122D01*
X026902Y015122D01*
X026959Y015179D01*
X026959Y015236D01*
X026902Y015292D01*
X026788Y015292D01*
X026732Y015349D01*
X026732Y015406D01*
X026788Y015462D01*
X026902Y015462D01*
X026959Y015406D01*
X027100Y015349D02*
X027213Y015462D01*
X027213Y015122D01*
X027100Y015122D02*
X027327Y015122D01*
X026590Y015406D02*
X026533Y015462D01*
X026420Y015462D01*
X026363Y015406D01*
X026363Y015179D01*
X026420Y015122D01*
X025209Y015122D02*
X025095Y015236D01*
X025152Y015236D02*
X024982Y015236D01*
X024982Y015122D02*
X024982Y015462D01*
X025152Y015462D01*
X025209Y015406D01*
X025209Y015292D01*
X025152Y015236D01*
X024840Y015122D02*
X024840Y015462D01*
X024613Y015462D02*
X024613Y015122D01*
X024727Y015236D01*
X024840Y015122D01*
X023959Y015122D02*
X023959Y015349D01*
X023845Y015462D01*
X023732Y015349D01*
X023732Y015122D01*
X023590Y015179D02*
X023533Y015122D01*
X023363Y015122D01*
X023363Y015462D01*
X023533Y015462D01*
X023590Y015406D01*
X023590Y015179D01*
X023732Y015292D02*
X023959Y015292D01*
X027613Y013712D02*
X027783Y013712D01*
X027840Y013656D01*
X027840Y013542D01*
X027783Y013486D01*
X027613Y013486D01*
X027727Y013486D02*
X027840Y013372D01*
X027982Y013372D02*
X028209Y013712D01*
X028350Y013712D02*
X028520Y013712D01*
X028577Y013656D01*
X028577Y013429D01*
X028520Y013372D01*
X028350Y013372D01*
X028350Y013712D01*
X027982Y013712D02*
X028209Y013372D01*
X027613Y013372D02*
X027613Y013712D01*
X027613Y012712D02*
X027840Y012712D01*
X027727Y012712D02*
X027727Y012372D01*
X027982Y012372D02*
X028209Y012712D01*
X028350Y012712D02*
X028520Y012712D01*
X028577Y012656D01*
X028577Y012429D01*
X028520Y012372D01*
X028350Y012372D01*
X028350Y012712D01*
X027982Y012712D02*
X028209Y012372D01*
X025606Y011212D02*
X025606Y010872D01*
X025606Y010986D02*
X025777Y010872D01*
X025606Y010986D02*
X025777Y011099D01*
X025465Y011156D02*
X025238Y010929D01*
X025295Y010872D01*
X025408Y010872D01*
X025465Y010929D01*
X025465Y011156D01*
X025408Y011212D01*
X025295Y011212D01*
X025238Y011156D01*
X025238Y010929D01*
X025097Y010872D02*
X024870Y010872D01*
X024983Y010872D02*
X024983Y011212D01*
X024870Y011099D01*
X024983Y010212D02*
X024983Y009872D01*
X024870Y009872D02*
X025097Y009872D01*
X025238Y009929D02*
X025295Y009872D01*
X025408Y009872D01*
X025465Y009929D01*
X025465Y009986D01*
X025408Y010042D01*
X025238Y010042D01*
X025238Y009929D01*
X025238Y010042D02*
X025352Y010156D01*
X025465Y010212D01*
X025606Y010212D02*
X025606Y009872D01*
X025606Y009986D02*
X025777Y009872D01*
X025606Y009986D02*
X025777Y010099D01*
X024983Y010212D02*
X024870Y010099D01*
X024063Y009462D02*
X023837Y009122D01*
X024063Y009122D02*
X023837Y009462D01*
X023695Y009462D02*
X023468Y009462D01*
X023582Y009462D02*
X023582Y009122D01*
X023327Y009065D02*
X023100Y009065D01*
X022845Y009122D02*
X022845Y009462D01*
X022732Y009462D02*
X022959Y009462D01*
X022590Y009406D02*
X022590Y009349D01*
X022533Y009292D01*
X022363Y009292D01*
X022363Y009122D02*
X022533Y009122D01*
X022590Y009179D01*
X022590Y009236D01*
X022533Y009292D01*
X022590Y009406D02*
X022533Y009462D01*
X022363Y009462D01*
X022363Y009122D01*
X021563Y009122D02*
X021337Y009462D01*
X021195Y009406D02*
X021195Y009292D01*
X021138Y009236D01*
X020968Y009236D01*
X021082Y009236D02*
X021195Y009122D01*
X021337Y009122D02*
X021563Y009462D01*
X021195Y009406D02*
X021138Y009462D01*
X020968Y009462D01*
X020968Y009122D01*
X020827Y009065D02*
X020600Y009065D01*
X020345Y009122D02*
X020345Y009462D01*
X020232Y009462D02*
X020459Y009462D01*
X020090Y009406D02*
X020090Y009349D01*
X020033Y009292D01*
X019863Y009292D01*
X019863Y009122D02*
X020033Y009122D01*
X020090Y009179D01*
X020090Y009236D01*
X020033Y009292D01*
X020090Y009406D02*
X020033Y009462D01*
X019863Y009462D01*
X019863Y009122D01*
X020370Y009872D02*
X020597Y009872D01*
X020483Y009872D02*
X020483Y010212D01*
X020370Y010099D01*
X020738Y010042D02*
X020908Y010042D01*
X020965Y009986D01*
X020965Y009929D01*
X020908Y009872D01*
X020795Y009872D01*
X020738Y009929D01*
X020738Y010042D01*
X020852Y010156D01*
X020965Y010212D01*
X021106Y010212D02*
X021106Y009872D01*
X021106Y009986D02*
X021277Y009872D01*
X021106Y009986D02*
X021277Y010099D01*
X021277Y010872D02*
X021106Y010986D01*
X021277Y011099D01*
X021106Y011212D02*
X021106Y010872D01*
X020965Y010929D02*
X020908Y010872D01*
X020795Y010872D01*
X020738Y010929D01*
X020965Y011156D01*
X020965Y010929D01*
X020738Y010929D02*
X020738Y011156D01*
X020795Y011212D01*
X020908Y011212D01*
X020965Y011156D01*
X020483Y011212D02*
X020370Y011099D01*
X020483Y011212D02*
X020483Y010872D01*
X020370Y010872D02*
X020597Y010872D01*
X026576Y008134D02*
X026576Y008077D01*
X026690Y007964D01*
X026803Y007964D02*
X026576Y007964D01*
X026633Y007822D02*
X026576Y007766D01*
X026576Y007652D01*
X026633Y007595D01*
X026747Y007595D01*
X026803Y007652D01*
X026803Y007766D01*
X026690Y007822D02*
X026690Y007595D01*
X026803Y007454D02*
X026803Y007227D01*
X026576Y007454D01*
X026576Y007227D01*
X026576Y007086D02*
X026803Y006859D01*
X026803Y007086D01*
X026576Y007086D02*
X026576Y006859D01*
X026576Y006717D02*
X026803Y006717D01*
X026803Y006547D01*
X026747Y006490D01*
X026576Y006490D01*
X026633Y006349D02*
X026576Y006292D01*
X026576Y006122D01*
X026463Y006122D02*
X026803Y006122D01*
X026803Y006292D01*
X026747Y006349D01*
X026633Y006349D01*
X026633Y007822D02*
X026690Y007822D01*
X034113Y007599D02*
X034113Y007372D01*
X034227Y007372D02*
X034227Y007542D01*
X034283Y007599D01*
X034340Y007542D01*
X034340Y007372D01*
X034482Y007372D02*
X034595Y007372D01*
X034538Y007372D02*
X034538Y007599D01*
X034482Y007599D01*
X034538Y007712D02*
X034538Y007769D01*
X034727Y007599D02*
X034897Y007599D01*
X034954Y007542D01*
X034954Y007372D01*
X035096Y007429D02*
X035152Y007372D01*
X035322Y007372D01*
X035322Y007599D01*
X035464Y007599D02*
X035577Y007599D01*
X035521Y007656D02*
X035521Y007429D01*
X035577Y007372D01*
X035709Y007429D02*
X035709Y007542D01*
X035766Y007599D01*
X035880Y007599D01*
X035936Y007542D01*
X035936Y007486D01*
X035709Y007486D01*
X035709Y007429D02*
X035766Y007372D01*
X035880Y007372D01*
X035096Y007429D02*
X035096Y007599D01*
X034727Y007599D02*
X034727Y007372D01*
X034227Y007542D02*
X034170Y007599D01*
X034113Y007599D01*
X034363Y010622D02*
X034363Y010962D01*
X034420Y010849D02*
X034533Y010849D01*
X034590Y010792D01*
X034590Y010622D01*
X034732Y010679D02*
X034788Y010622D01*
X034902Y010622D01*
X034959Y010679D01*
X034959Y010792D01*
X034902Y010849D01*
X034788Y010849D01*
X034732Y010792D01*
X034732Y010679D01*
X034420Y010849D02*
X034363Y010792D01*
X035100Y010849D02*
X035100Y010679D01*
X035157Y010622D01*
X035327Y010622D01*
X035327Y010849D01*
X035468Y010849D02*
X035468Y010622D01*
X035468Y010736D02*
X035582Y010849D01*
X035638Y010849D01*
X034852Y011472D02*
X034682Y011586D01*
X034852Y011699D01*
X034682Y011812D02*
X034682Y011472D01*
X034540Y011529D02*
X034483Y011472D01*
X034370Y011472D01*
X034313Y011529D01*
X034313Y011642D02*
X034427Y011699D01*
X034483Y011699D01*
X034540Y011642D01*
X034540Y011529D01*
X034313Y011642D02*
X034313Y011812D01*
X034540Y011812D01*
X037833Y011592D02*
X038833Y011592D01*
X038833Y004592D01*
X037833Y004592D01*
X037833Y011592D01*
X037833Y012592D01*
X038833Y012592D01*
X038833Y011592D01*
X035700Y014872D02*
X035700Y015212D01*
X035587Y015212D02*
X035813Y015212D01*
X035445Y015212D02*
X035218Y015212D01*
X035218Y014872D01*
X035445Y014872D01*
X035332Y015042D02*
X035218Y015042D01*
X035077Y014986D02*
X035020Y015042D01*
X034907Y015042D01*
X034850Y015099D01*
X034850Y015156D01*
X034907Y015212D01*
X035020Y015212D01*
X035077Y015156D01*
X035077Y014986D02*
X035077Y014929D01*
X035020Y014872D01*
X034907Y014872D01*
X034850Y014929D01*
X034709Y014872D02*
X034482Y014872D01*
X034482Y015212D01*
X034709Y015212D01*
X034595Y015042D02*
X034482Y015042D01*
X034340Y015042D02*
X034283Y014986D01*
X034113Y014986D01*
X034227Y014986D02*
X034340Y014872D01*
X034340Y015042D02*
X034340Y015156D01*
X034283Y015212D01*
X034113Y015212D01*
X034113Y014872D01*
X031733Y015092D02*
X030983Y015092D01*
X030981Y015053D01*
X030975Y015014D01*
X030966Y014976D01*
X030953Y014939D01*
X030936Y014903D01*
X030916Y014870D01*
X030892Y014838D01*
X030866Y014809D01*
X030837Y014783D01*
X030805Y014759D01*
X030772Y014739D01*
X030736Y014722D01*
X030699Y014709D01*
X030661Y014700D01*
X030622Y014694D01*
X030583Y014692D01*
X030544Y014694D01*
X030505Y014700D01*
X030467Y014709D01*
X030430Y014722D01*
X030394Y014739D01*
X030361Y014759D01*
X030329Y014783D01*
X030300Y014809D01*
X030274Y014838D01*
X030250Y014870D01*
X030230Y014903D01*
X030213Y014939D01*
X030200Y014976D01*
X030191Y015014D01*
X030185Y015053D01*
X030183Y015092D01*
X029433Y015092D01*
X029433Y001092D01*
X031733Y001092D01*
X031733Y015092D01*
X016777Y015006D02*
X016777Y014779D01*
X016720Y014722D01*
X016607Y014722D01*
X016550Y014779D01*
X016777Y015006D01*
X016720Y015062D01*
X016607Y015062D01*
X016550Y015006D01*
X016550Y014779D01*
X016409Y015006D02*
X016182Y014779D01*
X016182Y014722D01*
X015983Y014722D02*
X015983Y015062D01*
X015813Y014892D01*
X016040Y014892D01*
X016182Y015062D02*
X016409Y015062D01*
X016409Y015006D01*
X010277Y011256D02*
X010220Y011312D01*
X010107Y011312D01*
X010050Y011256D01*
X010050Y011029D01*
X010277Y011256D01*
X010277Y011029D01*
X010220Y010972D01*
X010107Y010972D01*
X010050Y011029D01*
X009909Y011029D02*
X009909Y011256D01*
X009852Y011312D01*
X009738Y011312D01*
X009682Y011256D01*
X009682Y011199D01*
X009738Y011142D01*
X009909Y011142D01*
X009909Y011029D02*
X009852Y010972D01*
X009738Y010972D01*
X009682Y011029D01*
X009540Y011029D02*
X009483Y010972D01*
X009370Y010972D01*
X009313Y011029D01*
X009427Y011142D02*
X009483Y011142D01*
X009540Y011086D01*
X009540Y011029D01*
X009483Y011142D02*
X009540Y011199D01*
X009540Y011256D01*
X009483Y011312D01*
X009370Y011312D01*
X009313Y011256D01*
X003743Y005712D02*
X003630Y005712D01*
X003573Y005656D01*
X003573Y005429D01*
X003630Y005372D01*
X003743Y005372D01*
X003800Y005429D01*
X003432Y005429D02*
X003432Y005656D01*
X003375Y005712D01*
X003205Y005712D01*
X003205Y005372D01*
X003375Y005372D01*
X003432Y005429D01*
X003063Y005486D02*
X003063Y005712D01*
X002837Y005712D02*
X002837Y005486D01*
X002950Y005372D01*
X003063Y005486D01*
X002695Y005599D02*
X002468Y005372D01*
X002695Y005372D01*
X002695Y005599D02*
X002695Y005656D01*
X002638Y005712D01*
X002525Y005712D01*
X002468Y005656D01*
X002213Y005712D02*
X002100Y005599D01*
X001959Y005542D02*
X001732Y005542D01*
X001590Y005486D02*
X001533Y005542D01*
X001363Y005542D01*
X001363Y005429D01*
X001420Y005372D01*
X001533Y005372D01*
X001590Y005429D01*
X001590Y005486D01*
X001477Y005656D02*
X001363Y005542D01*
X001477Y005656D02*
X001590Y005712D01*
X002213Y005712D02*
X002213Y005372D01*
X002100Y005372D02*
X002327Y005372D01*
X003743Y005712D02*
X003800Y005656D01*
X014613Y001212D02*
X014783Y001212D01*
X014840Y001156D01*
X014840Y001099D01*
X014783Y001042D01*
X014613Y001042D01*
X014613Y000872D02*
X014783Y000872D01*
X014840Y000929D01*
X014840Y000986D01*
X014783Y001042D01*
X014613Y000872D02*
X014613Y001212D01*
X014982Y001212D02*
X015209Y001212D01*
X015095Y001212D02*
X015095Y000872D01*
X015350Y000872D02*
X015520Y000872D01*
X015577Y000929D01*
X015520Y000986D01*
X015407Y000986D01*
X015350Y001042D01*
X015407Y001099D01*
X015577Y001099D01*
X015718Y001099D02*
X015832Y001099D01*
X015775Y001156D02*
X015775Y000929D01*
X015832Y000872D01*
X015964Y000929D02*
X016021Y000986D01*
X016191Y000986D01*
X016191Y001042D02*
X016191Y000872D01*
X016021Y000872D01*
X015964Y000929D01*
X016021Y001099D02*
X016134Y001099D01*
X016191Y001042D01*
X016332Y001099D02*
X016446Y001099D01*
X016389Y001156D02*
X016389Y000929D01*
X016446Y000872D01*
X016578Y000929D02*
X016634Y000872D01*
X016805Y000872D01*
X016805Y001099D01*
X016946Y001042D02*
X017003Y001099D01*
X017173Y001099D01*
X017116Y000986D02*
X017003Y000986D01*
X016946Y001042D01*
X016946Y000872D02*
X017116Y000872D01*
X017173Y000929D01*
X017116Y000986D01*
X016578Y000929D02*
X016578Y001099D01*
X016483Y001722D02*
X016370Y001722D01*
X016313Y001779D01*
X016427Y001892D02*
X016483Y001892D01*
X016540Y001836D01*
X016540Y001779D01*
X016483Y001722D01*
X016483Y001892D02*
X016540Y001949D01*
X016540Y002006D01*
X016483Y002062D01*
X016370Y002062D01*
X016313Y002006D01*
X016682Y002006D02*
X016738Y002062D01*
X016852Y002062D01*
X016909Y002006D01*
X016682Y001779D01*
X016738Y001722D01*
X016852Y001722D01*
X016909Y001779D01*
X016909Y002006D01*
X017050Y002006D02*
X017107Y002062D01*
X017220Y002062D01*
X017277Y002006D01*
X017050Y001779D01*
X017107Y001722D01*
X017220Y001722D01*
X017277Y001779D01*
X017277Y002006D01*
X017050Y002006D02*
X017050Y001779D01*
X016682Y001779D02*
X016682Y002006D01*
X019583Y002342D02*
X019583Y001342D01*
X020583Y001342D01*
X020583Y002342D01*
X023583Y002342D01*
X023583Y001342D01*
X020583Y001342D01*
X020670Y001212D02*
X020613Y001156D01*
X020613Y000929D01*
X020670Y000872D01*
X020783Y000872D01*
X020840Y000929D01*
X020840Y001042D01*
X020727Y001042D01*
X020840Y001156D02*
X020783Y001212D01*
X020670Y001212D01*
X020982Y001212D02*
X021209Y000872D01*
X021209Y001212D01*
X021350Y001212D02*
X021520Y001212D01*
X021577Y001156D01*
X021577Y000929D01*
X021520Y000872D01*
X021350Y000872D01*
X021350Y001212D01*
X020982Y001212D02*
X020982Y000872D01*
X020209Y000986D02*
X020209Y001212D01*
X020209Y000986D02*
X020095Y000872D01*
X019982Y000986D01*
X019982Y001212D01*
X019840Y001156D02*
X019840Y001099D01*
X019783Y001042D01*
X019840Y000986D01*
X019840Y000929D01*
X019783Y000872D01*
X019670Y000872D01*
X019613Y000929D01*
X019727Y001042D02*
X019783Y001042D01*
X019840Y001156D02*
X019783Y001212D01*
X019670Y001212D01*
X019613Y001156D01*
X021863Y001212D02*
X022090Y001212D01*
X021977Y001212D02*
X021977Y000872D01*
X022232Y000872D02*
X022459Y001212D01*
X022232Y001212D02*
X022459Y000872D01*
X022863Y000872D02*
X022863Y001212D01*
X023033Y001212D01*
X023090Y001156D01*
X023090Y001042D01*
X023033Y000986D01*
X022863Y000986D01*
X022977Y000986D02*
X023090Y000872D01*
X023232Y000872D02*
X023459Y001212D01*
X023232Y001212D02*
X023459Y000872D01*
X024333Y000842D02*
X024333Y001842D01*
X025333Y001842D01*
X025333Y000842D01*
X024333Y000842D01*
X025363Y001267D02*
X025703Y001267D01*
X025590Y001267D02*
X025363Y001494D01*
X025363Y001635D02*
X025703Y001635D01*
X025703Y001862D01*
X025533Y001749D02*
X025533Y001635D01*
X025363Y001635D02*
X025363Y001862D01*
X025333Y001842D02*
X025333Y002842D01*
X024333Y002842D01*
X024333Y001842D01*
X025363Y002004D02*
X025420Y002004D01*
X025533Y002117D01*
X025703Y002117D01*
X025533Y002117D02*
X025420Y002231D01*
X025363Y002231D01*
X025703Y001494D02*
X025533Y001324D01*
X026733Y000792D02*
X026733Y003792D01*
X026783Y003792D01*
X027883Y003792D01*
X027933Y003792D01*
X027933Y000792D01*
X027931Y000775D01*
X027927Y000758D01*
X027920Y000742D01*
X027910Y000728D01*
X027897Y000715D01*
X027883Y000705D01*
X027867Y000698D01*
X027850Y000694D01*
X027833Y000692D01*
X026833Y000692D01*
X026816Y000694D01*
X026799Y000698D01*
X026783Y000705D01*
X026769Y000715D01*
X026756Y000728D01*
X026746Y000742D01*
X026739Y000758D01*
X026735Y000775D01*
X026733Y000792D01*
X027270Y001622D02*
X027213Y001679D01*
X027213Y001792D01*
X027270Y001849D01*
X027326Y001849D01*
X027383Y001792D01*
X027440Y001849D01*
X027497Y001849D01*
X027553Y001792D01*
X027553Y001679D01*
X027497Y001622D01*
X027383Y001736D02*
X027383Y001792D01*
X027270Y001990D02*
X027213Y002047D01*
X027213Y002161D01*
X027270Y002217D01*
X027326Y002217D01*
X027553Y001990D01*
X027553Y002217D01*
X027633Y002242D02*
X027333Y002242D01*
X027033Y002242D01*
X027033Y002392D02*
X027633Y002392D01*
X027633Y002542D01*
X027033Y002542D01*
X027033Y002392D01*
X027213Y002359D02*
X027553Y002359D01*
X027440Y002359D02*
X027326Y002529D01*
X027383Y002666D02*
X027383Y002893D01*
X027333Y002892D02*
X027333Y002692D01*
X027033Y002692D01*
X027213Y002666D02*
X027553Y002666D01*
X027633Y002692D02*
X027333Y002692D01*
X027213Y002893D02*
X027553Y002893D01*
X027553Y003034D02*
X027553Y003261D01*
X027326Y003261D02*
X027326Y003034D01*
X027326Y003261D02*
X027553Y003034D01*
X027553Y002529D02*
X027440Y002359D01*
X027333Y002242D02*
X027333Y002042D01*
X026783Y003792D02*
X026783Y003942D01*
X027883Y003942D01*
X027883Y003792D01*
X033113Y001156D02*
X033113Y000929D01*
X033170Y000872D01*
X033283Y000872D01*
X033340Y000929D01*
X033340Y001042D01*
X033227Y001042D01*
X033340Y001156D02*
X033283Y001212D01*
X033170Y001212D01*
X033113Y001156D01*
X033482Y001212D02*
X033709Y000872D01*
X033709Y001212D01*
X033850Y001212D02*
X034020Y001212D01*
X034077Y001156D01*
X034077Y000929D01*
X034020Y000872D01*
X033850Y000872D01*
X033850Y001212D01*
X033833Y001342D02*
X033833Y003342D01*
X035833Y003342D01*
X035833Y002342D01*
X036833Y002342D01*
X036833Y001342D01*
X033833Y001342D01*
X033482Y001212D02*
X033482Y000872D01*
X034613Y000872D02*
X034613Y001212D01*
X034727Y001099D01*
X034840Y001212D01*
X034840Y000872D01*
X034982Y000929D02*
X035038Y000872D01*
X035152Y000872D01*
X035209Y000929D01*
X035209Y001156D01*
X035152Y001212D01*
X035038Y001212D01*
X034982Y001156D01*
X034982Y000929D01*
X035350Y000929D02*
X035407Y000872D01*
X035520Y000872D01*
X035577Y000929D01*
X035577Y000986D01*
X035520Y001042D01*
X035407Y001042D01*
X035350Y001099D01*
X035350Y001156D01*
X035407Y001212D01*
X035520Y001212D01*
X035577Y001156D01*
X035718Y001212D02*
X035832Y001212D01*
X035775Y001212D02*
X035775Y000872D01*
X035718Y000872D02*
X035832Y000872D01*
X036363Y000986D02*
X036477Y000872D01*
X036590Y000986D01*
X036590Y001212D01*
X036732Y001042D02*
X036959Y001042D01*
X036845Y000929D02*
X036845Y001156D01*
X036363Y001212D02*
X036363Y000986D01*
X036833Y002342D02*
X036833Y003342D01*
X035833Y003342D01*
X035303Y003679D02*
X035303Y003792D01*
X035247Y003849D01*
X035303Y003990D02*
X035303Y004217D01*
X035303Y004359D02*
X034963Y004359D01*
X035133Y004415D02*
X035303Y004586D01*
X035190Y004359D02*
X034963Y004586D01*
X034303Y004472D02*
X033963Y004472D01*
X033963Y004359D02*
X033963Y004586D01*
X034020Y004217D02*
X033963Y004161D01*
X033963Y004047D01*
X034020Y003990D01*
X034076Y003990D01*
X034133Y004047D01*
X034133Y004161D01*
X034190Y004217D01*
X034247Y004217D01*
X034303Y004161D01*
X034303Y004047D01*
X034247Y003990D01*
X034303Y003849D02*
X034190Y003736D01*
X034190Y003792D02*
X034190Y003622D01*
X034303Y003622D02*
X033963Y003622D01*
X033963Y003792D01*
X034020Y003849D01*
X034133Y003849D01*
X034190Y003792D01*
X034963Y003792D02*
X034963Y003679D01*
X035020Y003622D01*
X035247Y003622D01*
X035303Y003679D01*
X035020Y003849D02*
X034963Y003792D01*
X034963Y003990D02*
X035303Y003990D01*
X035613Y003872D02*
X035613Y004212D01*
X035727Y004099D01*
X035840Y004212D01*
X035840Y003872D01*
X035982Y003872D02*
X036095Y003872D01*
X036038Y003872D02*
X036038Y004212D01*
X035982Y004212D02*
X036095Y004212D01*
X036227Y004156D02*
X036227Y004099D01*
X036284Y004042D01*
X036397Y004042D01*
X036454Y003986D01*
X036454Y003929D01*
X036397Y003872D01*
X036284Y003872D01*
X036227Y003929D01*
X036227Y004156D02*
X036284Y004212D01*
X036397Y004212D01*
X036454Y004156D01*
X036596Y004156D02*
X036596Y003929D01*
X036652Y003872D01*
X036766Y003872D01*
X036822Y003929D01*
X036822Y004156D01*
X036766Y004212D01*
X036652Y004212D01*
X036596Y004156D01*
X020583Y002342D02*
X019583Y002342D01*
D11*
X003934Y000897D02*
X003638Y000897D01*
X003737Y001094D02*
X003638Y001192D01*
X003737Y001291D01*
X004032Y001291D01*
X003934Y001094D02*
X003737Y001094D01*
X003934Y001094D02*
X004032Y000996D01*
X003934Y000897D01*
X004283Y000897D02*
X004283Y001291D01*
X004381Y001291D01*
X004480Y001192D01*
X004578Y001291D01*
X004677Y001192D01*
X004677Y000897D01*
X004480Y000897D02*
X004480Y001192D01*
X004927Y000996D02*
X005026Y001094D01*
X005321Y001094D01*
X005321Y001192D02*
X005321Y000897D01*
X005026Y000897D01*
X004927Y000996D01*
X005223Y001291D02*
X005321Y001192D01*
X005223Y001291D02*
X005026Y001291D01*
X005572Y001291D02*
X005572Y000897D01*
X005572Y001094D02*
X005769Y001291D01*
X005867Y001291D01*
X006109Y001291D02*
X006306Y001291D01*
X006208Y001389D02*
X006208Y000996D01*
X006306Y000897D01*
X006539Y000996D02*
X006539Y001192D01*
X006637Y001291D01*
X006932Y001291D01*
X007183Y001488D02*
X007282Y001488D01*
X007282Y000897D01*
X007380Y000897D02*
X007183Y000897D01*
X006932Y000897D02*
X006637Y000897D01*
X006539Y000996D01*
X007613Y000996D02*
X007711Y000897D01*
X007908Y000897D01*
X008007Y000996D01*
X008007Y001192D01*
X007908Y001291D01*
X007711Y001291D01*
X007613Y001192D01*
X007613Y000996D01*
X008258Y000996D02*
X008258Y001192D01*
X008356Y001291D01*
X008651Y001291D01*
X008902Y001488D02*
X008902Y000897D01*
X008902Y001094D02*
X009197Y001291D01*
X008902Y001094D02*
X009197Y000897D01*
X008651Y000897D02*
X008356Y000897D01*
X008258Y000996D01*
X010084Y001291D02*
X010281Y000897D01*
X010477Y001291D01*
X010728Y001389D02*
X010827Y001488D01*
X011024Y001488D01*
X011122Y001389D01*
X010728Y000996D01*
X010827Y000897D01*
X011024Y000897D01*
X011122Y000996D01*
X011122Y001389D01*
X010728Y001389D02*
X010728Y000996D01*
X011373Y000996D02*
X011471Y000996D01*
X011471Y000897D01*
X011373Y000897D01*
X011373Y000996D01*
X011695Y000996D02*
X012089Y001389D01*
X012089Y000996D01*
X011990Y000897D01*
X011794Y000897D01*
X011695Y000996D01*
X011695Y001389D01*
X011794Y001488D01*
X011990Y001488D01*
X012089Y001389D01*
X015138Y005897D02*
X015138Y006488D01*
X015138Y006192D02*
X015532Y006192D01*
X015532Y005897D02*
X015532Y006488D01*
X015783Y006389D02*
X015783Y005996D01*
X015881Y005897D01*
X016078Y005897D01*
X016177Y005996D01*
X016427Y005996D02*
X016821Y006389D01*
X016821Y005996D01*
X016723Y005897D01*
X016526Y005897D01*
X016427Y005996D01*
X016427Y006389D01*
X016526Y006488D01*
X016723Y006488D01*
X016821Y006389D01*
X017072Y006488D02*
X017072Y006192D01*
X017269Y006291D01*
X017367Y006291D01*
X017466Y006192D01*
X017466Y005996D01*
X017367Y005897D01*
X017170Y005897D01*
X017072Y005996D01*
X017072Y006488D02*
X017466Y006488D01*
X018361Y006488D02*
X018361Y005897D01*
X018656Y005897D01*
X018755Y005996D01*
X018755Y006094D01*
X018656Y006192D01*
X018361Y006192D01*
X018656Y006192D02*
X018755Y006291D01*
X018755Y006389D01*
X018656Y006488D01*
X018361Y006488D01*
X019006Y006488D02*
X019104Y006488D01*
X019104Y005897D01*
X019006Y005897D02*
X019202Y005897D01*
X019435Y005996D02*
X019534Y005897D01*
X019829Y005897D01*
X019829Y006291D01*
X020080Y006192D02*
X020178Y006291D01*
X020375Y006291D01*
X020474Y006192D01*
X020474Y006094D01*
X020080Y006094D01*
X020080Y005996D02*
X020080Y006192D01*
X020080Y005996D02*
X020178Y005897D01*
X020375Y005897D01*
X020823Y005996D02*
X020921Y005897D01*
X020823Y005996D02*
X020823Y006389D01*
X020921Y006291D02*
X020724Y006291D01*
X021154Y006192D02*
X021154Y005996D01*
X021253Y005897D01*
X021449Y005897D01*
X021548Y005996D01*
X021548Y006192D01*
X021449Y006291D01*
X021253Y006291D01*
X021154Y006192D01*
X021799Y006192D02*
X021799Y005996D01*
X021897Y005897D01*
X022094Y005897D01*
X022192Y005996D01*
X022192Y006192D01*
X022094Y006291D01*
X021897Y006291D01*
X021799Y006192D01*
X022443Y006291D02*
X022640Y006291D01*
X022542Y006389D02*
X022542Y005996D01*
X022640Y005897D01*
X022873Y005897D02*
X022873Y006488D01*
X022971Y006291D02*
X023168Y006291D01*
X023267Y006192D01*
X023267Y005897D01*
X022873Y006192D02*
X022971Y006291D01*
X019435Y006291D02*
X019435Y005996D01*
X016177Y006389D02*
X016078Y006488D01*
X015881Y006488D01*
X015783Y006389D01*
X030388Y006648D02*
X030585Y006452D01*
X030978Y006452D01*
X030683Y006452D02*
X030683Y006845D01*
X030585Y006845D02*
X030978Y006845D01*
X030585Y006845D02*
X030388Y006648D01*
X030388Y007096D02*
X030388Y007490D01*
X030388Y007293D02*
X030978Y007293D01*
X030978Y007741D02*
X030388Y007741D01*
X030585Y007938D01*
X030388Y008134D01*
X030978Y008134D01*
X030978Y008385D02*
X030388Y008385D01*
X030388Y008779D01*
X030683Y008582D02*
X030683Y008385D01*
X030978Y008385D02*
X030978Y008779D01*
X030880Y009030D02*
X030486Y009030D01*
X030388Y009128D01*
X030388Y009325D01*
X030486Y009423D01*
X030683Y009423D02*
X030683Y009227D01*
X030683Y009423D02*
X030880Y009423D01*
X030978Y009325D01*
X030978Y009128D01*
X030880Y009030D01*
X030978Y009674D02*
X030585Y009674D01*
X030388Y009871D01*
X030585Y010068D01*
X030978Y010068D01*
X030880Y010319D02*
X030978Y010417D01*
X030978Y010614D01*
X030880Y010713D01*
X030781Y010713D01*
X030683Y010614D01*
X030683Y010516D01*
X030683Y010614D02*
X030585Y010713D01*
X030486Y010713D01*
X030388Y010614D01*
X030388Y010417D01*
X030486Y010319D01*
X030683Y010068D02*
X030683Y009674D01*
X030486Y010963D02*
X030388Y011062D01*
X030388Y011259D01*
X030486Y011357D01*
X030585Y011357D01*
X030978Y010963D01*
X030978Y011357D01*
X030880Y011608D02*
X030781Y011608D01*
X030683Y011706D01*
X030683Y011903D01*
X030781Y012002D01*
X030880Y012002D01*
X030978Y011903D01*
X030978Y011706D01*
X030880Y011608D01*
X030683Y011706D02*
X030585Y011608D01*
X030486Y011608D01*
X030388Y011706D01*
X030388Y011903D01*
X030486Y012002D01*
X030585Y012002D01*
X030683Y011903D01*
X030781Y012253D02*
X030781Y012548D01*
X030683Y012646D01*
X030486Y012646D01*
X030388Y012548D01*
X030388Y012253D01*
X030978Y012253D01*
D12*
X033883Y013199D02*
X033883Y013992D01*
X034383Y013592D02*
X034385Y013644D01*
X034391Y013696D01*
X034401Y013748D01*
X034414Y013798D01*
X034431Y013848D01*
X034452Y013896D01*
X034477Y013942D01*
X034505Y013986D01*
X034536Y014028D01*
X034570Y014068D01*
X034607Y014105D01*
X034647Y014139D01*
X034689Y014170D01*
X034733Y014198D01*
X034779Y014223D01*
X034827Y014244D01*
X034877Y014261D01*
X034927Y014274D01*
X034979Y014284D01*
X035031Y014290D01*
X035083Y014292D01*
X035135Y014290D01*
X035187Y014284D01*
X035239Y014274D01*
X035289Y014261D01*
X035339Y014244D01*
X035387Y014223D01*
X035433Y014198D01*
X035477Y014170D01*
X035519Y014139D01*
X035559Y014105D01*
X035596Y014068D01*
X035630Y014028D01*
X035661Y013986D01*
X035689Y013942D01*
X035714Y013896D01*
X035735Y013848D01*
X035752Y013798D01*
X035765Y013748D01*
X035775Y013696D01*
X035781Y013644D01*
X035783Y013592D01*
X035781Y013540D01*
X035775Y013488D01*
X035765Y013436D01*
X035752Y013386D01*
X035735Y013336D01*
X035714Y013288D01*
X035689Y013242D01*
X035661Y013198D01*
X035630Y013156D01*
X035596Y013116D01*
X035559Y013079D01*
X035519Y013045D01*
X035477Y013014D01*
X035433Y012986D01*
X035387Y012961D01*
X035339Y012940D01*
X035289Y012923D01*
X035239Y012910D01*
X035187Y012900D01*
X035135Y012894D01*
X035083Y012892D01*
X035031Y012894D01*
X034979Y012900D01*
X034927Y012910D01*
X034877Y012923D01*
X034827Y012940D01*
X034779Y012961D01*
X034733Y012986D01*
X034689Y013014D01*
X034647Y013045D01*
X034607Y013079D01*
X034570Y013116D01*
X034536Y013156D01*
X034505Y013198D01*
X034477Y013242D01*
X034452Y013288D01*
X034431Y013336D01*
X034414Y013386D01*
X034401Y013436D01*
X034391Y013488D01*
X034385Y013540D01*
X034383Y013592D01*
X036283Y013992D02*
X036283Y013187D01*
X037373Y013346D02*
X037443Y013276D01*
X037723Y013276D01*
X037793Y013346D01*
X037793Y013486D01*
X037723Y013556D01*
X037443Y013556D02*
X037373Y013486D01*
X037373Y013346D01*
X037443Y013096D02*
X037583Y013096D01*
X037653Y013025D01*
X037653Y012815D01*
X037793Y012815D02*
X037373Y012815D01*
X037373Y013025D01*
X037443Y013096D01*
X035933Y012392D02*
X034233Y012392D01*
X034083Y011892D02*
X034083Y011592D01*
X033983Y011592D01*
X034083Y011592D02*
X034083Y011292D01*
X036083Y011292D01*
X036083Y011592D01*
X036183Y011592D01*
X036083Y011592D02*
X036083Y011892D01*
X034083Y011892D01*
X034233Y010542D02*
X035933Y010542D01*
X036283Y009735D02*
X036283Y008942D01*
X037373Y009202D02*
X037443Y009132D01*
X037373Y009202D02*
X037373Y009342D01*
X037443Y009412D01*
X037513Y009412D01*
X037793Y009132D01*
X037793Y009412D01*
X037723Y010053D02*
X037793Y010123D01*
X037793Y010263D01*
X037723Y010333D01*
X037653Y010333D01*
X037583Y010263D01*
X037583Y010193D01*
X037583Y010263D02*
X037513Y010333D01*
X037443Y010333D01*
X037373Y010263D01*
X037373Y010123D01*
X037443Y010053D01*
X037583Y010974D02*
X037583Y011254D01*
X037373Y011184D02*
X037583Y010974D01*
X037793Y011184D02*
X037373Y011184D01*
X037373Y011894D02*
X037583Y011894D01*
X037513Y012035D01*
X037513Y012105D01*
X037583Y012175D01*
X037723Y012175D01*
X037793Y012105D01*
X037793Y011965D01*
X037723Y011894D01*
X037373Y011894D02*
X037373Y012175D01*
X033883Y009747D02*
X033883Y008942D01*
X034383Y009342D02*
X034385Y009394D01*
X034391Y009446D01*
X034401Y009498D01*
X034414Y009548D01*
X034431Y009598D01*
X034452Y009646D01*
X034477Y009692D01*
X034505Y009736D01*
X034536Y009778D01*
X034570Y009818D01*
X034607Y009855D01*
X034647Y009889D01*
X034689Y009920D01*
X034733Y009948D01*
X034779Y009973D01*
X034827Y009994D01*
X034877Y010011D01*
X034927Y010024D01*
X034979Y010034D01*
X035031Y010040D01*
X035083Y010042D01*
X035135Y010040D01*
X035187Y010034D01*
X035239Y010024D01*
X035289Y010011D01*
X035339Y009994D01*
X035387Y009973D01*
X035433Y009948D01*
X035477Y009920D01*
X035519Y009889D01*
X035559Y009855D01*
X035596Y009818D01*
X035630Y009778D01*
X035661Y009736D01*
X035689Y009692D01*
X035714Y009646D01*
X035735Y009598D01*
X035752Y009548D01*
X035765Y009498D01*
X035775Y009446D01*
X035781Y009394D01*
X035783Y009342D01*
X035781Y009290D01*
X035775Y009238D01*
X035765Y009186D01*
X035752Y009136D01*
X035735Y009086D01*
X035714Y009038D01*
X035689Y008992D01*
X035661Y008948D01*
X035630Y008906D01*
X035596Y008866D01*
X035559Y008829D01*
X035519Y008795D01*
X035477Y008764D01*
X035433Y008736D01*
X035387Y008711D01*
X035339Y008690D01*
X035289Y008673D01*
X035239Y008660D01*
X035187Y008650D01*
X035135Y008644D01*
X035083Y008642D01*
X035031Y008644D01*
X034979Y008650D01*
X034927Y008660D01*
X034877Y008673D01*
X034827Y008690D01*
X034779Y008711D01*
X034733Y008736D01*
X034689Y008764D01*
X034647Y008795D01*
X034607Y008829D01*
X034570Y008866D01*
X034536Y008906D01*
X034505Y008948D01*
X034477Y008992D01*
X034452Y009038D01*
X034431Y009086D01*
X034414Y009136D01*
X034401Y009186D01*
X034391Y009238D01*
X034385Y009290D01*
X034383Y009342D01*
X034233Y008142D02*
X035933Y008142D01*
X037373Y008056D02*
X037373Y007776D01*
X037583Y007776D01*
X037513Y007916D01*
X037513Y007986D01*
X037583Y008056D01*
X037723Y008056D01*
X037793Y007986D01*
X037793Y007846D01*
X037723Y007776D01*
X037723Y007135D02*
X037653Y007135D01*
X037583Y007065D01*
X037583Y006855D01*
X037723Y006855D01*
X037793Y006925D01*
X037793Y007065D01*
X037723Y007135D01*
X037443Y006995D02*
X037373Y007135D01*
X037443Y006995D02*
X037583Y006855D01*
X037443Y006214D02*
X037723Y005934D01*
X037793Y005934D01*
X037373Y005934D02*
X037373Y006214D01*
X037443Y006214D01*
X036283Y006492D02*
X036283Y005687D01*
X037373Y005223D02*
X037443Y005294D01*
X037513Y005294D01*
X037583Y005223D01*
X037583Y005083D01*
X037513Y005013D01*
X037443Y005013D01*
X037373Y005083D01*
X037373Y005223D01*
X037583Y005223D02*
X037653Y005294D01*
X037723Y005294D01*
X037793Y005223D01*
X037793Y005083D01*
X037723Y005013D01*
X037653Y005013D01*
X037583Y005083D01*
X037443Y004373D02*
X037373Y004303D01*
X037373Y004093D01*
X037793Y004093D01*
X037793Y004303D01*
X037723Y004373D01*
X037443Y004373D01*
X037443Y003912D02*
X037583Y003912D01*
X037653Y003842D01*
X037653Y003632D01*
X037793Y003632D02*
X037373Y003632D01*
X037373Y003842D01*
X037443Y003912D01*
X035933Y004892D02*
X034233Y004892D01*
X033883Y005699D02*
X033883Y006492D01*
X034383Y006092D02*
X034385Y006144D01*
X034391Y006196D01*
X034401Y006248D01*
X034414Y006298D01*
X034431Y006348D01*
X034452Y006396D01*
X034477Y006442D01*
X034505Y006486D01*
X034536Y006528D01*
X034570Y006568D01*
X034607Y006605D01*
X034647Y006639D01*
X034689Y006670D01*
X034733Y006698D01*
X034779Y006723D01*
X034827Y006744D01*
X034877Y006761D01*
X034927Y006774D01*
X034979Y006784D01*
X035031Y006790D01*
X035083Y006792D01*
X035135Y006790D01*
X035187Y006784D01*
X035239Y006774D01*
X035289Y006761D01*
X035339Y006744D01*
X035387Y006723D01*
X035433Y006698D01*
X035477Y006670D01*
X035519Y006639D01*
X035559Y006605D01*
X035596Y006568D01*
X035630Y006528D01*
X035661Y006486D01*
X035689Y006442D01*
X035714Y006396D01*
X035735Y006348D01*
X035752Y006298D01*
X035765Y006248D01*
X035775Y006196D01*
X035781Y006144D01*
X035783Y006092D01*
X035781Y006040D01*
X035775Y005988D01*
X035765Y005936D01*
X035752Y005886D01*
X035735Y005836D01*
X035714Y005788D01*
X035689Y005742D01*
X035661Y005698D01*
X035630Y005656D01*
X035596Y005616D01*
X035559Y005579D01*
X035519Y005545D01*
X035477Y005514D01*
X035433Y005486D01*
X035387Y005461D01*
X035339Y005440D01*
X035289Y005423D01*
X035239Y005410D01*
X035187Y005400D01*
X035135Y005394D01*
X035083Y005392D01*
X035031Y005394D01*
X034979Y005400D01*
X034927Y005410D01*
X034877Y005423D01*
X034827Y005440D01*
X034779Y005461D01*
X034733Y005486D01*
X034689Y005514D01*
X034647Y005545D01*
X034607Y005579D01*
X034570Y005616D01*
X034536Y005656D01*
X034505Y005698D01*
X034477Y005742D01*
X034452Y005788D01*
X034431Y005836D01*
X034414Y005886D01*
X034401Y005936D01*
X034391Y005988D01*
X034385Y006040D01*
X034383Y006092D01*
X034233Y007292D02*
X035933Y007292D01*
X023510Y007092D02*
X023513Y007206D01*
X023521Y007320D01*
X023535Y007433D01*
X023555Y007545D01*
X023580Y007656D01*
X023610Y007766D01*
X023646Y007875D01*
X023687Y007981D01*
X023733Y008085D01*
X023784Y008187D01*
X023840Y008286D01*
X023901Y008383D01*
X023967Y008476D01*
X024037Y008566D01*
X024112Y008652D01*
X024190Y008735D01*
X024273Y008813D01*
X024359Y008888D01*
X024449Y008958D01*
X024542Y009024D01*
X024639Y009085D01*
X024738Y009141D01*
X024840Y009192D01*
X024944Y009238D01*
X025050Y009279D01*
X025159Y009315D01*
X025269Y009345D01*
X025380Y009370D01*
X025492Y009390D01*
X025605Y009404D01*
X025719Y009412D01*
X025833Y009415D01*
X025947Y009412D01*
X026061Y009404D01*
X026174Y009390D01*
X026286Y009370D01*
X026397Y009345D01*
X026507Y009315D01*
X026616Y009279D01*
X026722Y009238D01*
X026826Y009192D01*
X026928Y009141D01*
X027027Y009085D01*
X027124Y009024D01*
X027217Y008958D01*
X027307Y008888D01*
X027393Y008813D01*
X027476Y008735D01*
X027554Y008652D01*
X027629Y008566D01*
X027699Y008476D01*
X027765Y008383D01*
X027826Y008286D01*
X027882Y008187D01*
X027933Y008085D01*
X027979Y007981D01*
X028020Y007875D01*
X028056Y007766D01*
X028086Y007656D01*
X028111Y007545D01*
X028131Y007433D01*
X028145Y007320D01*
X028153Y007206D01*
X028156Y007092D01*
X028153Y006978D01*
X028145Y006864D01*
X028131Y006751D01*
X028111Y006639D01*
X028086Y006528D01*
X028056Y006418D01*
X028020Y006309D01*
X027979Y006203D01*
X027933Y006099D01*
X027882Y005997D01*
X027826Y005898D01*
X027765Y005801D01*
X027699Y005708D01*
X027629Y005618D01*
X027554Y005532D01*
X027476Y005449D01*
X027393Y005371D01*
X027307Y005296D01*
X027217Y005226D01*
X027124Y005160D01*
X027027Y005099D01*
X026928Y005043D01*
X026826Y004992D01*
X026722Y004946D01*
X026616Y004905D01*
X026507Y004869D01*
X026397Y004839D01*
X026286Y004814D01*
X026174Y004794D01*
X026061Y004780D01*
X025947Y004772D01*
X025833Y004769D01*
X025719Y004772D01*
X025605Y004780D01*
X025492Y004794D01*
X025380Y004814D01*
X025269Y004839D01*
X025159Y004869D01*
X025050Y004905D01*
X024944Y004946D01*
X024840Y004992D01*
X024738Y005043D01*
X024639Y005099D01*
X024542Y005160D01*
X024449Y005226D01*
X024359Y005296D01*
X024273Y005371D01*
X024190Y005449D01*
X024112Y005532D01*
X024037Y005618D01*
X023967Y005708D01*
X023901Y005801D01*
X023840Y005898D01*
X023784Y005997D01*
X023733Y006099D01*
X023687Y006203D01*
X023646Y006309D01*
X023610Y006418D01*
X023580Y006528D01*
X023555Y006639D01*
X023535Y006751D01*
X023521Y006864D01*
X023513Y006978D01*
X023510Y007092D01*
X019076Y006899D02*
X019076Y006796D01*
X018973Y006692D01*
X019076Y006589D01*
X019076Y006486D01*
X018973Y006382D01*
X018766Y006382D01*
X018662Y006486D01*
X018869Y006692D02*
X018973Y006692D01*
X019076Y006899D02*
X018973Y007003D01*
X018766Y007003D01*
X018662Y006899D01*
X018432Y007003D02*
X018018Y007003D01*
X018225Y007003D02*
X018225Y006382D01*
X017787Y006486D02*
X017787Y006589D01*
X017684Y006692D01*
X017373Y006692D01*
X017373Y006382D02*
X017684Y006382D01*
X017787Y006486D01*
X017684Y006692D02*
X017787Y006796D01*
X017787Y006899D01*
X017684Y007003D01*
X017373Y007003D01*
X017373Y006382D01*
X013083Y006592D02*
X012833Y006592D01*
X012833Y010592D01*
X013083Y010592D01*
X013083Y006592D01*
X012833Y006592D02*
X011333Y006592D01*
X011333Y010592D01*
X012833Y010592D01*
X011183Y011092D02*
X011083Y011092D01*
X011083Y010792D01*
X009083Y010792D01*
X009083Y011092D01*
X008983Y011092D01*
X009083Y011092D02*
X009083Y011392D01*
X011083Y011392D01*
X011083Y011092D01*
X014633Y010997D02*
X014633Y010192D01*
X015133Y010592D02*
X015135Y010644D01*
X015141Y010696D01*
X015151Y010748D01*
X015164Y010798D01*
X015181Y010848D01*
X015202Y010896D01*
X015227Y010942D01*
X015255Y010986D01*
X015286Y011028D01*
X015320Y011068D01*
X015357Y011105D01*
X015397Y011139D01*
X015439Y011170D01*
X015483Y011198D01*
X015529Y011223D01*
X015577Y011244D01*
X015627Y011261D01*
X015677Y011274D01*
X015729Y011284D01*
X015781Y011290D01*
X015833Y011292D01*
X015885Y011290D01*
X015937Y011284D01*
X015989Y011274D01*
X016039Y011261D01*
X016089Y011244D01*
X016137Y011223D01*
X016183Y011198D01*
X016227Y011170D01*
X016269Y011139D01*
X016309Y011105D01*
X016346Y011068D01*
X016380Y011028D01*
X016411Y010986D01*
X016439Y010942D01*
X016464Y010896D01*
X016485Y010848D01*
X016502Y010798D01*
X016515Y010748D01*
X016525Y010696D01*
X016531Y010644D01*
X016533Y010592D01*
X016531Y010540D01*
X016525Y010488D01*
X016515Y010436D01*
X016502Y010386D01*
X016485Y010336D01*
X016464Y010288D01*
X016439Y010242D01*
X016411Y010198D01*
X016380Y010156D01*
X016346Y010116D01*
X016309Y010079D01*
X016269Y010045D01*
X016227Y010014D01*
X016183Y009986D01*
X016137Y009961D01*
X016089Y009940D01*
X016039Y009923D01*
X015989Y009910D01*
X015937Y009900D01*
X015885Y009894D01*
X015833Y009892D01*
X015781Y009894D01*
X015729Y009900D01*
X015677Y009910D01*
X015627Y009923D01*
X015577Y009940D01*
X015529Y009961D01*
X015483Y009986D01*
X015439Y010014D01*
X015397Y010045D01*
X015357Y010079D01*
X015320Y010116D01*
X015286Y010156D01*
X015255Y010198D01*
X015227Y010242D01*
X015202Y010288D01*
X015181Y010336D01*
X015164Y010386D01*
X015151Y010436D01*
X015141Y010488D01*
X015135Y010540D01*
X015133Y010592D01*
X017033Y010985D02*
X017033Y010192D01*
X016683Y009392D02*
X014983Y009392D01*
X010883Y009092D02*
X010583Y009092D01*
X010583Y009192D01*
X010583Y009092D02*
X010283Y009092D01*
X010283Y007092D01*
X010583Y007092D01*
X010583Y006992D01*
X010583Y007092D02*
X010883Y007092D01*
X010883Y009092D01*
X009883Y009092D02*
X009583Y009092D01*
X009583Y009192D01*
X009583Y009092D02*
X009283Y009092D01*
X009283Y007092D01*
X009583Y007092D01*
X009583Y006992D01*
X009583Y007092D02*
X009883Y007092D01*
X009883Y009092D01*
X008883Y009092D02*
X008883Y007092D01*
X008583Y007092D01*
X008583Y006992D01*
X008583Y007092D02*
X008283Y007092D01*
X008283Y009092D01*
X008583Y009092D01*
X008583Y009192D01*
X008583Y009092D02*
X008883Y009092D01*
X006477Y009364D02*
X006477Y008537D01*
X006477Y009364D02*
X002264Y009364D01*
X002264Y005820D01*
X004351Y005820D01*
X006201Y005820D02*
X006477Y005820D01*
X006477Y006647D01*
X007333Y004592D02*
X007083Y004342D01*
X007083Y003842D01*
X007333Y003592D01*
X007833Y003592D01*
X008083Y003842D01*
X008083Y004342D01*
X007833Y004592D01*
X007333Y004592D01*
X008829Y003954D02*
X009329Y003954D01*
X008599Y003592D02*
X008601Y003654D01*
X008607Y003717D01*
X008617Y003778D01*
X008631Y003839D01*
X008648Y003899D01*
X008669Y003958D01*
X008695Y004015D01*
X008723Y004070D01*
X008755Y004124D01*
X008791Y004175D01*
X008829Y004225D01*
X008871Y004271D01*
X008915Y004315D01*
X008963Y004356D01*
X009012Y004394D01*
X009064Y004428D01*
X009118Y004459D01*
X009174Y004487D01*
X009232Y004511D01*
X009291Y004532D01*
X009351Y004548D01*
X009412Y004561D01*
X009474Y004570D01*
X009536Y004575D01*
X009599Y004576D01*
X009661Y004573D01*
X009723Y004566D01*
X009785Y004555D01*
X009845Y004540D01*
X009905Y004522D01*
X009963Y004500D01*
X010020Y004474D01*
X010075Y004444D01*
X010128Y004411D01*
X010179Y004375D01*
X010227Y004336D01*
X010273Y004293D01*
X010316Y004248D01*
X010356Y004200D01*
X010393Y004150D01*
X010427Y004097D01*
X010458Y004043D01*
X010484Y003987D01*
X010508Y003929D01*
X010527Y003869D01*
X010543Y003809D01*
X010555Y003747D01*
X010563Y003686D01*
X010567Y003623D01*
X010567Y003561D01*
X010563Y003498D01*
X010555Y003437D01*
X010543Y003375D01*
X010527Y003315D01*
X010508Y003255D01*
X010484Y003197D01*
X010458Y003141D01*
X010427Y003087D01*
X010393Y003034D01*
X010356Y002984D01*
X010316Y002936D01*
X010273Y002891D01*
X010227Y002848D01*
X010179Y002809D01*
X010128Y002773D01*
X010075Y002740D01*
X010020Y002710D01*
X009963Y002684D01*
X009905Y002662D01*
X009845Y002644D01*
X009785Y002629D01*
X009723Y002618D01*
X009661Y002611D01*
X009599Y002608D01*
X009536Y002609D01*
X009474Y002614D01*
X009412Y002623D01*
X009351Y002636D01*
X009291Y002652D01*
X009232Y002673D01*
X009174Y002697D01*
X009118Y002725D01*
X009064Y002756D01*
X009012Y002790D01*
X008963Y002828D01*
X008915Y002869D01*
X008871Y002913D01*
X008829Y002959D01*
X008791Y003009D01*
X008755Y003060D01*
X008723Y003114D01*
X008695Y003169D01*
X008669Y003226D01*
X008648Y003285D01*
X008631Y003345D01*
X008617Y003406D01*
X008607Y003467D01*
X008601Y003530D01*
X008599Y003592D01*
X008083Y003342D02*
X007833Y003592D01*
X007333Y003592D01*
X007083Y003342D01*
X007083Y002842D01*
X007333Y002592D01*
X007833Y002592D01*
X008083Y002842D01*
X008083Y003342D01*
X005686Y002802D02*
X005686Y002522D01*
X005546Y002382D01*
X005405Y002522D01*
X005405Y002802D01*
X005225Y002802D02*
X004945Y002802D01*
X004945Y002592D01*
X005085Y002662D01*
X005155Y002662D01*
X005225Y002592D01*
X005225Y002452D01*
X005155Y002382D01*
X005015Y002382D01*
X004945Y002452D01*
X004305Y002522D02*
X004305Y002802D01*
X004305Y002522D02*
X004164Y002382D01*
X004024Y002522D01*
X004024Y002802D01*
X003844Y002732D02*
X003844Y002662D01*
X003774Y002592D01*
X003844Y002522D01*
X003844Y002452D01*
X003774Y002382D01*
X003634Y002382D01*
X003564Y002452D01*
X003404Y002452D02*
X003404Y002382D01*
X003334Y002382D01*
X003334Y002452D01*
X003404Y002452D01*
X003154Y002452D02*
X003154Y002522D01*
X003084Y002592D01*
X003013Y002592D01*
X003084Y002592D02*
X003154Y002662D01*
X003154Y002732D01*
X003084Y002802D01*
X002943Y002802D01*
X002873Y002732D01*
X003564Y002732D02*
X003634Y002802D01*
X003774Y002802D01*
X003844Y002732D01*
X003774Y002592D02*
X003704Y002592D01*
X003154Y002452D02*
X003084Y002382D01*
X002943Y002382D01*
X002873Y002452D01*
X011583Y002592D02*
X011583Y004592D01*
X012583Y004592D01*
X012583Y002592D01*
X011583Y002592D01*
X011833Y003592D02*
X012333Y003592D01*
X016083Y002142D02*
X016083Y001842D01*
X015983Y001842D01*
X016083Y001842D02*
X016083Y001542D01*
X018083Y001542D01*
X018083Y001842D01*
X018183Y001842D01*
X018083Y001842D02*
X018083Y002142D01*
X016083Y002142D01*
X019583Y009792D02*
X019583Y010092D01*
X019483Y010092D01*
X019583Y010092D02*
X019583Y010392D01*
X021583Y010392D01*
X021583Y010092D01*
X021683Y010092D01*
X021583Y010092D02*
X021583Y009792D01*
X019583Y009792D01*
X019583Y010792D02*
X019583Y011092D01*
X019483Y011092D01*
X019583Y011092D02*
X019583Y011392D01*
X021583Y011392D01*
X021583Y011092D01*
X021683Y011092D01*
X021583Y011092D02*
X021583Y010792D01*
X019583Y010792D01*
X016833Y012092D02*
X014833Y012092D01*
X014833Y013092D01*
X016833Y013092D01*
X016833Y012092D01*
X016683Y011792D02*
X014983Y011792D01*
X015833Y012342D02*
X015833Y012842D01*
X015883Y013542D02*
X015883Y013842D01*
X015583Y013842D01*
X015883Y013842D02*
X015883Y014142D01*
X017283Y014142D01*
X017283Y013842D01*
X017583Y013842D01*
X017283Y013842D02*
X017283Y013542D01*
X015883Y013542D01*
X016083Y013592D02*
X016083Y014092D01*
X015583Y014542D02*
X015583Y014842D01*
X015483Y014842D01*
X015583Y014842D02*
X015583Y015142D01*
X017583Y015142D01*
X017583Y014842D01*
X017683Y014842D01*
X017583Y014842D02*
X017583Y014542D01*
X015583Y014542D01*
X013583Y014342D02*
X013583Y014842D01*
X011803Y014092D02*
X011805Y014163D01*
X011811Y014234D01*
X011821Y014305D01*
X011835Y014374D01*
X011852Y014443D01*
X011874Y014511D01*
X011899Y014578D01*
X011928Y014643D01*
X011960Y014706D01*
X011996Y014768D01*
X012035Y014827D01*
X012078Y014884D01*
X012123Y014939D01*
X012172Y014991D01*
X012223Y015040D01*
X012277Y015086D01*
X012334Y015130D01*
X012392Y015170D01*
X012453Y015206D01*
X012516Y015240D01*
X012581Y015269D01*
X012647Y015295D01*
X012715Y015318D01*
X012783Y015336D01*
X012853Y015351D01*
X012923Y015362D01*
X012994Y015369D01*
X013065Y015372D01*
X013136Y015371D01*
X013207Y015366D01*
X013278Y015357D01*
X013348Y015344D01*
X013417Y015328D01*
X013485Y015307D01*
X013552Y015283D01*
X013618Y015255D01*
X013681Y015223D01*
X013743Y015188D01*
X013803Y015150D01*
X013861Y015108D01*
X013916Y015064D01*
X013969Y015016D01*
X014019Y014965D01*
X014066Y014912D01*
X014110Y014856D01*
X014151Y014798D01*
X014189Y014737D01*
X014223Y014675D01*
X014253Y014610D01*
X014280Y014545D01*
X014304Y014477D01*
X014323Y014409D01*
X014339Y014340D01*
X014351Y014269D01*
X014359Y014199D01*
X014363Y014128D01*
X014363Y014056D01*
X014359Y013985D01*
X014351Y013915D01*
X014339Y013844D01*
X014323Y013775D01*
X014304Y013707D01*
X014280Y013639D01*
X014253Y013574D01*
X014223Y013509D01*
X014189Y013447D01*
X014151Y013386D01*
X014110Y013328D01*
X014066Y013272D01*
X014019Y013219D01*
X013969Y013168D01*
X013916Y013120D01*
X013861Y013076D01*
X013803Y013034D01*
X013743Y012996D01*
X013681Y012961D01*
X013618Y012929D01*
X013552Y012901D01*
X013485Y012877D01*
X013417Y012856D01*
X013348Y012840D01*
X013278Y012827D01*
X013207Y012818D01*
X013136Y012813D01*
X013065Y012812D01*
X012994Y012815D01*
X012923Y012822D01*
X012853Y012833D01*
X012783Y012848D01*
X012715Y012866D01*
X012647Y012889D01*
X012581Y012915D01*
X012516Y012944D01*
X012453Y012978D01*
X012392Y013014D01*
X012334Y013054D01*
X012277Y013098D01*
X012223Y013144D01*
X012172Y013193D01*
X012123Y013245D01*
X012078Y013300D01*
X012035Y013357D01*
X011996Y013416D01*
X011960Y013478D01*
X011928Y013541D01*
X011899Y013606D01*
X011874Y013673D01*
X011852Y013741D01*
X011835Y013810D01*
X011821Y013879D01*
X011811Y013950D01*
X011805Y014021D01*
X011803Y014092D01*
X010833Y015092D02*
X009333Y015092D01*
X009275Y015382D02*
X009275Y015592D01*
X009205Y015662D01*
X009135Y015592D01*
X009135Y015382D01*
X008995Y015382D02*
X008995Y015662D01*
X009065Y015662D01*
X009135Y015592D01*
X008814Y015592D02*
X008744Y015662D01*
X008604Y015662D01*
X008534Y015592D01*
X008534Y015452D01*
X008604Y015382D01*
X008744Y015382D01*
X008814Y015452D01*
X008814Y015592D01*
X008354Y015662D02*
X008144Y015662D01*
X008074Y015592D01*
X008074Y015452D01*
X008144Y015382D01*
X008354Y015382D01*
X007914Y015382D02*
X007844Y015382D01*
X007844Y015452D01*
X007914Y015452D01*
X007914Y015382D01*
X007677Y015382D02*
X007607Y015452D01*
X007607Y015732D01*
X007537Y015662D02*
X007677Y015662D01*
X007357Y015592D02*
X007357Y015382D01*
X007146Y015382D01*
X007076Y015452D01*
X007146Y015522D01*
X007357Y015522D01*
X007357Y015592D02*
X007286Y015662D01*
X007146Y015662D01*
X006896Y015662D02*
X006686Y015662D01*
X006616Y015592D01*
X006686Y015522D01*
X006826Y015522D01*
X006896Y015452D01*
X006826Y015382D01*
X006616Y015382D01*
X006442Y015662D02*
X006372Y015662D01*
X006232Y015522D01*
X006232Y015382D02*
X006232Y015662D01*
X006052Y015592D02*
X006052Y015522D01*
X005772Y015522D01*
X005772Y015452D02*
X005772Y015592D01*
X005842Y015662D01*
X005982Y015662D01*
X006052Y015592D01*
X005982Y015382D02*
X005842Y015382D01*
X005772Y015452D01*
X005592Y015522D02*
X005592Y015802D01*
X005311Y015802D02*
X005311Y015522D01*
X005452Y015382D01*
X005592Y015522D01*
X005131Y015592D02*
X005131Y015382D01*
X005131Y015592D02*
X005061Y015662D01*
X004921Y015662D01*
X004851Y015592D01*
X004671Y015662D02*
X004461Y015662D01*
X004391Y015592D01*
X004391Y015452D01*
X004461Y015382D01*
X004671Y015382D01*
X004851Y015382D02*
X004851Y015802D01*
X004210Y015592D02*
X004210Y015522D01*
X003930Y015522D01*
X003930Y015452D02*
X003930Y015592D01*
X004000Y015662D01*
X004140Y015662D01*
X004210Y015592D01*
X004140Y015382D02*
X004000Y015382D01*
X003930Y015452D01*
X003763Y015382D02*
X003693Y015452D01*
X003693Y015732D01*
X003623Y015662D02*
X003763Y015662D01*
X004833Y014342D02*
X004583Y014092D01*
X004583Y013592D01*
X004833Y013342D01*
X005333Y013342D01*
X005583Y013592D01*
X005833Y013342D01*
X006333Y013342D01*
X006583Y013592D01*
X006583Y014092D01*
X006333Y014342D01*
X005833Y014342D01*
X005583Y014092D01*
X005333Y014342D01*
X004833Y014342D01*
X023983Y011092D02*
X024083Y011092D01*
X024083Y011392D01*
X026083Y011392D01*
X026083Y011092D01*
X026183Y011092D01*
X026083Y011092D02*
X026083Y010792D01*
X024083Y010792D01*
X024083Y011092D01*
X024083Y010392D02*
X026083Y010392D01*
X026083Y010092D01*
X026183Y010092D01*
X026083Y010092D02*
X026083Y009792D01*
X024083Y009792D01*
X024083Y010092D01*
X023983Y010092D01*
X024083Y010092D02*
X024083Y010392D01*
X034233Y014792D02*
X035933Y014792D01*
D13*
X037046Y003073D02*
X037046Y002612D01*
X036893Y002612D02*
X037200Y002612D01*
X036893Y002919D02*
X037046Y003073D01*
X036970Y002073D02*
X036893Y001996D01*
X036970Y002073D02*
X037123Y002073D01*
X037200Y001996D01*
X037200Y001919D01*
X036893Y001612D01*
X037200Y001612D01*
X033450Y001689D02*
X033450Y001766D01*
X033373Y001842D01*
X033143Y001842D01*
X033143Y001689D01*
X033220Y001612D01*
X033373Y001612D01*
X033450Y001689D01*
X033296Y001996D02*
X033143Y001842D01*
X033296Y001996D02*
X033450Y002073D01*
X033373Y002612D02*
X033220Y002612D01*
X033143Y002689D01*
X033143Y002842D02*
X033296Y002919D01*
X033373Y002919D01*
X033450Y002842D01*
X033450Y002689D01*
X033373Y002612D01*
X033143Y002842D02*
X033143Y003073D01*
X033450Y003073D01*
D14*
X036083Y003842D02*
X036333Y003592D01*
X036583Y003842D01*
X036083Y003842D01*
X036103Y003822D02*
X036564Y003822D01*
X036540Y003799D02*
X036127Y003799D01*
X036150Y003775D02*
X036517Y003775D01*
X036493Y003752D02*
X036173Y003752D01*
X036197Y003729D02*
X036470Y003729D01*
X036446Y003705D02*
X036220Y003705D01*
X036244Y003682D02*
X036423Y003682D01*
X036399Y003658D02*
X036267Y003658D01*
X036291Y003635D02*
X036376Y003635D01*
X036352Y003611D02*
X036314Y003611D01*
D15*
X024963Y003533D02*
X024963Y008651D01*
X014333Y008651D01*
X014333Y003533D01*
X024963Y003533D01*
X022462Y008307D02*
X022464Y008330D01*
X022470Y008352D01*
X022479Y008373D01*
X022491Y008392D01*
X022507Y008409D01*
X022525Y008423D01*
X022545Y008434D01*
X022567Y008442D01*
X022590Y008446D01*
X022612Y008446D01*
X022635Y008442D01*
X022657Y008434D01*
X022677Y008423D01*
X022695Y008409D01*
X022711Y008392D01*
X022723Y008373D01*
X022732Y008352D01*
X022738Y008330D01*
X022740Y008307D01*
X022738Y008284D01*
X022732Y008262D01*
X022723Y008241D01*
X022711Y008222D01*
X022695Y008205D01*
X022677Y008191D01*
X022657Y008180D01*
X022635Y008172D01*
X022612Y008168D01*
X022590Y008168D01*
X022567Y008172D01*
X022545Y008180D01*
X022525Y008191D01*
X022507Y008205D01*
X022491Y008222D01*
X022479Y008241D01*
X022470Y008262D01*
X022464Y008284D01*
X022462Y008307D01*
X008183Y012092D02*
X006983Y012092D01*
X006983Y015092D01*
X008183Y015092D01*
X008183Y012092D01*
X006373Y011698D02*
X001794Y011698D01*
X001794Y009986D01*
X006373Y009986D01*
X006373Y011698D01*
X006373Y004698D02*
X001794Y004698D01*
X001794Y002986D01*
X006373Y002986D01*
X006373Y004698D01*
D16*
X008848Y002351D02*
X008945Y002447D01*
X008945Y002157D01*
X008848Y002157D02*
X009042Y002157D01*
X009143Y002205D02*
X009336Y002399D01*
X009336Y002205D01*
X009288Y002157D01*
X009191Y002157D01*
X009143Y002205D01*
X009143Y002399D01*
X009191Y002447D01*
X009288Y002447D01*
X009336Y002399D01*
X009438Y002351D02*
X009438Y002205D01*
X009486Y002157D01*
X009631Y002157D01*
X009631Y002351D01*
X009732Y002302D02*
X009829Y002302D01*
X009732Y002157D02*
X009732Y002447D01*
X009926Y002447D01*
X011495Y013384D02*
X011398Y013481D01*
X011688Y013481D01*
X011688Y013577D02*
X011688Y013384D01*
X011640Y013679D02*
X011446Y013679D01*
X011398Y013727D01*
X011398Y013824D01*
X011446Y013872D01*
X011640Y013679D01*
X011688Y013727D01*
X011688Y013824D01*
X011640Y013872D01*
X011446Y013872D01*
X011446Y013973D02*
X011398Y014022D01*
X011398Y014118D01*
X011446Y014167D01*
X011640Y013973D01*
X011688Y014022D01*
X011688Y014118D01*
X011640Y014167D01*
X011446Y014167D01*
X011495Y014268D02*
X011640Y014268D01*
X011688Y014316D01*
X011688Y014461D01*
X011495Y014461D01*
X011543Y014562D02*
X011543Y014659D01*
X011398Y014562D02*
X011398Y014756D01*
X011398Y014562D02*
X011688Y014562D01*
X011640Y013973D02*
X011446Y013973D01*
D17*
X009303Y015124D02*
X009357Y015052D01*
X009356Y015053D02*
X009303Y015010D01*
X009252Y014965D01*
X009204Y014916D01*
X009159Y014865D01*
X009116Y014811D01*
X009077Y014755D01*
X009041Y014697D01*
X009008Y014637D01*
X008979Y014576D01*
X008954Y014512D01*
X008932Y014448D01*
X008913Y014382D01*
X008899Y014315D01*
X008888Y014248D01*
X008881Y014180D01*
X008878Y014112D01*
X008879Y014043D01*
X008884Y013975D01*
X008892Y013907D01*
X008905Y013840D01*
X008921Y013774D01*
X008941Y013709D01*
X008964Y013644D01*
X008991Y013582D01*
X009022Y013521D01*
X009056Y013462D01*
X009093Y013404D01*
X009134Y013349D01*
X009178Y013297D01*
X009224Y013247D01*
X009273Y013200D01*
X009325Y013155D01*
X009379Y013114D01*
X009436Y013075D01*
X009495Y013040D01*
X009555Y013009D01*
X009617Y012981D01*
X009681Y012956D01*
X009746Y012935D01*
X009812Y012918D01*
X009879Y012904D01*
X009947Y012895D01*
X010015Y012889D01*
X010083Y012887D01*
X010151Y012889D01*
X010219Y012895D01*
X010287Y012904D01*
X010354Y012918D01*
X010420Y012935D01*
X010485Y012956D01*
X010549Y012981D01*
X010611Y013009D01*
X010671Y013040D01*
X010730Y013075D01*
X010787Y013114D01*
X010841Y013155D01*
X010893Y013200D01*
X010942Y013247D01*
X010988Y013297D01*
X011032Y013349D01*
X011073Y013404D01*
X011110Y013462D01*
X011144Y013521D01*
X011175Y013582D01*
X011202Y013644D01*
X011225Y013709D01*
X011245Y013774D01*
X011261Y013840D01*
X011274Y013907D01*
X011282Y013975D01*
X011287Y014043D01*
X011288Y014112D01*
X011285Y014180D01*
X011278Y014248D01*
X011267Y014315D01*
X011253Y014382D01*
X011234Y014448D01*
X011212Y014512D01*
X011187Y014576D01*
X011158Y014637D01*
X011125Y014697D01*
X011089Y014755D01*
X011050Y014811D01*
X011007Y014865D01*
X010962Y014916D01*
X010914Y014965D01*
X010863Y015010D01*
X010810Y015053D01*
X010863Y015124D01*
X010864Y015125D01*
X010919Y015081D01*
X010972Y015033D01*
X011023Y014983D01*
X011070Y014930D01*
X011114Y014875D01*
X011156Y014817D01*
X011194Y014757D01*
X011229Y014696D01*
X011260Y014632D01*
X011288Y014567D01*
X011312Y014500D01*
X011333Y014432D01*
X011349Y014363D01*
X011362Y014293D01*
X011371Y014223D01*
X011377Y014152D01*
X011378Y014081D01*
X011375Y014010D01*
X011369Y013939D01*
X011359Y013869D01*
X011345Y013800D01*
X011327Y013731D01*
X011305Y013663D01*
X011280Y013597D01*
X011251Y013532D01*
X011218Y013469D01*
X011182Y013408D01*
X011143Y013349D01*
X011101Y013292D01*
X011056Y013237D01*
X011007Y013185D01*
X010956Y013136D01*
X010903Y013089D01*
X010846Y013046D01*
X010788Y013006D01*
X010727Y012969D01*
X010665Y012935D01*
X010601Y012905D01*
X010535Y012878D01*
X010468Y012855D01*
X010399Y012836D01*
X010330Y012821D01*
X010260Y012809D01*
X010189Y012801D01*
X010118Y012797D01*
X010048Y012797D01*
X009977Y012801D01*
X009906Y012809D01*
X009836Y012821D01*
X009767Y012836D01*
X009698Y012855D01*
X009631Y012878D01*
X009565Y012905D01*
X009501Y012935D01*
X009439Y012969D01*
X009378Y013006D01*
X009320Y013046D01*
X009263Y013089D01*
X009210Y013136D01*
X009159Y013185D01*
X009110Y013237D01*
X009065Y013292D01*
X009023Y013349D01*
X008984Y013408D01*
X008948Y013469D01*
X008915Y013532D01*
X008886Y013597D01*
X008861Y013663D01*
X008839Y013731D01*
X008821Y013800D01*
X008807Y013869D01*
X008797Y013939D01*
X008791Y014010D01*
X008788Y014081D01*
X008789Y014152D01*
X008795Y014223D01*
X008804Y014293D01*
X008817Y014363D01*
X008833Y014432D01*
X008854Y014500D01*
X008878Y014567D01*
X008906Y014632D01*
X008937Y014696D01*
X008972Y014757D01*
X009010Y014817D01*
X009052Y014875D01*
X009096Y014930D01*
X009143Y014983D01*
X009194Y015033D01*
X009247Y015081D01*
X009302Y015125D01*
X009307Y015118D01*
X009252Y015073D01*
X009199Y015026D01*
X009148Y014975D01*
X009101Y014922D01*
X009056Y014866D01*
X009015Y014808D01*
X008977Y014748D01*
X008942Y014686D01*
X008911Y014622D01*
X008884Y014556D01*
X008860Y014489D01*
X008840Y014420D01*
X008823Y014351D01*
X008811Y014281D01*
X008802Y014210D01*
X008798Y014139D01*
X008797Y014068D01*
X008801Y013997D01*
X008808Y013926D01*
X008819Y013855D01*
X008834Y013786D01*
X008853Y013717D01*
X008876Y013649D01*
X008902Y013583D01*
X008932Y013518D01*
X008966Y013456D01*
X009002Y013395D01*
X009043Y013336D01*
X009086Y013279D01*
X009133Y013225D01*
X009182Y013174D01*
X009235Y013126D01*
X009289Y013080D01*
X009347Y013038D01*
X009406Y012999D01*
X009468Y012963D01*
X009531Y012930D01*
X009596Y012902D01*
X009663Y012876D01*
X009731Y012855D01*
X009800Y012837D01*
X009870Y012824D01*
X009941Y012814D01*
X010012Y012808D01*
X010083Y012806D01*
X010154Y012808D01*
X010225Y012814D01*
X010296Y012824D01*
X010366Y012837D01*
X010435Y012855D01*
X010503Y012876D01*
X010570Y012902D01*
X010635Y012930D01*
X010698Y012963D01*
X010760Y012999D01*
X010819Y013038D01*
X010877Y013080D01*
X010931Y013126D01*
X010984Y013174D01*
X011033Y013225D01*
X011080Y013279D01*
X011123Y013336D01*
X011164Y013395D01*
X011200Y013456D01*
X011234Y013518D01*
X011264Y013583D01*
X011290Y013649D01*
X011313Y013717D01*
X011332Y013786D01*
X011347Y013855D01*
X011358Y013926D01*
X011365Y013997D01*
X011369Y014068D01*
X011368Y014139D01*
X011364Y014210D01*
X011355Y014281D01*
X011343Y014351D01*
X011326Y014420D01*
X011306Y014489D01*
X011282Y014556D01*
X011255Y014622D01*
X011224Y014686D01*
X011189Y014748D01*
X011151Y014808D01*
X011110Y014866D01*
X011065Y014922D01*
X011018Y014975D01*
X010967Y015026D01*
X010914Y015073D01*
X010859Y015118D01*
X010853Y015111D01*
X010908Y015066D01*
X010961Y015019D01*
X011011Y014969D01*
X011058Y014916D01*
X011102Y014861D01*
X011144Y014803D01*
X011181Y014744D01*
X011216Y014682D01*
X011247Y014618D01*
X011274Y014553D01*
X011298Y014486D01*
X011318Y014418D01*
X011334Y014349D01*
X011346Y014280D01*
X011355Y014209D01*
X011359Y014139D01*
X011360Y014068D01*
X011356Y013997D01*
X011349Y013927D01*
X011338Y013857D01*
X011323Y013788D01*
X011304Y013720D01*
X011282Y013652D01*
X011256Y013587D01*
X011226Y013522D01*
X011193Y013460D01*
X011156Y013400D01*
X011116Y013341D01*
X011073Y013285D01*
X011027Y013231D01*
X010977Y013181D01*
X010926Y013132D01*
X010871Y013087D01*
X010814Y013045D01*
X010755Y013006D01*
X010694Y012971D01*
X010631Y012938D01*
X010566Y012910D01*
X010500Y012885D01*
X010432Y012864D01*
X010364Y012846D01*
X010294Y012833D01*
X010224Y012823D01*
X010154Y012817D01*
X010083Y012815D01*
X010012Y012817D01*
X009942Y012823D01*
X009872Y012833D01*
X009802Y012846D01*
X009734Y012864D01*
X009666Y012885D01*
X009600Y012910D01*
X009535Y012938D01*
X009472Y012971D01*
X009411Y013006D01*
X009352Y013045D01*
X009295Y013087D01*
X009240Y013132D01*
X009189Y013181D01*
X009139Y013231D01*
X009093Y013285D01*
X009050Y013341D01*
X009010Y013400D01*
X008973Y013460D01*
X008940Y013522D01*
X008910Y013587D01*
X008884Y013652D01*
X008862Y013720D01*
X008843Y013788D01*
X008828Y013857D01*
X008817Y013927D01*
X008810Y013997D01*
X008806Y014068D01*
X008807Y014139D01*
X008811Y014209D01*
X008820Y014280D01*
X008832Y014349D01*
X008848Y014418D01*
X008868Y014486D01*
X008892Y014553D01*
X008919Y014618D01*
X008950Y014682D01*
X008985Y014744D01*
X009022Y014803D01*
X009064Y014861D01*
X009108Y014916D01*
X009155Y014969D01*
X009205Y015019D01*
X009258Y015066D01*
X009313Y015111D01*
X009318Y015103D01*
X009263Y015059D01*
X009210Y015011D01*
X009160Y014961D01*
X009112Y014908D01*
X009068Y014852D01*
X009027Y014794D01*
X008990Y014734D01*
X008955Y014672D01*
X008925Y014608D01*
X008898Y014542D01*
X008874Y014475D01*
X008855Y014407D01*
X008839Y014337D01*
X008827Y014267D01*
X008819Y014197D01*
X008815Y014126D01*
X008816Y014055D01*
X008820Y013984D01*
X008828Y013913D01*
X008840Y013843D01*
X008856Y013774D01*
X008875Y013706D01*
X008899Y013638D01*
X008926Y013573D01*
X008957Y013509D01*
X008991Y013447D01*
X009029Y013387D01*
X009071Y013329D01*
X009115Y013273D01*
X009162Y013220D01*
X009213Y013170D01*
X009266Y013123D01*
X009321Y013078D01*
X009379Y013037D01*
X009439Y013000D01*
X009502Y012965D01*
X009566Y012934D01*
X009631Y012907D01*
X009698Y012884D01*
X009767Y012864D01*
X009836Y012848D01*
X009906Y012836D01*
X009977Y012828D01*
X010047Y012824D01*
X010119Y012824D01*
X010189Y012828D01*
X010260Y012836D01*
X010330Y012848D01*
X010399Y012864D01*
X010468Y012884D01*
X010535Y012907D01*
X010600Y012934D01*
X010664Y012965D01*
X010727Y013000D01*
X010787Y013037D01*
X010845Y013078D01*
X010900Y013123D01*
X010953Y013170D01*
X011004Y013220D01*
X011051Y013273D01*
X011095Y013329D01*
X011137Y013387D01*
X011175Y013447D01*
X011209Y013509D01*
X011240Y013573D01*
X011267Y013638D01*
X011291Y013706D01*
X011310Y013774D01*
X011326Y013843D01*
X011338Y013913D01*
X011346Y013984D01*
X011350Y014055D01*
X011351Y014126D01*
X011347Y014197D01*
X011339Y014267D01*
X011327Y014337D01*
X011311Y014407D01*
X011292Y014475D01*
X011268Y014542D01*
X011241Y014608D01*
X011211Y014672D01*
X011176Y014734D01*
X011139Y014794D01*
X011098Y014852D01*
X011054Y014908D01*
X011006Y014961D01*
X010956Y015011D01*
X010903Y015059D01*
X010848Y015103D01*
X010842Y015096D01*
X010897Y015052D01*
X010950Y015005D01*
X011000Y014955D01*
X011047Y014902D01*
X011091Y014847D01*
X011131Y014789D01*
X011169Y014730D01*
X011203Y014668D01*
X011233Y014604D01*
X011260Y014539D01*
X011283Y014472D01*
X011303Y014404D01*
X011318Y014336D01*
X011330Y014266D01*
X011338Y014196D01*
X011342Y014125D01*
X011341Y014055D01*
X011337Y013984D01*
X011329Y013914D01*
X011317Y013845D01*
X011302Y013776D01*
X011282Y013708D01*
X011259Y013642D01*
X011232Y013577D01*
X011201Y013513D01*
X011167Y013451D01*
X011129Y013392D01*
X011088Y013334D01*
X011044Y013279D01*
X010997Y013226D01*
X010947Y013177D01*
X010895Y013130D01*
X010839Y013086D01*
X010782Y013045D01*
X010722Y013007D01*
X010660Y012973D01*
X010597Y012943D01*
X010532Y012916D01*
X010465Y012892D01*
X010397Y012873D01*
X010328Y012857D01*
X010259Y012845D01*
X010189Y012837D01*
X010118Y012833D01*
X010048Y012833D01*
X009977Y012837D01*
X009907Y012845D01*
X009838Y012857D01*
X009769Y012873D01*
X009701Y012892D01*
X009634Y012916D01*
X009569Y012943D01*
X009506Y012973D01*
X009444Y013007D01*
X009384Y013045D01*
X009327Y013086D01*
X009271Y013130D01*
X009219Y013177D01*
X009169Y013226D01*
X009122Y013279D01*
X009078Y013334D01*
X009037Y013392D01*
X008999Y013451D01*
X008965Y013513D01*
X008934Y013577D01*
X008907Y013642D01*
X008884Y013708D01*
X008864Y013776D01*
X008849Y013845D01*
X008837Y013914D01*
X008829Y013984D01*
X008825Y014055D01*
X008824Y014125D01*
X008828Y014196D01*
X008836Y014266D01*
X008848Y014336D01*
X008863Y014404D01*
X008883Y014472D01*
X008906Y014539D01*
X008933Y014604D01*
X008963Y014668D01*
X008997Y014730D01*
X009035Y014789D01*
X009075Y014847D01*
X009119Y014902D01*
X009166Y014955D01*
X009216Y015005D01*
X009269Y015052D01*
X009324Y015096D01*
X009329Y015089D01*
X009274Y015045D01*
X009222Y014998D01*
X009173Y014949D01*
X009126Y014896D01*
X009083Y014842D01*
X009042Y014784D01*
X009005Y014725D01*
X008971Y014664D01*
X008941Y014600D01*
X008914Y014536D01*
X008891Y014469D01*
X008872Y014402D01*
X008857Y014334D01*
X008845Y014265D01*
X008837Y014195D01*
X008833Y014125D01*
X008834Y014055D01*
X008838Y013985D01*
X008846Y013916D01*
X008857Y013847D01*
X008873Y013778D01*
X008892Y013711D01*
X008916Y013645D01*
X008943Y013580D01*
X008973Y013517D01*
X009007Y013456D01*
X009044Y013397D01*
X009085Y013339D01*
X009129Y013285D01*
X009175Y013233D01*
X009225Y013183D01*
X009277Y013136D01*
X009332Y013093D01*
X009389Y013052D01*
X009448Y013015D01*
X009510Y012981D01*
X009573Y012951D01*
X009638Y012924D01*
X009704Y012901D01*
X009771Y012882D01*
X009839Y012866D01*
X009908Y012854D01*
X009978Y012846D01*
X010048Y012842D01*
X010118Y012842D01*
X010188Y012846D01*
X010258Y012854D01*
X010327Y012866D01*
X010395Y012882D01*
X010462Y012901D01*
X010528Y012924D01*
X010593Y012951D01*
X010656Y012981D01*
X010718Y013015D01*
X010777Y013052D01*
X010834Y013093D01*
X010889Y013136D01*
X010941Y013183D01*
X010991Y013233D01*
X011037Y013285D01*
X011081Y013339D01*
X011122Y013397D01*
X011159Y013456D01*
X011193Y013517D01*
X011223Y013580D01*
X011250Y013645D01*
X011274Y013711D01*
X011293Y013778D01*
X011309Y013847D01*
X011320Y013916D01*
X011328Y013985D01*
X011332Y014055D01*
X011333Y014125D01*
X011329Y014195D01*
X011321Y014265D01*
X011309Y014334D01*
X011294Y014402D01*
X011275Y014469D01*
X011252Y014536D01*
X011225Y014600D01*
X011195Y014664D01*
X011161Y014725D01*
X011124Y014784D01*
X011083Y014842D01*
X011040Y014896D01*
X010993Y014949D01*
X010944Y014998D01*
X010892Y015045D01*
X010837Y015089D01*
X010832Y015082D01*
X010886Y015038D01*
X010938Y014992D01*
X010987Y014943D01*
X011033Y014891D01*
X011076Y014836D01*
X011116Y014779D01*
X011153Y014720D01*
X011187Y014659D01*
X011217Y014597D01*
X011243Y014532D01*
X011266Y014467D01*
X011285Y014400D01*
X011301Y014332D01*
X011312Y014263D01*
X011320Y014194D01*
X011324Y014125D01*
X011323Y014055D01*
X011319Y013986D01*
X011312Y013917D01*
X011300Y013848D01*
X011284Y013781D01*
X011265Y013714D01*
X011242Y013648D01*
X011215Y013584D01*
X011185Y013521D01*
X011151Y013460D01*
X011114Y013402D01*
X011074Y013345D01*
X011031Y013291D01*
X010984Y013239D01*
X010935Y013190D01*
X010883Y013143D01*
X010829Y013100D01*
X010772Y013060D01*
X010713Y013023D01*
X010652Y012989D01*
X010589Y012959D01*
X010525Y012932D01*
X010460Y012909D01*
X010393Y012890D01*
X010325Y012875D01*
X010256Y012863D01*
X010187Y012855D01*
X010118Y012851D01*
X010048Y012851D01*
X009979Y012855D01*
X009910Y012863D01*
X009841Y012875D01*
X009773Y012890D01*
X009706Y012909D01*
X009641Y012932D01*
X009577Y012959D01*
X009514Y012989D01*
X009453Y013023D01*
X009394Y013060D01*
X009337Y013100D01*
X009283Y013143D01*
X009231Y013190D01*
X009182Y013239D01*
X009135Y013291D01*
X009092Y013345D01*
X009052Y013402D01*
X009015Y013460D01*
X008981Y013521D01*
X008951Y013584D01*
X008924Y013648D01*
X008901Y013714D01*
X008882Y013781D01*
X008866Y013848D01*
X008854Y013917D01*
X008847Y013986D01*
X008843Y014055D01*
X008842Y014125D01*
X008846Y014194D01*
X008854Y014263D01*
X008865Y014332D01*
X008881Y014400D01*
X008900Y014467D01*
X008923Y014532D01*
X008949Y014597D01*
X008979Y014659D01*
X009013Y014720D01*
X009050Y014779D01*
X009090Y014836D01*
X009133Y014891D01*
X009179Y014943D01*
X009228Y014992D01*
X009280Y015038D01*
X009334Y015082D01*
X009340Y015075D01*
X009286Y015031D01*
X009235Y014985D01*
X009186Y014936D01*
X009140Y014885D01*
X009097Y014831D01*
X009057Y014774D01*
X009021Y014716D01*
X008987Y014655D01*
X008957Y014593D01*
X008931Y014529D01*
X008909Y014464D01*
X008890Y014398D01*
X008874Y014330D01*
X008863Y014262D01*
X008855Y014194D01*
X008851Y014125D01*
X008852Y014056D01*
X008856Y013987D01*
X008863Y013918D01*
X008875Y013850D01*
X008890Y013783D01*
X008910Y013716D01*
X008933Y013651D01*
X008959Y013588D01*
X008989Y013525D01*
X009022Y013465D01*
X009059Y013407D01*
X009099Y013350D01*
X009142Y013296D01*
X009188Y013245D01*
X009237Y013196D01*
X009289Y013150D01*
X009343Y013107D01*
X009399Y013067D01*
X009458Y013031D01*
X009518Y012997D01*
X009580Y012967D01*
X009644Y012941D01*
X009709Y012918D01*
X009776Y012899D01*
X009843Y012884D01*
X009911Y012872D01*
X009980Y012864D01*
X010048Y012860D01*
X010118Y012860D01*
X010186Y012864D01*
X010255Y012872D01*
X010323Y012884D01*
X010390Y012899D01*
X010457Y012918D01*
X010522Y012941D01*
X010586Y012967D01*
X010648Y012997D01*
X010708Y013031D01*
X010767Y013067D01*
X010823Y013107D01*
X010877Y013150D01*
X010929Y013196D01*
X010978Y013245D01*
X011024Y013296D01*
X011067Y013350D01*
X011107Y013407D01*
X011144Y013465D01*
X011177Y013525D01*
X011207Y013588D01*
X011233Y013651D01*
X011256Y013716D01*
X011276Y013783D01*
X011291Y013850D01*
X011303Y013918D01*
X011310Y013987D01*
X011314Y014056D01*
X011315Y014125D01*
X011311Y014194D01*
X011303Y014262D01*
X011292Y014330D01*
X011276Y014398D01*
X011257Y014464D01*
X011235Y014529D01*
X011209Y014593D01*
X011179Y014655D01*
X011145Y014716D01*
X011109Y014774D01*
X011069Y014831D01*
X011026Y014885D01*
X010980Y014936D01*
X010931Y014985D01*
X010880Y015031D01*
X010826Y015075D01*
X010821Y015067D01*
X010875Y015024D01*
X010926Y014978D01*
X010975Y014928D01*
X011021Y014877D01*
X011064Y014822D01*
X011104Y014765D01*
X011140Y014707D01*
X011174Y014646D01*
X011203Y014583D01*
X011229Y014519D01*
X011251Y014453D01*
X011270Y014386D01*
X011285Y014319D01*
X011296Y014250D01*
X011303Y014181D01*
X011306Y014112D01*
X011305Y014043D01*
X011300Y013973D01*
X011292Y013905D01*
X011279Y013837D01*
X011263Y013769D01*
X011242Y013703D01*
X011219Y013638D01*
X011191Y013574D01*
X011160Y013512D01*
X011125Y013452D01*
X011087Y013394D01*
X011046Y013338D01*
X011002Y013285D01*
X010955Y013234D01*
X010905Y013186D01*
X010852Y013141D01*
X010797Y013099D01*
X010740Y013060D01*
X010680Y013025D01*
X010619Y012993D01*
X010556Y012964D01*
X010491Y012939D01*
X010425Y012918D01*
X010358Y012900D01*
X010290Y012887D01*
X010221Y012877D01*
X010152Y012871D01*
X010083Y012869D01*
X010014Y012871D01*
X009945Y012877D01*
X009876Y012887D01*
X009808Y012900D01*
X009741Y012918D01*
X009675Y012939D01*
X009610Y012964D01*
X009547Y012993D01*
X009486Y013025D01*
X009426Y013060D01*
X009369Y013099D01*
X009314Y013141D01*
X009261Y013186D01*
X009211Y013234D01*
X009164Y013285D01*
X009120Y013338D01*
X009079Y013394D01*
X009041Y013452D01*
X009006Y013512D01*
X008975Y013574D01*
X008947Y013638D01*
X008924Y013703D01*
X008903Y013769D01*
X008887Y013837D01*
X008874Y013905D01*
X008866Y013973D01*
X008861Y014043D01*
X008860Y014112D01*
X008863Y014181D01*
X008870Y014250D01*
X008881Y014319D01*
X008896Y014386D01*
X008915Y014453D01*
X008937Y014519D01*
X008963Y014583D01*
X008992Y014646D01*
X009026Y014707D01*
X009062Y014765D01*
X009102Y014822D01*
X009145Y014877D01*
X009191Y014928D01*
X009240Y014978D01*
X009291Y015024D01*
X009345Y015067D01*
X009351Y015060D01*
X009297Y015017D01*
X009246Y014971D01*
X009197Y014922D01*
X009152Y014871D01*
X009109Y014817D01*
X009070Y014760D01*
X009033Y014702D01*
X009000Y014642D01*
X008971Y014579D01*
X008945Y014516D01*
X008923Y014450D01*
X008905Y014384D01*
X008890Y014317D01*
X008879Y014249D01*
X008872Y014180D01*
X008869Y014112D01*
X008870Y014043D01*
X008875Y013974D01*
X008883Y013906D01*
X008896Y013838D01*
X008912Y013772D01*
X008932Y013706D01*
X008956Y013641D01*
X008983Y013578D01*
X009014Y013517D01*
X009048Y013457D01*
X009086Y013399D01*
X009127Y013344D01*
X009171Y013291D01*
X009218Y013241D01*
X009267Y013193D01*
X009319Y013148D01*
X009374Y013106D01*
X009431Y013068D01*
X009490Y013033D01*
X009551Y013001D01*
X009614Y012972D01*
X009678Y012948D01*
X009744Y012926D01*
X009810Y012909D01*
X009878Y012896D01*
X009946Y012886D01*
X010014Y012880D01*
X010083Y012878D01*
X010152Y012880D01*
X010220Y012886D01*
X010288Y012896D01*
X010356Y012909D01*
X010422Y012926D01*
X010488Y012948D01*
X010552Y012972D01*
X010615Y013001D01*
X010676Y013033D01*
X010735Y013068D01*
X010792Y013106D01*
X010847Y013148D01*
X010899Y013193D01*
X010948Y013241D01*
X010995Y013291D01*
X011039Y013344D01*
X011080Y013399D01*
X011118Y013457D01*
X011152Y013517D01*
X011183Y013578D01*
X011210Y013641D01*
X011234Y013706D01*
X011254Y013772D01*
X011270Y013838D01*
X011283Y013906D01*
X011291Y013974D01*
X011296Y014043D01*
X011297Y014112D01*
X011294Y014180D01*
X011287Y014249D01*
X011276Y014317D01*
X011261Y014384D01*
X011243Y014450D01*
X011221Y014516D01*
X011195Y014579D01*
X011166Y014642D01*
X011133Y014702D01*
X011096Y014760D01*
X011057Y014817D01*
X011014Y014871D01*
X010969Y014922D01*
X010920Y014971D01*
X010869Y015017D01*
X010815Y015060D01*
X016038Y013797D02*
X016038Y013647D01*
X016113Y013647D01*
X016138Y013672D01*
X016138Y013772D01*
X016113Y013797D01*
X016038Y013797D01*
X016186Y013797D02*
X016236Y013797D01*
X016211Y013797D02*
X016211Y013647D01*
X016186Y013647D02*
X016236Y013647D01*
X016284Y013672D02*
X016309Y013647D01*
X016359Y013647D01*
X016384Y013672D01*
X016384Y013772D01*
X016359Y013797D01*
X016309Y013797D01*
X016284Y013772D01*
X016284Y013672D01*
X016431Y013647D02*
X016431Y013797D01*
X016506Y013797D01*
X016531Y013772D01*
X016531Y013672D01*
X016506Y013647D01*
X016431Y013647D01*
X016579Y013647D02*
X016679Y013647D01*
X016726Y013722D02*
X016826Y013722D01*
X016873Y013672D02*
X016873Y013647D01*
X016973Y013647D01*
X017021Y013647D02*
X017121Y013647D01*
X017168Y013647D02*
X017168Y013797D01*
X017268Y013647D01*
X017268Y013797D01*
X017315Y013797D02*
X017315Y013647D01*
X017415Y013647D01*
X017462Y013647D02*
X017462Y013797D01*
X017538Y013797D01*
X017563Y013772D01*
X017563Y013722D01*
X017538Y013697D01*
X017462Y013697D01*
X017513Y013697D02*
X017563Y013647D01*
X017610Y013647D02*
X017610Y013797D01*
X017685Y013797D01*
X017710Y013772D01*
X017710Y013722D01*
X017685Y013697D01*
X017610Y013697D01*
X017757Y013797D02*
X017857Y013797D01*
X017904Y013797D02*
X017904Y013647D01*
X017904Y013722D02*
X018005Y013722D01*
X018005Y013797D02*
X018005Y013647D01*
X017807Y013647D02*
X017807Y013797D01*
X017415Y013797D02*
X017315Y013797D01*
X017315Y013722D02*
X017365Y013722D01*
X017121Y013797D02*
X017021Y013797D01*
X017021Y013647D01*
X017021Y013722D02*
X017071Y013722D01*
X016973Y013772D02*
X016873Y013672D01*
X016873Y013797D02*
X016973Y013797D01*
X016973Y013772D01*
X016679Y013797D02*
X016579Y013797D01*
X016579Y013647D01*
X016579Y013722D02*
X016629Y013722D01*
X014814Y002265D02*
X014736Y002220D01*
X014736Y002221D02*
X014708Y002265D01*
X014677Y002307D01*
X014644Y002347D01*
X014608Y002385D01*
X014569Y002420D01*
X014528Y002452D01*
X014484Y002482D01*
X014439Y002508D01*
X014392Y002531D01*
X014344Y002551D01*
X014294Y002567D01*
X014244Y002580D01*
X014192Y002589D01*
X014140Y002595D01*
X014088Y002597D01*
X014087Y002686D01*
X014088Y002687D01*
X014143Y002685D01*
X014197Y002679D01*
X014252Y002670D01*
X014305Y002657D01*
X014357Y002641D01*
X014409Y002622D01*
X014459Y002599D01*
X014507Y002573D01*
X014554Y002544D01*
X014598Y002512D01*
X014641Y002477D01*
X014681Y002439D01*
X014718Y002399D01*
X014753Y002357D01*
X014785Y002312D01*
X014814Y002266D01*
X014806Y002261D01*
X014778Y002307D01*
X014746Y002351D01*
X014711Y002393D01*
X014674Y002433D01*
X014635Y002470D01*
X014593Y002505D01*
X014549Y002536D01*
X014503Y002565D01*
X014455Y002591D01*
X014405Y002613D01*
X014355Y002633D01*
X014303Y002649D01*
X014250Y002661D01*
X014196Y002670D01*
X014142Y002676D01*
X014088Y002678D01*
X014088Y002669D01*
X014142Y002667D01*
X014195Y002661D01*
X014248Y002652D01*
X014300Y002640D01*
X014352Y002624D01*
X014402Y002605D01*
X014451Y002583D01*
X014498Y002557D01*
X014544Y002529D01*
X014587Y002497D01*
X014629Y002463D01*
X014668Y002427D01*
X014705Y002387D01*
X014739Y002346D01*
X014770Y002302D01*
X014799Y002257D01*
X014791Y002252D01*
X014761Y002300D01*
X014727Y002346D01*
X014691Y002389D01*
X014651Y002430D01*
X014609Y002468D01*
X014565Y002503D01*
X014518Y002535D01*
X014469Y002563D01*
X014418Y002588D01*
X014365Y002610D01*
X014312Y002627D01*
X014257Y002641D01*
X014201Y002651D01*
X014145Y002658D01*
X014088Y002660D01*
X014088Y002651D01*
X014144Y002649D01*
X014200Y002643D01*
X014255Y002633D01*
X014309Y002619D01*
X014362Y002601D01*
X014414Y002580D01*
X014465Y002555D01*
X014513Y002527D01*
X014559Y002496D01*
X014604Y002461D01*
X014645Y002424D01*
X014684Y002383D01*
X014720Y002341D01*
X014753Y002295D01*
X014783Y002248D01*
X014775Y002243D01*
X014746Y002290D01*
X014713Y002335D01*
X014677Y002377D01*
X014639Y002417D01*
X014598Y002454D01*
X014554Y002489D01*
X014508Y002520D01*
X014460Y002547D01*
X014411Y002572D01*
X014359Y002593D01*
X014307Y002610D01*
X014253Y002624D01*
X014198Y002634D01*
X014143Y002640D01*
X014088Y002642D01*
X014088Y002633D01*
X014143Y002631D01*
X014197Y002625D01*
X014251Y002615D01*
X014304Y002601D01*
X014356Y002584D01*
X014407Y002564D01*
X014456Y002539D01*
X014503Y002512D01*
X014549Y002481D01*
X014592Y002448D01*
X014633Y002411D01*
X014671Y002371D01*
X014706Y002329D01*
X014738Y002285D01*
X014767Y002239D01*
X014759Y002234D01*
X014731Y002280D01*
X014699Y002324D01*
X014664Y002365D01*
X014626Y002404D01*
X014586Y002441D01*
X014544Y002474D01*
X014499Y002504D01*
X014452Y002532D01*
X014403Y002555D01*
X014353Y002576D01*
X014302Y002593D01*
X014249Y002606D01*
X014196Y002616D01*
X014142Y002622D01*
X014088Y002624D01*
X014088Y002615D01*
X014141Y002613D01*
X014195Y002607D01*
X014247Y002597D01*
X014299Y002584D01*
X014350Y002567D01*
X014400Y002547D01*
X014448Y002524D01*
X014494Y002497D01*
X014538Y002467D01*
X014580Y002434D01*
X014620Y002398D01*
X014657Y002359D01*
X014692Y002318D01*
X014723Y002275D01*
X014752Y002230D01*
X014744Y002225D01*
X014716Y002270D01*
X014685Y002313D01*
X014651Y002353D01*
X014614Y002391D01*
X014575Y002427D01*
X014533Y002459D01*
X014489Y002489D01*
X014443Y002516D01*
X014396Y002539D01*
X014347Y002559D01*
X014297Y002576D01*
X014245Y002589D01*
X014193Y002598D01*
X014141Y002604D01*
X014088Y002606D01*
X014088Y000998D02*
X014088Y001088D01*
X014088Y001087D02*
X014142Y001089D01*
X014195Y001095D01*
X014248Y001105D01*
X014300Y001119D01*
X014351Y001136D01*
X014400Y001157D01*
X014448Y001181D01*
X014494Y001209D01*
X014538Y001240D01*
X014580Y001274D01*
X014619Y001310D01*
X014656Y001350D01*
X014689Y001392D01*
X014720Y001436D01*
X014747Y001482D01*
X014826Y001440D01*
X014798Y001391D01*
X014766Y001345D01*
X014731Y001300D01*
X014694Y001258D01*
X014653Y001218D01*
X014610Y001182D01*
X014565Y001148D01*
X014518Y001117D01*
X014468Y001090D01*
X014417Y001066D01*
X014365Y001045D01*
X014311Y001028D01*
X014256Y001015D01*
X014201Y001005D01*
X014144Y000999D01*
X014088Y000997D01*
X014088Y001006D01*
X014144Y001008D01*
X014199Y001014D01*
X014254Y001024D01*
X014309Y001037D01*
X014362Y001054D01*
X014414Y001074D01*
X014464Y001098D01*
X014513Y001125D01*
X014560Y001155D01*
X014605Y001189D01*
X014647Y001225D01*
X014687Y001264D01*
X014724Y001306D01*
X014759Y001350D01*
X014790Y001396D01*
X014818Y001444D01*
X014810Y001448D01*
X014782Y001401D01*
X014751Y001355D01*
X014717Y001312D01*
X014681Y001270D01*
X014641Y001232D01*
X014599Y001196D01*
X014555Y001163D01*
X014509Y001133D01*
X014460Y001106D01*
X014410Y001083D01*
X014359Y001062D01*
X014306Y001046D01*
X014253Y001033D01*
X014198Y001023D01*
X014143Y001017D01*
X014088Y001015D01*
X014088Y001024D01*
X014143Y001026D01*
X014197Y001032D01*
X014251Y001041D01*
X014304Y001054D01*
X014356Y001071D01*
X014407Y001091D01*
X014456Y001114D01*
X014504Y001141D01*
X014550Y001170D01*
X014594Y001203D01*
X014635Y001238D01*
X014674Y001277D01*
X014711Y001317D01*
X014744Y001360D01*
X014775Y001406D01*
X014802Y001453D01*
X014794Y001457D01*
X014767Y001410D01*
X014737Y001366D01*
X014704Y001323D01*
X014668Y001283D01*
X014629Y001245D01*
X014588Y001210D01*
X014545Y001178D01*
X014499Y001148D01*
X014452Y001122D01*
X014403Y001099D01*
X014353Y001079D01*
X014301Y001063D01*
X014249Y001050D01*
X014196Y001041D01*
X014142Y001035D01*
X014088Y001033D01*
X014088Y001042D01*
X014141Y001044D01*
X014194Y001050D01*
X014247Y001059D01*
X014299Y001072D01*
X014350Y001088D01*
X014400Y001107D01*
X014448Y001130D01*
X014495Y001156D01*
X014539Y001185D01*
X014582Y001217D01*
X014623Y001252D01*
X014661Y001289D01*
X014697Y001329D01*
X014730Y001371D01*
X014760Y001415D01*
X014787Y001461D01*
X014779Y001465D01*
X014752Y001420D01*
X014722Y001376D01*
X014690Y001335D01*
X014655Y001295D01*
X014617Y001258D01*
X014577Y001224D01*
X014534Y001192D01*
X014490Y001164D01*
X014444Y001138D01*
X014396Y001116D01*
X014347Y001096D01*
X014297Y001080D01*
X014245Y001068D01*
X014193Y001059D01*
X014141Y001053D01*
X014088Y001051D01*
X014088Y001060D01*
X014144Y001062D01*
X014199Y001069D01*
X014254Y001079D01*
X014308Y001093D01*
X014360Y001111D01*
X014412Y001132D01*
X014461Y001158D01*
X014509Y001186D01*
X014555Y001218D01*
X014598Y001253D01*
X014638Y001291D01*
X014676Y001332D01*
X014711Y001376D01*
X014742Y001422D01*
X014771Y001470D01*
X014763Y001474D01*
X014735Y001426D01*
X014704Y001381D01*
X014669Y001338D01*
X014632Y001298D01*
X014592Y001260D01*
X014549Y001225D01*
X014504Y001194D01*
X014457Y001165D01*
X014408Y001141D01*
X014357Y001119D01*
X014305Y001102D01*
X014252Y001088D01*
X014198Y001078D01*
X014143Y001071D01*
X014088Y001069D01*
X014088Y001078D01*
X014142Y001080D01*
X014196Y001086D01*
X014250Y001096D01*
X014302Y001110D01*
X014354Y001128D01*
X014404Y001149D01*
X014453Y001173D01*
X014499Y001201D01*
X014544Y001233D01*
X014586Y001267D01*
X014625Y001304D01*
X014662Y001344D01*
X014696Y001386D01*
X014727Y001431D01*
X014755Y001478D01*
X013438Y001298D02*
X013507Y001355D01*
X013506Y001355D02*
X013543Y001315D01*
X013582Y001277D01*
X013624Y001243D01*
X013668Y001211D01*
X013714Y001183D01*
X013763Y001158D01*
X013813Y001137D01*
X013864Y001119D01*
X013917Y001106D01*
X013970Y001096D01*
X014024Y001089D01*
X014078Y001087D01*
X014079Y000998D01*
X014078Y000997D01*
X014022Y000999D01*
X013966Y001005D01*
X013911Y001015D01*
X013856Y001028D01*
X013803Y001045D01*
X013750Y001065D01*
X013699Y001089D01*
X013650Y001116D01*
X013603Y001147D01*
X013558Y001180D01*
X013515Y001216D01*
X013475Y001255D01*
X013437Y001297D01*
X013444Y001303D01*
X013481Y001262D01*
X013521Y001223D01*
X013563Y001187D01*
X013608Y001154D01*
X013655Y001124D01*
X013703Y001097D01*
X013754Y001074D01*
X013806Y001053D01*
X013859Y001037D01*
X013913Y001024D01*
X013967Y001014D01*
X014022Y001008D01*
X014078Y001006D01*
X014078Y001015D01*
X014023Y001017D01*
X013968Y001023D01*
X013914Y001032D01*
X013861Y001045D01*
X013809Y001062D01*
X013757Y001082D01*
X013708Y001105D01*
X013659Y001132D01*
X013613Y001161D01*
X013569Y001194D01*
X013527Y001230D01*
X013488Y001268D01*
X013451Y001309D01*
X013458Y001314D01*
X013494Y001274D01*
X013533Y001236D01*
X013575Y001201D01*
X013618Y001169D01*
X013664Y001139D01*
X013712Y001113D01*
X013761Y001090D01*
X013811Y001070D01*
X013863Y001054D01*
X013916Y001041D01*
X013970Y001032D01*
X014024Y001026D01*
X014078Y001024D01*
X014078Y001033D01*
X014024Y001035D01*
X013971Y001041D01*
X013918Y001050D01*
X013866Y001063D01*
X013814Y001079D01*
X013764Y001098D01*
X013716Y001121D01*
X013669Y001147D01*
X013623Y001176D01*
X013580Y001208D01*
X013539Y001243D01*
X013501Y001280D01*
X013465Y001320D01*
X013472Y001326D01*
X013507Y001287D01*
X013545Y001250D01*
X013586Y001215D01*
X013629Y001184D01*
X013673Y001155D01*
X013720Y001129D01*
X013768Y001107D01*
X013817Y001087D01*
X013868Y001071D01*
X013920Y001059D01*
X013972Y001050D01*
X014025Y001044D01*
X014078Y001042D01*
X014078Y001051D01*
X014026Y001053D01*
X013973Y001059D01*
X013922Y001068D01*
X013871Y001080D01*
X013820Y001096D01*
X013771Y001115D01*
X013724Y001137D01*
X013678Y001163D01*
X013634Y001191D01*
X013592Y001222D01*
X013551Y001256D01*
X013514Y001293D01*
X013479Y001332D01*
X013485Y001338D01*
X013520Y001299D01*
X013558Y001263D01*
X013597Y001229D01*
X013639Y001198D01*
X013683Y001170D01*
X013728Y001145D01*
X013775Y001123D01*
X013823Y001104D01*
X013873Y001089D01*
X013923Y001076D01*
X013975Y001068D01*
X014026Y001062D01*
X014078Y001060D01*
X014078Y001069D01*
X014027Y001071D01*
X013976Y001076D01*
X013925Y001085D01*
X013875Y001097D01*
X013826Y001113D01*
X013779Y001131D01*
X013732Y001153D01*
X013687Y001178D01*
X013644Y001206D01*
X013603Y001236D01*
X013564Y001269D01*
X013527Y001305D01*
X013492Y001343D01*
X013499Y001349D01*
X013536Y001308D01*
X013576Y001270D01*
X013618Y001236D01*
X013663Y001204D01*
X013710Y001175D01*
X013759Y001150D01*
X013810Y001129D01*
X013861Y001111D01*
X013915Y001097D01*
X013969Y001087D01*
X014023Y001080D01*
X014078Y001078D01*
X014079Y002686D02*
X014079Y002596D01*
X014078Y002597D02*
X014024Y002595D01*
X013971Y002589D01*
X013918Y002579D01*
X013866Y002565D01*
X013815Y002548D01*
X013765Y002527D01*
X013717Y002503D01*
X013671Y002475D01*
X013627Y002444D01*
X013586Y002410D01*
X013546Y002373D01*
X013510Y002334D01*
X013442Y002391D01*
X013441Y002392D01*
X013479Y002433D01*
X013519Y002471D01*
X013562Y002507D01*
X013607Y002540D01*
X013654Y002570D01*
X013702Y002596D01*
X013753Y002620D01*
X013805Y002640D01*
X013858Y002656D01*
X013912Y002670D01*
X013967Y002679D01*
X014022Y002685D01*
X014078Y002687D01*
X014078Y002678D01*
X014023Y002676D01*
X013968Y002670D01*
X013914Y002661D01*
X013860Y002648D01*
X013808Y002631D01*
X013756Y002612D01*
X013706Y002588D01*
X013658Y002562D01*
X013612Y002532D01*
X013567Y002500D01*
X013525Y002465D01*
X013485Y002426D01*
X013448Y002386D01*
X013455Y002380D01*
X013492Y002420D01*
X013531Y002458D01*
X013573Y002493D01*
X013617Y002525D01*
X013663Y002554D01*
X013711Y002580D01*
X013760Y002603D01*
X013811Y002623D01*
X013863Y002639D01*
X013916Y002652D01*
X013969Y002661D01*
X014024Y002667D01*
X014078Y002669D01*
X014078Y002660D01*
X014024Y002658D01*
X013971Y002652D01*
X013918Y002643D01*
X013865Y002630D01*
X013814Y002614D01*
X013763Y002595D01*
X013715Y002572D01*
X013667Y002547D01*
X013622Y002518D01*
X013578Y002486D01*
X013537Y002451D01*
X013498Y002414D01*
X013462Y002374D01*
X013469Y002368D01*
X013505Y002408D01*
X013543Y002445D01*
X013584Y002479D01*
X013627Y002510D01*
X013672Y002539D01*
X013719Y002564D01*
X013767Y002587D01*
X013817Y002606D01*
X013868Y002622D01*
X013919Y002634D01*
X013972Y002643D01*
X014025Y002649D01*
X014078Y002651D01*
X014078Y002642D01*
X014025Y002640D01*
X013973Y002634D01*
X013921Y002625D01*
X013870Y002613D01*
X013820Y002597D01*
X013770Y002578D01*
X013723Y002556D01*
X013676Y002531D01*
X013632Y002503D01*
X013590Y002472D01*
X013549Y002438D01*
X013511Y002401D01*
X013476Y002363D01*
X013482Y002357D01*
X013518Y002395D01*
X013555Y002431D01*
X013595Y002465D01*
X013637Y002495D01*
X013681Y002523D01*
X013727Y002548D01*
X013774Y002570D01*
X013823Y002589D01*
X013872Y002604D01*
X013923Y002617D01*
X013974Y002625D01*
X014026Y002631D01*
X014078Y002633D01*
X014078Y002624D01*
X014022Y002622D01*
X013967Y002615D01*
X013912Y002605D01*
X013858Y002591D01*
X013805Y002573D01*
X013754Y002551D01*
X013704Y002526D01*
X013656Y002497D01*
X013611Y002465D01*
X013568Y002430D01*
X013527Y002392D01*
X013489Y002351D01*
X013496Y002345D01*
X013533Y002386D01*
X013574Y002423D01*
X013616Y002458D01*
X013661Y002490D01*
X013709Y002518D01*
X013758Y002543D01*
X013809Y002565D01*
X013861Y002582D01*
X013914Y002596D01*
X013968Y002606D01*
X014023Y002613D01*
X014078Y002615D01*
X014078Y002606D01*
X014024Y002604D01*
X013970Y002598D01*
X013916Y002588D01*
X013863Y002574D01*
X013812Y002556D01*
X013762Y002535D01*
X013713Y002510D01*
X013666Y002482D01*
X013622Y002451D01*
X013580Y002417D01*
X013540Y002379D01*
X013503Y002339D01*
D18*
X010813Y003644D02*
X010777Y003608D01*
X010630Y003754D01*
X010777Y003754D01*
X010813Y003718D01*
X010813Y003644D01*
X010777Y003608D02*
X010630Y003608D01*
X010593Y003644D01*
X010593Y003718D01*
X010630Y003754D01*
X010777Y003829D02*
X010777Y003865D01*
X010813Y003865D01*
X010813Y003829D01*
X010777Y003829D01*
X010813Y003939D02*
X010813Y004086D01*
X010813Y004013D02*
X010593Y004013D01*
X010667Y003939D01*
X010667Y004160D02*
X010777Y004160D01*
X010813Y004197D01*
X010813Y004307D01*
X010667Y004307D01*
X010703Y004381D02*
X010703Y004455D01*
X010593Y004381D02*
X010593Y004528D01*
X010593Y004381D02*
X010813Y004381D01*
X014880Y011102D02*
X014843Y011139D01*
X014990Y011286D01*
X014990Y011139D01*
X014953Y011102D01*
X014880Y011102D01*
X014843Y011139D02*
X014843Y011286D01*
X014880Y011322D01*
X014953Y011322D01*
X014990Y011286D01*
X015064Y011139D02*
X015101Y011139D01*
X015101Y011102D01*
X015064Y011102D01*
X015064Y011139D01*
X015175Y011102D02*
X015322Y011102D01*
X015248Y011102D02*
X015248Y011322D01*
X015175Y011249D01*
X015396Y011249D02*
X015396Y011139D01*
X015433Y011102D01*
X015543Y011102D01*
X015543Y011249D01*
X015617Y011212D02*
X015690Y011212D01*
X015617Y011102D02*
X015617Y011322D01*
X015764Y011322D01*
D19*
X023339Y008159D02*
X024668Y008159D01*
X024668Y008602D01*
X023339Y008159D02*
X023339Y007421D01*
X024668Y007421D01*
X024668Y006683D01*
X023339Y006683D01*
X023339Y005944D01*
X024668Y005944D01*
X024668Y005206D01*
X023339Y005206D01*
X023339Y004468D01*
X024668Y004468D01*
X024668Y003730D01*
X022896Y003730D01*
X013463Y002352D02*
X013463Y002172D01*
X013463Y001532D02*
X013463Y001332D01*
X005333Y012092D02*
X004833Y012092D01*
X004833Y013092D01*
X002833Y013092D01*
X002833Y012592D01*
X002583Y012592D01*
X002833Y012592D02*
X002833Y012092D01*
X004833Y012092D01*
X005333Y012092D02*
X005333Y012592D01*
X005583Y012592D01*
X005333Y012592D02*
X005333Y013092D01*
X004833Y013092D01*
D20*
X027113Y004312D02*
X027133Y004292D01*
X027133Y004142D01*
X027533Y004192D02*
X027533Y004292D01*
X027553Y004312D01*
D21*
X027533Y004077D03*
X027133Y004077D03*
M02*
