G75*
G70*
%OFA0B0*%
%FSLAX24Y24*%
%IPPOS*%
%LPD*%
%AMOC8*
5,1,8,0,0,1.08239X$1,22.5*
%
%ADD10C,0.0000*%
%ADD11C,0.0080*%
%ADD12C,0.0060*%
%ADD13C,0.0140*%
D10*
X000983Y000100D02*
X038353Y000100D01*
X038353Y016042D01*
X000983Y016042D01*
X000983Y000100D01*
X001683Y001342D02*
X001685Y001392D01*
X001691Y001442D01*
X001701Y001492D01*
X001714Y001540D01*
X001731Y001588D01*
X001752Y001634D01*
X001776Y001678D01*
X001804Y001720D01*
X001835Y001760D01*
X001869Y001797D01*
X001906Y001832D01*
X001945Y001863D01*
X001986Y001892D01*
X002030Y001917D01*
X002076Y001939D01*
X002123Y001957D01*
X002171Y001971D01*
X002220Y001982D01*
X002270Y001989D01*
X002320Y001992D01*
X002371Y001991D01*
X002421Y001986D01*
X002471Y001977D01*
X002519Y001965D01*
X002567Y001948D01*
X002613Y001928D01*
X002658Y001905D01*
X002701Y001878D01*
X002741Y001848D01*
X002779Y001815D01*
X002814Y001779D01*
X002847Y001740D01*
X002876Y001699D01*
X002902Y001656D01*
X002925Y001611D01*
X002944Y001564D01*
X002959Y001516D01*
X002971Y001467D01*
X002979Y001417D01*
X002983Y001367D01*
X002983Y001317D01*
X002979Y001267D01*
X002971Y001217D01*
X002959Y001168D01*
X002944Y001120D01*
X002925Y001073D01*
X002902Y001028D01*
X002876Y000985D01*
X002847Y000944D01*
X002814Y000905D01*
X002779Y000869D01*
X002741Y000836D01*
X002701Y000806D01*
X002658Y000779D01*
X002613Y000756D01*
X002567Y000736D01*
X002519Y000719D01*
X002471Y000707D01*
X002421Y000698D01*
X002371Y000693D01*
X002320Y000692D01*
X002270Y000695D01*
X002220Y000702D01*
X002171Y000713D01*
X002123Y000727D01*
X002076Y000745D01*
X002030Y000767D01*
X001986Y000792D01*
X001945Y000821D01*
X001906Y000852D01*
X001869Y000887D01*
X001835Y000924D01*
X001804Y000964D01*
X001776Y001006D01*
X001752Y001050D01*
X001731Y001096D01*
X001714Y001144D01*
X001701Y001192D01*
X001691Y001242D01*
X001685Y001292D01*
X001683Y001342D01*
X001633Y014792D02*
X001635Y014842D01*
X001641Y014892D01*
X001651Y014942D01*
X001664Y014990D01*
X001681Y015038D01*
X001702Y015084D01*
X001726Y015128D01*
X001754Y015170D01*
X001785Y015210D01*
X001819Y015247D01*
X001856Y015282D01*
X001895Y015313D01*
X001936Y015342D01*
X001980Y015367D01*
X002026Y015389D01*
X002073Y015407D01*
X002121Y015421D01*
X002170Y015432D01*
X002220Y015439D01*
X002270Y015442D01*
X002321Y015441D01*
X002371Y015436D01*
X002421Y015427D01*
X002469Y015415D01*
X002517Y015398D01*
X002563Y015378D01*
X002608Y015355D01*
X002651Y015328D01*
X002691Y015298D01*
X002729Y015265D01*
X002764Y015229D01*
X002797Y015190D01*
X002826Y015149D01*
X002852Y015106D01*
X002875Y015061D01*
X002894Y015014D01*
X002909Y014966D01*
X002921Y014917D01*
X002929Y014867D01*
X002933Y014817D01*
X002933Y014767D01*
X002929Y014717D01*
X002921Y014667D01*
X002909Y014618D01*
X002894Y014570D01*
X002875Y014523D01*
X002852Y014478D01*
X002826Y014435D01*
X002797Y014394D01*
X002764Y014355D01*
X002729Y014319D01*
X002691Y014286D01*
X002651Y014256D01*
X002608Y014229D01*
X002563Y014206D01*
X002517Y014186D01*
X002469Y014169D01*
X002421Y014157D01*
X002371Y014148D01*
X002321Y014143D01*
X002270Y014142D01*
X002220Y014145D01*
X002170Y014152D01*
X002121Y014163D01*
X002073Y014177D01*
X002026Y014195D01*
X001980Y014217D01*
X001936Y014242D01*
X001895Y014271D01*
X001856Y014302D01*
X001819Y014337D01*
X001785Y014374D01*
X001754Y014414D01*
X001726Y014456D01*
X001702Y014500D01*
X001681Y014546D01*
X001664Y014594D01*
X001651Y014642D01*
X001641Y014692D01*
X001635Y014742D01*
X001633Y014792D01*
X036383Y014792D02*
X036385Y014842D01*
X036391Y014892D01*
X036401Y014942D01*
X036414Y014990D01*
X036431Y015038D01*
X036452Y015084D01*
X036476Y015128D01*
X036504Y015170D01*
X036535Y015210D01*
X036569Y015247D01*
X036606Y015282D01*
X036645Y015313D01*
X036686Y015342D01*
X036730Y015367D01*
X036776Y015389D01*
X036823Y015407D01*
X036871Y015421D01*
X036920Y015432D01*
X036970Y015439D01*
X037020Y015442D01*
X037071Y015441D01*
X037121Y015436D01*
X037171Y015427D01*
X037219Y015415D01*
X037267Y015398D01*
X037313Y015378D01*
X037358Y015355D01*
X037401Y015328D01*
X037441Y015298D01*
X037479Y015265D01*
X037514Y015229D01*
X037547Y015190D01*
X037576Y015149D01*
X037602Y015106D01*
X037625Y015061D01*
X037644Y015014D01*
X037659Y014966D01*
X037671Y014917D01*
X037679Y014867D01*
X037683Y014817D01*
X037683Y014767D01*
X037679Y014717D01*
X037671Y014667D01*
X037659Y014618D01*
X037644Y014570D01*
X037625Y014523D01*
X037602Y014478D01*
X037576Y014435D01*
X037547Y014394D01*
X037514Y014355D01*
X037479Y014319D01*
X037441Y014286D01*
X037401Y014256D01*
X037358Y014229D01*
X037313Y014206D01*
X037267Y014186D01*
X037219Y014169D01*
X037171Y014157D01*
X037121Y014148D01*
X037071Y014143D01*
X037020Y014142D01*
X036970Y014145D01*
X036920Y014152D01*
X036871Y014163D01*
X036823Y014177D01*
X036776Y014195D01*
X036730Y014217D01*
X036686Y014242D01*
X036645Y014271D01*
X036606Y014302D01*
X036569Y014337D01*
X036535Y014374D01*
X036504Y014414D01*
X036476Y014456D01*
X036452Y014500D01*
X036431Y014546D01*
X036414Y014594D01*
X036401Y014642D01*
X036391Y014692D01*
X036385Y014742D01*
X036383Y014792D01*
X036433Y001342D02*
X036435Y001392D01*
X036441Y001442D01*
X036451Y001492D01*
X036464Y001540D01*
X036481Y001588D01*
X036502Y001634D01*
X036526Y001678D01*
X036554Y001720D01*
X036585Y001760D01*
X036619Y001797D01*
X036656Y001832D01*
X036695Y001863D01*
X036736Y001892D01*
X036780Y001917D01*
X036826Y001939D01*
X036873Y001957D01*
X036921Y001971D01*
X036970Y001982D01*
X037020Y001989D01*
X037070Y001992D01*
X037121Y001991D01*
X037171Y001986D01*
X037221Y001977D01*
X037269Y001965D01*
X037317Y001948D01*
X037363Y001928D01*
X037408Y001905D01*
X037451Y001878D01*
X037491Y001848D01*
X037529Y001815D01*
X037564Y001779D01*
X037597Y001740D01*
X037626Y001699D01*
X037652Y001656D01*
X037675Y001611D01*
X037694Y001564D01*
X037709Y001516D01*
X037721Y001467D01*
X037729Y001417D01*
X037733Y001367D01*
X037733Y001317D01*
X037729Y001267D01*
X037721Y001217D01*
X037709Y001168D01*
X037694Y001120D01*
X037675Y001073D01*
X037652Y001028D01*
X037626Y000985D01*
X037597Y000944D01*
X037564Y000905D01*
X037529Y000869D01*
X037491Y000836D01*
X037451Y000806D01*
X037408Y000779D01*
X037363Y000756D01*
X037317Y000736D01*
X037269Y000719D01*
X037221Y000707D01*
X037171Y000698D01*
X037121Y000693D01*
X037070Y000692D01*
X037020Y000695D01*
X036970Y000702D01*
X036921Y000713D01*
X036873Y000727D01*
X036826Y000745D01*
X036780Y000767D01*
X036736Y000792D01*
X036695Y000821D01*
X036656Y000852D01*
X036619Y000887D01*
X036585Y000924D01*
X036554Y000964D01*
X036526Y001006D01*
X036502Y001050D01*
X036481Y001096D01*
X036464Y001144D01*
X036451Y001192D01*
X036441Y001242D01*
X036435Y001292D01*
X036433Y001342D01*
D11*
X021884Y015022D02*
X021564Y015022D01*
X021368Y015102D02*
X021048Y015422D01*
X021048Y015102D01*
X021128Y015022D01*
X021288Y015022D01*
X021368Y015102D01*
X021368Y015422D01*
X021288Y015503D01*
X021128Y015503D01*
X021048Y015422D01*
X020853Y015342D02*
X020693Y015503D01*
X020693Y015022D01*
X020853Y015022D02*
X020533Y015022D01*
X020337Y015022D02*
X020017Y015342D01*
X020017Y015422D01*
X020097Y015503D01*
X020257Y015503D01*
X020337Y015422D01*
X020337Y015022D02*
X020017Y015022D01*
X019822Y015022D02*
X019741Y015022D01*
X019741Y015102D01*
X019822Y015102D01*
X019822Y015022D01*
X019564Y015102D02*
X019243Y015422D01*
X019243Y015102D01*
X019324Y015022D01*
X019484Y015022D01*
X019564Y015102D01*
X019564Y015422D01*
X019484Y015503D01*
X019324Y015503D01*
X019243Y015422D01*
X019048Y015422D02*
X019048Y015342D01*
X018968Y015262D01*
X018728Y015262D01*
X018728Y015102D02*
X018728Y015422D01*
X018808Y015503D01*
X018968Y015503D01*
X019048Y015422D01*
X019048Y015102D02*
X018968Y015022D01*
X018808Y015022D01*
X018728Y015102D01*
X018532Y015102D02*
X018452Y015102D01*
X018452Y015022D01*
X018532Y015022D01*
X018532Y015102D01*
X018275Y015022D02*
X017954Y015022D01*
X018114Y015022D02*
X018114Y015503D01*
X018275Y015342D01*
X017759Y015422D02*
X017679Y015503D01*
X017519Y015503D01*
X017439Y015422D01*
X017439Y015342D01*
X017759Y015022D01*
X017439Y015022D01*
X021564Y015342D02*
X021564Y015422D01*
X021644Y015503D01*
X021804Y015503D01*
X021884Y015422D01*
X021564Y015342D02*
X021884Y015022D01*
D12*
X016703Y015122D02*
X016533Y015122D01*
X016476Y015179D01*
X016476Y015292D01*
X016533Y015349D01*
X016703Y015349D01*
X016703Y015462D02*
X016703Y015122D01*
X016335Y015179D02*
X016278Y015122D01*
X016108Y015122D01*
X016108Y015065D02*
X016165Y015009D01*
X016222Y015009D01*
X016108Y015065D02*
X016108Y015349D01*
X016335Y015349D02*
X016335Y015179D01*
X015598Y015009D02*
X015542Y015009D01*
X015485Y015065D01*
X015485Y015349D01*
X015485Y015462D02*
X015485Y015519D01*
X015353Y015462D02*
X015353Y015122D01*
X015183Y015122D01*
X015126Y015179D01*
X015126Y015292D01*
X015183Y015349D01*
X015353Y015349D01*
X014985Y015349D02*
X014985Y015122D01*
X014985Y015236D02*
X014871Y015349D01*
X014814Y015349D01*
X014678Y015292D02*
X014621Y015349D01*
X014507Y015349D01*
X014451Y015292D01*
X014451Y015236D01*
X014678Y015236D01*
X014678Y015292D02*
X014678Y015179D01*
X014621Y015122D01*
X014507Y015122D01*
X014309Y015122D02*
X014309Y015349D01*
X014253Y015349D01*
X014196Y015292D01*
X014139Y015349D01*
X014082Y015292D01*
X014082Y015122D01*
X014196Y015122D02*
X014196Y015292D01*
X013941Y015349D02*
X013771Y015349D01*
X013714Y015292D01*
X013714Y015122D01*
X013573Y015179D02*
X013516Y015236D01*
X013346Y015236D01*
X013346Y015292D02*
X013346Y015122D01*
X013516Y015122D01*
X013573Y015179D01*
X013516Y015349D02*
X013403Y015349D01*
X013346Y015292D01*
X013204Y015349D02*
X013034Y015349D01*
X012977Y015292D01*
X012977Y015122D01*
X012779Y015179D02*
X012723Y015122D01*
X012779Y015179D02*
X012779Y015406D01*
X012723Y015349D02*
X012836Y015349D01*
X013204Y015349D02*
X013204Y015122D01*
X013941Y015122D02*
X013941Y015349D01*
D13*
X019818Y008223D02*
X019818Y007716D01*
X020071Y007462D01*
X020325Y007716D01*
X020325Y008223D01*
X020646Y007842D02*
X020773Y007969D01*
X021027Y007969D01*
X021153Y007842D01*
X021475Y007969D02*
X021855Y007969D01*
X021982Y007842D01*
X021982Y007589D01*
X021855Y007462D01*
X021475Y007462D01*
X021153Y007462D02*
X021153Y008223D01*
X020646Y007842D02*
X020646Y007462D01*
X019496Y007589D02*
X019369Y007462D01*
X019116Y007462D01*
X018989Y007716D02*
X019496Y007716D01*
X019496Y007842D02*
X019496Y007589D01*
X019496Y007842D02*
X019369Y007969D01*
X019116Y007969D01*
X018989Y007842D01*
X018989Y007716D01*
X018667Y007716D02*
X018414Y007969D01*
X018287Y007969D01*
X017977Y007842D02*
X017850Y007969D01*
X017470Y007969D01*
X017021Y007969D02*
X016768Y007969D01*
X016641Y007842D01*
X016641Y007462D01*
X017021Y007462D01*
X017148Y007589D01*
X017021Y007716D01*
X016641Y007716D01*
X016319Y007969D02*
X016066Y007969D01*
X016193Y008096D02*
X016193Y007589D01*
X016066Y007462D01*
X015767Y007462D02*
X015767Y007589D01*
X015640Y007589D01*
X015640Y007462D01*
X015767Y007462D01*
X015352Y007589D02*
X015226Y007462D01*
X014845Y007462D01*
X014524Y007589D02*
X014397Y007462D01*
X014143Y007462D01*
X014017Y007589D01*
X014017Y007842D01*
X014143Y007969D01*
X014397Y007969D01*
X014524Y007842D01*
X014524Y007589D01*
X014845Y007969D02*
X015226Y007969D01*
X015352Y007842D01*
X015352Y007589D01*
X013695Y007462D02*
X013695Y007969D01*
X013568Y007969D01*
X013442Y007842D01*
X013315Y007969D01*
X013188Y007842D01*
X013188Y007462D01*
X013442Y007462D02*
X013442Y007842D01*
X017470Y007589D02*
X017596Y007462D01*
X017977Y007462D01*
X017850Y007716D02*
X017596Y007716D01*
X017470Y007589D01*
X017850Y007716D02*
X017977Y007842D01*
X018667Y007969D02*
X018667Y007462D01*
X022304Y007716D02*
X022811Y007716D01*
X022811Y007842D02*
X022811Y007589D01*
X022684Y007462D01*
X022431Y007462D01*
X022304Y007716D02*
X022304Y007842D01*
X022431Y007969D01*
X022684Y007969D01*
X022811Y007842D01*
X023110Y007969D02*
X023363Y007969D01*
X023237Y008096D02*
X023237Y007589D01*
X023110Y007462D01*
M02*
