G75*
G70*
%OFA0B0*%
%FSLAX24Y24*%
%IPPOS*%
%LPD*%
%AMOC8*
5,1,8,0,0,1.08239X$1,22.5*
%
%ADD10C,0.0000*%
%ADD11C,0.0060*%
%ADD12C,0.0050*%
%ADD13C,0.0080*%
%ADD14C,0.0110*%
%ADD15C,0.0040*%
%ADD16C,0.0025*%
%ADD17C,0.0010*%
%ADD18C,0.0070*%
%ADD19C,0.0030*%
%ADD20C,0.0020*%
%ADD21C,0.0100*%
%ADD22C,0.0160*%
%ADD23R,0.0160X0.0230*%
D10*
X000983Y000100D02*
X038353Y000100D01*
X038353Y016042D01*
X000983Y016042D01*
X000983Y000100D01*
X001683Y001342D02*
X001685Y001392D01*
X001691Y001442D01*
X001701Y001492D01*
X001714Y001540D01*
X001731Y001588D01*
X001752Y001634D01*
X001776Y001678D01*
X001804Y001720D01*
X001835Y001760D01*
X001869Y001797D01*
X001906Y001832D01*
X001945Y001863D01*
X001986Y001892D01*
X002030Y001917D01*
X002076Y001939D01*
X002123Y001957D01*
X002171Y001971D01*
X002220Y001982D01*
X002270Y001989D01*
X002320Y001992D01*
X002371Y001991D01*
X002421Y001986D01*
X002471Y001977D01*
X002519Y001965D01*
X002567Y001948D01*
X002613Y001928D01*
X002658Y001905D01*
X002701Y001878D01*
X002741Y001848D01*
X002779Y001815D01*
X002814Y001779D01*
X002847Y001740D01*
X002876Y001699D01*
X002902Y001656D01*
X002925Y001611D01*
X002944Y001564D01*
X002959Y001516D01*
X002971Y001467D01*
X002979Y001417D01*
X002983Y001367D01*
X002983Y001317D01*
X002979Y001267D01*
X002971Y001217D01*
X002959Y001168D01*
X002944Y001120D01*
X002925Y001073D01*
X002902Y001028D01*
X002876Y000985D01*
X002847Y000944D01*
X002814Y000905D01*
X002779Y000869D01*
X002741Y000836D01*
X002701Y000806D01*
X002658Y000779D01*
X002613Y000756D01*
X002567Y000736D01*
X002519Y000719D01*
X002471Y000707D01*
X002421Y000698D01*
X002371Y000693D01*
X002320Y000692D01*
X002270Y000695D01*
X002220Y000702D01*
X002171Y000713D01*
X002123Y000727D01*
X002076Y000745D01*
X002030Y000767D01*
X001986Y000792D01*
X001945Y000821D01*
X001906Y000852D01*
X001869Y000887D01*
X001835Y000924D01*
X001804Y000964D01*
X001776Y001006D01*
X001752Y001050D01*
X001731Y001096D01*
X001714Y001144D01*
X001701Y001192D01*
X001691Y001242D01*
X001685Y001292D01*
X001683Y001342D01*
X001633Y014792D02*
X001635Y014842D01*
X001641Y014892D01*
X001651Y014942D01*
X001664Y014990D01*
X001681Y015038D01*
X001702Y015084D01*
X001726Y015128D01*
X001754Y015170D01*
X001785Y015210D01*
X001819Y015247D01*
X001856Y015282D01*
X001895Y015313D01*
X001936Y015342D01*
X001980Y015367D01*
X002026Y015389D01*
X002073Y015407D01*
X002121Y015421D01*
X002170Y015432D01*
X002220Y015439D01*
X002270Y015442D01*
X002321Y015441D01*
X002371Y015436D01*
X002421Y015427D01*
X002469Y015415D01*
X002517Y015398D01*
X002563Y015378D01*
X002608Y015355D01*
X002651Y015328D01*
X002691Y015298D01*
X002729Y015265D01*
X002764Y015229D01*
X002797Y015190D01*
X002826Y015149D01*
X002852Y015106D01*
X002875Y015061D01*
X002894Y015014D01*
X002909Y014966D01*
X002921Y014917D01*
X002929Y014867D01*
X002933Y014817D01*
X002933Y014767D01*
X002929Y014717D01*
X002921Y014667D01*
X002909Y014618D01*
X002894Y014570D01*
X002875Y014523D01*
X002852Y014478D01*
X002826Y014435D01*
X002797Y014394D01*
X002764Y014355D01*
X002729Y014319D01*
X002691Y014286D01*
X002651Y014256D01*
X002608Y014229D01*
X002563Y014206D01*
X002517Y014186D01*
X002469Y014169D01*
X002421Y014157D01*
X002371Y014148D01*
X002321Y014143D01*
X002270Y014142D01*
X002220Y014145D01*
X002170Y014152D01*
X002121Y014163D01*
X002073Y014177D01*
X002026Y014195D01*
X001980Y014217D01*
X001936Y014242D01*
X001895Y014271D01*
X001856Y014302D01*
X001819Y014337D01*
X001785Y014374D01*
X001754Y014414D01*
X001726Y014456D01*
X001702Y014500D01*
X001681Y014546D01*
X001664Y014594D01*
X001651Y014642D01*
X001641Y014692D01*
X001635Y014742D01*
X001633Y014792D01*
X036383Y014792D02*
X036385Y014842D01*
X036391Y014892D01*
X036401Y014942D01*
X036414Y014990D01*
X036431Y015038D01*
X036452Y015084D01*
X036476Y015128D01*
X036504Y015170D01*
X036535Y015210D01*
X036569Y015247D01*
X036606Y015282D01*
X036645Y015313D01*
X036686Y015342D01*
X036730Y015367D01*
X036776Y015389D01*
X036823Y015407D01*
X036871Y015421D01*
X036920Y015432D01*
X036970Y015439D01*
X037020Y015442D01*
X037071Y015441D01*
X037121Y015436D01*
X037171Y015427D01*
X037219Y015415D01*
X037267Y015398D01*
X037313Y015378D01*
X037358Y015355D01*
X037401Y015328D01*
X037441Y015298D01*
X037479Y015265D01*
X037514Y015229D01*
X037547Y015190D01*
X037576Y015149D01*
X037602Y015106D01*
X037625Y015061D01*
X037644Y015014D01*
X037659Y014966D01*
X037671Y014917D01*
X037679Y014867D01*
X037683Y014817D01*
X037683Y014767D01*
X037679Y014717D01*
X037671Y014667D01*
X037659Y014618D01*
X037644Y014570D01*
X037625Y014523D01*
X037602Y014478D01*
X037576Y014435D01*
X037547Y014394D01*
X037514Y014355D01*
X037479Y014319D01*
X037441Y014286D01*
X037401Y014256D01*
X037358Y014229D01*
X037313Y014206D01*
X037267Y014186D01*
X037219Y014169D01*
X037171Y014157D01*
X037121Y014148D01*
X037071Y014143D01*
X037020Y014142D01*
X036970Y014145D01*
X036920Y014152D01*
X036871Y014163D01*
X036823Y014177D01*
X036776Y014195D01*
X036730Y014217D01*
X036686Y014242D01*
X036645Y014271D01*
X036606Y014302D01*
X036569Y014337D01*
X036535Y014374D01*
X036504Y014414D01*
X036476Y014456D01*
X036452Y014500D01*
X036431Y014546D01*
X036414Y014594D01*
X036401Y014642D01*
X036391Y014692D01*
X036385Y014742D01*
X036383Y014792D01*
X036433Y001342D02*
X036435Y001392D01*
X036441Y001442D01*
X036451Y001492D01*
X036464Y001540D01*
X036481Y001588D01*
X036502Y001634D01*
X036526Y001678D01*
X036554Y001720D01*
X036585Y001760D01*
X036619Y001797D01*
X036656Y001832D01*
X036695Y001863D01*
X036736Y001892D01*
X036780Y001917D01*
X036826Y001939D01*
X036873Y001957D01*
X036921Y001971D01*
X036970Y001982D01*
X037020Y001989D01*
X037070Y001992D01*
X037121Y001991D01*
X037171Y001986D01*
X037221Y001977D01*
X037269Y001965D01*
X037317Y001948D01*
X037363Y001928D01*
X037408Y001905D01*
X037451Y001878D01*
X037491Y001848D01*
X037529Y001815D01*
X037564Y001779D01*
X037597Y001740D01*
X037626Y001699D01*
X037652Y001656D01*
X037675Y001611D01*
X037694Y001564D01*
X037709Y001516D01*
X037721Y001467D01*
X037729Y001417D01*
X037733Y001367D01*
X037733Y001317D01*
X037729Y001267D01*
X037721Y001217D01*
X037709Y001168D01*
X037694Y001120D01*
X037675Y001073D01*
X037652Y001028D01*
X037626Y000985D01*
X037597Y000944D01*
X037564Y000905D01*
X037529Y000869D01*
X037491Y000836D01*
X037451Y000806D01*
X037408Y000779D01*
X037363Y000756D01*
X037317Y000736D01*
X037269Y000719D01*
X037221Y000707D01*
X037171Y000698D01*
X037121Y000693D01*
X037070Y000692D01*
X037020Y000695D01*
X036970Y000702D01*
X036921Y000713D01*
X036873Y000727D01*
X036826Y000745D01*
X036780Y000767D01*
X036736Y000792D01*
X036695Y000821D01*
X036656Y000852D01*
X036619Y000887D01*
X036585Y000924D01*
X036554Y000964D01*
X036526Y001006D01*
X036502Y001050D01*
X036481Y001096D01*
X036464Y001144D01*
X036451Y001192D01*
X036441Y001242D01*
X036435Y001292D01*
X036433Y001342D01*
D11*
X035859Y001042D02*
X035632Y001042D01*
X035490Y000986D02*
X035377Y000872D01*
X035263Y000986D01*
X035263Y001212D01*
X035490Y001212D02*
X035490Y000986D01*
X035745Y000929D02*
X035745Y001156D01*
X035733Y001342D02*
X032733Y001342D01*
X032733Y003342D01*
X034733Y003342D01*
X034733Y002342D01*
X035733Y002342D01*
X035733Y001342D01*
X034732Y001212D02*
X034618Y001212D01*
X034675Y001212D02*
X034675Y000872D01*
X034618Y000872D02*
X034732Y000872D01*
X034477Y000929D02*
X034420Y000872D01*
X034307Y000872D01*
X034250Y000929D01*
X034307Y001042D02*
X034420Y001042D01*
X034477Y000986D01*
X034477Y000929D01*
X034307Y001042D02*
X034250Y001099D01*
X034250Y001156D01*
X034307Y001212D01*
X034420Y001212D01*
X034477Y001156D01*
X034109Y001156D02*
X034109Y000929D01*
X034052Y000872D01*
X033938Y000872D01*
X033882Y000929D01*
X033882Y001156D01*
X033938Y001212D01*
X034052Y001212D01*
X034109Y001156D01*
X033740Y001212D02*
X033740Y000872D01*
X033513Y000872D02*
X033513Y001212D01*
X033627Y001099D01*
X033740Y001212D01*
X032977Y001156D02*
X032977Y000929D01*
X032920Y000872D01*
X032750Y000872D01*
X032750Y001212D01*
X032920Y001212D01*
X032977Y001156D01*
X032609Y001212D02*
X032609Y000872D01*
X032382Y001212D01*
X032382Y000872D01*
X032240Y000929D02*
X032183Y000872D01*
X032070Y000872D01*
X032013Y000929D01*
X032013Y001156D01*
X032070Y001212D01*
X032183Y001212D01*
X032240Y001156D01*
X032240Y001042D02*
X032127Y001042D01*
X032240Y001042D02*
X032240Y000929D01*
X030633Y001092D02*
X028333Y001092D01*
X028333Y015092D01*
X029083Y015092D01*
X029085Y015053D01*
X029091Y015014D01*
X029100Y014976D01*
X029113Y014939D01*
X029130Y014903D01*
X029150Y014870D01*
X029174Y014838D01*
X029200Y014809D01*
X029229Y014783D01*
X029261Y014759D01*
X029294Y014739D01*
X029330Y014722D01*
X029367Y014709D01*
X029405Y014700D01*
X029444Y014694D01*
X029483Y014692D01*
X029522Y014694D01*
X029561Y014700D01*
X029599Y014709D01*
X029636Y014722D01*
X029672Y014739D01*
X029705Y014759D01*
X029737Y014783D01*
X029766Y014809D01*
X029792Y014838D01*
X029816Y014870D01*
X029836Y014903D01*
X029853Y014939D01*
X029866Y014976D01*
X029875Y015014D01*
X029881Y015053D01*
X029883Y015092D01*
X030633Y015092D01*
X030633Y001092D01*
X027072Y001222D02*
X026845Y001222D01*
X027072Y001449D01*
X026845Y001449D01*
X026704Y001392D02*
X026477Y001392D01*
X026340Y001449D02*
X026170Y001336D01*
X026340Y001222D01*
X026477Y001222D02*
X026477Y001562D01*
X026704Y001562D02*
X026704Y001222D01*
X026533Y000742D02*
X026533Y003742D01*
X026483Y003742D01*
X025383Y003742D01*
X025333Y003742D01*
X025333Y000742D01*
X025335Y000725D01*
X025339Y000708D01*
X025346Y000692D01*
X025356Y000678D01*
X025369Y000665D01*
X025383Y000655D01*
X025399Y000648D01*
X025416Y000644D01*
X025433Y000642D01*
X026433Y000642D01*
X026450Y000644D01*
X026467Y000648D01*
X026483Y000655D01*
X026497Y000665D01*
X026510Y000678D01*
X026520Y000692D01*
X026527Y000708D01*
X026531Y000725D01*
X026533Y000742D01*
X026170Y001222D02*
X026170Y001562D01*
X026028Y001506D02*
X025972Y001562D01*
X025858Y001562D01*
X025801Y001506D01*
X025660Y001506D02*
X025660Y001449D01*
X025603Y001392D01*
X025660Y001336D01*
X025660Y001279D01*
X025603Y001222D01*
X025490Y001222D01*
X025433Y001279D01*
X025547Y001392D02*
X025603Y001392D01*
X025660Y001506D02*
X025603Y001562D01*
X025490Y001562D01*
X025433Y001506D01*
X025801Y001222D02*
X026028Y001449D01*
X026028Y001506D01*
X026028Y001222D02*
X025801Y001222D01*
X024603Y001267D02*
X024263Y001267D01*
X024433Y001324D02*
X024603Y001494D01*
X024603Y001635D02*
X024263Y001635D01*
X024263Y001862D01*
X024233Y001842D02*
X023233Y001842D01*
X023233Y002842D01*
X024233Y002842D01*
X024233Y001842D01*
X024233Y000842D01*
X023233Y000842D01*
X023233Y001842D01*
X024263Y002004D02*
X024320Y002004D01*
X024433Y002117D01*
X024603Y002117D01*
X024433Y002117D02*
X024320Y002231D01*
X024263Y002231D01*
X024603Y001862D02*
X024603Y001635D01*
X024433Y001635D02*
X024433Y001749D01*
X024263Y001494D02*
X024490Y001267D01*
X025933Y001992D02*
X025933Y002192D01*
X025633Y002192D01*
X025633Y002342D02*
X026233Y002342D01*
X026233Y002492D01*
X025633Y002492D01*
X025633Y002342D01*
X025633Y002642D02*
X025933Y002642D01*
X025933Y002842D01*
X025933Y002642D02*
X026233Y002642D01*
X026233Y002192D02*
X025933Y002192D01*
X025383Y003742D02*
X025383Y003892D01*
X026483Y003892D01*
X026483Y003742D01*
X022483Y002342D02*
X022483Y001342D01*
X019483Y001342D01*
X019483Y002342D01*
X022483Y002342D01*
X022359Y001212D02*
X022132Y000872D01*
X021990Y000872D02*
X021877Y000986D01*
X021933Y000986D02*
X021763Y000986D01*
X021763Y000872D02*
X021763Y001212D01*
X021933Y001212D01*
X021990Y001156D01*
X021990Y001042D01*
X021933Y000986D01*
X022132Y001212D02*
X022359Y000872D01*
X021359Y000872D02*
X021132Y001212D01*
X020990Y001212D02*
X020763Y001212D01*
X020877Y001212D02*
X020877Y000872D01*
X021132Y000872D02*
X021359Y001212D01*
X020477Y001156D02*
X020477Y000929D01*
X020420Y000872D01*
X020250Y000872D01*
X020250Y001212D01*
X020420Y001212D01*
X020477Y001156D01*
X020109Y001212D02*
X020109Y000872D01*
X019882Y001212D01*
X019882Y000872D01*
X019740Y000929D02*
X019740Y001042D01*
X019627Y001042D01*
X019740Y000929D02*
X019683Y000872D01*
X019570Y000872D01*
X019513Y000929D01*
X019513Y001156D01*
X019570Y001212D01*
X019683Y001212D01*
X019740Y001156D01*
X019483Y001342D02*
X018483Y001342D01*
X018483Y002342D01*
X019483Y002342D01*
X019109Y001212D02*
X019109Y000986D01*
X018995Y000872D01*
X018882Y000986D01*
X018882Y001212D01*
X018740Y001156D02*
X018740Y001099D01*
X018683Y001042D01*
X018740Y000986D01*
X018740Y000929D01*
X018683Y000872D01*
X018570Y000872D01*
X018513Y000929D01*
X018627Y001042D02*
X018683Y001042D01*
X018740Y001156D02*
X018683Y001212D01*
X018570Y001212D01*
X018513Y001156D01*
X016177Y001779D02*
X016120Y001722D01*
X016007Y001722D01*
X015950Y001779D01*
X016177Y002006D01*
X016177Y001779D01*
X016177Y002006D02*
X016120Y002062D01*
X016007Y002062D01*
X015950Y002006D01*
X015950Y001779D01*
X015809Y001779D02*
X015752Y001722D01*
X015638Y001722D01*
X015582Y001779D01*
X015809Y002006D01*
X015809Y001779D01*
X015809Y002006D02*
X015752Y002062D01*
X015638Y002062D01*
X015582Y002006D01*
X015582Y001779D01*
X015440Y001779D02*
X015383Y001722D01*
X015270Y001722D01*
X015213Y001779D01*
X015327Y001892D02*
X015383Y001892D01*
X015440Y001836D01*
X015440Y001779D01*
X015383Y001892D02*
X015440Y001949D01*
X015440Y002006D01*
X015383Y002062D01*
X015270Y002062D01*
X015213Y002006D01*
X015289Y001156D02*
X015289Y000929D01*
X015346Y000872D01*
X015478Y000929D02*
X015534Y000872D01*
X015705Y000872D01*
X015705Y001099D01*
X015846Y001042D02*
X015903Y001099D01*
X016073Y001099D01*
X016016Y000986D02*
X015903Y000986D01*
X015846Y001042D01*
X015846Y000872D02*
X016016Y000872D01*
X016073Y000929D01*
X016016Y000986D01*
X015478Y000929D02*
X015478Y001099D01*
X015346Y001099D02*
X015232Y001099D01*
X015091Y001042D02*
X015091Y000872D01*
X014921Y000872D01*
X014864Y000929D01*
X014921Y000986D01*
X015091Y000986D01*
X015091Y001042D02*
X015034Y001099D01*
X014921Y001099D01*
X014732Y001099D02*
X014618Y001099D01*
X014675Y001156D02*
X014675Y000929D01*
X014732Y000872D01*
X014477Y000929D02*
X014420Y000986D01*
X014307Y000986D01*
X014250Y001042D01*
X014307Y001099D01*
X014477Y001099D01*
X014477Y000929D02*
X014420Y000872D01*
X014250Y000872D01*
X013995Y000872D02*
X013995Y001212D01*
X013882Y001212D02*
X014109Y001212D01*
X013740Y001156D02*
X013740Y001099D01*
X013683Y001042D01*
X013513Y001042D01*
X013513Y000872D02*
X013683Y000872D01*
X013740Y000929D01*
X013740Y000986D01*
X013683Y001042D01*
X013740Y001156D02*
X013683Y001212D01*
X013513Y001212D01*
X013513Y000872D01*
X012097Y002472D02*
X012153Y002529D01*
X012153Y002642D01*
X012097Y002699D01*
X011983Y002699D01*
X011926Y002642D01*
X011926Y002586D01*
X011983Y002472D01*
X011813Y002472D01*
X011813Y002699D01*
X011813Y002840D02*
X012040Y002840D01*
X012153Y002954D01*
X012040Y003067D01*
X011813Y003067D01*
X011870Y003577D02*
X012097Y003577D01*
X012153Y003634D01*
X012153Y003747D01*
X012097Y003804D01*
X011983Y003804D01*
X011983Y003690D01*
X011870Y003577D02*
X011813Y003634D01*
X011813Y003747D01*
X011870Y003804D01*
X011813Y003945D02*
X012153Y004172D01*
X011813Y004172D01*
X011813Y004314D02*
X011813Y004484D01*
X011870Y004541D01*
X012097Y004541D01*
X012153Y004484D01*
X012153Y004314D01*
X011813Y004314D01*
X011813Y003945D02*
X012153Y003945D01*
X011645Y006222D02*
X011645Y006279D01*
X011872Y006506D01*
X011872Y006562D01*
X011645Y006562D01*
X011390Y006562D02*
X011277Y006449D01*
X011135Y006449D02*
X011079Y006392D01*
X011135Y006336D01*
X011135Y006279D01*
X011079Y006222D01*
X010965Y006222D01*
X010908Y006279D01*
X010767Y006222D02*
X010767Y006562D01*
X010654Y006449D01*
X010540Y006562D01*
X010540Y006222D01*
X010399Y006222D02*
X010172Y006222D01*
X010172Y006562D01*
X010908Y006506D02*
X010965Y006562D01*
X011079Y006562D01*
X011135Y006506D01*
X011135Y006449D01*
X011079Y006392D02*
X011022Y006392D01*
X011277Y006222D02*
X011504Y006222D01*
X011390Y006222D02*
X011390Y006562D01*
X009703Y007817D02*
X009476Y008044D01*
X009420Y008044D01*
X009363Y007987D01*
X009363Y007874D01*
X009420Y007817D01*
X009703Y007817D02*
X009703Y008044D01*
X009533Y008185D02*
X009533Y008412D01*
X009363Y008356D02*
X009533Y008185D01*
X009703Y008356D02*
X009363Y008356D01*
X009420Y008554D02*
X009363Y008611D01*
X009363Y008724D01*
X009420Y008781D01*
X009647Y008554D01*
X009703Y008611D01*
X009703Y008724D01*
X009647Y008781D01*
X009420Y008781D01*
X009420Y008554D02*
X009647Y008554D01*
X008703Y008611D02*
X008647Y008554D01*
X008420Y008781D01*
X008647Y008781D01*
X008703Y008724D01*
X008703Y008611D01*
X008647Y008554D02*
X008420Y008554D01*
X008363Y008611D01*
X008363Y008724D01*
X008420Y008781D01*
X008420Y008412D02*
X008476Y008412D01*
X008533Y008356D01*
X008590Y008412D01*
X008647Y008412D01*
X008703Y008356D01*
X008703Y008242D01*
X008647Y008185D01*
X008647Y008044D02*
X008703Y007987D01*
X008703Y007874D01*
X008647Y007817D01*
X008533Y007931D02*
X008533Y007987D01*
X008590Y008044D01*
X008647Y008044D01*
X008533Y007987D02*
X008476Y008044D01*
X008420Y008044D01*
X008363Y007987D01*
X008363Y007874D01*
X008420Y007817D01*
X008420Y008185D02*
X008363Y008242D01*
X008363Y008356D01*
X008420Y008412D01*
X008533Y008356D02*
X008533Y008299D01*
X007603Y008229D02*
X007603Y008115D01*
X007547Y008059D01*
X007320Y008286D01*
X007547Y008286D01*
X007603Y008229D01*
X007547Y008059D02*
X007320Y008059D01*
X007263Y008115D01*
X007263Y008229D01*
X007320Y008286D01*
X007320Y007917D02*
X007376Y007917D01*
X007433Y007861D01*
X007490Y007917D01*
X007547Y007917D01*
X007603Y007861D01*
X007603Y007747D01*
X007547Y007690D01*
X007547Y007549D02*
X007603Y007492D01*
X007603Y007379D01*
X007547Y007322D01*
X007433Y007436D02*
X007433Y007492D01*
X007490Y007549D01*
X007547Y007549D01*
X007433Y007492D02*
X007376Y007549D01*
X007320Y007549D01*
X007263Y007492D01*
X007263Y007379D01*
X007320Y007322D01*
X007320Y007690D02*
X007263Y007747D01*
X007263Y007861D01*
X007320Y007917D01*
X007433Y007861D02*
X007433Y007804D01*
X004923Y009722D02*
X004923Y010062D01*
X005150Y010062D01*
X005037Y009892D02*
X004923Y009892D01*
X004782Y010062D02*
X004555Y010062D01*
X004555Y009722D01*
X004413Y009779D02*
X004413Y010006D01*
X004357Y010062D01*
X004243Y010062D01*
X004187Y010006D01*
X004187Y009779D01*
X004243Y009722D01*
X004357Y009722D01*
X004413Y009779D01*
X004555Y009892D02*
X004668Y009892D01*
X003309Y009722D02*
X003309Y010062D01*
X003082Y010062D02*
X003309Y009722D01*
X003082Y009722D02*
X003082Y010062D01*
X002940Y010006D02*
X002883Y010062D01*
X002770Y010062D01*
X002713Y010006D01*
X002713Y009779D01*
X002770Y009722D01*
X002883Y009722D01*
X002940Y009779D01*
X002940Y010006D01*
X003070Y012522D02*
X003013Y012579D01*
X003013Y012692D01*
X003070Y012749D01*
X003240Y012749D01*
X003240Y012862D02*
X003240Y012522D01*
X003070Y012522D01*
X003382Y012522D02*
X003495Y012522D01*
X003438Y012522D02*
X003438Y012749D01*
X003382Y012749D01*
X003438Y012862D02*
X003438Y012919D01*
X003627Y012692D02*
X003684Y012749D01*
X003797Y012749D01*
X003854Y012692D01*
X003854Y012579D01*
X003797Y012522D01*
X003684Y012522D01*
X003627Y012579D01*
X003627Y012692D01*
X003996Y012692D02*
X004052Y012749D01*
X004222Y012749D01*
X004222Y012862D02*
X004222Y012522D01*
X004052Y012522D01*
X003996Y012579D01*
X003996Y012692D01*
X004364Y012692D02*
X004421Y012749D01*
X004534Y012749D01*
X004591Y012692D01*
X004591Y012636D01*
X004364Y012636D01*
X004364Y012692D02*
X004364Y012579D01*
X004421Y012522D01*
X004534Y012522D01*
X004450Y013672D02*
X004563Y013786D01*
X004563Y014012D01*
X004337Y014012D02*
X004337Y013786D01*
X004450Y013672D01*
X004195Y013672D02*
X003968Y013672D01*
X004195Y013899D01*
X004195Y013956D01*
X004138Y014012D01*
X004025Y014012D01*
X003968Y013956D01*
X003713Y014012D02*
X003600Y013899D01*
X003459Y013842D02*
X003232Y013842D01*
X003090Y013842D02*
X002920Y013842D01*
X002863Y013899D01*
X002863Y013956D01*
X002920Y014012D01*
X003033Y014012D01*
X003090Y013956D01*
X003090Y013729D01*
X003033Y013672D01*
X002920Y013672D01*
X002863Y013729D01*
X003600Y013672D02*
X003827Y013672D01*
X003713Y013672D02*
X003713Y014012D01*
X005073Y013956D02*
X005073Y013729D01*
X005130Y013672D01*
X005243Y013672D01*
X005300Y013729D01*
X005300Y013842D01*
X005187Y013842D01*
X005300Y013956D02*
X005243Y014012D01*
X005130Y014012D01*
X005073Y013956D01*
X005442Y014012D02*
X005668Y013672D01*
X005668Y014012D01*
X005810Y014012D02*
X005980Y014012D01*
X006037Y013956D01*
X006037Y013729D01*
X005980Y013672D01*
X005810Y013672D01*
X005810Y014012D01*
X005442Y014012D02*
X005442Y013672D01*
X006920Y013615D02*
X007147Y013615D01*
X007203Y013672D01*
X007147Y013804D02*
X007203Y013861D01*
X007203Y014031D01*
X006976Y014031D02*
X006976Y013861D01*
X007033Y013804D01*
X007147Y013804D01*
X006976Y013672D02*
X006976Y013558D01*
X007033Y013417D02*
X007147Y013417D01*
X007203Y013360D01*
X007203Y013190D01*
X007317Y013190D02*
X006976Y013190D01*
X006976Y013360D01*
X007033Y013417D01*
X008433Y012749D02*
X008603Y012749D01*
X008660Y012692D01*
X008660Y012579D01*
X008603Y012522D01*
X008433Y012522D01*
X008433Y012409D02*
X008433Y012749D01*
X008801Y012692D02*
X008801Y012579D01*
X008858Y012522D01*
X008972Y012522D01*
X009028Y012579D01*
X009028Y012692D01*
X008972Y012749D01*
X008858Y012749D01*
X008801Y012692D01*
X009170Y012749D02*
X009170Y012579D01*
X009226Y012522D01*
X009283Y012579D01*
X009340Y012522D01*
X009397Y012579D01*
X009397Y012749D01*
X009538Y012692D02*
X009595Y012749D01*
X009708Y012749D01*
X009765Y012692D01*
X009765Y012636D01*
X009538Y012636D01*
X009538Y012692D02*
X009538Y012579D01*
X009595Y012522D01*
X009708Y012522D01*
X009906Y012522D02*
X009906Y012749D01*
X009906Y012636D02*
X010020Y012749D01*
X010077Y012749D01*
X008283Y014092D02*
X008285Y014155D01*
X008291Y014217D01*
X008301Y014279D01*
X008314Y014341D01*
X008332Y014401D01*
X008353Y014460D01*
X008378Y014518D01*
X008407Y014574D01*
X008439Y014628D01*
X008474Y014680D01*
X008512Y014729D01*
X008554Y014777D01*
X008598Y014821D01*
X008646Y014863D01*
X008695Y014901D01*
X008747Y014936D01*
X008801Y014968D01*
X008857Y014997D01*
X008915Y015022D01*
X008974Y015043D01*
X009034Y015061D01*
X009096Y015074D01*
X009158Y015084D01*
X009220Y015090D01*
X009283Y015092D01*
X009346Y015090D01*
X009408Y015084D01*
X009470Y015074D01*
X009532Y015061D01*
X009592Y015043D01*
X009651Y015022D01*
X009709Y014997D01*
X009765Y014968D01*
X009819Y014936D01*
X009871Y014901D01*
X009920Y014863D01*
X009968Y014821D01*
X010012Y014777D01*
X010054Y014729D01*
X010092Y014680D01*
X010127Y014628D01*
X010159Y014574D01*
X010188Y014518D01*
X010213Y014460D01*
X010234Y014401D01*
X010252Y014341D01*
X010265Y014279D01*
X010275Y014217D01*
X010281Y014155D01*
X010283Y014092D01*
X010281Y014029D01*
X010275Y013967D01*
X010265Y013905D01*
X010252Y013843D01*
X010234Y013783D01*
X010213Y013724D01*
X010188Y013666D01*
X010159Y013610D01*
X010127Y013556D01*
X010092Y013504D01*
X010054Y013455D01*
X010012Y013407D01*
X009968Y013363D01*
X009920Y013321D01*
X009871Y013283D01*
X009819Y013248D01*
X009765Y013216D01*
X009709Y013187D01*
X009651Y013162D01*
X009592Y013141D01*
X009532Y013123D01*
X009470Y013110D01*
X009408Y013100D01*
X009346Y013094D01*
X009283Y013092D01*
X009220Y013094D01*
X009158Y013100D01*
X009096Y013110D01*
X009034Y013123D01*
X008974Y013141D01*
X008915Y013162D01*
X008857Y013187D01*
X008801Y013216D01*
X008747Y013248D01*
X008695Y013283D01*
X008646Y013321D01*
X008598Y013363D01*
X008554Y013407D01*
X008512Y013455D01*
X008474Y013504D01*
X008439Y013556D01*
X008407Y013610D01*
X008378Y013666D01*
X008353Y013724D01*
X008332Y013783D01*
X008314Y013843D01*
X008301Y013905D01*
X008291Y013967D01*
X008285Y014029D01*
X008283Y014092D01*
X008270Y011312D02*
X008383Y011312D01*
X008440Y011256D01*
X008440Y011199D01*
X008383Y011142D01*
X008440Y011086D01*
X008440Y011029D01*
X008383Y010972D01*
X008270Y010972D01*
X008213Y011029D01*
X008327Y011142D02*
X008383Y011142D01*
X008213Y011256D02*
X008270Y011312D01*
X008582Y011256D02*
X008582Y011199D01*
X008638Y011142D01*
X008809Y011142D01*
X008809Y011029D02*
X008809Y011256D01*
X008752Y011312D01*
X008638Y011312D01*
X008582Y011256D01*
X008582Y011029D02*
X008638Y010972D01*
X008752Y010972D01*
X008809Y011029D01*
X008950Y011029D02*
X009177Y011256D01*
X009177Y011029D01*
X009120Y010972D01*
X009007Y010972D01*
X008950Y011029D01*
X008950Y011256D01*
X009007Y011312D01*
X009120Y011312D01*
X009177Y011256D01*
X014513Y013122D02*
X014740Y013122D01*
X014882Y013179D02*
X014882Y013292D01*
X014938Y013349D01*
X015109Y013349D01*
X015109Y013462D02*
X015109Y013122D01*
X014938Y013122D01*
X014882Y013179D01*
X014740Y013349D02*
X014513Y013349D01*
X014740Y013349D02*
X014513Y013122D01*
X015250Y013122D02*
X015363Y013122D01*
X015307Y013122D02*
X015307Y013349D01*
X015250Y013349D01*
X015307Y013462D02*
X015307Y013519D01*
X015496Y013292D02*
X015496Y013179D01*
X015552Y013122D01*
X015666Y013122D01*
X015722Y013179D01*
X015722Y013292D01*
X015666Y013349D01*
X015552Y013349D01*
X015496Y013292D01*
X015864Y013292D02*
X015864Y013179D01*
X015921Y013122D01*
X016091Y013122D01*
X016091Y013462D01*
X016091Y013349D02*
X015921Y013349D01*
X015864Y013292D01*
X016232Y013292D02*
X016232Y013179D01*
X016289Y013122D01*
X016402Y013122D01*
X016459Y013236D02*
X016232Y013236D01*
X016232Y013292D02*
X016289Y013349D01*
X016402Y013349D01*
X016459Y013292D01*
X016459Y013236D01*
X016429Y012712D02*
X016429Y012372D01*
X016316Y012372D02*
X016543Y012372D01*
X016684Y012429D02*
X016684Y012599D01*
X016684Y012429D02*
X016741Y012372D01*
X016911Y012372D01*
X016911Y012599D01*
X017052Y012542D02*
X017166Y012542D01*
X017052Y012372D02*
X017052Y012712D01*
X017279Y012712D01*
X016429Y012712D02*
X016316Y012599D01*
X016188Y012429D02*
X016188Y012372D01*
X016132Y012372D01*
X016132Y012429D01*
X016188Y012429D01*
X015990Y012429D02*
X015933Y012372D01*
X015820Y012372D01*
X015763Y012429D01*
X015990Y012656D01*
X015990Y012429D01*
X015763Y012429D02*
X015763Y012656D01*
X015820Y012712D01*
X015933Y012712D01*
X015990Y012656D01*
X018233Y013092D02*
X018483Y012842D01*
X018983Y012842D01*
X019233Y013092D01*
X019233Y014592D01*
X019483Y014842D01*
X019983Y014842D01*
X020233Y014592D01*
X020233Y013092D01*
X019983Y012842D01*
X019483Y012842D01*
X019233Y013092D01*
X018233Y013092D02*
X018233Y014592D01*
X018483Y014842D01*
X018983Y014842D01*
X019233Y014592D01*
X020233Y014592D02*
X020483Y014842D01*
X020983Y014842D01*
X021233Y014592D01*
X021233Y013092D01*
X020983Y012842D01*
X020483Y012842D01*
X020233Y013092D01*
X021233Y013092D02*
X021483Y012842D01*
X021983Y012842D01*
X022233Y013092D01*
X022233Y014592D01*
X021983Y014842D01*
X021483Y014842D01*
X021233Y014592D01*
X022233Y014592D02*
X022483Y014842D01*
X022983Y014842D01*
X023233Y014592D01*
X023233Y013092D01*
X022983Y012842D01*
X022483Y012842D01*
X022233Y013092D01*
X023233Y013092D02*
X023483Y012842D01*
X023983Y012842D01*
X024233Y013092D01*
X024233Y014592D01*
X023983Y014842D01*
X023483Y014842D01*
X023233Y014592D01*
X024233Y014592D02*
X024483Y014842D01*
X024983Y014842D01*
X025233Y014592D01*
X025233Y013092D01*
X024983Y012842D01*
X024483Y012842D01*
X024233Y013092D01*
X025233Y013092D02*
X025483Y012842D01*
X025983Y012842D01*
X026233Y013092D01*
X026233Y014592D01*
X025983Y014842D01*
X025483Y014842D01*
X025233Y014592D01*
X025127Y015122D02*
X024900Y015122D01*
X025013Y015122D02*
X025013Y015462D01*
X024900Y015349D01*
X024759Y015406D02*
X024702Y015462D01*
X024588Y015462D01*
X024532Y015406D01*
X024532Y015349D01*
X024588Y015292D01*
X024702Y015292D01*
X024759Y015236D01*
X024759Y015179D01*
X024702Y015122D01*
X024588Y015122D01*
X024532Y015179D01*
X024390Y015179D02*
X024333Y015122D01*
X024220Y015122D01*
X024163Y015179D01*
X024163Y015406D01*
X024220Y015462D01*
X024333Y015462D01*
X024390Y015406D01*
X023809Y015406D02*
X023809Y015292D01*
X023752Y015236D01*
X023582Y015236D01*
X023695Y015236D02*
X023809Y015122D01*
X023582Y015122D02*
X023582Y015462D01*
X023752Y015462D01*
X023809Y015406D01*
X023440Y015462D02*
X023440Y015122D01*
X023327Y015236D01*
X023213Y015122D01*
X023213Y015462D01*
X022859Y015349D02*
X022859Y015122D01*
X022859Y015292D02*
X022632Y015292D01*
X022632Y015349D02*
X022745Y015462D01*
X022859Y015349D01*
X022632Y015349D02*
X022632Y015122D01*
X022490Y015179D02*
X022433Y015122D01*
X022263Y015122D01*
X022263Y015462D01*
X022433Y015462D01*
X022490Y015406D01*
X022490Y015179D01*
X025513Y015179D02*
X025570Y015122D01*
X025683Y015122D01*
X025740Y015179D01*
X025882Y015179D02*
X025938Y015122D01*
X026052Y015122D01*
X026109Y015179D01*
X026109Y015236D01*
X026052Y015292D01*
X025938Y015292D01*
X025882Y015349D01*
X025882Y015406D01*
X025938Y015462D01*
X026052Y015462D01*
X026109Y015406D01*
X026250Y015406D02*
X026307Y015462D01*
X026420Y015462D01*
X026477Y015406D01*
X026477Y015349D01*
X026250Y015122D01*
X026477Y015122D01*
X025740Y015406D02*
X025683Y015462D01*
X025570Y015462D01*
X025513Y015406D01*
X025513Y015179D01*
X026413Y013812D02*
X026583Y013812D01*
X026640Y013756D01*
X026640Y013642D01*
X026583Y013586D01*
X026413Y013586D01*
X026527Y013586D02*
X026640Y013472D01*
X026782Y013472D02*
X027009Y013812D01*
X027150Y013812D02*
X027320Y013812D01*
X027377Y013756D01*
X027377Y013529D01*
X027320Y013472D01*
X027150Y013472D01*
X027150Y013812D01*
X026782Y013812D02*
X027009Y013472D01*
X026413Y013472D02*
X026413Y013812D01*
X026413Y012762D02*
X026640Y012762D01*
X026527Y012762D02*
X026527Y012422D01*
X026782Y012422D02*
X027009Y012762D01*
X027150Y012762D02*
X027320Y012762D01*
X027377Y012706D01*
X027377Y012479D01*
X027320Y012422D01*
X027150Y012422D01*
X027150Y012762D01*
X026782Y012762D02*
X027009Y012422D01*
X025427Y011756D02*
X025370Y011812D01*
X025200Y011812D01*
X025200Y011472D01*
X025370Y011472D01*
X025427Y011529D01*
X025427Y011756D01*
X025059Y011812D02*
X024832Y011472D01*
X025059Y011472D02*
X024832Y011812D01*
X024690Y011812D02*
X024463Y011812D01*
X024383Y011842D02*
X024383Y010842D01*
X023383Y010842D01*
X023383Y011842D01*
X024383Y011842D01*
X024577Y011812D02*
X024577Y011472D01*
X023383Y011842D02*
X022383Y011842D01*
X022383Y010842D01*
X023383Y010842D01*
X023383Y010642D02*
X023383Y009642D01*
X022383Y009642D01*
X022383Y010642D01*
X023383Y010642D01*
X024383Y010642D01*
X024383Y009642D01*
X023383Y009642D01*
X022363Y010172D02*
X022137Y010512D01*
X021995Y010512D02*
X021768Y010512D01*
X021882Y010512D02*
X021882Y010172D01*
X022137Y010172D02*
X022363Y010512D01*
X021627Y010115D02*
X021400Y010115D01*
X021145Y010172D02*
X021145Y010512D01*
X021032Y010512D02*
X021259Y010512D01*
X020890Y010456D02*
X020890Y010399D01*
X020833Y010342D01*
X020663Y010342D01*
X020663Y010172D02*
X020833Y010172D01*
X020890Y010229D01*
X020890Y010286D01*
X020833Y010342D01*
X020890Y010456D02*
X020833Y010512D01*
X020663Y010512D01*
X020663Y010172D01*
X019277Y009849D02*
X019106Y009736D01*
X019277Y009622D01*
X019106Y009622D02*
X019106Y009962D01*
X018965Y009906D02*
X018738Y009679D01*
X018795Y009622D01*
X018908Y009622D01*
X018965Y009679D01*
X018965Y009906D01*
X018908Y009962D01*
X018795Y009962D01*
X018738Y009906D01*
X018738Y009679D01*
X018597Y009622D02*
X018370Y009622D01*
X018483Y009622D02*
X018483Y009962D01*
X018370Y009849D01*
X018370Y010522D02*
X018597Y010522D01*
X018483Y010522D02*
X018483Y010862D01*
X018370Y010749D01*
X018738Y010692D02*
X018738Y010579D01*
X018795Y010522D01*
X018908Y010522D01*
X018965Y010579D01*
X018965Y010636D01*
X018908Y010692D01*
X018738Y010692D01*
X018852Y010806D01*
X018965Y010862D01*
X019106Y010862D02*
X019106Y010522D01*
X019106Y010636D02*
X019277Y010522D01*
X019106Y010636D02*
X019277Y010749D01*
X019277Y011422D02*
X019106Y011536D01*
X019277Y011649D01*
X019106Y011762D02*
X019106Y011422D01*
X018965Y011479D02*
X018908Y011422D01*
X018795Y011422D01*
X018738Y011479D01*
X018965Y011706D01*
X018965Y011479D01*
X018965Y011706D02*
X018908Y011762D01*
X018795Y011762D01*
X018738Y011706D01*
X018738Y011479D01*
X018597Y011422D02*
X018370Y011422D01*
X018483Y011422D02*
X018483Y011762D01*
X018370Y011649D01*
X020613Y011662D02*
X020613Y011322D01*
X020783Y011322D01*
X020840Y011379D01*
X020840Y011436D01*
X020783Y011492D01*
X020613Y011492D01*
X020613Y011662D02*
X020783Y011662D01*
X020840Y011606D01*
X020840Y011549D01*
X020783Y011492D01*
X020982Y011662D02*
X021209Y011662D01*
X021095Y011662D02*
X021095Y011322D01*
X021350Y011265D02*
X021577Y011265D01*
X021718Y011322D02*
X021718Y011662D01*
X021888Y011662D01*
X021945Y011606D01*
X021945Y011492D01*
X021888Y011436D01*
X021718Y011436D01*
X021832Y011436D02*
X021945Y011322D01*
X022087Y011322D02*
X022313Y011662D01*
X022087Y011662D02*
X022313Y011322D01*
X024513Y010712D02*
X024513Y010372D01*
X024513Y010486D02*
X024683Y010486D01*
X024740Y010542D01*
X024740Y010656D01*
X024683Y010712D01*
X024513Y010712D01*
X024627Y010486D02*
X024740Y010372D01*
X024882Y010372D02*
X025109Y010712D01*
X025250Y010712D02*
X025420Y010712D01*
X025477Y010656D01*
X025477Y010429D01*
X025420Y010372D01*
X025250Y010372D01*
X025250Y010712D01*
X024882Y010712D02*
X025109Y010372D01*
X025476Y008134D02*
X025476Y008077D01*
X025590Y007964D01*
X025703Y007964D02*
X025476Y007964D01*
X025533Y007822D02*
X025476Y007766D01*
X025476Y007652D01*
X025533Y007595D01*
X025647Y007595D01*
X025703Y007652D01*
X025703Y007766D01*
X025590Y007822D02*
X025590Y007595D01*
X025703Y007454D02*
X025703Y007227D01*
X025476Y007454D01*
X025476Y007227D01*
X025476Y007086D02*
X025703Y006859D01*
X025703Y007086D01*
X025476Y007086D02*
X025476Y006859D01*
X025476Y006717D02*
X025703Y006717D01*
X025703Y006547D01*
X025647Y006490D01*
X025476Y006490D01*
X025533Y006349D02*
X025476Y006292D01*
X025476Y006122D01*
X025363Y006122D02*
X025703Y006122D01*
X025703Y006292D01*
X025647Y006349D01*
X025533Y006349D01*
X025533Y007822D02*
X025590Y007822D01*
X032863Y004586D02*
X032863Y004359D01*
X032863Y004472D02*
X033203Y004472D01*
X033147Y004217D02*
X033203Y004161D01*
X033203Y004047D01*
X033147Y003990D01*
X033033Y004047D02*
X033033Y004161D01*
X033090Y004217D01*
X033147Y004217D01*
X033033Y004047D02*
X032976Y003990D01*
X032920Y003990D01*
X032863Y004047D01*
X032863Y004161D01*
X032920Y004217D01*
X032920Y003849D02*
X033033Y003849D01*
X033090Y003792D01*
X033090Y003622D01*
X033203Y003622D02*
X032863Y003622D01*
X032863Y003792D01*
X032920Y003849D01*
X033090Y003736D02*
X033203Y003849D01*
X033863Y003792D02*
X033863Y003679D01*
X033920Y003622D01*
X034147Y003622D01*
X034203Y003679D01*
X034203Y003792D01*
X034147Y003849D01*
X034203Y003990D02*
X033863Y003990D01*
X033920Y003849D02*
X033863Y003792D01*
X034203Y003990D02*
X034203Y004217D01*
X034203Y004359D02*
X033863Y004359D01*
X034033Y004415D02*
X034203Y004586D01*
X034090Y004359D02*
X033863Y004586D01*
X034513Y004212D02*
X034627Y004099D01*
X034740Y004212D01*
X034740Y003872D01*
X034882Y003872D02*
X034995Y003872D01*
X034938Y003872D02*
X034938Y004212D01*
X034882Y004212D02*
X034995Y004212D01*
X035127Y004156D02*
X035127Y004099D01*
X035184Y004042D01*
X035297Y004042D01*
X035354Y003986D01*
X035354Y003929D01*
X035297Y003872D01*
X035184Y003872D01*
X035127Y003929D01*
X035127Y004156D02*
X035184Y004212D01*
X035297Y004212D01*
X035354Y004156D01*
X035496Y004156D02*
X035496Y003929D01*
X035552Y003872D01*
X035666Y003872D01*
X035722Y003929D01*
X035722Y004156D01*
X035666Y004212D01*
X035552Y004212D01*
X035496Y004156D01*
X034513Y004212D02*
X034513Y003872D01*
X034733Y003342D02*
X035733Y003342D01*
X035733Y002342D01*
X036733Y004592D02*
X036733Y011592D01*
X037733Y011592D01*
X037733Y004592D01*
X036733Y004592D01*
X034427Y007422D02*
X034200Y007422D01*
X034427Y007649D01*
X034427Y007706D01*
X034370Y007762D01*
X034257Y007762D01*
X034200Y007706D01*
X034059Y007762D02*
X034059Y007422D01*
X033945Y007536D01*
X033832Y007422D01*
X033832Y007762D01*
X033690Y007706D02*
X033633Y007762D01*
X033520Y007762D01*
X033463Y007706D01*
X033463Y007649D01*
X033520Y007592D01*
X033633Y007592D01*
X033690Y007536D01*
X033690Y007479D01*
X033633Y007422D01*
X033520Y007422D01*
X033463Y007479D01*
X033470Y010672D02*
X033413Y010729D01*
X033470Y010672D02*
X033583Y010672D01*
X033640Y010729D01*
X033640Y010786D01*
X033583Y010842D01*
X033470Y010842D01*
X033413Y010899D01*
X033413Y010956D01*
X033470Y011012D01*
X033583Y011012D01*
X033640Y010956D01*
X033782Y011012D02*
X033782Y010672D01*
X033895Y010786D01*
X034009Y010672D01*
X034009Y011012D01*
X034150Y010899D02*
X034263Y011012D01*
X034263Y010672D01*
X034150Y010672D02*
X034377Y010672D01*
X034120Y011472D02*
X033950Y011586D01*
X034120Y011699D01*
X033950Y011812D02*
X033950Y011472D01*
X033809Y011529D02*
X033752Y011472D01*
X033638Y011472D01*
X033582Y011529D01*
X033809Y011756D01*
X033809Y011529D01*
X033809Y011756D02*
X033752Y011812D01*
X033638Y011812D01*
X033582Y011756D01*
X033582Y011529D01*
X033440Y011472D02*
X033213Y011472D01*
X033327Y011472D02*
X033327Y011812D01*
X033213Y011699D01*
X036733Y011592D02*
X036733Y012592D01*
X037733Y012592D01*
X037733Y011592D01*
X034600Y014872D02*
X034600Y015212D01*
X034487Y015212D02*
X034713Y015212D01*
X034345Y015212D02*
X034118Y015212D01*
X034118Y014872D01*
X034345Y014872D01*
X034232Y015042D02*
X034118Y015042D01*
X033977Y014986D02*
X033977Y014929D01*
X033920Y014872D01*
X033807Y014872D01*
X033750Y014929D01*
X033807Y015042D02*
X033920Y015042D01*
X033977Y014986D01*
X033977Y015156D02*
X033920Y015212D01*
X033807Y015212D01*
X033750Y015156D01*
X033750Y015099D01*
X033807Y015042D01*
X033609Y014872D02*
X033382Y014872D01*
X033382Y015212D01*
X033609Y015212D01*
X033495Y015042D02*
X033382Y015042D01*
X033240Y015042D02*
X033183Y014986D01*
X033013Y014986D01*
X033127Y014986D02*
X033240Y014872D01*
X033240Y015042D02*
X033240Y015156D01*
X033183Y015212D01*
X033013Y015212D01*
X033013Y014872D01*
X015309Y014892D02*
X015309Y014779D01*
X015252Y014722D01*
X015138Y014722D01*
X015082Y014779D01*
X015082Y014892D02*
X015195Y014949D01*
X015252Y014949D01*
X015309Y014892D01*
X015309Y015062D02*
X015082Y015062D01*
X015082Y014892D01*
X014940Y014722D02*
X014713Y014722D01*
X014827Y014722D02*
X014827Y015062D01*
X014713Y014949D01*
X003950Y005556D02*
X003893Y005612D01*
X003780Y005612D01*
X003723Y005556D01*
X003723Y005329D01*
X003780Y005272D01*
X003893Y005272D01*
X003950Y005329D01*
X003582Y005329D02*
X003525Y005272D01*
X003355Y005272D01*
X003355Y005612D01*
X003525Y005612D01*
X003582Y005556D01*
X003582Y005329D01*
X003213Y005386D02*
X003100Y005272D01*
X002987Y005386D01*
X002987Y005612D01*
X002845Y005556D02*
X002788Y005612D01*
X002675Y005612D01*
X002618Y005556D01*
X002845Y005556D02*
X002845Y005499D01*
X002618Y005272D01*
X002845Y005272D01*
X002477Y005272D02*
X002250Y005272D01*
X002363Y005272D02*
X002363Y005612D01*
X002250Y005499D01*
X002109Y005442D02*
X001882Y005442D01*
X001740Y005386D02*
X001683Y005442D01*
X001513Y005442D01*
X001513Y005329D01*
X001570Y005272D01*
X001683Y005272D01*
X001740Y005329D01*
X001740Y005386D01*
X001627Y005556D02*
X001513Y005442D01*
X001627Y005556D02*
X001740Y005612D01*
X003213Y005612D02*
X003213Y005386D01*
X006663Y003981D02*
X006663Y003754D01*
X007003Y003754D01*
X007003Y003612D02*
X006776Y003612D01*
X006833Y003754D02*
X006833Y003867D01*
X007003Y003612D02*
X007003Y003442D01*
X006947Y003385D01*
X006776Y003385D01*
X007003Y003244D02*
X007003Y003017D01*
X007003Y003131D02*
X006663Y003131D01*
X006776Y003017D01*
X006947Y002890D02*
X007003Y002890D01*
X007003Y002833D01*
X006947Y002833D01*
X006947Y002890D01*
X006947Y002692D02*
X007003Y002635D01*
X007003Y002521D01*
X006947Y002465D01*
X006720Y002692D01*
X006947Y002692D01*
X006720Y002692D02*
X006663Y002635D01*
X006663Y002521D01*
X006720Y002465D01*
X006947Y002465D01*
D12*
X006373Y002836D02*
X006373Y004548D01*
X001794Y004548D01*
X001794Y002836D01*
X006373Y002836D01*
X010417Y001668D02*
X010417Y001217D01*
X010717Y001217D01*
X010877Y001217D02*
X011177Y001217D01*
X011338Y001217D02*
X011563Y001217D01*
X011638Y001292D01*
X011638Y001592D01*
X011563Y001668D01*
X011338Y001668D01*
X011338Y001217D01*
X010877Y001217D02*
X010877Y001668D01*
X011177Y001668D01*
X011027Y001442D02*
X010877Y001442D01*
X011798Y001442D02*
X011798Y001292D01*
X011873Y001217D01*
X012023Y001217D01*
X012098Y001292D01*
X012098Y001367D01*
X012023Y001442D01*
X011798Y001442D01*
X011948Y001592D01*
X012098Y001668D01*
X012253Y001766D02*
X012328Y001841D01*
X012328Y001916D01*
X012253Y001991D01*
X011878Y001991D01*
X011878Y001916D02*
X011878Y002066D01*
X011878Y002226D02*
X011878Y002452D01*
X011953Y002527D01*
X012103Y002527D01*
X012178Y002452D01*
X012178Y002226D01*
X012328Y002226D02*
X011878Y002226D01*
X011953Y002687D02*
X012028Y002687D01*
X012103Y002762D01*
X012103Y002912D01*
X012178Y002987D01*
X012253Y002987D01*
X012328Y002912D01*
X012328Y002762D01*
X012253Y002687D01*
X012178Y002687D01*
X012103Y002762D01*
X012103Y002912D02*
X012028Y002987D01*
X011953Y002987D01*
X011878Y002912D01*
X011878Y002762D01*
X011953Y002687D01*
X012253Y002866D02*
X012328Y002941D01*
X012328Y003016D01*
X012253Y003091D01*
X011878Y003091D01*
X011878Y003016D02*
X011878Y003166D01*
X011878Y003326D02*
X011878Y003552D01*
X011953Y003627D01*
X012103Y003627D01*
X012178Y003552D01*
X012178Y003326D01*
X012328Y003326D02*
X011878Y003326D01*
X011953Y003787D02*
X012028Y003787D01*
X012103Y003862D01*
X012103Y004087D01*
X012253Y004087D02*
X011953Y004087D01*
X011878Y004012D01*
X011878Y003862D01*
X011953Y003787D01*
X012253Y003787D02*
X012328Y003862D01*
X012328Y004012D01*
X012253Y004087D01*
X013233Y003333D02*
X013233Y008451D01*
X023863Y008451D01*
X023863Y003333D01*
X013233Y003333D01*
X018508Y002567D02*
X018583Y002492D01*
X018658Y002492D01*
X018734Y002567D01*
X018734Y002943D01*
X018809Y002943D02*
X018658Y002943D01*
X018969Y002943D02*
X018969Y002717D01*
X019119Y002792D01*
X019194Y002792D01*
X019269Y002717D01*
X019269Y002567D01*
X019194Y002492D01*
X019044Y002492D01*
X018969Y002567D01*
X018969Y002943D02*
X019269Y002943D01*
X024383Y002707D02*
X024458Y002557D01*
X024608Y002407D01*
X024608Y002632D01*
X024683Y002707D01*
X024758Y002707D01*
X024833Y002632D01*
X024833Y002482D01*
X024758Y002407D01*
X024608Y002407D01*
X024383Y002247D02*
X024383Y002096D01*
X024383Y002172D02*
X024758Y002172D01*
X024833Y002096D01*
X024833Y002021D01*
X024758Y001946D01*
X026708Y002846D02*
X026783Y002846D01*
X026933Y002996D01*
X027158Y002996D01*
X026933Y002996D02*
X026783Y003147D01*
X026708Y003147D01*
X026858Y003307D02*
X026708Y003457D01*
X027158Y003457D01*
X027158Y003307D02*
X027158Y003607D01*
X034088Y004192D02*
X034163Y004117D01*
X034313Y004117D01*
X034388Y004192D01*
X034388Y004267D01*
X034313Y004342D01*
X034163Y004342D01*
X034088Y004417D01*
X034088Y004492D01*
X034163Y004568D01*
X034313Y004568D01*
X034388Y004492D01*
X034548Y004492D02*
X034623Y004568D01*
X034773Y004568D01*
X034848Y004492D01*
X034848Y004417D01*
X034548Y004117D01*
X034848Y004117D01*
X035808Y005017D02*
X035808Y005287D01*
X035943Y005287D01*
X035988Y005242D01*
X035988Y005152D01*
X035943Y005107D01*
X035808Y005107D01*
X036103Y005152D02*
X036238Y005152D01*
X036283Y005107D01*
X036283Y005062D01*
X036238Y005017D01*
X036103Y005017D01*
X036103Y005287D01*
X036238Y005287D01*
X036283Y005242D01*
X036283Y005197D01*
X036238Y005152D01*
X036398Y005197D02*
X036488Y005287D01*
X036488Y005017D01*
X036398Y005017D02*
X036578Y005017D01*
X036578Y005967D02*
X036398Y005967D01*
X036578Y006147D01*
X036578Y006192D01*
X036533Y006237D01*
X036443Y006237D01*
X036398Y006192D01*
X036283Y006192D02*
X036283Y006147D01*
X036238Y006102D01*
X036103Y006102D01*
X035988Y006102D02*
X035943Y006057D01*
X035808Y006057D01*
X035808Y005967D02*
X035808Y006237D01*
X035943Y006237D01*
X035988Y006192D01*
X035988Y006102D01*
X036103Y005967D02*
X036238Y005967D01*
X036283Y006012D01*
X036283Y006057D01*
X036238Y006102D01*
X036283Y006192D02*
X036238Y006237D01*
X036103Y006237D01*
X036103Y005967D01*
X036103Y006967D02*
X036238Y006967D01*
X036283Y007012D01*
X036283Y007057D01*
X036238Y007102D01*
X036103Y007102D01*
X035988Y007102D02*
X035943Y007057D01*
X035808Y007057D01*
X035808Y006967D02*
X035808Y007237D01*
X035943Y007237D01*
X035988Y007192D01*
X035988Y007102D01*
X036103Y006967D02*
X036103Y007237D01*
X036238Y007237D01*
X036283Y007192D01*
X036283Y007147D01*
X036238Y007102D01*
X036398Y007012D02*
X036578Y007192D01*
X036578Y007012D01*
X036533Y006967D01*
X036443Y006967D01*
X036398Y007012D01*
X036398Y007192D01*
X036443Y007237D01*
X036533Y007237D01*
X036578Y007192D01*
X036398Y007967D02*
X036398Y008012D01*
X036578Y008192D01*
X036578Y008237D01*
X036398Y008237D01*
X036283Y008192D02*
X036283Y008012D01*
X036238Y007967D01*
X036103Y007967D01*
X036103Y008237D01*
X036238Y008237D01*
X036283Y008192D01*
X035988Y008192D02*
X035988Y008102D01*
X035943Y008057D01*
X035808Y008057D01*
X035808Y007967D02*
X035808Y008237D01*
X035943Y008237D01*
X035988Y008192D01*
X036148Y008967D02*
X036238Y008967D01*
X036283Y009012D01*
X036398Y008967D02*
X036578Y009147D01*
X036578Y009192D01*
X036533Y009237D01*
X036443Y009237D01*
X036398Y009192D01*
X036283Y009192D02*
X036238Y009237D01*
X036148Y009237D01*
X036103Y009192D01*
X036103Y009012D01*
X036148Y008967D01*
X035988Y009102D02*
X035943Y009057D01*
X035808Y009057D01*
X035808Y008967D02*
X035808Y009237D01*
X035943Y009237D01*
X035988Y009192D01*
X035988Y009102D01*
X036398Y008967D02*
X036578Y008967D01*
X036533Y009967D02*
X036443Y009967D01*
X036398Y010012D01*
X036283Y010012D02*
X036238Y009967D01*
X036148Y009967D01*
X036103Y010012D01*
X036103Y010192D01*
X036148Y010237D01*
X036238Y010237D01*
X036283Y010192D01*
X036398Y010192D02*
X036443Y010237D01*
X036533Y010237D01*
X036578Y010192D01*
X036578Y010147D01*
X036533Y010102D01*
X036578Y010057D01*
X036578Y010012D01*
X036533Y009967D01*
X036533Y010102D02*
X036488Y010102D01*
X035988Y010102D02*
X035943Y010057D01*
X035808Y010057D01*
X035808Y009967D02*
X035808Y010237D01*
X035943Y010237D01*
X035988Y010192D01*
X035988Y010102D01*
X036148Y010917D02*
X036238Y010917D01*
X036283Y010962D01*
X036148Y010917D02*
X036103Y010962D01*
X036103Y011142D01*
X036148Y011187D01*
X036238Y011187D01*
X036283Y011142D01*
X036398Y011052D02*
X036578Y011052D01*
X036533Y010917D02*
X036533Y011187D01*
X036398Y011052D01*
X035988Y011052D02*
X035988Y011142D01*
X035943Y011187D01*
X035808Y011187D01*
X035808Y010917D01*
X035808Y011007D02*
X035943Y011007D01*
X035988Y011052D01*
X034848Y011692D02*
X034773Y011617D01*
X034623Y011617D01*
X034548Y011692D01*
X034548Y011842D02*
X034698Y011917D01*
X034773Y011917D01*
X034848Y011842D01*
X034848Y011692D01*
X034548Y011842D02*
X034548Y012068D01*
X034848Y012068D01*
X034388Y011992D02*
X034313Y012068D01*
X034163Y012068D01*
X034088Y011992D01*
X034088Y011917D01*
X034163Y011842D01*
X034313Y011842D01*
X034388Y011767D01*
X034388Y011692D01*
X034313Y011617D01*
X034163Y011617D01*
X034088Y011692D01*
X033619Y011318D02*
X033619Y010867D01*
X033469Y010867D02*
X033769Y010867D01*
X033309Y010942D02*
X033234Y010867D01*
X033083Y010867D01*
X033008Y010942D01*
X033083Y011092D02*
X033234Y011092D01*
X033309Y011017D01*
X033309Y010942D01*
X033083Y011092D02*
X033008Y011167D01*
X033008Y011242D01*
X033083Y011318D01*
X033234Y011318D01*
X033309Y011242D01*
X033469Y011167D02*
X033619Y011318D01*
X035858Y011967D02*
X035858Y012237D01*
X035993Y012237D01*
X036038Y012192D01*
X036038Y012102D01*
X035993Y012057D01*
X035858Y012057D01*
X036153Y012012D02*
X036198Y011967D01*
X036288Y011967D01*
X036333Y012012D01*
X036448Y012012D02*
X036493Y011967D01*
X036583Y011967D01*
X036628Y012012D01*
X036628Y012102D01*
X036583Y012147D01*
X036538Y012147D01*
X036448Y012102D01*
X036448Y012237D01*
X036628Y012237D01*
X036333Y012192D02*
X036288Y012237D01*
X036198Y012237D01*
X036153Y012192D01*
X036153Y012012D01*
X037883Y011997D02*
X037883Y011846D01*
X037883Y011922D02*
X038258Y011922D01*
X038333Y011846D01*
X038333Y011771D01*
X038258Y011696D01*
X038333Y012157D02*
X038033Y012457D01*
X037958Y012457D01*
X037883Y012382D01*
X037883Y012232D01*
X037958Y012157D01*
X038333Y012157D02*
X038333Y012457D01*
X029426Y015217D02*
X029126Y015217D01*
X029276Y015217D02*
X029276Y015668D01*
X029126Y015517D01*
X028966Y015592D02*
X028890Y015668D01*
X028740Y015668D01*
X028665Y015592D01*
X028665Y015292D01*
X028740Y015217D01*
X028890Y015217D01*
X028966Y015292D01*
X028508Y015217D02*
X028358Y015217D01*
X028433Y015217D02*
X028433Y015668D01*
X028358Y015668D02*
X028508Y015668D01*
X026023Y012568D02*
X025873Y012568D01*
X025798Y012492D01*
X025638Y012492D02*
X025563Y012568D01*
X025413Y012568D01*
X025338Y012492D01*
X025338Y012417D01*
X025413Y012342D01*
X025563Y012342D01*
X025638Y012267D01*
X025638Y012192D01*
X025563Y012117D01*
X025413Y012117D01*
X025338Y012192D01*
X025177Y012192D02*
X025177Y012568D01*
X024877Y012568D02*
X024877Y012192D01*
X024952Y012117D01*
X025102Y012117D01*
X025177Y012192D01*
X025488Y012042D02*
X025488Y012643D01*
X026023Y012568D02*
X026098Y012492D01*
X026098Y012417D01*
X025798Y012117D01*
X026098Y012117D01*
X023169Y012367D02*
X022869Y012067D01*
X022869Y011992D01*
X022634Y012067D02*
X022634Y012443D01*
X022709Y012443D02*
X022558Y012443D01*
X022869Y012443D02*
X023169Y012443D01*
X023169Y012367D01*
X022634Y012067D02*
X022558Y011992D01*
X022483Y011992D01*
X022408Y012067D01*
X022558Y011243D02*
X022709Y011243D01*
X022634Y011243D02*
X022634Y010867D01*
X022558Y010792D01*
X022483Y010792D01*
X022408Y010867D01*
X022869Y011017D02*
X023169Y011017D01*
X023094Y010792D02*
X023094Y011243D01*
X022869Y011017D01*
X022717Y009337D02*
X022537Y009067D01*
X022717Y009067D02*
X022537Y009337D01*
X022422Y009337D02*
X022242Y009337D01*
X022332Y009337D02*
X022332Y009067D01*
X022128Y009022D02*
X021948Y009022D01*
X021743Y009067D02*
X021743Y009337D01*
X021653Y009337D02*
X021833Y009337D01*
X021538Y009292D02*
X021538Y009247D01*
X021493Y009202D01*
X021358Y009202D01*
X021358Y009067D02*
X021358Y009337D01*
X021493Y009337D01*
X021538Y009292D01*
X021493Y009202D02*
X021538Y009157D01*
X021538Y009112D01*
X021493Y009067D01*
X021358Y009067D01*
X020417Y009067D02*
X020237Y009337D01*
X020122Y009292D02*
X020122Y009202D01*
X020077Y009157D01*
X019942Y009157D01*
X019942Y009067D02*
X019942Y009337D01*
X020077Y009337D01*
X020122Y009292D01*
X020032Y009157D02*
X020122Y009067D01*
X020237Y009067D02*
X020417Y009337D01*
X019828Y009022D02*
X019648Y009022D01*
X019443Y009067D02*
X019443Y009337D01*
X019353Y009337D02*
X019533Y009337D01*
X019238Y009292D02*
X019238Y009247D01*
X019193Y009202D01*
X019058Y009202D01*
X019058Y009067D02*
X019058Y009337D01*
X019193Y009337D01*
X019238Y009292D01*
X019193Y009202D02*
X019238Y009157D01*
X019238Y009112D01*
X019193Y009067D01*
X019058Y009067D01*
X021362Y008107D02*
X021364Y008130D01*
X021370Y008152D01*
X021379Y008173D01*
X021391Y008192D01*
X021407Y008209D01*
X021425Y008223D01*
X021445Y008234D01*
X021467Y008242D01*
X021490Y008246D01*
X021512Y008246D01*
X021535Y008242D01*
X021557Y008234D01*
X021577Y008223D01*
X021595Y008209D01*
X021611Y008192D01*
X021623Y008173D01*
X021632Y008152D01*
X021638Y008130D01*
X021640Y008107D01*
X021638Y008084D01*
X021632Y008062D01*
X021623Y008041D01*
X021611Y008022D01*
X021595Y008005D01*
X021577Y007991D01*
X021557Y007980D01*
X021535Y007972D01*
X021512Y007968D01*
X021490Y007968D01*
X021467Y007972D01*
X021445Y007980D01*
X021425Y007991D01*
X021407Y008005D01*
X021391Y008022D01*
X021379Y008041D01*
X021370Y008062D01*
X021364Y008084D01*
X021362Y008107D01*
X014219Y012117D02*
X014219Y012192D01*
X014519Y012492D01*
X014519Y012568D01*
X014219Y012568D01*
X014059Y012492D02*
X013984Y012568D01*
X013833Y012568D01*
X013758Y012492D01*
X013758Y012417D01*
X013833Y012342D01*
X013984Y012342D01*
X014059Y012267D01*
X014059Y012192D01*
X013984Y012117D01*
X013833Y012117D01*
X013758Y012192D01*
X007833Y012142D02*
X006633Y012142D01*
X006633Y015142D01*
X007833Y015142D01*
X007833Y012142D01*
X006373Y011848D02*
X001794Y011848D01*
X001794Y010136D01*
X006373Y010136D01*
X006373Y011848D01*
X005185Y015337D02*
X005035Y015337D01*
X004960Y015412D01*
X005260Y015712D01*
X005260Y015412D01*
X005185Y015337D01*
X004960Y015412D02*
X004960Y015712D01*
X005035Y015788D01*
X005185Y015788D01*
X005260Y015712D01*
X004649Y015788D02*
X004649Y015337D01*
X004499Y015337D02*
X004799Y015337D01*
X004339Y015562D02*
X004264Y015487D01*
X004039Y015487D01*
X004039Y015337D02*
X004039Y015788D01*
X004264Y015788D01*
X004339Y015712D01*
X004339Y015562D01*
X004499Y015637D02*
X004649Y015788D01*
X003879Y015788D02*
X003728Y015788D01*
X003804Y015788D02*
X003804Y015412D01*
X003728Y015337D01*
X003653Y015337D01*
X003578Y015412D01*
X008598Y015367D02*
X009048Y015367D01*
X009048Y015667D01*
X009048Y015828D02*
X008598Y015828D01*
X008598Y016128D01*
X008598Y016288D02*
X008598Y016513D01*
X008673Y016588D01*
X008973Y016588D01*
X009048Y016513D01*
X009048Y016288D01*
X008598Y016288D01*
X009048Y016128D02*
X009048Y015828D01*
X008823Y015828D02*
X008823Y015978D01*
X008823Y016748D02*
X008748Y016898D01*
X008748Y016973D01*
X008823Y017049D01*
X008973Y017049D01*
X009048Y016973D01*
X009048Y016823D01*
X008973Y016748D01*
X008823Y016748D02*
X008598Y016748D01*
X008598Y017049D01*
X034988Y001193D02*
X035138Y001193D01*
X035063Y001193D02*
X035063Y000817D01*
X034988Y000742D01*
X034913Y000742D01*
X034838Y000817D01*
X035298Y000742D02*
X035598Y000742D01*
X035448Y000742D02*
X035448Y001193D01*
X035298Y001042D01*
D13*
X034833Y004892D02*
X033133Y004892D01*
X032783Y005699D02*
X032783Y006492D01*
X033283Y006092D02*
X033285Y006144D01*
X033291Y006196D01*
X033301Y006248D01*
X033314Y006298D01*
X033331Y006348D01*
X033352Y006396D01*
X033377Y006442D01*
X033405Y006486D01*
X033436Y006528D01*
X033470Y006568D01*
X033507Y006605D01*
X033547Y006639D01*
X033589Y006670D01*
X033633Y006698D01*
X033679Y006723D01*
X033727Y006744D01*
X033777Y006761D01*
X033827Y006774D01*
X033879Y006784D01*
X033931Y006790D01*
X033983Y006792D01*
X034035Y006790D01*
X034087Y006784D01*
X034139Y006774D01*
X034189Y006761D01*
X034239Y006744D01*
X034287Y006723D01*
X034333Y006698D01*
X034377Y006670D01*
X034419Y006639D01*
X034459Y006605D01*
X034496Y006568D01*
X034530Y006528D01*
X034561Y006486D01*
X034589Y006442D01*
X034614Y006396D01*
X034635Y006348D01*
X034652Y006298D01*
X034665Y006248D01*
X034675Y006196D01*
X034681Y006144D01*
X034683Y006092D01*
X034681Y006040D01*
X034675Y005988D01*
X034665Y005936D01*
X034652Y005886D01*
X034635Y005836D01*
X034614Y005788D01*
X034589Y005742D01*
X034561Y005698D01*
X034530Y005656D01*
X034496Y005616D01*
X034459Y005579D01*
X034419Y005545D01*
X034377Y005514D01*
X034333Y005486D01*
X034287Y005461D01*
X034239Y005440D01*
X034189Y005423D01*
X034139Y005410D01*
X034087Y005400D01*
X034035Y005394D01*
X033983Y005392D01*
X033931Y005394D01*
X033879Y005400D01*
X033827Y005410D01*
X033777Y005423D01*
X033727Y005440D01*
X033679Y005461D01*
X033633Y005486D01*
X033589Y005514D01*
X033547Y005545D01*
X033507Y005579D01*
X033470Y005616D01*
X033436Y005656D01*
X033405Y005698D01*
X033377Y005742D01*
X033352Y005788D01*
X033331Y005836D01*
X033314Y005886D01*
X033301Y005936D01*
X033291Y005988D01*
X033285Y006040D01*
X033283Y006092D01*
X035183Y006492D02*
X035183Y005687D01*
X034833Y007292D02*
X033133Y007292D01*
X033133Y008142D02*
X034833Y008142D01*
X035183Y008942D02*
X035183Y009735D01*
X034833Y010542D02*
X033133Y010542D01*
X032983Y011292D02*
X032983Y011592D01*
X032883Y011592D01*
X032983Y011592D02*
X032983Y011892D01*
X034983Y011892D01*
X034983Y011592D01*
X035083Y011592D01*
X034983Y011592D02*
X034983Y011292D01*
X032983Y011292D01*
X033133Y012392D02*
X034833Y012392D01*
X035183Y013187D02*
X035183Y013992D01*
X034833Y014792D02*
X033133Y014792D01*
X032783Y013992D02*
X032783Y013199D01*
X033283Y013592D02*
X033285Y013644D01*
X033291Y013696D01*
X033301Y013748D01*
X033314Y013798D01*
X033331Y013848D01*
X033352Y013896D01*
X033377Y013942D01*
X033405Y013986D01*
X033436Y014028D01*
X033470Y014068D01*
X033507Y014105D01*
X033547Y014139D01*
X033589Y014170D01*
X033633Y014198D01*
X033679Y014223D01*
X033727Y014244D01*
X033777Y014261D01*
X033827Y014274D01*
X033879Y014284D01*
X033931Y014290D01*
X033983Y014292D01*
X034035Y014290D01*
X034087Y014284D01*
X034139Y014274D01*
X034189Y014261D01*
X034239Y014244D01*
X034287Y014223D01*
X034333Y014198D01*
X034377Y014170D01*
X034419Y014139D01*
X034459Y014105D01*
X034496Y014068D01*
X034530Y014028D01*
X034561Y013986D01*
X034589Y013942D01*
X034614Y013896D01*
X034635Y013848D01*
X034652Y013798D01*
X034665Y013748D01*
X034675Y013696D01*
X034681Y013644D01*
X034683Y013592D01*
X034681Y013540D01*
X034675Y013488D01*
X034665Y013436D01*
X034652Y013386D01*
X034635Y013336D01*
X034614Y013288D01*
X034589Y013242D01*
X034561Y013198D01*
X034530Y013156D01*
X034496Y013116D01*
X034459Y013079D01*
X034419Y013045D01*
X034377Y013014D01*
X034333Y012986D01*
X034287Y012961D01*
X034239Y012940D01*
X034189Y012923D01*
X034139Y012910D01*
X034087Y012900D01*
X034035Y012894D01*
X033983Y012892D01*
X033931Y012894D01*
X033879Y012900D01*
X033827Y012910D01*
X033777Y012923D01*
X033727Y012940D01*
X033679Y012961D01*
X033633Y012986D01*
X033589Y013014D01*
X033547Y013045D01*
X033507Y013079D01*
X033470Y013116D01*
X033436Y013156D01*
X033405Y013198D01*
X033377Y013242D01*
X033352Y013288D01*
X033331Y013336D01*
X033314Y013386D01*
X033301Y013436D01*
X033291Y013488D01*
X033285Y013540D01*
X033283Y013592D01*
X032783Y009747D02*
X032783Y008942D01*
X033283Y009342D02*
X033285Y009394D01*
X033291Y009446D01*
X033301Y009498D01*
X033314Y009548D01*
X033331Y009598D01*
X033352Y009646D01*
X033377Y009692D01*
X033405Y009736D01*
X033436Y009778D01*
X033470Y009818D01*
X033507Y009855D01*
X033547Y009889D01*
X033589Y009920D01*
X033633Y009948D01*
X033679Y009973D01*
X033727Y009994D01*
X033777Y010011D01*
X033827Y010024D01*
X033879Y010034D01*
X033931Y010040D01*
X033983Y010042D01*
X034035Y010040D01*
X034087Y010034D01*
X034139Y010024D01*
X034189Y010011D01*
X034239Y009994D01*
X034287Y009973D01*
X034333Y009948D01*
X034377Y009920D01*
X034419Y009889D01*
X034459Y009855D01*
X034496Y009818D01*
X034530Y009778D01*
X034561Y009736D01*
X034589Y009692D01*
X034614Y009646D01*
X034635Y009598D01*
X034652Y009548D01*
X034665Y009498D01*
X034675Y009446D01*
X034681Y009394D01*
X034683Y009342D01*
X034681Y009290D01*
X034675Y009238D01*
X034665Y009186D01*
X034652Y009136D01*
X034635Y009086D01*
X034614Y009038D01*
X034589Y008992D01*
X034561Y008948D01*
X034530Y008906D01*
X034496Y008866D01*
X034459Y008829D01*
X034419Y008795D01*
X034377Y008764D01*
X034333Y008736D01*
X034287Y008711D01*
X034239Y008690D01*
X034189Y008673D01*
X034139Y008660D01*
X034087Y008650D01*
X034035Y008644D01*
X033983Y008642D01*
X033931Y008644D01*
X033879Y008650D01*
X033827Y008660D01*
X033777Y008673D01*
X033727Y008690D01*
X033679Y008711D01*
X033633Y008736D01*
X033589Y008764D01*
X033547Y008795D01*
X033507Y008829D01*
X033470Y008866D01*
X033436Y008906D01*
X033405Y008948D01*
X033377Y008992D01*
X033352Y009038D01*
X033331Y009086D01*
X033314Y009136D01*
X033301Y009186D01*
X033291Y009238D01*
X033285Y009290D01*
X033283Y009342D01*
X022460Y006992D02*
X022463Y007106D01*
X022471Y007220D01*
X022485Y007333D01*
X022505Y007445D01*
X022530Y007556D01*
X022560Y007666D01*
X022596Y007775D01*
X022637Y007881D01*
X022683Y007985D01*
X022734Y008087D01*
X022790Y008186D01*
X022851Y008283D01*
X022917Y008376D01*
X022987Y008466D01*
X023062Y008552D01*
X023140Y008635D01*
X023223Y008713D01*
X023309Y008788D01*
X023399Y008858D01*
X023492Y008924D01*
X023589Y008985D01*
X023688Y009041D01*
X023790Y009092D01*
X023894Y009138D01*
X024000Y009179D01*
X024109Y009215D01*
X024219Y009245D01*
X024330Y009270D01*
X024442Y009290D01*
X024555Y009304D01*
X024669Y009312D01*
X024783Y009315D01*
X024897Y009312D01*
X025011Y009304D01*
X025124Y009290D01*
X025236Y009270D01*
X025347Y009245D01*
X025457Y009215D01*
X025566Y009179D01*
X025672Y009138D01*
X025776Y009092D01*
X025878Y009041D01*
X025977Y008985D01*
X026074Y008924D01*
X026167Y008858D01*
X026257Y008788D01*
X026343Y008713D01*
X026426Y008635D01*
X026504Y008552D01*
X026579Y008466D01*
X026649Y008376D01*
X026715Y008283D01*
X026776Y008186D01*
X026832Y008087D01*
X026883Y007985D01*
X026929Y007881D01*
X026970Y007775D01*
X027006Y007666D01*
X027036Y007556D01*
X027061Y007445D01*
X027081Y007333D01*
X027095Y007220D01*
X027103Y007106D01*
X027106Y006992D01*
X027103Y006878D01*
X027095Y006764D01*
X027081Y006651D01*
X027061Y006539D01*
X027036Y006428D01*
X027006Y006318D01*
X026970Y006209D01*
X026929Y006103D01*
X026883Y005999D01*
X026832Y005897D01*
X026776Y005798D01*
X026715Y005701D01*
X026649Y005608D01*
X026579Y005518D01*
X026504Y005432D01*
X026426Y005349D01*
X026343Y005271D01*
X026257Y005196D01*
X026167Y005126D01*
X026074Y005060D01*
X025977Y004999D01*
X025878Y004943D01*
X025776Y004892D01*
X025672Y004846D01*
X025566Y004805D01*
X025457Y004769D01*
X025347Y004739D01*
X025236Y004714D01*
X025124Y004694D01*
X025011Y004680D01*
X024897Y004672D01*
X024783Y004669D01*
X024669Y004672D01*
X024555Y004680D01*
X024442Y004694D01*
X024330Y004714D01*
X024219Y004739D01*
X024109Y004769D01*
X024000Y004805D01*
X023894Y004846D01*
X023790Y004892D01*
X023688Y004943D01*
X023589Y004999D01*
X023492Y005060D01*
X023399Y005126D01*
X023309Y005196D01*
X023223Y005271D01*
X023140Y005349D01*
X023062Y005432D01*
X022987Y005518D01*
X022917Y005608D01*
X022851Y005701D01*
X022790Y005798D01*
X022734Y005897D01*
X022683Y005999D01*
X022637Y006103D01*
X022596Y006209D01*
X022560Y006318D01*
X022530Y006428D01*
X022505Y006539D01*
X022485Y006651D01*
X022471Y006764D01*
X022463Y006878D01*
X022460Y006992D01*
X017976Y006699D02*
X017976Y006596D01*
X017873Y006492D01*
X017976Y006389D01*
X017976Y006286D01*
X017873Y006182D01*
X017666Y006182D01*
X017562Y006286D01*
X017769Y006492D02*
X017873Y006492D01*
X017976Y006699D02*
X017873Y006803D01*
X017666Y006803D01*
X017562Y006699D01*
X017332Y006803D02*
X016918Y006803D01*
X017125Y006803D02*
X017125Y006182D01*
X016687Y006286D02*
X016687Y006389D01*
X016584Y006492D01*
X016273Y006492D01*
X016273Y006182D02*
X016584Y006182D01*
X016687Y006286D01*
X016584Y006492D02*
X016687Y006596D01*
X016687Y006699D01*
X016584Y006803D01*
X016273Y006803D01*
X016273Y006182D01*
X011983Y006592D02*
X011733Y006592D01*
X011733Y010592D01*
X011983Y010592D01*
X011983Y006592D01*
X011733Y006592D02*
X010233Y006592D01*
X010233Y010592D01*
X011733Y010592D01*
X010083Y011092D02*
X009983Y011092D01*
X009983Y010792D01*
X007983Y010792D01*
X007983Y011092D01*
X007883Y011092D01*
X007983Y011092D02*
X007983Y011392D01*
X009983Y011392D01*
X009983Y011092D01*
X009483Y009192D02*
X009483Y009092D01*
X009783Y009092D01*
X009783Y007092D01*
X009483Y007092D01*
X009483Y006992D01*
X009483Y007092D02*
X009183Y007092D01*
X009183Y009092D01*
X009483Y009092D01*
X008783Y009092D02*
X008483Y009092D01*
X008483Y009192D01*
X008483Y009092D02*
X008183Y009092D01*
X008183Y007092D01*
X008483Y007092D01*
X008483Y006992D01*
X008483Y007092D02*
X008783Y007092D01*
X008783Y009092D01*
X007783Y009092D02*
X007783Y007092D01*
X007483Y007092D01*
X007483Y006992D01*
X007483Y007092D02*
X007183Y007092D01*
X007183Y009092D01*
X007483Y009092D01*
X007483Y009192D01*
X007483Y009092D02*
X007783Y009092D01*
X005977Y009464D02*
X005977Y008637D01*
X005977Y009464D02*
X001764Y009464D01*
X001764Y005920D01*
X003851Y005920D01*
X005701Y005920D02*
X005977Y005920D01*
X005977Y006747D01*
X007083Y004342D02*
X008083Y004342D01*
X008083Y002342D01*
X007083Y002342D01*
X007083Y004342D01*
X007333Y003342D02*
X007833Y003342D01*
X008349Y003342D02*
X008351Y003404D01*
X008357Y003467D01*
X008367Y003528D01*
X008381Y003589D01*
X008398Y003649D01*
X008419Y003708D01*
X008445Y003765D01*
X008473Y003820D01*
X008505Y003874D01*
X008541Y003925D01*
X008579Y003975D01*
X008621Y004021D01*
X008665Y004065D01*
X008713Y004106D01*
X008762Y004144D01*
X008814Y004178D01*
X008868Y004209D01*
X008924Y004237D01*
X008982Y004261D01*
X009041Y004282D01*
X009101Y004298D01*
X009162Y004311D01*
X009224Y004320D01*
X009286Y004325D01*
X009349Y004326D01*
X009411Y004323D01*
X009473Y004316D01*
X009535Y004305D01*
X009595Y004290D01*
X009655Y004272D01*
X009713Y004250D01*
X009770Y004224D01*
X009825Y004194D01*
X009878Y004161D01*
X009929Y004125D01*
X009977Y004086D01*
X010023Y004043D01*
X010066Y003998D01*
X010106Y003950D01*
X010143Y003900D01*
X010177Y003847D01*
X010208Y003793D01*
X010234Y003737D01*
X010258Y003679D01*
X010277Y003619D01*
X010293Y003559D01*
X010305Y003497D01*
X010313Y003436D01*
X010317Y003373D01*
X010317Y003311D01*
X010313Y003248D01*
X010305Y003187D01*
X010293Y003125D01*
X010277Y003065D01*
X010258Y003005D01*
X010234Y002947D01*
X010208Y002891D01*
X010177Y002837D01*
X010143Y002784D01*
X010106Y002734D01*
X010066Y002686D01*
X010023Y002641D01*
X009977Y002598D01*
X009929Y002559D01*
X009878Y002523D01*
X009825Y002490D01*
X009770Y002460D01*
X009713Y002434D01*
X009655Y002412D01*
X009595Y002394D01*
X009535Y002379D01*
X009473Y002368D01*
X009411Y002361D01*
X009349Y002358D01*
X009286Y002359D01*
X009224Y002364D01*
X009162Y002373D01*
X009101Y002386D01*
X009041Y002402D01*
X008982Y002423D01*
X008924Y002447D01*
X008868Y002475D01*
X008814Y002506D01*
X008762Y002540D01*
X008713Y002578D01*
X008665Y002619D01*
X008621Y002663D01*
X008579Y002709D01*
X008541Y002759D01*
X008505Y002810D01*
X008473Y002864D01*
X008445Y002919D01*
X008419Y002976D01*
X008398Y003035D01*
X008381Y003095D01*
X008367Y003156D01*
X008357Y003217D01*
X008351Y003280D01*
X008349Y003342D01*
X009587Y002980D02*
X010087Y002980D01*
X010633Y002842D02*
X010633Y002342D01*
X010883Y002092D01*
X011383Y002092D01*
X011633Y002342D01*
X011633Y002842D01*
X011383Y003092D01*
X010883Y003092D01*
X010633Y002842D01*
X010883Y003192D02*
X011383Y003192D01*
X011633Y003442D01*
X011633Y003942D01*
X011383Y004192D01*
X010883Y004192D01*
X010633Y003942D01*
X010633Y003442D01*
X010883Y003192D01*
X014883Y001842D02*
X014983Y001842D01*
X014983Y002142D01*
X016983Y002142D01*
X016983Y001842D01*
X017083Y001842D01*
X016983Y001842D02*
X016983Y001542D01*
X014983Y001542D01*
X014983Y001842D01*
X005436Y002422D02*
X005436Y002702D01*
X005155Y002702D02*
X005155Y002422D01*
X005296Y002282D01*
X005436Y002422D01*
X004975Y002422D02*
X004975Y002352D01*
X004905Y002282D01*
X004765Y002282D01*
X004695Y002352D01*
X004535Y002352D02*
X004535Y002282D01*
X004465Y002282D01*
X004465Y002352D01*
X004535Y002352D01*
X004285Y002352D02*
X004215Y002282D01*
X004075Y002282D01*
X004005Y002352D01*
X004145Y002492D02*
X004215Y002492D01*
X004285Y002422D01*
X004285Y002352D01*
X004215Y002492D02*
X004285Y002562D01*
X004285Y002632D01*
X004215Y002702D01*
X004075Y002702D01*
X004005Y002632D01*
X003364Y002702D02*
X003364Y002422D01*
X003224Y002282D01*
X003084Y002422D01*
X003084Y002702D01*
X002904Y002702D02*
X002623Y002702D01*
X002623Y002492D01*
X002763Y002562D01*
X002834Y002562D01*
X002904Y002492D01*
X002904Y002352D01*
X002834Y002282D01*
X002693Y002282D01*
X002623Y002352D01*
X004695Y002632D02*
X004765Y002702D01*
X004905Y002702D01*
X004975Y002632D01*
X004975Y002562D01*
X004905Y002492D01*
X004975Y002422D01*
X004905Y002492D02*
X004835Y002492D01*
X013883Y009392D02*
X015583Y009392D01*
X015933Y010192D02*
X015933Y010985D01*
X014033Y010592D02*
X014035Y010644D01*
X014041Y010696D01*
X014051Y010748D01*
X014064Y010798D01*
X014081Y010848D01*
X014102Y010896D01*
X014127Y010942D01*
X014155Y010986D01*
X014186Y011028D01*
X014220Y011068D01*
X014257Y011105D01*
X014297Y011139D01*
X014339Y011170D01*
X014383Y011198D01*
X014429Y011223D01*
X014477Y011244D01*
X014527Y011261D01*
X014577Y011274D01*
X014629Y011284D01*
X014681Y011290D01*
X014733Y011292D01*
X014785Y011290D01*
X014837Y011284D01*
X014889Y011274D01*
X014939Y011261D01*
X014989Y011244D01*
X015037Y011223D01*
X015083Y011198D01*
X015127Y011170D01*
X015169Y011139D01*
X015209Y011105D01*
X015246Y011068D01*
X015280Y011028D01*
X015311Y010986D01*
X015339Y010942D01*
X015364Y010896D01*
X015385Y010848D01*
X015402Y010798D01*
X015415Y010748D01*
X015425Y010696D01*
X015431Y010644D01*
X015433Y010592D01*
X015431Y010540D01*
X015425Y010488D01*
X015415Y010436D01*
X015402Y010386D01*
X015385Y010336D01*
X015364Y010288D01*
X015339Y010242D01*
X015311Y010198D01*
X015280Y010156D01*
X015246Y010116D01*
X015209Y010079D01*
X015169Y010045D01*
X015127Y010014D01*
X015083Y009986D01*
X015037Y009961D01*
X014989Y009940D01*
X014939Y009923D01*
X014889Y009910D01*
X014837Y009900D01*
X014785Y009894D01*
X014733Y009892D01*
X014681Y009894D01*
X014629Y009900D01*
X014577Y009910D01*
X014527Y009923D01*
X014477Y009940D01*
X014429Y009961D01*
X014383Y009986D01*
X014339Y010014D01*
X014297Y010045D01*
X014257Y010079D01*
X014220Y010116D01*
X014186Y010156D01*
X014155Y010198D01*
X014127Y010242D01*
X014102Y010288D01*
X014081Y010336D01*
X014064Y010386D01*
X014051Y010436D01*
X014041Y010488D01*
X014035Y010540D01*
X014033Y010592D01*
X013533Y010192D02*
X013533Y010997D01*
X013883Y011792D02*
X015583Y011792D01*
X015733Y012092D02*
X013733Y012092D01*
X013733Y013092D01*
X015733Y013092D01*
X015733Y012092D01*
X014733Y012342D02*
X014733Y012842D01*
X014783Y013542D02*
X014783Y013842D01*
X014483Y013842D01*
X014783Y013842D02*
X014783Y014142D01*
X016183Y014142D01*
X016183Y013842D01*
X016483Y013842D01*
X016183Y013842D02*
X016183Y013542D01*
X014783Y013542D01*
X014983Y013592D02*
X014983Y014092D01*
X014483Y014542D02*
X014483Y014842D01*
X014383Y014842D01*
X014483Y014842D02*
X014483Y015142D01*
X016483Y015142D01*
X016483Y014842D01*
X016583Y014842D01*
X016483Y014842D02*
X016483Y014542D01*
X014483Y014542D01*
X012483Y014342D02*
X012483Y014842D01*
X010703Y014092D02*
X010705Y014163D01*
X010711Y014234D01*
X010721Y014305D01*
X010735Y014374D01*
X010752Y014443D01*
X010774Y014511D01*
X010799Y014578D01*
X010828Y014643D01*
X010860Y014706D01*
X010896Y014768D01*
X010935Y014827D01*
X010978Y014884D01*
X011023Y014939D01*
X011072Y014991D01*
X011123Y015040D01*
X011177Y015086D01*
X011234Y015130D01*
X011292Y015170D01*
X011353Y015206D01*
X011416Y015240D01*
X011481Y015269D01*
X011547Y015295D01*
X011615Y015318D01*
X011683Y015336D01*
X011753Y015351D01*
X011823Y015362D01*
X011894Y015369D01*
X011965Y015372D01*
X012036Y015371D01*
X012107Y015366D01*
X012178Y015357D01*
X012248Y015344D01*
X012317Y015328D01*
X012385Y015307D01*
X012452Y015283D01*
X012518Y015255D01*
X012581Y015223D01*
X012643Y015188D01*
X012703Y015150D01*
X012761Y015108D01*
X012816Y015064D01*
X012869Y015016D01*
X012919Y014965D01*
X012966Y014912D01*
X013010Y014856D01*
X013051Y014798D01*
X013089Y014737D01*
X013123Y014675D01*
X013153Y014610D01*
X013180Y014545D01*
X013204Y014477D01*
X013223Y014409D01*
X013239Y014340D01*
X013251Y014269D01*
X013259Y014199D01*
X013263Y014128D01*
X013263Y014056D01*
X013259Y013985D01*
X013251Y013915D01*
X013239Y013844D01*
X013223Y013775D01*
X013204Y013707D01*
X013180Y013639D01*
X013153Y013574D01*
X013123Y013509D01*
X013089Y013447D01*
X013051Y013386D01*
X013010Y013328D01*
X012966Y013272D01*
X012919Y013219D01*
X012869Y013168D01*
X012816Y013120D01*
X012761Y013076D01*
X012703Y013034D01*
X012643Y012996D01*
X012581Y012961D01*
X012518Y012929D01*
X012452Y012901D01*
X012385Y012877D01*
X012317Y012856D01*
X012248Y012840D01*
X012178Y012827D01*
X012107Y012818D01*
X012036Y012813D01*
X011965Y012812D01*
X011894Y012815D01*
X011823Y012822D01*
X011753Y012833D01*
X011683Y012848D01*
X011615Y012866D01*
X011547Y012889D01*
X011481Y012915D01*
X011416Y012944D01*
X011353Y012978D01*
X011292Y013014D01*
X011234Y013054D01*
X011177Y013098D01*
X011123Y013144D01*
X011072Y013193D01*
X011023Y013245D01*
X010978Y013300D01*
X010935Y013357D01*
X010896Y013416D01*
X010860Y013478D01*
X010828Y013541D01*
X010799Y013606D01*
X010774Y013673D01*
X010752Y013741D01*
X010735Y013810D01*
X010721Y013879D01*
X010711Y013950D01*
X010705Y014021D01*
X010703Y014092D01*
X010033Y015092D02*
X008533Y015092D01*
X005583Y014842D02*
X005583Y014342D01*
X005333Y014092D01*
X004833Y014092D01*
X004583Y014342D01*
X004333Y014092D01*
X003833Y014092D01*
X003583Y014342D01*
X003583Y014842D01*
X003833Y015092D01*
X004333Y015092D01*
X004583Y014842D01*
X004833Y015092D01*
X005333Y015092D01*
X005583Y014842D01*
X017483Y011642D02*
X017583Y011642D01*
X017583Y011942D01*
X019583Y011942D01*
X019583Y011642D01*
X019683Y011642D01*
X019583Y011642D02*
X019583Y011342D01*
X017583Y011342D01*
X017583Y011642D01*
X017583Y011042D02*
X019583Y011042D01*
X019583Y010742D01*
X019683Y010742D01*
X019583Y010742D02*
X019583Y010442D01*
X017583Y010442D01*
X017583Y010742D01*
X017483Y010742D01*
X017583Y010742D02*
X017583Y011042D01*
X017583Y010142D02*
X019583Y010142D01*
X019583Y009842D01*
X019683Y009842D01*
X019583Y009842D02*
X019583Y009542D01*
X017583Y009542D01*
X017583Y009842D01*
X017483Y009842D01*
X017583Y009842D02*
X017583Y010142D01*
D14*
X029338Y010256D02*
X029338Y010453D01*
X029436Y010552D01*
X029535Y010552D01*
X029633Y010453D01*
X029633Y010256D01*
X029535Y010158D01*
X029436Y010158D01*
X029338Y010256D01*
X029633Y010256D02*
X029731Y010158D01*
X029830Y010158D01*
X029928Y010256D01*
X029928Y010453D01*
X029830Y010552D01*
X029731Y010552D01*
X029633Y010453D01*
X029731Y010803D02*
X029731Y011098D01*
X029633Y011196D01*
X029436Y011196D01*
X029338Y011098D01*
X029338Y010803D01*
X029928Y010803D01*
X029928Y009907D02*
X029928Y009513D01*
X029535Y009907D01*
X029436Y009907D01*
X029338Y009809D01*
X029338Y009612D01*
X029436Y009513D01*
X029436Y009263D02*
X029535Y009263D01*
X029633Y009164D01*
X029731Y009263D01*
X029830Y009263D01*
X029928Y009164D01*
X029928Y008967D01*
X029830Y008869D01*
X029633Y009066D02*
X029633Y009164D01*
X029436Y009263D02*
X029338Y009164D01*
X029338Y008967D01*
X029436Y008869D01*
X029535Y008618D02*
X029928Y008618D01*
X029633Y008618D02*
X029633Y008224D01*
X029535Y008224D02*
X029338Y008421D01*
X029535Y008618D01*
X029535Y008224D02*
X029928Y008224D01*
X029830Y007973D02*
X029633Y007973D01*
X029633Y007777D01*
X029436Y007973D02*
X029338Y007875D01*
X029338Y007678D01*
X029436Y007580D01*
X029830Y007580D01*
X029928Y007678D01*
X029928Y007875D01*
X029830Y007973D01*
X029928Y007329D02*
X029928Y006935D01*
X029338Y006935D01*
X029338Y007329D01*
X029633Y007132D02*
X029633Y006935D01*
X029338Y006684D02*
X029928Y006684D01*
X029535Y006488D02*
X029338Y006684D01*
X029535Y006488D02*
X029338Y006291D01*
X029928Y006291D01*
X029928Y005843D02*
X029338Y005843D01*
X029338Y005646D02*
X029338Y006040D01*
X029535Y005395D02*
X029928Y005395D01*
X029633Y005395D02*
X029633Y005002D01*
X029535Y005002D02*
X029338Y005198D01*
X029535Y005395D01*
X029535Y005002D02*
X029928Y005002D01*
X011939Y000697D02*
X011545Y000697D01*
X011742Y000697D02*
X011742Y001288D01*
X011545Y001091D01*
X010972Y001189D02*
X010874Y001288D01*
X010677Y001288D01*
X010578Y001189D01*
X010578Y000796D01*
X010972Y001189D01*
X010972Y000796D01*
X010874Y000697D01*
X010677Y000697D01*
X010578Y000796D01*
X010327Y001091D02*
X010131Y000697D01*
X009934Y001091D01*
X009047Y001091D02*
X008752Y000894D01*
X009047Y000697D01*
X008752Y000697D02*
X008752Y001288D01*
X008501Y001091D02*
X008206Y001091D01*
X008108Y000992D01*
X008108Y000796D01*
X008206Y000697D01*
X008501Y000697D01*
X007857Y000796D02*
X007857Y000992D01*
X007758Y001091D01*
X007561Y001091D01*
X007463Y000992D01*
X007463Y000796D01*
X007561Y000697D01*
X007758Y000697D01*
X007857Y000796D01*
X007230Y000697D02*
X007033Y000697D01*
X007132Y000697D02*
X007132Y001288D01*
X007033Y001288D01*
X006782Y001091D02*
X006487Y001091D01*
X006389Y000992D01*
X006389Y000796D01*
X006487Y000697D01*
X006782Y000697D01*
X006156Y000697D02*
X006058Y000796D01*
X006058Y001189D01*
X006156Y001091D02*
X005959Y001091D01*
X005717Y001091D02*
X005619Y001091D01*
X005422Y000894D01*
X005422Y000697D02*
X005422Y001091D01*
X005171Y000992D02*
X005171Y000697D01*
X004876Y000697D01*
X004777Y000796D01*
X004876Y000894D01*
X005171Y000894D01*
X005171Y000992D02*
X005073Y001091D01*
X004876Y001091D01*
X004527Y000992D02*
X004527Y000697D01*
X004330Y000697D02*
X004330Y000992D01*
X004428Y001091D01*
X004527Y000992D01*
X004330Y000992D02*
X004231Y001091D01*
X004133Y001091D01*
X004133Y000697D01*
X003882Y000796D02*
X003784Y000894D01*
X003587Y000894D01*
X003488Y000992D01*
X003587Y001091D01*
X003882Y001091D01*
X003882Y000796D02*
X003784Y000697D01*
X003488Y000697D01*
X011223Y000697D02*
X011321Y000697D01*
X011321Y000796D01*
X011223Y000796D01*
X011223Y000697D01*
D15*
X032043Y001689D02*
X032120Y001612D01*
X032273Y001612D01*
X032350Y001689D01*
X032350Y001766D01*
X032273Y001842D01*
X032043Y001842D01*
X032043Y001689D01*
X032043Y001842D02*
X032196Y001996D01*
X032350Y002073D01*
X032273Y002612D02*
X032120Y002612D01*
X032043Y002689D01*
X032043Y002842D02*
X032196Y002919D01*
X032273Y002919D01*
X032350Y002842D01*
X032350Y002689D01*
X032273Y002612D01*
X032043Y002842D02*
X032043Y003073D01*
X032350Y003073D01*
X035793Y002919D02*
X035946Y003073D01*
X035946Y002612D01*
X035793Y002612D02*
X036100Y002612D01*
X036023Y002073D02*
X035870Y002073D01*
X035793Y001996D01*
X036023Y002073D02*
X036100Y001996D01*
X036100Y001919D01*
X035793Y001612D01*
X036100Y001612D01*
D16*
X035233Y003592D02*
X034983Y003842D01*
X035483Y003842D01*
X035233Y003592D01*
X035214Y003611D02*
X035252Y003611D01*
X035276Y003635D02*
X035191Y003635D01*
X035167Y003658D02*
X035299Y003658D01*
X035323Y003682D02*
X035144Y003682D01*
X035120Y003705D02*
X035346Y003705D01*
X035370Y003729D02*
X035097Y003729D01*
X035073Y003752D02*
X035393Y003752D01*
X035417Y003775D02*
X035050Y003775D01*
X035027Y003799D02*
X035440Y003799D01*
X035464Y003822D02*
X035003Y003822D01*
D17*
X019541Y009212D02*
X019516Y009187D01*
X019466Y009187D01*
X019441Y009212D01*
X019394Y009187D02*
X019344Y009237D01*
X019369Y009237D02*
X019294Y009237D01*
X019294Y009187D02*
X019294Y009337D01*
X019369Y009337D01*
X019394Y009312D01*
X019394Y009262D01*
X019369Y009237D01*
X019441Y009312D02*
X019466Y009337D01*
X019516Y009337D01*
X019541Y009312D01*
X019541Y009287D01*
X019516Y009262D01*
X019541Y009237D01*
X019541Y009212D01*
X019516Y009262D02*
X019491Y009262D01*
X019466Y010087D02*
X019516Y010087D01*
X019541Y010112D01*
X019541Y010137D01*
X019516Y010162D01*
X019441Y010162D01*
X019441Y010112D01*
X019466Y010087D01*
X019394Y010087D02*
X019344Y010137D01*
X019369Y010137D02*
X019294Y010137D01*
X019294Y010087D02*
X019294Y010237D01*
X019369Y010237D01*
X019394Y010212D01*
X019394Y010162D01*
X019369Y010137D01*
X019441Y010162D02*
X019491Y010212D01*
X019541Y010237D01*
X019516Y010987D02*
X019466Y010987D01*
X019441Y011012D01*
X019441Y011062D02*
X019491Y011087D01*
X019516Y011087D01*
X019541Y011062D01*
X019541Y011012D01*
X019516Y010987D01*
X019441Y011062D02*
X019441Y011137D01*
X019541Y011137D01*
X019394Y011112D02*
X019369Y011137D01*
X019294Y011137D01*
X019294Y010987D01*
X019294Y011037D02*
X019369Y011037D01*
X019394Y011062D01*
X019394Y011112D01*
X019344Y011037D02*
X019394Y010987D01*
X016905Y013647D02*
X016905Y013797D01*
X016905Y013722D02*
X016804Y013722D01*
X016804Y013647D02*
X016804Y013797D01*
X016757Y013797D02*
X016657Y013797D01*
X016707Y013797D02*
X016707Y013647D01*
X016610Y013722D02*
X016585Y013697D01*
X016510Y013697D01*
X016510Y013647D02*
X016510Y013797D01*
X016585Y013797D01*
X016610Y013772D01*
X016610Y013722D01*
X016463Y013722D02*
X016463Y013772D01*
X016438Y013797D01*
X016362Y013797D01*
X016362Y013647D01*
X016315Y013647D02*
X016215Y013647D01*
X016215Y013797D01*
X016315Y013797D01*
X016265Y013722D02*
X016215Y013722D01*
X016168Y013647D02*
X016168Y013797D01*
X016068Y013797D02*
X016168Y013647D01*
X016068Y013647D02*
X016068Y013797D01*
X016021Y013797D02*
X015921Y013797D01*
X015921Y013647D01*
X016021Y013647D01*
X015971Y013722D02*
X015921Y013722D01*
X015873Y013772D02*
X015773Y013672D01*
X015773Y013647D01*
X015873Y013647D01*
X015873Y013772D02*
X015873Y013797D01*
X015773Y013797D01*
X015726Y013722D02*
X015626Y013722D01*
X015579Y013647D02*
X015479Y013647D01*
X015479Y013797D01*
X015579Y013797D01*
X015529Y013722D02*
X015479Y013722D01*
X015431Y013672D02*
X015431Y013772D01*
X015406Y013797D01*
X015331Y013797D01*
X015331Y013647D01*
X015406Y013647D01*
X015431Y013672D01*
X015284Y013672D02*
X015284Y013772D01*
X015259Y013797D01*
X015209Y013797D01*
X015184Y013772D01*
X015184Y013672D01*
X015209Y013647D01*
X015259Y013647D01*
X015284Y013672D01*
X015136Y013647D02*
X015086Y013647D01*
X015111Y013647D02*
X015111Y013797D01*
X015086Y013797D02*
X015136Y013797D01*
X015038Y013772D02*
X015038Y013672D01*
X015013Y013647D01*
X014938Y013647D01*
X014938Y013797D01*
X015013Y013797D01*
X015038Y013772D01*
X014883Y014347D02*
X014783Y014347D01*
X014833Y014347D02*
X014833Y014497D01*
X014783Y014447D01*
X014736Y014472D02*
X014711Y014497D01*
X014661Y014497D01*
X014636Y014472D01*
X014636Y014447D01*
X014661Y014422D01*
X014711Y014422D01*
X014736Y014397D01*
X014736Y014372D01*
X014711Y014347D01*
X014661Y014347D01*
X014636Y014372D01*
X014588Y014372D02*
X014588Y014497D01*
X014488Y014497D02*
X014488Y014372D01*
X014513Y014347D01*
X014563Y014347D01*
X014588Y014372D01*
X014686Y014322D02*
X014686Y014522D01*
X014636Y015347D02*
X014636Y015372D01*
X014736Y015472D01*
X014736Y015497D01*
X014636Y015497D01*
X014588Y015472D02*
X014588Y015422D01*
X014563Y015397D01*
X014488Y015397D01*
X014488Y015347D02*
X014488Y015497D01*
X014563Y015497D01*
X014588Y015472D01*
X014538Y015397D02*
X014588Y015347D01*
X012788Y014325D02*
X012763Y014350D01*
X012738Y014350D01*
X012713Y014325D01*
X012713Y014250D01*
X012763Y014250D01*
X012788Y014275D01*
X012788Y014325D01*
X012713Y014250D02*
X012663Y014300D01*
X012638Y014350D01*
X012663Y014203D02*
X012638Y014178D01*
X012638Y014127D01*
X012663Y014102D01*
X012763Y014102D01*
X012788Y014127D01*
X012788Y014178D01*
X012763Y014203D01*
X008503Y015124D02*
X008557Y015052D01*
X008556Y015053D02*
X008503Y015010D01*
X008452Y014965D01*
X008404Y014916D01*
X008359Y014865D01*
X008316Y014811D01*
X008277Y014755D01*
X008241Y014697D01*
X008208Y014637D01*
X008179Y014576D01*
X008154Y014512D01*
X008132Y014448D01*
X008113Y014382D01*
X008099Y014315D01*
X008088Y014248D01*
X008081Y014180D01*
X008078Y014112D01*
X008079Y014043D01*
X008084Y013975D01*
X008092Y013907D01*
X008105Y013840D01*
X008121Y013774D01*
X008141Y013709D01*
X008164Y013644D01*
X008191Y013582D01*
X008222Y013521D01*
X008256Y013462D01*
X008293Y013404D01*
X008334Y013349D01*
X008378Y013297D01*
X008424Y013247D01*
X008473Y013200D01*
X008525Y013155D01*
X008579Y013114D01*
X008636Y013075D01*
X008695Y013040D01*
X008755Y013009D01*
X008817Y012981D01*
X008881Y012956D01*
X008946Y012935D01*
X009012Y012918D01*
X009079Y012904D01*
X009147Y012895D01*
X009215Y012889D01*
X009283Y012887D01*
X009351Y012889D01*
X009419Y012895D01*
X009487Y012904D01*
X009554Y012918D01*
X009620Y012935D01*
X009685Y012956D01*
X009749Y012981D01*
X009811Y013009D01*
X009871Y013040D01*
X009930Y013075D01*
X009987Y013114D01*
X010041Y013155D01*
X010093Y013200D01*
X010142Y013247D01*
X010188Y013297D01*
X010232Y013349D01*
X010273Y013404D01*
X010310Y013462D01*
X010344Y013521D01*
X010375Y013582D01*
X010402Y013644D01*
X010425Y013709D01*
X010445Y013774D01*
X010461Y013840D01*
X010474Y013907D01*
X010482Y013975D01*
X010487Y014043D01*
X010488Y014112D01*
X010485Y014180D01*
X010478Y014248D01*
X010467Y014315D01*
X010453Y014382D01*
X010434Y014448D01*
X010412Y014512D01*
X010387Y014576D01*
X010358Y014637D01*
X010325Y014697D01*
X010289Y014755D01*
X010250Y014811D01*
X010207Y014865D01*
X010162Y014916D01*
X010114Y014965D01*
X010063Y015010D01*
X010010Y015053D01*
X010063Y015124D01*
X010064Y015125D01*
X010119Y015081D01*
X010172Y015033D01*
X010223Y014983D01*
X010270Y014930D01*
X010314Y014875D01*
X010356Y014817D01*
X010394Y014757D01*
X010429Y014696D01*
X010460Y014632D01*
X010488Y014567D01*
X010512Y014500D01*
X010533Y014432D01*
X010549Y014363D01*
X010562Y014293D01*
X010571Y014223D01*
X010577Y014152D01*
X010578Y014081D01*
X010575Y014010D01*
X010569Y013939D01*
X010559Y013869D01*
X010545Y013800D01*
X010527Y013731D01*
X010505Y013663D01*
X010480Y013597D01*
X010451Y013532D01*
X010418Y013469D01*
X010382Y013408D01*
X010343Y013349D01*
X010301Y013292D01*
X010256Y013237D01*
X010207Y013185D01*
X010156Y013136D01*
X010103Y013089D01*
X010046Y013046D01*
X009988Y013006D01*
X009927Y012969D01*
X009865Y012935D01*
X009801Y012905D01*
X009735Y012878D01*
X009668Y012855D01*
X009599Y012836D01*
X009530Y012821D01*
X009460Y012809D01*
X009389Y012801D01*
X009318Y012797D01*
X009248Y012797D01*
X009177Y012801D01*
X009106Y012809D01*
X009036Y012821D01*
X008967Y012836D01*
X008898Y012855D01*
X008831Y012878D01*
X008765Y012905D01*
X008701Y012935D01*
X008639Y012969D01*
X008578Y013006D01*
X008520Y013046D01*
X008463Y013089D01*
X008410Y013136D01*
X008359Y013185D01*
X008310Y013237D01*
X008265Y013292D01*
X008223Y013349D01*
X008184Y013408D01*
X008148Y013469D01*
X008115Y013532D01*
X008086Y013597D01*
X008061Y013663D01*
X008039Y013731D01*
X008021Y013800D01*
X008007Y013869D01*
X007997Y013939D01*
X007991Y014010D01*
X007988Y014081D01*
X007989Y014152D01*
X007995Y014223D01*
X008004Y014293D01*
X008017Y014363D01*
X008033Y014432D01*
X008054Y014500D01*
X008078Y014567D01*
X008106Y014632D01*
X008137Y014696D01*
X008172Y014757D01*
X008210Y014817D01*
X008252Y014875D01*
X008296Y014930D01*
X008343Y014983D01*
X008394Y015033D01*
X008447Y015081D01*
X008502Y015125D01*
X008507Y015118D01*
X008452Y015073D01*
X008399Y015026D01*
X008348Y014975D01*
X008301Y014922D01*
X008256Y014866D01*
X008215Y014808D01*
X008177Y014748D01*
X008142Y014686D01*
X008111Y014622D01*
X008084Y014556D01*
X008060Y014489D01*
X008040Y014420D01*
X008023Y014351D01*
X008011Y014281D01*
X008002Y014210D01*
X007998Y014139D01*
X007997Y014068D01*
X008001Y013997D01*
X008008Y013926D01*
X008019Y013855D01*
X008034Y013786D01*
X008053Y013717D01*
X008076Y013649D01*
X008102Y013583D01*
X008132Y013518D01*
X008166Y013456D01*
X008202Y013395D01*
X008243Y013336D01*
X008286Y013279D01*
X008333Y013225D01*
X008382Y013174D01*
X008435Y013126D01*
X008489Y013080D01*
X008547Y013038D01*
X008606Y012999D01*
X008668Y012963D01*
X008731Y012930D01*
X008796Y012902D01*
X008863Y012876D01*
X008931Y012855D01*
X009000Y012837D01*
X009070Y012824D01*
X009141Y012814D01*
X009212Y012808D01*
X009283Y012806D01*
X009354Y012808D01*
X009425Y012814D01*
X009496Y012824D01*
X009566Y012837D01*
X009635Y012855D01*
X009703Y012876D01*
X009770Y012902D01*
X009835Y012930D01*
X009898Y012963D01*
X009960Y012999D01*
X010019Y013038D01*
X010077Y013080D01*
X010131Y013126D01*
X010184Y013174D01*
X010233Y013225D01*
X010280Y013279D01*
X010323Y013336D01*
X010364Y013395D01*
X010400Y013456D01*
X010434Y013518D01*
X010464Y013583D01*
X010490Y013649D01*
X010513Y013717D01*
X010532Y013786D01*
X010547Y013855D01*
X010558Y013926D01*
X010565Y013997D01*
X010569Y014068D01*
X010568Y014139D01*
X010564Y014210D01*
X010555Y014281D01*
X010543Y014351D01*
X010526Y014420D01*
X010506Y014489D01*
X010482Y014556D01*
X010455Y014622D01*
X010424Y014686D01*
X010389Y014748D01*
X010351Y014808D01*
X010310Y014866D01*
X010265Y014922D01*
X010218Y014975D01*
X010167Y015026D01*
X010114Y015073D01*
X010059Y015118D01*
X010053Y015111D01*
X010108Y015066D01*
X010161Y015019D01*
X010211Y014969D01*
X010258Y014916D01*
X010302Y014861D01*
X010344Y014803D01*
X010381Y014744D01*
X010416Y014682D01*
X010447Y014618D01*
X010474Y014553D01*
X010498Y014486D01*
X010518Y014418D01*
X010534Y014349D01*
X010546Y014280D01*
X010555Y014209D01*
X010559Y014139D01*
X010560Y014068D01*
X010556Y013997D01*
X010549Y013927D01*
X010538Y013857D01*
X010523Y013788D01*
X010504Y013720D01*
X010482Y013652D01*
X010456Y013587D01*
X010426Y013522D01*
X010393Y013460D01*
X010356Y013400D01*
X010316Y013341D01*
X010273Y013285D01*
X010227Y013231D01*
X010177Y013181D01*
X010126Y013132D01*
X010071Y013087D01*
X010014Y013045D01*
X009955Y013006D01*
X009894Y012971D01*
X009831Y012938D01*
X009766Y012910D01*
X009700Y012885D01*
X009632Y012864D01*
X009564Y012846D01*
X009494Y012833D01*
X009424Y012823D01*
X009354Y012817D01*
X009283Y012815D01*
X009212Y012817D01*
X009142Y012823D01*
X009072Y012833D01*
X009002Y012846D01*
X008934Y012864D01*
X008866Y012885D01*
X008800Y012910D01*
X008735Y012938D01*
X008672Y012971D01*
X008611Y013006D01*
X008552Y013045D01*
X008495Y013087D01*
X008440Y013132D01*
X008389Y013181D01*
X008339Y013231D01*
X008293Y013285D01*
X008250Y013341D01*
X008210Y013400D01*
X008173Y013460D01*
X008140Y013522D01*
X008110Y013587D01*
X008084Y013652D01*
X008062Y013720D01*
X008043Y013788D01*
X008028Y013857D01*
X008017Y013927D01*
X008010Y013997D01*
X008006Y014068D01*
X008007Y014139D01*
X008011Y014209D01*
X008020Y014280D01*
X008032Y014349D01*
X008048Y014418D01*
X008068Y014486D01*
X008092Y014553D01*
X008119Y014618D01*
X008150Y014682D01*
X008185Y014744D01*
X008222Y014803D01*
X008264Y014861D01*
X008308Y014916D01*
X008355Y014969D01*
X008405Y015019D01*
X008458Y015066D01*
X008513Y015111D01*
X008518Y015103D01*
X008463Y015059D01*
X008410Y015011D01*
X008360Y014961D01*
X008312Y014908D01*
X008268Y014852D01*
X008227Y014794D01*
X008190Y014734D01*
X008155Y014672D01*
X008125Y014608D01*
X008098Y014542D01*
X008074Y014475D01*
X008055Y014407D01*
X008039Y014337D01*
X008027Y014267D01*
X008019Y014197D01*
X008015Y014126D01*
X008016Y014055D01*
X008020Y013984D01*
X008028Y013913D01*
X008040Y013843D01*
X008056Y013774D01*
X008075Y013706D01*
X008099Y013638D01*
X008126Y013573D01*
X008157Y013509D01*
X008191Y013447D01*
X008229Y013387D01*
X008271Y013329D01*
X008315Y013273D01*
X008362Y013220D01*
X008413Y013170D01*
X008466Y013123D01*
X008521Y013078D01*
X008579Y013037D01*
X008639Y013000D01*
X008702Y012965D01*
X008766Y012934D01*
X008831Y012907D01*
X008898Y012884D01*
X008967Y012864D01*
X009036Y012848D01*
X009106Y012836D01*
X009177Y012828D01*
X009247Y012824D01*
X009319Y012824D01*
X009389Y012828D01*
X009460Y012836D01*
X009530Y012848D01*
X009599Y012864D01*
X009668Y012884D01*
X009735Y012907D01*
X009800Y012934D01*
X009864Y012965D01*
X009927Y013000D01*
X009987Y013037D01*
X010045Y013078D01*
X010100Y013123D01*
X010153Y013170D01*
X010204Y013220D01*
X010251Y013273D01*
X010295Y013329D01*
X010337Y013387D01*
X010375Y013447D01*
X010409Y013509D01*
X010440Y013573D01*
X010467Y013638D01*
X010491Y013706D01*
X010510Y013774D01*
X010526Y013843D01*
X010538Y013913D01*
X010546Y013984D01*
X010550Y014055D01*
X010551Y014126D01*
X010547Y014197D01*
X010539Y014267D01*
X010527Y014337D01*
X010511Y014407D01*
X010492Y014475D01*
X010468Y014542D01*
X010441Y014608D01*
X010411Y014672D01*
X010376Y014734D01*
X010339Y014794D01*
X010298Y014852D01*
X010254Y014908D01*
X010206Y014961D01*
X010156Y015011D01*
X010103Y015059D01*
X010048Y015103D01*
X010042Y015096D01*
X010097Y015052D01*
X010150Y015005D01*
X010200Y014955D01*
X010247Y014902D01*
X010291Y014847D01*
X010331Y014789D01*
X010369Y014730D01*
X010403Y014668D01*
X010433Y014604D01*
X010460Y014539D01*
X010483Y014472D01*
X010503Y014404D01*
X010518Y014336D01*
X010530Y014266D01*
X010538Y014196D01*
X010542Y014125D01*
X010541Y014055D01*
X010537Y013984D01*
X010529Y013914D01*
X010517Y013845D01*
X010502Y013776D01*
X010482Y013708D01*
X010459Y013642D01*
X010432Y013577D01*
X010401Y013513D01*
X010367Y013451D01*
X010329Y013392D01*
X010288Y013334D01*
X010244Y013279D01*
X010197Y013226D01*
X010147Y013177D01*
X010095Y013130D01*
X010039Y013086D01*
X009982Y013045D01*
X009922Y013007D01*
X009860Y012973D01*
X009797Y012943D01*
X009732Y012916D01*
X009665Y012892D01*
X009597Y012873D01*
X009528Y012857D01*
X009459Y012845D01*
X009389Y012837D01*
X009318Y012833D01*
X009248Y012833D01*
X009177Y012837D01*
X009107Y012845D01*
X009038Y012857D01*
X008969Y012873D01*
X008901Y012892D01*
X008834Y012916D01*
X008769Y012943D01*
X008706Y012973D01*
X008644Y013007D01*
X008584Y013045D01*
X008527Y013086D01*
X008471Y013130D01*
X008419Y013177D01*
X008369Y013226D01*
X008322Y013279D01*
X008278Y013334D01*
X008237Y013392D01*
X008199Y013451D01*
X008165Y013513D01*
X008134Y013577D01*
X008107Y013642D01*
X008084Y013708D01*
X008064Y013776D01*
X008049Y013845D01*
X008037Y013914D01*
X008029Y013984D01*
X008025Y014055D01*
X008024Y014125D01*
X008028Y014196D01*
X008036Y014266D01*
X008048Y014336D01*
X008063Y014404D01*
X008083Y014472D01*
X008106Y014539D01*
X008133Y014604D01*
X008163Y014668D01*
X008197Y014730D01*
X008235Y014789D01*
X008275Y014847D01*
X008319Y014902D01*
X008366Y014955D01*
X008416Y015005D01*
X008469Y015052D01*
X008524Y015096D01*
X008529Y015089D01*
X008474Y015045D01*
X008422Y014998D01*
X008373Y014949D01*
X008326Y014896D01*
X008283Y014842D01*
X008242Y014784D01*
X008205Y014725D01*
X008171Y014664D01*
X008141Y014600D01*
X008114Y014536D01*
X008091Y014469D01*
X008072Y014402D01*
X008057Y014334D01*
X008045Y014265D01*
X008037Y014195D01*
X008033Y014125D01*
X008034Y014055D01*
X008038Y013985D01*
X008046Y013916D01*
X008057Y013847D01*
X008073Y013778D01*
X008092Y013711D01*
X008116Y013645D01*
X008143Y013580D01*
X008173Y013517D01*
X008207Y013456D01*
X008244Y013397D01*
X008285Y013339D01*
X008329Y013285D01*
X008375Y013233D01*
X008425Y013183D01*
X008477Y013136D01*
X008532Y013093D01*
X008589Y013052D01*
X008648Y013015D01*
X008710Y012981D01*
X008773Y012951D01*
X008838Y012924D01*
X008904Y012901D01*
X008971Y012882D01*
X009039Y012866D01*
X009108Y012854D01*
X009178Y012846D01*
X009248Y012842D01*
X009318Y012842D01*
X009388Y012846D01*
X009458Y012854D01*
X009527Y012866D01*
X009595Y012882D01*
X009662Y012901D01*
X009728Y012924D01*
X009793Y012951D01*
X009856Y012981D01*
X009918Y013015D01*
X009977Y013052D01*
X010034Y013093D01*
X010089Y013136D01*
X010141Y013183D01*
X010191Y013233D01*
X010237Y013285D01*
X010281Y013339D01*
X010322Y013397D01*
X010359Y013456D01*
X010393Y013517D01*
X010423Y013580D01*
X010450Y013645D01*
X010474Y013711D01*
X010493Y013778D01*
X010509Y013847D01*
X010520Y013916D01*
X010528Y013985D01*
X010532Y014055D01*
X010533Y014125D01*
X010529Y014195D01*
X010521Y014265D01*
X010509Y014334D01*
X010494Y014402D01*
X010475Y014469D01*
X010452Y014536D01*
X010425Y014600D01*
X010395Y014664D01*
X010361Y014725D01*
X010324Y014784D01*
X010283Y014842D01*
X010240Y014896D01*
X010193Y014949D01*
X010144Y014998D01*
X010092Y015045D01*
X010037Y015089D01*
X010032Y015082D01*
X010086Y015038D01*
X010138Y014992D01*
X010187Y014943D01*
X010233Y014891D01*
X010276Y014836D01*
X010316Y014779D01*
X010353Y014720D01*
X010387Y014659D01*
X010417Y014597D01*
X010443Y014532D01*
X010466Y014467D01*
X010485Y014400D01*
X010501Y014332D01*
X010512Y014263D01*
X010520Y014194D01*
X010524Y014125D01*
X010523Y014055D01*
X010519Y013986D01*
X010512Y013917D01*
X010500Y013848D01*
X010484Y013781D01*
X010465Y013714D01*
X010442Y013648D01*
X010415Y013584D01*
X010385Y013521D01*
X010351Y013460D01*
X010314Y013402D01*
X010274Y013345D01*
X010231Y013291D01*
X010184Y013239D01*
X010135Y013190D01*
X010083Y013143D01*
X010029Y013100D01*
X009972Y013060D01*
X009913Y013023D01*
X009852Y012989D01*
X009789Y012959D01*
X009725Y012932D01*
X009660Y012909D01*
X009593Y012890D01*
X009525Y012875D01*
X009456Y012863D01*
X009387Y012855D01*
X009318Y012851D01*
X009248Y012851D01*
X009179Y012855D01*
X009110Y012863D01*
X009041Y012875D01*
X008973Y012890D01*
X008906Y012909D01*
X008841Y012932D01*
X008777Y012959D01*
X008714Y012989D01*
X008653Y013023D01*
X008594Y013060D01*
X008537Y013100D01*
X008483Y013143D01*
X008431Y013190D01*
X008382Y013239D01*
X008335Y013291D01*
X008292Y013345D01*
X008252Y013402D01*
X008215Y013460D01*
X008181Y013521D01*
X008151Y013584D01*
X008124Y013648D01*
X008101Y013714D01*
X008082Y013781D01*
X008066Y013848D01*
X008054Y013917D01*
X008047Y013986D01*
X008043Y014055D01*
X008042Y014125D01*
X008046Y014194D01*
X008054Y014263D01*
X008065Y014332D01*
X008081Y014400D01*
X008100Y014467D01*
X008123Y014532D01*
X008149Y014597D01*
X008179Y014659D01*
X008213Y014720D01*
X008250Y014779D01*
X008290Y014836D01*
X008333Y014891D01*
X008379Y014943D01*
X008428Y014992D01*
X008480Y015038D01*
X008534Y015082D01*
X008540Y015075D01*
X008486Y015031D01*
X008435Y014985D01*
X008386Y014936D01*
X008340Y014885D01*
X008297Y014831D01*
X008257Y014774D01*
X008221Y014716D01*
X008187Y014655D01*
X008157Y014593D01*
X008131Y014529D01*
X008109Y014464D01*
X008090Y014398D01*
X008074Y014330D01*
X008063Y014262D01*
X008055Y014194D01*
X008051Y014125D01*
X008052Y014056D01*
X008056Y013987D01*
X008063Y013918D01*
X008075Y013850D01*
X008090Y013783D01*
X008110Y013716D01*
X008133Y013651D01*
X008159Y013588D01*
X008189Y013525D01*
X008222Y013465D01*
X008259Y013407D01*
X008299Y013350D01*
X008342Y013296D01*
X008388Y013245D01*
X008437Y013196D01*
X008489Y013150D01*
X008543Y013107D01*
X008599Y013067D01*
X008658Y013031D01*
X008718Y012997D01*
X008780Y012967D01*
X008844Y012941D01*
X008909Y012918D01*
X008976Y012899D01*
X009043Y012884D01*
X009111Y012872D01*
X009180Y012864D01*
X009248Y012860D01*
X009318Y012860D01*
X009386Y012864D01*
X009455Y012872D01*
X009523Y012884D01*
X009590Y012899D01*
X009657Y012918D01*
X009722Y012941D01*
X009786Y012967D01*
X009848Y012997D01*
X009908Y013031D01*
X009967Y013067D01*
X010023Y013107D01*
X010077Y013150D01*
X010129Y013196D01*
X010178Y013245D01*
X010224Y013296D01*
X010267Y013350D01*
X010307Y013407D01*
X010344Y013465D01*
X010377Y013525D01*
X010407Y013588D01*
X010433Y013651D01*
X010456Y013716D01*
X010476Y013783D01*
X010491Y013850D01*
X010503Y013918D01*
X010510Y013987D01*
X010514Y014056D01*
X010515Y014125D01*
X010511Y014194D01*
X010503Y014262D01*
X010492Y014330D01*
X010476Y014398D01*
X010457Y014464D01*
X010435Y014529D01*
X010409Y014593D01*
X010379Y014655D01*
X010345Y014716D01*
X010309Y014774D01*
X010269Y014831D01*
X010226Y014885D01*
X010180Y014936D01*
X010131Y014985D01*
X010080Y015031D01*
X010026Y015075D01*
X010021Y015067D01*
X010075Y015024D01*
X010126Y014978D01*
X010175Y014928D01*
X010221Y014877D01*
X010264Y014822D01*
X010304Y014765D01*
X010340Y014707D01*
X010374Y014646D01*
X010403Y014583D01*
X010429Y014519D01*
X010451Y014453D01*
X010470Y014386D01*
X010485Y014319D01*
X010496Y014250D01*
X010503Y014181D01*
X010506Y014112D01*
X010505Y014043D01*
X010500Y013973D01*
X010492Y013905D01*
X010479Y013837D01*
X010463Y013769D01*
X010442Y013703D01*
X010419Y013638D01*
X010391Y013574D01*
X010360Y013512D01*
X010325Y013452D01*
X010287Y013394D01*
X010246Y013338D01*
X010202Y013285D01*
X010155Y013234D01*
X010105Y013186D01*
X010052Y013141D01*
X009997Y013099D01*
X009940Y013060D01*
X009880Y013025D01*
X009819Y012993D01*
X009756Y012964D01*
X009691Y012939D01*
X009625Y012918D01*
X009558Y012900D01*
X009490Y012887D01*
X009421Y012877D01*
X009352Y012871D01*
X009283Y012869D01*
X009214Y012871D01*
X009145Y012877D01*
X009076Y012887D01*
X009008Y012900D01*
X008941Y012918D01*
X008875Y012939D01*
X008810Y012964D01*
X008747Y012993D01*
X008686Y013025D01*
X008626Y013060D01*
X008569Y013099D01*
X008514Y013141D01*
X008461Y013186D01*
X008411Y013234D01*
X008364Y013285D01*
X008320Y013338D01*
X008279Y013394D01*
X008241Y013452D01*
X008206Y013512D01*
X008175Y013574D01*
X008147Y013638D01*
X008124Y013703D01*
X008103Y013769D01*
X008087Y013837D01*
X008074Y013905D01*
X008066Y013973D01*
X008061Y014043D01*
X008060Y014112D01*
X008063Y014181D01*
X008070Y014250D01*
X008081Y014319D01*
X008096Y014386D01*
X008115Y014453D01*
X008137Y014519D01*
X008163Y014583D01*
X008192Y014646D01*
X008226Y014707D01*
X008262Y014765D01*
X008302Y014822D01*
X008345Y014877D01*
X008391Y014928D01*
X008440Y014978D01*
X008491Y015024D01*
X008545Y015067D01*
X008551Y015060D01*
X008497Y015017D01*
X008446Y014971D01*
X008397Y014922D01*
X008352Y014871D01*
X008309Y014817D01*
X008270Y014760D01*
X008233Y014702D01*
X008200Y014642D01*
X008171Y014579D01*
X008145Y014516D01*
X008123Y014450D01*
X008105Y014384D01*
X008090Y014317D01*
X008079Y014249D01*
X008072Y014180D01*
X008069Y014112D01*
X008070Y014043D01*
X008075Y013974D01*
X008083Y013906D01*
X008096Y013838D01*
X008112Y013772D01*
X008132Y013706D01*
X008156Y013641D01*
X008183Y013578D01*
X008214Y013517D01*
X008248Y013457D01*
X008286Y013399D01*
X008327Y013344D01*
X008371Y013291D01*
X008418Y013241D01*
X008467Y013193D01*
X008519Y013148D01*
X008574Y013106D01*
X008631Y013068D01*
X008690Y013033D01*
X008751Y013001D01*
X008814Y012972D01*
X008878Y012948D01*
X008944Y012926D01*
X009010Y012909D01*
X009078Y012896D01*
X009146Y012886D01*
X009214Y012880D01*
X009283Y012878D01*
X009352Y012880D01*
X009420Y012886D01*
X009488Y012896D01*
X009556Y012909D01*
X009622Y012926D01*
X009688Y012948D01*
X009752Y012972D01*
X009815Y013001D01*
X009876Y013033D01*
X009935Y013068D01*
X009992Y013106D01*
X010047Y013148D01*
X010099Y013193D01*
X010148Y013241D01*
X010195Y013291D01*
X010239Y013344D01*
X010280Y013399D01*
X010318Y013457D01*
X010352Y013517D01*
X010383Y013578D01*
X010410Y013641D01*
X010434Y013706D01*
X010454Y013772D01*
X010470Y013838D01*
X010483Y013906D01*
X010491Y013974D01*
X010496Y014043D01*
X010497Y014112D01*
X010494Y014180D01*
X010487Y014249D01*
X010476Y014317D01*
X010461Y014384D01*
X010443Y014450D01*
X010421Y014516D01*
X010395Y014579D01*
X010366Y014642D01*
X010333Y014702D01*
X010296Y014760D01*
X010257Y014817D01*
X010214Y014871D01*
X010169Y014922D01*
X010120Y014971D01*
X010069Y015017D01*
X010015Y015060D01*
X016362Y013697D02*
X016438Y013697D01*
X016463Y013722D01*
X016413Y013697D02*
X016463Y013647D01*
X008236Y011722D02*
X008236Y011697D01*
X008211Y011672D01*
X008161Y011672D01*
X008136Y011697D01*
X008136Y011722D01*
X008161Y011747D01*
X008211Y011747D01*
X008236Y011722D01*
X008211Y011672D02*
X008236Y011647D01*
X008236Y011622D01*
X008211Y011597D01*
X008161Y011597D01*
X008136Y011622D01*
X008136Y011647D01*
X008161Y011672D01*
X008088Y011672D02*
X008063Y011647D01*
X007988Y011647D01*
X007988Y011597D02*
X007988Y011747D01*
X008063Y011747D01*
X008088Y011722D01*
X008088Y011672D01*
X008038Y011647D02*
X008088Y011597D01*
X009013Y009050D02*
X009113Y008950D01*
X009138Y008975D01*
X009138Y009025D01*
X009113Y009050D01*
X009013Y009050D01*
X008988Y009025D01*
X008988Y008975D01*
X009013Y008950D01*
X009113Y008950D01*
X009138Y008903D02*
X009138Y008802D01*
X009138Y008755D02*
X009088Y008705D01*
X009088Y008730D02*
X009088Y008655D01*
X009138Y008655D02*
X008988Y008655D01*
X008988Y008730D01*
X009013Y008755D01*
X009063Y008755D01*
X009088Y008730D01*
X009038Y008802D02*
X008988Y008853D01*
X009138Y008853D01*
X009988Y008878D02*
X009988Y008802D01*
X010138Y008802D01*
X010088Y008802D02*
X010088Y008878D01*
X010063Y008903D01*
X010013Y008903D01*
X009988Y008878D01*
X010013Y008950D02*
X010038Y008950D01*
X010063Y008975D01*
X010063Y009050D01*
X010113Y009050D02*
X010013Y009050D01*
X009988Y009025D01*
X009988Y008975D01*
X010013Y008950D01*
X010113Y008950D02*
X010138Y008975D01*
X010138Y009025D01*
X010113Y009050D01*
X010138Y008903D02*
X010088Y008853D01*
X006978Y007492D02*
X006978Y007392D01*
X006978Y007345D02*
X006978Y007244D01*
X006978Y007197D02*
X006928Y007147D01*
X006928Y007172D02*
X006928Y007097D01*
X006978Y007097D02*
X006828Y007097D01*
X006828Y007172D01*
X006853Y007197D01*
X006903Y007197D01*
X006928Y007172D01*
X006878Y007244D02*
X006828Y007294D01*
X006978Y007294D01*
X006878Y007392D02*
X006828Y007442D01*
X006978Y007442D01*
X002738Y008927D02*
X002738Y008953D01*
X002713Y008978D01*
X002588Y008978D01*
X002588Y008953D02*
X002588Y009003D01*
X002613Y009050D02*
X002588Y009075D01*
X002588Y009125D01*
X002613Y009150D01*
X002638Y009150D01*
X002663Y009125D01*
X002688Y009150D01*
X002713Y009150D01*
X002738Y009125D01*
X002738Y009075D01*
X002713Y009050D01*
X002663Y009100D02*
X002663Y009125D01*
X002738Y008927D02*
X002713Y008902D01*
X009394Y002712D02*
X009394Y002612D01*
X009419Y002587D01*
X009469Y002587D01*
X009494Y002612D01*
X009541Y002612D02*
X009541Y002587D01*
X009541Y002612D02*
X009641Y002712D01*
X009641Y002737D01*
X009541Y002737D01*
X009494Y002712D02*
X009469Y002737D01*
X009419Y002737D01*
X009394Y002712D01*
X012988Y000998D02*
X012988Y001088D01*
X012988Y001087D02*
X013042Y001089D01*
X013095Y001095D01*
X013148Y001105D01*
X013200Y001119D01*
X013251Y001136D01*
X013300Y001157D01*
X013348Y001181D01*
X013394Y001209D01*
X013438Y001240D01*
X013480Y001274D01*
X013519Y001310D01*
X013556Y001350D01*
X013589Y001392D01*
X013620Y001436D01*
X013647Y001482D01*
X013726Y001440D01*
X013698Y001391D01*
X013666Y001345D01*
X013631Y001300D01*
X013594Y001258D01*
X013553Y001218D01*
X013510Y001182D01*
X013465Y001148D01*
X013418Y001117D01*
X013368Y001090D01*
X013317Y001066D01*
X013265Y001045D01*
X013211Y001028D01*
X013156Y001015D01*
X013101Y001005D01*
X013044Y000999D01*
X012988Y000997D01*
X012988Y001006D01*
X013044Y001008D01*
X013099Y001014D01*
X013154Y001024D01*
X013209Y001037D01*
X013262Y001054D01*
X013314Y001074D01*
X013364Y001098D01*
X013413Y001125D01*
X013460Y001155D01*
X013505Y001189D01*
X013547Y001225D01*
X013587Y001264D01*
X013624Y001306D01*
X013659Y001350D01*
X013690Y001396D01*
X013718Y001444D01*
X013710Y001448D01*
X013682Y001401D01*
X013651Y001355D01*
X013617Y001312D01*
X013581Y001270D01*
X013541Y001232D01*
X013499Y001196D01*
X013455Y001163D01*
X013409Y001133D01*
X013360Y001106D01*
X013310Y001083D01*
X013259Y001062D01*
X013206Y001046D01*
X013153Y001033D01*
X013098Y001023D01*
X013043Y001017D01*
X012988Y001015D01*
X012988Y001024D01*
X013043Y001026D01*
X013097Y001032D01*
X013151Y001041D01*
X013204Y001054D01*
X013256Y001071D01*
X013307Y001091D01*
X013356Y001114D01*
X013404Y001141D01*
X013450Y001170D01*
X013494Y001203D01*
X013535Y001238D01*
X013574Y001277D01*
X013611Y001317D01*
X013644Y001360D01*
X013675Y001406D01*
X013702Y001453D01*
X013694Y001457D01*
X013667Y001410D01*
X013637Y001366D01*
X013604Y001323D01*
X013568Y001283D01*
X013529Y001245D01*
X013488Y001210D01*
X013445Y001178D01*
X013399Y001148D01*
X013352Y001122D01*
X013303Y001099D01*
X013253Y001079D01*
X013201Y001063D01*
X013149Y001050D01*
X013096Y001041D01*
X013042Y001035D01*
X012988Y001033D01*
X012988Y001042D01*
X013041Y001044D01*
X013094Y001050D01*
X013147Y001059D01*
X013199Y001072D01*
X013250Y001088D01*
X013300Y001107D01*
X013348Y001130D01*
X013395Y001156D01*
X013439Y001185D01*
X013482Y001217D01*
X013523Y001252D01*
X013561Y001289D01*
X013597Y001329D01*
X013630Y001371D01*
X013660Y001415D01*
X013687Y001461D01*
X013679Y001465D01*
X013652Y001420D01*
X013622Y001376D01*
X013590Y001335D01*
X013555Y001295D01*
X013517Y001258D01*
X013477Y001224D01*
X013434Y001192D01*
X013390Y001164D01*
X013344Y001138D01*
X013296Y001116D01*
X013247Y001096D01*
X013197Y001080D01*
X013145Y001068D01*
X013093Y001059D01*
X013041Y001053D01*
X012988Y001051D01*
X012988Y001060D01*
X013044Y001062D01*
X013099Y001069D01*
X013154Y001079D01*
X013208Y001093D01*
X013260Y001111D01*
X013312Y001132D01*
X013361Y001158D01*
X013409Y001186D01*
X013455Y001218D01*
X013498Y001253D01*
X013538Y001291D01*
X013576Y001332D01*
X013611Y001376D01*
X013642Y001422D01*
X013671Y001470D01*
X013663Y001474D01*
X013635Y001426D01*
X013604Y001381D01*
X013569Y001338D01*
X013532Y001298D01*
X013492Y001260D01*
X013449Y001225D01*
X013404Y001194D01*
X013357Y001165D01*
X013308Y001141D01*
X013257Y001119D01*
X013205Y001102D01*
X013152Y001088D01*
X013098Y001078D01*
X013043Y001071D01*
X012988Y001069D01*
X012988Y001078D01*
X013042Y001080D01*
X013096Y001086D01*
X013150Y001096D01*
X013202Y001110D01*
X013254Y001128D01*
X013304Y001149D01*
X013353Y001173D01*
X013399Y001201D01*
X013444Y001233D01*
X013486Y001267D01*
X013525Y001304D01*
X013562Y001344D01*
X013596Y001386D01*
X013627Y001431D01*
X013655Y001478D01*
X013714Y002265D02*
X013636Y002220D01*
X013636Y002221D02*
X013608Y002265D01*
X013577Y002307D01*
X013544Y002347D01*
X013508Y002385D01*
X013469Y002420D01*
X013428Y002452D01*
X013384Y002482D01*
X013339Y002508D01*
X013292Y002531D01*
X013244Y002551D01*
X013194Y002567D01*
X013144Y002580D01*
X013092Y002589D01*
X013040Y002595D01*
X012988Y002597D01*
X012987Y002686D01*
X012988Y002687D01*
X013043Y002685D01*
X013097Y002679D01*
X013152Y002670D01*
X013205Y002657D01*
X013257Y002641D01*
X013309Y002622D01*
X013359Y002599D01*
X013407Y002573D01*
X013454Y002544D01*
X013498Y002512D01*
X013541Y002477D01*
X013581Y002439D01*
X013618Y002399D01*
X013653Y002357D01*
X013685Y002312D01*
X013714Y002266D01*
X013706Y002261D01*
X013678Y002307D01*
X013646Y002351D01*
X013611Y002393D01*
X013574Y002433D01*
X013535Y002470D01*
X013493Y002505D01*
X013449Y002536D01*
X013403Y002565D01*
X013355Y002591D01*
X013305Y002613D01*
X013255Y002633D01*
X013203Y002649D01*
X013150Y002661D01*
X013096Y002670D01*
X013042Y002676D01*
X012988Y002678D01*
X012988Y002669D01*
X013042Y002667D01*
X013095Y002661D01*
X013148Y002652D01*
X013200Y002640D01*
X013252Y002624D01*
X013302Y002605D01*
X013351Y002583D01*
X013398Y002557D01*
X013444Y002529D01*
X013487Y002497D01*
X013529Y002463D01*
X013568Y002427D01*
X013605Y002387D01*
X013639Y002346D01*
X013670Y002302D01*
X013699Y002257D01*
X013691Y002252D01*
X013661Y002300D01*
X013627Y002346D01*
X013591Y002389D01*
X013551Y002430D01*
X013509Y002468D01*
X013465Y002503D01*
X013418Y002535D01*
X013369Y002563D01*
X013318Y002588D01*
X013265Y002610D01*
X013212Y002627D01*
X013157Y002641D01*
X013101Y002651D01*
X013045Y002658D01*
X012988Y002660D01*
X012988Y002651D01*
X013044Y002649D01*
X013100Y002643D01*
X013155Y002633D01*
X013209Y002619D01*
X013262Y002601D01*
X013314Y002580D01*
X013365Y002555D01*
X013413Y002527D01*
X013459Y002496D01*
X013504Y002461D01*
X013545Y002424D01*
X013584Y002383D01*
X013620Y002341D01*
X013653Y002295D01*
X013683Y002248D01*
X013675Y002243D01*
X013646Y002290D01*
X013613Y002335D01*
X013577Y002377D01*
X013539Y002417D01*
X013498Y002454D01*
X013454Y002489D01*
X013408Y002520D01*
X013360Y002547D01*
X013311Y002572D01*
X013259Y002593D01*
X013207Y002610D01*
X013153Y002624D01*
X013098Y002634D01*
X013043Y002640D01*
X012988Y002642D01*
X012988Y002633D01*
X013043Y002631D01*
X013097Y002625D01*
X013151Y002615D01*
X013204Y002601D01*
X013256Y002584D01*
X013307Y002564D01*
X013356Y002539D01*
X013403Y002512D01*
X013449Y002481D01*
X013492Y002448D01*
X013533Y002411D01*
X013571Y002371D01*
X013606Y002329D01*
X013638Y002285D01*
X013667Y002239D01*
X013659Y002234D01*
X013631Y002280D01*
X013599Y002324D01*
X013564Y002365D01*
X013526Y002404D01*
X013486Y002441D01*
X013444Y002474D01*
X013399Y002504D01*
X013352Y002532D01*
X013303Y002555D01*
X013253Y002576D01*
X013202Y002593D01*
X013149Y002606D01*
X013096Y002616D01*
X013042Y002622D01*
X012988Y002624D01*
X012988Y002615D01*
X013041Y002613D01*
X013095Y002607D01*
X013147Y002597D01*
X013199Y002584D01*
X013250Y002567D01*
X013300Y002547D01*
X013348Y002524D01*
X013394Y002497D01*
X013438Y002467D01*
X013480Y002434D01*
X013520Y002398D01*
X013557Y002359D01*
X013592Y002318D01*
X013623Y002275D01*
X013652Y002230D01*
X013644Y002225D01*
X013616Y002270D01*
X013585Y002313D01*
X013551Y002353D01*
X013514Y002391D01*
X013475Y002427D01*
X013433Y002459D01*
X013389Y002489D01*
X013343Y002516D01*
X013296Y002539D01*
X013247Y002559D01*
X013197Y002576D01*
X013145Y002589D01*
X013093Y002598D01*
X013041Y002604D01*
X012988Y002606D01*
X012979Y002686D02*
X012979Y002596D01*
X012978Y002597D02*
X012924Y002595D01*
X012871Y002589D01*
X012818Y002579D01*
X012766Y002565D01*
X012715Y002548D01*
X012665Y002527D01*
X012617Y002503D01*
X012571Y002475D01*
X012527Y002444D01*
X012486Y002410D01*
X012446Y002373D01*
X012410Y002334D01*
X012342Y002391D01*
X012341Y002392D01*
X012379Y002433D01*
X012419Y002471D01*
X012462Y002507D01*
X012507Y002540D01*
X012554Y002570D01*
X012602Y002596D01*
X012653Y002620D01*
X012705Y002640D01*
X012758Y002656D01*
X012812Y002670D01*
X012867Y002679D01*
X012922Y002685D01*
X012978Y002687D01*
X012978Y002678D01*
X012923Y002676D01*
X012868Y002670D01*
X012814Y002661D01*
X012760Y002648D01*
X012708Y002631D01*
X012656Y002612D01*
X012606Y002588D01*
X012558Y002562D01*
X012512Y002532D01*
X012467Y002500D01*
X012425Y002465D01*
X012385Y002426D01*
X012348Y002386D01*
X012355Y002380D01*
X012392Y002420D01*
X012431Y002458D01*
X012473Y002493D01*
X012517Y002525D01*
X012563Y002554D01*
X012611Y002580D01*
X012660Y002603D01*
X012711Y002623D01*
X012763Y002639D01*
X012816Y002652D01*
X012869Y002661D01*
X012924Y002667D01*
X012978Y002669D01*
X012978Y002660D01*
X012924Y002658D01*
X012871Y002652D01*
X012818Y002643D01*
X012765Y002630D01*
X012714Y002614D01*
X012663Y002595D01*
X012615Y002572D01*
X012567Y002547D01*
X012522Y002518D01*
X012478Y002486D01*
X012437Y002451D01*
X012398Y002414D01*
X012362Y002374D01*
X012369Y002368D01*
X012405Y002408D01*
X012443Y002445D01*
X012484Y002479D01*
X012527Y002510D01*
X012572Y002539D01*
X012619Y002564D01*
X012667Y002587D01*
X012717Y002606D01*
X012768Y002622D01*
X012819Y002634D01*
X012872Y002643D01*
X012925Y002649D01*
X012978Y002651D01*
X012978Y002642D01*
X012925Y002640D01*
X012873Y002634D01*
X012821Y002625D01*
X012770Y002613D01*
X012720Y002597D01*
X012670Y002578D01*
X012623Y002556D01*
X012576Y002531D01*
X012532Y002503D01*
X012490Y002472D01*
X012449Y002438D01*
X012411Y002401D01*
X012376Y002363D01*
X012382Y002357D01*
X012418Y002395D01*
X012455Y002431D01*
X012495Y002465D01*
X012537Y002495D01*
X012581Y002523D01*
X012627Y002548D01*
X012674Y002570D01*
X012723Y002589D01*
X012772Y002604D01*
X012823Y002617D01*
X012874Y002625D01*
X012926Y002631D01*
X012978Y002633D01*
X012978Y002624D01*
X012922Y002622D01*
X012867Y002615D01*
X012812Y002605D01*
X012758Y002591D01*
X012705Y002573D01*
X012654Y002551D01*
X012604Y002526D01*
X012556Y002497D01*
X012511Y002465D01*
X012468Y002430D01*
X012427Y002392D01*
X012389Y002351D01*
X012396Y002345D01*
X012433Y002386D01*
X012474Y002423D01*
X012516Y002458D01*
X012561Y002490D01*
X012609Y002518D01*
X012658Y002543D01*
X012709Y002565D01*
X012761Y002582D01*
X012814Y002596D01*
X012868Y002606D01*
X012923Y002613D01*
X012978Y002615D01*
X012978Y002606D01*
X012924Y002604D01*
X012870Y002598D01*
X012816Y002588D01*
X012763Y002574D01*
X012712Y002556D01*
X012662Y002535D01*
X012613Y002510D01*
X012566Y002482D01*
X012522Y002451D01*
X012480Y002417D01*
X012440Y002379D01*
X012403Y002339D01*
X012338Y001298D02*
X012407Y001355D01*
X012406Y001355D02*
X012443Y001315D01*
X012482Y001277D01*
X012524Y001243D01*
X012568Y001211D01*
X012614Y001183D01*
X012663Y001158D01*
X012713Y001137D01*
X012764Y001119D01*
X012817Y001106D01*
X012870Y001096D01*
X012924Y001089D01*
X012978Y001087D01*
X012979Y000998D01*
X012978Y000997D01*
X012922Y000999D01*
X012866Y001005D01*
X012811Y001015D01*
X012756Y001028D01*
X012703Y001045D01*
X012650Y001065D01*
X012599Y001089D01*
X012550Y001116D01*
X012503Y001147D01*
X012458Y001180D01*
X012415Y001216D01*
X012375Y001255D01*
X012337Y001297D01*
X012344Y001303D01*
X012381Y001262D01*
X012421Y001223D01*
X012463Y001187D01*
X012508Y001154D01*
X012555Y001124D01*
X012603Y001097D01*
X012654Y001074D01*
X012706Y001053D01*
X012759Y001037D01*
X012813Y001024D01*
X012867Y001014D01*
X012922Y001008D01*
X012978Y001006D01*
X012978Y001015D01*
X012923Y001017D01*
X012868Y001023D01*
X012814Y001032D01*
X012761Y001045D01*
X012709Y001062D01*
X012657Y001082D01*
X012608Y001105D01*
X012559Y001132D01*
X012513Y001161D01*
X012469Y001194D01*
X012427Y001230D01*
X012388Y001268D01*
X012351Y001309D01*
X012358Y001314D01*
X012394Y001274D01*
X012433Y001236D01*
X012475Y001201D01*
X012518Y001169D01*
X012564Y001139D01*
X012612Y001113D01*
X012661Y001090D01*
X012711Y001070D01*
X012763Y001054D01*
X012816Y001041D01*
X012870Y001032D01*
X012924Y001026D01*
X012978Y001024D01*
X012978Y001033D01*
X012924Y001035D01*
X012871Y001041D01*
X012818Y001050D01*
X012766Y001063D01*
X012714Y001079D01*
X012664Y001098D01*
X012616Y001121D01*
X012569Y001147D01*
X012523Y001176D01*
X012480Y001208D01*
X012439Y001243D01*
X012401Y001280D01*
X012365Y001320D01*
X012372Y001326D01*
X012407Y001287D01*
X012445Y001250D01*
X012486Y001215D01*
X012529Y001184D01*
X012573Y001155D01*
X012620Y001129D01*
X012668Y001107D01*
X012717Y001087D01*
X012768Y001071D01*
X012820Y001059D01*
X012872Y001050D01*
X012925Y001044D01*
X012978Y001042D01*
X012978Y001051D01*
X012926Y001053D01*
X012873Y001059D01*
X012822Y001068D01*
X012771Y001080D01*
X012720Y001096D01*
X012671Y001115D01*
X012624Y001137D01*
X012578Y001163D01*
X012534Y001191D01*
X012492Y001222D01*
X012451Y001256D01*
X012414Y001293D01*
X012379Y001332D01*
X012385Y001338D01*
X012420Y001299D01*
X012458Y001263D01*
X012497Y001229D01*
X012539Y001198D01*
X012583Y001170D01*
X012628Y001145D01*
X012675Y001123D01*
X012723Y001104D01*
X012773Y001089D01*
X012823Y001076D01*
X012875Y001068D01*
X012926Y001062D01*
X012978Y001060D01*
X012978Y001069D01*
X012927Y001071D01*
X012876Y001076D01*
X012825Y001085D01*
X012775Y001097D01*
X012726Y001113D01*
X012679Y001131D01*
X012632Y001153D01*
X012587Y001178D01*
X012544Y001206D01*
X012503Y001236D01*
X012464Y001269D01*
X012427Y001305D01*
X012392Y001343D01*
X012399Y001349D01*
X012436Y001308D01*
X012476Y001270D01*
X012518Y001236D01*
X012563Y001204D01*
X012610Y001175D01*
X012659Y001150D01*
X012710Y001129D01*
X012761Y001111D01*
X012815Y001097D01*
X012869Y001087D01*
X012923Y001080D01*
X012978Y001078D01*
X014988Y002347D02*
X014988Y002497D01*
X015063Y002497D01*
X015088Y002472D01*
X015088Y002422D01*
X015063Y002397D01*
X014988Y002397D01*
X015038Y002397D02*
X015088Y002347D01*
X015136Y002347D02*
X015236Y002447D01*
X015236Y002472D01*
X015211Y002497D01*
X015161Y002497D01*
X015136Y002472D01*
X015136Y002347D02*
X015236Y002347D01*
X032988Y012097D02*
X032988Y012247D01*
X033063Y012247D01*
X033088Y012222D01*
X033088Y012172D01*
X033063Y012147D01*
X032988Y012147D01*
X033038Y012147D02*
X033088Y012097D01*
X033136Y012097D02*
X033236Y012097D01*
X033186Y012097D02*
X033186Y012247D01*
X033136Y012197D01*
D18*
X007748Y012198D02*
X007748Y011988D01*
X007643Y011883D01*
X007643Y011658D02*
X007748Y011553D01*
X007748Y011343D01*
X007643Y011238D01*
X007433Y011343D02*
X007433Y011553D01*
X007538Y011658D01*
X007643Y011658D01*
X007223Y011658D02*
X007118Y011553D01*
X007118Y011343D01*
X007223Y011238D01*
X007328Y011238D01*
X007433Y011343D01*
X007223Y011883D02*
X007118Y011988D01*
X007118Y012198D01*
X007223Y012303D01*
X007328Y012303D01*
X007433Y012198D01*
X007538Y012303D01*
X007643Y012303D01*
X007748Y012198D01*
X007433Y012198D02*
X007433Y012093D01*
X001048Y003187D02*
X000418Y003187D01*
X000733Y002872D01*
X000733Y003292D01*
X000838Y002647D02*
X000943Y002647D01*
X001048Y002542D01*
X001048Y002332D01*
X000943Y002227D01*
X000733Y002332D02*
X000733Y002542D01*
X000838Y002647D01*
X000523Y002647D02*
X000418Y002542D01*
X000418Y002332D01*
X000523Y002227D01*
X000628Y002227D01*
X000733Y002332D01*
D19*
X008920Y004487D02*
X009113Y004487D01*
X009016Y004487D02*
X009016Y004777D01*
X008920Y004681D01*
X009214Y004729D02*
X009263Y004777D01*
X009360Y004777D01*
X009408Y004729D01*
X009214Y004535D01*
X009263Y004487D01*
X009360Y004487D01*
X009408Y004535D01*
X009408Y004729D01*
X009509Y004681D02*
X009509Y004535D01*
X009557Y004487D01*
X009703Y004487D01*
X009703Y004681D01*
X009804Y004632D02*
X009900Y004632D01*
X009804Y004487D02*
X009804Y004777D01*
X009997Y004777D01*
X009214Y004729D02*
X009214Y004535D01*
X010395Y013384D02*
X010298Y013481D01*
X010588Y013481D01*
X010588Y013577D02*
X010588Y013384D01*
X010540Y013679D02*
X010346Y013679D01*
X010298Y013727D01*
X010298Y013824D01*
X010346Y013872D01*
X010540Y013679D01*
X010588Y013727D01*
X010588Y013824D01*
X010540Y013872D01*
X010346Y013872D01*
X010346Y013973D02*
X010298Y014022D01*
X010298Y014118D01*
X010346Y014167D01*
X010540Y013973D01*
X010588Y014022D01*
X010588Y014118D01*
X010540Y014167D01*
X010346Y014167D01*
X010395Y014268D02*
X010540Y014268D01*
X010588Y014316D01*
X010588Y014461D01*
X010395Y014461D01*
X010443Y014562D02*
X010443Y014659D01*
X010298Y014562D02*
X010298Y014756D01*
X010298Y014562D02*
X010588Y014562D01*
X010540Y013973D02*
X010346Y013973D01*
D20*
X013743Y013536D02*
X013743Y013389D01*
X013780Y013352D01*
X013853Y013352D01*
X013890Y013389D01*
X013964Y013389D02*
X014001Y013352D01*
X014074Y013352D01*
X014111Y013389D01*
X014111Y013426D01*
X014074Y013462D01*
X014038Y013462D01*
X014074Y013462D02*
X014111Y013499D01*
X014111Y013536D01*
X014074Y013572D01*
X014001Y013572D01*
X013964Y013536D01*
X013890Y013536D02*
X013853Y013572D01*
X013780Y013572D01*
X013743Y013536D01*
X013780Y011322D02*
X013853Y011322D01*
X013890Y011286D01*
X013743Y011139D01*
X013780Y011102D01*
X013853Y011102D01*
X013890Y011139D01*
X013890Y011286D01*
X013780Y011322D02*
X013743Y011286D01*
X013743Y011139D01*
X013964Y011139D02*
X013964Y011102D01*
X014001Y011102D01*
X014001Y011139D01*
X013964Y011139D01*
X014075Y011102D02*
X014222Y011102D01*
X014148Y011102D02*
X014148Y011322D01*
X014075Y011249D01*
X014296Y011249D02*
X014296Y011139D01*
X014333Y011102D01*
X014443Y011102D01*
X014443Y011249D01*
X014517Y011212D02*
X014590Y011212D01*
X014517Y011102D02*
X014517Y011322D01*
X014664Y011322D01*
X023773Y006591D02*
X023773Y006444D01*
X023773Y006517D02*
X023553Y006517D01*
X023627Y006444D01*
X023663Y006370D02*
X023663Y006297D01*
X023663Y006370D02*
X023737Y006370D01*
X023773Y006333D01*
X023773Y006260D01*
X023737Y006223D01*
X023590Y006223D01*
X023553Y006260D01*
X023553Y006333D01*
X023590Y006370D01*
X023590Y006149D02*
X023553Y006112D01*
X023553Y006039D01*
X023590Y006002D01*
X023627Y006002D01*
X023663Y006039D01*
X023663Y006112D01*
X023700Y006149D01*
X023737Y006149D01*
X023773Y006112D01*
X023773Y006039D01*
X023737Y006002D01*
X008563Y004241D02*
X008563Y004168D01*
X008527Y004131D01*
X008490Y004131D01*
X008453Y004168D01*
X008453Y004241D01*
X008490Y004278D01*
X008527Y004278D01*
X008563Y004241D01*
X008453Y004241D02*
X008417Y004278D01*
X008380Y004278D01*
X008343Y004241D01*
X008343Y004168D01*
X008380Y004131D01*
X008417Y004131D01*
X008453Y004168D01*
X008380Y004057D02*
X008343Y004020D01*
X008343Y003947D01*
X008380Y003910D01*
X008527Y003910D01*
X008563Y003947D01*
X008563Y004020D01*
X008527Y004057D01*
X006313Y004057D02*
X006167Y004057D01*
X006203Y004131D02*
X006203Y004205D01*
X006093Y004131D02*
X006093Y004278D01*
X006093Y004131D02*
X006313Y004131D01*
X006313Y004057D02*
X006313Y003947D01*
X006277Y003910D01*
X006167Y003910D01*
X006313Y003836D02*
X006313Y003689D01*
X006313Y003763D02*
X006093Y003763D01*
X006167Y003689D01*
X006277Y003615D02*
X006313Y003615D01*
X006313Y003579D01*
X006277Y003579D01*
X006277Y003615D01*
X006277Y003504D02*
X006130Y003504D01*
X006277Y003358D01*
X006313Y003394D01*
X006313Y003468D01*
X006277Y003504D01*
X006277Y003358D02*
X006130Y003358D01*
X006093Y003394D01*
X006093Y003468D01*
X006130Y003504D01*
D21*
X012363Y002352D02*
X012363Y002172D01*
X012363Y001532D02*
X012363Y001332D01*
X021796Y003530D02*
X023568Y003530D01*
X023568Y004268D01*
X022239Y004268D01*
X022239Y005006D01*
X023568Y005006D01*
X023568Y005744D01*
X022239Y005744D01*
X022239Y006483D01*
X023568Y006483D01*
X023568Y007221D01*
X022239Y007221D01*
X022239Y007959D01*
X023568Y007959D01*
X023568Y008402D01*
X005483Y012692D02*
X005233Y012692D01*
X005233Y013192D01*
X004733Y013192D01*
X004733Y012192D01*
X005233Y012192D01*
X005233Y012692D01*
X004733Y012192D02*
X002733Y012192D01*
X002733Y012692D01*
X002483Y012692D01*
X002733Y012692D02*
X002733Y013192D01*
X004733Y013192D01*
D22*
X025713Y004262D02*
X025733Y004242D01*
X025733Y004092D01*
X026133Y004142D02*
X026133Y004242D01*
X026153Y004262D01*
D23*
X026133Y004027D03*
X025733Y004027D03*
M02*
