G75*
G70*
%OFA0B0*%
%FSLAX24Y24*%
%IPPOS*%
%LPD*%
%AMOC8*
5,1,8,0,0,1.08239X$1,22.5*
%
%ADD10C,0.0000*%
%ADD11R,0.0600X0.0600*%
%ADD12C,0.0600*%
%ADD13C,0.0520*%
%ADD14C,0.0740*%
%ADD15C,0.0476*%
%ADD16R,0.0476X0.0476*%
%ADD17OC8,0.0520*%
%ADD18R,0.0594X0.0594*%
%ADD19C,0.0594*%
%ADD20C,0.0515*%
%ADD21C,0.1580*%
%ADD22C,0.0709*%
%ADD23OC8,0.0740*%
%ADD24C,0.0660*%
%ADD25R,0.0515X0.0515*%
%ADD26C,0.0554*%
%ADD27C,0.0700*%
%ADD28C,0.0100*%
%ADD29C,0.0240*%
%ADD30C,0.0320*%
%ADD31R,0.0356X0.0356*%
%ADD32C,0.0160*%
D10*
X000983Y000100D02*
X038353Y000100D01*
X038353Y016042D01*
X000983Y016042D01*
X000983Y000100D01*
X001683Y001342D02*
X001685Y001392D01*
X001691Y001442D01*
X001701Y001492D01*
X001714Y001540D01*
X001731Y001588D01*
X001752Y001634D01*
X001776Y001678D01*
X001804Y001720D01*
X001835Y001760D01*
X001869Y001797D01*
X001906Y001832D01*
X001945Y001863D01*
X001986Y001892D01*
X002030Y001917D01*
X002076Y001939D01*
X002123Y001957D01*
X002171Y001971D01*
X002220Y001982D01*
X002270Y001989D01*
X002320Y001992D01*
X002371Y001991D01*
X002421Y001986D01*
X002471Y001977D01*
X002519Y001965D01*
X002567Y001948D01*
X002613Y001928D01*
X002658Y001905D01*
X002701Y001878D01*
X002741Y001848D01*
X002779Y001815D01*
X002814Y001779D01*
X002847Y001740D01*
X002876Y001699D01*
X002902Y001656D01*
X002925Y001611D01*
X002944Y001564D01*
X002959Y001516D01*
X002971Y001467D01*
X002979Y001417D01*
X002983Y001367D01*
X002983Y001317D01*
X002979Y001267D01*
X002971Y001217D01*
X002959Y001168D01*
X002944Y001120D01*
X002925Y001073D01*
X002902Y001028D01*
X002876Y000985D01*
X002847Y000944D01*
X002814Y000905D01*
X002779Y000869D01*
X002741Y000836D01*
X002701Y000806D01*
X002658Y000779D01*
X002613Y000756D01*
X002567Y000736D01*
X002519Y000719D01*
X002471Y000707D01*
X002421Y000698D01*
X002371Y000693D01*
X002320Y000692D01*
X002270Y000695D01*
X002220Y000702D01*
X002171Y000713D01*
X002123Y000727D01*
X002076Y000745D01*
X002030Y000767D01*
X001986Y000792D01*
X001945Y000821D01*
X001906Y000852D01*
X001869Y000887D01*
X001835Y000924D01*
X001804Y000964D01*
X001776Y001006D01*
X001752Y001050D01*
X001731Y001096D01*
X001714Y001144D01*
X001701Y001192D01*
X001691Y001242D01*
X001685Y001292D01*
X001683Y001342D01*
X001633Y014792D02*
X001635Y014842D01*
X001641Y014892D01*
X001651Y014942D01*
X001664Y014990D01*
X001681Y015038D01*
X001702Y015084D01*
X001726Y015128D01*
X001754Y015170D01*
X001785Y015210D01*
X001819Y015247D01*
X001856Y015282D01*
X001895Y015313D01*
X001936Y015342D01*
X001980Y015367D01*
X002026Y015389D01*
X002073Y015407D01*
X002121Y015421D01*
X002170Y015432D01*
X002220Y015439D01*
X002270Y015442D01*
X002321Y015441D01*
X002371Y015436D01*
X002421Y015427D01*
X002469Y015415D01*
X002517Y015398D01*
X002563Y015378D01*
X002608Y015355D01*
X002651Y015328D01*
X002691Y015298D01*
X002729Y015265D01*
X002764Y015229D01*
X002797Y015190D01*
X002826Y015149D01*
X002852Y015106D01*
X002875Y015061D01*
X002894Y015014D01*
X002909Y014966D01*
X002921Y014917D01*
X002929Y014867D01*
X002933Y014817D01*
X002933Y014767D01*
X002929Y014717D01*
X002921Y014667D01*
X002909Y014618D01*
X002894Y014570D01*
X002875Y014523D01*
X002852Y014478D01*
X002826Y014435D01*
X002797Y014394D01*
X002764Y014355D01*
X002729Y014319D01*
X002691Y014286D01*
X002651Y014256D01*
X002608Y014229D01*
X002563Y014206D01*
X002517Y014186D01*
X002469Y014169D01*
X002421Y014157D01*
X002371Y014148D01*
X002321Y014143D01*
X002270Y014142D01*
X002220Y014145D01*
X002170Y014152D01*
X002121Y014163D01*
X002073Y014177D01*
X002026Y014195D01*
X001980Y014217D01*
X001936Y014242D01*
X001895Y014271D01*
X001856Y014302D01*
X001819Y014337D01*
X001785Y014374D01*
X001754Y014414D01*
X001726Y014456D01*
X001702Y014500D01*
X001681Y014546D01*
X001664Y014594D01*
X001651Y014642D01*
X001641Y014692D01*
X001635Y014742D01*
X001633Y014792D01*
X036383Y014792D02*
X036385Y014842D01*
X036391Y014892D01*
X036401Y014942D01*
X036414Y014990D01*
X036431Y015038D01*
X036452Y015084D01*
X036476Y015128D01*
X036504Y015170D01*
X036535Y015210D01*
X036569Y015247D01*
X036606Y015282D01*
X036645Y015313D01*
X036686Y015342D01*
X036730Y015367D01*
X036776Y015389D01*
X036823Y015407D01*
X036871Y015421D01*
X036920Y015432D01*
X036970Y015439D01*
X037020Y015442D01*
X037071Y015441D01*
X037121Y015436D01*
X037171Y015427D01*
X037219Y015415D01*
X037267Y015398D01*
X037313Y015378D01*
X037358Y015355D01*
X037401Y015328D01*
X037441Y015298D01*
X037479Y015265D01*
X037514Y015229D01*
X037547Y015190D01*
X037576Y015149D01*
X037602Y015106D01*
X037625Y015061D01*
X037644Y015014D01*
X037659Y014966D01*
X037671Y014917D01*
X037679Y014867D01*
X037683Y014817D01*
X037683Y014767D01*
X037679Y014717D01*
X037671Y014667D01*
X037659Y014618D01*
X037644Y014570D01*
X037625Y014523D01*
X037602Y014478D01*
X037576Y014435D01*
X037547Y014394D01*
X037514Y014355D01*
X037479Y014319D01*
X037441Y014286D01*
X037401Y014256D01*
X037358Y014229D01*
X037313Y014206D01*
X037267Y014186D01*
X037219Y014169D01*
X037171Y014157D01*
X037121Y014148D01*
X037071Y014143D01*
X037020Y014142D01*
X036970Y014145D01*
X036920Y014152D01*
X036871Y014163D01*
X036823Y014177D01*
X036776Y014195D01*
X036730Y014217D01*
X036686Y014242D01*
X036645Y014271D01*
X036606Y014302D01*
X036569Y014337D01*
X036535Y014374D01*
X036504Y014414D01*
X036476Y014456D01*
X036452Y014500D01*
X036431Y014546D01*
X036414Y014594D01*
X036401Y014642D01*
X036391Y014692D01*
X036385Y014742D01*
X036383Y014792D01*
X036433Y001342D02*
X036435Y001392D01*
X036441Y001442D01*
X036451Y001492D01*
X036464Y001540D01*
X036481Y001588D01*
X036502Y001634D01*
X036526Y001678D01*
X036554Y001720D01*
X036585Y001760D01*
X036619Y001797D01*
X036656Y001832D01*
X036695Y001863D01*
X036736Y001892D01*
X036780Y001917D01*
X036826Y001939D01*
X036873Y001957D01*
X036921Y001971D01*
X036970Y001982D01*
X037020Y001989D01*
X037070Y001992D01*
X037121Y001991D01*
X037171Y001986D01*
X037221Y001977D01*
X037269Y001965D01*
X037317Y001948D01*
X037363Y001928D01*
X037408Y001905D01*
X037451Y001878D01*
X037491Y001848D01*
X037529Y001815D01*
X037564Y001779D01*
X037597Y001740D01*
X037626Y001699D01*
X037652Y001656D01*
X037675Y001611D01*
X037694Y001564D01*
X037709Y001516D01*
X037721Y001467D01*
X037729Y001417D01*
X037733Y001367D01*
X037733Y001317D01*
X037729Y001267D01*
X037721Y001217D01*
X037709Y001168D01*
X037694Y001120D01*
X037675Y001073D01*
X037652Y001028D01*
X037626Y000985D01*
X037597Y000944D01*
X037564Y000905D01*
X037529Y000869D01*
X037491Y000836D01*
X037451Y000806D01*
X037408Y000779D01*
X037363Y000756D01*
X037317Y000736D01*
X037269Y000719D01*
X037221Y000707D01*
X037171Y000698D01*
X037121Y000693D01*
X037070Y000692D01*
X037020Y000695D01*
X036970Y000702D01*
X036921Y000713D01*
X036873Y000727D01*
X036826Y000745D01*
X036780Y000767D01*
X036736Y000792D01*
X036695Y000821D01*
X036656Y000852D01*
X036619Y000887D01*
X036585Y000924D01*
X036554Y000964D01*
X036526Y001006D01*
X036502Y001050D01*
X036481Y001096D01*
X036464Y001144D01*
X036451Y001192D01*
X036441Y001242D01*
X036435Y001292D01*
X036433Y001342D01*
D11*
X033233Y001842D03*
X035233Y002842D03*
D12*
X034233Y002842D03*
X033233Y002842D03*
X034233Y001842D03*
X035233Y001842D03*
X011133Y002592D03*
X011133Y003692D03*
X005083Y003692D03*
X004083Y003692D03*
X003083Y003692D03*
X003083Y010992D03*
X004083Y010992D03*
X005083Y010992D03*
X005083Y014592D03*
X004083Y014592D03*
D13*
X027723Y014592D02*
X028243Y014592D01*
X028243Y013592D02*
X027723Y013592D01*
X027723Y012592D02*
X028243Y012592D01*
X028243Y011592D02*
X027723Y011592D01*
X027723Y010592D02*
X028243Y010592D01*
X028243Y009592D02*
X027723Y009592D01*
X027723Y008592D02*
X028243Y008592D01*
X028243Y007592D02*
X027723Y007592D01*
X027723Y006592D02*
X028243Y006592D01*
X028243Y005592D02*
X027723Y005592D01*
X027723Y004592D02*
X028243Y004592D01*
X028243Y003592D02*
X027723Y003592D01*
X027723Y002592D02*
X028243Y002592D01*
X028243Y001592D02*
X027723Y001592D01*
X030723Y001592D02*
X031243Y001592D01*
X031243Y002592D02*
X030723Y002592D01*
X030723Y003592D02*
X031243Y003592D01*
X031243Y004592D02*
X030723Y004592D01*
X030723Y005592D02*
X031243Y005592D01*
X031243Y006592D02*
X030723Y006592D01*
X030723Y007592D02*
X031243Y007592D01*
X031243Y008592D02*
X030723Y008592D01*
X030723Y009592D02*
X031243Y009592D01*
X031243Y010592D02*
X030723Y010592D01*
X030723Y011592D02*
X031243Y011592D01*
X031243Y012592D02*
X030723Y012592D01*
X030723Y013592D02*
X031243Y013592D01*
X031243Y014592D02*
X030723Y014592D01*
D14*
X032703Y014482D03*
X035263Y014482D03*
X035263Y012702D03*
X035483Y011592D03*
X032703Y012702D03*
X032483Y011592D03*
X032703Y010232D03*
X035263Y010232D03*
X035263Y008452D03*
X032703Y008452D03*
X032703Y006982D03*
X035263Y006982D03*
X035263Y005202D03*
X032703Y005202D03*
X020083Y009842D03*
X020083Y010742D03*
X020083Y011642D03*
X017083Y011642D03*
X016013Y011482D03*
X017083Y010742D03*
X017083Y009842D03*
X016013Y009702D03*
X013453Y009702D03*
X010483Y011092D03*
X013453Y011482D03*
X009483Y009592D03*
X008483Y009592D03*
X007483Y009592D03*
X007483Y011092D03*
X013983Y014842D03*
X016983Y014842D03*
X009483Y006592D03*
X008483Y006592D03*
X007483Y006592D03*
X012483Y001842D03*
X013483Y001842D03*
X014483Y001842D03*
X017483Y001842D03*
D15*
X009833Y003342D03*
X007583Y002842D03*
X007583Y003842D03*
X014233Y012592D03*
X015233Y012592D03*
X011983Y014592D03*
D16*
X011983Y013592D03*
X008833Y003342D03*
D17*
X009283Y013592D03*
X009283Y014592D03*
D18*
X010983Y009592D03*
D19*
X010983Y008592D03*
X010983Y007592D03*
D20*
X007233Y012642D03*
X007233Y014642D03*
X023883Y011342D03*
X023883Y010142D03*
X037233Y010092D03*
X037233Y011092D03*
X037233Y009092D03*
X037233Y008092D03*
X037233Y007092D03*
X037233Y006092D03*
X037233Y005092D03*
X023733Y001342D03*
X021983Y001842D03*
X020983Y001842D03*
X019983Y001842D03*
D21*
X005977Y007692D03*
X003615Y007692D03*
X004796Y005842D03*
D22*
X005983Y012692D03*
X001983Y012692D03*
D23*
X018733Y013342D03*
X019733Y013342D03*
X020733Y013342D03*
X021733Y013342D03*
X022733Y013342D03*
X023733Y013342D03*
X024733Y013342D03*
X025733Y013342D03*
X025733Y014342D03*
X024733Y014342D03*
X023733Y014342D03*
X022733Y014342D03*
X021733Y014342D03*
X020733Y014342D03*
X019733Y014342D03*
X018733Y014342D03*
D24*
X025433Y004542D03*
X026433Y004542D03*
D25*
X023733Y002342D03*
X018983Y001842D03*
X022883Y010142D03*
X022883Y011342D03*
X037233Y012092D03*
D26*
X016883Y013842D03*
X014083Y013842D03*
D27*
X024783Y008272D03*
X024783Y005713D03*
D28*
X025083Y005992D01*
X026733Y005992D01*
X026733Y005342D01*
X027133Y004892D01*
X027133Y003992D01*
X027583Y003592D01*
X027983Y003592D01*
X028453Y003278D02*
X028557Y003383D01*
X028613Y003519D01*
X028613Y003666D01*
X028557Y003802D01*
X028453Y003906D01*
X028317Y003962D01*
X027650Y003962D01*
X027514Y003906D01*
X027494Y003886D01*
X027293Y004064D01*
X027293Y004887D01*
X027297Y004949D01*
X027293Y004953D01*
X027293Y004958D01*
X027250Y005002D01*
X026893Y005403D01*
X026893Y006058D01*
X026800Y006152D01*
X025086Y006152D01*
X025023Y006154D01*
X025020Y006152D01*
X025017Y006152D01*
X024990Y006125D01*
X024875Y006173D01*
X024692Y006173D01*
X024523Y006103D01*
X024393Y005973D01*
X024323Y005804D01*
X024323Y005621D01*
X024393Y005452D01*
X024523Y005323D01*
X024692Y005253D01*
X024875Y005253D01*
X025044Y005323D01*
X025173Y005452D01*
X025243Y005621D01*
X025243Y005804D01*
X025232Y005832D01*
X026573Y005832D01*
X026573Y005347D01*
X026570Y005285D01*
X026573Y005281D01*
X026573Y005276D01*
X026617Y005232D01*
X026973Y004831D01*
X026973Y004053D01*
X026970Y004049D01*
X026973Y003987D01*
X026973Y003926D01*
X026977Y003922D01*
X026978Y003917D01*
X027024Y003876D01*
X027067Y003832D01*
X027073Y003832D01*
X027353Y003582D01*
X027353Y003519D01*
X027410Y003383D01*
X027514Y003278D01*
X027650Y003222D01*
X028317Y003222D01*
X028453Y003278D01*
X028370Y003244D02*
X030597Y003244D01*
X030650Y003222D02*
X031317Y003222D01*
X031453Y003278D01*
X031512Y003337D01*
X032323Y002526D01*
X032323Y001526D01*
X032573Y001276D01*
X032667Y001182D01*
X034050Y001182D01*
X034143Y001276D01*
X034143Y001436D01*
X034152Y001432D01*
X034315Y001432D01*
X034466Y001495D01*
X034581Y001610D01*
X034643Y001761D01*
X034643Y001924D01*
X034581Y002074D01*
X034466Y002190D01*
X034315Y002252D01*
X034152Y002252D01*
X034001Y002190D01*
X033886Y002074D01*
X033823Y001924D01*
X033823Y001761D01*
X033853Y001688D01*
X033823Y001658D01*
X033823Y001502D01*
X033678Y001502D01*
X033683Y001522D01*
X033683Y001792D01*
X033283Y001792D01*
X033283Y001892D01*
X033183Y001892D01*
X033183Y001792D01*
X032783Y001792D01*
X032783Y001522D01*
X032785Y001517D01*
X032643Y001658D01*
X032643Y002658D01*
X032550Y002752D01*
X032827Y002752D01*
X032823Y002761D02*
X032886Y002610D01*
X033001Y002495D01*
X033152Y002432D01*
X033315Y002432D01*
X033466Y002495D01*
X033581Y002610D01*
X033643Y002761D01*
X033643Y002924D01*
X033581Y003074D01*
X033473Y003182D01*
X033917Y003182D01*
X033955Y003144D01*
X033886Y003074D01*
X033823Y002924D01*
X033823Y002761D01*
X033886Y002610D01*
X034001Y002495D01*
X034152Y002432D01*
X034315Y002432D01*
X034466Y002495D01*
X034581Y002610D01*
X034643Y002761D01*
X034643Y002924D01*
X034581Y003074D01*
X034466Y003190D01*
X034315Y003252D01*
X034300Y003252D01*
X034143Y003408D01*
X034050Y003502D01*
X032300Y003502D01*
X031643Y004158D01*
X031550Y004252D01*
X031389Y004252D01*
X031453Y004278D01*
X031557Y004383D01*
X031578Y004432D01*
X031667Y004432D01*
X032417Y003682D01*
X035073Y003682D01*
X035073Y003252D01*
X034888Y003252D01*
X034823Y003188D01*
X034823Y002497D01*
X034888Y002432D01*
X035579Y002432D01*
X035643Y002497D01*
X035643Y003188D01*
X035579Y003252D01*
X035393Y003252D01*
X035393Y003908D01*
X035300Y004002D01*
X032550Y004002D01*
X032440Y004112D01*
X035638Y004112D01*
X035753Y003997D01*
X035753Y002072D01*
X035582Y002072D01*
X035581Y002074D01*
X035466Y002190D01*
X035315Y002252D01*
X035152Y002252D01*
X035001Y002190D01*
X034886Y002074D01*
X034823Y001924D01*
X034823Y001761D01*
X034886Y001610D01*
X035001Y001495D01*
X035152Y001432D01*
X035315Y001432D01*
X035466Y001495D01*
X035581Y001610D01*
X035582Y001612D01*
X036079Y001612D01*
X036213Y001747D01*
X036213Y004187D01*
X036079Y004322D01*
X035829Y004572D01*
X032579Y004572D01*
X032213Y004937D01*
X032213Y006187D01*
X032134Y006267D01*
X032143Y006276D01*
X032143Y011026D01*
X032276Y011158D01*
X032388Y011112D01*
X032579Y011112D01*
X032755Y011185D01*
X032890Y011320D01*
X032963Y011497D01*
X032963Y011688D01*
X032890Y011864D01*
X032755Y011999D01*
X032579Y012072D01*
X032388Y012072D01*
X032211Y011999D01*
X032076Y011864D01*
X032003Y011688D01*
X032003Y011497D01*
X032050Y011385D01*
X031917Y011252D01*
X031823Y011158D01*
X031823Y006577D01*
X031579Y006822D01*
X031537Y006822D01*
X031453Y006906D01*
X031317Y006962D01*
X030650Y006962D01*
X030514Y006906D01*
X030430Y006822D01*
X030329Y006822D01*
X029713Y007437D01*
X029713Y007937D01*
X029579Y008072D01*
X028829Y008822D01*
X028537Y008822D01*
X028453Y008906D01*
X028317Y008962D01*
X027650Y008962D01*
X027514Y008906D01*
X027430Y008822D01*
X026788Y008822D01*
X026653Y008687D01*
X025388Y007422D01*
X024375Y007422D01*
X022363Y009341D01*
X022363Y012537D01*
X022229Y012672D01*
X020963Y012672D01*
X020963Y012893D01*
X021213Y013143D01*
X021213Y013541D01*
X020932Y013822D01*
X020535Y013822D01*
X020253Y013541D01*
X020253Y013143D01*
X020503Y012893D01*
X020503Y012672D01*
X017073Y012672D01*
X015963Y013693D01*
X015963Y014187D01*
X015829Y014322D01*
X015079Y015072D01*
X014408Y015072D01*
X014390Y015114D01*
X014255Y015249D01*
X014079Y015322D01*
X013888Y015322D01*
X013711Y015249D01*
X013576Y015114D01*
X013503Y014938D01*
X013503Y014747D01*
X013521Y014705D01*
X012753Y013937D01*
X012753Y013437D01*
X012253Y012937D01*
X012253Y009687D01*
X011388Y008822D01*
X011328Y008822D01*
X011328Y008823D01*
X011214Y008937D01*
X011064Y008999D01*
X010902Y008999D01*
X010753Y008937D01*
X010638Y008823D01*
X010576Y008673D01*
X010576Y008511D01*
X010638Y008362D01*
X010753Y008247D01*
X010902Y008185D01*
X011064Y008185D01*
X011214Y008247D01*
X011328Y008362D01*
X011328Y008362D01*
X011579Y008362D01*
X012579Y009362D01*
X012713Y009497D01*
X012713Y012747D01*
X013079Y013112D01*
X013213Y013247D01*
X013213Y013747D01*
X013846Y014379D01*
X013888Y014362D01*
X014079Y014362D01*
X014255Y014435D01*
X014390Y014570D01*
X014408Y014612D01*
X014888Y014612D01*
X015503Y013997D01*
X015503Y013682D01*
X015500Y013678D01*
X015503Y013587D01*
X015503Y013497D01*
X015507Y013493D01*
X015507Y013487D01*
X015574Y013426D01*
X015638Y013362D01*
X015644Y013362D01*
X016824Y012276D01*
X016888Y012212D01*
X016894Y012212D01*
X016898Y012208D01*
X016988Y012212D01*
X021903Y012212D01*
X021903Y009334D01*
X021901Y009332D01*
X021903Y009239D01*
X021903Y009147D01*
X021906Y009145D01*
X021906Y009141D01*
X021973Y009078D01*
X022038Y009012D01*
X022041Y009012D01*
X024123Y007028D01*
X024188Y006962D01*
X024191Y006962D01*
X024194Y006960D01*
X024286Y006962D01*
X025579Y006962D01*
X026979Y008362D01*
X027430Y008362D01*
X027514Y008278D01*
X027650Y008222D01*
X028317Y008222D01*
X028453Y008278D01*
X028537Y008362D01*
X028638Y008362D01*
X029253Y007747D01*
X029253Y007247D01*
X030003Y006497D01*
X030138Y006362D01*
X030430Y006362D01*
X030514Y006278D01*
X030650Y006222D01*
X031317Y006222D01*
X031453Y006278D01*
X031462Y006288D01*
X031628Y006122D01*
X031753Y005997D01*
X031753Y004752D01*
X031578Y004752D01*
X031557Y004802D01*
X031453Y004906D01*
X031317Y004962D01*
X030650Y004962D01*
X030514Y004906D01*
X030410Y004802D01*
X030353Y004666D01*
X030353Y004519D01*
X030410Y004383D01*
X030514Y004278D01*
X030577Y004252D01*
X030143Y004252D01*
X030143Y004932D01*
X030550Y004932D01*
X030840Y005222D01*
X031317Y005222D01*
X031453Y005278D01*
X031557Y005383D01*
X031613Y005519D01*
X031613Y005666D01*
X031557Y005802D01*
X031453Y005906D01*
X031317Y005962D01*
X030650Y005962D01*
X030514Y005906D01*
X030410Y005802D01*
X030353Y005666D01*
X030353Y005519D01*
X030410Y005383D01*
X030479Y005314D01*
X030417Y005252D01*
X029917Y005252D01*
X029823Y005158D01*
X029823Y004026D01*
X029917Y003932D01*
X030577Y003932D01*
X030514Y003906D01*
X030410Y003802D01*
X030353Y003666D01*
X030353Y003519D01*
X030410Y003383D01*
X030514Y003278D01*
X030650Y003222D01*
X030450Y003343D02*
X028517Y003343D01*
X028581Y003441D02*
X030385Y003441D01*
X030353Y003540D02*
X028613Y003540D01*
X028613Y003638D02*
X030353Y003638D01*
X030383Y003737D02*
X028584Y003737D01*
X028524Y003835D02*
X030443Y003835D01*
X029916Y003934D02*
X028386Y003934D01*
X028317Y004222D02*
X028453Y004278D01*
X028557Y004383D01*
X028613Y004519D01*
X028613Y004666D01*
X028557Y004802D01*
X028453Y004906D01*
X028317Y004962D01*
X027650Y004962D01*
X027514Y004906D01*
X027410Y004802D01*
X027353Y004666D01*
X027353Y004519D01*
X027410Y004383D01*
X027514Y004278D01*
X027650Y004222D01*
X028317Y004222D01*
X028334Y004229D02*
X029823Y004229D01*
X029823Y004131D02*
X027293Y004131D01*
X027293Y004229D02*
X027633Y004229D01*
X027465Y004328D02*
X027293Y004328D01*
X027293Y004426D02*
X027392Y004426D01*
X027353Y004525D02*
X027293Y004525D01*
X027293Y004623D02*
X027353Y004623D01*
X027376Y004722D02*
X027293Y004722D01*
X027293Y004820D02*
X027428Y004820D01*
X027545Y004919D02*
X027295Y004919D01*
X027236Y005017D02*
X029823Y005017D01*
X029823Y004919D02*
X028422Y004919D01*
X028539Y004820D02*
X029823Y004820D01*
X029823Y004722D02*
X028590Y004722D01*
X028613Y004623D02*
X029823Y004623D01*
X029823Y004525D02*
X028613Y004525D01*
X028575Y004426D02*
X029823Y004426D01*
X029823Y004328D02*
X028502Y004328D01*
X027581Y003934D02*
X027440Y003934D01*
X027329Y004032D02*
X029823Y004032D01*
X029983Y004092D02*
X029983Y005092D01*
X030483Y005092D01*
X030983Y005592D01*
X031487Y005313D02*
X031753Y005313D01*
X031753Y005411D02*
X031569Y005411D01*
X031610Y005510D02*
X031753Y005510D01*
X031753Y005608D02*
X031613Y005608D01*
X031596Y005707D02*
X031753Y005707D01*
X031753Y005805D02*
X031554Y005805D01*
X031455Y005904D02*
X031753Y005904D01*
X031748Y006002D02*
X026893Y006002D01*
X026893Y005904D02*
X027512Y005904D01*
X027514Y005906D02*
X027410Y005802D01*
X027353Y005666D01*
X027353Y005519D01*
X027410Y005383D01*
X027514Y005278D01*
X027650Y005222D01*
X028317Y005222D01*
X028453Y005278D01*
X028557Y005383D01*
X028613Y005519D01*
X028613Y005666D01*
X028557Y005802D01*
X028453Y005906D01*
X028317Y005962D01*
X027650Y005962D01*
X027514Y005906D01*
X027413Y005805D02*
X026893Y005805D01*
X026893Y005707D02*
X027370Y005707D01*
X027353Y005608D02*
X026893Y005608D01*
X026893Y005510D02*
X027357Y005510D01*
X027398Y005411D02*
X026893Y005411D01*
X026974Y005313D02*
X027480Y005313D01*
X027061Y005214D02*
X029879Y005214D01*
X029823Y005116D02*
X027149Y005116D01*
X026896Y004919D02*
X026674Y004919D01*
X026683Y004915D02*
X026521Y004982D01*
X026346Y004982D01*
X026184Y004915D01*
X026060Y004791D01*
X025993Y004630D01*
X025993Y004455D01*
X026060Y004293D01*
X026184Y004169D01*
X026346Y004102D01*
X026521Y004102D01*
X026683Y004169D01*
X026806Y004293D01*
X026873Y004455D01*
X026873Y004630D01*
X026806Y004791D01*
X026683Y004915D01*
X026778Y004820D02*
X026973Y004820D01*
X026973Y004722D02*
X026835Y004722D01*
X026873Y004623D02*
X026973Y004623D01*
X026973Y004525D02*
X026873Y004525D01*
X026862Y004426D02*
X026973Y004426D01*
X026973Y004328D02*
X026821Y004328D01*
X026743Y004229D02*
X026973Y004229D01*
X026973Y004131D02*
X026590Y004131D01*
X026277Y004131D02*
X025590Y004131D01*
X025521Y004102D02*
X025683Y004169D01*
X025806Y004293D01*
X025873Y004455D01*
X025873Y004630D01*
X025806Y004791D01*
X025683Y004915D01*
X025521Y004982D01*
X025346Y004982D01*
X025184Y004915D01*
X025060Y004791D01*
X024993Y004630D01*
X024993Y004455D01*
X025060Y004293D01*
X025184Y004169D01*
X025346Y004102D01*
X025521Y004102D01*
X025277Y004131D02*
X021643Y004131D01*
X021643Y004229D02*
X025124Y004229D01*
X025046Y004328D02*
X021643Y004328D01*
X021643Y004426D02*
X025005Y004426D01*
X024993Y004525D02*
X021643Y004525D01*
X021643Y004623D02*
X024993Y004623D01*
X025031Y004722D02*
X021643Y004722D01*
X021643Y004820D02*
X025089Y004820D01*
X025193Y004919D02*
X021643Y004919D01*
X021643Y005017D02*
X026808Y005017D01*
X026721Y005116D02*
X021643Y005116D01*
X021643Y005214D02*
X026633Y005214D01*
X026571Y005313D02*
X025020Y005313D01*
X025132Y005411D02*
X026573Y005411D01*
X026573Y005510D02*
X025197Y005510D01*
X025238Y005608D02*
X026573Y005608D01*
X026573Y005707D02*
X025243Y005707D01*
X025243Y005805D02*
X026573Y005805D01*
X026851Y006101D02*
X031650Y006101D01*
X031551Y006199D02*
X021643Y006199D01*
X021643Y006101D02*
X024521Y006101D01*
X024422Y006002D02*
X021643Y006002D01*
X021643Y005904D02*
X024365Y005904D01*
X024324Y005805D02*
X021643Y005805D01*
X021643Y005707D02*
X024323Y005707D01*
X024329Y005608D02*
X021643Y005608D01*
X021643Y005510D02*
X024369Y005510D01*
X024434Y005411D02*
X021643Y005411D01*
X021643Y005313D02*
X024547Y005313D01*
X025674Y004919D02*
X026193Y004919D01*
X026089Y004820D02*
X025778Y004820D01*
X025835Y004722D02*
X026031Y004722D01*
X025993Y004623D02*
X025873Y004623D01*
X025873Y004525D02*
X025993Y004525D01*
X026005Y004426D02*
X025862Y004426D01*
X025821Y004328D02*
X026046Y004328D01*
X026124Y004229D02*
X025743Y004229D01*
X026971Y004032D02*
X021643Y004032D01*
X021643Y003934D02*
X026973Y003934D01*
X027064Y003835D02*
X021643Y003835D01*
X021643Y003737D02*
X027180Y003737D01*
X027291Y003638D02*
X021643Y003638D01*
X021643Y003540D02*
X027353Y003540D01*
X027385Y003441D02*
X021643Y003441D01*
X021643Y003343D02*
X027450Y003343D01*
X027597Y003244D02*
X021643Y003244D01*
X021643Y003146D02*
X031704Y003146D01*
X031802Y003047D02*
X021643Y003047D01*
X021643Y002949D02*
X027617Y002949D01*
X027650Y002962D02*
X027514Y002906D01*
X027410Y002802D01*
X027353Y002666D01*
X027353Y002519D01*
X027410Y002383D01*
X027514Y002278D01*
X027650Y002222D01*
X028317Y002222D01*
X028453Y002278D01*
X028557Y002383D01*
X028613Y002519D01*
X028613Y002666D01*
X028557Y002802D01*
X028453Y002906D01*
X028317Y002962D01*
X027650Y002962D01*
X027458Y002850D02*
X021643Y002850D01*
X021643Y002752D02*
X027389Y002752D01*
X027353Y002653D02*
X024093Y002653D01*
X024101Y002645D02*
X024036Y002710D01*
X023430Y002710D01*
X023366Y002645D01*
X023366Y002201D01*
X022417Y001252D01*
X017300Y001252D01*
X016477Y002074D01*
X016521Y002118D01*
X016521Y002566D01*
X016457Y002630D01*
X016010Y002630D01*
X015945Y002566D01*
X015945Y002118D01*
X016010Y002054D01*
X016073Y002054D01*
X016073Y002026D01*
X017073Y001026D01*
X017167Y000932D01*
X022550Y000932D01*
X023592Y001975D01*
X024036Y001975D01*
X024101Y002039D01*
X024101Y002645D01*
X024101Y002555D02*
X027353Y002555D01*
X027379Y002456D02*
X024101Y002456D01*
X024101Y002358D02*
X027435Y002358D01*
X027560Y002259D02*
X024101Y002259D01*
X024101Y002161D02*
X032323Y002161D01*
X032323Y002259D02*
X031406Y002259D01*
X031453Y002278D02*
X031557Y002383D01*
X031613Y002519D01*
X031613Y002666D01*
X031557Y002802D01*
X031453Y002906D01*
X031317Y002962D01*
X030650Y002962D01*
X030514Y002906D01*
X030410Y002802D01*
X030353Y002666D01*
X030353Y002519D01*
X030410Y002383D01*
X030514Y002278D01*
X030650Y002222D01*
X031317Y002222D01*
X031453Y002278D01*
X031532Y002358D02*
X032323Y002358D01*
X032323Y002456D02*
X031587Y002456D01*
X031613Y002555D02*
X032295Y002555D01*
X032196Y002653D02*
X031613Y002653D01*
X031578Y002752D02*
X032098Y002752D01*
X031999Y002850D02*
X031509Y002850D01*
X031350Y002949D02*
X031901Y002949D01*
X032156Y003146D02*
X032957Y003146D01*
X032994Y003182D02*
X032886Y003074D01*
X032823Y002924D01*
X032823Y002761D01*
X032823Y002850D02*
X032452Y002850D01*
X032550Y002752D02*
X031597Y003704D01*
X031564Y003785D01*
X032167Y003182D01*
X032994Y003182D01*
X032874Y003047D02*
X032255Y003047D01*
X032353Y002949D02*
X032834Y002949D01*
X032868Y002653D02*
X032643Y002653D01*
X032643Y002555D02*
X032941Y002555D01*
X033094Y002456D02*
X032643Y002456D01*
X032643Y002358D02*
X035753Y002358D01*
X035753Y002456D02*
X035603Y002456D01*
X035643Y002555D02*
X035753Y002555D01*
X035753Y002653D02*
X035643Y002653D01*
X035643Y002752D02*
X035753Y002752D01*
X035753Y002850D02*
X035643Y002850D01*
X035643Y002949D02*
X035753Y002949D01*
X035753Y003047D02*
X035643Y003047D01*
X035643Y003146D02*
X035753Y003146D01*
X035753Y003244D02*
X035587Y003244D01*
X035753Y003343D02*
X035393Y003343D01*
X035393Y003441D02*
X035753Y003441D01*
X035753Y003540D02*
X035393Y003540D01*
X035393Y003638D02*
X035753Y003638D01*
X035753Y003737D02*
X035393Y003737D01*
X035393Y003835D02*
X035753Y003835D01*
X035753Y003934D02*
X035368Y003934D01*
X035233Y003842D02*
X032483Y003842D01*
X031733Y004592D01*
X030983Y004592D01*
X030545Y004919D02*
X030143Y004919D01*
X030143Y004820D02*
X030428Y004820D01*
X030376Y004722D02*
X030143Y004722D01*
X030143Y004623D02*
X030353Y004623D01*
X030353Y004525D02*
X030143Y004525D01*
X030143Y004426D02*
X030392Y004426D01*
X030465Y004328D02*
X030143Y004328D01*
X029983Y004092D02*
X031483Y004092D01*
X032233Y003342D01*
X033983Y003342D01*
X034233Y003092D01*
X034233Y002842D01*
X033823Y002850D02*
X033643Y002850D01*
X033640Y002752D02*
X033827Y002752D01*
X033868Y002653D02*
X033599Y002653D01*
X033526Y002555D02*
X033941Y002555D01*
X034094Y002456D02*
X033373Y002456D01*
X033283Y002292D02*
X033283Y001892D01*
X033683Y001892D01*
X033683Y002162D01*
X033673Y002200D01*
X033653Y002234D01*
X033625Y002262D01*
X033591Y002282D01*
X033553Y002292D01*
X033283Y002292D01*
X033283Y002259D02*
X033183Y002259D01*
X033183Y002292D02*
X032914Y002292D01*
X032875Y002282D01*
X032841Y002262D01*
X032813Y002234D01*
X032794Y002200D01*
X032783Y002162D01*
X032783Y001892D01*
X033183Y001892D01*
X033183Y002292D01*
X033183Y002161D02*
X033283Y002161D01*
X033283Y002062D02*
X033183Y002062D01*
X033183Y001964D02*
X033283Y001964D01*
X033283Y001865D02*
X033823Y001865D01*
X033823Y001767D02*
X033683Y001767D01*
X033683Y001668D02*
X033833Y001668D01*
X033823Y001570D02*
X033683Y001570D01*
X033983Y001592D02*
X033983Y001342D01*
X032733Y001342D01*
X032483Y001592D01*
X032483Y002592D01*
X031483Y003592D01*
X030983Y003592D01*
X031584Y003737D02*
X031613Y003737D01*
X031664Y003638D02*
X031711Y003638D01*
X031762Y003540D02*
X031810Y003540D01*
X031861Y003441D02*
X031908Y003441D01*
X031959Y003343D02*
X032007Y003343D01*
X032058Y003244D02*
X032105Y003244D01*
X032262Y003540D02*
X035073Y003540D01*
X035073Y003638D02*
X032164Y003638D01*
X032065Y003737D02*
X032363Y003737D01*
X032264Y003835D02*
X031967Y003835D01*
X031868Y003934D02*
X032166Y003934D01*
X032067Y004032D02*
X031770Y004032D01*
X031671Y004131D02*
X031969Y004131D01*
X031870Y004229D02*
X031573Y004229D01*
X031502Y004328D02*
X031772Y004328D01*
X031673Y004426D02*
X031575Y004426D01*
X031539Y004820D02*
X031753Y004820D01*
X031753Y004919D02*
X031422Y004919D01*
X031753Y005017D02*
X030635Y005017D01*
X030733Y005116D02*
X031753Y005116D01*
X031753Y005214D02*
X030832Y005214D01*
X030478Y005313D02*
X028487Y005313D01*
X028569Y005411D02*
X030398Y005411D01*
X030357Y005510D02*
X028610Y005510D01*
X028613Y005608D02*
X030353Y005608D01*
X030370Y005707D02*
X028596Y005707D01*
X028554Y005805D02*
X030413Y005805D01*
X030512Y005904D02*
X028455Y005904D01*
X028317Y006222D02*
X027650Y006222D01*
X027514Y006278D01*
X027410Y006383D01*
X027353Y006519D01*
X027353Y006666D01*
X027410Y006802D01*
X027514Y006906D01*
X027650Y006962D01*
X028317Y006962D01*
X028453Y006906D01*
X028557Y006802D01*
X028613Y006666D01*
X028613Y006519D01*
X028557Y006383D01*
X028453Y006278D01*
X028317Y006222D01*
X028472Y006298D02*
X030495Y006298D01*
X030104Y006396D02*
X028563Y006396D01*
X028603Y006495D02*
X030006Y006495D01*
X029907Y006593D02*
X028613Y006593D01*
X028603Y006692D02*
X029809Y006692D01*
X029710Y006790D02*
X028562Y006790D01*
X028470Y006889D02*
X029612Y006889D01*
X029513Y006987D02*
X025604Y006987D01*
X025702Y007086D02*
X029415Y007086D01*
X029316Y007184D02*
X028288Y007184D01*
X028276Y007182D02*
X028339Y007192D01*
X028401Y007212D01*
X028458Y007241D01*
X028510Y007279D01*
X028556Y007325D01*
X028594Y007377D01*
X028623Y007435D01*
X028643Y007496D01*
X028653Y007560D01*
X028653Y007562D01*
X028013Y007562D01*
X028013Y007182D01*
X028276Y007182D01*
X028514Y007283D02*
X029253Y007283D01*
X029253Y007381D02*
X028596Y007381D01*
X028638Y007480D02*
X029253Y007480D01*
X029253Y007578D02*
X028013Y007578D01*
X028013Y007562D02*
X028013Y007622D01*
X027953Y007622D01*
X027953Y007562D01*
X027313Y007562D01*
X027313Y007560D01*
X027323Y007496D01*
X027343Y007435D01*
X027373Y007377D01*
X027411Y007325D01*
X027456Y007279D01*
X027508Y007241D01*
X027566Y007212D01*
X027627Y007192D01*
X027691Y007182D01*
X027953Y007182D01*
X027953Y007562D01*
X028013Y007562D01*
X028013Y007622D02*
X028653Y007622D01*
X028653Y007624D01*
X028643Y007688D01*
X028623Y007750D01*
X028594Y007807D01*
X028556Y007859D01*
X028510Y007905D01*
X028458Y007943D01*
X028401Y007972D01*
X028339Y007992D01*
X028276Y008002D01*
X028013Y008002D01*
X028013Y007622D01*
X028013Y007677D02*
X027953Y007677D01*
X027953Y007622D02*
X027953Y008002D01*
X027691Y008002D01*
X027627Y007992D01*
X027566Y007972D01*
X027508Y007943D01*
X027456Y007905D01*
X027411Y007859D01*
X027373Y007807D01*
X027343Y007750D01*
X027323Y007688D01*
X027313Y007624D01*
X027313Y007622D01*
X027953Y007622D01*
X027953Y007578D02*
X026195Y007578D01*
X026293Y007677D02*
X027322Y007677D01*
X027356Y007775D02*
X026392Y007775D01*
X026490Y007874D02*
X027425Y007874D01*
X027566Y007972D02*
X026589Y007972D01*
X026687Y008071D02*
X028930Y008071D01*
X029028Y007972D02*
X028401Y007972D01*
X028542Y007874D02*
X029127Y007874D01*
X029225Y007775D02*
X028610Y007775D01*
X028645Y007677D02*
X029253Y007677D01*
X029713Y007677D02*
X030358Y007677D01*
X030353Y007666D02*
X030353Y007519D01*
X030410Y007383D01*
X030514Y007278D01*
X030650Y007222D01*
X031317Y007222D01*
X031453Y007278D01*
X031557Y007383D01*
X031613Y007519D01*
X031613Y007666D01*
X031557Y007802D01*
X031453Y007906D01*
X031317Y007962D01*
X030650Y007962D01*
X030514Y007906D01*
X030410Y007802D01*
X030353Y007666D01*
X030353Y007578D02*
X029713Y007578D01*
X029713Y007480D02*
X030369Y007480D01*
X030411Y007381D02*
X029770Y007381D01*
X029868Y007283D02*
X030510Y007283D01*
X030065Y007086D02*
X031823Y007086D01*
X031823Y007184D02*
X029967Y007184D01*
X030164Y006987D02*
X031823Y006987D01*
X031823Y006889D02*
X031470Y006889D01*
X031611Y006790D02*
X031823Y006790D01*
X031823Y006692D02*
X031709Y006692D01*
X031808Y006593D02*
X031823Y006593D01*
X032143Y006593D02*
X032413Y006593D01*
X032431Y006575D02*
X032608Y006502D01*
X032799Y006502D01*
X032975Y006575D01*
X033110Y006710D01*
X033183Y006887D01*
X033183Y007078D01*
X033110Y007254D01*
X032975Y007389D01*
X032799Y007462D01*
X032608Y007462D01*
X032431Y007389D01*
X032296Y007254D01*
X032223Y007078D01*
X032223Y006887D01*
X032296Y006710D01*
X032431Y006575D01*
X032315Y006692D02*
X032143Y006692D01*
X032143Y006790D02*
X032263Y006790D01*
X032223Y006889D02*
X032143Y006889D01*
X032143Y006987D02*
X032223Y006987D01*
X032227Y007086D02*
X032143Y007086D01*
X032143Y007184D02*
X032267Y007184D01*
X032325Y007283D02*
X032143Y007283D01*
X032143Y007381D02*
X032424Y007381D01*
X032143Y007480D02*
X036123Y007480D01*
X036123Y007578D02*
X032143Y007578D01*
X032143Y007677D02*
X036123Y007677D01*
X036123Y007775D02*
X032143Y007775D01*
X032143Y007874D02*
X036123Y007874D01*
X036123Y007972D02*
X035359Y007972D01*
X035535Y008045D01*
X035670Y008180D01*
X035743Y008357D01*
X035743Y008548D01*
X035670Y008724D01*
X035535Y008859D01*
X035359Y008932D01*
X035168Y008932D01*
X034991Y008859D01*
X032976Y008859D01*
X032975Y008859D02*
X032799Y008932D01*
X032608Y008932D01*
X032431Y008859D01*
X032143Y008859D01*
X032143Y008957D02*
X036123Y008957D01*
X036123Y008859D02*
X035536Y008859D01*
X035634Y008760D02*
X036123Y008760D01*
X036123Y008662D02*
X035696Y008662D01*
X035737Y008563D02*
X036123Y008563D01*
X036123Y008465D02*
X035743Y008465D01*
X035743Y008366D02*
X036123Y008366D01*
X036123Y008268D02*
X035706Y008268D01*
X035659Y008169D02*
X036123Y008169D01*
X036123Y008071D02*
X035561Y008071D01*
X035359Y007972D02*
X035168Y007972D01*
X034991Y008045D01*
X034856Y008180D01*
X034783Y008357D01*
X034783Y008548D01*
X034856Y008724D01*
X034991Y008859D01*
X034893Y008760D02*
X033074Y008760D01*
X033110Y008724D02*
X032975Y008859D01*
X033110Y008724D02*
X033183Y008548D01*
X033183Y008357D01*
X033110Y008180D01*
X032975Y008045D01*
X032799Y007972D01*
X035168Y007972D01*
X034966Y008071D02*
X033001Y008071D01*
X033099Y008169D02*
X034867Y008169D01*
X034820Y008268D02*
X033146Y008268D01*
X033183Y008366D02*
X034783Y008366D01*
X034783Y008465D02*
X033183Y008465D01*
X033177Y008563D02*
X034790Y008563D01*
X034831Y008662D02*
X033136Y008662D01*
X032431Y008859D02*
X032296Y008724D01*
X032223Y008548D01*
X032223Y008357D01*
X032296Y008180D01*
X032431Y008045D01*
X032608Y007972D01*
X032799Y007972D01*
X032608Y007972D02*
X032143Y007972D01*
X032143Y008071D02*
X032406Y008071D01*
X032307Y008169D02*
X032143Y008169D01*
X032143Y008268D02*
X032260Y008268D01*
X032223Y008366D02*
X032143Y008366D01*
X032143Y008465D02*
X032223Y008465D01*
X032230Y008563D02*
X032143Y008563D01*
X032143Y008662D02*
X032271Y008662D01*
X032333Y008760D02*
X032143Y008760D01*
X031823Y008760D02*
X031618Y008760D01*
X031623Y008750D02*
X031594Y008807D01*
X031556Y008859D01*
X031510Y008905D01*
X031458Y008943D01*
X031401Y008972D01*
X031339Y008992D01*
X031276Y009002D01*
X031013Y009002D01*
X031013Y008622D01*
X030953Y008622D01*
X030953Y008562D01*
X030313Y008562D01*
X030313Y008560D01*
X030323Y008496D01*
X030343Y008435D01*
X030373Y008377D01*
X030411Y008325D01*
X030456Y008279D01*
X030508Y008241D01*
X030566Y008212D01*
X030627Y008192D01*
X030691Y008182D01*
X030953Y008182D01*
X030953Y008562D01*
X031013Y008562D01*
X031013Y008182D01*
X031276Y008182D01*
X031339Y008192D01*
X031401Y008212D01*
X031458Y008241D01*
X031510Y008279D01*
X031556Y008325D01*
X031594Y008377D01*
X031623Y008435D01*
X031643Y008496D01*
X031653Y008560D01*
X031653Y008562D01*
X031013Y008562D01*
X031013Y008622D01*
X031653Y008622D01*
X031653Y008624D01*
X031643Y008688D01*
X031623Y008750D01*
X031647Y008662D02*
X031823Y008662D01*
X031823Y008563D02*
X031013Y008563D01*
X030953Y008563D02*
X029088Y008563D01*
X029186Y008465D02*
X030334Y008465D01*
X030381Y008366D02*
X029285Y008366D01*
X029383Y008268D02*
X030472Y008268D01*
X030313Y008622D02*
X030953Y008622D01*
X030953Y009002D01*
X030691Y009002D01*
X030627Y008992D01*
X030566Y008972D01*
X030508Y008943D01*
X030456Y008905D01*
X030411Y008859D01*
X030373Y008807D01*
X030343Y008750D01*
X030323Y008688D01*
X030313Y008624D01*
X030313Y008622D01*
X030319Y008662D02*
X028989Y008662D01*
X028891Y008760D02*
X030349Y008760D01*
X030410Y008859D02*
X028500Y008859D01*
X028329Y008957D02*
X030537Y008957D01*
X030953Y008957D02*
X031013Y008957D01*
X031013Y008859D02*
X030953Y008859D01*
X030953Y008760D02*
X031013Y008760D01*
X031013Y008662D02*
X030953Y008662D01*
X031430Y008957D02*
X031823Y008957D01*
X031823Y008859D02*
X031556Y008859D01*
X031823Y009056D02*
X022662Y009056D01*
X022559Y009154D02*
X031823Y009154D01*
X031823Y009253D02*
X031391Y009253D01*
X031453Y009278D02*
X031557Y009383D01*
X031613Y009519D01*
X031613Y009666D01*
X031557Y009802D01*
X031453Y009906D01*
X031317Y009962D01*
X030650Y009962D01*
X030514Y009906D01*
X030410Y009802D01*
X030353Y009666D01*
X030353Y009519D01*
X030410Y009383D01*
X030514Y009278D01*
X030650Y009222D01*
X031317Y009222D01*
X031453Y009278D01*
X031526Y009351D02*
X031823Y009351D01*
X031823Y009450D02*
X031585Y009450D01*
X031613Y009548D02*
X031823Y009548D01*
X031823Y009647D02*
X031613Y009647D01*
X031580Y009745D02*
X031823Y009745D01*
X031823Y009844D02*
X031515Y009844D01*
X031365Y009942D02*
X031823Y009942D01*
X031823Y010041D02*
X026563Y010041D01*
X026480Y010139D02*
X031823Y010139D01*
X031823Y010238D02*
X031354Y010238D01*
X031317Y010222D02*
X031453Y010278D01*
X031557Y010383D01*
X031613Y010519D01*
X031613Y010666D01*
X031557Y010802D01*
X031453Y010906D01*
X031317Y010962D01*
X030650Y010962D01*
X030514Y010906D01*
X030410Y010802D01*
X030353Y010666D01*
X030353Y010519D01*
X030410Y010383D01*
X030514Y010278D01*
X030650Y010222D01*
X031317Y010222D01*
X031511Y010336D02*
X031823Y010336D01*
X031823Y010435D02*
X031579Y010435D01*
X031613Y010533D02*
X031823Y010533D01*
X031823Y010632D02*
X031613Y010632D01*
X031587Y010730D02*
X031823Y010730D01*
X031823Y010829D02*
X031530Y010829D01*
X031401Y010927D02*
X031823Y010927D01*
X031823Y011026D02*
X027143Y011026D01*
X027143Y011124D02*
X031823Y011124D01*
X031888Y011223D02*
X031318Y011223D01*
X031317Y011222D02*
X031453Y011278D01*
X031557Y011383D01*
X031613Y011519D01*
X031613Y011666D01*
X031557Y011802D01*
X031453Y011906D01*
X031317Y011962D01*
X030650Y011962D01*
X030514Y011906D01*
X030410Y011802D01*
X030353Y011666D01*
X030353Y011519D01*
X030410Y011383D01*
X030514Y011278D01*
X030650Y011222D01*
X031317Y011222D01*
X031496Y011321D02*
X031986Y011321D01*
X031917Y011252D02*
X031917Y011252D01*
X031983Y011092D02*
X031983Y006342D01*
X031858Y006217D01*
X032143Y006298D02*
X036123Y006298D01*
X036123Y006396D02*
X032143Y006396D01*
X032143Y006495D02*
X036123Y006495D01*
X036123Y006593D02*
X035553Y006593D01*
X035535Y006575D02*
X035670Y006710D01*
X035743Y006887D01*
X035743Y007078D01*
X035670Y007254D01*
X035535Y007389D01*
X035359Y007462D01*
X035168Y007462D01*
X034991Y007389D01*
X034856Y007254D01*
X034783Y007078D01*
X034783Y006887D01*
X034856Y006710D01*
X034991Y006575D01*
X035168Y006502D01*
X035359Y006502D01*
X035535Y006575D01*
X035652Y006692D02*
X036123Y006692D01*
X036123Y006790D02*
X035703Y006790D01*
X035743Y006889D02*
X036123Y006889D01*
X036123Y006987D02*
X035743Y006987D01*
X035740Y007086D02*
X036123Y007086D01*
X036123Y007184D02*
X035699Y007184D01*
X035642Y007283D02*
X036123Y007283D01*
X036123Y007381D02*
X035543Y007381D01*
X034984Y007381D02*
X032983Y007381D01*
X033082Y007283D02*
X034885Y007283D01*
X034827Y007184D02*
X033139Y007184D01*
X033180Y007086D02*
X034787Y007086D01*
X034783Y006987D02*
X033183Y006987D01*
X033183Y006889D02*
X034783Y006889D01*
X034823Y006790D02*
X033143Y006790D01*
X033092Y006692D02*
X034875Y006692D01*
X034973Y006593D02*
X032993Y006593D01*
X032202Y006199D02*
X036123Y006199D01*
X036123Y006101D02*
X032213Y006101D01*
X032213Y006002D02*
X036123Y006002D01*
X036123Y005904D02*
X032213Y005904D01*
X032213Y005805D02*
X036123Y005805D01*
X036123Y005707D02*
X035393Y005707D01*
X035385Y005709D02*
X035313Y005721D01*
X035313Y005252D01*
X035213Y005252D01*
X035213Y005152D01*
X034745Y005152D01*
X034756Y005080D01*
X034781Y005003D01*
X034819Y004930D01*
X034867Y004863D01*
X034925Y004805D01*
X034991Y004757D01*
X035064Y004720D01*
X035142Y004695D01*
X035213Y004684D01*
X035213Y005152D01*
X035313Y005152D01*
X035313Y004684D01*
X035385Y004695D01*
X035463Y004720D01*
X035536Y004757D01*
X035602Y004805D01*
X035660Y004863D01*
X035708Y004930D01*
X035745Y005003D01*
X035771Y005080D01*
X035782Y005152D01*
X035313Y005152D01*
X035313Y005252D01*
X035782Y005252D01*
X035771Y005324D01*
X035745Y005402D01*
X035708Y005475D01*
X035660Y005541D01*
X035602Y005599D01*
X035536Y005647D01*
X035463Y005684D01*
X035385Y005709D01*
X035313Y005707D02*
X035213Y005707D01*
X035213Y005721D02*
X035142Y005709D01*
X035064Y005684D01*
X034991Y005647D01*
X034925Y005599D01*
X034867Y005541D01*
X034819Y005475D01*
X034781Y005402D01*
X034756Y005324D01*
X034745Y005252D01*
X035213Y005252D01*
X035213Y005721D01*
X035133Y005707D02*
X032213Y005707D01*
X032213Y005608D02*
X032431Y005608D01*
X032431Y005609D02*
X032296Y005474D01*
X032223Y005298D01*
X032223Y005107D01*
X032296Y004930D01*
X032431Y004795D01*
X032608Y004722D01*
X032799Y004722D01*
X032975Y004795D01*
X033110Y004930D01*
X033183Y005107D01*
X033183Y005298D01*
X033110Y005474D01*
X032975Y005609D01*
X032799Y005682D01*
X032608Y005682D01*
X032431Y005609D01*
X032332Y005510D02*
X032213Y005510D01*
X032213Y005411D02*
X032270Y005411D01*
X032230Y005313D02*
X032213Y005313D01*
X032213Y005214D02*
X032223Y005214D01*
X032213Y005116D02*
X032223Y005116D01*
X032213Y005017D02*
X032260Y005017D01*
X032232Y004919D02*
X032308Y004919D01*
X032331Y004820D02*
X032406Y004820D01*
X032429Y004722D02*
X035061Y004722D01*
X035213Y004722D02*
X035313Y004722D01*
X035313Y004820D02*
X035213Y004820D01*
X035213Y004919D02*
X035313Y004919D01*
X035313Y005017D02*
X035213Y005017D01*
X035213Y005116D02*
X035313Y005116D01*
X035313Y005214D02*
X036123Y005214D01*
X036123Y005116D02*
X035776Y005116D01*
X035750Y005017D02*
X036123Y005017D01*
X036123Y004919D02*
X035700Y004919D01*
X035617Y004820D02*
X036123Y004820D01*
X036123Y004722D02*
X035466Y004722D01*
X035876Y004525D02*
X036275Y004525D01*
X036217Y004582D02*
X036823Y003976D01*
X036823Y003864D01*
X036754Y003795D01*
X036713Y003696D01*
X036713Y003588D01*
X036754Y003489D01*
X036830Y003413D01*
X036930Y003372D01*
X037037Y003372D01*
X037136Y003413D01*
X037212Y003489D01*
X037253Y003588D01*
X037253Y003696D01*
X037212Y003795D01*
X037143Y003864D01*
X037143Y004108D01*
X036443Y004808D01*
X036443Y010308D01*
X035793Y010958D01*
X035700Y011052D01*
X034900Y011052D01*
X034143Y011808D01*
X034143Y014108D01*
X033743Y014508D01*
X033650Y014602D01*
X033173Y014602D01*
X033110Y014754D01*
X032975Y014889D01*
X032799Y014962D01*
X032608Y014962D01*
X032431Y014889D01*
X032296Y014754D01*
X032223Y014578D01*
X032223Y014387D01*
X032296Y014210D01*
X032431Y014075D01*
X032608Y014002D01*
X032799Y014002D01*
X032975Y014075D01*
X033110Y014210D01*
X033140Y014282D01*
X033517Y014282D01*
X033823Y013976D01*
X033823Y011676D01*
X033917Y011582D01*
X034767Y010732D01*
X035567Y010732D01*
X036123Y010176D01*
X036123Y004676D01*
X036217Y004582D01*
X036176Y004623D02*
X032528Y004623D01*
X033000Y004820D02*
X034910Y004820D01*
X034827Y004919D02*
X033099Y004919D01*
X033146Y005017D02*
X034777Y005017D01*
X034751Y005116D02*
X033183Y005116D01*
X033183Y005214D02*
X035213Y005214D01*
X035213Y005313D02*
X035313Y005313D01*
X035313Y005411D02*
X035213Y005411D01*
X035213Y005510D02*
X035313Y005510D01*
X035313Y005608D02*
X035213Y005608D01*
X034937Y005608D02*
X032976Y005608D01*
X033075Y005510D02*
X034844Y005510D01*
X034786Y005411D02*
X033136Y005411D01*
X033177Y005313D02*
X034754Y005313D01*
X035589Y005608D02*
X036123Y005608D01*
X036123Y005510D02*
X035683Y005510D01*
X035740Y005411D02*
X036123Y005411D01*
X036123Y005313D02*
X035772Y005313D01*
X036443Y005313D02*
X036934Y005313D01*
X036922Y005300D02*
X036866Y005165D01*
X036866Y005019D01*
X036922Y004884D01*
X037025Y004781D01*
X037160Y004725D01*
X037306Y004725D01*
X037441Y004781D01*
X037545Y004884D01*
X037601Y005019D01*
X037601Y005165D01*
X037545Y005300D01*
X037441Y005404D01*
X037306Y005460D01*
X037160Y005460D01*
X037025Y005404D01*
X036922Y005300D01*
X036886Y005214D02*
X036443Y005214D01*
X036443Y005116D02*
X036866Y005116D01*
X036867Y005017D02*
X036443Y005017D01*
X036443Y004919D02*
X036907Y004919D01*
X036986Y004820D02*
X036443Y004820D01*
X036530Y004722D02*
X038183Y004722D01*
X038183Y004820D02*
X037481Y004820D01*
X037559Y004919D02*
X038183Y004919D01*
X038183Y005017D02*
X037600Y005017D01*
X037601Y005116D02*
X038183Y005116D01*
X038183Y005214D02*
X037581Y005214D01*
X037533Y005313D02*
X038183Y005313D01*
X038183Y005411D02*
X037423Y005411D01*
X037043Y005411D02*
X036443Y005411D01*
X036443Y005510D02*
X038183Y005510D01*
X038183Y005608D02*
X036443Y005608D01*
X036443Y005707D02*
X038183Y005707D01*
X038183Y005805D02*
X037466Y005805D01*
X037441Y005781D02*
X037545Y005884D01*
X037601Y006019D01*
X037601Y006165D01*
X037545Y006300D01*
X037441Y006404D01*
X037306Y006460D01*
X037160Y006460D01*
X037025Y006404D01*
X036922Y006300D01*
X036866Y006165D01*
X036866Y006019D01*
X036922Y005884D01*
X037025Y005781D01*
X037160Y005725D01*
X037306Y005725D01*
X037441Y005781D01*
X037553Y005904D02*
X038183Y005904D01*
X038183Y006002D02*
X037594Y006002D01*
X037601Y006101D02*
X038183Y006101D01*
X038183Y006199D02*
X037587Y006199D01*
X037546Y006298D02*
X038183Y006298D01*
X038183Y006396D02*
X037449Y006396D01*
X037018Y006396D02*
X036443Y006396D01*
X036443Y006298D02*
X036921Y006298D01*
X036880Y006199D02*
X036443Y006199D01*
X036443Y006101D02*
X036866Y006101D01*
X036873Y006002D02*
X036443Y006002D01*
X036443Y005904D02*
X036914Y005904D01*
X037001Y005805D02*
X036443Y005805D01*
X036443Y006495D02*
X038183Y006495D01*
X038183Y006593D02*
X036443Y006593D01*
X036443Y006692D02*
X038183Y006692D01*
X038183Y006790D02*
X037451Y006790D01*
X037441Y006781D02*
X037545Y006884D01*
X037601Y007019D01*
X037601Y007165D01*
X037545Y007300D01*
X037441Y007404D01*
X037306Y007460D01*
X037160Y007460D01*
X037025Y007404D01*
X036922Y007300D01*
X036866Y007165D01*
X036866Y007019D01*
X036922Y006884D01*
X037025Y006781D01*
X037160Y006725D01*
X037306Y006725D01*
X037441Y006781D01*
X037547Y006889D02*
X038183Y006889D01*
X038183Y006987D02*
X037588Y006987D01*
X037601Y007086D02*
X038183Y007086D01*
X038183Y007184D02*
X037593Y007184D01*
X037552Y007283D02*
X038183Y007283D01*
X038183Y007381D02*
X037464Y007381D01*
X037003Y007381D02*
X036443Y007381D01*
X036443Y007283D02*
X036914Y007283D01*
X036874Y007184D02*
X036443Y007184D01*
X036443Y007086D02*
X036866Y007086D01*
X036879Y006987D02*
X036443Y006987D01*
X036443Y006889D02*
X036920Y006889D01*
X037016Y006790D02*
X036443Y006790D01*
X036443Y007480D02*
X038183Y007480D01*
X038183Y007578D02*
X036443Y007578D01*
X036443Y007677D02*
X038183Y007677D01*
X038183Y007775D02*
X037428Y007775D01*
X037441Y007781D02*
X037545Y007884D01*
X037601Y008019D01*
X037601Y008165D01*
X037545Y008300D01*
X037441Y008404D01*
X037306Y008460D01*
X037160Y008460D01*
X037025Y008404D01*
X036922Y008300D01*
X036866Y008165D01*
X036866Y008019D01*
X036922Y007884D01*
X037025Y007781D01*
X037160Y007725D01*
X037306Y007725D01*
X037441Y007781D01*
X037535Y007874D02*
X038183Y007874D01*
X038183Y007972D02*
X037581Y007972D01*
X037601Y008071D02*
X038183Y008071D01*
X038183Y008169D02*
X037599Y008169D01*
X037558Y008268D02*
X038183Y008268D01*
X038183Y008366D02*
X037479Y008366D01*
X038183Y008465D02*
X036443Y008465D01*
X036443Y008563D02*
X038183Y008563D01*
X038183Y008662D02*
X036443Y008662D01*
X036443Y008760D02*
X037075Y008760D01*
X037025Y008781D02*
X037160Y008725D01*
X037306Y008725D01*
X037441Y008781D01*
X037545Y008884D01*
X037601Y009019D01*
X037601Y009165D01*
X037545Y009300D01*
X037441Y009404D01*
X037306Y009460D01*
X037160Y009460D01*
X037025Y009404D01*
X036922Y009300D01*
X036866Y009165D01*
X036866Y009019D01*
X036922Y008884D01*
X037025Y008781D01*
X036947Y008859D02*
X036443Y008859D01*
X036443Y008957D02*
X036891Y008957D01*
X036866Y009056D02*
X036443Y009056D01*
X036443Y009154D02*
X036866Y009154D01*
X036902Y009253D02*
X036443Y009253D01*
X036443Y009351D02*
X036973Y009351D01*
X037136Y009450D02*
X036443Y009450D01*
X036443Y009548D02*
X038183Y009548D01*
X038183Y009450D02*
X037330Y009450D01*
X037494Y009351D02*
X038183Y009351D01*
X038183Y009253D02*
X037565Y009253D01*
X037601Y009154D02*
X038183Y009154D01*
X038183Y009056D02*
X037601Y009056D01*
X037575Y008957D02*
X038183Y008957D01*
X038183Y008859D02*
X037520Y008859D01*
X037392Y008760D02*
X038183Y008760D01*
X036988Y008366D02*
X036443Y008366D01*
X036443Y008268D02*
X036908Y008268D01*
X036867Y008169D02*
X036443Y008169D01*
X036443Y008071D02*
X036866Y008071D01*
X036885Y007972D02*
X036443Y007972D01*
X036443Y007874D02*
X036932Y007874D01*
X037038Y007775D02*
X036443Y007775D01*
X036123Y009056D02*
X032143Y009056D01*
X032143Y009154D02*
X036123Y009154D01*
X036123Y009253D02*
X032143Y009253D01*
X032143Y009351D02*
X036123Y009351D01*
X036123Y009450D02*
X032143Y009450D01*
X032143Y009548D02*
X036123Y009548D01*
X036123Y009647D02*
X032143Y009647D01*
X032143Y009745D02*
X032519Y009745D01*
X032504Y009750D02*
X032582Y009725D01*
X032653Y009714D01*
X032653Y010182D01*
X032185Y010182D01*
X032196Y010110D01*
X032221Y010033D01*
X032259Y009960D01*
X032307Y009893D01*
X032365Y009835D01*
X032431Y009787D01*
X032504Y009750D01*
X032653Y009745D02*
X032753Y009745D01*
X032753Y009714D02*
X032825Y009725D01*
X032903Y009750D01*
X032976Y009787D01*
X033042Y009835D01*
X033100Y009893D01*
X033148Y009960D01*
X033185Y010033D01*
X033211Y010110D01*
X033222Y010182D01*
X032753Y010182D01*
X032753Y009714D01*
X032753Y009844D02*
X032653Y009844D01*
X032653Y009942D02*
X032753Y009942D01*
X032753Y010041D02*
X032653Y010041D01*
X032653Y010139D02*
X032753Y010139D01*
X032753Y010182D02*
X032653Y010182D01*
X032653Y010282D01*
X032185Y010282D01*
X032196Y010354D01*
X032221Y010432D01*
X032259Y010505D01*
X032307Y010571D01*
X032365Y010629D01*
X032431Y010677D01*
X032504Y010714D01*
X032582Y010739D01*
X032653Y010751D01*
X032653Y010282D01*
X032753Y010282D01*
X032753Y010751D01*
X032825Y010739D01*
X032903Y010714D01*
X032976Y010677D01*
X033042Y010629D01*
X033100Y010571D01*
X033148Y010505D01*
X033185Y010432D01*
X033211Y010354D01*
X033222Y010282D01*
X032753Y010282D01*
X032753Y010182D01*
X032753Y010238D02*
X034783Y010238D01*
X034783Y010328D02*
X034783Y010137D01*
X034856Y009960D01*
X034991Y009825D01*
X035168Y009752D01*
X035359Y009752D01*
X035535Y009825D01*
X035670Y009960D01*
X035743Y010137D01*
X035743Y010328D01*
X035670Y010504D01*
X035535Y010639D01*
X035359Y010712D01*
X035168Y010712D01*
X034991Y010639D01*
X034856Y010504D01*
X034783Y010328D01*
X034787Y010336D02*
X033213Y010336D01*
X033184Y010435D02*
X034828Y010435D01*
X034886Y010533D02*
X033127Y010533D01*
X033038Y010632D02*
X034984Y010632D01*
X034833Y010892D02*
X033983Y011742D01*
X033983Y014042D01*
X033583Y014442D01*
X032733Y014442D01*
X032733Y014452D01*
X032703Y014482D01*
X032223Y014473D02*
X031595Y014473D01*
X031613Y014519D02*
X031613Y014666D01*
X031557Y014802D01*
X031453Y014906D01*
X031317Y014962D01*
X030650Y014962D01*
X030514Y014906D01*
X030410Y014802D01*
X030353Y014666D01*
X030353Y014519D01*
X030410Y014383D01*
X030514Y014278D01*
X030650Y014222D01*
X031317Y014222D01*
X031453Y014278D01*
X031557Y014383D01*
X031613Y014519D01*
X031613Y014572D02*
X032223Y014572D01*
X032262Y014670D02*
X031611Y014670D01*
X031571Y014769D02*
X032311Y014769D01*
X032410Y014867D02*
X031492Y014867D01*
X031549Y014375D02*
X032228Y014375D01*
X032269Y014276D02*
X031447Y014276D01*
X031317Y013962D02*
X031453Y013906D01*
X031557Y013802D01*
X031613Y013666D01*
X031613Y013519D01*
X031557Y013383D01*
X031453Y013278D01*
X031317Y013222D01*
X030650Y013222D01*
X030514Y013278D01*
X030410Y013383D01*
X030353Y013519D01*
X030353Y013666D01*
X030410Y013802D01*
X030514Y013906D01*
X030650Y013962D01*
X031317Y013962D01*
X031477Y013882D02*
X033823Y013882D01*
X033823Y013784D02*
X031564Y013784D01*
X031605Y013685D02*
X033823Y013685D01*
X033823Y013587D02*
X031613Y013587D01*
X031601Y013488D02*
X033823Y013488D01*
X033823Y013390D02*
X031560Y013390D01*
X031466Y013291D02*
X033823Y013291D01*
X033823Y013193D02*
X032876Y013193D01*
X032903Y013184D02*
X032825Y013209D01*
X032753Y013221D01*
X032753Y012752D01*
X032653Y012752D01*
X032653Y012652D01*
X032185Y012652D01*
X032196Y012580D01*
X032221Y012503D01*
X031607Y012503D01*
X031613Y012519D02*
X031613Y012666D01*
X031557Y012802D01*
X031453Y012906D01*
X031317Y012962D01*
X030650Y012962D01*
X030514Y012906D01*
X030410Y012802D01*
X030353Y012666D01*
X030353Y012519D01*
X030410Y012383D01*
X030514Y012278D01*
X030650Y012222D01*
X031317Y012222D01*
X031453Y012278D01*
X031557Y012383D01*
X031613Y012519D01*
X031613Y012602D02*
X032193Y012602D01*
X032221Y012503D02*
X032259Y012430D01*
X032307Y012363D01*
X032365Y012305D01*
X032431Y012257D01*
X032504Y012220D01*
X032582Y012195D01*
X032653Y012184D01*
X032653Y012652D01*
X032753Y012652D01*
X032753Y012184D01*
X032825Y012195D01*
X032903Y012220D01*
X032976Y012257D01*
X033042Y012305D01*
X033100Y012363D01*
X033148Y012430D01*
X033185Y012503D01*
X033823Y012503D01*
X033823Y012405D02*
X033130Y012405D01*
X033185Y012503D02*
X033211Y012580D01*
X033222Y012652D01*
X032753Y012652D01*
X032753Y012752D01*
X033222Y012752D01*
X033211Y012824D01*
X033185Y012902D01*
X033148Y012975D01*
X033100Y013041D01*
X033042Y013099D01*
X032976Y013147D01*
X032903Y013184D01*
X032753Y013193D02*
X032653Y013193D01*
X032653Y013221D02*
X032582Y013209D01*
X032504Y013184D01*
X032431Y013147D01*
X032365Y013099D01*
X032307Y013041D01*
X032259Y012975D01*
X032221Y012902D01*
X032196Y012824D01*
X032185Y012752D01*
X032653Y012752D01*
X032653Y013221D01*
X032530Y013193D02*
X026643Y013193D01*
X026643Y013291D02*
X027501Y013291D01*
X027514Y013278D02*
X027650Y013222D01*
X028317Y013222D01*
X028453Y013278D01*
X028557Y013383D01*
X028613Y013519D01*
X028613Y013666D01*
X028557Y013802D01*
X028453Y013906D01*
X028317Y013962D01*
X027650Y013962D01*
X027514Y013906D01*
X027410Y013802D01*
X027353Y013666D01*
X027353Y013519D01*
X027410Y013383D01*
X027514Y013278D01*
X027407Y013390D02*
X026643Y013390D01*
X026643Y013488D02*
X027366Y013488D01*
X027353Y013587D02*
X026643Y013587D01*
X026643Y013685D02*
X027361Y013685D01*
X027402Y013784D02*
X026643Y013784D01*
X026643Y013882D02*
X027490Y013882D01*
X027650Y014222D02*
X028317Y014222D01*
X028453Y014278D01*
X028557Y014383D01*
X028613Y014519D01*
X028613Y014666D01*
X028557Y014802D01*
X028453Y014906D01*
X028317Y014962D01*
X027650Y014962D01*
X027514Y014906D01*
X027410Y014802D01*
X027353Y014666D01*
X027353Y014519D01*
X027410Y014383D01*
X027514Y014278D01*
X027650Y014222D01*
X027519Y014276D02*
X026213Y014276D01*
X026213Y014178D02*
X032329Y014178D01*
X032427Y014079D02*
X026149Y014079D01*
X026213Y014143D02*
X026072Y014002D01*
X026550Y014002D01*
X026643Y013908D01*
X026643Y012658D01*
X027455Y011847D01*
X027514Y011906D01*
X027650Y011962D01*
X028317Y011962D01*
X028453Y011906D01*
X028557Y011802D01*
X028613Y011666D01*
X028613Y011519D01*
X028557Y011383D01*
X028453Y011278D01*
X028317Y011222D01*
X027650Y011222D01*
X027514Y011278D01*
X027410Y011383D01*
X027369Y011480D01*
X026417Y012432D01*
X026417Y012432D01*
X026323Y012526D01*
X026323Y013682D01*
X026072Y013682D01*
X026213Y013541D01*
X026213Y013143D01*
X025932Y012862D01*
X025535Y012862D01*
X025253Y013143D01*
X025253Y013541D01*
X025395Y013682D01*
X025167Y013682D01*
X024960Y013890D01*
X024932Y013862D01*
X024535Y013862D01*
X024253Y014143D01*
X024253Y014541D01*
X024535Y014822D01*
X024932Y014822D01*
X025213Y014541D01*
X025213Y014143D01*
X025186Y014116D01*
X025300Y014002D01*
X025395Y014002D01*
X025253Y014143D01*
X025253Y014541D01*
X025535Y014822D01*
X025932Y014822D01*
X026213Y014541D01*
X026213Y014143D01*
X026213Y014375D02*
X027418Y014375D01*
X027372Y014473D02*
X026213Y014473D01*
X026183Y014572D02*
X027353Y014572D01*
X027355Y014670D02*
X026084Y014670D01*
X025986Y014769D02*
X027396Y014769D01*
X027475Y014867D02*
X017463Y014867D01*
X017463Y014938D02*
X017390Y015114D01*
X017255Y015249D01*
X017079Y015322D01*
X016888Y015322D01*
X016711Y015249D01*
X016576Y015114D01*
X016503Y014938D01*
X016503Y014747D01*
X016576Y014570D01*
X016711Y014435D01*
X016888Y014362D01*
X017079Y014362D01*
X017255Y014435D01*
X017390Y014570D01*
X017463Y014747D01*
X017463Y014938D01*
X017452Y014966D02*
X036218Y014966D01*
X036213Y014955D02*
X036213Y014629D01*
X036338Y014328D01*
X036338Y014328D01*
X036569Y014097D01*
X036870Y013972D01*
X037033Y013972D01*
X037196Y013972D01*
X037196Y013972D01*
X037498Y014097D01*
X037728Y014328D01*
X037853Y014629D01*
X037853Y014955D01*
X037728Y015257D01*
X037498Y015487D01*
X037498Y015487D01*
X037196Y015612D01*
X036870Y015612D01*
X036569Y015487D01*
X036338Y015257D01*
X036338Y015257D01*
X036213Y014955D01*
X036213Y014867D02*
X035557Y014867D01*
X035535Y014889D02*
X035359Y014962D01*
X035168Y014962D01*
X034991Y014889D01*
X034856Y014754D01*
X034783Y014578D01*
X034783Y014387D01*
X034856Y014210D01*
X034991Y014075D01*
X035168Y014002D01*
X035359Y014002D01*
X035505Y014063D01*
X035734Y013865D01*
X036073Y013526D01*
X036073Y012408D01*
X035691Y012026D01*
X035579Y012072D01*
X035388Y012072D01*
X035211Y011999D01*
X035076Y011864D01*
X035003Y011688D01*
X035003Y011497D01*
X035076Y011320D01*
X035211Y011185D01*
X035388Y011112D01*
X035579Y011112D01*
X035755Y011185D01*
X035890Y011320D01*
X035963Y011497D01*
X035963Y011688D01*
X035917Y011800D01*
X036393Y012276D01*
X036393Y013658D01*
X036300Y013752D01*
X035999Y014053D01*
X035998Y014060D01*
X035952Y014099D01*
X035910Y014142D01*
X035903Y014142D01*
X035711Y014308D01*
X035743Y014387D01*
X035743Y014578D01*
X035670Y014754D01*
X035535Y014889D01*
X035656Y014769D02*
X036213Y014769D01*
X036213Y014670D02*
X035705Y014670D01*
X035743Y014572D02*
X036237Y014572D01*
X036278Y014473D02*
X035743Y014473D01*
X035738Y014375D02*
X036319Y014375D01*
X036390Y014276D02*
X035747Y014276D01*
X035862Y014178D02*
X036488Y014178D01*
X036569Y014097D02*
X036569Y014097D01*
X036612Y014079D02*
X035976Y014079D01*
X036071Y013981D02*
X036850Y013981D01*
X037217Y013981D02*
X038183Y013981D01*
X038183Y014079D02*
X037455Y014079D01*
X037498Y014097D02*
X037498Y014097D01*
X037579Y014178D02*
X038183Y014178D01*
X038183Y014276D02*
X037677Y014276D01*
X037728Y014328D02*
X037728Y014328D01*
X037748Y014375D02*
X038183Y014375D01*
X038183Y014473D02*
X037789Y014473D01*
X037830Y014572D02*
X038183Y014572D01*
X038183Y014670D02*
X037853Y014670D01*
X037853Y014769D02*
X038183Y014769D01*
X038183Y014867D02*
X037853Y014867D01*
X037849Y014966D02*
X038183Y014966D01*
X038183Y015064D02*
X037808Y015064D01*
X037767Y015163D02*
X038183Y015163D01*
X038183Y015261D02*
X037724Y015261D01*
X037728Y015257D02*
X037728Y015257D01*
X037625Y015360D02*
X038183Y015360D01*
X038183Y015458D02*
X037527Y015458D01*
X037330Y015557D02*
X038183Y015557D01*
X038183Y015655D02*
X001184Y015655D01*
X001184Y015557D02*
X001986Y015557D01*
X002120Y015612D02*
X001819Y015487D01*
X001588Y015257D01*
X001588Y015257D01*
X001463Y014955D01*
X001463Y014629D01*
X001588Y014328D01*
X001588Y014328D01*
X001819Y014097D01*
X002120Y013972D01*
X002246Y013972D01*
X002446Y013972D01*
X002748Y014097D01*
X002978Y014328D01*
X003103Y014629D01*
X003103Y014955D01*
X002978Y015257D01*
X002748Y015487D01*
X002446Y015612D01*
X002120Y015612D01*
X001819Y015487D02*
X001819Y015487D01*
X001790Y015458D02*
X001184Y015458D01*
X001185Y015360D02*
X001691Y015360D01*
X001593Y015261D02*
X001185Y015261D01*
X001185Y015163D02*
X001549Y015163D01*
X001508Y015064D02*
X001186Y015064D01*
X001186Y014966D02*
X001468Y014966D01*
X001463Y014867D02*
X001186Y014867D01*
X001187Y014769D02*
X001463Y014769D01*
X001463Y014670D02*
X001187Y014670D01*
X001187Y014572D02*
X001487Y014572D01*
X001528Y014473D02*
X001188Y014473D01*
X001188Y014375D02*
X001569Y014375D01*
X001640Y014276D02*
X001188Y014276D01*
X001189Y014178D02*
X001738Y014178D01*
X001819Y014097D02*
X001819Y014097D01*
X001862Y014079D02*
X001189Y014079D01*
X001189Y013981D02*
X002100Y013981D01*
X002467Y013981D02*
X012797Y013981D01*
X012753Y013882D02*
X012324Y013882D01*
X012331Y013875D02*
X012267Y013940D01*
X011700Y013940D01*
X011636Y013875D01*
X011636Y013309D01*
X011700Y013244D01*
X012267Y013244D01*
X012331Y013309D01*
X012331Y013875D01*
X012331Y013784D02*
X012753Y013784D01*
X012753Y013685D02*
X012331Y013685D01*
X012331Y013587D02*
X012753Y013587D01*
X012753Y013488D02*
X012331Y013488D01*
X012331Y013390D02*
X012706Y013390D01*
X012607Y013291D02*
X012314Y013291D01*
X012509Y013193D02*
X009277Y013193D01*
X009290Y013222D02*
X009437Y013222D01*
X009653Y013439D01*
X009653Y013745D01*
X009437Y013962D01*
X009130Y013962D01*
X008913Y013745D01*
X008913Y013439D01*
X008998Y013354D01*
X008350Y011935D01*
X008323Y011908D01*
X008323Y011877D01*
X008310Y011848D01*
X008323Y011813D01*
X008323Y010045D01*
X008211Y009999D01*
X008076Y009864D01*
X008003Y009688D01*
X008003Y009497D01*
X008076Y009320D01*
X008211Y009185D01*
X008388Y009112D01*
X008579Y009112D01*
X008755Y009185D01*
X008890Y009320D01*
X008963Y009497D01*
X008963Y009688D01*
X008890Y009864D01*
X008755Y009999D01*
X008643Y010045D01*
X008643Y011807D01*
X009290Y013222D01*
X009232Y013094D02*
X012410Y013094D01*
X012312Y012996D02*
X009187Y012996D01*
X009142Y012897D02*
X012253Y012897D01*
X012253Y012799D02*
X009097Y012799D01*
X009051Y012700D02*
X012253Y012700D01*
X012253Y012602D02*
X009006Y012602D01*
X008961Y012503D02*
X012253Y012503D01*
X012253Y012405D02*
X008916Y012405D01*
X008871Y012306D02*
X012253Y012306D01*
X012253Y012208D02*
X008826Y012208D01*
X008781Y012109D02*
X012253Y012109D01*
X012253Y012011D02*
X008736Y012011D01*
X008691Y011912D02*
X012253Y011912D01*
X012253Y011814D02*
X008646Y011814D01*
X008643Y011715D02*
X012253Y011715D01*
X012253Y011617D02*
X008643Y011617D01*
X008643Y011518D02*
X010258Y011518D01*
X010211Y011499D02*
X010076Y011364D01*
X010003Y011188D01*
X010003Y010997D01*
X010076Y010820D01*
X010211Y010685D01*
X010388Y010612D01*
X010579Y010612D01*
X010755Y010685D01*
X010890Y010820D01*
X010963Y010997D01*
X010963Y011188D01*
X010890Y011364D01*
X010755Y011499D01*
X010579Y011572D01*
X010388Y011572D01*
X010211Y011499D01*
X010132Y011420D02*
X008643Y011420D01*
X008643Y011321D02*
X010059Y011321D01*
X010018Y011223D02*
X008643Y011223D01*
X008643Y011124D02*
X010003Y011124D01*
X010003Y011026D02*
X008643Y011026D01*
X008643Y010927D02*
X010032Y010927D01*
X010073Y010829D02*
X008643Y010829D01*
X008643Y010730D02*
X010166Y010730D01*
X010341Y010632D02*
X008643Y010632D01*
X008643Y010533D02*
X012253Y010533D01*
X012253Y010435D02*
X008643Y010435D01*
X008643Y010336D02*
X012253Y010336D01*
X012253Y010238D02*
X008643Y010238D01*
X008643Y010139D02*
X012253Y010139D01*
X012253Y010041D02*
X009655Y010041D01*
X009579Y010072D02*
X009388Y010072D01*
X009211Y009999D01*
X009076Y009864D01*
X009003Y009688D01*
X009003Y009497D01*
X009076Y009320D01*
X009211Y009185D01*
X009388Y009112D01*
X009579Y009112D01*
X009755Y009185D01*
X009890Y009320D01*
X009963Y009497D01*
X009963Y009688D01*
X009890Y009864D01*
X009755Y009999D01*
X009579Y010072D01*
X009812Y009942D02*
X010584Y009942D01*
X010576Y009935D02*
X010576Y009250D01*
X010641Y009185D01*
X011326Y009185D01*
X011390Y009250D01*
X011390Y009935D01*
X011326Y009999D01*
X010641Y009999D01*
X010576Y009935D01*
X010576Y009844D02*
X009899Y009844D01*
X009939Y009745D02*
X010576Y009745D01*
X010576Y009647D02*
X009963Y009647D01*
X009963Y009548D02*
X010576Y009548D01*
X010576Y009450D02*
X009944Y009450D01*
X009903Y009351D02*
X010576Y009351D01*
X010576Y009253D02*
X009823Y009253D01*
X009680Y009154D02*
X011720Y009154D01*
X011622Y009056D02*
X001205Y009056D01*
X001205Y009154D02*
X007286Y009154D01*
X007211Y009185D02*
X007388Y009112D01*
X007579Y009112D01*
X007755Y009185D01*
X007890Y009320D01*
X007963Y009497D01*
X007963Y009688D01*
X007890Y009864D01*
X007755Y009999D01*
X007579Y010072D01*
X007388Y010072D01*
X007211Y009999D01*
X007076Y009864D01*
X007003Y009688D01*
X007003Y009497D01*
X007076Y009320D01*
X007211Y009185D01*
X007144Y009253D02*
X001204Y009253D01*
X001204Y009351D02*
X007064Y009351D01*
X007023Y009450D02*
X001204Y009450D01*
X001204Y009548D02*
X007003Y009548D01*
X007003Y009647D02*
X001203Y009647D01*
X001203Y009745D02*
X007027Y009745D01*
X007068Y009844D02*
X001203Y009844D01*
X001202Y009942D02*
X007155Y009942D01*
X007312Y010041D02*
X001202Y010041D01*
X001202Y010139D02*
X008323Y010139D01*
X008323Y010238D02*
X001201Y010238D01*
X001201Y010336D02*
X008323Y010336D01*
X008323Y010435D02*
X001201Y010435D01*
X001200Y010533D02*
X008323Y010533D01*
X008323Y010632D02*
X007626Y010632D01*
X007579Y010612D02*
X007755Y010685D01*
X007890Y010820D01*
X007963Y010997D01*
X007963Y011188D01*
X007890Y011364D01*
X007755Y011499D01*
X007579Y011572D01*
X007388Y011572D01*
X007211Y011499D01*
X007076Y011364D01*
X007003Y011188D01*
X007003Y010997D01*
X007076Y010820D01*
X007211Y010685D01*
X007388Y010612D01*
X007579Y010612D01*
X007341Y010632D02*
X005284Y010632D01*
X005316Y010645D02*
X005431Y010760D01*
X005493Y010911D01*
X005493Y011074D01*
X005431Y011224D01*
X005316Y011340D01*
X005165Y011402D01*
X005002Y011402D01*
X004851Y011340D01*
X004736Y011224D01*
X004673Y011074D01*
X004673Y010911D01*
X004736Y010760D01*
X004851Y010645D01*
X005002Y010582D01*
X005165Y010582D01*
X005316Y010645D01*
X005401Y010730D02*
X007166Y010730D01*
X007073Y010829D02*
X005459Y010829D01*
X005493Y010927D02*
X007032Y010927D01*
X007003Y011026D02*
X005493Y011026D01*
X005472Y011124D02*
X007003Y011124D01*
X007018Y011223D02*
X005432Y011223D01*
X005334Y011321D02*
X007059Y011321D01*
X007132Y011420D02*
X001197Y011420D01*
X001197Y011518D02*
X007258Y011518D01*
X007709Y011518D02*
X008323Y011518D01*
X008323Y011420D02*
X007835Y011420D01*
X007908Y011321D02*
X008323Y011321D01*
X008323Y011223D02*
X007949Y011223D01*
X007963Y011124D02*
X008323Y011124D01*
X008323Y011026D02*
X007963Y011026D01*
X007935Y010927D02*
X008323Y010927D01*
X008323Y010829D02*
X007894Y010829D01*
X007800Y010730D02*
X008323Y010730D01*
X008312Y010041D02*
X007655Y010041D01*
X007812Y009942D02*
X008155Y009942D01*
X008068Y009844D02*
X007899Y009844D01*
X007939Y009745D02*
X008027Y009745D01*
X008003Y009647D02*
X007963Y009647D01*
X007963Y009548D02*
X008003Y009548D01*
X008023Y009450D02*
X007944Y009450D01*
X007903Y009351D02*
X008064Y009351D01*
X008144Y009253D02*
X007823Y009253D01*
X007680Y009154D02*
X008286Y009154D01*
X008680Y009154D02*
X009286Y009154D01*
X009144Y009253D02*
X008823Y009253D01*
X008903Y009351D02*
X009064Y009351D01*
X009023Y009450D02*
X008944Y009450D01*
X008963Y009548D02*
X009003Y009548D01*
X009003Y009647D02*
X008963Y009647D01*
X008939Y009745D02*
X009027Y009745D01*
X009068Y009844D02*
X008899Y009844D01*
X008812Y009942D02*
X009155Y009942D01*
X009312Y010041D02*
X008655Y010041D01*
X008483Y009592D02*
X008483Y011842D01*
X009283Y013592D01*
X008913Y013587D02*
X001190Y013587D01*
X001190Y013685D02*
X008913Y013685D01*
X008952Y013784D02*
X001190Y013784D01*
X001190Y013882D02*
X009050Y013882D01*
X009517Y013882D02*
X011642Y013882D01*
X011636Y013784D02*
X009615Y013784D01*
X009653Y013685D02*
X011636Y013685D01*
X011636Y013587D02*
X009653Y013587D01*
X009653Y013488D02*
X011636Y013488D01*
X011636Y013390D02*
X009604Y013390D01*
X009506Y013291D02*
X011653Y013291D01*
X012765Y012799D02*
X013948Y012799D01*
X013938Y012789D02*
X013886Y012661D01*
X013886Y012523D01*
X013938Y012395D01*
X014036Y012297D01*
X014164Y012244D01*
X014303Y012244D01*
X014430Y012297D01*
X014528Y012395D01*
X014581Y012523D01*
X014581Y012661D01*
X014528Y012789D01*
X014430Y012887D01*
X014303Y012940D01*
X014164Y012940D01*
X014036Y012887D01*
X013938Y012789D01*
X013902Y012700D02*
X012713Y012700D01*
X012713Y012602D02*
X013886Y012602D01*
X013894Y012503D02*
X012713Y012503D01*
X012713Y012405D02*
X013935Y012405D01*
X014027Y012306D02*
X012713Y012306D01*
X012713Y012208D02*
X015178Y012208D01*
X015195Y012204D02*
X015214Y012204D01*
X015214Y012573D01*
X014846Y012573D01*
X014846Y012554D01*
X014860Y012479D01*
X014890Y012408D01*
X014932Y012345D01*
X014986Y012291D01*
X015050Y012248D01*
X015120Y012219D01*
X015195Y012204D01*
X015214Y012208D02*
X015252Y012208D01*
X015252Y012204D02*
X015272Y012204D01*
X015346Y012219D01*
X015417Y012248D01*
X015481Y012291D01*
X015535Y012345D01*
X015577Y012408D01*
X015606Y012479D01*
X015621Y012554D01*
X015621Y012573D01*
X015252Y012573D01*
X015252Y012204D01*
X015288Y012208D02*
X021903Y012208D01*
X021903Y012109D02*
X020210Y012109D01*
X020179Y012122D02*
X019988Y012122D01*
X019811Y012049D01*
X019676Y011914D01*
X019603Y011738D01*
X019603Y011547D01*
X019676Y011370D01*
X019811Y011235D01*
X019863Y011214D01*
X019811Y011187D01*
X019745Y011139D01*
X019687Y011081D01*
X019639Y011015D01*
X019601Y010942D01*
X019576Y010864D01*
X019563Y010783D01*
X019563Y010781D01*
X020045Y010781D01*
X020045Y010704D01*
X019563Y010704D01*
X019563Y010701D01*
X019576Y010620D01*
X019601Y010543D01*
X019639Y010470D01*
X019687Y010403D01*
X019745Y010345D01*
X019811Y010297D01*
X019863Y010271D01*
X019811Y010249D01*
X019676Y010114D01*
X019603Y009938D01*
X019603Y009747D01*
X019676Y009570D01*
X019811Y009435D01*
X019988Y009362D01*
X020179Y009362D01*
X020355Y009435D01*
X020490Y009570D01*
X020563Y009747D01*
X020563Y009938D01*
X020490Y010114D01*
X020355Y010249D01*
X020303Y010271D01*
X020356Y010297D01*
X020422Y010345D01*
X020480Y010403D01*
X020528Y010470D01*
X020565Y010543D01*
X020591Y010620D01*
X020603Y010701D01*
X020603Y010704D01*
X020122Y010704D01*
X020122Y010781D01*
X020603Y010781D01*
X020603Y010783D01*
X020591Y010864D01*
X020565Y010942D01*
X020528Y011015D01*
X020480Y011081D01*
X020422Y011139D01*
X020356Y011187D01*
X020303Y011214D01*
X020355Y011235D01*
X020490Y011370D01*
X020563Y011547D01*
X020563Y011738D01*
X020490Y011914D01*
X020355Y012049D01*
X020179Y012122D01*
X019957Y012109D02*
X017210Y012109D01*
X017179Y012122D02*
X016988Y012122D01*
X016811Y012049D01*
X016676Y011914D01*
X016603Y011738D01*
X016603Y011547D01*
X016676Y011370D01*
X016811Y011235D01*
X016915Y011192D01*
X016811Y011149D01*
X016676Y011014D01*
X016603Y010838D01*
X016603Y010647D01*
X016676Y010470D01*
X016811Y010335D01*
X016915Y010292D01*
X016811Y010249D01*
X016676Y010114D01*
X016603Y009938D01*
X016603Y009747D01*
X016676Y009570D01*
X016811Y009435D01*
X016988Y009362D01*
X017179Y009362D01*
X017291Y009408D01*
X017667Y009032D01*
X020700Y009032D01*
X020793Y009126D01*
X021050Y009382D01*
X021111Y009382D01*
X021180Y009313D01*
X021280Y009272D01*
X021387Y009272D01*
X021486Y009313D01*
X021562Y009389D01*
X021603Y009488D01*
X021603Y009596D01*
X021562Y009695D01*
X021486Y009771D01*
X021387Y009812D01*
X021280Y009812D01*
X021180Y009771D01*
X021111Y009702D01*
X020917Y009702D01*
X020567Y009352D01*
X017800Y009352D01*
X017517Y009635D01*
X017563Y009747D01*
X017563Y009938D01*
X017490Y010114D01*
X017355Y010249D01*
X017251Y010292D01*
X017355Y010335D01*
X017490Y010470D01*
X017563Y010647D01*
X017563Y010838D01*
X017490Y011014D01*
X017355Y011149D01*
X017251Y011192D01*
X017355Y011235D01*
X017490Y011370D01*
X017563Y011547D01*
X017563Y011738D01*
X017490Y011914D01*
X017355Y012049D01*
X017179Y012122D01*
X016957Y012109D02*
X012713Y012109D01*
X012713Y012011D02*
X016773Y012011D01*
X016676Y011912D02*
X016306Y011912D01*
X016286Y011927D02*
X016213Y011964D01*
X016135Y011989D01*
X016063Y012001D01*
X016063Y011532D01*
X015963Y011532D01*
X015963Y011432D01*
X015495Y011432D01*
X015506Y011360D01*
X015531Y011283D01*
X015569Y011210D01*
X015617Y011143D01*
X015675Y011085D01*
X015741Y011037D01*
X015814Y011000D01*
X015892Y010975D01*
X015963Y010964D01*
X015963Y011432D01*
X016063Y011432D01*
X016063Y010964D01*
X016135Y010975D01*
X016213Y011000D01*
X016286Y011037D01*
X016352Y011085D01*
X016410Y011143D01*
X016458Y011210D01*
X016495Y011283D01*
X016521Y011360D01*
X016532Y011432D01*
X016063Y011432D01*
X016063Y011532D01*
X016532Y011532D01*
X016521Y011604D01*
X016495Y011682D01*
X016458Y011755D01*
X016410Y011821D01*
X016352Y011879D01*
X016286Y011927D01*
X016415Y011814D02*
X016635Y011814D01*
X016603Y011715D02*
X016478Y011715D01*
X016516Y011617D02*
X016603Y011617D01*
X016615Y011518D02*
X016063Y011518D01*
X016063Y011420D02*
X015963Y011420D01*
X015963Y011518D02*
X013933Y011518D01*
X013933Y011578D02*
X013860Y011754D01*
X013725Y011889D01*
X013549Y011962D01*
X013358Y011962D01*
X013181Y011889D01*
X013046Y011754D01*
X012973Y011578D01*
X012973Y011387D01*
X013046Y011210D01*
X013181Y011075D01*
X013358Y011002D01*
X013549Y011002D01*
X013725Y011075D01*
X013860Y011210D01*
X013933Y011387D01*
X013933Y011578D01*
X013917Y011617D02*
X015510Y011617D01*
X015506Y011604D02*
X015495Y011532D01*
X015963Y011532D01*
X015963Y012001D01*
X015892Y011989D01*
X015814Y011964D01*
X015741Y011927D01*
X015675Y011879D01*
X015617Y011821D01*
X015569Y011755D01*
X015531Y011682D01*
X015506Y011604D01*
X015548Y011715D02*
X013876Y011715D01*
X013801Y011814D02*
X015611Y011814D01*
X015721Y011912D02*
X013669Y011912D01*
X013237Y011912D02*
X012713Y011912D01*
X012713Y011814D02*
X013106Y011814D01*
X013030Y011715D02*
X012713Y011715D01*
X012713Y011617D02*
X012990Y011617D01*
X012973Y011518D02*
X012713Y011518D01*
X012713Y011420D02*
X012973Y011420D01*
X013000Y011321D02*
X012713Y011321D01*
X012713Y011223D02*
X013041Y011223D01*
X013132Y011124D02*
X012713Y011124D01*
X012713Y011026D02*
X013301Y011026D01*
X013606Y011026D02*
X015764Y011026D01*
X015636Y011124D02*
X013774Y011124D01*
X013865Y011223D02*
X015562Y011223D01*
X015519Y011321D02*
X013906Y011321D01*
X013933Y011420D02*
X015497Y011420D01*
X015963Y011321D02*
X016063Y011321D01*
X016063Y011223D02*
X015963Y011223D01*
X015963Y011124D02*
X016063Y011124D01*
X016063Y011026D02*
X015963Y011026D01*
X016263Y011026D02*
X016688Y011026D01*
X016640Y010927D02*
X012713Y010927D01*
X012713Y010829D02*
X016603Y010829D01*
X016603Y010730D02*
X012713Y010730D01*
X012713Y010632D02*
X016610Y010632D01*
X016650Y010533D02*
X012713Y010533D01*
X012713Y010435D02*
X016712Y010435D01*
X016810Y010336D02*
X012713Y010336D01*
X012713Y010238D02*
X016800Y010238D01*
X016702Y010139D02*
X016213Y010139D01*
X016285Y010109D02*
X016109Y010182D01*
X015918Y010182D01*
X015741Y010109D01*
X015606Y009974D01*
X015533Y009798D01*
X015533Y009607D01*
X015606Y009430D01*
X015741Y009295D01*
X015918Y009222D01*
X016109Y009222D01*
X016285Y009295D01*
X016420Y009430D01*
X016493Y009607D01*
X016493Y009798D01*
X016420Y009974D01*
X016285Y010109D01*
X016354Y010041D02*
X016646Y010041D01*
X016605Y009942D02*
X016433Y009942D01*
X016474Y009844D02*
X016603Y009844D01*
X016604Y009745D02*
X016493Y009745D01*
X016493Y009647D02*
X016645Y009647D01*
X016698Y009548D02*
X016469Y009548D01*
X016428Y009450D02*
X016797Y009450D01*
X016341Y009351D02*
X017348Y009351D01*
X017447Y009253D02*
X016182Y009253D01*
X015844Y009253D02*
X013622Y009253D01*
X013549Y009222D02*
X013725Y009295D01*
X013860Y009430D01*
X013933Y009607D01*
X013933Y009798D01*
X013860Y009974D01*
X013725Y010109D01*
X013549Y010182D01*
X013358Y010182D01*
X013181Y010109D01*
X013046Y009974D01*
X012973Y009798D01*
X012973Y009607D01*
X013046Y009430D01*
X013181Y009295D01*
X013358Y009222D01*
X013549Y009222D01*
X013781Y009351D02*
X015685Y009351D01*
X015598Y009450D02*
X013868Y009450D01*
X013909Y009548D02*
X015558Y009548D01*
X015533Y009647D02*
X013933Y009647D01*
X013933Y009745D02*
X015533Y009745D01*
X015552Y009844D02*
X013914Y009844D01*
X013873Y009942D02*
X015593Y009942D01*
X015673Y010041D02*
X013794Y010041D01*
X013653Y010139D02*
X015814Y010139D01*
X017083Y009842D02*
X017733Y009192D01*
X020633Y009192D01*
X020983Y009542D01*
X021333Y009542D01*
X021582Y009647D02*
X021903Y009647D01*
X021903Y009745D02*
X021512Y009745D01*
X021603Y009548D02*
X021903Y009548D01*
X021903Y009450D02*
X021587Y009450D01*
X021524Y009351D02*
X021903Y009351D01*
X021903Y009253D02*
X020920Y009253D01*
X021019Y009351D02*
X021142Y009351D01*
X020822Y009154D02*
X021903Y009154D01*
X021995Y009056D02*
X020723Y009056D01*
X020665Y009450D02*
X020370Y009450D01*
X020468Y009548D02*
X020763Y009548D01*
X020862Y009647D02*
X020522Y009647D01*
X020563Y009745D02*
X021155Y009745D01*
X020563Y009844D02*
X021903Y009844D01*
X021903Y009942D02*
X020561Y009942D01*
X020521Y010041D02*
X021903Y010041D01*
X021903Y010139D02*
X020465Y010139D01*
X020367Y010238D02*
X021903Y010238D01*
X021903Y010336D02*
X020409Y010336D01*
X020503Y010435D02*
X021903Y010435D01*
X021903Y010533D02*
X020560Y010533D01*
X020592Y010632D02*
X021903Y010632D01*
X021903Y010730D02*
X020122Y010730D01*
X020045Y010730D02*
X017563Y010730D01*
X017557Y010632D02*
X019574Y010632D01*
X019606Y010533D02*
X017516Y010533D01*
X017455Y010435D02*
X019664Y010435D01*
X019757Y010336D02*
X017356Y010336D01*
X017367Y010238D02*
X019800Y010238D01*
X019702Y010139D02*
X017465Y010139D01*
X017521Y010041D02*
X019646Y010041D01*
X019605Y009942D02*
X017561Y009942D01*
X017563Y009844D02*
X019603Y009844D01*
X019604Y009745D02*
X017563Y009745D01*
X017522Y009647D02*
X019645Y009647D01*
X019698Y009548D02*
X017604Y009548D01*
X017702Y009450D02*
X019797Y009450D01*
X017644Y009056D02*
X012272Y009056D01*
X012371Y009154D02*
X017545Y009154D01*
X017563Y010829D02*
X019571Y010829D01*
X019597Y010927D02*
X017526Y010927D01*
X017479Y011026D02*
X019647Y011026D01*
X019730Y011124D02*
X017380Y011124D01*
X017325Y011223D02*
X019842Y011223D01*
X019725Y011321D02*
X017441Y011321D01*
X017511Y011420D02*
X019656Y011420D01*
X019615Y011518D02*
X017552Y011518D01*
X017563Y011617D02*
X019603Y011617D01*
X019603Y011715D02*
X017563Y011715D01*
X017532Y011814D02*
X019635Y011814D01*
X019676Y011912D02*
X017491Y011912D01*
X017394Y012011D02*
X019773Y012011D01*
X020394Y012011D02*
X021903Y012011D01*
X021903Y011912D02*
X020491Y011912D01*
X020532Y011814D02*
X021903Y011814D01*
X021903Y011715D02*
X020563Y011715D01*
X020563Y011617D02*
X021903Y011617D01*
X021903Y011518D02*
X020552Y011518D01*
X020511Y011420D02*
X021903Y011420D01*
X021903Y011321D02*
X020441Y011321D01*
X020325Y011223D02*
X021903Y011223D01*
X021903Y011124D02*
X020437Y011124D01*
X020520Y011026D02*
X021903Y011026D01*
X021903Y010927D02*
X020570Y010927D01*
X020596Y010829D02*
X021903Y010829D01*
X022363Y010829D02*
X026023Y010829D01*
X026023Y010927D02*
X022363Y010927D01*
X022363Y011026D02*
X022529Y011026D01*
X022516Y011039D02*
X022580Y010975D01*
X023186Y010975D01*
X023251Y011039D01*
X023251Y011645D01*
X023186Y011710D01*
X022580Y011710D01*
X022516Y011645D01*
X022516Y011039D01*
X022516Y011124D02*
X022363Y011124D01*
X022363Y011223D02*
X022516Y011223D01*
X022516Y011321D02*
X022363Y011321D01*
X022363Y011420D02*
X022516Y011420D01*
X022516Y011518D02*
X022363Y011518D01*
X022363Y011617D02*
X022516Y011617D01*
X022363Y011715D02*
X024134Y011715D01*
X024128Y011721D02*
X024167Y011682D01*
X024180Y011682D01*
X024190Y011674D01*
X024245Y011682D01*
X025367Y011682D01*
X026023Y011026D01*
X026023Y010249D01*
X026018Y010189D01*
X026023Y010184D01*
X026023Y010176D01*
X026065Y010134D01*
X026573Y009534D01*
X026573Y009526D01*
X026615Y009484D01*
X026654Y009438D01*
X026662Y009438D01*
X026667Y009432D01*
X026727Y009432D01*
X026786Y009427D01*
X026792Y009432D01*
X027389Y009432D01*
X027410Y009383D01*
X027514Y009278D01*
X027650Y009222D01*
X028317Y009222D01*
X028453Y009278D01*
X028557Y009383D01*
X028613Y009519D01*
X028613Y009666D01*
X028557Y009802D01*
X028453Y009906D01*
X028317Y009962D01*
X027650Y009962D01*
X027514Y009906D01*
X027410Y009802D01*
X027389Y009752D01*
X026808Y009752D01*
X026343Y010301D01*
X026343Y011158D01*
X025593Y011908D01*
X025500Y012002D01*
X024287Y012002D01*
X023393Y012672D01*
X023393Y013003D01*
X023535Y012862D01*
X023932Y012862D01*
X024073Y013003D01*
X024073Y012276D01*
X024167Y012182D01*
X025667Y012182D01*
X026823Y011026D01*
X026823Y010526D01*
X026917Y010432D01*
X027389Y010432D01*
X027410Y010383D01*
X027514Y010278D01*
X027650Y010222D01*
X028317Y010222D01*
X028453Y010278D01*
X028557Y010383D01*
X028613Y010519D01*
X028613Y010666D01*
X028557Y010802D01*
X028453Y010906D01*
X028317Y010962D01*
X027650Y010962D01*
X027514Y010906D01*
X027410Y010802D01*
X027389Y010752D01*
X027143Y010752D01*
X027143Y011158D01*
X025893Y012408D01*
X025800Y012502D01*
X024393Y012502D01*
X024393Y013003D01*
X024535Y012862D01*
X024932Y012862D01*
X025213Y013143D01*
X025213Y013541D01*
X024932Y013822D01*
X024535Y013822D01*
X024382Y013670D01*
X024358Y013694D01*
X024120Y014050D01*
X024213Y014143D01*
X024213Y014541D01*
X023932Y014822D01*
X023535Y014822D01*
X023253Y014541D01*
X023253Y014143D01*
X023535Y013862D01*
X023861Y013862D01*
X023888Y013822D01*
X023535Y013822D01*
X023382Y013670D01*
X023358Y013694D01*
X023120Y014050D01*
X023213Y014143D01*
X023213Y014541D01*
X022932Y014822D01*
X022535Y014822D01*
X022253Y014541D01*
X022253Y014143D01*
X022535Y013862D01*
X022861Y013862D01*
X022783Y013862D01*
X022783Y013392D01*
X022683Y013392D01*
X022683Y013292D01*
X022213Y013292D01*
X022213Y013127D01*
X022518Y012822D01*
X022683Y012822D01*
X022683Y013292D01*
X022783Y013292D01*
X022783Y012822D01*
X022949Y012822D01*
X023073Y012947D01*
X023073Y012645D01*
X023066Y012635D01*
X023073Y012581D01*
X023073Y012526D01*
X023082Y012517D01*
X023084Y012504D01*
X023128Y012471D01*
X023167Y012432D01*
X023180Y012432D01*
X024128Y011721D01*
X024091Y011654D02*
X023956Y011710D01*
X023810Y011710D01*
X023675Y011654D01*
X023572Y011550D01*
X023516Y011415D01*
X023516Y011269D01*
X023572Y011134D01*
X023675Y011031D01*
X023810Y010975D01*
X023956Y010975D01*
X024091Y011031D01*
X024195Y011134D01*
X024251Y011269D01*
X024251Y011415D01*
X024195Y011550D01*
X024091Y011654D01*
X024128Y011617D02*
X025433Y011617D01*
X025531Y011518D02*
X024208Y011518D01*
X024249Y011420D02*
X025630Y011420D01*
X025728Y011321D02*
X024251Y011321D01*
X024232Y011223D02*
X025827Y011223D01*
X025925Y011124D02*
X024185Y011124D01*
X024080Y011026D02*
X026023Y011026D01*
X026183Y011092D02*
X025433Y011842D01*
X024233Y011842D01*
X023233Y012592D01*
X023233Y013592D01*
X022733Y014342D01*
X022253Y014375D02*
X022213Y014375D01*
X022213Y014473D02*
X022253Y014473D01*
X022213Y014541D02*
X021932Y014822D01*
X021535Y014822D01*
X021253Y014541D01*
X021253Y014143D01*
X021535Y013862D01*
X021932Y013862D01*
X022213Y014143D01*
X022213Y014541D01*
X022183Y014572D02*
X022284Y014572D01*
X022383Y014670D02*
X022084Y014670D01*
X021986Y014769D02*
X022481Y014769D01*
X022986Y014769D02*
X023481Y014769D01*
X023383Y014670D02*
X023084Y014670D01*
X023183Y014572D02*
X023284Y014572D01*
X023253Y014473D02*
X023213Y014473D01*
X023213Y014375D02*
X023253Y014375D01*
X023253Y014276D02*
X023213Y014276D01*
X023213Y014178D02*
X023253Y014178D01*
X023317Y014079D02*
X023149Y014079D01*
X023167Y013981D02*
X023416Y013981D01*
X023514Y013882D02*
X023232Y013882D01*
X023298Y013784D02*
X023496Y013784D01*
X023398Y013685D02*
X023367Y013685D01*
X022861Y013862D02*
X022861Y013862D01*
X022783Y013784D02*
X022683Y013784D01*
X022683Y013862D02*
X022518Y013862D01*
X022213Y013558D01*
X022213Y013392D01*
X022683Y013392D01*
X022683Y013862D01*
X022514Y013882D02*
X021952Y013882D01*
X021932Y013822D02*
X021535Y013822D01*
X021253Y013541D01*
X021253Y013143D01*
X021535Y012862D01*
X021932Y012862D01*
X022213Y013143D01*
X022213Y013541D01*
X021932Y013822D01*
X021971Y013784D02*
X022439Y013784D01*
X022341Y013685D02*
X022069Y013685D01*
X022168Y013587D02*
X022242Y013587D01*
X022213Y013488D02*
X022213Y013488D01*
X022213Y013390D02*
X022683Y013390D01*
X022683Y013488D02*
X022783Y013488D01*
X022783Y013587D02*
X022683Y013587D01*
X022683Y013685D02*
X022783Y013685D01*
X022783Y013291D02*
X022683Y013291D01*
X022683Y013193D02*
X022783Y013193D01*
X022783Y013094D02*
X022683Y013094D01*
X022683Y012996D02*
X022783Y012996D01*
X022783Y012897D02*
X022683Y012897D01*
X022443Y012897D02*
X021967Y012897D01*
X022066Y012996D02*
X022344Y012996D01*
X022246Y013094D02*
X022164Y013094D01*
X022213Y013193D02*
X022213Y013193D01*
X022213Y013291D02*
X022213Y013291D01*
X021499Y012897D02*
X020967Y012897D01*
X020963Y012799D02*
X023073Y012799D01*
X023073Y012897D02*
X023024Y012897D01*
X023393Y012897D02*
X023499Y012897D01*
X023401Y012996D02*
X023393Y012996D01*
X023393Y012799D02*
X024073Y012799D01*
X024073Y012897D02*
X023967Y012897D01*
X024066Y012996D02*
X024073Y012996D01*
X024393Y012996D02*
X024401Y012996D01*
X024393Y012897D02*
X024499Y012897D01*
X024393Y012799D02*
X026323Y012799D01*
X026323Y012897D02*
X025967Y012897D01*
X026066Y012996D02*
X026323Y012996D01*
X026323Y013094D02*
X026164Y013094D01*
X026213Y013193D02*
X026323Y013193D01*
X026323Y013291D02*
X026213Y013291D01*
X026213Y013390D02*
X026323Y013390D01*
X026323Y013488D02*
X026213Y013488D01*
X026168Y013587D02*
X026323Y013587D01*
X026483Y013842D02*
X025233Y013842D01*
X024733Y014342D01*
X025213Y014375D02*
X025253Y014375D01*
X025253Y014473D02*
X025213Y014473D01*
X025183Y014572D02*
X025284Y014572D01*
X025383Y014670D02*
X025084Y014670D01*
X024986Y014769D02*
X025481Y014769D01*
X024481Y014769D02*
X023986Y014769D01*
X024084Y014670D02*
X024383Y014670D01*
X024284Y014572D02*
X024183Y014572D01*
X024213Y014473D02*
X024253Y014473D01*
X024253Y014375D02*
X024213Y014375D01*
X024213Y014276D02*
X024253Y014276D01*
X024253Y014178D02*
X024213Y014178D01*
X024149Y014079D02*
X024317Y014079D01*
X024416Y013981D02*
X024167Y013981D01*
X024232Y013882D02*
X024514Y013882D01*
X024496Y013784D02*
X024298Y013784D01*
X024367Y013685D02*
X024398Y013685D01*
X024233Y013592D02*
X023733Y014342D01*
X024952Y013882D02*
X024967Y013882D01*
X024971Y013784D02*
X025066Y013784D01*
X025069Y013685D02*
X025164Y013685D01*
X025168Y013587D02*
X025299Y013587D01*
X025253Y013488D02*
X025213Y013488D01*
X025213Y013390D02*
X025253Y013390D01*
X025253Y013291D02*
X025213Y013291D01*
X025213Y013193D02*
X025253Y013193D01*
X025302Y013094D02*
X025164Y013094D01*
X025066Y012996D02*
X025401Y012996D01*
X025499Y012897D02*
X024967Y012897D01*
X024393Y012700D02*
X026323Y012700D01*
X026323Y012602D02*
X024393Y012602D01*
X024393Y012503D02*
X026346Y012503D01*
X026445Y012405D02*
X025897Y012405D01*
X025996Y012306D02*
X026543Y012306D01*
X026642Y012208D02*
X026094Y012208D01*
X026193Y012109D02*
X026740Y012109D01*
X026839Y012011D02*
X026291Y012011D01*
X026390Y011912D02*
X026937Y011912D01*
X027036Y011814D02*
X026488Y011814D01*
X026587Y011715D02*
X027134Y011715D01*
X027233Y011617D02*
X026685Y011617D01*
X026784Y011518D02*
X027331Y011518D01*
X027394Y011420D02*
X026882Y011420D01*
X026981Y011321D02*
X027471Y011321D01*
X027648Y011223D02*
X027079Y011223D01*
X026983Y011092D02*
X025733Y012342D01*
X024233Y012342D01*
X024233Y013592D01*
X025223Y014079D02*
X025317Y014079D01*
X025253Y014178D02*
X025213Y014178D01*
X025213Y014276D02*
X025253Y014276D01*
X026483Y013842D02*
X026483Y012592D01*
X027483Y011592D01*
X027983Y011592D01*
X028496Y011321D02*
X030471Y011321D01*
X030394Y011420D02*
X028572Y011420D01*
X028613Y011518D02*
X030353Y011518D01*
X030353Y011617D02*
X028613Y011617D01*
X028593Y011715D02*
X030374Y011715D01*
X030422Y011814D02*
X028545Y011814D01*
X028438Y011912D02*
X030529Y011912D01*
X030486Y012306D02*
X028481Y012306D01*
X028453Y012278D02*
X028557Y012383D01*
X028613Y012519D01*
X028613Y012666D01*
X028557Y012802D01*
X028453Y012906D01*
X028317Y012962D01*
X027650Y012962D01*
X027514Y012906D01*
X027410Y012802D01*
X027353Y012666D01*
X027353Y012519D01*
X027410Y012383D01*
X027514Y012278D01*
X027650Y012222D01*
X028317Y012222D01*
X028453Y012278D01*
X028566Y012405D02*
X030400Y012405D01*
X030360Y012503D02*
X028607Y012503D01*
X028613Y012602D02*
X030353Y012602D01*
X030368Y012700D02*
X028599Y012700D01*
X028558Y012799D02*
X030408Y012799D01*
X030505Y012897D02*
X028462Y012897D01*
X028466Y013291D02*
X030501Y013291D01*
X030407Y013390D02*
X028560Y013390D01*
X028601Y013488D02*
X030366Y013488D01*
X030353Y013587D02*
X028613Y013587D01*
X028605Y013685D02*
X030361Y013685D01*
X030402Y013784D02*
X028564Y013784D01*
X028477Y013882D02*
X030490Y013882D01*
X030519Y014276D02*
X028447Y014276D01*
X028549Y014375D02*
X030418Y014375D01*
X030372Y014473D02*
X028595Y014473D01*
X028613Y014572D02*
X030353Y014572D01*
X030355Y014670D02*
X028611Y014670D01*
X028571Y014769D02*
X030396Y014769D01*
X030475Y014867D02*
X028492Y014867D01*
X026571Y013981D02*
X033819Y013981D01*
X033720Y014079D02*
X032979Y014079D01*
X033078Y014178D02*
X033622Y014178D01*
X033523Y014276D02*
X033138Y014276D01*
X033680Y014572D02*
X034783Y014572D01*
X034783Y014473D02*
X033779Y014473D01*
X033877Y014375D02*
X034788Y014375D01*
X034829Y014276D02*
X033976Y014276D01*
X034074Y014178D02*
X034889Y014178D01*
X034987Y014079D02*
X034143Y014079D01*
X034143Y013981D02*
X035600Y013981D01*
X035714Y013882D02*
X034143Y013882D01*
X034143Y013784D02*
X035816Y013784D01*
X035914Y013685D02*
X034143Y013685D01*
X034143Y013587D02*
X036013Y013587D01*
X036073Y013488D02*
X034143Y013488D01*
X034143Y013390D02*
X036073Y013390D01*
X036073Y013291D02*
X034143Y013291D01*
X034143Y013193D02*
X036073Y013193D01*
X036073Y013094D02*
X035550Y013094D01*
X035535Y013109D02*
X035359Y013182D01*
X035168Y013182D01*
X034991Y013109D01*
X034856Y012974D01*
X034783Y012798D01*
X034783Y012607D01*
X034856Y012430D01*
X034991Y012295D01*
X035168Y012222D01*
X035359Y012222D01*
X035535Y012295D01*
X035670Y012430D01*
X035743Y012607D01*
X035743Y012798D01*
X035670Y012974D01*
X035535Y013109D01*
X035649Y012996D02*
X036073Y012996D01*
X036073Y012897D02*
X035702Y012897D01*
X035743Y012799D02*
X036073Y012799D01*
X036073Y012700D02*
X035743Y012700D01*
X035741Y012602D02*
X036073Y012602D01*
X036073Y012503D02*
X035700Y012503D01*
X035645Y012405D02*
X036070Y012405D01*
X035971Y012306D02*
X035546Y012306D01*
X035774Y012109D02*
X034143Y012109D01*
X034143Y012011D02*
X035239Y012011D01*
X035125Y011912D02*
X034143Y011912D01*
X034143Y011814D02*
X035056Y011814D01*
X035015Y011715D02*
X034237Y011715D01*
X034335Y011617D02*
X035003Y011617D01*
X035003Y011518D02*
X034434Y011518D01*
X034532Y011420D02*
X035035Y011420D01*
X035076Y011321D02*
X034631Y011321D01*
X034729Y011223D02*
X035174Y011223D01*
X035359Y011124D02*
X034828Y011124D01*
X034474Y011026D02*
X032143Y011026D01*
X032143Y010927D02*
X034572Y010927D01*
X034671Y010829D02*
X032143Y010829D01*
X032143Y010730D02*
X032553Y010730D01*
X032653Y010730D02*
X032753Y010730D01*
X032753Y010632D02*
X032653Y010632D01*
X032653Y010533D02*
X032753Y010533D01*
X032753Y010435D02*
X032653Y010435D01*
X032653Y010336D02*
X032753Y010336D01*
X032653Y010238D02*
X032143Y010238D01*
X032143Y010336D02*
X032193Y010336D01*
X032223Y010435D02*
X032143Y010435D01*
X032143Y010533D02*
X032279Y010533D01*
X032369Y010632D02*
X032143Y010632D01*
X031983Y011092D02*
X032483Y011592D01*
X032931Y011420D02*
X034080Y011420D01*
X034178Y011321D02*
X032891Y011321D01*
X032793Y011223D02*
X034277Y011223D01*
X034375Y011124D02*
X032608Y011124D01*
X032359Y011124D02*
X032242Y011124D01*
X032035Y011420D02*
X031572Y011420D01*
X031613Y011518D02*
X032003Y011518D01*
X032003Y011617D02*
X031613Y011617D01*
X031593Y011715D02*
X032015Y011715D01*
X032056Y011814D02*
X031545Y011814D01*
X031438Y011912D02*
X032125Y011912D01*
X032239Y012011D02*
X027291Y012011D01*
X027193Y012109D02*
X033823Y012109D01*
X033823Y012011D02*
X032727Y012011D01*
X032842Y011912D02*
X033823Y011912D01*
X033823Y011814D02*
X032911Y011814D01*
X032952Y011715D02*
X033823Y011715D01*
X033883Y011617D02*
X032963Y011617D01*
X032963Y011518D02*
X033981Y011518D01*
X033823Y012208D02*
X032864Y012208D01*
X032753Y012208D02*
X032653Y012208D01*
X032653Y012306D02*
X032753Y012306D01*
X032753Y012405D02*
X032653Y012405D01*
X032653Y012503D02*
X032753Y012503D01*
X032753Y012602D02*
X032653Y012602D01*
X032653Y012700D02*
X031599Y012700D01*
X031558Y012799D02*
X032192Y012799D01*
X032220Y012897D02*
X031462Y012897D01*
X032274Y012996D02*
X026643Y012996D01*
X026643Y013094D02*
X032360Y013094D01*
X032653Y013094D02*
X032753Y013094D01*
X032753Y012996D02*
X032653Y012996D01*
X032653Y012897D02*
X032753Y012897D01*
X032753Y012799D02*
X032653Y012799D01*
X032753Y012700D02*
X033823Y012700D01*
X033823Y012602D02*
X033214Y012602D01*
X033215Y012799D02*
X033823Y012799D01*
X033823Y012897D02*
X033187Y012897D01*
X033133Y012996D02*
X033823Y012996D01*
X033823Y013094D02*
X033047Y013094D01*
X034143Y013094D02*
X034977Y013094D01*
X034878Y012996D02*
X034143Y012996D01*
X034143Y012897D02*
X034825Y012897D01*
X034784Y012799D02*
X034143Y012799D01*
X034143Y012700D02*
X034783Y012700D01*
X034785Y012602D02*
X034143Y012602D01*
X034143Y012503D02*
X034826Y012503D01*
X034882Y012405D02*
X034143Y012405D01*
X034143Y012306D02*
X034980Y012306D01*
X034143Y012208D02*
X035873Y012208D01*
X036128Y012011D02*
X036866Y012011D01*
X036866Y012109D02*
X036227Y012109D01*
X036325Y012208D02*
X036866Y012208D01*
X036866Y012306D02*
X036393Y012306D01*
X036393Y012405D02*
X036875Y012405D01*
X036866Y012395D02*
X036866Y011789D01*
X036930Y011725D01*
X037536Y011725D01*
X037601Y011789D01*
X037601Y012395D01*
X037536Y012460D01*
X036930Y012460D01*
X036866Y012395D01*
X036393Y012503D02*
X038183Y012503D01*
X038183Y012405D02*
X037591Y012405D01*
X037601Y012306D02*
X038183Y012306D01*
X038183Y012208D02*
X037601Y012208D01*
X037601Y012109D02*
X038183Y012109D01*
X038183Y012011D02*
X037601Y012011D01*
X037601Y011912D02*
X038183Y011912D01*
X038183Y011814D02*
X037601Y011814D01*
X038183Y011715D02*
X035952Y011715D01*
X035963Y011617D02*
X038183Y011617D01*
X038183Y011518D02*
X035963Y011518D01*
X035931Y011420D02*
X037064Y011420D01*
X037025Y011404D02*
X036922Y011300D01*
X036866Y011165D01*
X036866Y011019D01*
X036922Y010884D01*
X037025Y010781D01*
X037160Y010725D01*
X037306Y010725D01*
X037441Y010781D01*
X037545Y010884D01*
X037601Y011019D01*
X037601Y011165D01*
X037545Y011300D01*
X037441Y011404D01*
X037306Y011460D01*
X037160Y011460D01*
X037025Y011404D01*
X036943Y011321D02*
X035891Y011321D01*
X035793Y011223D02*
X036890Y011223D01*
X036866Y011124D02*
X035608Y011124D01*
X035726Y011026D02*
X036866Y011026D01*
X036904Y010927D02*
X035825Y010927D01*
X035923Y010829D02*
X036977Y010829D01*
X037147Y010730D02*
X036022Y010730D01*
X036120Y010632D02*
X038183Y010632D01*
X038183Y010730D02*
X037320Y010730D01*
X037490Y010829D02*
X038183Y010829D01*
X038183Y010927D02*
X037563Y010927D01*
X037601Y011026D02*
X038183Y011026D01*
X038183Y011124D02*
X037601Y011124D01*
X037577Y011223D02*
X038183Y011223D01*
X038183Y011321D02*
X037524Y011321D01*
X037403Y011420D02*
X038183Y011420D01*
X036866Y011814D02*
X035931Y011814D01*
X036030Y011912D02*
X036866Y011912D01*
X036233Y012342D02*
X035483Y011592D01*
X035633Y010892D02*
X034833Y010892D01*
X035569Y010730D02*
X032853Y010730D01*
X033215Y010139D02*
X034783Y010139D01*
X034823Y010041D02*
X033188Y010041D01*
X033135Y009942D02*
X034874Y009942D01*
X034973Y009844D02*
X033050Y009844D01*
X032887Y009745D02*
X036123Y009745D01*
X036123Y009844D02*
X035554Y009844D01*
X035652Y009942D02*
X036123Y009942D01*
X036123Y010041D02*
X035704Y010041D01*
X035743Y010139D02*
X036123Y010139D01*
X036062Y010238D02*
X035743Y010238D01*
X035740Y010336D02*
X035963Y010336D01*
X035865Y010435D02*
X035699Y010435D01*
X035641Y010533D02*
X035766Y010533D01*
X035668Y010632D02*
X035543Y010632D01*
X035633Y010892D02*
X036283Y010242D01*
X036283Y004742D01*
X036983Y004042D01*
X036983Y003642D01*
X036734Y003540D02*
X036213Y003540D01*
X036213Y003638D02*
X036713Y003638D01*
X036730Y003737D02*
X036213Y003737D01*
X036213Y003835D02*
X036795Y003835D01*
X036823Y003934D02*
X036213Y003934D01*
X036213Y004032D02*
X036767Y004032D01*
X036669Y004131D02*
X036213Y004131D01*
X036172Y004229D02*
X036570Y004229D01*
X036472Y004328D02*
X036073Y004328D01*
X035975Y004426D02*
X036373Y004426D01*
X036629Y004623D02*
X038183Y004623D01*
X038183Y004525D02*
X036727Y004525D01*
X036826Y004426D02*
X038183Y004426D01*
X038183Y004328D02*
X036924Y004328D01*
X037023Y004229D02*
X038183Y004229D01*
X038183Y004131D02*
X037121Y004131D01*
X037143Y004032D02*
X038183Y004032D01*
X038183Y003934D02*
X037143Y003934D01*
X037172Y003835D02*
X038183Y003835D01*
X038183Y003737D02*
X037236Y003737D01*
X037253Y003638D02*
X038183Y003638D01*
X038183Y003540D02*
X037233Y003540D01*
X037164Y003441D02*
X038183Y003441D01*
X038183Y003343D02*
X036213Y003343D01*
X036213Y003441D02*
X036802Y003441D01*
X036213Y003244D02*
X038183Y003244D01*
X038183Y003146D02*
X036213Y003146D01*
X036213Y003047D02*
X038183Y003047D01*
X038183Y002949D02*
X036213Y002949D01*
X036213Y002850D02*
X038183Y002850D01*
X038183Y002752D02*
X036213Y002752D01*
X036213Y002653D02*
X038183Y002653D01*
X038183Y002555D02*
X036213Y002555D01*
X036213Y002456D02*
X038183Y002456D01*
X038183Y002358D02*
X036213Y002358D01*
X036213Y002259D02*
X038183Y002259D01*
X038183Y002161D02*
X037250Y002161D01*
X037246Y002162D02*
X036920Y002162D01*
X036619Y002037D01*
X036388Y001807D01*
X036388Y001807D01*
X036263Y001505D01*
X036263Y001179D01*
X036388Y000878D01*
X036388Y000878D01*
X036619Y000647D01*
X036920Y000522D01*
X037121Y000522D01*
X037246Y000522D01*
X037246Y000522D01*
X037548Y000647D01*
X037778Y000878D01*
X037903Y001179D01*
X037903Y001505D01*
X037778Y001807D01*
X037548Y002037D01*
X037548Y002037D01*
X037246Y002162D01*
X037488Y002062D02*
X038183Y002062D01*
X038183Y001964D02*
X037621Y001964D01*
X037720Y001865D02*
X038183Y001865D01*
X038183Y001767D02*
X037795Y001767D01*
X037778Y001807D02*
X037778Y001807D01*
X037836Y001668D02*
X038183Y001668D01*
X038183Y001570D02*
X037877Y001570D01*
X037903Y001471D02*
X038183Y001471D01*
X038183Y001373D02*
X037903Y001373D01*
X037903Y001274D02*
X038183Y001274D01*
X038183Y001176D02*
X037902Y001176D01*
X037861Y001077D02*
X038183Y001077D01*
X038183Y000979D02*
X037820Y000979D01*
X037780Y000880D02*
X038183Y000880D01*
X038183Y000782D02*
X037682Y000782D01*
X037778Y000878D02*
X037778Y000878D01*
X037584Y000683D02*
X038183Y000683D01*
X038183Y000585D02*
X037397Y000585D01*
X037548Y000647D02*
X037548Y000647D01*
X038183Y000486D02*
X001233Y000486D01*
X001233Y000388D02*
X038183Y000388D01*
X038183Y000342D02*
X001233Y000342D01*
X001183Y015792D01*
X038183Y015792D01*
X038183Y000342D01*
X036769Y000585D02*
X002647Y000585D01*
X002496Y000522D02*
X002798Y000647D01*
X003028Y000878D01*
X003153Y001179D01*
X003153Y001505D01*
X003028Y001807D01*
X002798Y002037D01*
X002798Y002037D01*
X002496Y002162D01*
X002170Y002162D01*
X001869Y002037D01*
X001638Y001807D01*
X001638Y001807D01*
X001513Y001505D01*
X001513Y001179D01*
X001638Y000878D01*
X001638Y000878D01*
X001869Y000647D01*
X002170Y000522D01*
X002371Y000522D01*
X002496Y000522D01*
X002496Y000522D01*
X002798Y000647D02*
X002798Y000647D01*
X002834Y000683D02*
X036583Y000683D01*
X036619Y000647D02*
X036619Y000647D01*
X036484Y000782D02*
X002932Y000782D01*
X003028Y000878D02*
X003028Y000878D01*
X003030Y000880D02*
X036387Y000880D01*
X036346Y000979D02*
X023816Y000979D01*
X023806Y000975D02*
X023941Y001031D01*
X024045Y001134D01*
X024101Y001269D01*
X024101Y001415D01*
X024045Y001550D01*
X023941Y001654D01*
X023806Y001710D01*
X023660Y001710D01*
X023525Y001654D01*
X023422Y001550D01*
X023366Y001415D01*
X023366Y001269D01*
X023422Y001134D01*
X023525Y001031D01*
X023660Y000975D01*
X023806Y000975D01*
X023651Y000979D02*
X022596Y000979D01*
X022695Y001077D02*
X023479Y001077D01*
X023405Y001176D02*
X022793Y001176D01*
X022892Y001274D02*
X023366Y001274D01*
X023366Y001373D02*
X022990Y001373D01*
X023089Y001471D02*
X023389Y001471D01*
X023441Y001570D02*
X023187Y001570D01*
X023286Y001668D02*
X023560Y001668D01*
X023384Y001767D02*
X027395Y001767D01*
X027410Y001802D02*
X027353Y001666D01*
X027353Y001519D01*
X027410Y001383D01*
X027514Y001278D01*
X027650Y001222D01*
X028317Y001222D01*
X028453Y001278D01*
X028557Y001383D01*
X028613Y001519D01*
X028613Y001666D01*
X028557Y001802D01*
X028453Y001906D01*
X028317Y001962D01*
X027650Y001962D01*
X027514Y001906D01*
X027410Y001802D01*
X027473Y001865D02*
X023483Y001865D01*
X023581Y001964D02*
X032323Y001964D01*
X032323Y002062D02*
X024101Y002062D01*
X023907Y001668D02*
X027354Y001668D01*
X027353Y001570D02*
X024026Y001570D01*
X024078Y001471D02*
X027373Y001471D01*
X027420Y001373D02*
X024101Y001373D01*
X024101Y001274D02*
X027524Y001274D01*
X028442Y001274D02*
X030524Y001274D01*
X030514Y001278D02*
X030650Y001222D01*
X031317Y001222D01*
X031453Y001278D01*
X031557Y001383D01*
X031613Y001519D01*
X031613Y001666D01*
X031557Y001802D01*
X031453Y001906D01*
X031317Y001962D01*
X030650Y001962D01*
X030514Y001906D01*
X030410Y001802D01*
X030353Y001666D01*
X030353Y001519D01*
X030410Y001383D01*
X030514Y001278D01*
X030420Y001373D02*
X028547Y001373D01*
X028594Y001471D02*
X030373Y001471D01*
X030353Y001570D02*
X028613Y001570D01*
X028612Y001668D02*
X030354Y001668D01*
X030395Y001767D02*
X028572Y001767D01*
X028494Y001865D02*
X030473Y001865D01*
X030560Y002259D02*
X028406Y002259D01*
X028532Y002358D02*
X030435Y002358D01*
X030379Y002456D02*
X028587Y002456D01*
X028613Y002555D02*
X030353Y002555D01*
X030353Y002653D02*
X028613Y002653D01*
X028578Y002752D02*
X030389Y002752D01*
X030458Y002850D02*
X028509Y002850D01*
X028350Y002949D02*
X030617Y002949D01*
X031370Y003244D02*
X031605Y003244D01*
X032520Y004032D02*
X035718Y004032D01*
X035233Y003842D02*
X035233Y002842D01*
X034823Y002850D02*
X034643Y002850D01*
X034640Y002752D02*
X034823Y002752D01*
X034823Y002653D02*
X034599Y002653D01*
X034526Y002555D02*
X034823Y002555D01*
X034864Y002456D02*
X034373Y002456D01*
X034495Y002161D02*
X034972Y002161D01*
X034881Y002062D02*
X034586Y002062D01*
X034627Y001964D02*
X034840Y001964D01*
X034823Y001865D02*
X034643Y001865D01*
X034643Y001767D02*
X034823Y001767D01*
X034862Y001668D02*
X034605Y001668D01*
X034541Y001570D02*
X034926Y001570D01*
X035058Y001471D02*
X034409Y001471D01*
X034143Y001373D02*
X036263Y001373D01*
X036263Y001471D02*
X035409Y001471D01*
X035541Y001570D02*
X036290Y001570D01*
X036331Y001668D02*
X036135Y001668D01*
X036213Y001767D02*
X036372Y001767D01*
X036447Y001865D02*
X036213Y001865D01*
X036213Y001964D02*
X036545Y001964D01*
X036619Y002037D02*
X036619Y002037D01*
X036679Y002062D02*
X036213Y002062D01*
X036213Y002161D02*
X036917Y002161D01*
X035753Y002161D02*
X035495Y002161D01*
X035753Y002259D02*
X033628Y002259D01*
X033683Y002161D02*
X033972Y002161D01*
X033881Y002062D02*
X033683Y002062D01*
X033683Y001964D02*
X033840Y001964D01*
X033983Y001592D02*
X034233Y001842D01*
X034142Y001274D02*
X036263Y001274D01*
X036265Y001176D02*
X024062Y001176D01*
X023988Y001077D02*
X036306Y001077D01*
X033183Y001865D02*
X032643Y001865D01*
X032643Y001767D02*
X032783Y001767D01*
X032783Y001668D02*
X032643Y001668D01*
X032732Y001570D02*
X032783Y001570D01*
X032575Y001274D02*
X031442Y001274D01*
X031547Y001373D02*
X032477Y001373D01*
X032378Y001471D02*
X031594Y001471D01*
X031613Y001570D02*
X032323Y001570D01*
X032323Y001668D02*
X031612Y001668D01*
X031572Y001767D02*
X032323Y001767D01*
X032323Y001865D02*
X031494Y001865D01*
X032643Y001964D02*
X032783Y001964D01*
X032783Y002062D02*
X032643Y002062D01*
X032643Y002161D02*
X032783Y002161D01*
X032838Y002259D02*
X032643Y002259D01*
X033633Y002949D02*
X033834Y002949D01*
X033874Y003047D02*
X033592Y003047D01*
X033510Y003146D02*
X033954Y003146D01*
X034209Y003343D02*
X035073Y003343D01*
X035073Y003441D02*
X034111Y003441D01*
X034334Y003244D02*
X034880Y003244D01*
X034823Y003146D02*
X034510Y003146D01*
X034592Y003047D02*
X034823Y003047D01*
X034823Y002949D02*
X034633Y002949D01*
X027495Y006298D02*
X021643Y006298D01*
X021643Y006304D02*
X021707Y006304D01*
X021771Y006368D01*
X021771Y006816D01*
X021707Y006880D01*
X021260Y006880D01*
X021195Y006816D01*
X021195Y006368D01*
X021260Y006304D01*
X021323Y006304D01*
X021323Y002276D01*
X021636Y001963D01*
X021616Y001915D01*
X021616Y001769D01*
X021672Y001634D01*
X021775Y001531D01*
X021910Y001475D01*
X022056Y001475D01*
X022191Y001531D01*
X022295Y001634D01*
X022351Y001769D01*
X022351Y001915D01*
X022295Y002050D01*
X022191Y002154D01*
X022056Y002210D01*
X021910Y002210D01*
X021862Y002190D01*
X021643Y002408D01*
X021643Y006304D01*
X021771Y006396D02*
X027404Y006396D01*
X027363Y006495D02*
X021771Y006495D01*
X021771Y006593D02*
X027353Y006593D01*
X027364Y006692D02*
X021771Y006692D01*
X021771Y006790D02*
X027405Y006790D01*
X027497Y006889D02*
X009866Y006889D01*
X009890Y006864D02*
X009755Y006999D01*
X009579Y007072D01*
X009388Y007072D01*
X009211Y006999D01*
X009076Y006864D01*
X009003Y006688D01*
X009003Y006497D01*
X009076Y006320D01*
X009211Y006185D01*
X009388Y006112D01*
X009579Y006112D01*
X009755Y006185D01*
X009890Y006320D01*
X009963Y006497D01*
X009963Y006688D01*
X009890Y006864D01*
X009921Y006790D02*
X021195Y006790D01*
X021195Y006692D02*
X009962Y006692D01*
X009963Y006593D02*
X021195Y006593D01*
X021195Y006495D02*
X009963Y006495D01*
X009922Y006396D02*
X021195Y006396D01*
X021323Y006298D02*
X009868Y006298D01*
X009769Y006199D02*
X021323Y006199D01*
X021323Y006101D02*
X007653Y006101D01*
X007683Y006110D02*
X007756Y006147D01*
X007822Y006195D01*
X007880Y006253D01*
X007928Y006320D01*
X007965Y006393D01*
X007991Y006470D01*
X008003Y006551D01*
X008003Y006554D01*
X007522Y006554D01*
X007522Y006631D01*
X007445Y006631D01*
X007445Y007112D01*
X007442Y007112D01*
X007362Y007099D01*
X007284Y007074D01*
X007211Y007037D01*
X007145Y006989D01*
X007087Y006931D01*
X007039Y006865D01*
X007001Y006792D01*
X006976Y006714D01*
X006963Y006633D01*
X006963Y006631D01*
X007445Y006631D01*
X007445Y006554D01*
X006963Y006554D01*
X006963Y006551D01*
X006976Y006470D01*
X007001Y006393D01*
X007039Y006320D01*
X007087Y006253D01*
X007145Y006195D01*
X007211Y006147D01*
X007284Y006110D01*
X007362Y006085D01*
X007442Y006072D01*
X007445Y006072D01*
X007445Y006554D01*
X007522Y006554D01*
X007522Y006072D01*
X007524Y006072D01*
X007605Y006085D01*
X007683Y006110D01*
X007522Y006101D02*
X007445Y006101D01*
X007445Y006199D02*
X007522Y006199D01*
X007522Y006298D02*
X007445Y006298D01*
X007445Y006396D02*
X007522Y006396D01*
X007522Y006495D02*
X007445Y006495D01*
X007445Y006593D02*
X005361Y006593D01*
X005341Y006610D02*
X005251Y006666D01*
X005156Y006712D01*
X005057Y006746D01*
X004954Y006770D01*
X004849Y006782D01*
X004846Y006782D01*
X004846Y005892D01*
X004746Y005892D01*
X004746Y006782D01*
X004743Y006782D01*
X004638Y006770D01*
X004535Y006746D01*
X004436Y006712D01*
X004341Y006666D01*
X004251Y006610D01*
X004169Y006544D01*
X004094Y006469D01*
X004028Y006387D01*
X003972Y006297D01*
X003926Y006202D01*
X003891Y006102D01*
X003868Y005999D01*
X003856Y005895D01*
X003856Y005892D01*
X004746Y005892D01*
X004746Y005792D01*
X003856Y005792D01*
X003856Y005789D01*
X003868Y005684D01*
X003891Y005581D01*
X003926Y005481D01*
X003972Y005386D01*
X004028Y005297D01*
X004094Y005214D01*
X001218Y005214D01*
X001218Y005116D02*
X004199Y005116D01*
X004169Y005140D02*
X004251Y005074D01*
X004341Y005018D01*
X004436Y004972D01*
X004535Y004937D01*
X004638Y004914D01*
X004743Y004902D01*
X004746Y004902D01*
X004746Y005792D01*
X004846Y005792D01*
X004846Y005892D01*
X005736Y005892D01*
X005736Y005895D01*
X005724Y005999D01*
X005701Y006102D01*
X005666Y006202D01*
X005620Y006297D01*
X005564Y006387D01*
X005498Y006469D01*
X005423Y006544D01*
X005341Y006610D01*
X005198Y006692D02*
X006973Y006692D01*
X007001Y006790D02*
X003883Y006790D01*
X003875Y006787D02*
X003975Y006822D01*
X004070Y006868D01*
X004160Y006924D01*
X004242Y006990D01*
X004317Y007065D01*
X004383Y007147D01*
X004439Y007237D01*
X004485Y007332D01*
X004520Y007431D01*
X004543Y007534D01*
X004555Y007639D01*
X004555Y007642D01*
X003665Y007642D01*
X003665Y007742D01*
X004555Y007742D01*
X004555Y007745D01*
X004543Y007850D01*
X004520Y007953D01*
X004485Y008052D01*
X004439Y008148D01*
X004383Y008237D01*
X004317Y008319D01*
X004242Y008394D01*
X004160Y008460D01*
X004070Y008516D01*
X003975Y008562D01*
X003875Y008597D01*
X003773Y008620D01*
X003668Y008632D01*
X003665Y008632D01*
X003665Y007742D01*
X003565Y007742D01*
X003565Y008632D01*
X003562Y008632D01*
X003457Y008620D01*
X003354Y008597D01*
X003255Y008562D01*
X003159Y008516D01*
X003070Y008460D01*
X002987Y008394D01*
X002913Y008319D01*
X002847Y008237D01*
X002791Y008148D01*
X002745Y008052D01*
X002710Y007953D01*
X002687Y007850D01*
X002675Y007745D01*
X002675Y007742D01*
X003565Y007742D01*
X003565Y007642D01*
X003665Y007642D01*
X003665Y006752D01*
X003668Y006752D01*
X003773Y006764D01*
X003875Y006787D01*
X003665Y006790D02*
X003565Y006790D01*
X003565Y006752D02*
X003565Y007642D01*
X002675Y007642D01*
X002675Y007639D01*
X002687Y007534D01*
X002710Y007431D01*
X002745Y007332D01*
X002791Y007237D01*
X002847Y007147D01*
X002913Y007065D01*
X002987Y006990D01*
X003070Y006924D01*
X003159Y006868D01*
X003255Y006822D01*
X003354Y006787D01*
X003457Y006764D01*
X003562Y006752D01*
X003565Y006752D01*
X003565Y006889D02*
X003665Y006889D01*
X003665Y006987D02*
X003565Y006987D01*
X003565Y007086D02*
X003665Y007086D01*
X003665Y007184D02*
X003565Y007184D01*
X003565Y007283D02*
X003665Y007283D01*
X003665Y007381D02*
X003565Y007381D01*
X003565Y007480D02*
X003665Y007480D01*
X003665Y007578D02*
X003565Y007578D01*
X003565Y007677D02*
X001210Y007677D01*
X001209Y007775D02*
X002678Y007775D01*
X002692Y007874D02*
X001209Y007874D01*
X001209Y007972D02*
X002717Y007972D01*
X002754Y008071D02*
X001208Y008071D01*
X001208Y008169D02*
X002804Y008169D01*
X002871Y008268D02*
X001208Y008268D01*
X001207Y008366D02*
X002959Y008366D01*
X003077Y008465D02*
X001207Y008465D01*
X001207Y008563D02*
X003258Y008563D01*
X003565Y008563D02*
X003665Y008563D01*
X003665Y008465D02*
X003565Y008465D01*
X003565Y008366D02*
X003665Y008366D01*
X003665Y008268D02*
X003565Y008268D01*
X003565Y008169D02*
X003665Y008169D01*
X003665Y008071D02*
X003565Y008071D01*
X003565Y007972D02*
X003665Y007972D01*
X003665Y007874D02*
X003565Y007874D01*
X003565Y007775D02*
X003665Y007775D01*
X003665Y007677D02*
X005077Y007677D01*
X005077Y007775D02*
X004551Y007775D01*
X004538Y007874D02*
X005078Y007874D01*
X005077Y007871D02*
X005077Y007513D01*
X005214Y007182D01*
X005467Y006929D01*
X005798Y006792D01*
X006156Y006792D01*
X006487Y006929D01*
X006740Y007182D01*
X006877Y007513D01*
X006877Y007871D01*
X006740Y008202D01*
X006487Y008455D01*
X006156Y008592D01*
X005798Y008592D01*
X005467Y008455D01*
X005214Y008202D01*
X005077Y007871D01*
X005119Y007972D02*
X004513Y007972D01*
X004476Y008071D02*
X005160Y008071D01*
X005200Y008169D02*
X004425Y008169D01*
X004358Y008268D02*
X005280Y008268D01*
X005378Y008366D02*
X004270Y008366D01*
X004152Y008465D02*
X005490Y008465D01*
X005728Y008563D02*
X003972Y008563D01*
X004548Y007578D02*
X005077Y007578D01*
X005091Y007480D02*
X004531Y007480D01*
X004502Y007381D02*
X005132Y007381D01*
X005172Y007283D02*
X004461Y007283D01*
X004406Y007184D02*
X005213Y007184D01*
X005311Y007086D02*
X004333Y007086D01*
X004238Y006987D02*
X005409Y006987D01*
X005565Y006889D02*
X004103Y006889D01*
X004231Y006593D02*
X001213Y006593D01*
X001213Y006495D02*
X004119Y006495D01*
X004036Y006396D02*
X001214Y006396D01*
X001214Y006298D02*
X003972Y006298D01*
X003925Y006199D02*
X001214Y006199D01*
X001215Y006101D02*
X003891Y006101D01*
X003868Y006002D02*
X001215Y006002D01*
X001215Y005904D02*
X003857Y005904D01*
X003865Y005707D02*
X001216Y005707D01*
X001216Y005805D02*
X004746Y005805D01*
X004746Y005707D02*
X004846Y005707D01*
X004846Y005792D02*
X004846Y004902D01*
X004849Y004902D01*
X004954Y004914D01*
X005057Y004937D01*
X005156Y004972D01*
X005251Y005018D01*
X005341Y005074D01*
X005423Y005140D01*
X005498Y005214D01*
X018695Y005214D01*
X018695Y005118D02*
X018760Y005054D01*
X018793Y005054D01*
X018793Y002210D01*
X018680Y002210D01*
X018616Y002145D01*
X018616Y001539D01*
X018680Y001475D01*
X019286Y001475D01*
X019351Y001539D01*
X019351Y002145D01*
X019286Y002210D01*
X019173Y002210D01*
X019173Y005054D01*
X019207Y005054D01*
X019271Y005118D01*
X019271Y005566D01*
X019207Y005630D01*
X018760Y005630D01*
X018695Y005566D01*
X018695Y005118D01*
X018698Y005116D02*
X005393Y005116D01*
X005498Y005214D02*
X005564Y005297D01*
X005620Y005386D01*
X005666Y005481D01*
X005701Y005581D01*
X005724Y005684D01*
X005736Y005789D01*
X005736Y005792D01*
X004846Y005792D01*
X004846Y005805D02*
X021323Y005805D01*
X021323Y005707D02*
X005727Y005707D01*
X005707Y005608D02*
X018738Y005608D01*
X018695Y005510D02*
X005676Y005510D01*
X005632Y005411D02*
X018695Y005411D01*
X018695Y005313D02*
X005574Y005313D01*
X005250Y005017D02*
X018793Y005017D01*
X018793Y004919D02*
X004976Y004919D01*
X004846Y004919D02*
X004746Y004919D01*
X004746Y005017D02*
X004846Y005017D01*
X004846Y005116D02*
X004746Y005116D01*
X004746Y005214D02*
X004846Y005214D01*
X004846Y005313D02*
X004746Y005313D01*
X004746Y005411D02*
X004846Y005411D01*
X004846Y005510D02*
X004746Y005510D01*
X004746Y005608D02*
X004846Y005608D01*
X004846Y005904D02*
X004746Y005904D01*
X004746Y006002D02*
X004846Y006002D01*
X004846Y006101D02*
X004746Y006101D01*
X004746Y006199D02*
X004846Y006199D01*
X004846Y006298D02*
X004746Y006298D01*
X004746Y006396D02*
X004846Y006396D01*
X004846Y006495D02*
X004746Y006495D01*
X004746Y006593D02*
X004846Y006593D01*
X004846Y006692D02*
X004746Y006692D01*
X004394Y006692D02*
X001213Y006692D01*
X001212Y006790D02*
X003346Y006790D01*
X003127Y006889D02*
X001212Y006889D01*
X001212Y006987D02*
X002991Y006987D01*
X002896Y007086D02*
X001212Y007086D01*
X001211Y007184D02*
X002824Y007184D01*
X002769Y007283D02*
X001211Y007283D01*
X001211Y007381D02*
X002728Y007381D01*
X002699Y007480D02*
X001210Y007480D01*
X001210Y007578D02*
X002682Y007578D01*
X001206Y008662D02*
X010576Y008662D01*
X010576Y008563D02*
X006226Y008563D01*
X006464Y008465D02*
X010596Y008465D01*
X010637Y008366D02*
X006576Y008366D01*
X006674Y008268D02*
X010732Y008268D01*
X010838Y007972D02*
X006835Y007972D01*
X006876Y007874D02*
X010689Y007874D01*
X010638Y007823D02*
X010576Y007673D01*
X010576Y007511D01*
X010638Y007362D01*
X010753Y007247D01*
X010902Y007185D01*
X011064Y007185D01*
X011214Y007247D01*
X011328Y007362D01*
X011390Y007511D01*
X011390Y007673D01*
X011328Y007823D01*
X011214Y007937D01*
X011064Y007999D01*
X010902Y007999D01*
X010753Y007937D01*
X010638Y007823D01*
X010619Y007775D02*
X006877Y007775D01*
X006877Y007677D02*
X010578Y007677D01*
X010576Y007578D02*
X006877Y007578D01*
X006863Y007480D02*
X010590Y007480D01*
X010630Y007381D02*
X006822Y007381D01*
X006782Y007283D02*
X010717Y007283D01*
X011249Y007283D02*
X023855Y007283D01*
X023752Y007381D02*
X011336Y007381D01*
X011377Y007480D02*
X023648Y007480D01*
X023545Y007578D02*
X011390Y007578D01*
X011389Y007677D02*
X023442Y007677D01*
X023339Y007775D02*
X011348Y007775D01*
X011277Y007874D02*
X023235Y007874D01*
X023132Y007972D02*
X011129Y007972D01*
X011234Y008268D02*
X022822Y008268D01*
X022719Y008366D02*
X011583Y008366D01*
X011681Y008465D02*
X022615Y008465D01*
X022512Y008563D02*
X011780Y008563D01*
X011878Y008662D02*
X022409Y008662D01*
X022306Y008760D02*
X011977Y008760D01*
X012075Y008859D02*
X022202Y008859D01*
X022099Y008957D02*
X012174Y008957D01*
X012469Y009253D02*
X013284Y009253D01*
X013125Y009351D02*
X012568Y009351D01*
X012666Y009450D02*
X013038Y009450D01*
X012998Y009548D02*
X012713Y009548D01*
X012713Y009647D02*
X012973Y009647D01*
X012973Y009745D02*
X012713Y009745D01*
X012713Y009844D02*
X012992Y009844D01*
X013033Y009942D02*
X012713Y009942D01*
X012713Y010041D02*
X013113Y010041D01*
X013254Y010139D02*
X012713Y010139D01*
X012253Y009942D02*
X011383Y009942D01*
X011390Y009844D02*
X012253Y009844D01*
X012253Y009745D02*
X011390Y009745D01*
X011390Y009647D02*
X012213Y009647D01*
X012114Y009548D02*
X011390Y009548D01*
X011390Y009450D02*
X012016Y009450D01*
X011917Y009351D02*
X011390Y009351D01*
X011390Y009253D02*
X011819Y009253D01*
X011523Y008957D02*
X011165Y008957D01*
X011292Y008859D02*
X011425Y008859D01*
X010801Y008957D02*
X001205Y008957D01*
X001206Y008859D02*
X010674Y008859D01*
X010613Y008760D02*
X001206Y008760D01*
X002851Y010645D02*
X003002Y010582D01*
X003165Y010582D01*
X003316Y010645D01*
X003431Y010760D01*
X003493Y010911D01*
X003493Y011074D01*
X003431Y011224D01*
X003316Y011340D01*
X003165Y011402D01*
X003002Y011402D01*
X002851Y011340D01*
X002736Y011224D01*
X002673Y011074D01*
X002673Y010911D01*
X002736Y010760D01*
X002851Y010645D01*
X002882Y010632D02*
X001200Y010632D01*
X001200Y010730D02*
X002765Y010730D01*
X002707Y010829D02*
X001199Y010829D01*
X001199Y010927D02*
X002673Y010927D01*
X002673Y011026D02*
X001199Y011026D01*
X001198Y011124D02*
X002694Y011124D01*
X002735Y011223D02*
X001198Y011223D01*
X001198Y011321D02*
X002833Y011321D01*
X003334Y011321D02*
X003833Y011321D01*
X003851Y011340D02*
X003736Y011224D01*
X003673Y011074D01*
X003673Y010911D01*
X003736Y010760D01*
X003851Y010645D01*
X004002Y010582D01*
X004165Y010582D01*
X004316Y010645D01*
X004431Y010760D01*
X004493Y010911D01*
X004493Y011074D01*
X004431Y011224D01*
X004316Y011340D01*
X004165Y011402D01*
X004002Y011402D01*
X003851Y011340D01*
X003735Y011223D02*
X003432Y011223D01*
X003472Y011124D02*
X003694Y011124D01*
X003673Y011026D02*
X003493Y011026D01*
X003493Y010927D02*
X003673Y010927D01*
X003707Y010829D02*
X003459Y010829D01*
X003401Y010730D02*
X003765Y010730D01*
X003882Y010632D02*
X003284Y010632D01*
X004284Y010632D02*
X004882Y010632D01*
X004765Y010730D02*
X004401Y010730D01*
X004459Y010829D02*
X004707Y010829D01*
X004673Y010927D02*
X004493Y010927D01*
X004493Y011026D02*
X004673Y011026D01*
X004694Y011124D02*
X004472Y011124D01*
X004432Y011223D02*
X004735Y011223D01*
X004833Y011321D02*
X004334Y011321D01*
X005590Y012429D02*
X005720Y012298D01*
X005891Y012228D01*
X006076Y012228D01*
X006246Y012298D01*
X006377Y012429D01*
X006448Y012600D01*
X006448Y012784D01*
X006377Y012955D01*
X006246Y013086D01*
X006076Y013156D01*
X005891Y013156D01*
X005720Y013086D01*
X005590Y012955D01*
X005519Y012784D01*
X005519Y012600D01*
X005590Y012429D01*
X005614Y012405D02*
X002353Y012405D01*
X002377Y012429D02*
X002448Y012600D01*
X002448Y012784D01*
X002377Y012955D01*
X002246Y013086D01*
X002076Y013156D01*
X001891Y013156D01*
X001720Y013086D01*
X001590Y012955D01*
X001519Y012784D01*
X001519Y012600D01*
X001590Y012429D01*
X001720Y012298D01*
X001891Y012228D01*
X002076Y012228D01*
X002246Y012298D01*
X002377Y012429D01*
X002408Y012503D02*
X005559Y012503D01*
X005519Y012602D02*
X002448Y012602D01*
X002448Y012700D02*
X005519Y012700D01*
X005525Y012799D02*
X002442Y012799D01*
X002401Y012897D02*
X005566Y012897D01*
X005630Y012996D02*
X002336Y012996D01*
X002226Y013094D02*
X005741Y013094D01*
X006226Y013094D02*
X008880Y013094D01*
X008835Y012996D02*
X007340Y012996D01*
X007306Y013010D02*
X007441Y012954D01*
X007545Y012850D01*
X007601Y012715D01*
X007601Y012569D01*
X007545Y012434D01*
X007441Y012331D01*
X007306Y012275D01*
X007160Y012275D01*
X007025Y012331D01*
X006922Y012434D01*
X006866Y012569D01*
X006866Y012715D01*
X006922Y012850D01*
X007025Y012954D01*
X007160Y013010D01*
X007306Y013010D01*
X007127Y012996D02*
X006336Y012996D01*
X006401Y012897D02*
X006969Y012897D01*
X006900Y012799D02*
X006442Y012799D01*
X006448Y012700D02*
X006866Y012700D01*
X006866Y012602D02*
X006448Y012602D01*
X006408Y012503D02*
X006893Y012503D01*
X006951Y012405D02*
X006353Y012405D01*
X006254Y012306D02*
X007084Y012306D01*
X007383Y012306D02*
X008520Y012306D01*
X008565Y012405D02*
X007516Y012405D01*
X007574Y012503D02*
X008610Y012503D01*
X008655Y012602D02*
X007601Y012602D01*
X007601Y012700D02*
X008700Y012700D01*
X008745Y012799D02*
X007566Y012799D01*
X007498Y012897D02*
X008790Y012897D01*
X008925Y013193D02*
X001192Y013193D01*
X001191Y013291D02*
X008970Y013291D01*
X008963Y013390D02*
X001191Y013390D01*
X001191Y013488D02*
X008913Y013488D01*
X009114Y014182D02*
X008873Y014422D01*
X008873Y014562D01*
X009253Y014562D01*
X009253Y014622D01*
X008873Y014622D01*
X008873Y014762D01*
X009114Y015002D01*
X009253Y015002D01*
X009253Y014622D01*
X009313Y014622D01*
X009313Y015002D01*
X009453Y015002D01*
X009693Y014762D01*
X009693Y014622D01*
X009313Y014622D01*
X009313Y014562D01*
X009313Y014182D01*
X009453Y014182D01*
X009693Y014422D01*
X009693Y014562D01*
X009313Y014562D01*
X009253Y014562D01*
X009253Y014182D01*
X009114Y014182D01*
X009019Y014276D02*
X007310Y014276D01*
X007306Y014275D02*
X007441Y014331D01*
X007545Y014434D01*
X007601Y014569D01*
X007601Y014715D01*
X007545Y014850D01*
X007441Y014954D01*
X007306Y015010D01*
X007160Y015010D01*
X007025Y014954D01*
X006922Y014850D01*
X006866Y014715D01*
X006866Y014569D01*
X006922Y014434D01*
X007025Y014331D01*
X007160Y014275D01*
X007306Y014275D01*
X007157Y014276D02*
X005404Y014276D01*
X005427Y014299D02*
X005376Y014249D01*
X005319Y014207D01*
X005256Y014175D01*
X005189Y014153D01*
X005133Y014144D01*
X005133Y014542D01*
X005033Y014542D01*
X004636Y014542D01*
X004644Y014487D01*
X004666Y014419D01*
X004698Y014356D01*
X004740Y014299D01*
X004790Y014249D01*
X004847Y014207D01*
X004911Y014175D01*
X004978Y014153D01*
X005033Y014144D01*
X005033Y014542D01*
X005033Y014642D01*
X004636Y014642D01*
X004644Y014698D01*
X004666Y014765D01*
X004698Y014828D01*
X004740Y014885D01*
X004790Y014935D01*
X004847Y014977D01*
X004911Y015009D01*
X004978Y015031D01*
X005033Y015040D01*
X005033Y014642D01*
X005133Y014642D01*
X005133Y015040D01*
X005189Y015031D01*
X005256Y015009D01*
X005319Y014977D01*
X005376Y014935D01*
X005427Y014885D01*
X005468Y014828D01*
X005500Y014765D01*
X005522Y014698D01*
X005531Y014642D01*
X005133Y014642D01*
X005133Y014542D01*
X005531Y014542D01*
X005522Y014487D01*
X005500Y014419D01*
X005468Y014356D01*
X005427Y014299D01*
X005478Y014375D02*
X006981Y014375D01*
X006906Y014473D02*
X005518Y014473D01*
X005527Y014670D02*
X006866Y014670D01*
X006866Y014572D02*
X005133Y014572D01*
X005133Y014670D02*
X005033Y014670D01*
X005033Y014572D02*
X004493Y014572D01*
X004493Y014511D02*
X004431Y014360D01*
X004316Y014245D01*
X004165Y014182D01*
X004002Y014182D01*
X003851Y014245D01*
X003736Y014360D01*
X003673Y014511D01*
X003673Y014674D01*
X003736Y014824D01*
X003851Y014940D01*
X004002Y015002D01*
X004165Y015002D01*
X004316Y014940D01*
X004431Y014824D01*
X004493Y014674D01*
X004493Y014511D01*
X004478Y014473D02*
X004649Y014473D01*
X004689Y014375D02*
X004437Y014375D01*
X004347Y014276D02*
X004763Y014276D01*
X004906Y014178D02*
X002829Y014178D01*
X002748Y014097D02*
X002748Y014097D01*
X002705Y014079D02*
X012895Y014079D01*
X012994Y014178D02*
X005261Y014178D01*
X005133Y014178D02*
X005033Y014178D01*
X005033Y014276D02*
X005133Y014276D01*
X005133Y014375D02*
X005033Y014375D01*
X005033Y014473D02*
X005133Y014473D01*
X005133Y014769D02*
X005033Y014769D01*
X005033Y014867D02*
X005133Y014867D01*
X005133Y014966D02*
X005033Y014966D01*
X004832Y014966D02*
X004253Y014966D01*
X004388Y014867D02*
X004727Y014867D01*
X004668Y014769D02*
X004454Y014769D01*
X004493Y014670D02*
X004640Y014670D01*
X005335Y014966D02*
X007054Y014966D01*
X006939Y014867D02*
X005440Y014867D01*
X005498Y014769D02*
X006888Y014769D01*
X007413Y014966D02*
X009077Y014966D01*
X008979Y014867D02*
X007528Y014867D01*
X007579Y014769D02*
X008880Y014769D01*
X008873Y014670D02*
X007601Y014670D01*
X007601Y014572D02*
X009253Y014572D01*
X009313Y014572D02*
X011596Y014572D01*
X011596Y014573D02*
X011596Y014554D01*
X011610Y014479D01*
X011640Y014408D01*
X011682Y014345D01*
X011736Y014291D01*
X011800Y014248D01*
X011870Y014219D01*
X011945Y014204D01*
X011964Y014204D01*
X011964Y014573D01*
X011596Y014573D01*
X011596Y014611D02*
X011964Y014611D01*
X011964Y014573D01*
X012002Y014573D01*
X012002Y014204D01*
X012022Y014204D01*
X012096Y014219D01*
X012167Y014248D01*
X012231Y014291D01*
X012285Y014345D01*
X012327Y014408D01*
X012356Y014479D01*
X012371Y014554D01*
X012371Y014573D01*
X012002Y014573D01*
X012002Y014611D01*
X011964Y014611D01*
X011964Y014980D01*
X011945Y014980D01*
X011870Y014965D01*
X011800Y014936D01*
X011736Y014893D01*
X011682Y014839D01*
X011640Y014776D01*
X011610Y014705D01*
X011596Y014630D01*
X011596Y014611D01*
X011603Y014670D02*
X009693Y014670D01*
X009687Y014769D02*
X011637Y014769D01*
X011710Y014867D02*
X009588Y014867D01*
X009490Y014966D02*
X011873Y014966D01*
X011964Y014966D02*
X012002Y014966D01*
X012002Y014980D02*
X012002Y014611D01*
X012371Y014611D01*
X012371Y014630D01*
X012356Y014705D01*
X012327Y014776D01*
X012285Y014839D01*
X012231Y014893D01*
X012167Y014936D01*
X012096Y014965D01*
X012022Y014980D01*
X012002Y014980D01*
X012093Y014966D02*
X013515Y014966D01*
X013503Y014867D02*
X012257Y014867D01*
X012330Y014769D02*
X013503Y014769D01*
X013486Y014670D02*
X012363Y014670D01*
X012371Y014572D02*
X013388Y014572D01*
X013289Y014473D02*
X012354Y014473D01*
X012304Y014375D02*
X013191Y014375D01*
X013092Y014276D02*
X012208Y014276D01*
X012002Y014276D02*
X011964Y014276D01*
X011964Y014375D02*
X012002Y014375D01*
X012002Y014473D02*
X011964Y014473D01*
X011964Y014572D02*
X012002Y014572D01*
X012002Y014670D02*
X011964Y014670D01*
X011964Y014769D02*
X012002Y014769D01*
X012002Y014867D02*
X011964Y014867D01*
X011613Y014473D02*
X009693Y014473D01*
X009646Y014375D02*
X011662Y014375D01*
X011758Y014276D02*
X009547Y014276D01*
X009313Y014276D02*
X009253Y014276D01*
X009253Y014375D02*
X009313Y014375D01*
X009313Y014473D02*
X009253Y014473D01*
X009253Y014670D02*
X009313Y014670D01*
X009313Y014769D02*
X009253Y014769D01*
X009253Y014867D02*
X009313Y014867D01*
X009313Y014966D02*
X009253Y014966D01*
X008873Y014473D02*
X007561Y014473D01*
X007486Y014375D02*
X008921Y014375D01*
X012864Y012897D02*
X014061Y012897D01*
X014406Y012897D02*
X014992Y012897D01*
X014986Y012893D02*
X014932Y012839D01*
X014890Y012776D01*
X014860Y012705D01*
X014846Y012630D01*
X014846Y012611D01*
X015214Y012611D01*
X015214Y012573D01*
X015252Y012573D01*
X015252Y012611D01*
X015214Y012611D01*
X015214Y012980D01*
X015195Y012980D01*
X015120Y012965D01*
X015050Y012936D01*
X014986Y012893D01*
X014905Y012799D02*
X014519Y012799D01*
X014565Y012700D02*
X014859Y012700D01*
X014856Y012503D02*
X014573Y012503D01*
X014581Y012602D02*
X015214Y012602D01*
X015252Y012602D02*
X016470Y012602D01*
X016363Y012700D02*
X015607Y012700D01*
X015606Y012705D02*
X015577Y012776D01*
X015535Y012839D01*
X015481Y012893D01*
X015417Y012936D01*
X015346Y012965D01*
X015272Y012980D01*
X015252Y012980D01*
X015252Y012611D01*
X015621Y012611D01*
X015621Y012630D01*
X015606Y012705D01*
X015562Y012799D02*
X016256Y012799D01*
X016149Y012897D02*
X015475Y012897D01*
X015252Y012897D02*
X015214Y012897D01*
X015214Y012799D02*
X015252Y012799D01*
X015252Y012700D02*
X015214Y012700D01*
X015214Y012503D02*
X015252Y012503D01*
X015252Y012405D02*
X015214Y012405D01*
X015214Y012306D02*
X015252Y012306D01*
X015496Y012306D02*
X016791Y012306D01*
X016684Y012405D02*
X015574Y012405D01*
X015611Y012503D02*
X016577Y012503D01*
X016936Y012799D02*
X020503Y012799D01*
X020499Y012897D02*
X019967Y012897D01*
X019932Y012862D02*
X019535Y012862D01*
X019253Y013143D01*
X019253Y013541D01*
X019535Y013822D01*
X019932Y013822D01*
X020213Y013541D01*
X020213Y013143D01*
X019932Y012862D01*
X020066Y012996D02*
X020401Y012996D01*
X020302Y013094D02*
X020164Y013094D01*
X020213Y013193D02*
X020253Y013193D01*
X020253Y013291D02*
X020213Y013291D01*
X020213Y013390D02*
X020253Y013390D01*
X020253Y013488D02*
X020213Y013488D01*
X020168Y013587D02*
X020299Y013587D01*
X020398Y013685D02*
X020069Y013685D01*
X019971Y013784D02*
X020496Y013784D01*
X020535Y013862D02*
X020932Y013862D01*
X021213Y014143D01*
X021213Y014541D01*
X020932Y014822D01*
X020535Y014822D01*
X020253Y014541D01*
X020253Y014143D01*
X020535Y013862D01*
X020514Y013882D02*
X019952Y013882D01*
X019932Y013862D02*
X020213Y014143D01*
X020213Y014541D01*
X019932Y014822D01*
X019535Y014822D01*
X019253Y014541D01*
X019253Y014143D01*
X019535Y013862D01*
X019932Y013862D01*
X020051Y013981D02*
X020416Y013981D01*
X020317Y014079D02*
X020149Y014079D01*
X020213Y014178D02*
X020253Y014178D01*
X020253Y014276D02*
X020213Y014276D01*
X020213Y014375D02*
X020253Y014375D01*
X020253Y014473D02*
X020213Y014473D01*
X020183Y014572D02*
X020284Y014572D01*
X020383Y014670D02*
X020084Y014670D01*
X019986Y014769D02*
X020481Y014769D01*
X020986Y014769D02*
X021481Y014769D01*
X021383Y014670D02*
X021084Y014670D01*
X021183Y014572D02*
X021284Y014572D01*
X021253Y014473D02*
X021213Y014473D01*
X021213Y014375D02*
X021253Y014375D01*
X021253Y014276D02*
X021213Y014276D01*
X021213Y014178D02*
X021253Y014178D01*
X021317Y014079D02*
X021149Y014079D01*
X021051Y013981D02*
X021416Y013981D01*
X021514Y013882D02*
X020952Y013882D01*
X020971Y013784D02*
X021496Y013784D01*
X021398Y013685D02*
X021069Y013685D01*
X021168Y013587D02*
X021299Y013587D01*
X021253Y013488D02*
X021213Y013488D01*
X021213Y013390D02*
X021253Y013390D01*
X021253Y013291D02*
X021213Y013291D01*
X021213Y013193D02*
X021253Y013193D01*
X021302Y013094D02*
X021164Y013094D01*
X021066Y012996D02*
X021401Y012996D01*
X020963Y012700D02*
X023073Y012700D01*
X023070Y012602D02*
X022299Y012602D01*
X022363Y012503D02*
X023085Y012503D01*
X023217Y012405D02*
X022363Y012405D01*
X022363Y012306D02*
X023348Y012306D01*
X023479Y012208D02*
X022363Y012208D01*
X022363Y012109D02*
X023611Y012109D01*
X023742Y012011D02*
X022363Y012011D01*
X022363Y011912D02*
X023873Y011912D01*
X024005Y011814D02*
X022363Y011814D01*
X023251Y011617D02*
X023638Y011617D01*
X023558Y011518D02*
X023251Y011518D01*
X023251Y011420D02*
X023518Y011420D01*
X023516Y011321D02*
X023251Y011321D01*
X023251Y011223D02*
X023535Y011223D01*
X023582Y011124D02*
X023251Y011124D01*
X023237Y011026D02*
X023687Y011026D01*
X023810Y010510D02*
X023675Y010454D01*
X023572Y010350D01*
X023516Y010215D01*
X023516Y010069D01*
X023572Y009934D01*
X023675Y009831D01*
X023810Y009775D01*
X023956Y009775D01*
X024091Y009831D01*
X024195Y009934D01*
X024251Y010069D01*
X024251Y010215D01*
X024195Y010350D01*
X024091Y010454D01*
X023956Y010510D01*
X023810Y010510D01*
X023656Y010435D02*
X023251Y010435D01*
X023251Y010445D02*
X023186Y010510D01*
X022580Y010510D01*
X022516Y010445D01*
X022516Y009839D01*
X022580Y009775D01*
X023186Y009775D01*
X023251Y009839D01*
X023251Y010445D01*
X023251Y010336D02*
X023566Y010336D01*
X023525Y010238D02*
X023251Y010238D01*
X023251Y010139D02*
X023516Y010139D01*
X023528Y010041D02*
X023251Y010041D01*
X023251Y009942D02*
X023568Y009942D01*
X023662Y009844D02*
X023251Y009844D01*
X022516Y009844D02*
X022363Y009844D01*
X022363Y009942D02*
X022516Y009942D01*
X022516Y010041D02*
X022363Y010041D01*
X022363Y010139D02*
X022516Y010139D01*
X022516Y010238D02*
X022363Y010238D01*
X022363Y010336D02*
X022516Y010336D01*
X022516Y010435D02*
X022363Y010435D01*
X022363Y010533D02*
X026023Y010533D01*
X026023Y010435D02*
X024111Y010435D01*
X024201Y010336D02*
X026023Y010336D01*
X026022Y010238D02*
X024242Y010238D01*
X024251Y010139D02*
X026060Y010139D01*
X026144Y010041D02*
X024239Y010041D01*
X024198Y009942D02*
X026228Y009942D01*
X026311Y009844D02*
X024105Y009844D01*
X022456Y009253D02*
X027576Y009253D01*
X027441Y009351D02*
X022363Y009351D01*
X022363Y009450D02*
X026644Y009450D01*
X026561Y009548D02*
X022363Y009548D01*
X022363Y009647D02*
X026478Y009647D01*
X026394Y009745D02*
X022363Y009745D01*
X022766Y008957D02*
X027638Y008957D01*
X027467Y008859D02*
X022869Y008859D01*
X022972Y008760D02*
X024671Y008760D01*
X024666Y008759D02*
X024591Y008735D01*
X024521Y008699D01*
X024458Y008653D01*
X024402Y008597D01*
X024356Y008534D01*
X024320Y008464D01*
X024296Y008389D01*
X024283Y008311D01*
X024283Y008310D01*
X024745Y008310D01*
X024745Y008233D01*
X024822Y008233D01*
X024822Y008310D01*
X025283Y008310D01*
X025283Y008311D01*
X025271Y008389D01*
X025247Y008464D01*
X025211Y008534D01*
X025165Y008597D01*
X025109Y008653D01*
X025045Y008699D01*
X024975Y008735D01*
X024900Y008759D01*
X024823Y008772D01*
X024822Y008772D01*
X024822Y008310D01*
X024745Y008310D01*
X024745Y008772D01*
X024744Y008772D01*
X024666Y008759D01*
X024745Y008760D02*
X024822Y008760D01*
X024895Y008760D02*
X026726Y008760D01*
X026628Y008662D02*
X025097Y008662D01*
X025190Y008563D02*
X026529Y008563D01*
X026431Y008465D02*
X025246Y008465D01*
X025275Y008366D02*
X026332Y008366D01*
X026234Y008268D02*
X024822Y008268D01*
X024822Y008233D02*
X025283Y008233D01*
X025283Y008232D01*
X025271Y008155D01*
X025247Y008080D01*
X025211Y008010D01*
X025165Y007946D01*
X025109Y007890D01*
X025045Y007844D01*
X024975Y007808D01*
X024900Y007784D01*
X024823Y007772D01*
X024822Y007772D01*
X024822Y008233D01*
X024822Y008169D02*
X024745Y008169D01*
X024745Y008233D02*
X024745Y007772D01*
X024744Y007772D01*
X024666Y007784D01*
X024591Y007808D01*
X024521Y007844D01*
X024458Y007890D01*
X024402Y007946D01*
X024356Y008010D01*
X024320Y008080D01*
X024296Y008155D01*
X024283Y008232D01*
X024283Y008233D01*
X024745Y008233D01*
X024745Y008268D02*
X023489Y008268D01*
X023592Y008169D02*
X024293Y008169D01*
X024325Y008071D02*
X023695Y008071D01*
X023799Y007972D02*
X024383Y007972D01*
X024480Y007874D02*
X023902Y007874D01*
X024005Y007775D02*
X024722Y007775D01*
X024745Y007775D02*
X024822Y007775D01*
X024845Y007775D02*
X025741Y007775D01*
X025643Y007677D02*
X024108Y007677D01*
X024212Y007578D02*
X025544Y007578D01*
X025446Y007480D02*
X024315Y007480D01*
X023958Y007184D02*
X006741Y007184D01*
X006643Y007086D02*
X007319Y007086D01*
X007445Y007086D02*
X007522Y007086D01*
X007522Y007112D02*
X007522Y006631D01*
X008003Y006631D01*
X008003Y006633D01*
X007991Y006714D01*
X007965Y006792D01*
X007928Y006865D01*
X007880Y006931D01*
X007822Y006989D01*
X007756Y007037D01*
X007683Y007074D01*
X007605Y007099D01*
X007524Y007112D01*
X007522Y007112D01*
X007522Y006987D02*
X007445Y006987D01*
X007445Y006889D02*
X007522Y006889D01*
X007522Y006790D02*
X007445Y006790D01*
X007445Y006692D02*
X007522Y006692D01*
X007522Y006593D02*
X008003Y006593D01*
X008003Y006688D02*
X008003Y006497D01*
X008076Y006320D01*
X008211Y006185D01*
X008388Y006112D01*
X008579Y006112D01*
X008755Y006185D01*
X008890Y006320D01*
X008963Y006497D01*
X008963Y006688D01*
X008890Y006864D01*
X008755Y006999D01*
X008579Y007072D01*
X008388Y007072D01*
X008211Y006999D01*
X008076Y006864D01*
X008003Y006688D01*
X008005Y006692D02*
X007994Y006692D01*
X007966Y006790D02*
X008046Y006790D01*
X008101Y006889D02*
X007911Y006889D01*
X007824Y006987D02*
X008200Y006987D01*
X008767Y006987D02*
X009200Y006987D01*
X009101Y006889D02*
X008866Y006889D01*
X008921Y006790D02*
X009046Y006790D01*
X009005Y006692D02*
X008962Y006692D01*
X008963Y006593D02*
X009003Y006593D01*
X009004Y006495D02*
X008963Y006495D01*
X008922Y006396D02*
X009045Y006396D01*
X009099Y006298D02*
X008868Y006298D01*
X008769Y006199D02*
X009197Y006199D01*
X008197Y006199D02*
X007826Y006199D01*
X007912Y006298D02*
X008099Y006298D01*
X008045Y006396D02*
X007966Y006396D01*
X007994Y006495D02*
X008004Y006495D01*
X007313Y006101D02*
X005701Y006101D01*
X005723Y006002D02*
X021323Y006002D01*
X021323Y005904D02*
X005735Y005904D01*
X005667Y006199D02*
X007141Y006199D01*
X007055Y006298D02*
X005620Y006298D01*
X005556Y006396D02*
X007000Y006396D01*
X006972Y006495D02*
X005472Y006495D01*
X006389Y006889D02*
X007056Y006889D01*
X007143Y006987D02*
X006545Y006987D01*
X007647Y007086D02*
X024062Y007086D01*
X024163Y006987D02*
X009767Y006987D01*
X006794Y008071D02*
X023029Y008071D01*
X022925Y008169D02*
X006754Y008169D01*
X010626Y010632D02*
X012253Y010632D01*
X012253Y010730D02*
X010800Y010730D01*
X010894Y010829D02*
X012253Y010829D01*
X012253Y010927D02*
X010935Y010927D01*
X010963Y011026D02*
X012253Y011026D01*
X012253Y011124D02*
X010963Y011124D01*
X010949Y011223D02*
X012253Y011223D01*
X012253Y011321D02*
X010908Y011321D01*
X010835Y011420D02*
X012253Y011420D01*
X012253Y011518D02*
X010709Y011518D01*
X008475Y012208D02*
X001195Y012208D01*
X001195Y012306D02*
X001713Y012306D01*
X001614Y012405D02*
X001194Y012405D01*
X001194Y012503D02*
X001559Y012503D01*
X001519Y012602D02*
X001194Y012602D01*
X001193Y012700D02*
X001519Y012700D01*
X001525Y012799D02*
X001193Y012799D01*
X001193Y012897D02*
X001566Y012897D01*
X001630Y012996D02*
X001192Y012996D01*
X001192Y013094D02*
X001741Y013094D01*
X002254Y012306D02*
X005713Y012306D01*
X008327Y011912D02*
X001196Y011912D01*
X001196Y011814D02*
X008323Y011814D01*
X008323Y011715D02*
X001197Y011715D01*
X001197Y011617D02*
X008323Y011617D01*
X008384Y012011D02*
X001196Y012011D01*
X001195Y012109D02*
X008429Y012109D01*
X012962Y012996D02*
X016042Y012996D01*
X015935Y013094D02*
X013061Y013094D01*
X013159Y013193D02*
X015828Y013193D01*
X015721Y013291D02*
X013213Y013291D01*
X013213Y013390D02*
X015611Y013390D01*
X015507Y013488D02*
X014240Y013488D01*
X014303Y013514D02*
X014160Y013455D01*
X014006Y013455D01*
X013864Y013514D01*
X013755Y013623D01*
X013696Y013765D01*
X013696Y013919D01*
X013755Y014061D01*
X013864Y014170D01*
X014006Y014229D01*
X014160Y014229D01*
X014303Y014170D01*
X014412Y014061D01*
X014470Y013919D01*
X014470Y013765D01*
X014412Y013623D01*
X014303Y013514D01*
X014375Y013587D02*
X015503Y013587D01*
X015503Y013685D02*
X014437Y013685D01*
X014470Y013784D02*
X015503Y013784D01*
X015503Y013882D02*
X014470Y013882D01*
X014445Y013981D02*
X015503Y013981D01*
X015421Y014079D02*
X014394Y014079D01*
X014285Y014178D02*
X015323Y014178D01*
X015224Y014276D02*
X013743Y014276D01*
X013841Y014375D02*
X013858Y014375D01*
X013882Y014178D02*
X013644Y014178D01*
X013546Y014079D02*
X013773Y014079D01*
X013722Y013981D02*
X013447Y013981D01*
X013349Y013882D02*
X013696Y013882D01*
X013696Y013784D02*
X013250Y013784D01*
X013213Y013685D02*
X013729Y013685D01*
X013791Y013587D02*
X013213Y013587D01*
X013213Y013488D02*
X013926Y013488D01*
X014109Y014375D02*
X015126Y014375D01*
X015027Y014473D02*
X014293Y014473D01*
X014391Y014572D02*
X014929Y014572D01*
X015382Y014769D02*
X016503Y014769D01*
X016503Y014867D02*
X015284Y014867D01*
X015185Y014966D02*
X016515Y014966D01*
X016556Y015064D02*
X015087Y015064D01*
X015481Y014670D02*
X016535Y014670D01*
X016576Y014572D02*
X015579Y014572D01*
X015678Y014473D02*
X016673Y014473D01*
X016858Y014375D02*
X015776Y014375D01*
X015875Y014276D02*
X018253Y014276D01*
X018253Y014178D02*
X017148Y014178D01*
X017162Y014168D02*
X017107Y014207D01*
X017047Y014238D01*
X016983Y014259D01*
X016922Y014269D01*
X016922Y013881D01*
X016845Y013881D01*
X016845Y014269D01*
X016783Y014259D01*
X016719Y014238D01*
X016659Y014207D01*
X016605Y014168D01*
X016558Y014120D01*
X016518Y014066D01*
X016487Y014006D01*
X016467Y013942D01*
X016457Y013881D01*
X016845Y013881D01*
X016845Y013804D01*
X016457Y013804D01*
X016467Y013742D01*
X016487Y013678D01*
X016518Y013618D01*
X016558Y013564D01*
X016605Y013516D01*
X016659Y013477D01*
X016719Y013446D01*
X016783Y013425D01*
X016845Y013416D01*
X016845Y013804D01*
X016922Y013804D01*
X016922Y013881D01*
X017310Y013881D01*
X017300Y013942D01*
X017279Y014006D01*
X017249Y014066D01*
X017209Y014120D01*
X017162Y014168D01*
X017239Y014079D02*
X018317Y014079D01*
X018253Y014143D02*
X018535Y013862D01*
X018932Y013862D01*
X019213Y014143D01*
X019213Y014541D01*
X018932Y014822D01*
X018535Y014822D01*
X018253Y014541D01*
X018253Y014143D01*
X018416Y013981D02*
X017287Y013981D01*
X017309Y013882D02*
X018514Y013882D01*
X018535Y013822D02*
X018253Y013541D01*
X018253Y013143D01*
X018535Y012862D01*
X018932Y012862D01*
X019213Y013143D01*
X019213Y013541D01*
X018932Y013822D01*
X018535Y013822D01*
X018496Y013784D02*
X017307Y013784D01*
X017310Y013804D02*
X016922Y013804D01*
X016922Y013416D01*
X016983Y013425D01*
X017047Y013446D01*
X017107Y013477D01*
X017162Y013516D01*
X017209Y013564D01*
X017249Y013618D01*
X017279Y013678D01*
X017300Y013742D01*
X017310Y013804D01*
X017281Y013685D02*
X018398Y013685D01*
X018299Y013587D02*
X017226Y013587D01*
X017123Y013488D02*
X018253Y013488D01*
X018253Y013390D02*
X016293Y013390D01*
X016186Y013488D02*
X016644Y013488D01*
X016541Y013587D02*
X016079Y013587D01*
X015972Y013685D02*
X016485Y013685D01*
X016460Y013784D02*
X015963Y013784D01*
X015963Y013882D02*
X016457Y013882D01*
X016479Y013981D02*
X015963Y013981D01*
X015963Y014079D02*
X016528Y014079D01*
X016618Y014178D02*
X015963Y014178D01*
X016845Y014178D02*
X016922Y014178D01*
X016922Y014079D02*
X016845Y014079D01*
X016845Y013981D02*
X016922Y013981D01*
X016922Y013882D02*
X016845Y013882D01*
X016845Y013784D02*
X016922Y013784D01*
X016922Y013685D02*
X016845Y013685D01*
X016845Y013587D02*
X016922Y013587D01*
X016922Y013488D02*
X016845Y013488D01*
X016400Y013291D02*
X018253Y013291D01*
X018253Y013193D02*
X016507Y013193D01*
X016614Y013094D02*
X018302Y013094D01*
X018401Y012996D02*
X016721Y012996D01*
X016828Y012897D02*
X018499Y012897D01*
X018967Y012897D02*
X019499Y012897D01*
X019401Y012996D02*
X019066Y012996D01*
X019164Y013094D02*
X019302Y013094D01*
X019253Y013193D02*
X019213Y013193D01*
X019213Y013291D02*
X019253Y013291D01*
X019253Y013390D02*
X019213Y013390D01*
X019213Y013488D02*
X019253Y013488D01*
X019299Y013587D02*
X019168Y013587D01*
X019069Y013685D02*
X019398Y013685D01*
X019496Y013784D02*
X018971Y013784D01*
X018952Y013882D02*
X019514Y013882D01*
X019416Y013981D02*
X019051Y013981D01*
X019149Y014079D02*
X019317Y014079D01*
X019253Y014178D02*
X019213Y014178D01*
X019213Y014276D02*
X019253Y014276D01*
X019253Y014375D02*
X019213Y014375D01*
X019213Y014473D02*
X019253Y014473D01*
X019284Y014572D02*
X019183Y014572D01*
X019084Y014670D02*
X019383Y014670D01*
X019481Y014769D02*
X018986Y014769D01*
X018481Y014769D02*
X017463Y014769D01*
X017432Y014670D02*
X018383Y014670D01*
X018284Y014572D02*
X017391Y014572D01*
X017293Y014473D02*
X018253Y014473D01*
X018253Y014375D02*
X017109Y014375D01*
X017411Y015064D02*
X036258Y015064D01*
X036299Y015163D02*
X017342Y015163D01*
X017226Y015261D02*
X036343Y015261D01*
X036441Y015360D02*
X002875Y015360D01*
X002777Y015458D02*
X036540Y015458D01*
X036569Y015487D02*
X036569Y015487D01*
X036736Y015557D02*
X002580Y015557D01*
X002974Y015261D02*
X013741Y015261D01*
X013625Y015163D02*
X003017Y015163D01*
X002978Y015257D02*
X002978Y015257D01*
X003058Y015064D02*
X013556Y015064D01*
X014226Y015261D02*
X016741Y015261D01*
X016625Y015163D02*
X014342Y015163D01*
X017043Y012700D02*
X020503Y012700D01*
X023393Y012700D02*
X024073Y012700D01*
X024073Y012602D02*
X023487Y012602D01*
X023619Y012503D02*
X024073Y012503D01*
X024073Y012405D02*
X023750Y012405D01*
X023881Y012306D02*
X024073Y012306D01*
X024013Y012208D02*
X024142Y012208D01*
X024144Y012109D02*
X025740Y012109D01*
X025839Y012011D02*
X024275Y012011D01*
X025590Y011912D02*
X025937Y011912D01*
X026036Y011814D02*
X025688Y011814D01*
X025787Y011715D02*
X026134Y011715D01*
X026233Y011617D02*
X025885Y011617D01*
X025984Y011518D02*
X026331Y011518D01*
X026430Y011420D02*
X026082Y011420D01*
X026181Y011321D02*
X026528Y011321D01*
X026627Y011223D02*
X026279Y011223D01*
X026343Y011124D02*
X026725Y011124D01*
X026823Y011026D02*
X026343Y011026D01*
X026343Y010927D02*
X026823Y010927D01*
X026823Y010829D02*
X026343Y010829D01*
X026343Y010730D02*
X026823Y010730D01*
X026823Y010632D02*
X026343Y010632D01*
X026343Y010533D02*
X026823Y010533D01*
X026915Y010435D02*
X026343Y010435D01*
X026343Y010336D02*
X027456Y010336D01*
X027612Y010238D02*
X026397Y010238D01*
X026183Y010242D02*
X026183Y011092D01*
X026023Y010730D02*
X022363Y010730D01*
X022363Y010632D02*
X026023Y010632D01*
X026183Y010242D02*
X026733Y009592D01*
X027983Y009592D01*
X027452Y009844D02*
X026730Y009844D01*
X026647Y009942D02*
X027602Y009942D01*
X028365Y009942D02*
X030602Y009942D01*
X030452Y009844D02*
X028515Y009844D01*
X028580Y009745D02*
X030386Y009745D01*
X030353Y009647D02*
X028613Y009647D01*
X028613Y009548D02*
X030353Y009548D01*
X030382Y009450D02*
X028585Y009450D01*
X028526Y009351D02*
X030441Y009351D01*
X030576Y009253D02*
X028391Y009253D01*
X028354Y010238D02*
X030612Y010238D01*
X030456Y010336D02*
X028511Y010336D01*
X028579Y010435D02*
X030388Y010435D01*
X030353Y010533D02*
X028613Y010533D01*
X028613Y010632D02*
X030353Y010632D01*
X030380Y010730D02*
X028587Y010730D01*
X028530Y010829D02*
X030437Y010829D01*
X030565Y010927D02*
X028401Y010927D01*
X027983Y010592D02*
X026983Y010592D01*
X026983Y011092D01*
X027143Y010927D02*
X027565Y010927D01*
X027437Y010829D02*
X027143Y010829D01*
X028318Y011223D02*
X030648Y011223D01*
X031481Y012306D02*
X032364Y012306D01*
X032277Y012405D02*
X031566Y012405D01*
X032542Y012208D02*
X027094Y012208D01*
X026996Y012306D02*
X027486Y012306D01*
X027400Y012405D02*
X026897Y012405D01*
X026799Y012503D02*
X027360Y012503D01*
X027353Y012602D02*
X026700Y012602D01*
X026643Y012700D02*
X027368Y012700D01*
X027408Y012799D02*
X026643Y012799D01*
X026643Y012897D02*
X027505Y012897D01*
X027529Y011912D02*
X027390Y011912D01*
X022416Y013981D02*
X022051Y013981D01*
X022149Y014079D02*
X022317Y014079D01*
X022253Y014178D02*
X022213Y014178D01*
X022213Y014276D02*
X022253Y014276D01*
X016725Y011321D02*
X016508Y011321D01*
X016530Y011420D02*
X016656Y011420D01*
X016842Y011223D02*
X016465Y011223D01*
X016391Y011124D02*
X016787Y011124D01*
X016063Y011617D02*
X015963Y011617D01*
X015963Y011715D02*
X016063Y011715D01*
X016063Y011814D02*
X015963Y011814D01*
X015963Y011912D02*
X016063Y011912D01*
X014971Y012306D02*
X014439Y012306D01*
X014532Y012405D02*
X014892Y012405D01*
X023075Y008662D02*
X024469Y008662D01*
X024377Y008563D02*
X023179Y008563D01*
X023282Y008465D02*
X024321Y008465D01*
X024292Y008366D02*
X023385Y008366D01*
X024745Y008366D02*
X024822Y008366D01*
X024822Y008465D02*
X024745Y008465D01*
X024745Y008563D02*
X024822Y008563D01*
X024822Y008662D02*
X024745Y008662D01*
X025273Y008169D02*
X026135Y008169D01*
X026037Y008071D02*
X025242Y008071D01*
X025184Y007972D02*
X025938Y007972D01*
X025840Y007874D02*
X025086Y007874D01*
X024822Y007874D02*
X024745Y007874D01*
X024745Y007972D02*
X024822Y007972D01*
X024822Y008071D02*
X024745Y008071D01*
X026096Y007480D02*
X027329Y007480D01*
X027371Y007381D02*
X025998Y007381D01*
X025899Y007283D02*
X027453Y007283D01*
X027678Y007184D02*
X025801Y007184D01*
X026786Y008169D02*
X028831Y008169D01*
X028733Y008268D02*
X028427Y008268D01*
X028013Y007972D02*
X027953Y007972D01*
X027953Y007874D02*
X028013Y007874D01*
X028013Y007775D02*
X027953Y007775D01*
X027953Y007480D02*
X028013Y007480D01*
X028013Y007381D02*
X027953Y007381D01*
X027953Y007283D02*
X028013Y007283D01*
X028013Y007184D02*
X027953Y007184D01*
X029713Y007775D02*
X030399Y007775D01*
X030482Y007874D02*
X029713Y007874D01*
X029679Y007972D02*
X031823Y007972D01*
X031823Y007874D02*
X031485Y007874D01*
X031568Y007775D02*
X031823Y007775D01*
X031823Y007677D02*
X031609Y007677D01*
X031613Y007578D02*
X031823Y007578D01*
X031823Y007480D02*
X031597Y007480D01*
X031556Y007381D02*
X031823Y007381D01*
X031823Y007283D02*
X031457Y007283D01*
X030497Y006889D02*
X030262Y006889D01*
X029580Y008071D02*
X031823Y008071D01*
X031823Y008169D02*
X029482Y008169D01*
X030953Y008268D02*
X031013Y008268D01*
X031013Y008366D02*
X030953Y008366D01*
X030953Y008465D02*
X031013Y008465D01*
X031494Y008268D02*
X031823Y008268D01*
X031823Y008366D02*
X031586Y008366D01*
X031633Y008465D02*
X031823Y008465D01*
X032143Y009844D02*
X032356Y009844D01*
X032271Y009942D02*
X032143Y009942D01*
X032143Y010041D02*
X032219Y010041D01*
X032192Y010139D02*
X032143Y010139D01*
X036219Y010533D02*
X038183Y010533D01*
X038183Y010435D02*
X037367Y010435D01*
X037306Y010460D02*
X037160Y010460D01*
X037025Y010404D01*
X036922Y010300D01*
X036866Y010165D01*
X036866Y010019D01*
X036922Y009884D01*
X037025Y009781D01*
X037160Y009725D01*
X037306Y009725D01*
X037441Y009781D01*
X037545Y009884D01*
X037601Y010019D01*
X037601Y010165D01*
X037545Y010300D01*
X037441Y010404D01*
X037306Y010460D01*
X037100Y010435D02*
X036317Y010435D01*
X036416Y010336D02*
X036958Y010336D01*
X036896Y010238D02*
X036443Y010238D01*
X036443Y010139D02*
X036866Y010139D01*
X036866Y010041D02*
X036443Y010041D01*
X036443Y009942D02*
X036898Y009942D01*
X036962Y009844D02*
X036443Y009844D01*
X036443Y009745D02*
X037111Y009745D01*
X037356Y009745D02*
X038183Y009745D01*
X038183Y009647D02*
X036443Y009647D01*
X037505Y009844D02*
X038183Y009844D01*
X038183Y009942D02*
X037569Y009942D01*
X037601Y010041D02*
X038183Y010041D01*
X038183Y010139D02*
X037601Y010139D01*
X037571Y010238D02*
X038183Y010238D01*
X038183Y010336D02*
X037509Y010336D01*
X036233Y012342D02*
X036233Y013592D01*
X035843Y013982D01*
X035263Y014482D01*
X034822Y014670D02*
X033145Y014670D01*
X033096Y014769D02*
X034871Y014769D01*
X034970Y014867D02*
X032997Y014867D01*
X036170Y013882D02*
X038183Y013882D01*
X038183Y013784D02*
X036268Y013784D01*
X036367Y013685D02*
X038183Y013685D01*
X038183Y013587D02*
X036393Y013587D01*
X036393Y013488D02*
X038183Y013488D01*
X038183Y013390D02*
X036393Y013390D01*
X036393Y013291D02*
X038183Y013291D01*
X038183Y013193D02*
X036393Y013193D01*
X036393Y013094D02*
X038183Y013094D01*
X038183Y012996D02*
X036393Y012996D01*
X036393Y012897D02*
X038183Y012897D01*
X038183Y012799D02*
X036393Y012799D01*
X036393Y012700D02*
X038183Y012700D01*
X038183Y012602D02*
X036393Y012602D01*
X033823Y012306D02*
X033043Y012306D01*
X038183Y015754D02*
X001183Y015754D01*
X003099Y014966D02*
X003914Y014966D01*
X003779Y014867D02*
X003103Y014867D01*
X003103Y014769D02*
X003713Y014769D01*
X003673Y014670D02*
X003103Y014670D01*
X003080Y014572D02*
X003673Y014572D01*
X003689Y014473D02*
X003039Y014473D01*
X002998Y014375D02*
X003730Y014375D01*
X003819Y014276D02*
X002927Y014276D01*
X002978Y014328D02*
X002978Y014328D01*
X021483Y006592D02*
X021483Y002342D01*
X021983Y001842D01*
X021616Y001865D02*
X021351Y001865D01*
X021351Y001915D02*
X021295Y002050D01*
X021191Y002154D01*
X021056Y002210D01*
X020910Y002210D01*
X020893Y002203D01*
X020893Y005054D01*
X020957Y005054D01*
X021021Y005118D01*
X021021Y005566D01*
X020957Y005630D01*
X020510Y005630D01*
X020445Y005566D01*
X020445Y005118D01*
X020510Y005054D01*
X020573Y005054D01*
X020573Y002026D01*
X020636Y001963D01*
X020616Y001915D01*
X020616Y001769D01*
X020672Y001634D01*
X020775Y001531D01*
X020910Y001475D01*
X021056Y001475D01*
X021191Y001531D01*
X021295Y001634D01*
X021351Y001769D01*
X021351Y001915D01*
X021331Y001964D02*
X021636Y001964D01*
X021537Y002062D02*
X021283Y002062D01*
X021175Y002161D02*
X021439Y002161D01*
X021340Y002259D02*
X020893Y002259D01*
X020893Y002358D02*
X021323Y002358D01*
X021323Y002456D02*
X020893Y002456D01*
X020893Y002555D02*
X021323Y002555D01*
X021323Y002653D02*
X020893Y002653D01*
X020893Y002752D02*
X021323Y002752D01*
X021323Y002850D02*
X020893Y002850D01*
X020893Y002949D02*
X021323Y002949D01*
X021323Y003047D02*
X020893Y003047D01*
X020893Y003146D02*
X021323Y003146D01*
X021323Y003244D02*
X020893Y003244D01*
X020893Y003343D02*
X021323Y003343D01*
X021323Y003441D02*
X020893Y003441D01*
X020893Y003540D02*
X021323Y003540D01*
X021323Y003638D02*
X020893Y003638D01*
X020893Y003737D02*
X021323Y003737D01*
X021323Y003835D02*
X020893Y003835D01*
X020893Y003934D02*
X021323Y003934D01*
X021323Y004032D02*
X020893Y004032D01*
X020893Y004131D02*
X021323Y004131D01*
X021323Y004229D02*
X020893Y004229D01*
X020893Y004328D02*
X021323Y004328D01*
X021323Y004426D02*
X020893Y004426D01*
X020893Y004525D02*
X021323Y004525D01*
X021323Y004623D02*
X020893Y004623D01*
X020893Y004722D02*
X021323Y004722D01*
X021323Y004820D02*
X020893Y004820D01*
X020893Y004919D02*
X021323Y004919D01*
X021323Y005017D02*
X020893Y005017D01*
X021019Y005116D02*
X021323Y005116D01*
X021323Y005214D02*
X021021Y005214D01*
X021021Y005313D02*
X021323Y005313D01*
X021323Y005411D02*
X021021Y005411D01*
X021021Y005510D02*
X021323Y005510D01*
X021323Y005608D02*
X020979Y005608D01*
X020733Y005342D02*
X020733Y002092D01*
X020983Y001842D01*
X020616Y001865D02*
X020012Y001865D01*
X020012Y001871D02*
X020391Y001871D01*
X020391Y001874D01*
X020381Y001938D01*
X020361Y001999D01*
X020332Y002056D01*
X020294Y002108D01*
X020249Y002153D01*
X020197Y002191D01*
X020140Y002220D01*
X020079Y002240D01*
X020015Y002250D01*
X020012Y002250D01*
X020012Y001871D01*
X019955Y001871D01*
X019955Y002250D01*
X019951Y002250D01*
X019888Y002240D01*
X019827Y002220D01*
X019770Y002191D01*
X019718Y002153D01*
X019673Y002108D01*
X019635Y002056D01*
X019606Y001999D01*
X019586Y001938D01*
X019576Y001874D01*
X019576Y001871D01*
X019955Y001871D01*
X019955Y001813D01*
X020012Y001813D01*
X020012Y001435D01*
X020015Y001435D01*
X020079Y001445D01*
X020140Y001464D01*
X020197Y001494D01*
X020249Y001531D01*
X020294Y001577D01*
X020332Y001629D01*
X020361Y001686D01*
X020381Y001747D01*
X020391Y001810D01*
X020391Y001813D01*
X020012Y001813D01*
X020012Y001871D01*
X019955Y001865D02*
X019351Y001865D01*
X019351Y001767D02*
X019583Y001767D01*
X019586Y001747D02*
X019576Y001810D01*
X019576Y001813D01*
X019955Y001813D01*
X019955Y001435D01*
X019951Y001435D01*
X019888Y001445D01*
X019827Y001464D01*
X019770Y001494D01*
X019718Y001531D01*
X019673Y001577D01*
X019635Y001629D01*
X019606Y001686D01*
X019586Y001747D01*
X019615Y001668D02*
X019351Y001668D01*
X019351Y001570D02*
X019680Y001570D01*
X019814Y001471D02*
X017791Y001471D01*
X017755Y001435D02*
X017890Y001570D01*
X017963Y001747D01*
X017963Y001938D01*
X017890Y002114D01*
X017755Y002249D01*
X017579Y002322D01*
X017388Y002322D01*
X017211Y002249D01*
X017076Y002114D01*
X017003Y001938D01*
X017003Y001747D01*
X017076Y001570D01*
X017211Y001435D01*
X017388Y001362D01*
X017579Y001362D01*
X017755Y001435D01*
X017604Y001373D02*
X022538Y001373D01*
X022636Y001471D02*
X020153Y001471D01*
X020012Y001471D02*
X019955Y001471D01*
X019955Y001570D02*
X020012Y001570D01*
X020012Y001668D02*
X019955Y001668D01*
X019955Y001767D02*
X020012Y001767D01*
X020012Y001964D02*
X019955Y001964D01*
X019955Y002062D02*
X020012Y002062D01*
X020012Y002161D02*
X019955Y002161D01*
X019728Y002161D02*
X019335Y002161D01*
X019351Y002062D02*
X019640Y002062D01*
X019594Y001964D02*
X019351Y001964D01*
X019173Y002259D02*
X020573Y002259D01*
X020573Y002161D02*
X020238Y002161D01*
X020327Y002062D02*
X020573Y002062D01*
X020636Y001964D02*
X020372Y001964D01*
X020384Y001767D02*
X020617Y001767D01*
X020658Y001668D02*
X020352Y001668D01*
X020287Y001570D02*
X020736Y001570D01*
X021231Y001570D02*
X021736Y001570D01*
X021658Y001668D02*
X021309Y001668D01*
X021350Y001767D02*
X021617Y001767D01*
X021793Y002259D02*
X023366Y002259D01*
X023366Y002358D02*
X021694Y002358D01*
X021643Y002456D02*
X023366Y002456D01*
X023366Y002555D02*
X021643Y002555D01*
X021643Y002653D02*
X023374Y002653D01*
X023733Y002342D02*
X022483Y001092D01*
X017233Y001092D01*
X016233Y002092D01*
X016233Y002342D01*
X015945Y002358D02*
X012553Y002358D01*
X012524Y002362D02*
X012513Y002362D01*
X012513Y001872D01*
X012453Y001872D01*
X012453Y001812D01*
X011963Y001812D01*
X011963Y001801D01*
X011976Y001720D01*
X012001Y001643D01*
X012039Y001570D01*
X003127Y001570D01*
X003153Y001471D02*
X012119Y001471D01*
X012145Y001445D02*
X012211Y001397D01*
X012284Y001360D01*
X012362Y001335D01*
X012442Y001322D01*
X012453Y001322D01*
X012453Y001812D01*
X012513Y001812D01*
X012513Y001322D01*
X012524Y001322D01*
X012605Y001335D01*
X012683Y001360D01*
X012756Y001397D01*
X012822Y001445D01*
X012880Y001503D01*
X012928Y001570D01*
X013077Y001570D01*
X013076Y001570D02*
X013211Y001435D01*
X013388Y001362D01*
X013579Y001362D01*
X013755Y001435D01*
X013890Y001570D01*
X013963Y001747D01*
X013963Y001938D01*
X013890Y002114D01*
X013755Y002249D01*
X013579Y002322D01*
X013388Y002322D01*
X013211Y002249D01*
X013076Y002114D01*
X013003Y001938D01*
X013003Y001747D01*
X013076Y001570D01*
X013036Y001668D02*
X012974Y001668D01*
X012965Y001643D02*
X012991Y001720D01*
X013003Y001801D01*
X013003Y001812D01*
X012513Y001812D01*
X012513Y001872D01*
X013003Y001872D01*
X013003Y001883D01*
X012991Y001964D01*
X012965Y002042D01*
X012928Y002115D01*
X012880Y002181D01*
X012822Y002239D01*
X012756Y002287D01*
X012683Y002324D01*
X012605Y002349D01*
X012524Y002362D01*
X012513Y002358D02*
X012453Y002358D01*
X012453Y002362D02*
X012442Y002362D01*
X012362Y002349D01*
X012284Y002324D01*
X012211Y002287D01*
X012145Y002239D01*
X012087Y002181D01*
X012039Y002115D01*
X012001Y002042D01*
X011976Y001964D01*
X011963Y001883D01*
X011963Y001872D01*
X012453Y001872D01*
X012453Y002362D01*
X012414Y002358D02*
X011479Y002358D01*
X011481Y002360D02*
X011543Y002511D01*
X011543Y002674D01*
X011481Y002824D01*
X011366Y002940D01*
X011215Y003002D01*
X011052Y003002D01*
X010901Y002940D01*
X010786Y002824D01*
X010723Y002674D01*
X010723Y002511D01*
X010786Y002360D01*
X010901Y002245D01*
X011052Y002182D01*
X011215Y002182D01*
X011366Y002245D01*
X011481Y002360D01*
X011521Y002456D02*
X015945Y002456D01*
X015945Y002555D02*
X011543Y002555D01*
X011543Y002653D02*
X018793Y002653D01*
X018793Y002555D02*
X016521Y002555D01*
X016521Y002456D02*
X018793Y002456D01*
X018793Y002358D02*
X016521Y002358D01*
X016521Y002259D02*
X017236Y002259D01*
X017123Y002161D02*
X016521Y002161D01*
X016490Y002062D02*
X017055Y002062D01*
X017014Y001964D02*
X016588Y001964D01*
X016687Y001865D02*
X017003Y001865D01*
X017003Y001767D02*
X016785Y001767D01*
X016884Y001668D02*
X017036Y001668D01*
X017077Y001570D02*
X016982Y001570D01*
X017081Y001471D02*
X017176Y001471D01*
X017179Y001373D02*
X017362Y001373D01*
X017278Y001274D02*
X022439Y001274D01*
X022231Y001570D02*
X022735Y001570D01*
X022833Y001668D02*
X022309Y001668D01*
X022350Y001767D02*
X022932Y001767D01*
X023030Y001865D02*
X022351Y001865D01*
X022331Y001964D02*
X023129Y001964D01*
X023227Y002062D02*
X022283Y002062D01*
X022175Y002161D02*
X023326Y002161D01*
X020573Y002358D02*
X019173Y002358D01*
X019173Y002456D02*
X020573Y002456D01*
X020573Y002555D02*
X019173Y002555D01*
X019173Y002653D02*
X020573Y002653D01*
X020573Y002752D02*
X019173Y002752D01*
X019173Y002850D02*
X020573Y002850D01*
X020573Y002949D02*
X019173Y002949D01*
X019173Y003047D02*
X020573Y003047D01*
X020573Y003146D02*
X019173Y003146D01*
X019173Y003244D02*
X020573Y003244D01*
X020573Y003343D02*
X019173Y003343D01*
X019173Y003441D02*
X020573Y003441D01*
X020573Y003540D02*
X019173Y003540D01*
X019173Y003638D02*
X020573Y003638D01*
X020573Y003737D02*
X019173Y003737D01*
X019173Y003835D02*
X020573Y003835D01*
X020573Y003934D02*
X019173Y003934D01*
X019173Y004032D02*
X020573Y004032D01*
X020573Y004131D02*
X019173Y004131D01*
X019173Y004229D02*
X020573Y004229D01*
X020573Y004328D02*
X019173Y004328D01*
X019173Y004426D02*
X020573Y004426D01*
X020573Y004525D02*
X019173Y004525D01*
X019173Y004623D02*
X020573Y004623D01*
X020573Y004722D02*
X019173Y004722D01*
X019173Y004820D02*
X020573Y004820D01*
X020573Y004919D02*
X019173Y004919D01*
X019173Y005017D02*
X020573Y005017D01*
X020448Y005116D02*
X019269Y005116D01*
X019271Y005214D02*
X020445Y005214D01*
X020445Y005313D02*
X019271Y005313D01*
X019271Y005411D02*
X020445Y005411D01*
X020445Y005510D02*
X019271Y005510D01*
X019229Y005608D02*
X020488Y005608D01*
X018793Y004820D02*
X001219Y004820D01*
X001219Y004722D02*
X018793Y004722D01*
X018793Y004623D02*
X001219Y004623D01*
X001220Y004525D02*
X018793Y004525D01*
X018793Y004426D02*
X001220Y004426D01*
X001220Y004328D02*
X018793Y004328D01*
X018793Y004229D02*
X001221Y004229D01*
X001221Y004131D02*
X004977Y004131D01*
X004978Y004131D02*
X004911Y004109D01*
X004847Y004077D01*
X004790Y004035D01*
X004740Y003985D01*
X004698Y003928D01*
X004666Y003865D01*
X004644Y003798D01*
X004636Y003742D01*
X005033Y003742D01*
X005033Y003642D01*
X004636Y003642D01*
X004644Y003587D01*
X004666Y003519D01*
X004698Y003456D01*
X004740Y003399D01*
X004790Y003349D01*
X004847Y003307D01*
X004911Y003275D01*
X004978Y003253D01*
X005033Y003244D01*
X005033Y003642D01*
X005133Y003642D01*
X005133Y003244D01*
X005189Y003253D01*
X005256Y003275D01*
X005319Y003307D01*
X005376Y003349D01*
X005427Y003399D01*
X005468Y003456D01*
X005500Y003519D01*
X005522Y003587D01*
X005531Y003642D01*
X005133Y003642D01*
X005133Y003742D01*
X005033Y003742D01*
X005033Y004140D01*
X004978Y004131D01*
X005033Y004131D02*
X005133Y004131D01*
X005133Y004140D02*
X005133Y003742D01*
X005531Y003742D01*
X005522Y003798D01*
X005500Y003865D01*
X005468Y003928D01*
X005427Y003985D01*
X005376Y004035D01*
X005319Y004077D01*
X005256Y004109D01*
X005189Y004131D01*
X005133Y004140D01*
X005190Y004131D02*
X007380Y004131D01*
X007386Y004137D02*
X007288Y004039D01*
X007236Y003911D01*
X007236Y003773D01*
X007288Y003645D01*
X007386Y003547D01*
X007514Y003494D01*
X007653Y003494D01*
X007780Y003547D01*
X007878Y003645D01*
X007931Y003773D01*
X007931Y003911D01*
X007878Y004039D01*
X007780Y004137D01*
X007653Y004190D01*
X007514Y004190D01*
X007386Y004137D01*
X007286Y004032D02*
X005380Y004032D01*
X005464Y003934D02*
X007245Y003934D01*
X007236Y003835D02*
X005510Y003835D01*
X005530Y003638D02*
X007295Y003638D01*
X007251Y003737D02*
X005133Y003737D01*
X005133Y003835D02*
X005033Y003835D01*
X005033Y003737D02*
X004493Y003737D01*
X004493Y003774D02*
X004431Y003924D01*
X004316Y004040D01*
X004165Y004102D01*
X004002Y004102D01*
X003851Y004040D01*
X003736Y003924D01*
X003673Y003774D01*
X003673Y003611D01*
X003736Y003460D01*
X003851Y003345D01*
X004002Y003282D01*
X004165Y003282D01*
X004316Y003345D01*
X004431Y003460D01*
X004493Y003611D01*
X004493Y003774D01*
X004468Y003835D02*
X004657Y003835D01*
X004703Y003934D02*
X004422Y003934D01*
X004323Y004032D02*
X004787Y004032D01*
X005033Y004032D02*
X005133Y004032D01*
X005133Y003934D02*
X005033Y003934D01*
X005033Y003638D02*
X005133Y003638D01*
X005133Y003540D02*
X005033Y003540D01*
X005033Y003441D02*
X005133Y003441D01*
X005133Y003343D02*
X005033Y003343D01*
X004799Y003343D02*
X004311Y003343D01*
X004412Y003441D02*
X004709Y003441D01*
X004660Y003540D02*
X004464Y003540D01*
X004493Y003638D02*
X004636Y003638D01*
X005368Y003343D02*
X008486Y003343D01*
X008486Y003441D02*
X005457Y003441D01*
X005507Y003540D02*
X007405Y003540D01*
X007762Y003540D02*
X008486Y003540D01*
X008486Y003625D02*
X008550Y003690D01*
X009117Y003690D01*
X009181Y003625D01*
X009181Y003059D01*
X009117Y002994D01*
X008550Y002994D01*
X008486Y003059D01*
X008486Y003625D01*
X008498Y003638D02*
X007871Y003638D01*
X007916Y003737D02*
X011083Y003737D01*
X011083Y003742D02*
X011083Y003642D01*
X010686Y003642D01*
X010694Y003587D01*
X010716Y003519D01*
X010748Y003456D01*
X010790Y003399D01*
X010840Y003349D01*
X010897Y003307D01*
X010961Y003275D01*
X011028Y003253D01*
X011083Y003244D01*
X011083Y003642D01*
X011183Y003642D01*
X011183Y003244D01*
X011239Y003253D01*
X011306Y003275D01*
X011369Y003307D01*
X011426Y003349D01*
X011477Y003399D01*
X011518Y003456D01*
X011550Y003519D01*
X011572Y003587D01*
X011581Y003642D01*
X011183Y003642D01*
X011183Y003742D01*
X011083Y003742D01*
X010686Y003742D01*
X010694Y003798D01*
X010716Y003865D01*
X010748Y003928D01*
X010790Y003985D01*
X010840Y004035D01*
X010897Y004077D01*
X010961Y004109D01*
X011028Y004131D01*
X011083Y004140D01*
X011083Y003742D01*
X011083Y003835D02*
X011183Y003835D01*
X011183Y003742D02*
X011183Y004140D01*
X011239Y004131D01*
X011306Y004109D01*
X011369Y004077D01*
X011426Y004035D01*
X011477Y003985D01*
X011518Y003928D01*
X011550Y003865D01*
X011572Y003798D01*
X011581Y003742D01*
X011183Y003742D01*
X011183Y003737D02*
X018793Y003737D01*
X018793Y003835D02*
X011560Y003835D01*
X011514Y003934D02*
X018793Y003934D01*
X018793Y004032D02*
X011430Y004032D01*
X011240Y004131D02*
X018793Y004131D01*
X018793Y003638D02*
X011580Y003638D01*
X011557Y003540D02*
X018793Y003540D01*
X018793Y003441D02*
X011507Y003441D01*
X011418Y003343D02*
X018793Y003343D01*
X018793Y003244D02*
X010209Y003244D01*
X010206Y003229D02*
X010221Y003304D01*
X010221Y003323D01*
X009852Y003323D01*
X009852Y002954D01*
X009872Y002954D01*
X009946Y002969D01*
X010017Y002998D01*
X010081Y003041D01*
X010135Y003095D01*
X010177Y003158D01*
X010206Y003229D01*
X010168Y003146D02*
X018793Y003146D01*
X018793Y003047D02*
X010087Y003047D01*
X009852Y003047D02*
X009814Y003047D01*
X009814Y002954D02*
X009814Y003323D01*
X009446Y003323D01*
X009446Y003304D01*
X009460Y003229D01*
X009490Y003158D01*
X009532Y003095D01*
X009586Y003041D01*
X009650Y002998D01*
X009720Y002969D01*
X009795Y002954D01*
X009814Y002954D01*
X009814Y003146D02*
X009852Y003146D01*
X009852Y003244D02*
X009814Y003244D01*
X009814Y003323D02*
X009852Y003323D01*
X009852Y003361D01*
X009814Y003361D01*
X009814Y003323D01*
X009814Y003343D02*
X009181Y003343D01*
X009181Y003441D02*
X009458Y003441D01*
X009460Y003455D02*
X009446Y003380D01*
X009446Y003361D01*
X009814Y003361D01*
X009814Y003730D01*
X009795Y003730D01*
X009720Y003715D01*
X009650Y003686D01*
X009586Y003643D01*
X009532Y003589D01*
X009490Y003526D01*
X009460Y003455D01*
X009499Y003540D02*
X009181Y003540D01*
X009168Y003638D02*
X009581Y003638D01*
X009814Y003638D02*
X009852Y003638D01*
X009852Y003730D02*
X009852Y003361D01*
X010221Y003361D01*
X010221Y003380D01*
X010206Y003455D01*
X010177Y003526D01*
X010135Y003589D01*
X010081Y003643D01*
X010017Y003686D01*
X009946Y003715D01*
X009872Y003730D01*
X009852Y003730D01*
X009852Y003540D02*
X009814Y003540D01*
X009814Y003441D02*
X009852Y003441D01*
X009852Y003343D02*
X010849Y003343D01*
X010759Y003441D02*
X010209Y003441D01*
X010168Y003540D02*
X010710Y003540D01*
X010686Y003638D02*
X010086Y003638D01*
X010707Y003835D02*
X007931Y003835D01*
X007922Y003934D02*
X010753Y003934D01*
X010837Y004032D02*
X007881Y004032D01*
X007787Y004131D02*
X011027Y004131D01*
X011083Y004131D02*
X011183Y004131D01*
X011183Y004032D02*
X011083Y004032D01*
X011083Y003934D02*
X011183Y003934D01*
X011183Y003638D02*
X011083Y003638D01*
X011083Y003540D02*
X011183Y003540D01*
X011183Y003441D02*
X011083Y003441D01*
X011083Y003343D02*
X011183Y003343D01*
X011344Y002949D02*
X018793Y002949D01*
X018793Y002850D02*
X011455Y002850D01*
X011511Y002752D02*
X018793Y002752D01*
X018793Y002259D02*
X017731Y002259D01*
X017844Y002161D02*
X018631Y002161D01*
X018616Y002062D02*
X017912Y002062D01*
X017953Y001964D02*
X018616Y001964D01*
X018616Y001865D02*
X017963Y001865D01*
X017963Y001767D02*
X018616Y001767D01*
X018616Y001668D02*
X017931Y001668D01*
X017890Y001570D02*
X018616Y001570D01*
X017121Y000979D02*
X003070Y000979D01*
X003111Y001077D02*
X017022Y001077D01*
X016924Y001176D02*
X003152Y001176D01*
X003153Y001274D02*
X016825Y001274D01*
X016727Y001373D02*
X014604Y001373D01*
X014579Y001362D02*
X014755Y001435D01*
X014890Y001570D01*
X014963Y001747D01*
X014963Y001938D01*
X014890Y002114D01*
X014755Y002249D01*
X014579Y002322D01*
X014388Y002322D01*
X014211Y002249D01*
X014076Y002114D01*
X014003Y001938D01*
X014003Y001747D01*
X014076Y001570D01*
X014211Y001435D01*
X014388Y001362D01*
X014579Y001362D01*
X014362Y001373D02*
X013604Y001373D01*
X013791Y001471D02*
X014176Y001471D01*
X014077Y001570D02*
X013890Y001570D01*
X013931Y001668D02*
X014036Y001668D01*
X014003Y001767D02*
X013963Y001767D01*
X013963Y001865D02*
X014003Y001865D01*
X014014Y001964D02*
X013953Y001964D01*
X013912Y002062D02*
X014055Y002062D01*
X014123Y002161D02*
X013844Y002161D01*
X013731Y002259D02*
X014236Y002259D01*
X014731Y002259D02*
X015945Y002259D01*
X015945Y002161D02*
X014844Y002161D01*
X014912Y002062D02*
X016002Y002062D01*
X016136Y001964D02*
X014953Y001964D01*
X014963Y001865D02*
X016234Y001865D01*
X016333Y001767D02*
X014963Y001767D01*
X014931Y001668D02*
X016431Y001668D01*
X016530Y001570D02*
X014890Y001570D01*
X014791Y001471D02*
X016628Y001471D01*
X013362Y001373D02*
X012707Y001373D01*
X012848Y001471D02*
X013176Y001471D01*
X012928Y001570D02*
X012965Y001643D01*
X012998Y001767D02*
X013003Y001767D01*
X013003Y001865D02*
X012513Y001865D01*
X012453Y001865D02*
X002970Y001865D01*
X003028Y001807D02*
X003028Y001807D01*
X003045Y001767D02*
X011969Y001767D01*
X011993Y001668D02*
X003086Y001668D01*
X003153Y001373D02*
X012259Y001373D01*
X012145Y001445D02*
X012087Y001503D01*
X012039Y001570D01*
X012453Y001570D02*
X012513Y001570D01*
X012513Y001668D02*
X012453Y001668D01*
X012453Y001767D02*
X012513Y001767D01*
X012513Y001964D02*
X012453Y001964D01*
X012453Y002062D02*
X012513Y002062D01*
X012513Y002161D02*
X012453Y002161D01*
X012453Y002259D02*
X012513Y002259D01*
X012794Y002259D02*
X013236Y002259D01*
X013123Y002161D02*
X012895Y002161D01*
X012955Y002062D02*
X013055Y002062D01*
X013014Y001964D02*
X012991Y001964D01*
X012173Y002259D02*
X011380Y002259D01*
X010886Y002259D02*
X001227Y002259D01*
X001227Y002161D02*
X002167Y002161D01*
X001929Y002062D02*
X001228Y002062D01*
X001228Y001964D02*
X001795Y001964D01*
X001869Y002037D02*
X001869Y002037D01*
X001697Y001865D02*
X001228Y001865D01*
X001229Y001767D02*
X001622Y001767D01*
X001581Y001668D02*
X001229Y001668D01*
X001229Y001570D02*
X001540Y001570D01*
X001513Y001471D02*
X001230Y001471D01*
X001230Y001373D02*
X001513Y001373D01*
X001513Y001274D02*
X001230Y001274D01*
X001231Y001176D02*
X001515Y001176D01*
X001556Y001077D02*
X001231Y001077D01*
X001231Y000979D02*
X001596Y000979D01*
X001637Y000880D02*
X001232Y000880D01*
X001232Y000782D02*
X001734Y000782D01*
X001833Y000683D02*
X001232Y000683D01*
X001233Y000585D02*
X002019Y000585D01*
X001869Y000647D02*
X001869Y000647D01*
X002871Y001964D02*
X011976Y001964D01*
X012012Y002062D02*
X002738Y002062D01*
X002500Y002161D02*
X012072Y002161D01*
X012453Y001471D02*
X012513Y001471D01*
X012513Y001373D02*
X012453Y001373D01*
X010788Y002358D02*
X001227Y002358D01*
X001226Y002456D02*
X007536Y002456D01*
X007545Y002454D02*
X007470Y002469D01*
X007400Y002498D01*
X007336Y002541D01*
X007282Y002595D01*
X007240Y002658D01*
X007210Y002729D01*
X007196Y002804D01*
X007196Y002823D01*
X007564Y002823D01*
X007564Y002861D01*
X007196Y002861D01*
X007196Y002880D01*
X007210Y002955D01*
X007240Y003026D01*
X007282Y003089D01*
X007336Y003143D01*
X007400Y003186D01*
X007470Y003215D01*
X007545Y003230D01*
X007564Y003230D01*
X007564Y002861D01*
X007602Y002861D01*
X007602Y003230D01*
X007622Y003230D01*
X007696Y003215D01*
X007767Y003186D01*
X007831Y003143D01*
X007885Y003089D01*
X007927Y003026D01*
X007956Y002955D01*
X007971Y002880D01*
X007971Y002861D01*
X007602Y002861D01*
X007602Y002823D01*
X007602Y002454D01*
X007622Y002454D01*
X007696Y002469D01*
X007767Y002498D01*
X007831Y002541D01*
X007885Y002595D01*
X007927Y002658D01*
X007956Y002729D01*
X007971Y002804D01*
X007971Y002823D01*
X007602Y002823D01*
X007564Y002823D01*
X007564Y002454D01*
X007545Y002454D01*
X007564Y002456D02*
X007602Y002456D01*
X007631Y002456D02*
X010746Y002456D01*
X010723Y002555D02*
X007844Y002555D01*
X007923Y002653D02*
X010723Y002653D01*
X010756Y002752D02*
X007961Y002752D01*
X007958Y002949D02*
X010923Y002949D01*
X010812Y002850D02*
X007602Y002850D01*
X007564Y002850D02*
X001225Y002850D01*
X001226Y002752D02*
X007206Y002752D01*
X007243Y002653D02*
X001226Y002653D01*
X001226Y002555D02*
X007322Y002555D01*
X007564Y002555D02*
X007602Y002555D01*
X007602Y002653D02*
X007564Y002653D01*
X007564Y002752D02*
X007602Y002752D01*
X007602Y002949D02*
X007564Y002949D01*
X007564Y003047D02*
X007602Y003047D01*
X007602Y003146D02*
X007564Y003146D01*
X007340Y003146D02*
X001224Y003146D01*
X001224Y003244D02*
X008486Y003244D01*
X008486Y003146D02*
X007827Y003146D01*
X007913Y003047D02*
X008497Y003047D01*
X009169Y003047D02*
X009580Y003047D01*
X009498Y003146D02*
X009181Y003146D01*
X009181Y003244D02*
X009457Y003244D01*
X007254Y003047D02*
X001225Y003047D01*
X001225Y002949D02*
X007209Y002949D01*
X003856Y003343D02*
X003311Y003343D01*
X003316Y003345D02*
X003431Y003460D01*
X003493Y003611D01*
X003493Y003774D01*
X003431Y003924D01*
X003316Y004040D01*
X003165Y004102D01*
X003002Y004102D01*
X002851Y004040D01*
X002736Y003924D01*
X002673Y003774D01*
X002673Y003611D01*
X002736Y003460D01*
X002851Y003345D01*
X003002Y003282D01*
X003165Y003282D01*
X003316Y003345D01*
X003412Y003441D02*
X003754Y003441D01*
X003703Y003540D02*
X003464Y003540D01*
X003493Y003638D02*
X003673Y003638D01*
X003673Y003737D02*
X003493Y003737D01*
X003468Y003835D02*
X003699Y003835D01*
X003745Y003934D02*
X003422Y003934D01*
X003323Y004032D02*
X003844Y004032D01*
X002844Y004032D02*
X001221Y004032D01*
X001222Y003934D02*
X002745Y003934D01*
X002699Y003835D02*
X001222Y003835D01*
X001222Y003737D02*
X002673Y003737D01*
X002673Y003638D02*
X001223Y003638D01*
X001223Y003540D02*
X002703Y003540D01*
X002754Y003441D02*
X001223Y003441D01*
X001224Y003343D02*
X002856Y003343D01*
X001219Y004919D02*
X004616Y004919D01*
X004342Y005017D02*
X001218Y005017D01*
X001217Y005313D02*
X004018Y005313D01*
X003960Y005411D02*
X001217Y005411D01*
X001217Y005510D02*
X003916Y005510D01*
X003885Y005608D02*
X001216Y005608D01*
X004094Y005214D02*
X004169Y005140D01*
X026884Y008268D02*
X027540Y008268D01*
D29*
X027983Y008592D02*
X026883Y008592D01*
X025483Y007192D01*
X024283Y007192D01*
X022133Y009242D01*
X022133Y012442D01*
X020733Y012442D01*
X020733Y013342D01*
X020733Y012442D02*
X016983Y012442D01*
X015733Y013592D01*
X015733Y014092D01*
X014983Y014842D01*
X013983Y014842D01*
X012983Y013842D01*
X012983Y013342D01*
X012483Y012842D01*
X012483Y009592D01*
X011483Y008592D01*
X010983Y008592D01*
X027983Y008592D02*
X028733Y008592D01*
X029483Y007842D01*
X029483Y007342D01*
X030233Y006592D01*
X030983Y006592D01*
X031483Y006592D01*
X031858Y006217D01*
X031983Y006092D01*
X031983Y004842D01*
X032483Y004342D01*
X035733Y004342D01*
X035983Y004092D01*
X035983Y001842D01*
X035233Y001842D01*
D30*
X036983Y003642D03*
X021333Y009542D03*
D31*
X021483Y006592D03*
X020733Y005342D03*
X018983Y005342D03*
X016233Y002342D03*
D32*
X018983Y001842D02*
X018983Y005342D01*
M02*
