G75*
G70*
%OFA0B0*%
%FSLAX24Y24*%
%IPPOS*%
%LPD*%
%AMOC8*
5,1,8,0,0,1.08239X$1,22.5*
%
%ADD10C,0.0000*%
%ADD11R,0.0320X0.0600*%
%ADD12R,0.0320X0.0500*%
%ADD13R,0.0400X0.0320*%
%ADD14R,0.0500X0.0320*%
D10*
X000983Y000100D02*
X038353Y000100D01*
X038353Y016042D01*
X000983Y016042D01*
X000983Y000100D01*
X001683Y001342D02*
X001685Y001392D01*
X001691Y001442D01*
X001701Y001492D01*
X001714Y001540D01*
X001731Y001588D01*
X001752Y001634D01*
X001776Y001678D01*
X001804Y001720D01*
X001835Y001760D01*
X001869Y001797D01*
X001906Y001832D01*
X001945Y001863D01*
X001986Y001892D01*
X002030Y001917D01*
X002076Y001939D01*
X002123Y001957D01*
X002171Y001971D01*
X002220Y001982D01*
X002270Y001989D01*
X002320Y001992D01*
X002371Y001991D01*
X002421Y001986D01*
X002471Y001977D01*
X002519Y001965D01*
X002567Y001948D01*
X002613Y001928D01*
X002658Y001905D01*
X002701Y001878D01*
X002741Y001848D01*
X002779Y001815D01*
X002814Y001779D01*
X002847Y001740D01*
X002876Y001699D01*
X002902Y001656D01*
X002925Y001611D01*
X002944Y001564D01*
X002959Y001516D01*
X002971Y001467D01*
X002979Y001417D01*
X002983Y001367D01*
X002983Y001317D01*
X002979Y001267D01*
X002971Y001217D01*
X002959Y001168D01*
X002944Y001120D01*
X002925Y001073D01*
X002902Y001028D01*
X002876Y000985D01*
X002847Y000944D01*
X002814Y000905D01*
X002779Y000869D01*
X002741Y000836D01*
X002701Y000806D01*
X002658Y000779D01*
X002613Y000756D01*
X002567Y000736D01*
X002519Y000719D01*
X002471Y000707D01*
X002421Y000698D01*
X002371Y000693D01*
X002320Y000692D01*
X002270Y000695D01*
X002220Y000702D01*
X002171Y000713D01*
X002123Y000727D01*
X002076Y000745D01*
X002030Y000767D01*
X001986Y000792D01*
X001945Y000821D01*
X001906Y000852D01*
X001869Y000887D01*
X001835Y000924D01*
X001804Y000964D01*
X001776Y001006D01*
X001752Y001050D01*
X001731Y001096D01*
X001714Y001144D01*
X001701Y001192D01*
X001691Y001242D01*
X001685Y001292D01*
X001683Y001342D01*
X001633Y014792D02*
X001635Y014842D01*
X001641Y014892D01*
X001651Y014942D01*
X001664Y014990D01*
X001681Y015038D01*
X001702Y015084D01*
X001726Y015128D01*
X001754Y015170D01*
X001785Y015210D01*
X001819Y015247D01*
X001856Y015282D01*
X001895Y015313D01*
X001936Y015342D01*
X001980Y015367D01*
X002026Y015389D01*
X002073Y015407D01*
X002121Y015421D01*
X002170Y015432D01*
X002220Y015439D01*
X002270Y015442D01*
X002321Y015441D01*
X002371Y015436D01*
X002421Y015427D01*
X002469Y015415D01*
X002517Y015398D01*
X002563Y015378D01*
X002608Y015355D01*
X002651Y015328D01*
X002691Y015298D01*
X002729Y015265D01*
X002764Y015229D01*
X002797Y015190D01*
X002826Y015149D01*
X002852Y015106D01*
X002875Y015061D01*
X002894Y015014D01*
X002909Y014966D01*
X002921Y014917D01*
X002929Y014867D01*
X002933Y014817D01*
X002933Y014767D01*
X002929Y014717D01*
X002921Y014667D01*
X002909Y014618D01*
X002894Y014570D01*
X002875Y014523D01*
X002852Y014478D01*
X002826Y014435D01*
X002797Y014394D01*
X002764Y014355D01*
X002729Y014319D01*
X002691Y014286D01*
X002651Y014256D01*
X002608Y014229D01*
X002563Y014206D01*
X002517Y014186D01*
X002469Y014169D01*
X002421Y014157D01*
X002371Y014148D01*
X002321Y014143D01*
X002270Y014142D01*
X002220Y014145D01*
X002170Y014152D01*
X002121Y014163D01*
X002073Y014177D01*
X002026Y014195D01*
X001980Y014217D01*
X001936Y014242D01*
X001895Y014271D01*
X001856Y014302D01*
X001819Y014337D01*
X001785Y014374D01*
X001754Y014414D01*
X001726Y014456D01*
X001702Y014500D01*
X001681Y014546D01*
X001664Y014594D01*
X001651Y014642D01*
X001641Y014692D01*
X001635Y014742D01*
X001633Y014792D01*
X036383Y014792D02*
X036385Y014842D01*
X036391Y014892D01*
X036401Y014942D01*
X036414Y014990D01*
X036431Y015038D01*
X036452Y015084D01*
X036476Y015128D01*
X036504Y015170D01*
X036535Y015210D01*
X036569Y015247D01*
X036606Y015282D01*
X036645Y015313D01*
X036686Y015342D01*
X036730Y015367D01*
X036776Y015389D01*
X036823Y015407D01*
X036871Y015421D01*
X036920Y015432D01*
X036970Y015439D01*
X037020Y015442D01*
X037071Y015441D01*
X037121Y015436D01*
X037171Y015427D01*
X037219Y015415D01*
X037267Y015398D01*
X037313Y015378D01*
X037358Y015355D01*
X037401Y015328D01*
X037441Y015298D01*
X037479Y015265D01*
X037514Y015229D01*
X037547Y015190D01*
X037576Y015149D01*
X037602Y015106D01*
X037625Y015061D01*
X037644Y015014D01*
X037659Y014966D01*
X037671Y014917D01*
X037679Y014867D01*
X037683Y014817D01*
X037683Y014767D01*
X037679Y014717D01*
X037671Y014667D01*
X037659Y014618D01*
X037644Y014570D01*
X037625Y014523D01*
X037602Y014478D01*
X037576Y014435D01*
X037547Y014394D01*
X037514Y014355D01*
X037479Y014319D01*
X037441Y014286D01*
X037401Y014256D01*
X037358Y014229D01*
X037313Y014206D01*
X037267Y014186D01*
X037219Y014169D01*
X037171Y014157D01*
X037121Y014148D01*
X037071Y014143D01*
X037020Y014142D01*
X036970Y014145D01*
X036920Y014152D01*
X036871Y014163D01*
X036823Y014177D01*
X036776Y014195D01*
X036730Y014217D01*
X036686Y014242D01*
X036645Y014271D01*
X036606Y014302D01*
X036569Y014337D01*
X036535Y014374D01*
X036504Y014414D01*
X036476Y014456D01*
X036452Y014500D01*
X036431Y014546D01*
X036414Y014594D01*
X036401Y014642D01*
X036391Y014692D01*
X036385Y014742D01*
X036383Y014792D01*
X036433Y001342D02*
X036435Y001392D01*
X036441Y001442D01*
X036451Y001492D01*
X036464Y001540D01*
X036481Y001588D01*
X036502Y001634D01*
X036526Y001678D01*
X036554Y001720D01*
X036585Y001760D01*
X036619Y001797D01*
X036656Y001832D01*
X036695Y001863D01*
X036736Y001892D01*
X036780Y001917D01*
X036826Y001939D01*
X036873Y001957D01*
X036921Y001971D01*
X036970Y001982D01*
X037020Y001989D01*
X037070Y001992D01*
X037121Y001991D01*
X037171Y001986D01*
X037221Y001977D01*
X037269Y001965D01*
X037317Y001948D01*
X037363Y001928D01*
X037408Y001905D01*
X037451Y001878D01*
X037491Y001848D01*
X037529Y001815D01*
X037564Y001779D01*
X037597Y001740D01*
X037626Y001699D01*
X037652Y001656D01*
X037675Y001611D01*
X037694Y001564D01*
X037709Y001516D01*
X037721Y001467D01*
X037729Y001417D01*
X037733Y001367D01*
X037733Y001317D01*
X037729Y001267D01*
X037721Y001217D01*
X037709Y001168D01*
X037694Y001120D01*
X037675Y001073D01*
X037652Y001028D01*
X037626Y000985D01*
X037597Y000944D01*
X037564Y000905D01*
X037529Y000869D01*
X037491Y000836D01*
X037451Y000806D01*
X037408Y000779D01*
X037363Y000756D01*
X037317Y000736D01*
X037269Y000719D01*
X037221Y000707D01*
X037171Y000698D01*
X037121Y000693D01*
X037070Y000692D01*
X037020Y000695D01*
X036970Y000702D01*
X036921Y000713D01*
X036873Y000727D01*
X036826Y000745D01*
X036780Y000767D01*
X036736Y000792D01*
X036695Y000821D01*
X036656Y000852D01*
X036619Y000887D01*
X036585Y000924D01*
X036554Y000964D01*
X036526Y001006D01*
X036502Y001050D01*
X036481Y001096D01*
X036464Y001144D01*
X036451Y001192D01*
X036441Y001242D01*
X036435Y001292D01*
X036433Y001342D01*
D11*
X021033Y003392D03*
X020433Y003392D03*
X019833Y003392D03*
X019233Y003392D03*
X018633Y003392D03*
X018033Y003392D03*
X017433Y003392D03*
X016833Y003392D03*
X016233Y003392D03*
X015633Y003392D03*
X015033Y003392D03*
X014433Y003392D03*
X014433Y008392D03*
X015033Y008392D03*
X015633Y008392D03*
X016233Y008392D03*
X016833Y008392D03*
X017433Y008392D03*
X018033Y008392D03*
X018633Y008392D03*
X019233Y008392D03*
X019833Y008392D03*
X020433Y008392D03*
X021033Y008392D03*
D12*
X013833Y008442D03*
X013833Y003342D03*
D13*
X013183Y003792D03*
X013183Y007992D03*
D14*
X013233Y007392D03*
X013233Y006792D03*
X013233Y006192D03*
X013233Y005592D03*
X013233Y004992D03*
X013233Y004392D03*
M02*
