%
M48
M72
T01C0.0200
T02C0.0236
T03C0.0276
T04C0.0315
T05C0.0320
T06C0.0354
T07C0.0394
T08C0.0400
T09C0.0472
T10C0.1180
T11C0.1300
%
T01
X36983Y3642
X21333Y9542
T02
X18983Y5342
X21483Y6592
X20733Y5342
X16233Y2342
T03
X11983Y14592
X11983Y13592
X8833Y3342
X9833Y3342
X7583Y3842
X7583Y2842
X14233Y12592
X15233Y12592
T04
X7233Y14642
X7233Y12642
X37233Y12092
X37233Y11092
X37233Y10092
X37233Y9092
X37233Y8092
X37233Y7092
X37233Y6092
X37233Y5092
X18983Y1842
X19983Y1842
X20983Y1842
X21983Y1842
X23733Y2342
X23733Y1342
X22883Y10142
X23883Y10142
X22883Y11342
X23883Y11342
T05
X27983Y14592
X27983Y13592
X27983Y8592
X27983Y7592
X27983Y12592
X27983Y11592
X27983Y9592
X27983Y10592
X27983Y6592
X27983Y5592
X27983Y4592
X27983Y3592
X27983Y2592
X27983Y1592
X30983Y1592
X30983Y2592
X30983Y3592
X30983Y4592
X30983Y5592
X30983Y6592
X30983Y7592
X30983Y8592
X30983Y9592
X30983Y10592
X30983Y11592
X30983Y12592
X30983Y13592
X30983Y14592
X9283Y13592
X9283Y14592
X26433Y4542
X25433Y4542
X13483Y1842
X12483Y1842
T06
X20083Y9842
X17083Y9842
X7483Y11092
X10483Y11092
X9483Y9592
X9483Y6592
X8483Y9592
X8483Y6592
X7483Y6592
X7483Y9592
X32483Y11592
X35483Y11592
X14483Y1842
X17483Y1842
X20083Y11642
X17083Y11642
X20083Y10742
X17083Y10742
X13983Y14842
X16983Y14842
X14083Y13842
X16883Y13842
X24783Y5713
X24783Y8272
T07
X10983Y9592
X10983Y8592
X10983Y7592
T08
X35233Y2842
X35233Y1842
X34233Y2842
X34233Y1842
X33233Y2842
X33233Y1842
X5083Y10992
X4083Y10992
X3083Y10992
X11133Y2592
X11133Y3692
X4083Y14592
X5083Y14592
X3083Y3692
X4083Y3692
X5083Y3692
X35263Y12702
X32703Y12702
X35263Y14482
X32703Y14482
X13453Y11482
X16013Y11482
X13453Y9702
X16013Y9702
X32703Y10232
X35263Y10232
X32703Y8452
X35263Y8452
X35263Y5202
X32703Y5202
X35263Y6982
X32703Y6982
X25733Y14342
X25733Y13342
X24733Y14342
X24733Y13342
X23733Y14342
X23733Y13342
X22733Y14342
X22733Y13342
X21733Y14342
X21733Y13342
X20733Y14342
X20733Y13342
X19733Y14342
X19733Y13342
X18733Y14342
X18733Y13342
T09
X1983Y12692
X5983Y12692
T10
X5977Y7692
X3615Y7692
X4796Y5842
T11
X2333Y1342
X2283Y14792
X37033Y14792
X37083Y1342
M30
